<?xml version="1.0" encoding="utf-8"?>
<!-- Generator: Adobe Illustrator 22.1.0, SVG Export Plug-In . SVG Version: 6.00 Build 0)  -->
<svg version="1.1" id="Layer_1" xmlns="http://www.w3.org/2000/svg" xmlns:xlink="http://www.w3.org/1999/xlink" x="0px" y="0px"
	 viewBox="0 0 500 500" style="enable-background:new 0 0 500 500;" xml:space="preserve">
<style type="text/css">
	.st0{fill:#001134;}
	.st1{fill:#FF0708;}
	.st2{fill:#FCBD0A;}
	.st3{fill:#D69800;}
	.st4{fill:#957400;}
	.st5{fill:#FFF1D1;}
	.st6{fill:url(#SVGID_1_);}
	.st7{fill:#FFCA0B;}
	.st8{fill:#E7A400;}
	.st9{fill:#B07D00;}
	.st10{fill:#725700;}
	.st11{fill:#D1D1D1;}
	.st12{fill:url(#SVGID_2_);}
	.st13{fill:url(#SVGID_3_);}
	.st14{fill:#D39500;}
	.st15{fill:#2C2C2C;}
	.st16{fill:#FF981C;}
	.st17{clip-path:url(#SVGID_5_);fill:#FF5C5C;}
	.st18{fill:#F6EADA;}
	.st19{fill:url(#SVGID_6_);}
	.st20{fill:url(#SVGID_7_);}
	.st21{fill:#4A2B00;}
	.st22{fill:url(#SVGID_8_);}
	.st23{clip-path:url(#SVGID_10_);fill:#EA7700;}
	.st24{fill:#FF4023;}
	.st25{fill:#08282B;}
	.st26{fill:none;stroke:#9C6700;stroke-width:0.4679;stroke-miterlimit:10;}
	.st27{fill:none;stroke:#FFE499;stroke-width:0.6238;stroke-linecap:round;stroke-miterlimit:10;}
	.st28{fill:#FFCF00;}
	.st29{fill:url(#SVGID_11_);}
	.st30{clip-path:url(#SVGID_13_);fill:url(#SVGID_14_);}
	.st31{clip-path:url(#SVGID_13_);fill:url(#SVGID_15_);}
	.st32{clip-path:url(#SVGID_13_);fill:url(#SVGID_16_);}
	.st33{clip-path:url(#SVGID_13_);fill:url(#SVGID_17_);}
	.st34{clip-path:url(#SVGID_13_);fill:#002CD5;}
	.st35{clip-path:url(#SVGID_13_);}
	.st36{fill:#FF8F2D;}
	.st37{fill:#F8FCFD;}
	.st38{clip-path:url(#SVGID_13_);fill:#EA7700;}
	.st39{clip-path:url(#SVGID_13_);fill:#271B00;}
	.st40{fill:#FFE782;}
	.st41{clip-path:url(#SVGID_13_);fill:none;stroke:#FFE782;stroke-width:0.6808;stroke-miterlimit:10;}
	.st42{fill:#C7C7C7;}
	.st43{fill:#FFFFFF;}
	.st44{fill:none;stroke:#DB8F00;stroke-width:0.3986;stroke-miterlimit:10;}
	.st45{fill:#DB8F00;}
	.st46{fill:none;stroke:#C98200;stroke-width:0.4539;stroke-miterlimit:10;}
	.st47{fill:#373C42;}
	.st48{fill:#884900;}
	.st49{fill:none;stroke:#00167B;stroke-width:0.403;stroke-miterlimit:10;}
	.st50{fill:#00167B;}
	.st51{fill:#001C41;}
	.st52{fill:#DBDBDB;}
	.st53{clip-path:url(#SVGID_19_);fill:#555E66;}
	.st54{fill:url(#SVGID_20_);}
	.st55{fill:#000107;}
	.st56{fill:#212227;}
	.st57{fill:#F0E5C8;}
	.st58{clip-path:url(#SVGID_22_);}
	.st59{fill:#EDEDED;}
	.st60{fill:#2C0000;}
	.st61{fill:#9B0202;}
	.st62{fill:#F2DEAD;}
	.st63{clip-path:url(#SVGID_24_);}
	.st64{clip-path:url(#SVGID_26_);}
	.st65{fill:none;stroke:#74809F;stroke-width:0.5;stroke-miterlimit:10;}
	.st66{fill:#C2C2C2;}
</style>
<ellipse class="st0" cx="251" cy="445" rx="231.1" ry="6.3"/>
<g>
	<path class="st1" d="M99.5,153.5v-0.9H36.6h-9.1v6.4v62.6v6.4V289v6.4v62.6v6.4v61.1v6.4v-4.6v6.4v12.1h9.1v-12.1h53.8v13h9.1
		L99.5,153.5L99.5,153.5z M90.4,431.8 M39,431.8 M90.4,425.4H40.3l50.1-50.3V425.4z M90.4,346.9L39,295.4h51.4V346.9z M90.4,289
		H40.3l50.1-50.3V289z M90.4,158.9v51.6L39,158.9H90.4z M36.6,166.1l53.8,54v1.5H36.6V166.1z M90.4,227.9v1.2l-53.8,54v-55.2H90.4z
		 M36.6,302.5l53.8,54v1.5H36.6V302.5z M90.4,364.3v1.2l-53.8,54v-55.2H90.4z"/>
	<g>
		<g>
			<rect x="57.9" y="69.3" class="st2" width="104.1" height="82.3"/>
			<rect x="162" y="69.3" class="st3" width="35.5" height="82.3"/>
		</g>
		<g>
			<rect x="67.7" y="135.3" class="st4" width="26.4" height="2.6"/>
			<rect x="67.7" y="130.2" class="st4" width="14.4" height="2.6"/>
			<rect x="67.7" y="140.7" class="st4" width="26.4" height="2.6"/>
		</g>
		<rect x="95.4" y="69.3" class="st5" width="29" height="19.4"/>
		<polygon class="st3" points="82.3,116 74,104 65.8,113.9 68.2,114.2 68.2,124.3 79.9,124.2 79.9,115.7 		"/>
		<path class="st3" d="M121.5,142.7h-13.1c-0.3,0-0.6-0.3-0.6-0.6v-10.7c0-0.3,0.3-0.6,0.6-0.6h13.1c0.3,0,0.6,0.3,0.6,0.6v10.7
			C122.1,142.5,121.8,142.7,121.5,142.7z"/>
		<path class="st3" d="M138,142.7h-13.1c-0.3,0-0.6-0.3-0.6-0.6v-10.7c0-0.3,0.3-0.6,0.6-0.6H138c0.3,0,0.6,0.3,0.6,0.6v10.7
			C138.5,142.5,138.3,142.7,138,142.7z"/>
		<path class="st3" d="M154.5,142.7h-13.1c-0.3,0-0.6-0.3-0.6-0.6v-10.7c0-0.3,0.3-0.6,0.6-0.6h13.1c0.3,0,0.6,0.3,0.6,0.6v10.7
			C155,142.5,154.8,142.7,154.5,142.7z"/>
	</g>
	<linearGradient id="SVGID_1_" gradientUnits="userSpaceOnUse" x1="201.7162" y1="105.2011" x2="269.1991" y2="261.3184">
		<stop  offset="0" style="stop-color:#FFFFFF"/>
		<stop  offset="1" style="stop-color:#000000"/>
	</linearGradient>
	<rect x="38.7" y="151.6" class="st6" width="370" height="9.2"/>
	<g>
		<g>
			<rect x="190.4" y="53" class="st7" width="100.7" height="98.6"/>
			<rect x="291.1" y="53" class="st8" width="42.5" height="98.6"/>
		</g>
		<rect x="197.9" y="125.5" class="st5" width="27.6" height="11.2"/>
		<rect x="225.4" y="53" class="st5" width="24.8" height="42.2"/>
		<rect x="306.3" y="53" class="st9" width="15.8" height="42.2"/>
		<g>
			
				<rect x="249.6" y="126.7" transform="matrix(-1 -1.224647e-16 1.224647e-16 -1 530.7006 256.6234)" class="st10" width="31.6" height="3.1"/>
			
				<rect x="263.9" y="120.6" transform="matrix(-1 -1.224647e-16 1.224647e-16 -1 545.0639 244.3197)" class="st10" width="17.2" height="3.1"/>
			
				<rect x="249.6" y="133.2" transform="matrix(-1 -1.224647e-16 1.224647e-16 -1 530.7006 269.4776)" class="st10" width="31.6" height="3.1"/>
		</g>
	</g>
	<g>
		<g>
			
				<rect x="377.3" y="79.7" transform="matrix(-1 -1.224647e-16 1.224647e-16 -1 828.0948 231.2755)" class="st3" width="73.4" height="71.9"/>
			
				<rect x="346.4" y="79.7" transform="matrix(-1 -1.224647e-16 1.224647e-16 -1 723.7285 231.2755)" class="st7" width="31" height="71.9"/>
		</g>
		<path class="st10" d="M429.3,140.7h11.9c2.3,0,4.1-1.8,4.1-4.1l0,0c0-2.3-1.8-4.1-4.1-4.1h-11.9c-2.3,0-4.1,1.8-4.1,4.1l0,0
			C425.2,138.9,427.1,140.7,429.3,140.7z"/>
		
			<rect x="407.1" y="79.7" transform="matrix(-1 -1.224647e-16 1.224647e-16 -1 832.3638 190.1963)" class="st11" width="18.1" height="30.8"/>
		
			<rect x="354.8" y="79.7" transform="matrix(-1 -1.224647e-16 1.224647e-16 -1 721.0229 190.1963)" class="st5" width="11.5" height="30.8"/>
		<g>
			<rect x="384.6" y="133.5" class="st10" width="23" height="2.3"/>
			<rect x="384.6" y="129" class="st10" width="12.6" height="2.3"/>
			<rect x="384.6" y="138.2" class="st10" width="23" height="2.3"/>
		</g>
	</g>
	<linearGradient id="SVGID_2_" gradientUnits="userSpaceOnUse" x1="201.7162" y1="240.5489" x2="269.199" y2="396.6657">
		<stop  offset="0" style="stop-color:#FFFFFF"/>
		<stop  offset="1" style="stop-color:#000000"/>
	</linearGradient>
	<rect x="38.7" y="286.9" class="st12" width="370" height="9.2"/>
	<g>
		<g>
			<rect x="70.7" y="214.3" class="st7" width="74.2" height="72.6"/>
			<rect x="144.9" y="214.3" class="st8" width="31.3" height="72.6"/>
		</g>
		<rect x="76.2" y="267.7" class="st5" width="20.3" height="8.2"/>
		<rect x="96.5" y="214.3" class="st5" width="18.3" height="31.1"/>
		<rect x="156.1" y="214.3" class="st9" width="11.6" height="31.1"/>
		<g>
			
				<rect x="114.3" y="268.6" transform="matrix(-1 -1.224647e-16 1.224647e-16 -1 251.829 539.558)" class="st10" width="23.3" height="2.3"/>
			
				<rect x="124.9" y="264.1" transform="matrix(-1 -1.224647e-16 1.224647e-16 -1 262.412 530.4921)" class="st10" width="12.7" height="2.3"/>
			
				<rect x="114.3" y="273.4" transform="matrix(-1 -1.224647e-16 1.224647e-16 -1 251.829 549.0292)" class="st10" width="23.3" height="2.3"/>
		</g>
	</g>
	<g>
		<g>
			<rect x="168.3" y="232.7" class="st2" width="68.6" height="54.2"/>
			<rect x="237" y="232.7" class="st3" width="23.4" height="54.2"/>
		</g>
		<g>
			<rect x="174.8" y="276.2" class="st4" width="17.4" height="1.7"/>
			<rect x="174.8" y="272.8" class="st4" width="9.5" height="1.7"/>
			<rect x="174.8" y="279.7" class="st4" width="17.4" height="1.7"/>
		</g>
		<rect x="193.1" y="232.7" class="st5" width="19.1" height="12.8"/>
		<polygon class="st3" points="184.4,263.5 179,255.6 173.5,262.1 175.1,262.3 175.1,268.9 182.9,268.9 182.9,263.3 		"/>
		<path class="st3" d="M210.3,281.1h-8.6c-0.2,0-0.4-0.2-0.4-0.4v-7c0-0.2,0.2-0.4,0.4-0.4h8.6c0.2,0,0.4,0.2,0.4,0.4v7
			C210.6,280.9,210.5,281.1,210.3,281.1z"/>
		<path class="st3" d="M221.1,281.1h-8.6c-0.2,0-0.4-0.2-0.4-0.4v-7c0-0.2,0.2-0.4,0.4-0.4h8.6c0.2,0,0.4,0.2,0.4,0.4v7
			C221.5,280.9,221.3,281.1,221.1,281.1z"/>
		<path class="st3" d="M232,281.1h-8.6c-0.2,0-0.4-0.2-0.4-0.4v-7c0-0.2,0.2-0.4,0.4-0.4h8.6c0.2,0,0.4,0.2,0.4,0.4v7
			C232.3,280.9,232.2,281.1,232,281.1z"/>
	</g>
	<g>
		<g>
			
				<rect x="282.1" y="216.7" transform="matrix(-1 -1.224647e-16 1.224647e-16 -1 637.5051 505.2877)" class="st3" width="73.4" height="71.9"/>
			
				<rect x="251.1" y="216.7" transform="matrix(-1 -1.224647e-16 1.224647e-16 -1 533.1384 505.2877)" class="st7" width="31" height="71.9"/>
		</g>
		<path class="st10" d="M334,277.7h11.9c2.3,0,4.1-1.8,4.1-4.1l0,0c0-2.3-1.8-4.1-4.1-4.1H334c-2.3,0-4.1,1.8-4.1,4.1l0,0
			C329.9,275.9,331.8,277.7,334,277.7z"/>
		
			<rect x="311.8" y="216.7" transform="matrix(-1 -1.224647e-16 1.224647e-16 -1 641.7737 464.2084)" class="st11" width="18.1" height="30.8"/>
		
			<rect x="259.5" y="216.7" transform="matrix(-1 -1.224647e-16 1.224647e-16 -1 530.4333 464.2084)" class="st5" width="11.5" height="30.8"/>
		<g>
			<rect x="289.3" y="270.5" class="st10" width="23" height="2.3"/>
			<rect x="289.3" y="266" class="st10" width="12.6" height="2.3"/>
			<rect x="289.3" y="275.2" class="st10" width="23" height="2.3"/>
		</g>
	</g>
	<g>
		<g>
			<rect x="85.8" y="362.4" class="st2" width="75.8" height="59.8"/>
			<rect x="161.6" y="362.4" class="st3" width="25.8" height="59.8"/>
		</g>
		<g>
			<rect x="93" y="410.4" class="st4" width="19.2" height="1.9"/>
			<rect x="93" y="406.7" class="st4" width="10.5" height="1.9"/>
			<rect x="93" y="414.3" class="st4" width="19.2" height="1.9"/>
		</g>
		<rect x="113.2" y="362.4" class="st5" width="21.1" height="14.1"/>
		<polygon class="st3" points="103.6,396.4 97.6,387.7 91.6,394.9 93.3,395.1 93.3,402.4 101.9,402.3 101.9,396.2 		"/>
		<path class="st3" d="M132.1,415.8h-9.5c-0.2,0-0.4-0.2-0.4-0.4v-7.8c0-0.2,0.2-0.4,0.4-0.4h9.5c0.2,0,0.4,0.2,0.4,0.4v7.8
			C132.5,415.7,132.3,415.8,132.1,415.8z"/>
		<path class="st3" d="M144.1,415.8h-9.5c-0.2,0-0.4-0.2-0.4-0.4v-7.8c0-0.2,0.2-0.4,0.4-0.4h9.5c0.2,0,0.4,0.2,0.4,0.4v7.8
			C144.5,415.7,144.3,415.8,144.1,415.8z"/>
		<path class="st3" d="M156.1,415.8h-9.5c-0.2,0-0.4-0.2-0.4-0.4v-7.8c0-0.2,0.2-0.4,0.4-0.4h9.5c0.2,0,0.4,0.2,0.4,0.4v7.8
			C156.5,415.7,156.3,415.8,156.1,415.8z"/>
	</g>
	<g>
		<g>
			<rect x="340.5" y="214.3" class="st7" width="74.2" height="72.6"/>
			<rect x="414.7" y="214.3" class="st8" width="31.3" height="72.6"/>
		</g>
		<rect x="346" y="267.7" class="st5" width="20.3" height="8.2"/>
		<rect x="366.3" y="214.3" class="st5" width="18.3" height="31.1"/>
		<rect x="425.9" y="214.3" class="st9" width="11.6" height="31.1"/>
		<g>
			
				<rect x="384.1" y="268.6" transform="matrix(-1 -1.224647e-16 1.224647e-16 -1 791.4153 539.558)" class="st10" width="23.3" height="2.3"/>
			
				<rect x="394.7" y="264.1" transform="matrix(-1 -1.224647e-16 1.224647e-16 -1 801.9985 530.4921)" class="st10" width="12.7" height="2.3"/>
			
				<rect x="384.1" y="273.4" transform="matrix(-1 -1.224647e-16 1.224647e-16 -1 791.4153 549.0292)" class="st10" width="23.3" height="2.3"/>
		</g>
	</g>
	<linearGradient id="SVGID_3_" gradientUnits="userSpaceOnUse" x1="201.7162" y1="375.8963" x2="269.1991" y2="532.0136">
		<stop  offset="0" style="stop-color:#FFFFFF"/>
		<stop  offset="1" style="stop-color:#000000"/>
	</linearGradient>
	<rect x="38.7" y="422.3" class="st13" width="370" height="9.2"/>
	<g>
		<g>
			<rect x="205.8" y="323.7" class="st7" width="174.3" height="98.6"/>
			<rect x="380.1" y="323.7" class="st8" width="42.5" height="98.6"/>
		</g>
		<rect x="217.1" y="400.5" class="st5" width="30.5" height="12.4"/>
		<rect x="279.4" y="323.7" class="st5" width="24.8" height="42.2"/>
		<rect x="395.3" y="323.7" class="st9" width="15.8" height="42.2"/>
		<g>
			
				<rect x="331.1" y="400.2" transform="matrix(-1 -1.224647e-16 1.224647e-16 -1 693.8283 803.6154)" class="st10" width="31.6" height="3.1"/>
			
				<rect x="345.5" y="394.1" transform="matrix(-1 -1.224647e-16 1.224647e-16 -1 708.1916 791.3123)" class="st10" width="17.2" height="3.1"/>
			
				<rect x="331.1" y="406.7" transform="matrix(-1 -1.224647e-16 1.224647e-16 -1 693.8283 816.4702)" class="st10" width="31.6" height="3.1"/>
		</g>
		<path class="st3" d="M264.8,411.4h-10.5c-0.2,0-0.4-0.2-0.4-0.4v-8.6c0-0.2,0.2-0.4,0.4-0.4h10.5c0.2,0,0.4,0.2,0.4,0.4v8.6
			C265.3,411.2,265.1,411.4,264.8,411.4z"/>
		<path class="st3" d="M278.1,411.4h-10.5c-0.2,0-0.4-0.2-0.4-0.4v-8.6c0-0.2,0.2-0.4,0.4-0.4h10.5c0.2,0,0.4,0.2,0.4,0.4v8.6
			C278.5,411.2,278.3,411.4,278.1,411.4z"/>
		<path class="st3" d="M291.3,411.4h-10.5c-0.2,0-0.4-0.2-0.4-0.4v-8.6c0-0.2,0.2-0.4,0.4-0.4h10.5c0.2,0,0.4,0.2,0.4,0.4v8.6
			C291.8,411.2,291.6,411.4,291.3,411.4z"/>
		<polygon class="st3" points="230.2,387.6 224.2,378.9 218.2,386.1 219.9,386.3 219.9,393.6 228.5,393.5 228.5,387.4 		"/>
		<polygon class="st3" points="244.9,387.6 238.9,378.9 232.8,386.1 234.6,386.3 234.6,393.6 243.1,393.5 243.1,387.4 		"/>
	</g>
	<g>
		<g>
			
				<rect x="105.1" y="305.1" transform="matrix(-1 -1.224647e-16 1.224647e-16 -1 269.3814 668.2394)" class="st3" width="59.2" height="58"/>
			
				<rect x="80.1" y="305.1" transform="matrix(-1 -1.224647e-16 1.224647e-16 -1 185.1776 668.2394)" class="st7" width="25" height="58"/>
		</g>
		<path class="st10" d="M147,354.4h9.6c1.8,0,3.3-1.5,3.3-3.3l0,0c0-1.8-1.5-3.3-3.3-3.3H147c-1.8,0-3.3,1.5-3.3,3.3l0,0
			C143.7,352.9,145.2,354.4,147,354.4z"/>
		
			<rect x="129.1" y="305.1" transform="matrix(-1 -1.224647e-16 1.224647e-16 -1 272.8256 635.0966)" class="st11" width="14.6" height="24.8"/>
		
			<rect x="86.9" y="305.1" transform="matrix(-1 -1.224647e-16 1.224647e-16 -1 182.9949 635.0966)" class="st5" width="9.3" height="24.8"/>
		<g>
			<rect x="110.9" y="348.5" class="st10" width="18.6" height="1.8"/>
			<rect x="110.9" y="344.9" class="st10" width="10.1" height="1.8"/>
			<rect x="110.9" y="352.3" class="st10" width="18.6" height="1.8"/>
		</g>
	</g>
	<path class="st1" d="M474.2,153.5v-0.9h-62.8h-9.1v6.4v62.6v6.4V289v6.4v62.6v6.4v61.1v6.4v-4.6v6.4v12.1h9.1v-12.1h53.8v13h9.1
		L474.2,153.5L474.2,153.5z M465.2,431.8 M413.8,431.8 M465.2,425.4H415l50.1-50.3V425.4z M465.2,346.9l-51.4-51.6h51.4V346.9z
		 M465.2,289H415l50.1-50.3V289z M465.2,158.9v51.6l-51.4-51.6H465.2z M411.4,166.1l53.8,54v1.5h-53.8V166.1z M465.2,227.9v1.2
		l-53.8,54v-55.2H465.2z M411.4,302.5l53.8,54v1.5h-53.8V302.5z M465.2,364.3v1.2l-53.8,54v-55.2H465.2z"/>
</g>
</svg>
