<?xml version="1.0" encoding="utf-8"?>
<!-- Generator: Adobe Illustrator 22.1.0, SVG Export Plug-In . SVG Version: 6.00 Build 0)  -->
<svg version="1.1" id="Layer_1" xmlns="http://www.w3.org/2000/svg" xmlns:xlink="http://www.w3.org/1999/xlink" x="0px" y="0px"
	 viewBox="0 0 500 500" style="enable-background:new 0 0 500 500;" xml:space="preserve">
<style type="text/css">
	.st0{fill:#001134;}
	.st1{fill:#FF0708;}
	.st2{fill:#FCBD0A;}
	.st3{fill:#D69800;}
	.st4{fill:#957400;}
	.st5{fill:#FFF1D1;}
	.st6{fill:url(#SVGID_1_);}
	.st7{fill:#FFCA0B;}
	.st8{fill:#E7A400;}
	.st9{fill:#B07D00;}
	.st10{fill:#725700;}
	.st11{fill:#D1D1D1;}
	.st12{fill:url(#SVGID_2_);}
	.st13{fill:url(#SVGID_3_);}
	.st14{fill:#D39500;}
	.st15{fill:#2C2C2C;}
	.st16{fill:#FF981C;}
	.st17{clip-path:url(#SVGID_5_);fill:#FF5C5C;}
	.st18{fill:#F6EADA;}
	.st19{fill:url(#SVGID_6_);}
	.st20{fill:url(#SVGID_7_);}
	.st21{fill:#4A2B00;}
	.st22{fill:url(#SVGID_8_);}
	.st23{clip-path:url(#SVGID_10_);fill:#EA7700;}
	.st24{fill:#FF4023;}
	.st25{fill:#08282B;}
	.st26{fill:none;stroke:#9C6700;stroke-width:0.4679;stroke-miterlimit:10;}
	.st27{fill:none;stroke:#FFE499;stroke-width:0.6238;stroke-linecap:round;stroke-miterlimit:10;}
	.st28{fill:#FFCF00;}
	.st29{fill:url(#SVGID_11_);}
	.st30{clip-path:url(#SVGID_13_);fill:url(#SVGID_14_);}
	.st31{clip-path:url(#SVGID_13_);fill:url(#SVGID_15_);}
	.st32{clip-path:url(#SVGID_13_);fill:url(#SVGID_16_);}
	.st33{clip-path:url(#SVGID_13_);fill:url(#SVGID_17_);}
	.st34{clip-path:url(#SVGID_13_);fill:#002CD5;}
	.st35{clip-path:url(#SVGID_13_);}
	.st36{fill:#FF8F2D;}
	.st37{fill:#F8FCFD;}
	.st38{clip-path:url(#SVGID_13_);fill:#EA7700;}
	.st39{clip-path:url(#SVGID_13_);fill:#271B00;}
	.st40{fill:#FFE782;}
	.st41{clip-path:url(#SVGID_13_);fill:none;stroke:#FFE782;stroke-width:0.6808;stroke-miterlimit:10;}
	.st42{fill:#C7C7C7;}
	.st43{fill:#FFFFFF;}
	.st44{fill:none;stroke:#DB8F00;stroke-width:0.3986;stroke-miterlimit:10;}
	.st45{fill:#DB8F00;}
	.st46{fill:none;stroke:#C98200;stroke-width:0.4539;stroke-miterlimit:10;}
	.st47{fill:#373C42;}
	.st48{fill:#884900;}
	.st49{fill:none;stroke:#00167B;stroke-width:0.403;stroke-miterlimit:10;}
	.st50{fill:#00167B;}
	.st51{fill:#001C41;}
	.st52{fill:#DBDBDB;}
	.st53{clip-path:url(#SVGID_19_);fill:#555E66;}
	.st54{fill:url(#SVGID_20_);}
	.st55{fill:#000107;}
	.st56{fill:#212227;}
	.st57{fill:#F0E5C8;}
	.st58{clip-path:url(#SVGID_22_);}
	.st59{fill:#EDEDED;}
	.st60{fill:#2C0000;}
	.st61{fill:#9B0202;}
	.st62{fill:#F2DEAD;}
	.st63{clip-path:url(#SVGID_24_);}
	.st64{clip-path:url(#SVGID_26_);}
	.st65{fill:none;stroke:#74809F;stroke-width:0.5;stroke-miterlimit:10;}
	.st66{fill:#C2C2C2;}
</style>
<g>
	<ellipse class="st0" cx="242" cy="391" rx="231.1" ry="6.3"/>
	<g>
		<g>
			<g>
				<g>
					<rect x="330.8" y="224.9" class="st2" width="62.2" height="60.9"/>
					<rect x="393" y="224.9" class="st8" width="26.2" height="60.9"/>
				</g>
				<rect x="335.4" y="269.7" class="st3" width="17" height="6.9"/>
				<rect x="352.4" y="224.9" class="st5" width="15.3" height="26.1"/>
				<rect x="402.4" y="224.9" class="st9" width="9.8" height="26.1"/>
				<g>
					
						<rect x="367.3" y="270.4" transform="matrix(-1 -1.224647e-16 1.224647e-16 -1 754.1888 542.8009)" class="st10" width="19.5" height="1.9"/>
					
						<rect x="376.2" y="266.6" transform="matrix(-1 -1.224647e-16 1.224647e-16 -1 763.0596 535.2024)" class="st10" width="10.6" height="1.9"/>
					
						<rect x="367.3" y="274.4" transform="matrix(-1 -1.224647e-16 1.224647e-16 -1 754.1888 550.7396)" class="st10" width="19.5" height="1.9"/>
				</g>
			</g>
			<g>
				<g>
					<rect x="394.6" y="224.9" class="st7" width="62.2" height="60.9"/>
					<rect x="456.8" y="224.9" class="st8" width="26.2" height="60.9"/>
				</g>
				<rect x="399.2" y="269.7" class="st5" width="17" height="6.9"/>
				<path class="st9" d="M410.8,234.9L410.8,234.9c0-2.6,2.1-4.7,4.7-4.7h16.7c2.6,0,4.7,2.1,4.7,4.7l0,0c0,2.6-2.1,4.7-4.7,4.7
					h-16.7C412.9,239.6,410.8,237.5,410.8,234.9z"/>
				<rect x="466.2" y="224.9" class="st9" width="9.8" height="26.1"/>
				<g>
					
						<rect x="431.1" y="270.4" transform="matrix(-1 -1.224647e-16 1.224647e-16 -1 881.7072 542.8009)" class="st10" width="19.5" height="1.9"/>
					
						<rect x="431.1" y="274.4" transform="matrix(-1 -1.224647e-16 1.224647e-16 -1 881.7072 550.7396)" class="st10" width="19.5" height="1.9"/>
				</g>
			</g>
			<g>
				<g>
					<rect x="330.8" y="164" class="st7" width="62.2" height="60.9"/>
					<rect x="393" y="164" class="st8" width="26.2" height="60.9"/>
				</g>
				<path class="st9" d="M348.9,177.1L348.9,177.1c0-2.6,2.1-4.7,4.7-4.7h16.7c2.6,0,4.7,2.1,4.7,4.7l0,0c0,2.6-2.1,4.7-4.7,4.7
					h-16.7C351,181.7,348.9,179.6,348.9,177.1z"/>
				<rect x="335.4" y="208.8" class="st5" width="17" height="6.9"/>
				<rect x="402.4" y="164" class="st9" width="9.8" height="26.1"/>
				<g>
					
						<rect x="367.3" y="209.6" transform="matrix(-1 -1.224647e-16 1.224647e-16 -1 754.1888 421.0573)" class="st10" width="19.5" height="1.9"/>
					
						<rect x="367.3" y="213.5" transform="matrix(-1 -1.224647e-16 1.224647e-16 -1 754.1888 428.996)" class="st10" width="19.5" height="1.9"/>
				</g>
			</g>
			<g>
				<g>
					<rect x="394.6" y="164" class="st2" width="62.2" height="60.9"/>
					<rect x="456.8" y="164" class="st14" width="26.2" height="60.9"/>
				</g>
				<rect x="399.2" y="208.8" class="st5" width="17" height="6.9"/>
				<rect x="416.2" y="164" class="st5" width="15.3" height="15.8"/>
				<g>
					
						<rect x="431.1" y="209.6" transform="matrix(-1 -1.224647e-16 1.224647e-16 -1 881.7072 421.0573)" class="st10" width="19.5" height="1.9"/>
					
						<rect x="440" y="205.8" transform="matrix(-1 -1.224647e-16 1.224647e-16 -1 890.5775 413.4588)" class="st10" width="10.6" height="1.9"/>
					
						<rect x="431.1" y="213.5" transform="matrix(-1 -1.224647e-16 1.224647e-16 -1 881.7072 428.996)" class="st10" width="19.5" height="1.9"/>
				</g>
			</g>
			<g>
				<g>
					<rect x="330.8" y="103.1" class="st2" width="62.2" height="60.9"/>
					<rect x="393" y="103.1" class="st8" width="26.2" height="60.9"/>
				</g>
				<rect x="335.4" y="147.9" class="st5" width="17" height="6.9"/>
				<rect x="352.4" y="103.1" class="st5" width="15.3" height="14.2"/>
				<rect x="402.4" y="103.1" class="st9" width="9.8" height="26.1"/>
				<g>
					
						<rect x="367.3" y="148.7" transform="matrix(-1 -1.224647e-16 1.224647e-16 -1 754.1888 299.3138)" class="st10" width="19.5" height="1.9"/>
					
						<rect x="376.2" y="144.9" transform="matrix(-1 -1.224647e-16 1.224647e-16 -1 763.0596 291.7153)" class="st10" width="10.6" height="1.9"/>
					
						<rect x="367.3" y="152.7" transform="matrix(-1 -1.224647e-16 1.224647e-16 -1 754.1888 307.2525)" class="st10" width="19.5" height="1.9"/>
				</g>
			</g>
			<g>
				<g>
					<rect x="394.6" y="103.1" class="st7" width="62.2" height="60.9"/>
					<rect x="456.8" y="103.1" class="st8" width="26.2" height="60.9"/>
				</g>
				<rect x="399.2" y="147.9" class="st3" width="17" height="6.9"/>
				<rect x="416.2" y="103.1" class="st5" width="15.3" height="26.1"/>
				<rect x="466.2" y="103.1" class="st9" width="9.8" height="26.1"/>
				<g>
					
						<rect x="431.1" y="148.7" transform="matrix(-1 -1.224647e-16 1.224647e-16 -1 881.7072 299.3138)" class="st10" width="19.5" height="1.9"/>
					
						<rect x="431.1" y="152.7" transform="matrix(-1 -1.224647e-16 1.224647e-16 -1 881.7072 307.2525)" class="st10" width="19.5" height="1.9"/>
				</g>
			</g>
		</g>
		<g>
			<g>
				<g>
					<polygon points="308.3,215.8 258.7,259.5 258.7,242.9 308.3,199.3 					"/>
					<g>
						<rect x="297.2" y="88.2" width="17.3" height="208.6"/>
						<rect x="302.3" y="88.2" class="st15" width="6.8" height="208.6"/>
					</g>
				</g>
				<g>
					<polygon points="201.3,225.4 218.2,260.5 218.2,304.1 267.9,304.1 256.8,241.4 243.5,241.4 228.6,229.5 219.9,229.5 209,218.8 
											"/>
					<g>
						<g>
							<path d="M190.1,235.1c-0.8,0-1.5-0.3-2-1c-0.9-1.1-0.7-2.7,0.4-3.6l27.5-21.6c1.1-0.9,2.7-0.7,3.6,0.4
								c0.9,1.1,0.7,2.7-0.4,3.6l-27.5,21.6C191.2,234.9,190.6,235.1,190.1,235.1z"/>
						</g>
					</g>
					<g>
						<g>
							<path d="M270.1,306.4c-2.4,0-4.5-1.7-5-4.1l-25.7-129.8c-5.6-28.1-30.4-48.6-59.1-48.6h-77.5v129c0,2.8-2.3,5.1-5.1,5.1
								c-2.8,0-5.1-2.3-5.1-5.1V113.8h87.7c33.5,0,62.6,23.9,69.1,56.7l25.7,129.8c0.5,2.8-1.2,5.4-4,6
								C270.7,306.4,270.4,306.4,270.1,306.4z"/>
						</g>
					</g>
					<polygon class="st16" points="133.7,257.4 135.6,250.9 177.9,250.9 173.8,302 					"/>
					<path d="M176.3,242.4h-7v-10.8c0-6.3-5.2-11.5-11.5-11.5H138l-6.4-28c-0.7-2.8-3.5-4.6-6.3-4c-2.8,0.7-4.6,3.5-4,6.3l12.5,54.4
						c0.6,2.4,2.7,4.1,5.1,4.1h37.3c2.9,0,5.3-2.4,5.3-5.3S179.2,242.4,176.3,242.4z M138.7,222.7h19.2c4.9,0,8.9,4,8.9,8.9v10.8
						h-23.5L138.7,222.7z"/>
					<path class="st1" d="M147.7,100.5c-0.7-2.2-1.8-4.1-4.1-4.1h-0.7h-6h-0.7c-2.2,0-3.4,1.9-4.1,4.1l-3,10.5h7.7h6h7.7
						L147.7,100.5z"/>
					<polygon points="129.2,111 128,113.8 151.9,113.8 150.6,111 					"/>
					<g>
						<defs>
							<path id="SVGID_4_" d="M147.7,100.5c-0.7-2.2-1.8-4.1-4.1-4.1h-0.7h-6h-0.7c-2.2,0-3.4,1.9-4.1,4.1l-3,10.5h7.7h6h7.7
								L147.7,100.5z"/>
						</defs>
						<clipPath id="SVGID_1_">
							<use xlink:href="#SVGID_4_"  style="overflow:visible;"/>
						</clipPath>
						<polygon style="clip-path:url(#SVGID_1_);fill:#FF5C5C;" points="149.6,117.4 142.2,117.4 135.7,92.7 143,92.7 						"/>
					</g>
					<g>
						<g>
							<path d="M250.1,223.7c-0.2,0-0.5,0-0.7-0.1c-0.1,0-1.7-0.7-9.9-3.1c-9.6-2.9-11.2-10.4-11.2-10.8c-0.2-1.2-5.7-29.8-6.4-37.2
								c-0.2-1.6-0.2-3.1,0-4.6c0.4-4.1,2.5-8.1,5.8-11l7.7-6.6c0.8-0.7,2-0.6,2.7,0.2c0.7,0.8,0.6,2-0.2,2.7l-7.7,6.6
								c-2.6,2.2-4.2,5.3-4.5,8.4c-0.1,1.3-0.1,2.6,0,3.9c0.7,7.2,6.3,36.5,6.3,36.8c0,0.2,1.3,5.7,8.6,7.8
								c8.4,2.5,10.1,3.2,10.2,3.3c1,0.4,1.4,1.5,1,2.5C251.5,223.2,250.8,223.7,250.1,223.7z"/>
						</g>
					</g>
				</g>
				<g>
					<rect x="314.5" y="203.9" class="st15" width="9.2" height="75.8"/>
					<g>
						<rect x="323.7" y="146.5" class="st1" width="8.5" height="148.1"/>
						
							<rect x="394.3" y="216.2" transform="matrix(-1.836970e-16 1 -1 -1.836970e-16 688.7845 -108.2942)" class="st1" width="8.5" height="148.1"/>
					</g>
				</g>
			</g>
			<g>
				<g>
					<ellipse transform="matrix(0.7071 -0.7071 0.7071 0.7071 -161.3194 306.9339)" cx="289.8" cy="348.2" rx="39.5" ry="39.5"/>
					<g>
						<path class="st15" d="M318.6,348.8c0-15.7-12.7-28.3-28.3-28.3c-15.7,0-28.3,12.7-28.3,28.3c0,15.7,12.7,28.3,28.3,28.3
							C305.9,377.1,318.6,364.4,318.6,348.8z"/>
						<path class="st18" d="M310.5,348.8c0-11.2-9.1-20.3-20.3-20.3c-11.2,0-20.3,9.1-20.3,20.3c0,11.2,9.1,20.3,20.3,20.3
							C301.4,369.1,310.5,360,310.5,348.8z"/>
						<g>
							<g>
								<g>
									<path d="M292.5,349.1c0-1.3-1-2.3-2.3-2.3c-1.3,0-2.3,1-2.3,2.3s1,2.3,2.3,2.3C291.5,351.4,292.5,350.4,292.5,349.1z"/>
								</g>
								<g>
									<g>
										<path d="M287.8,340.5L287.8,340.5c1.3,1.3,3.5,1.3,4.8,0l0,0c2.1-2.1,0.6-5.8-2.4-5.8h0
											C287.2,334.8,285.7,338.4,287.8,340.5z"/>
										<path d="M303.7,344.4L303.7,344.4c-1-2.8-4.9-3.1-6.2-0.4v0c-0.8,1.7-0.1,3.7,1.5,4.5v0
											C301.7,349.9,304.7,347.3,303.7,344.4z"/>
										<path d="M298.9,360.3L298.9,360.3c2.4-1.8,1.4-5.6-1.6-6h0c-1.8-0.2-3.5,1.1-3.8,2.9v0
											C293.1,360.2,296.5,362.1,298.9,360.3z"/>
										<path d="M282.3,360.9L282.3,360.9c2.5,1.7,5.8-0.5,5.2-3.5h0c-0.4-1.8-2.1-3-4-2.7h0C280.6,355.3,279.8,359.2,282.3,360.9
											z"/>
										<path d="M276.5,345.3L276.5,345.3c-0.8,2.9,2.3,5.3,4.9,3.8l0,0c1.6-0.9,2.2-3,1.2-4.6l0,0
											C281.2,341.9,277.3,342.4,276.5,345.3z"/>
									</g>
								</g>
							</g>
						</g>
					</g>
				</g>
				<g>
					<circle cx="76.3" cy="363.1" r="28.8"/>
					<g>
						<path class="st15" d="M97.3,363.5c0-11.4-9.3-20.7-20.7-20.7c-11.4,0-20.7,9.3-20.7,20.7c0,11.4,9.3,20.7,20.7,20.7
							C88,384.2,97.3,375,97.3,363.5z"/>
						<circle class="st18" cx="76.6" cy="363.5" r="14.8"/>
						<g>
							<g>
								<g>
									<path d="M78.2,363.8c0-0.9-0.7-1.7-1.7-1.7c-0.9,0-1.7,0.7-1.7,1.7c0,0.9,0.7,1.7,1.7,1.7
										C77.5,365.5,78.2,364.7,78.2,363.8z"/>
								</g>
								<g>
									<g>
										<path d="M74.8,357.5L74.8,357.5c1,1,2.5,1,3.5,0l0,0c1.6-1.6,0.5-4.2-1.7-4.2l0,0C74.4,353.3,73.3,355.9,74.8,357.5z"/>
										<path d="M86.4,360.3L86.4,360.3c-0.7-2.1-3.6-2.3-4.5-0.3l0,0c-0.6,1.2-0.1,2.7,1.1,3.3l0,0
											C85,364.3,87.1,362.4,86.4,360.3z"/>
										<path d="M82.9,372L82.9,372c1.7-1.3,1-4.1-1.2-4.4h0c-1.3-0.2-2.6,0.8-2.8,2.1l0,0C78.7,371.8,81.2,373.3,82.9,372z"/>
										<path d="M70.8,372.3L70.8,372.3c1.8,1.2,4.2-0.4,3.8-2.5v0c-0.3-1.3-1.6-2.2-2.9-1.9h0C69.5,368.3,69,371.1,70.8,372.3z"
											/>
										<path d="M66.5,361L66.5,361c-0.6,2.1,1.7,3.9,3.6,2.8l0,0c1.2-0.7,1.6-2.2,0.9-3.4l0,0C70,358.5,67.1,358.9,66.5,361z"/>
									</g>
								</g>
							</g>
						</g>
					</g>
				</g>
				<g>
					<rect x="176.6" y="310.3" width="49.3" height="11.4"/>
					<rect x="168" y="301.3" class="st7" width="61" height="9.1"/>
				</g>
				<g>
					<g>
						<linearGradient id="SVGID_2_" gradientUnits="userSpaceOnUse" x1="158.1547" y1="108.3952" x2="158.1547" y2="466.5594">
							<stop  offset="0.1622" style="stop-color:#FFCF00"/>
							<stop  offset="0.3279" style="stop-color:#FFCD00"/>
							<stop  offset="0.4229" style="stop-color:#FFC400"/>
							<stop  offset="0.5001" style="stop-color:#FFB600"/>
							<stop  offset="0.5672" style="stop-color:#FFA300"/>
							<stop  offset="0.5878" style="stop-color:#FF9B00"/>
							<stop  offset="0.692" style="stop-color:#F68800"/>
							<stop  offset="0.8897" style="stop-color:#E76900"/>
							<stop  offset="1" style="stop-color:#E15D00"/>
						</linearGradient>
						<path class="st12" d="M289.9,298.7c3.4,0,6.7,0.3,9.9,1v-26.5h-71.1l-8.1,47.3h-37.1l-23.1-56.1c-2.6-6.2-8.6-10.3-15.3-10.3
							H47.1c-16.8,0-30.5,13.7-30.5,30.5v75.3h25.3c1.6-17.6,16.4-31.4,34.4-31.4c18,0,32.8,13.8,34.4,31.4h131.2
							c-0.9-3.8-1.5-7.7-1.5-11.7C240.4,320.8,262.6,298.7,289.9,298.7z"/>
						<linearGradient id="SVGID_3_" gradientUnits="userSpaceOnUse" x1="76.2859" y1="108.3975" x2="76.2859" y2="466.5582">
							<stop  offset="0.1622" style="stop-color:#FFCF00"/>
							<stop  offset="0.3279" style="stop-color:#FFCD00"/>
							<stop  offset="0.4229" style="stop-color:#FFC400"/>
							<stop  offset="0.5001" style="stop-color:#FFB600"/>
							<stop  offset="0.5672" style="stop-color:#FFA300"/>
							<stop  offset="0.5878" style="stop-color:#FF9B00"/>
							<stop  offset="0.692" style="stop-color:#F68800"/>
							<stop  offset="0.8897" style="stop-color:#E76900"/>
							<stop  offset="1" style="stop-color:#E15D00"/>
						</linearGradient>
						<path class="st13" d="M76.3,328.4c-18,0-32.8,13.8-34.4,31.4h5.7c1.6-14.5,13.8-25.8,28.7-25.8s27.2,11.3,28.7,25.8h5.7
							C109.1,342.2,94.3,328.4,76.3,328.4z"/>
						<path class="st21" d="M76.3,328.4c-18,0-32.8,13.8-34.4,31.4h5.7c1.6-14.5,13.8-25.8,28.7-25.8s27.2,11.3,28.7,25.8h5.7
							C109.1,342.2,94.3,328.4,76.3,328.4z"/>
						<linearGradient id="SVGID_5_" gradientUnits="userSpaceOnUse" x1="270.0945" y1="108.396" x2="270.0945" y2="466.5593">
							<stop  offset="0.1622" style="stop-color:#FFCF00"/>
							<stop  offset="0.3279" style="stop-color:#FFCD00"/>
							<stop  offset="0.4229" style="stop-color:#FFC400"/>
							<stop  offset="0.5001" style="stop-color:#FFB600"/>
							<stop  offset="0.5672" style="stop-color:#FFA300"/>
							<stop  offset="0.5878" style="stop-color:#FF9B00"/>
							<stop  offset="0.692" style="stop-color:#F68800"/>
							<stop  offset="0.8897" style="stop-color:#E76900"/>
							<stop  offset="1" style="stop-color:#E15D00"/>
						</linearGradient>
						<path style="fill:url(#SVGID_5_);" d="M250.5,348.1c0-21.8,17.6-39.4,39.4-39.4c3.4,0,6.7,0.5,9.9,1.3v-10.3
							c-3.2-0.6-6.5-1-9.9-1c-27.3,0-49.4,22.1-49.4,49.4c0,4,0.5,8,1.5,11.7h10.4C251.1,356.2,250.5,352.2,250.5,348.1z"/>
						<path class="st21" d="M250.5,348.1c0-21.8,17.6-39.4,39.4-39.4c3.4,0,6.7,0.5,9.9,1.3v-10.3c-3.2-0.6-6.5-1-9.9-1
							c-27.3,0-49.4,22.1-49.4,49.4c0,4,0.5,8,1.5,11.7h10.4C251.1,356.2,250.5,352.2,250.5,348.1z"/>
					</g>
					<g>
						<g>
							<defs>
								<path id="SVGID_9_" d="M289.9,298.7c3.4,0,6.7,0.3,9.9,1v-26.5h-71.1l-8.1,47.3h-37.1l-23.1-56.1
									c-2.6-6.2-8.6-10.3-15.3-10.3H47.1c-16.8,0-30.5,13.7-30.5,30.5v75.3h25.3c1.6-17.6,16.4-31.4,34.4-31.4
									c18,0,32.8,13.8,34.4,31.4h131.2c-0.9-3.8-1.5-7.7-1.5-11.7C240.4,320.8,262.6,298.7,289.9,298.7z"/>
							</defs>
							<clipPath id="SVGID_6_">
								<use xlink:href="#SVGID_9_"  style="overflow:visible;"/>
							</clipPath>
							<rect x="-64" y="285.1" style="clip-path:url(#SVGID_6_);fill:#EA7700;" width="259.4" height="20.8"/>
						</g>
						<g>
							<rect x="16.6" y="284.2" class="st24" width="21.2" height="22.7"/>
							<rect x="16.6" y="295.3" class="st25" width="21.2" height="11.7"/>
						</g>
						<g>
							<path class="st26" d="M299.8,288.2c-3.8-0.8-7.7-1.2-11.8-1.2c-32.5,0-58.9,26.4-58.9,58.9c0,4.8,0.6,9.5,1.7,14"/>
						</g>
						<path class="st26" d="M103.3,341.5h46.2c7,0,12.7,5.7,12.7,12.7v5.7"/>
						<line class="st26" x1="16.6" y1="317.5" x2="37.3" y2="317.5"/>
						<line class="st26" x1="16.6" y1="324.8" x2="37.3" y2="324.8"/>
						<line class="st26" x1="16.6" y1="332.2" x2="37.3" y2="332.2"/>
						<path class="st27" d="M130.3,259.5H52.5c-11.6,0-21.7,6.5-26.8,16.1"/>
					</g>
				</g>
			</g>
		</g>
	</g>
</g>
</svg>
