<?xml version="1.0" encoding="utf-8"?>
<!-- Generator: Adobe Illustrator 22.1.0, SVG Export Plug-In . SVG Version: 6.00 Build 0)  -->
<svg version="1.1" id="Layer_1" xmlns="http://www.w3.org/2000/svg" xmlns:xlink="http://www.w3.org/1999/xlink" x="0px" y="0px"
	 viewBox="0 0 500 500" style="enable-background:new 0 0 500 500;" xml:space="preserve">
<style type="text/css">
	.st0{fill:#001134;}
	.st1{fill:#FF0708;}
	.st2{fill:#FCBD0A;}
	.st3{fill:#D69800;}
	.st4{fill:#957400;}
	.st5{fill:#FFF1D1;}
	.st6{fill:url(#SVGID_1_);}
	.st7{fill:#FFCA0B;}
	.st8{fill:#E7A400;}
	.st9{fill:#B07D00;}
	.st10{fill:#725700;}
	.st11{fill:#D1D1D1;}
	.st12{fill:url(#SVGID_2_);}
	.st13{fill:url(#SVGID_3_);}
	.st14{fill:#D39500;}
	.st15{fill:#2C2C2C;}
	.st16{fill:#FF981C;}
	.st17{clip-path:url(#SVGID_5_);fill:#FF5C5C;}
	.st18{fill:#F6EADA;}
	.st19{fill:url(#SVGID_6_);}
	.st20{fill:url(#SVGID_7_);}
	.st21{fill:#4A2B00;}
	.st22{fill:url(#SVGID_8_);}
	.st23{clip-path:url(#SVGID_10_);fill:#EA7700;}
	.st24{fill:#FF4023;}
	.st25{fill:#08282B;}
	.st26{fill:none;stroke:#9C6700;stroke-width:0.4679;stroke-miterlimit:10;}
	.st27{fill:none;stroke:#FFE499;stroke-width:0.6238;stroke-linecap:round;stroke-miterlimit:10;}
	.st28{fill:#FFCF00;}
	.st29{fill:url(#SVGID_11_);}
	.st30{clip-path:url(#SVGID_13_);fill:url(#SVGID_14_);}
	.st31{clip-path:url(#SVGID_13_);fill:url(#SVGID_15_);}
	.st32{clip-path:url(#SVGID_13_);fill:url(#SVGID_16_);}
	.st33{clip-path:url(#SVGID_13_);fill:url(#SVGID_17_);}
	.st34{clip-path:url(#SVGID_13_);fill:#002CD5;}
	.st35{clip-path:url(#SVGID_13_);}
	.st36{fill:#FF8F2D;}
	.st37{fill:#F8FCFD;}
	.st38{clip-path:url(#SVGID_13_);fill:#EA7700;}
	.st39{clip-path:url(#SVGID_13_);fill:#271B00;}
	.st40{fill:#FFE782;}
	.st41{clip-path:url(#SVGID_13_);fill:none;stroke:#FFE782;stroke-width:0.6808;stroke-miterlimit:10;}
	.st42{fill:#C7C7C7;}
	.st43{fill:#FFFFFF;}
	.st44{fill:none;stroke:#DB8F00;stroke-width:0.3986;stroke-miterlimit:10;}
	.st45{fill:#DB8F00;}
	.st46{fill:none;stroke:#C98200;stroke-width:0.4539;stroke-miterlimit:10;}
	.st47{fill:#373C42;}
	.st48{fill:#884900;}
	.st49{fill:none;stroke:#00167B;stroke-width:0.403;stroke-miterlimit:10;}
	.st50{fill:#00167B;}
	.st51{fill:#001C41;}
	.st52{fill:#DBDBDB;}
	.st53{clip-path:url(#SVGID_19_);fill:#555E66;}
	.st54{fill:url(#SVGID_20_);}
	.st55{fill:#000107;}
	.st56{fill:#212227;}
	.st57{fill:#F0E5C8;}
	.st58{clip-path:url(#SVGID_22_);}
	.st59{fill:#EDEDED;}
	.st60{fill:#2C0000;}
	.st61{fill:#9B0202;}
	.st62{fill:#F2DEAD;}
	.st63{clip-path:url(#SVGID_24_);}
	.st64{clip-path:url(#SVGID_26_);}
	.st65{fill:none;stroke:#74809F;stroke-width:0.5;stroke-miterlimit:10;}
	.st66{fill:#C2C2C2;}
</style>
<g>
	<ellipse class="st0" cx="244.5" cy="381" rx="230.9" ry="5.9"/>
	<g>
		<g>
			<g>
				<path class="st28" d="M334.1,345.1h1.1c-0.1-1.2-0.1-2.4-0.1-3.6c0-8.7,2.2-16.9,6-24.1c-4.5,7.5-7.1,16.3-7.1,25.7
					C334,343.8,334,344.5,334.1,345.1z"/>
				<path class="st28" d="M128.6,302.5c11.1,9.4,18.1,23.3,18.1,39c0,1.2-0.1,2.4-0.1,3.6h2.8c0-0.7,0.1-1.3,0.1-2
					C149.4,326.4,141.2,311.6,128.6,302.5z"/>
				<path class="st28" d="M295,345.1c-0.3,0-0.6,0-0.9,0h-3.9h-10.1H149.3c0,0.5-0.1,1-0.1,1.5h131h9.9h3.8c0.3,0,0.6,0,0.8,0
					c0.3,0,0.6,0,0.9,0h38.5c0-0.5-0.1-1-0.1-1.5h-38.1C295.6,345.1,295.3,345.1,295,345.1z"/>
				<linearGradient id="SVGID_1_" gradientUnits="userSpaceOnUse" x1="244.5354" y1="110.3814" x2="244.5354" y2="373.9337">
					<stop  offset="0.1622" style="stop-color:#FFCF00"/>
					<stop  offset="0.3279" style="stop-color:#FFCD00"/>
					<stop  offset="0.4229" style="stop-color:#FFC400"/>
					<stop  offset="0.5001" style="stop-color:#FFB600"/>
					<stop  offset="0.5672" style="stop-color:#FFA300"/>
					<stop  offset="0.5878" style="stop-color:#FF9B00"/>
					<stop  offset="0.7701" style="stop-color:#D07B00"/>
					<stop  offset="0.9179" style="stop-color:#B16500"/>
					<stop  offset="1" style="stop-color:#A55D00"/>
				</linearGradient>
				<path class="st6" d="M434.9,246.4l-72.7-80.7c-12-20.2-34.1-33.8-59.2-33.8h0h-8.8H170.5H38.7c-9,0-16.3,7.3-16.3,16.3v181.2
					c0,8.2,6.1,15,14,16.2c0.8,0.1,1.5,0.2,2.3,0.2h6c-0.1-1.2-0.1-2.4-0.1-3.6c0-28.2,22.9-51.1,51.1-51.1c12.6,0,24.1,4.6,33,12.1
					c12.6,9.1,20.8,23.9,20.8,40.6c0,0.7,0,1.4-0.1,2h130.9h10.1h3.9c0.3,0,0.6,0,0.9,0c0.3,0,0.6,0,0.9,0h38.1c0-0.7-0.1-1.3-0.1-2
					c0-9.4,2.6-18.2,7.1-25.7c8.6-16.1,25.5-27,45-27c28.2,0,51.1,22.9,51.1,51.1c0,1.1,0,2.2-0.1,3.3c3-0.4,5.9-1.2,8.7-2.4
					c12.3-5.2,20.9-17.3,20.9-31.4v-31.5c0-17.4-10.7-29.2-26.5-33.9C439.2,246.4,435.9,246.5,434.9,246.4z"/>
			</g>
			<g>
				<defs>
					<path id="SVGID_12_" d="M433.5,245.6L362.1,165c-12-20.2-34.1-33.8-59.2-33.8h0h-8.8H170.5H38.7c-9,0-16.3,7.3-16.3,16.3v181.2
						c0,9,7.3,16.3,16.3,16.3h6c-0.1-1.2-0.1-2.4-0.1-3.6c0-28.2,22.9-51.1,51.1-51.1c28.2,0,51.1,22.9,51.1,51.1
						c0,1.2-0.1,2.4-0.1,3.6h133.7h10.1h3.9c0.3,0,0.6,0,0.9,0c0.3,0,0.6,0,0.9,0h39.3c-0.1-1.2-0.1-2.4-0.1-3.6
						c0-28.2,22.9-51.1,51.1-51.1c28.2,0,51.1,22.9,51.1,51.1c0,1.1,0,2.2-0.1,3.3c16.6-2.2,29.6-16.5,29.6-33.7v-31.5
						C466.7,261.2,451.8,246,433.5,245.6z"/>
				</defs>
				<clipPath id="SVGID_2_">
					<use xlink:href="#SVGID_12_"  style="overflow:visible;"/>
				</clipPath>
				<linearGradient id="SVGID_3_" gradientUnits="userSpaceOnUse" x1="-35.6587" y1="307.2366" x2="418.9934" y2="298.4692">
					<stop  offset="5.319150e-02" style="stop-color:#002CD5"/>
					<stop  offset="0.8418" style="stop-color:#00198D"/>
				</linearGradient>
				<polygon style="clip-path:url(#SVGID_2_);fill:url(#SVGID_3_);" points="236.8,355.4 311.1,304.1 249.9,252.7 0.1,253.1 
					-10.3,340.5 238.7,340.5 				"/>
				<linearGradient id="SVGID_5_" gradientUnits="userSpaceOnUse" x1="152.7478" y1="295.5687" x2="291.1618" y2="295.5687">
					<stop  offset="0" style="stop-color:#00198D;stop-opacity:0"/>
					<stop  offset="0.7287" style="stop-color:#002CD5"/>
				</linearGradient>
				<polygon style="clip-path:url(#SVGID_2_);fill:url(#SVGID_5_);" points="256.1,315.3 284.6,295.6 261.1,275.9 260.4,281.6 
					171.3,281.6 173.3,309.6 256.8,309.6 				"/>
				<linearGradient id="SVGID_6_" gradientUnits="userSpaceOnUse" x1="102.7895" y1="305.509" x2="224.3664" y2="305.509">
					<stop  offset="5.319150e-02" style="stop-color:#002CD5;stop-opacity:0"/>
					<stop  offset="0.4179" style="stop-color:#0023B3;stop-opacity:0.3888"/>
					<stop  offset="0.7802" style="stop-color:#001C97;stop-opacity:0.7751"/>
					<stop  offset="0.9911" style="stop-color:#00198D"/>
				</linearGradient>
				<polygon style="clip-path:url(#SVGID_2_);fill:url(#SVGID_6_);" points="193.8,326.7 224.4,305.5 199.2,284.4 198.4,290.5 
					102.8,290.5 105,320.5 194.5,320.5 				"/>
				<linearGradient id="SVGID_7_" gradientUnits="userSpaceOnUse" x1="242.7973" y1="268.3123" x2="-27.3212" y2="268.3123">
					<stop  offset="5.319150e-02" style="stop-color:#002CD5"/>
					<stop  offset="0.7199" style="stop-color:#00198D;stop-opacity:0"/>
				</linearGradient>
				<polygon style="clip-path:url(#SVGID_2_);fill:url(#SVGID_7_);" points="230.8,275.3 240.9,268.3 232.6,261.4 232.3,263.4 
					8,263.4 6.8,273.3 231.1,273.3 				"/>
				<polygon style="clip-path:url(#SVGID_2_);fill:#002CD5;" points="104.2,345.1 165.6,302.7 115,260.2 113.5,272.6 4.7,272.6 
					9.1,332.8 105.7,332.8 				"/>
				<g style="clip-path:url(#SVGID_2_);">
					<path class="st36" d="M474.4,283.7h-34.2v-38.1C440.2,245.6,476.1,235.1,474.4,283.7z"/>
					<rect x="440" y="264.6" class="st37" width="42.6" height="18.7"/>
				</g>
				<rect x="22.2" y="246.2" style="clip-path:url(#SVGID_2_);fill:#EA7700;" width="418.1" height="8.4"/>
				<path style="clip-path:url(#SVGID_2_);fill:#271B00;" d="M-20.4,223.4c0,0,168.2-87.3,392.7,22.6H-22.6L-20.4,223.4z"/>
				<g style="clip-path:url(#SVGID_2_);">
					<path class="st40" d="M302.9,131.2L302.9,131.2h-8.8H170.5H38.7c-9,0-16.3,7.3-16.3,16.3v59.7c1.7-0.5,3.4-1,5.1-1.4V153
						c0-8.8,7.2-16,16-16h129.2h121.3h8.6h0c18.2,0,24.8,7.3,37,19.2h16.4C343.2,141,324.2,131.2,302.9,131.2z"/>
				</g>
				<path style="clip-path:url(#SVGID_2_);fill:none;stroke:#FFE782;stroke-width:0.6808;stroke-miterlimit:10;" d="M254.2,238.2
					v-60.9c0-3.2-2.6-5.9-5.9-5.9h-193c-3.2,0-5.9,2.6-5.9,5.9v14"/>
				<g style="clip-path:url(#SVGID_2_);">
					<path class="st42" d="M185.5,249.5h26c3.5,0,6.7-0.6,9.7-1.9c0.9-0.4,1.7-0.8,2.5-1.3h-46.4c0.7,0.7,1.5,1.3,2.4,1.8
						C181.4,249,183.4,249.5,185.5,249.5z"/>
				</g>
				<g style="clip-path:url(#SVGID_2_);">
					<path class="st43" d="M31.5,229.3c3.9,1.8,8.5,2.7,13.8,2.7c3.5,0,6.9-0.4,10-1.1c3.1-0.8,5.9-1.9,8.2-3.5
						c2.4-1.6,4.2-3.7,5.5-6.2c1.3-2.6,2-5.6,2-9.1H54.7c0,1.9-0.4,3.4-1.1,4.6c-0.7,1.2-1.7,2.1-3,2.6c-1.3,0.6-3,0.8-4.9,0.8
						c-2.1,0-3.8-0.4-5.2-1.2c-1.3-0.8-2.3-1.9-2.9-3.4c-0.6-1.5-0.9-3.2-0.9-5.3v-5c0-2.1,0.3-3.8,0.9-5.3c0.6-1.5,1.5-2.6,2.8-3.4
						c1.3-0.8,2.9-1.2,5-1.2c1.8,0,3.4,0.3,4.7,0.8c1.3,0.6,2.3,1.4,3,2.6c0.7,1.2,1,2.7,1,4.5h17c0-3.5-0.7-6.6-2-9.1
						c-1.3-2.5-3.2-4.6-5.5-6.2c-2.4-1.6-5.1-2.8-8.2-3.5c-3.1-0.8-6.4-1.1-10-1.1c-5.3,0-9.9,0.9-13.8,2.7c-3.9,1.8-7,4.5-9.1,8.1
						c-2.2,3.6-3.3,8.2-3.3,13.6c0,5.4,1.1,9.9,3.3,13.6C24.5,224.8,27.6,227.5,31.5,229.3z"/>
					<path class="st43" d="M96,203c-4,0.4-7.3,1.3-10.1,2.4c-2.8,1.2-4.9,2.9-6.3,5c-1.4,2.2-2.2,5-2.2,8.5c0,2.4,0.4,4.5,1.2,6.1
						c0.8,1.7,1.9,3,3.4,4.1c1.5,1,3.2,1.8,5.2,2.2c2,0.4,4.2,0.7,6.6,0.7c2.6,0,5-0.3,7.1-0.8c2.1-0.5,3.9-1.2,5.5-2.1
						c1.6-0.9,3-1.9,4.3-3h0.6c0.4,1.2,1.2,2.2,2.3,3.1c1.1,0.9,2.5,1.6,4.3,2c1.8,0.5,3.8,0.7,6.2,0.7c2.2,0,4.1-0.2,5.7-0.6
						c1.6-0.4,2.8-0.8,3.5-1.2v-10.2h-3.2c-0.9,0-1.6-0.3-2.1-1c-0.5-0.7-0.7-1.5-0.7-2.4v-18.2c0-3.8-1.1-6.8-3.4-9.1
						c-2.2-2.2-5.2-3.8-8.8-4.7c-3.7-0.9-7.6-1.4-11.9-1.4c-5.3,0-9.8,0.6-13.4,1.8c-3.6,1.2-6.4,2.9-8.2,5
						c-1.9,2.1-2.8,4.7-2.8,7.5c0,0.2,0,0.4,0,0.6c0,0.2,0,0.4,0.1,0.6h17.3v-0.4c0-1.1,0.3-1.9,1-2.5c0.7-0.6,1.5-1,2.6-1.2
						c1.1-0.2,2.1-0.4,3.1-0.4c1.3,0,2.4,0.2,3.4,0.6c1,0.4,1.8,1,2.4,1.8s0.9,1.8,0.9,3.1v2.3C104.5,202.3,100,202.5,96,203z
						 M109.7,214.6c0,0.9-0.2,1.8-0.7,2.6c-0.5,0.8-1.1,1.5-1.9,2c-0.8,0.6-1.8,1-2.8,1.3c-1,0.3-2.1,0.5-3.2,0.5
						c-1,0-2-0.1-2.9-0.4c-0.9-0.2-1.7-0.7-2.3-1.3c-0.6-0.6-0.9-1.6-0.9-2.7c0-1.2,0.5-2.2,1.5-3.1c1-0.9,2.6-1.6,4.7-2.1
						c2.1-0.5,5-0.8,8.4-0.8V214.6z"/>
					<path class="st43" d="M156.6,210.2c0-1.8,0.2-3.3,0.6-4.7c0.4-1.4,1-2.6,1.8-3.5c0.8-1,1.9-1.7,3.2-2.2
						c1.3-0.5,2.9-0.8,4.8-0.8h5.7v-14.7c-0.4-0.2-1.1-0.5-2-0.7c-0.9-0.2-2-0.4-3.2-0.4c-1.8,0-3.4,0.3-5,0.9
						c-1.6,0.6-3,1.5-4.2,2.8c-1.2,1.2-2.2,2.7-3,4.5h-0.6l-1.1-7.1H139v46.6h17.6V210.2z"/>
					<path class="st43" d="M228.3,242c1.8-2.4,2.7-5.2,2.7-8.5c0-4.4-1.3-7.9-3.8-10.7c-2.5-2.8-6.5-4.2-11.9-4.2h-15.9
						c-2.2,0-3.7-0.3-4.5-0.8c-0.7-0.5-1.1-1.2-1.1-1.9c0-0.8,0.4-1.4,1.3-1.9c0.9-0.5,2.3-0.7,4.3-0.7h6.7c3.5,0,6.7-0.5,9.7-1.6
						c3-1.1,5.4-2.7,7.2-4.9c1.8-2.2,2.7-5,2.7-8.5c0-1.9-0.5-3.8-1.5-5.5c-1-1.7-2.3-3.3-4-4.5c2.2-0.6,4.2-1.4,5.8-2.4
						c1.6-1,2.9-2.3,3.7-4c0.9-1.6,1.3-3.7,1.3-6.3h-14.5c0,0.8-0.5,2-1.5,3.5c-1,1.5-2.8,3.1-5.4,4.7c-0.9-0.2-2-0.3-3.2-0.4
						c-1.2-0.1-2.7-0.1-4.5-0.1c-4.4,0-8.4,0.5-12,1.4c-3.7,0.9-6.6,2.5-8.7,4.6c-2.2,2.2-3.3,5.2-3.3,9.1c0,2.2,0.7,4.3,2.2,6.2
						c1.4,1.9,3.2,3.5,5.3,4.9c-2.5,0.6-4.6,1.8-6.3,3.7c-1.7,1.9-2.6,4-2.6,6.3c0,1.6,0.4,3.2,1.2,4.6c0.8,1.4,1.9,2.6,3.4,3.6
						c-1.9,0.9-3.7,2.2-5.2,4.1c-1.5,1.8-2.3,3.9-2.3,6.4c0,2.1,0.5,4,1.6,5.8c0.5,0.9,1.2,1.6,1.9,2.3h46.4
						C225.5,245.1,227.1,243.7,228.3,242z M197.2,193.8c1.3-0.9,2.9-1.4,4.7-1.4c2.1,0,3.7,0.5,4.9,1.4c1.2,0.9,1.9,2.4,1.9,4.4
						c0,2-0.6,3.5-1.9,4.4c-1.2,0.9-2.9,1.4-4.9,1.4c-1.4,0-2.5-0.2-3.5-0.6c-1-0.4-1.8-1.1-2.3-1.9c-0.5-0.9-0.8-2-0.8-3.3
						C195.2,196.3,195.9,194.8,197.2,193.8z M212.9,237.6c-0.4,0.7-1,1.2-1.7,1.5c-0.7,0.4-1.5,0.5-2.4,0.5H195
						c-1.3,0-2.4-0.4-3.3-1.2c-0.9-0.8-1.3-1.9-1.3-3.3c0-1.4,0.4-2.4,1.3-3.1c0.9-0.7,2-1.1,3.3-1.1h13.8c1.3,0,2.4,0.4,3.3,1.1
						c0.9,0.8,1.4,1.8,1.4,3.2C213.5,236.1,213.3,236.9,212.9,237.6z"/>
					<path class="st43" d="M247.3,229.3c3.9,1.8,8.5,2.7,13.8,2.7c5.3,0,9.9-0.9,13.9-2.7c3.9-1.8,7-4.5,9.2-8.1
						c2.2-3.6,3.3-8.1,3.3-13.6c0-5.5-1.1-10-3.3-13.6c-2.2-3.6-5.2-6.3-9.2-8.1c-3.9-1.8-8.6-2.7-13.9-2.7c-5.3,0-9.9,0.9-13.8,2.7
						c-3.9,1.8-7,4.5-9.1,8.1c-2.2,3.6-3.3,8.1-3.3,13.6c0,5.4,1.1,9.9,3.3,13.6C240.3,224.8,243.4,227.5,247.3,229.3z M252.4,205.1
						c0-2.1,0.3-3.8,0.9-5.3c0.6-1.5,1.5-2.6,2.8-3.4c1.3-0.8,2.9-1.2,5-1.2c2.1,0,3.7,0.4,5,1.2c1.3,0.8,2.2,1.9,2.8,3.4
						c0.6,1.5,0.9,3.3,0.9,5.3v5c0,2.1-0.3,3.8-0.9,5.3c-0.6,1.5-1.5,2.6-2.8,3.4c-1.3,0.8-3,1.2-5,1.2c-2.1,0-3.7-0.4-5-1.2
						c-1.3-0.8-2.2-1.9-2.8-3.4c-0.6-1.5-0.9-3.2-0.9-5.3V205.1z"/>
				</g>
			</g>
			<path class="st21" d="M95.6,290.4c-28.2,0-51.1,22.9-51.1,51.1c0,1.2,0.1,2.4,0.1,3.6h101.9c0.1-1.2,0.1-2.4,0.1-3.6
				C146.7,313.3,123.8,290.4,95.6,290.4z"/>
			<path class="st21" d="M386.2,290.4c-28.2,0-51.1,22.9-51.1,51.1c0,1.2,0.1,2.4,0.1,3.6h97.5c1.5,0,3-0.1,4.4-0.3
				c0.1-1.1,0.1-2.2,0.1-3.3C437.2,313.3,414.4,290.4,386.2,290.4z"/>
			<g>
				<circle cx="95.6" cy="341.5" r="38.8"/>
				<g>
					
						<ellipse transform="matrix(0.7071 -0.7071 0.7071 0.7071 -213.7615 168.0819)" class="st15" cx="96" cy="342.1" rx="27.9" ry="27.9"/>
					<path class="st18" d="M116,342.1c0-11-8.9-19.9-19.9-19.9c-11,0-19.9,8.9-19.9,19.9c0,11,8.9,19.9,19.9,19.9
						C107,362,116,353.1,116,342.1z"/>
					<g>
						<g>
							<g>
								<path d="M98.2,342.4c0-1.2-1-2.3-2.3-2.3c-1.2,0-2.3,1-2.3,2.3c0,1.2,1,2.3,2.3,2.3C97.2,344.7,98.2,343.7,98.2,342.4z"/>
							</g>
							<g>
								<g>
									<path d="M91.9,332.2l2.5,2.5c0.9,0.9,2.3,0.9,3.2,0l2.5-2.5c1.4-1.4,0.4-3.9-1.6-3.9h-5C91.5,328.3,90.5,330.7,91.9,332.2z
										"/>
									<path d="M110.1,340.1l-1.6-4.7c-0.7-1.9-3.3-2.1-4.2-0.3l-1.6,3.2c-0.6,1.1-0.1,2.5,1,3.1l3.2,1.6
										C108.8,343.8,110.8,342.1,110.1,340.1z"/>
									<path d="M102.6,354.9l4-3c1.6-1.2,0.9-3.8-1.1-4.1l-3.5-0.5c-1.3-0.2-2.4,0.7-2.6,2l-0.5,3.5
										C98.7,354.8,101,356.2,102.6,354.9z"/>
									<path d="M86.2,352.6l4.1,2.8c1.7,1.1,3.9-0.3,3.5-2.3l-0.7-3.5c-0.2-1.2-1.4-2-2.7-1.8l-3.5,0.7
										C85,348.8,84.5,351.4,86.2,352.6z"/>
									<path d="M83.1,336.2l-1.3,4.8c-0.5,2,1.6,3.6,3.4,2.6l3.1-1.8c1.1-0.6,1.5-2,0.8-3.1l-1.8-3.1
										C86.3,333.9,83.7,334.3,83.1,336.2z"/>
								</g>
							</g>
						</g>
					</g>
				</g>
			</g>
			<g>
				<circle cx="386.1" cy="341.5" r="38.8"/>
				<g>
					
						<ellipse transform="matrix(0.987 -0.1607 0.1607 0.987 -49.9363 66.5422)" class="st15" cx="386.5" cy="342.1" rx="27.9" ry="27.9"/>
					<path class="st18" d="M406.5,342.1c0-11-8.9-19.9-19.9-19.9c-11,0-19.9,8.9-19.9,19.9c0,11,8.9,19.9,19.9,19.9
						C397.5,362,406.5,353.1,406.5,342.1z"/>
					<g>
						<g>
							<g>
								<path d="M388.7,342.4c0-1.2-1-2.3-2.3-2.3s-2.3,1-2.3,2.3c0,1.2,1,2.3,2.3,2.3S388.7,343.7,388.7,342.4z"/>
							</g>
							<g>
								<g>
									<path d="M382.4,332.2l2.5,2.5c0.9,0.9,2.3,0.9,3.2,0l2.5-2.5c1.4-1.4,0.4-3.9-1.6-3.9h-5C382,328.3,381,330.7,382.4,332.2z
										"/>
									<path d="M400.6,340.1l-1.6-4.7c-0.7-1.9-3.3-2.1-4.2-0.3l-1.6,3.2c-0.6,1.1-0.1,2.5,1,3.1l3.2,1.6
										C399.3,343.8,401.3,342.1,400.6,340.1z"/>
									<path d="M393.1,354.9l4-3c1.6-1.2,0.9-3.8-1.1-4.1l-3.5-0.5c-1.3-0.2-2.4,0.7-2.6,2l-0.5,3.5
										C389.2,354.8,391.5,356.2,393.1,354.9z"/>
									<path d="M376.7,352.6l4.1,2.8c1.7,1.1,3.9-0.3,3.5-2.3l-0.7-3.5c-0.2-1.2-1.4-2-2.7-1.8l-3.5,0.7
										C375.5,348.8,375,351.4,376.7,352.6z"/>
									<path d="M373.7,336.2l-1.3,4.8c-0.5,2,1.6,3.6,3.4,2.6l3.1-1.8c1.1-0.6,1.5-2,0.8-3.1l-1.8-3.1
										C376.8,333.9,374.2,334.3,373.7,336.2z"/>
								</g>
							</g>
						</g>
					</g>
				</g>
			</g>
			<path class="st44" d="M40.3,253.8v-86.1c0-3.5,2.9-6.4,6.4-6.4h210.2c3.5,0,6.4,2.9,6.4,6.4v86.1"/>
			<g>
				<rect x="22.4" y="271.5" class="st24" width="21.3" height="22.8"/>
				<rect x="22.4" y="282.6" class="st25" width="21.3" height="11.7"/>
			</g>
			<polyline class="st44" points="263.3,131.8 263.3,153 40.3,153 40.3,131.8 			"/>
			<line class="st44" x1="146.7" y1="131.2" x2="146.7" y2="152.7"/>
			<g>
				<polygon class="st45" points="274.8,273.7 273.6,272.7 273.9,156.9 357.3,156.9 357.3,158 275.1,158 				"/>
			</g>
			<g>
				<polyline class="st45" points="263.9,254.6 263.9,264.4 262.7,263.4 262.7,254.6 				"/>
			</g>
			<line class="st46" x1="389.9" y1="290.4" x2="390.2" y2="248.1"/>
			<line class="st46" x1="412" y1="297" x2="412.3" y2="246.4"/>
			<g>
				<path d="M146.7,343.2c0,1.2-0.1,2.4-0.1,3.6h133.7h10.1h3.9c0.3,0,0.6,0,0.9,0c0.3,0,0.6,0,0.9,0h39.3c-0.1-1.2-0.1-2.4-0.1-3.6
					c0-6.1,1.1-11.9,3-17.4H143.7C145.6,331.3,146.7,337.1,146.7,343.2z"/>
				<path d="M15.9,330.5c0,0.2,0,0.5,0,0.7c0.5,2.9,1.2,5.5,2.3,7.7c2.9,4.7,8.1,7.9,14,7.9h12.5c-0.1-1.2-0.1-2.4-0.1-3.6
					c0-6.1,1.1-11.9,3-17.4H15.9V330.5z"/>
				<path d="M437.2,343.2c0,1.1,0,2.2-0.1,3.3c1.4-0.2,16.3-0.5,17.7-0.8c10.3-2.7,18.8-10.2,22.9-19.9h-43.5
					C436.2,331.3,437.2,337.1,437.2,343.2z"/>
				<path class="st47" d="M140.1,317.1c1.6,2.8,3,5.7,4.1,8.7h194.4c1.1-3.1,2.5-6,4.1-8.7H140.1z"/>
				<path class="st47" d="M15.9,317.1v8.7h31.7c1.1-3.1,2.5-6,4.1-8.7H15.9z"/>
				<path class="st47" d="M430.1,317.1c1.6,2.8,3,5.7,4.1,8.7h43.5c1.2-2.8,2-5.7,2.3-8.7H430.1z"/>
			</g>
			<line class="st44" x1="146.7" y1="161.9" x2="146.7" y2="246.6"/>
			<g>
				<rect x="146.1" y="246.1" class="st48" width="1.2" height="8.7"/>
			</g>
			<line class="st49" x1="146.7" y1="254.9" x2="146.7" y2="317.1"/>
			<g>
				<rect x="39.7" y="246.1" class="st48" width="1.2" height="8.7"/>
			</g>
			<line class="st49" x1="40.3" y1="254.9" x2="40.3" y2="271.5"/>
			<line class="st49" x1="40.3" y1="293.9" x2="40.3" y2="317.1"/>
			<g>
				<polygon class="st50" points="274.8,316.9 273.6,316.9 273.6,272.6 274.8,273.6 				"/>
			</g>
			<g>
				<polygon class="st50" points="263.9,316.9 262.7,316.9 262.7,263.7 263.9,264.7 				"/>
			</g>
			<polygon class="st51" points="412.1,246.4 340.2,165.2 362.4,165.2 435,246.4 			"/>
			<path d="M291,254.6v14.9c0,2.9,2.4,5.3,5.3,5.3v-25.4C293.4,249.3,291,251.7,291,254.6z"/>
			<path d="M254.2,269.5v-14.9c0-2.9-2.4-5.3-5.3-5.3v25.4C251.8,274.8,254.2,272.4,254.2,269.5z"/>
			<g>
				<polygon class="st40" points="410.5,246.4 339.7,165.7 340.7,164.8 412.1,246.4 				"/>
			</g>
			<g>
				<path class="st52" d="M253.3,215.5c-0.1-0.1-0.1-0.3-0.1-0.4v16.1c0.7,0.1,1.4,0.3,2.1,0.4v-13.3
					C254.4,217.5,253.8,216.6,253.3,215.5z"/>
				<path class="st52" d="M253.3,199.8c0.4-1.1,1.1-2.1,1.9-2.8v-13.4c-0.7,0.1-1.4,0.2-2.1,0.4v16.2
					C253.2,200.1,253.3,199.9,253.3,199.8z"/>
			</g>
			<g>
				<g>
					<rect x="262.7" y="246.1" class="st48" width="1.2" height="8.5"/>
				</g>
			</g>
			<g>
				<g>
					<rect x="273.7" y="246.1" class="st48" width="1.2" height="8.5"/>
				</g>
			</g>
			<g>
				<g>
					<rect x="389.5" y="246.1" class="st48" width="1.3" height="8.5"/>
				</g>
			</g>
			<g>
				<g>
					<rect x="411.5" y="246.4" class="st48" width="1.4" height="8.1"/>
				</g>
			</g>
			<g>
				<g>
					<path class="st51" d="M283.1,224v-45.7c0-5.7,4.6-10.4,10.4-10.4h29.2c3,0,5.8,1.3,7.7,3.5l63.2,70.8h-92.4
						C291.3,242.2,283.1,234,283.1,224z"/>
					<g>
						<defs>
							<path id="SVGID_18_" d="M283.1,224v-45.7c0-5.7,4.6-10.4,10.4-10.4h29.2c3,0,5.8,1.3,7.7,3.5l63.2,70.8h-92.4
								C291.3,242.2,283.1,234,283.1,224z"/>
						</defs>
						<clipPath id="SVGID_8_">
							<use xlink:href="#SVGID_18_"  style="overflow:visible;"/>
						</clipPath>
						<polygon style="clip-path:url(#SVGID_8_);fill:#555E66;" points="300.2,150.5 259.2,150.5 359.8,263.1 400.8,263.1 						"/>
					</g>
				</g>
				<g>
					<path d="M390.2,241.1l-5.7-6.7c0.6-0.9,1.1-1.9,1.4-3c-5.4-6.8-13.2-5.7-16.9-4.6v14.5c4.8,0,9.1-1.4,12.3-3.6l4.2,4.9
						c-0.8,0.8-1.3,1.8-1.3,2.9c0,2.5,2.4,4.5,5.3,4.5c3,0,5.3-2,5.3-4.5C394.8,243.2,392.7,241.4,390.2,241.1z"/>
					<path class="st15" d="M385.9,231.4c0.2-0.7,0.3-1.5,0.3-2.2c0-6.7-7.8-12.1-17.2-12.1v9.7C372.7,225.7,380.5,224.6,385.9,231.4
						z"/>
				</g>
			</g>
		</g>
	</g>
</g>
</svg>
