<?xml version="1.0" encoding="utf-8"?>
<!-- Generator: Adobe Illustrator 22.1.0, SVG Export Plug-In . SVG Version: 6.00 Build 0)  -->
<svg version="1.1" id="Layer_1" xmlns="http://www.w3.org/2000/svg" xmlns:xlink="http://www.w3.org/1999/xlink" x="0px" y="0px"
	 viewBox="0 0 500 500" style="enable-background:new 0 0 500 500;" xml:space="preserve">
<style type="text/css">
	.st0{fill:#001134;}
	.st1{fill:#FF0708;}
	.st2{fill:#FCBD0A;}
	.st3{fill:#D69800;}
	.st4{fill:#957400;}
	.st5{fill:#FFF1D1;}
	.st6{fill:url(#SVGID_1_);}
	.st7{fill:#FFCA0B;}
	.st8{fill:#E7A400;}
	.st9{fill:#B07D00;}
	.st10{fill:#725700;}
	.st11{fill:#D1D1D1;}
	.st12{fill:url(#SVGID_2_);}
	.st13{fill:url(#SVGID_3_);}
	.st14{fill:#D39500;}
	.st15{fill:#2C2C2C;}
	.st16{fill:#FF981C;}
	.st17{clip-path:url(#SVGID_5_);fill:#FF5C5C;}
	.st18{fill:#F6EADA;}
	.st19{fill:url(#SVGID_6_);}
	.st20{fill:url(#SVGID_7_);}
	.st21{fill:#4A2B00;}
	.st22{fill:url(#SVGID_8_);}
	.st23{clip-path:url(#SVGID_10_);fill:#EA7700;}
	.st24{fill:#FF4023;}
	.st25{fill:#08282B;}
	.st26{fill:none;stroke:#9C6700;stroke-width:0.4679;stroke-miterlimit:10;}
	.st27{fill:none;stroke:#FFE499;stroke-width:0.6238;stroke-linecap:round;stroke-miterlimit:10;}
	.st28{fill:#FFCF00;}
	.st29{fill:url(#SVGID_11_);}
	.st30{clip-path:url(#SVGID_13_);fill:url(#SVGID_14_);}
	.st31{clip-path:url(#SVGID_13_);fill:url(#SVGID_15_);}
	.st32{clip-path:url(#SVGID_13_);fill:url(#SVGID_16_);}
	.st33{clip-path:url(#SVGID_13_);fill:url(#SVGID_17_);}
	.st34{clip-path:url(#SVGID_13_);fill:#002CD5;}
	.st35{clip-path:url(#SVGID_13_);}
	.st36{fill:#FF8F2D;}
	.st37{fill:#F8FCFD;}
	.st38{clip-path:url(#SVGID_13_);fill:#EA7700;}
	.st39{clip-path:url(#SVGID_13_);fill:#271B00;}
	.st40{fill:#FFE782;}
	.st41{clip-path:url(#SVGID_13_);fill:none;stroke:#FFE782;stroke-width:0.6808;stroke-miterlimit:10;}
	.st42{fill:#C7C7C7;}
	.st43{fill:#FFFFFF;}
	.st44{fill:none;stroke:#DB8F00;stroke-width:0.3986;stroke-miterlimit:10;}
	.st45{fill:#DB8F00;}
	.st46{fill:none;stroke:#C98200;stroke-width:0.4539;stroke-miterlimit:10;}
	.st47{fill:#373C42;}
	.st48{fill:#884900;}
	.st49{fill:none;stroke:#00167B;stroke-width:0.403;stroke-miterlimit:10;}
	.st50{fill:#00167B;}
	.st51{fill:#001C41;}
	.st52{fill:#DBDBDB;}
	.st53{clip-path:url(#SVGID_19_);fill:#555E66;}
	.st54{fill:url(#SVGID_20_);}
	.st55{fill:#000107;}
	.st56{fill:#212227;}
	.st57{fill:#F0E5C8;}
	.st58{clip-path:url(#SVGID_22_);}
	.st59{fill:#EDEDED;}
	.st60{fill:#2C0000;}
	.st61{fill:#9B0202;}
	.st62{fill:#F2DEAD;}
	.st63{clip-path:url(#SVGID_24_);}
	.st64{clip-path:url(#SVGID_26_);}
	.st65{fill:none;stroke:#74809F;stroke-width:0.5;stroke-miterlimit:10;}
	.st66{fill:#C2C2C2;}
</style>
<g>
	<ellipse class="st0" cx="249.8" cy="438" rx="229.3" ry="6.1"/>
	<g>
		<g>
			<g>
				<g>
					<linearGradient id="SVGID_1_" gradientUnits="userSpaceOnUse" x1="533.3619" y1="424.4319" x2="201.4617" y2="92.5317">
						<stop  offset="0.1995" style="stop-color:#7D92CE"/>
						<stop  offset="0.6769" style="stop-color:#CDDBFF"/>
					</linearGradient>
					<rect x="246.2" y="39.7" class="st6" width="183.6" height="378.6"/>
					<polygon class="st55" points="427,42.5 253,42.5 248.9,42.5 248.9,46.6 248.9,415.6 253,415.6 253,46.6 427,46.6 					"/>
				</g>
				<g>
					<g>
						<path class="st56" d="M432.5,421.1H243.4V37h189.1V421.1z M248.9,415.6H427V42.5H248.9V415.6z"/>
					</g>
				</g>
			</g>
			<g>
				<g>
					<path class="st57" d="M338,95c-14.8,0-26.9,12.1-26.9,26.9v70.9h53.7v-70.9C364.8,107,352.7,95,338,95z"/>
					<g>
						<defs>
							<path id="SVGID_21_" d="M338,95c-14.8,0-26.9,12.1-26.9,26.9v70.9h53.7v-70.9C364.8,107,352.7,95,338,95z"/>
						</defs>
						<clipPath id="SVGID_2_">
							<use xlink:href="#SVGID_21_"  style="overflow:visible;"/>
						</clipPath>
						<g style="clip-path:url(#SVGID_2_);">
							<polygon class="st59" points="330.1,193.7 305.7,193.7 340.1,95 364.5,95 							"/>
							<polygon class="st59" points="344,193.7 335.9,193.7 370.3,95 378.4,95 							"/>
						</g>
					</g>
					<rect x="335.6" y="95" class="st47" width="4.8" height="98"/>
					
						<rect x="335.8" y="121.5" transform="matrix(6.123234e-17 -1 1 6.123234e-17 189.4861 486.4912)" class="st47" width="4.5" height="54.1"/>
					<g>
						<g>
							<path class="st60" d="M362.8,188.8H315v-66.1c0-13.3,10.9-24.2,24.2-24.2c11.7,0,21.5,8.4,23.7,19.4h2.6
								c-2.3-12.5-13.2-22-26.4-22c-14.8,0-26.8,12-26.8,26.8v68.7H366v-2.6h-2.6H362.8z"/>
						</g>
						<g>
							<path class="st47" d="M366.2,194.1h-56.4v-72.3c0-15.6,12.7-28.2,28.2-28.2c15.6,0,28.2,12.7,28.2,28.2V194.1z M312.5,191.3
								h51v-69.5c0-14.1-11.4-25.5-25.5-25.5c-14.1,0-25.5,11.4-25.5,25.5V191.3z"/>
						</g>
					</g>
				</g>
				<g>
					<rect x="310.9" y="371.1" class="st1" width="54.1" height="22.6"/>
					<g>
						<path class="st61" d="M366.4,395h-56.8v-25.3h56.8V395z M312.3,392.3h51.3v-19.9h-51.3V392.3z"/>
					</g>
					<path class="st62" d="M341.4,389h-7.1c-1.1,0-1.9-0.9-1.9-1.9l0,0c0-1.1,0.9-1.9,1.9-1.9h7.1c1.1,0,1.9,0.9,1.9,1.9l0,0
						C343.4,388.1,342.5,389,341.4,389z"/>
				</g>
				<g>
					<g>
						<rect x="311.3" y="215.3" class="st62" width="53.3" height="53.3"/>
						<g>
							<defs>
								<rect id="SVGID_23_" x="311.3" y="215.3" width="53.3" height="53.3"/>
							</defs>
							<clipPath id="SVGID_3_">
								<use xlink:href="#SVGID_23_"  style="overflow:visible;"/>
							</clipPath>
							<g style="clip-path:url(#SVGID_3_);">
								<polygon class="st59" points="331.2,272.1 300.5,272.1 322.3,211.3 352.9,211.3 								"/>
								<polygon class="st59" points="348.5,272.1 338.5,272.1 360.2,211.3 370.3,211.3 								"/>
							</g>
						</g>
						<g>
							<path class="st47" d="M366,270h-56.1v-56.1H366V270z M312.7,267.2h50.6v-50.6h-50.6V267.2z"/>
						</g>
					</g>
					<polygon class="st60" points="363.3,216.6 312.7,216.6 312.7,216.6 312.7,219.6 312.7,267.2 315.7,267.2 315.7,219.6 
						363.3,219.6 					"/>
				</g>
				<g>
					<g>
						<rect x="311.3" y="290.7" class="st62" width="53.3" height="53.3"/>
						<g>
							<defs>
								<rect id="SVGID_25_" x="311.3" y="290.7" width="53.3" height="53.3"/>
							</defs>
							<clipPath id="SVGID_5_">
								<use xlink:href="#SVGID_25_"  style="overflow:visible;"/>
							</clipPath>
							<g style="clip-path:url(#SVGID_5_);">
								<polygon class="st59" points="331.2,347.6 300.5,347.6 322.3,286.7 352.9,286.7 								"/>
								<polygon class="st59" points="348.5,347.6 338.5,347.6 360.2,286.7 370.3,286.7 								"/>
							</g>
						</g>
						<g>
							<path class="st47" d="M366,345.4h-56.1v-56.1H366V345.4z M312.7,342.6h50.6v-50.6h-50.6V342.6z"/>
						</g>
					</g>
					<polygon class="st60" points="363.3,292.1 312.7,292.1 312.7,292.1 312.7,295.1 312.7,342.6 315.7,342.6 315.7,295.1 
						363.3,295.1 					"/>
				</g>
			</g>
			<polyline class="st65" points="268.5,414.7 268.5,62.5 407.4,62.5 407.4,414.7 			"/>
			<g>
				<g>
					<path class="st47" d="M407.2,219.7L407.2,219.7c-2.1,0-3.9,1.7-3.9,3.9v21.3c0,2.1,1.7,3.9,3.9,3.9h0c2.1,0,3.9-1.7,3.9-3.9
						v-21.3C411.1,221.4,409.4,219.7,407.2,219.7z M407.2,222.6c0.6,0,1,0.5,1,1c0,0.6-0.5,1-1,1s-1-0.5-1-1
						C406.2,223,406.7,222.6,407.2,222.6z M407.2,246.6c-0.6,0-1-0.5-1-1s0.5-1,1-1s1,0.5,1,1S407.8,246.6,407.2,246.6z
						 M407.9,239.6v1c0,0.4-0.3,0.7-0.7,0.7c-0.4,0-0.7-0.3-0.7-0.7v-1c-0.3-0.2-0.6-0.6-0.6-1c0-0.7,0.6-1.2,1.2-1.2
						c0.7,0,1.2,0.6,1.2,1.2C408.5,239,408.2,239.4,407.9,239.6z"/>
				</g>
				<g>
					<path class="st1" d="M405.7,234.9h-20.1c-1.5,0-2.8-1.2-2.8-2.8l0,0c0-1.5,1.2-2.8,2.8-2.8h20.1c1.5,0,2.8,1.2,2.8,2.8l0,0
						C408.5,233.6,407.2,234.9,405.7,234.9z"/>
					<path class="st66" d="M405,232h-19.8c-0.4,0-0.8-0.4-0.8-0.8l0,0c0-0.4,0.4-0.8,0.8-0.8H405c0.4,0,0.8,0.4,0.8,0.8l0,0
						C405.8,231.7,405.4,232,405,232z"/>
				</g>
			</g>
		</g>
		<rect x="216" y="415.6" class="st56" width="243.9" height="21.3"/>
	</g>
	<g>
		<g>
			<path class="st61" d="M205.7,131c-10.5-18.2-31.8-28.3-52.5-24.9c-15.7,2.6-27.8,10.7-36.2,24.2c-6.3,10.2-8.7,21.4-7.1,33.4
				c1.1,8.1,3.9,15.7,7.5,23.1c4.3,8.9,9.5,17.1,15.4,25l-2.9,0.6l24.9,31.1h5.6c0.5,0,1.1,0,1.6,0c0.5-0.4,0.9-0.8,1.4-1.3
				c10.7-10.7,20.6-22.1,29.2-34.5c6.9-10,13-20.4,17-32C214.9,160.2,214,145.3,205.7,131z M161.3,180.9
				c-13.1,0-23.8-10.6-23.8-23.6c0-13.3,10.6-23.8,23.9-23.8c12.9,0,23.5,10.8,23.5,23.8C184.9,170.3,174.2,180.9,161.3,180.9z"/>
			<g>
				<g>
					<g>
						<defs>
							<path id="SVGID_27_" d="M153,243.5c-8-7.6-15.3-15.8-22.1-24.4c-8-10.1-15.3-20.6-20.9-32.3c-3.5-7.3-6.4-14.9-7.5-23.1
								c-1.6-12,0.8-23.2,7.1-33.4c8.4-13.5,20.5-21.6,36.2-24.2c20.7-3.4,41.9,6.7,52.5,24.9c8.3,14.3,9.2,29.3,3.8,44.7
								c-4,11.6-10.1,22-17,32c-8.6,12.4-18.5,23.8-29.2,34.5c-0.4,0.4-0.9,0.8-1.4,1.3C154.1,243.5,153.5,243.5,153,243.5z
								 M130.1,157.3c0,13,10.7,23.7,23.8,23.6c12.9,0,23.6-10.7,23.6-23.6c0-13.1-10.5-23.8-23.5-23.8
								C140.7,133.5,130.1,144,130.1,157.3z"/>
						</defs>
						<clipPath id="SVGID_6_">
							<use xlink:href="#SVGID_27_"  style="overflow:visible;"/>
						</clipPath>
					</g>
				</g>
				<g>
					<path class="st1" d="M153,243.5c-8-7.6-15.3-15.8-22.1-24.4c-8-10.1-15.3-20.6-20.9-32.3c-3.5-7.3-6.4-14.9-7.5-23.1
						c-1.6-12,0.8-23.2,7.1-33.4c8.4-13.5,20.5-21.6,36.2-24.2c20.7-3.4,41.9,6.7,52.5,24.9c8.3,14.3,9.2,29.3,3.8,44.7
						c-4,11.6-10.1,22-17,32c-8.6,12.4-18.5,23.8-29.2,34.5c-0.4,0.4-0.9,0.8-1.4,1.3C154.1,243.5,153.5,243.5,153,243.5z
						 M130.1,157.3c0,13,10.7,23.7,23.8,23.6c12.9,0,23.6-10.7,23.6-23.6c0-13.1-10.5-23.8-23.5-23.8
						C140.7,133.5,130.1,144,130.1,157.3z"/>
					<g>
						<defs>
							<path id="SVGID_29_" d="M153,243.5c-8-7.6-15.3-15.8-22.1-24.4c-8-10.1-15.3-20.6-20.9-32.3c-3.5-7.3-6.4-14.9-7.5-23.1
								c-1.6-12,0.8-23.2,7.1-33.4c8.4-13.5,20.5-21.6,36.2-24.2c20.7-3.4,41.9,6.7,52.5,24.9c8.3,14.3,9.2,29.3,3.8,44.7
								c-4,11.6-10.1,22-17,32c-8.6,12.4-18.5,23.8-29.2,34.5c-0.4,0.4-0.9,0.8-1.4,1.3C154.1,243.5,153.5,243.5,153,243.5z
								 M130.1,157.3c0,13,10.7,23.7,23.8,23.6c12.9,0,23.6-10.7,23.6-23.6c0-13.1-10.5-23.8-23.5-23.8
								C140.7,133.5,130.1,144,130.1,157.3z"/>
						</defs>
						<clipPath id="SVGID_7_">
							<use xlink:href="#SVGID_29_"  style="overflow:visible;"/>
						</clipPath>
					</g>
				</g>
				<g>
					<g>
						<defs>
							<path id="SVGID_31_" d="M153,243.5c-8-7.6-15.3-15.8-22.1-24.4c-8-10.1-15.3-20.6-20.9-32.3c-3.5-7.3-6.4-14.9-7.5-23.1
								c-1.6-12,0.8-23.2,7.1-33.4c8.4-13.5,20.5-21.6,36.2-24.2c20.7-3.4,41.9,6.7,52.5,24.9c8.3,14.3,9.2,29.3,3.8,44.7
								c-4,11.6-10.1,22-17,32c-8.6,12.4-18.5,23.8-29.2,34.5c-0.4,0.4-0.9,0.8-1.4,1.3C154.1,243.5,153.5,243.5,153,243.5z
								 M130.1,157.3c0,13,10.7,23.7,23.8,23.6c12.9,0,23.6-10.7,23.6-23.6c0-13.1-10.5-23.8-23.5-23.8
								C140.7,133.5,130.1,144,130.1,157.3z"/>
						</defs>
						<clipPath id="SVGID_8_">
							<use xlink:href="#SVGID_31_"  style="overflow:visible;"/>
						</clipPath>
					</g>
				</g>
			</g>
		</g>
		<g>
			<g>
				<rect x="52.2" y="356.3" class="st7" width="83.4" height="81.6"/>
				<rect x="135.6" y="356.3" class="st8" width="35.2" height="81.6"/>
			</g>
			<rect x="58.4" y="416.4" class="st5" width="22.8" height="9.3"/>
			<rect x="81.2" y="356.3" class="st5" width="20.5" height="34.9"/>
			<rect x="148.2" y="356.3" class="st9" width="13.1" height="34.9"/>
			<g>
				
					<rect x="101.2" y="417.4" transform="matrix(-1 -1.224647e-16 1.224647e-16 -1 228.483 837.367)" class="st10" width="26.1" height="2.6"/>
				
					<rect x="113.1" y="412.3" transform="matrix(-1 -1.224647e-16 1.224647e-16 -1 240.3739 827.1817)" class="st10" width="14.3" height="2.6"/>
				
					<rect x="101.2" y="422.7" transform="matrix(-1 -1.224647e-16 1.224647e-16 -1 228.483 848.0092)" class="st10" width="26.1" height="2.6"/>
			</g>
		</g>
		<g>
			<g>
				<rect x="114.5" y="290.7" class="st2" width="67" height="65.6"/>
				<rect x="181.5" y="290.7" class="st3" width="28.3" height="65.6"/>
			</g>
			<polygon class="st3" points="165.7,345.3 161.1,338.6 156.4,344.1 157.8,344.3 157.8,349.9 164.4,349.9 164.4,345.1 			"/>
			<polygon class="st3" points="175.7,345.3 171.1,338.6 166.4,344.1 167.8,344.3 167.8,349.9 174.4,349.9 174.4,345.1 			"/>
			<path class="st10" d="M165.4,306.1h-36.5c-1.6,0-3-1.3-3-3l0,0c0-1.6,1.3-3,3-3h36.5c1.6,0,3,1.3,3,3l0,0
				C168.3,304.7,167,306.1,165.4,306.1z"/>
			<g>
				<rect x="120.4" y="342.9" class="st10" width="26.1" height="2.6"/>
				<rect x="120.4" y="337.8" class="st10" width="14.3" height="2.6"/>
				<rect x="120.4" y="348.2" class="st10" width="26.1" height="2.6"/>
			</g>
		</g>
		<g>
			<g>
				<rect x="137.8" y="356.1" class="st2" width="103.3" height="81.6"/>
				<rect x="241.1" y="356.1" class="st3" width="35.2" height="81.6"/>
			</g>
			<g>
				<rect x="147.6" y="421.5" class="st10" width="26.1" height="2.6"/>
				<rect x="147.6" y="416.4" class="st10" width="14.3" height="2.6"/>
				<rect x="147.6" y="426.8" class="st10" width="26.1" height="2.6"/>
			</g>
			<rect x="175" y="356.1" class="st5" width="28.8" height="19.3"/>
			<polygon class="st3" points="162,402.4 153.8,390.5 145.6,400.3 148,400.6 148,410.6 159.6,410.5 159.6,402.1 			"/>
			<path class="st3" d="M200.8,428.9H188c-0.3,0-0.6-0.3-0.6-0.6v-10.4c0-0.3,0.3-0.6,0.6-0.6h12.8c0.3,0,0.6,0.3,0.6,0.6v10.4
				C201.4,428.6,201.2,428.9,200.8,428.9z"/>
			<path class="st3" d="M217.2,428.9h-12.8c-0.3,0-0.6-0.3-0.6-0.6v-10.4c0-0.3,0.3-0.6,0.6-0.6h12.8c0.3,0,0.6,0.3,0.6,0.6v10.4
				C217.8,428.6,217.5,428.9,217.2,428.9z"/>
			<path class="st3" d="M233.5,428.9h-12.8c-0.3,0-0.6-0.3-0.6-0.6v-10.4c0-0.3,0.3-0.6,0.6-0.6h12.8c0.3,0,0.6,0.3,0.6,0.6v10.4
				C234.1,428.6,233.8,428.9,233.5,428.9z"/>
		</g>
	</g>
</g>
</svg>
