<?xml version="1.0" encoding="utf-8"?>
<!-- Generator: Adobe Illustrator 23.0.5, SVG Export Plug-In . SVG Version: 6.00 Build 0)  -->
<svg version="1.1" id="Layer_1" xmlns="http://www.w3.org/2000/svg" xmlns:xlink="http://www.w3.org/1999/xlink" x="0px" y="0px"
	 viewBox="0 0 992 157" style="enable-background:new 0 0 992 157;" xml:space="preserve">
<style type="text/css">
	.st0{fill:#FFFFFF;}
</style>
<path class="st0" d="M916.27,136.01c33.86,0,61.41-26.63,61.41-59.39c0-32.75-27.55-59.38-61.41-59.38
	c-33.87,0-61.43,26.63-61.43,59.38C854.85,109.37,882.4,136.01,916.27,136.01 M879.62,76.62c0-19.54,16.44-35.44,36.65-35.44
	c20.2,0,36.64,15.89,36.64,35.44s-16.45,35.43-36.64,35.43C896.06,112.05,879.62,96.16,879.62,76.62"/>
<path class="st0" d="M790.05,135.74c1.93,0.19,3.84,0.27,5.77,0.27c12.05,0,23.91-3.42,33.95-9.86c3.4-2.19,6.6-4.72,9.52-7.53
	c0.02-0.01,0.04-0.05,0.04-0.08V76.62c0-0.07-0.06-0.13-0.13-0.13h-24.51c-0.07,0-0.12,0.06-0.12,0.13v30.48
	c-14.41,8.28-32.75,6.05-44.61-5.42c-14.29-13.82-14.29-36.3,0-50.12c6.93-6.69,16.14-10.37,25.91-10.37
	c9.79,0,18.99,3.69,25.91,10.37c0.05,0.05,0.13,0.05,0.18,0l17.33-16.75c0.05-0.05,0.05-0.13,0-0.17
	c-11.6-11.22-27.02-17.4-43.43-17.4c-16.4,0-31.82,6.18-43.43,17.4c-11.61,11.21-17.99,26.13-17.99,41.99
	c0,15.87,6.39,30.79,17.99,42.01C762.51,128.37,775.86,134.46,790.05,135.74"/>
<path class="st0" d="M550.32,96.06h26.57c0.05,0,0.08-0.01,0.11-0.04c0.02-0.04,0.04-0.07,0.02-0.12l-13.29-39.93
	c-0.04-0.11-0.22-0.11-0.24,0L550.2,95.9c-0.01,0.04,0,0.08,0.02,0.12C550.24,96.05,550.28,96.06,550.32,96.06 M584.78,119.54
	h-42.35c-0.05,0-0.11,0.04-0.12,0.08l-5.39,16.23c-0.01,0.03-0.01,0.07,0.01,0.1c0.02,0.03,0.06,0.06,0.11,0.06h53.15
	c0.03,0,0.08-0.02,0.11-0.06c0.02-0.04,0.02-0.07,0.01-0.1l-5.41-16.23C584.89,119.57,584.84,119.54,584.78,119.54 M699.22,102.29
	c13.44-8.62,21.45-23.07,21.45-38.66c0-25.59-21.53-46.41-47.99-46.41h-96.2c-0.05,0-0.08,0.02-0.11,0.05
	c-0.02,0.03-0.02,0.08-0.01,0.12l39.43,118.53c0,0.01,0.01,0.01,0.01,0.01c0.03,0.05,0.06,0.07,0.11,0.07h24.51
	c0.07,0,0.13-0.04,0.13-0.12v-25.85h32.12c0.78,0,1.57-0.01,2.34-0.06l16.61,25.98c0.02,0.03,0.06,0.06,0.11,0.06h28.8
	c0.05,0,0.08-0.02,0.11-0.07c0.02-0.03,0.02-0.08,0-0.13L699.22,102.29z M686.08,81.98c-3.91,2.69-8.55,4.1-13.39,4.1h-32.12V41.17
	h32.12c12.8,0,23.23,10.07,23.23,22.47C695.92,70.91,692.24,77.77,686.08,81.98"/>
<path class="st0" d="M131.63,136.01h24.51c0.07,0,0.13-0.04,0.13-0.12v-25.85h32.12c0.78,0,1.57-0.02,2.34-0.06l16.6,25.97
	c0.03,0.03,0.07,0.06,0.11,0.06h28.82c0.04,0,0.08-0.02,0.11-0.06c0.02-0.05,0.02-0.1,0-0.13l-21.44-33.52
	c13.44-8.62,21.45-23.07,21.45-38.67c0-25.58-21.53-46.4-47.98-46.4h-56.77c-0.07,0-0.13,0.06-0.13,0.12v118.55
	C131.51,135.96,131.56,136.01,131.63,136.01 M201.79,81.98c-3.92,2.69-8.55,4.12-13.39,4.12h-32.12V41.18h32.12
	c12.8,0,23.22,10.07,23.22,22.45C211.62,70.92,207.95,77.79,201.79,81.98"/>
<path class="st0" d="M11.23,41.18h39.93v94.7c0,0.07,0.05,0.13,0.12,0.13H75.8c0.06,0,0.12-0.06,0.12-0.13v-94.7h39.93
	c0.07,0,0.13-0.06,0.13-0.13V17.35c0-0.07-0.06-0.11-0.13-0.11H11.23c-0.07,0-0.13,0.05-0.13,0.11v23.71
	C11.1,41.12,11.16,41.18,11.23,41.18"/>
<path class="st0" d="M408.87,54.15c0.03,0.05,0.06,0.07,0.11,0.07c0.04,0,0.08-0.02,0.11-0.07l23.49-36.73
	c0.02-0.03,0.02-0.09,0-0.13c-0.02-0.03-0.06-0.06-0.11-0.06h-47c-0.04,0-0.08,0.02-0.11,0.06c-0.02,0.04-0.02,0.1,0,0.13
	L408.87,54.15z M394.67,76.56l-37.9-59.27c0-0.01,0-0.01-0.01-0.01c0-0.01-0.01-0.01-0.02-0.02c-0.01-0.01-0.04-0.02-0.05-0.02
	h-0.03h-24.5c-0.07,0-0.13,0.05-0.13,0.12V85.3c0,14.76-12.42,26.77-27.68,26.77c-15.26,0-27.67-12.01-27.67-26.77V17.35
	c0-0.07-0.06-0.12-0.13-0.12h-24.5c-0.07,0-0.13,0.05-0.13,0.12V85.3c0,27.96,23.53,50.71,52.44,50.71h52.29h0.02
	c0.01,0,0.01-0.01,0.03-0.01c0.04,0,0.06-0.01,0.07-0.03c0.01-0.01,0.01,0,0.01-0.01l37.9-59.26
	C394.7,76.65,394.7,76.6,394.67,76.56 M409.08,99.08c-0.05-0.07-0.18-0.07-0.22,0l-23.5,36.75c-0.02,0.03-0.02,0.08,0,0.13
	c0.02,0.03,0.07,0.06,0.11,0.06h47c0.05,0,0.09-0.02,0.11-0.06c0.02-0.05,0.02-0.1,0-0.13L409.08,99.08z"/>
<path class="st0" d="M486.68,135.99c15.73,0,31.45-5.79,43.43-17.38c0.05-0.05,0.05-0.13,0-0.17l-17.35-16.76
	c-0.05-0.05-0.13-0.05-0.18,0c-14.29,13.82-37.53,13.82-51.82,0c-6.93-6.69-10.74-15.59-10.74-25.06c0-9.46,3.81-18.36,10.74-25.05
	c14.29-13.83,37.53-13.83,51.82,0c0.05,0.05,0.13,0.05,0.18,0l17.35-16.77c0.05-0.05,0.05-0.13,0-0.18
	c-23.95-23.16-62.92-23.16-86.87,0c-11.59,11.22-17.98,26.14-17.98,42c0,15.87,6.39,30.79,17.98,41.99
	C455.22,130.19,470.94,135.99,486.68,135.99"/>
</svg>
