<?xml version="1.0" encoding="utf-8"?>
<!-- Generator: Adobe Illustrator 23.0.5, SVG Export Plug-In . SVG Version: 6.00 Build 0)  -->
<svg version="1.1" id="Layer_1" xmlns="http://www.w3.org/2000/svg" xmlns:xlink="http://www.w3.org/1999/xlink" x="0px" y="0px"
	 viewBox="0 0 392 291" style="enable-background:new 0 0 392 291;" xml:space="preserve">
<style type="text/css">
	.st0{fill:#CC3399;}
	.st1{fill:#FF8B66;}
	.st2{fill:#EA6D4B;}
	.st3{fill:#264896;}
	.st4{fill:#EDFCFF;}
	.st5{fill:#ED47D4;}
	.st6{fill:#2B56C9;}
	.st7{fill:#426EDD;}
	.st8{fill:#5B86EF;}
	.st9{fill:#85AFFF;}
	.st10{fill:#FF4D73;}
	.st11{fill:#CC366F;}
	.st12{fill:#DB4C2C;}
</style>
<g>
	<g>
		<path class="st0" d="M65.4,72.8c2.3-2.7,21.2,8.4,18,12.9c-3.2,4.5-19.8,1.6-19.8,1.6S60.6,78.3,65.4,72.8z"/>
		<path class="st1" d="M124.3,53.3c0,0-7.3,11.2-9.4,11.8c-2.1,0.6-18.2,2.3-18.2,2.3s-0.6,0.7-1.6,1.9c0,0,0,0,0,0
			c-1.6,2-4.3,5.4-7.5,9.3C80,88.3,69.9,101.5,67.1,107L51.6,87.3l28.2-25.2l0.8-5.5l2-14.1l1.1-8.1h25.7L124.3,53.3z"/>
		<path class="st2" d="M106.5,56c0,0-8.1,0.6-11.8,3.9c0,0-3.9-3.9-4.5-3.9c-0.5,0-5-0.7-9.6,0.7l2-14.1L105,45L106.5,56z"/>
		<path class="st1" d="M230.1,137.3l-53.3,6.1l-1.1-11.1l-1.9-20.2c-3.1-0.9-6.4-2.4-9.8-4.7c-0.7-0.5-1.4-0.9-2.1-1.4
			c-1.4-1-2.8-2.2-4.2-3.5l0,0c0,0,0.5-5.6,1.2-13.4c1.4-14.5,3.6-36.6,5.2-42.9c0-0.1,0.1-0.3,0.1-0.4c2.9-9.5,24.7-16.3,34.2-13.9
			c9.7,2.4,24.8,11.3,28.5,18.3c2.9,5.5-7.1,27.8-13.1,39.1l1.2,2.6L230.1,137.3z"/>
		<path class="st2" d="M168.6,74.1c0,0-2.1,9.8-9.6,14.9c0.2-2.7,0.5-5.6,0.8-8.6c0.1-1.3,0.3-2.5,0.4-3.8c1.3-12.5,2.8-25.8,4-30.5
			c0-0.1,0.1-0.3,0.1-0.4l3.1,16.3L168.6,74.1z"/>
		<path class="st1" d="M167.4,62.1c0,0-8.8,2.4-11.5,4.8c-2.7,2.4,5.8,10.9,5.8,10.9S174.6,77.6,167.4,62.1z"/>
		<g>
			<path class="st3" d="M183.4,80.6c-0.1,0.8-0.4,1.6-0.7,2.4c-0.1,0.3-0.3,0.6-0.5,0.9c-2.1,3.4-6.6,5.1-10.7,3.9
				c-2.1-0.6-4-1.8-5.6-3.9c0,0,1.2-0.4,3-1.1c3.9-1.6,10.5-4.8,13.3-9.7C182.1,73.2,184,76.7,183.4,80.6z"/>
			<path class="st4" d="M183.4,80.6c-10.1-0.4-14,4-14,4l-0.5-1.7c3.9-1.6,10.5-4.8,13.3-9.7C182.1,73.2,184,76.7,183.4,80.6z"/>
			<path class="st5" d="M182.6,83.1c-0.1,0.3-0.3,0.6-0.5,0.9c-2.1,3.4-6.6,5.1-10.7,3.9c1.6-1.7,4.1-0.9,4.1-0.9
				C177,84.7,180.9,83.5,182.6,83.1z"/>
		</g>
		<path class="st2" d="M161.6,77.9c0,0-5.9-6-5.4-7.9c0.5-1.9,13.1,1.7,13.1,1.7s1-1.3,0.9-2.8c0,0,2.8,2.1,1.9,4.3
			C171.3,75.4,164.5,78.5,161.6,77.9z"/>
		<path class="st3" d="M178.2,57.5c0,0,3.1-3.3,5.9-2.4v1.1C184.1,56.2,181.8,55.1,178.2,57.5z"/>
		<path class="st3" d="M175.2,51.4c0,0,6.4-3.3,8.9-2.9c2.5,0.4,5.9,3.7,5.9,3.7s-3.9-1.7-5.1-1.9c-1.3-0.2-8.1,3-8.1,3L175.2,51.4z
			"/>
		<path class="st3" d="M165.7,53.3l1.4,2.9c0,0-2.7-0.4-3.7,0c-1,0.4-1.3,2.6-1.3,2.6S160,53.2,165.7,53.3z"/>
		<path class="st2" d="M206.9,76c0,0-0.9,25.6-12.6,40.8c-3.6,4.6-11.3,11.2-18.5,15.4l-1.9-20.2c-3.1-0.9-6.4-2.4-9.8-4.7
			c-0.7-0.5-1.4-0.9-2.1-1.4c-1.4-1-2.8-2.2-4.2-3.5c4,3.3,15.6,3.7,30.7-1.1C203.6,96.4,206.9,76,206.9,76z"/>
		<path class="st3" d="M192.1,34c0,0-15.9,0.9-26.1,8.5c0,0-9-7.3-4.2-16.4c4.7-9.1,7.8,5.2,7.8,5.2s1.8-9.4,7.2-9.2
			c5.4,0.2,0,5.7,0,5.7s4.2-7.5,25-0.2c20.8,7.3,28.7,21,25.7,29.9c-3,8.9-12.5,34.3-12.5,34.3l-5.3-8.1c0,0-1.2-13.5-7.9-20.2
			c0,0,0.4-12.1,0.2-14.1c-0.2-2-12-10.5-12-10.5L192.1,34z"/>
		<path class="st1" d="M202.6,66.3c0,0,5.3-6.5,10.1-6.5c4.8,0,5.9,11.1,4.6,15.4c-1.2,4.2-10,14.3-13.6,10.7
			c-3.6-3.6,0.7-9.9,0.7-9.9L202.6,66.3z"/>
		<path class="st2" d="M202.6,80.1c1.3-5,4,0.9,5,0c1-0.9,5.3-5.5,4.4-7.9c-0.8-2.4-2.5-4.9-4.7-2.2c0,0,3.3-4.8,4.8-4.4
			c1.5,0.4,2.9,4.4,2.9,4.4s-0.1-5.5-3.8-6.9c-3.7-1.3-10.1,8.8-6.9,12.9c0,0-1,0.3-1.6,1.3C202.3,78.4,202.6,80.1,202.6,80.1z"/>
		<g>
			<path class="st6" d="M160,53l-32.5-10.9l-2,13l32.6,7c1.5,0.3,3.2-1.5,3.7-4C162.3,55.6,161.5,53.3,160,53z"/>
			<path class="st7" d="M139,43.1L78,22.5l-3.8,24.4l61.3,13.2c2.8,0.6,5.9-2.7,6.9-7.4C143.4,48,141.9,43.7,139,43.1z"/>
			<path class="st8" d="M112.8,31.9L68.4,16.3l-6.2,30.1l45.6,9.8c4.1,0.8,8.5-3.9,9.9-10.6C119,38.9,116.9,32.8,112.8,31.9z"/>
			
				<ellipse transform="matrix(0.2027 -0.9792 0.9792 0.2027 21.3313 88.9997)" class="st9" cx="65.3" cy="31.4" rx="15.4" ry="9.3"/>
			<path class="st7" d="M72.9,33c-1.4,6.6-5.4,11.8-9.3,12.1c-0.1,0-0.2,0-0.3,0c-0.3,0-0.6,0-0.9-0.1c-1.9-0.4-3.4-2.1-4.4-4.7
				c-1-2.9-1.2-6.6-0.4-10.4c1.4-6.8,5.6-12.1,9.6-12.1c0.3,0,0.6,0,0.9,0.1c0.4,0.1,0.7,0.2,1.1,0.4c1.4,0.7,2.6,2.2,3.3,4.4
				C73.5,25.5,73.7,29.2,72.9,33z"/>
			<path class="st3" d="M72.9,33c-1.4,6.6-5.4,11.8-9.3,12.1c-1.4-0.7-2.5-2.2-3.3-4.4c-1-2.9-1.2-6.6-0.4-10.4
				c1.4-6.6,5.4-11.8,9.3-12.1c1.4,0.7,2.6,2.2,3.3,4.4C73.5,25.5,73.7,29.2,72.9,33z"/>
			<path class="st4" d="M67.7,27c-0.6,1.8-2.1,2.9-3.5,2.5c-1.3-0.4-2-2.2-1.4-4c0.6-1.8,2.1-2.9,3.5-2.5
				C67.7,23.4,68.3,25.2,67.7,27z"/>
			<path class="st4" d="M67.4,31.7c-0.2,0.7-0.8,1.1-1.3,1c-0.5-0.2-0.8-0.8-0.5-1.5c0.2-0.7,0.8-1.1,1.3-1
				C67.3,30.3,67.6,31,67.4,31.7z"/>
		</g>
		<path class="st10" d="M284.7,214.2c-1.7,6-3.6,11.8-5.8,17.2v0c-5.4,13.8-11.9,25.5-18.1,34.8c-10.5,16.1-19.8,24.9-19.8,24.9
			H111.9c0,0-18.6-110.9,21.1-146.8c17.4-15.7,105-11.4,134.1-6.6C267.1,137.9,298,166.3,284.7,214.2z"/>
		<path class="st11" d="M247.1,135.5c0,0-33.8,16.7-49.3,29l-12.9-9.3c0,0-15.2,56.3-15.3,98.4l-10.6,13l-3.6-12.5l19.8-102.7
			l-11.4,10.7c0,0-5.8-11.1-3.8-26.9l21.2,5.1L247.1,135.5z"/>
		<path class="st3" d="M171.4,138.5l3.7,12.9c0,0-17.4,30.1-26.7,101l6.8,14.2l14.3-13c0,0,1.8-75.2,12.7-102.2l11.9-12.9l-11.9-3
			L171.4,138.5z"/>
		<path class="st10" d="M228.6,115.8c0,0-29.8,7.1-47.4,17.7l-7.3-8.8L160,135.2l3.8,17.9l14.7-16l2.7,3.2l3.8-2.4l12.9,17.3
			c0,0,29.4-16,49.3-19.7L228.6,115.8z"/>
		<path class="st10" d="M160,135.2l-41.1,54.2c0,0-2.7-0.4-7.3-1c-13.4-2-42.9-7-66.6-14.9c-18.6-6.1-33.7-14-34.9-23.5
			c-3-25.8,43.2-68.7,45.7-71.1c0.8-0.7,4.2-0.5,4.2-0.5l5.3-5.2c1.3,12.4,18,12.4,18,12.4l-4.3,6.1c0,0,0.5,1.9,0.2,2.6
			c-3.2,9.5-21.2,37-21.2,37c3.8,0,7.8-0.2,11.9-0.3c20-0.8,41.3-2.8,41.3-2.8s7.9-5.8,13.6-4.5C130.7,124.8,160,135.2,160,135.2z"
			/>
		<path class="st10" d="M267.1,137.9c0,0,18.4-3,23.6-2.4c5.3,0.6,12.1,15.9,12.1,15.9s24,16.6,50.5,49.6
			c21.8,27.1,32.3,47.8,29.1,65.6c-3.2,17.7-86.1,60.2-86.1,60.2l-13.7-21.8c0,0,55.8-46.1,53.3-47.7c-2.4-1.6,0-6.5,0-6.5
			s-41.2-16.8-59-19.7C259.2,228.2,267.1,137.9,267.1,137.9z"/>
		<path class="st1" d="M100.6,57.5c0,0,5.7-2.5,16.2-1.9c0,0-0.6-9.4,5.8-9.8c0,0,0.6,9.3,1.7,11.4c0,0-4.8,8.2-11,9.4
			c-6.2,1.2-20,3-20,3S92.9,62.7,100.6,57.5z"/>
		<path class="st11" d="M278.9,231.4L278.9,231.4c-5.4,13.8-11.9,25.5-18.1,34.8c-6.7-25.4-2.2-65.2,4.6-79.9
			C262.4,204.1,278.9,231.4,278.9,231.4z"/>
		<path class="st11" d="M111.6,188.3c-13.4-2-42.9-7-66.6-14.9c23.8,3.9,48.3-7.1,48.3-7.1c1.1,6.2,9.8,10.9,9.8,10.9
			s-4.7-19-2.8-25.6c1.9-6.5,14.8-12.2,15.2-12.4C106.9,162,111.6,188.3,111.6,188.3z"/>
		<path class="st11" d="M70,131c-6.1,9.1-19,12.3-19,12.3c4.7-3.8,7.1-12,7.1-12C61.9,131.3,66,131.2,70,131z"/>
		<path class="st2" d="M95.2,69.3C95.2,69.3,95.2,69.3,95.2,69.3c-1.6,2-4.3,5.4-7.5,9.3c0.7-4.9,2.4-9.3,2.4-9.3
			C92.4,69.7,95.2,69.3,95.2,69.3z"/>
		<path class="st11" d="M199.9,187.1c0,0,15.5-1.3,33.8,1.2l-5,39.5c0,0-20.4,1.1-33.3-2.8C195.4,225,197.1,201.1,199.9,187.1z"/>
		<path class="st10" d="M199.9,187.1c0,0,25,0.6,32,2.3l-1,5.2c0,0-20.4-1.9-31.1-1.4l30.2,2.8l-2.7,30.2c0,0-15.8,1-30.9-2
			C196.5,224.1,196.5,206.6,199.9,187.1z"/>
		<path class="st12" d="M168.7,73.4c0,0-5.1-1-5.5-0.6c-0.4,0.4,2.4,2.3,2.4,2.3S166.9,73.7,168.7,73.4z"/>
		<path class="st12" d="M163.5,75.8l-3.6-2.4C160,73.4,158.7,75.4,163.5,75.8z"/>
		<path class="st12" d="M166.5,77.1c-0.2,0.2-3.9,3.2-6.7,3.4c0.1-1.3,0.3-2.5,0.4-3.8C160.9,77.2,163.3,78.7,166.5,77.1z"/>
	</g>
</g>
</svg>
