<?xml version="1.0" encoding="utf-8"?>
<!-- Generator: Adobe Illustrator 23.0.5, SVG Export Plug-In . SVG Version: 6.00 Build 0)  -->
<svg version="1.1" id="Layer_1" xmlns="http://www.w3.org/2000/svg" xmlns:xlink="http://www.w3.org/1999/xlink" x="0px" y="0px"
	 viewBox="0 0 500 500" style="enable-background:new 0 0 500 500;" xml:space="preserve">
<style type="text/css">
	.st0{fill:#7367F0;}
</style>
<g>
	<g>
		<path class="st0" d="M173.4,420.4c-29.5,0-53.6-24-53.6-53.6c0-29.5,24-53.6,53.6-53.6c29.5,0,53.6,24,53.6,53.6
			C226.9,396.4,202.9,420.4,173.4,420.4z M173.4,322.8c-24.3,0-44.1,19.8-44.1,44.1c0,24.3,19.8,44.1,44.1,44.1
			c24.3,0,44.1-19.8,44.1-44.1C217.5,342.5,197.7,322.8,173.4,322.8z"/>
	</g>
	<g>
		<path class="st0" d="M173.4,394.9c-15.4,0-28-12.6-28-28c0-15.4,12.6-28,28-28s28,12.6,28,28C201.4,382.3,188.8,394.9,173.4,394.9
			z M173.4,348.3c-10.2,0-18.6,8.3-18.6,18.6c0,10.2,8.3,18.6,18.6,18.6c10.2,0,18.6-8.3,18.6-18.6
			C192,356.6,183.6,348.3,173.4,348.3z"/>
	</g>
	<g>
		<path class="st0" d="M397.6,420.4c-29.5,0-53.6-24-53.6-53.6c0-29.5,24-53.6,53.6-53.6c29.5,0,53.6,24,53.6,53.6
			C451.2,396.4,427.2,420.4,397.6,420.4z M397.6,322.8c-24.3,0-44.1,19.8-44.1,44.1c0,24.3,19.8,44.1,44.1,44.1
			c24.3,0,44.1-19.8,44.1-44.1C441.8,342.5,422,322.8,397.6,322.8z"/>
	</g>
	<g>
		<path class="st0" d="M397.6,394.9c-15.4,0-28-12.6-28-28c0-15.4,12.6-28,28-28c15.4,0,28,12.6,28,28
			C425.7,382.3,413.1,394.9,397.6,394.9z M397.6,348.3c-10.2,0-18.6,8.3-18.6,18.6c0,10.2,8.3,18.6,18.6,18.6
			c10.2,0,18.6-8.3,18.6-18.6C416.2,356.6,407.9,348.3,397.6,348.3z"/>
	</g>
	<g>
		<rect x="222.1" y="362" class="st0" width="126.6" height="9.4"/>
	</g>
	<g>
		<polygon class="st0" points="447.2,356.8 441.7,349.1 482.4,320.3 482.4,302.4 70.9,302.4 70.9,322.1 129.3,345.7 125.7,354.5 
			61.5,328.4 61.5,292.9 491.8,292.9 491.8,325.1 		"/>
	</g>
	<g>
		<path class="st0" d="M491.8,297.6h-9.4v-58.6c0-10-5-19.1-13.5-24.4l-6-3.8c-5.9-3.7-10.7-9-13.8-15.3L426,149.3
			c-4.9-9.8-14.8-16-25.8-16h-71.6v164.3h-9.4V123.9h81c14.6,0,27.7,8.1,34.3,21.2l23.2,46.3c2.4,4.7,6,8.7,10.4,11.5l6,3.8
			c11.2,7.1,17.9,19.2,17.9,32.4V297.6z"/>
	</g>
	<g>
		<polygon class="st0" points="441.8,215.6 350.4,215.6 350.4,146 359.8,146 359.8,206.2 441.8,206.2 		"/>
	</g>
	<g>
		<path class="st0" d="M227.7,246.1h-45.5c-17,0-30.9-13.9-30.9-30.9c0-8.1,3.1-15.7,8.8-21.5c-16.9-0.1-30.6-14-30.6-30.9
			c0-8.3,3.3-15.9,8.7-21.5c-16.9-0.2-30.5-14-30.5-30.9c0-17,13.9-30.9,30.9-30.9h190.1v49.1h-9.4V89H138.5
			c-11.8,0-21.5,9.6-21.5,21.5c0,11.8,9.6,21.5,21.5,21.5h21.8v9.4c-11.8,0-21.5,9.6-21.5,21.5c0,11.8,9.6,21.5,21.5,21.5l0.1,0
			l21.8,0.2l-0.1,9.4c-11.8,0-21.5,9.5-21.5,21.2c0,11.8,9.6,21.5,21.5,21.5h45.5V246.1z"/>
	</g>
	<g>
		<rect x="157.8" y="131.9" class="st0" width="34.6" height="9.4"/>
	</g>
	<g>
		<rect x="177.9" y="184.5" class="st0" width="37.9" height="9.4"/>
	</g>
	<g>
		<path class="st0" d="M78.9,136.6c0-3.9,3.2-7.1,7.1-7.1l0,0c3.9,0,7.1,3.2,7.1,7.1l0,0c0,3.9-3.2,7.1-7.1,7.1l0,0
			C82.1,143.7,78.9,140.5,78.9,136.6z M55.3,136.6c0-3.9,3.2-7.1,7.1-7.1l0,0c3.9,0,7.1,3.2,7.1,7.1l0,0c0,3.9-3.2,7.1-7.1,7.1l0,0
			C58.5,143.7,55.3,140.5,55.3,136.6z M31.8,136.6c0-3.9,3.2-7.1,7.1-7.1l0,0c3.9,0,7.1,3.2,7.1,7.1l0,0c0,3.9-3.2,7.1-7.1,7.1l0,0
			C34.9,143.7,31.8,140.5,31.8,136.6z M8.2,136.6c0-3.9,3.2-7.1,7.1-7.1l0,0c3.9,0,7.1,3.2,7.1,7.1l0,0c0,3.9-3.2,7.1-7.1,7.1l0,0
			C11.3,143.7,8.2,140.5,8.2,136.6z"/>
	</g>
	<g>
		<path class="st0" d="M95.8,189.4c0-3.9,3.2-7.1,7.1-7.1l0,0c3.9,0,7.1,3.2,7.1,7.1l0,0c0,3.9-3.2,7.1-7.1,7.1l0,0
			C99,196.5,95.8,193.3,95.8,189.4z M72.3,189.4c0-3.9,3.2-7.1,7.1-7.1l0,0c3.9,0,7.1,3.2,7.1,7.1l0,0c0,3.9-3.2,7.1-7.1,7.1l0,0
			C75.4,196.5,72.3,193.3,72.3,189.4z M48.7,189.4c0-3.9,3.2-7.1,7.1-7.1l0,0c3.9,0,7.1,3.2,7.1,7.1l0,0c0,3.9-3.2,7.1-7.1,7.1l0,0
			C51.8,196.5,48.7,193.3,48.7,189.4z M25.1,189.4c0-3.9,3.2-7.1,7.1-7.1l0,0c3.9,0,7.1,3.2,7.1,7.1l0,0c0,3.9-3.2,7.1-7.1,7.1l0,0
			C28.2,196.5,25.1,193.3,25.1,189.4z"/>
	</g>
	<g>
		<path class="st0" d="M113.8,241.2c0-3.9,3.2-7.1,7.1-7.1l0,0c3.9,0,7.1,3.2,7.1,7.1l0,0c0,3.9-3.2,7.1-7.1,7.1l0,0
			C117,248.2,113.8,245.1,113.8,241.2z M90.2,241.2c0-3.9,3.2-7.1,7.1-7.1l0,0c3.9,0,7.1,3.2,7.1,7.1l0,0c0,3.9-3.2,7.1-7.1,7.1l0,0
			C93.4,248.2,90.2,245.1,90.2,241.2z M66.6,241.2c0-3.9,3.2-7.1,7.1-7.1l0,0c3.9,0,7.1,3.2,7.1,7.1l0,0c0,3.9-3.2,7.1-7.1,7.1l0,0
			C69.8,248.2,66.6,245.1,66.6,241.2z M43,241.2c0-3.9,3.2-7.1,7.1-7.1l0,0c3.9,0,7.1,3.2,7.1,7.1l0,0c0,3.9-3.2,7.1-7.1,7.1l0,0
			C46.2,248.2,43,245.1,43,241.2z"/>
	</g>
</g>
</svg>
