<?xml version="1.0" encoding="utf-8"?>
<!-- Generator: Adobe Illustrator 23.0.5, SVG Export Plug-In . SVG Version: 6.00 Build 0)  -->
<svg version="1.1" id="Layer_1" xmlns="http://www.w3.org/2000/svg" xmlns:xlink="http://www.w3.org/1999/xlink" x="0px" y="0px"
	 viewBox="0 0 500 500" style="enable-background:new 0 0 500 500;" xml:space="preserve">
<style type="text/css">
	.st0{fill:#7367F0;}
</style>
<g>
	<g>
		<path class="st0" d="M192.7,410c-27.9,0-50.6-22.7-50.6-50.6c0-27.9,22.7-50.6,50.6-50.6s50.6,22.7,50.6,50.6
			C243.2,387.3,220.6,410,192.7,410z M192.7,318.5c-22.6,0-40.9,18.4-40.9,40.9c0,22.6,18.4,40.9,40.9,40.9
			c22.6,0,40.9-18.4,40.9-40.9C233.6,336.9,215.3,318.5,192.7,318.5z"/>
	</g>
	<g>
		<path class="st0" d="M192.7,386.1c-14.7,0-26.6-11.9-26.6-26.6s11.9-26.6,26.6-26.6c14.7,0,26.6,11.9,26.6,26.6
			S207.4,386.1,192.7,386.1z M192.7,342.4c-9.4,0-17,7.6-17,17c0,9.4,7.6,17,17,17c9.4,0,17-7.6,17-17
			C209.7,350.1,202.1,342.4,192.7,342.4z"/>
	</g>
	<g>
		<path class="st0" d="M402.7,410c-27.9,0-50.6-22.7-50.6-50.6c0-27.9,22.7-50.6,50.6-50.6c27.9,0,50.6,22.7,50.6,50.6
			C453.3,387.3,430.6,410,402.7,410z M402.7,318.5c-22.6,0-40.9,18.4-40.9,40.9c0,22.6,18.4,40.9,40.9,40.9s40.9-18.4,40.9-40.9
			C443.6,336.9,425.3,318.5,402.7,318.5z"/>
	</g>
	<g>
		<path class="st0" d="M402.7,386.1c-14.7,0-26.6-11.9-26.6-26.6s11.9-26.6,26.6-26.6c14.7,0,26.6,11.9,26.6,26.6
			S417.4,386.1,402.7,386.1z M402.7,342.4c-9.4,0-17,7.6-17,17c0,9.4,7.6,17,17,17c9.4,0,17-7.6,17-17
			C419.7,350.1,412.1,342.4,402.7,342.4z"/>
	</g>
	<g>
		<rect x="238.3" y="354.5" class="st0" width="118.6" height="9.6"/>
	</g>
	<g>
		<polygon class="st0" points="449.4,350.4 443.8,342.5 481.7,315.6 481.7,299.4 97.2,299.4 97.2,317.2 151.5,339.3 147.9,348.2 
			87.5,323.7 87.5,289.8 491.3,289.8 491.3,320.6 		"/>
	</g>
	<g>
		<path class="st0" d="M491.3,294.6h-9.6v-54.9c0-9.2-4.6-17.6-12.4-22.5l-5.6-3.5c-5.6-3.5-10.1-8.5-13.1-14.5l-21.7-43.4
			c-4.5-9.1-13.7-14.7-23.8-14.7h-66.6v153.5h-9.6V131.5h76.2c13.8,0,26.3,7.7,32.4,20l21.7,43.4c2.2,4.4,5.5,8,9.6,10.6l5.6,3.5
			c10.6,6.7,16.9,18.2,16.9,30.7V294.6z"/>
	</g>
	<g>
		<polygon class="st0" points="444.1,218.2 358,218.2 358,152.6 367.7,152.6 367.7,208.6 444.1,208.6 		"/>
	</g>
	<g>
		<polygon class="st0" points="338.5,136.3 328.8,136.3 328.8,99.6 74.6,99.6 74.6,115.6 65,115.6 65,90 338.5,90 		"/>
	</g>
	<g>
		<path class="st0" d="M113.5,143.8c0-4,3.2-7.2,7.2-7.2l0,0c4,0,7.2,3.2,7.2,7.2l0,0c0,4-3.2,7.2-7.2,7.2l0,0
			C116.8,151,113.5,147.8,113.5,143.8z M89.5,143.8c0-4,3.2-7.2,7.2-7.2l0,0c4,0,7.2,3.2,7.2,7.2l0,0c0,4-3.2,7.2-7.2,7.2l0,0
			C92.7,151,89.5,147.8,89.5,143.8z M65.4,143.8c0-4,3.2-7.2,7.2-7.2l0,0c4,0,7.2,3.2,7.2,7.2l0,0c0,4-3.2,7.2-7.2,7.2l0,0
			C68.6,151,65.4,147.8,65.4,143.8z M41.3,143.8c0-4,3.2-7.2,7.2-7.2l0,0c4,0,7.2,3.2,7.2,7.2l0,0c0,4-3.2,7.2-7.2,7.2l0,0
			C44.6,151,41.3,147.8,41.3,143.8z"/>
	</g>
	<g>
		<path class="st0" d="M97.7,193.2c0-4,3.2-7.2,7.2-7.2l0,0c4,0,7.2,3.2,7.2,7.2l0,0c0,4-3.2,7.2-7.2,7.2l0,0
			C100.9,200.5,97.7,197.2,97.7,193.2z M73.6,193.2c0-4,3.2-7.2,7.2-7.2l0,0c4,0,7.2,3.2,7.2,7.2l0,0c0,4-3.2,7.2-7.2,7.2l0,0
			C76.9,200.5,73.6,197.2,73.6,193.2z M49.6,193.2c0-4,3.2-7.2,7.2-7.2l0,0c4,0,7.2,3.2,7.2,7.2l0,0c0,4-3.2,7.2-7.2,7.2l0,0
			C52.8,200.5,49.6,197.2,49.6,193.2z M25.5,193.2c0-4,3.2-7.2,7.2-7.2l0,0c4,0,7.2,3.2,7.2,7.2l0,0c0,4-3.2,7.2-7.2,7.2l0,0
			C28.7,200.5,25.5,197.2,25.5,193.2z"/>
	</g>
	<g>
		<path class="st0" d="M80.9,241.7c0-4,3.2-7.2,7.2-7.2l0,0c4,0,7.2,3.2,7.2,7.2l0,0c0,4-3.2,7.2-7.2,7.2l0,0
			C84.1,248.9,80.9,245.7,80.9,241.7z M56.8,241.7c0-4,3.2-7.2,7.2-7.2l0,0c4,0,7.2,3.2,7.2,7.2l0,0c0,4-3.2,7.2-7.2,7.2l0,0
			C60.1,248.9,56.8,245.7,56.8,241.7z M32.7,241.7c0-4,3.2-7.2,7.2-7.2l0,0c4,0,7.2,3.2,7.2,7.2l0,0c0,4-3.2,7.2-7.2,7.2l0,0
			C36,248.9,32.7,245.7,32.7,241.7z M8.7,241.7c0-4,3.2-7.2,7.2-7.2l0,0c4,0,7.2,3.2,7.2,7.2l0,0c0,4-3.2,7.2-7.2,7.2l0,0
			C11.9,248.9,8.7,245.7,8.7,241.7z"/>
	</g>
	<g>
		<polygon class="st0" points="110.4,299.5 65,299.5 65,270.9 74.6,270.9 74.6,289.8 110.4,289.8 		"/>
	</g>
	<path class="st0" d="M235.5,198.2c0,5.5-4.4,9.9-9.9,9.9s-9.9-4.4-9.9-9.9s4.4-9.9,9.9-9.9S235.5,192.7,235.5,198.2z"/>
	<g>
		<path class="st0" d="M225.6,261.9c-35.1,0-63.7-28.6-63.7-63.7c0-35.1,28.6-63.7,63.7-63.7v9.6c-29.8,0-54,24.2-54,54
			s24.2,54,54,54s54-24.2,54-54c0-15.3-6.5-30-17.9-40.2l6.4-7.2c13.4,12.1,21.1,29.3,21.1,47.4
			C289.3,233.3,260.7,261.9,225.6,261.9z"/>
	</g>
	<g>
		
			<rect x="218.2" y="176.7" transform="matrix(0.6652 -0.7467 0.7467 0.6652 -55.0376 240.3275)" class="st0" width="44.6" height="9.6"/>
	</g>
</g>
</svg>
