<?xml version="1.0" encoding="utf-8"?>
<!-- Generator: Adobe Illustrator 23.0.5, SVG Export Plug-In . SVG Version: 6.00 Build 0)  -->
<svg version="1.1" id="Layer_1" xmlns="http://www.w3.org/2000/svg" xmlns:xlink="http://www.w3.org/1999/xlink" x="0px" y="0px"
	 viewBox="0 0 500 500" style="enable-background:new 0 0 500 500;" xml:space="preserve">
<style type="text/css">
	.st0{fill:#7367F0;}
</style>
<g>
	<g>
		<path class="st0" d="M194.1,268.1c-44.6,0-80.9-36.3-80.9-80.9v-35c0-44.6,36.3-80.9,80.9-80.9c44.6,0,80.9,36.3,80.9,80.9v35
			C275.1,231.8,238.8,268.1,194.1,268.1z M194.1,80c-39.8,0-72.3,32.4-72.3,72.3v35c0,39.8,32.4,72.3,72.3,72.3h0
			c39.8,0,72.3-32.4,72.3-72.3v-35C266.4,112.4,234,80,194.1,80z"/>
	</g>
	<g>
		<path class="st0" d="M284.5,391H28.7l13.8-78.7c3.7-21.2,14.8-40.6,31.4-54.5c16.5-13.9,37.5-21.5,59-21.5h8.3l1.3,1.3
			c13.7,14.1,32.1,21.9,51.8,21.9c19.7,0,38.1-7.8,51.8-21.9l1.3-1.3h7.8c21,0,41.5,7.3,57.8,20.5l-5.5,6.7
			C292.6,251.6,274,245,255,245h-4.2c-15.2,15-35.3,23.2-56.7,23.2s-41.5-8.2-56.7-23.2h-4.7c-19.5,0-38.5,6.9-53.5,19.5
			c-15,12.6-25,30.1-28.4,49.3l-12,68.6h245.5V391z"/>
	</g>
	<g>
		<path class="st0" d="M194.1,229c-9.3,0-18.1-3.7-24.6-10.4l6.2-6c4.9,5,11.4,7.8,18.4,7.8c7,0,13.5-2.8,18.4-7.8l6.2,6
			C212.2,225.3,203.5,229,194.1,229z"/>
	</g>
	<circle class="st0" cx="161.8" cy="181.9" r="7.5"/>
	<circle class="st0" cx="226" cy="181.9" r="7.5"/>
	<path class="st0" d="M359.4,312.5c0,4.1-3.4,7.5-7.5,7.5c-4.1,0-7.5-3.4-7.5-7.5c0-4.1,3.4-7.5,7.5-7.5
		C356,305,359.4,308.4,359.4,312.5z"/>
	<path class="st0" d="M421.2,312.5c0,4.1-3.4,7.5-7.5,7.5c-4.1,0-7.5-3.4-7.5-7.5c0-4.1,3.4-7.5,7.5-7.5
		C417.8,305,421.2,308.4,421.2,312.5z"/>
	<g>
		<path class="st0" d="M166.5,159.5c-3,0-6-0.2-8.9-0.5c-19.7-2.3-36.4-12-41.6-24.2l8-3.4c3.9,9.2,18.1,17,34.6,19
			c11.1,1.3,38.9,1.5,58.3-24.9l7,5.1c-8.3,11.3-18.9,19.4-31.6,24.2C184.2,157.9,175.4,159.5,166.5,159.5z"/>
	</g>
	<g>
		<path class="st0" d="M239.8,151.1c-1.6,0-3.1-0.1-4.5-0.2c-10.8-1.2-20.2-6.4-25.4-10.9l5.7-6.5c4.2,3.6,11.7,7.9,20.6,8.8
			c10.7,1.2,20.5-2.8,29-11.7l6.3,6C260.5,148.1,248.8,151.1,239.8,151.1z"/>
	</g>
	<g>
		<path class="st0" d="M471.3,428.7h-178l11.5-155.6h155L471.3,428.7z M302.6,420H462l-10.2-138.3H312.8L302.6,420z"/>
	</g>
	<g>
		<path class="st0" d="M418,312.5h-8.7v-45.9c0-14.6-11.9-26.6-26.6-26.6c-14.6,0-26.6,11.9-26.6,26.6v45.9h-8.7v-45.9
			c0-19.4,15.8-35.2,35.2-35.2c19.4,0,35.2,15.8,35.2,35.2V312.5z"/>
	</g>
	<g>
		<path class="st0" d="M237.7,356c0-3.6,2.9-6.5,6.5-6.5l0,0c3.6,0,6.5,2.9,6.5,6.5l0,0c0,3.6-2.9,6.5-6.5,6.5l0,0
			C240.6,362.5,237.7,359.6,237.7,356z M216,356c0-3.6,2.9-6.5,6.5-6.5l0,0c3.6,0,6.5,2.9,6.5,6.5l0,0c0,3.6-2.9,6.5-6.5,6.5l0,0
			C218.9,362.5,216,359.6,216,356z M194.4,356c0-3.6,2.9-6.5,6.5-6.5l0,0c3.6,0,6.5,2.9,6.5,6.5l0,0c0,3.6-2.9,6.5-6.5,6.5l0,0
			C197.3,362.5,194.4,359.6,194.4,356z M172.8,356c0-3.6,2.9-6.5,6.5-6.5l0,0c3.6,0,6.5,2.9,6.5,6.5l0,0c0,3.6-2.9,6.5-6.5,6.5l0,0
			C175.7,362.5,172.8,359.6,172.8,356z M151.1,356c0-3.6,2.9-6.5,6.5-6.5l0,0c3.6,0,6.5,2.9,6.5,6.5l0,0c0,3.6-2.9,6.5-6.5,6.5l0,0
			C154,362.5,151.1,359.6,151.1,356z M129.5,356c0-3.6,2.9-6.5,6.5-6.5l0,0c3.6,0,6.5,2.9,6.5,6.5l0,0c0,3.6-2.9,6.5-6.5,6.5l0,0
			C132.4,362.5,129.5,359.6,129.5,356z M107.8,356c0-3.6,2.9-6.5,6.5-6.5l0,0c3.6,0,6.5,2.9,6.5,6.5l0,0c0,3.6-2.9,6.5-6.5,6.5l0,0
			C110.7,362.5,107.8,359.6,107.8,356z M86.2,356c0-3.6,2.9-6.5,6.5-6.5l0,0c3.6,0,6.5,2.9,6.5,6.5l0,0c0,3.6-2.9,6.5-6.5,6.5l0,0
			C89.1,362.5,86.2,359.6,86.2,356z M64.5,356c0-3.6,2.9-6.5,6.5-6.5l0,0c3.6,0,6.5,2.9,6.5,6.5l0,0c0,3.6-2.9,6.5-6.5,6.5l0,0
			C67.4,362.5,64.5,359.6,64.5,356z"/>
	</g>
</g>
</svg>
