<?xml version="1.0" encoding="utf-8"?>
<!-- Generator: Adobe Illustrator 23.0.5, SVG Export Plug-In . SVG Version: 6.00 Build 0)  -->
<svg version="1.1" id="Layer_1" xmlns="http://www.w3.org/2000/svg" xmlns:xlink="http://www.w3.org/1999/xlink" x="0px" y="0px"
	 viewBox="0 0 500 500" style="enable-background:new 0 0 500 500;" xml:space="preserve">
<style type="text/css">
	.st0{fill:#7367F0;}
</style>
<g>
	<g>
		<path class="st0" d="M250,284.1c-37.1,0-67.4-30.2-67.4-67.4v-44.9h6.9v44.9c0,33.3,27.1,60.5,60.5,60.5s60.5-27.1,60.5-60.5
			v-44.9h6.9v44.9C317.4,253.9,287.1,284.1,250,284.1z"/>
	</g>
	<g>
		<path class="st0" d="M318.2,256.4h-42.9v-6.9h42.9c10.7,0,19.5-8.7,19.5-19.5V169c0-23.4-9.1-45.4-25.7-62
			c-16.6-16.6-38.6-25.7-62-25.7c-23.4,0-45.4,9.1-62,25.7s-25.7,38.6-25.7,62v8.3h-6.9V169c0-25.2,9.8-49,27.7-66.8
			C201,84.3,224.8,74.4,250,74.4c25.2,0,49,9.8,66.8,27.7c17.9,17.9,27.7,41.6,27.7,66.8v61.1C344.5,244.6,332.7,256.4,318.2,256.4z
			"/>
	</g>
	<g>
		<path class="st0" d="M423.8,425.6H76.2l22.7-72.8c4.8-15.4,14.2-28.6,27.2-38.2c13-9.6,28.4-14.6,44.6-14.6h158.7
			c16.1,0,31.5,5.1,44.6,14.6c13,9.6,22.4,22.8,27.2,38.2L423.8,425.6z M85.5,418.7h329l-19.9-63.9c-4.4-14-12.9-26-24.7-34.7
			c-11.8-8.7-25.8-13.3-40.5-13.3H170.6c-14.7,0-28.7,4.6-40.5,13.3c-11.8,8.7-20.4,20.7-24.7,34.7L85.5,418.7z"/>
	</g>
	<g>
		<path class="st0" d="M338.8,379.1c0-2.9,2.3-5.2,5.2-5.2l0,0c2.9,0,5.2,2.3,5.2,5.2l0,0c0,2.9-2.3,5.2-5.2,5.2l0,0
			C341.1,384.3,338.8,381.9,338.8,379.1z M321.6,379.1c0-2.9,2.3-5.2,5.2-5.2l0,0c2.9,0,5.2,2.3,5.2,5.2l0,0c0,2.9-2.3,5.2-5.2,5.2
			l0,0C323.9,384.3,321.6,381.9,321.6,379.1z M304.4,379.1c0-2.9,2.3-5.2,5.2-5.2l0,0c2.9,0,5.2,2.3,5.2,5.2l0,0
			c0,2.9-2.3,5.2-5.2,5.2l0,0C306.7,384.3,304.4,381.9,304.4,379.1z M287.2,379.1c0-2.9,2.3-5.2,5.2-5.2l0,0c2.9,0,5.2,2.3,5.2,5.2
			l0,0c0,2.9-2.3,5.2-5.2,5.2l0,0C289.5,384.3,287.2,381.9,287.2,379.1z M270,379.1c0-2.9,2.3-5.2,5.2-5.2l0,0
			c2.9,0,5.2,2.3,5.2,5.2l0,0c0,2.9-2.3,5.2-5.2,5.2l0,0C272.3,384.3,270,381.9,270,379.1z M252.8,379.1c0-2.9,2.3-5.2,5.2-5.2l0,0
			c2.9,0,5.2,2.3,5.2,5.2l0,0c0,2.9-2.3,5.2-5.2,5.2l0,0C255.1,384.3,252.8,381.9,252.8,379.1z"/>
	</g>
	<g>
		<path class="st0" d="M162.4,226.7h-26.1c-7.7,0-14-6.3-14-14v-25c0-7.7,6.3-14,14-14h26.1V226.7z M136.4,180.7
			c-3.9,0-7.1,3.2-7.1,7.1v25c0,3.9,3.2,7.1,7.1,7.1h19.2v-39.1H136.4z"/>
	</g>
	<g>
		<path class="st0" d="M363.6,226.7h-26.1v-52.9h26.1c7.7,0,14,6.3,14,14v25C377.6,220.5,371.3,226.7,363.6,226.7z M344.5,219.8
			h19.2c3.9,0,7.1-3.2,7.1-7.1v-25c0-3.9-3.2-7.1-7.1-7.1h-19.2V219.8z"/>
	</g>
	<path class="st0" d="M283.6,253c0,4.6-3.8,8.4-8.4,8.4c-4.6,0-8.4-3.8-8.4-8.4c0-4.6,3.8-8.4,8.4-8.4
		C279.9,244.6,283.6,248.3,283.6,253z"/>
	<g>
		<path class="st0" d="M205.2,161.4C205.1,161.4,205.1,161.4,205.2,161.4c-16.7,0-29.3-4.6-29.8-4.8l2.4-6.5l-1.2,3.2l1.2-3.2
			c0.1,0,12.1,4.4,27.4,4.4c0.1,0,0.1,0,0.2,0c8.9,0,17.2-1.5,24.7-4.4c9.2-3.6,17.2-9.4,23.7-17.3l5.3,4.4
			C246,153.1,227.4,161.4,205.2,161.4z"/>
	</g>
	<g>
		<path class="st0" d="M291.6,162.2c-9.1,0-17-2.1-23.1-4.6c-12.9-5.3-20.7-13.2-21-13.5l4.9-4.8c0.1,0.1,7.2,7.3,18.9,12
			c15.4,6.2,31.2,5.2,46.8-2.8l3.2,6.1C310.5,160.2,300.5,162.2,291.6,162.2z"/>
	</g>
</g>
</svg>
