<?xml version="1.0" encoding="utf-8"?>
<!-- Generator: Adobe Illustrator 23.0.5, SVG Export Plug-In . SVG Version: 6.00 Build 0)  -->
<svg version="1.1" id="Layer_1" xmlns="http://www.w3.org/2000/svg" xmlns:xlink="http://www.w3.org/1999/xlink" x="0px" y="0px"
	 viewBox="0 0 500 500" style="enable-background:new 0 0 500 500;" xml:space="preserve">
<style type="text/css">
	.st0{fill:#7367F0;}
</style>
<g>
	<g>
		<polygon class="st0" points="470.3,402.1 29.7,402.1 85.3,201.1 131.4,201.1 131.4,209.7 91.8,209.7 41,393.5 459,393.5 
			408.2,209.7 231,209.7 231,201.1 414.7,201.1 		"/>
	</g>
	<g>
		<polygon class="st0" points="420.8,372.8 79.2,372.8 113.2,218.9 140.9,218.9 140.9,227.5 120.1,227.5 89.9,364.2 410.1,364.2 
			379.9,227.5 223.5,227.5 223.5,218.9 386.8,218.9 		"/>
	</g>
	<g>
		<path class="st0" d="M181.2,261.5l-3.1-3.4c-0.5-0.6-12.9-13.9-25.4-33.5c-17-26.7-25.6-51.1-25.6-72.6
			c0-29.8,24.3-54.1,54.1-54.1s54.1,24.3,54.1,54.1c0,21.5-8.6,45.9-25.6,72.6c-12.5,19.7-24.9,33-25.4,33.5L181.2,261.5z
			 M181.2,106.5c-25.1,0-45.5,20.4-45.5,45.5c0,40.4,34.7,84.1,45.5,96.7c10.8-12.6,45.5-56.3,45.5-96.7
			C226.7,126.9,206.3,106.5,181.2,106.5z"/>
	</g>
	<g>
		<path class="st0" d="M181.2,182.8c-15.7,0-28.4-12.7-28.4-28.4s12.7-28.4,28.4-28.4s28.4,12.7,28.4,28.4S196.9,182.8,181.2,182.8z
			 M181.2,134.5c-10.9,0-19.8,8.9-19.8,19.8c0,10.9,8.9,19.8,19.8,19.8s19.8-8.9,19.8-19.8C201,143.4,192.1,134.5,181.2,134.5z"/>
	</g>
	<g>
		<path class="st0" d="M159.1,339.4c-11.7,0-20.9-6.7-20.9-15.4s9.2-15.4,20.9-15.4c11.7,0,20.9,6.7,20.9,15.4
			S170.8,339.4,159.1,339.4z M159.1,317.3c-5.8,0-12.3,2.9-12.3,6.8s6.5,6.8,12.3,6.8s12.3-2.9,12.3-6.8S164.9,317.3,159.1,317.3z"
			/>
	</g>
	<g>
		<path class="st0" d="M282,334.2c-11.7,0-20.9-6.7-20.9-15.4c0-8.6,9.2-15.4,20.9-15.4c11.7,0,20.9,6.7,20.9,15.4
			C302.9,327.4,293.7,334.2,282,334.2z M282,312c-5.8,0-12.3,2.9-12.3,6.8c0,3.9,6.5,6.8,12.3,6.8c5.8,0,12.3-2.9,12.3-6.8
			C294.3,314.9,287.8,312,282,312z"/>
	</g>
	<g>
		<path class="st0" d="M340.1,278c-11.7,0-20.9-6.7-20.9-15.4c0-8.6,9.2-15.4,20.9-15.4c11.7,0,20.9,6.7,20.9,15.4
			C361,271.3,351.9,278,340.1,278z M340.1,255.9c-5.8,0-12.3,2.9-12.3,6.8c0,3.9,6.5,6.8,12.3,6.8s12.3-2.9,12.3-6.8
			C352.4,258.8,345.9,255.9,340.1,255.9z"/>
	</g>
	<g>
		<path class="st0" d="M152.6,297.4c0-3.6,2.9-6.4,6.4-6.4l0,0c3.6,0,6.4,2.9,6.4,6.4l0,0c0,3.6-2.9,6.4-6.4,6.4l0,0
			C155.5,303.9,152.6,301,152.6,297.4z M156.7,280.1c0-3.6,2.9-6.4,6.4-6.4l0,0c3.6,0,6.4,2.9,6.4,6.4l0,0c0,3.6-2.9,6.4-6.4,6.4
			l0,0C159.6,286.5,156.7,283.6,156.7,280.1z M174.8,276.6c0-3.6,2.9-6.4,6.4-6.4l0,0c3.6,0,6.4,2.9,6.4,6.4l0,0
			c0,3.6-2.9,6.4-6.4,6.4l0,0C177.7,283.1,174.8,280.2,174.8,276.6z M174.8,255.2c0-3.6,2.9-6.4,6.4-6.4l0,0c3.6,0,6.4,2.9,6.4,6.4
			l0,0c0,3.6-2.9,6.4-6.4,6.4l0,0C177.7,261.6,174.8,258.7,174.8,255.2z"/>
	</g>
	<g>
		<path class="st0" d="M239.7,318.8c0-3.6,2.9-6.4,6.4-6.4l0,0c3.6,0,6.4,2.9,6.4,6.4l0,0c0,3.6-2.9,6.4-6.4,6.4l0,0
			C242.6,325.2,239.7,322.4,239.7,318.8z M224.6,312.5c0-3.6,2.9-6.4,6.4-6.4l0,0c3.6,0,6.4,2.9,6.4,6.4l0,0c0,3.6-2.9,6.4-6.4,6.4
			l0,0C227.5,318.9,224.6,316,224.6,312.5z M224.6,291c0-3.6,2.9-6.4,6.4-6.4l0,0c3.6,0,6.4,2.9,6.4,6.4l0,0c0,3.6-2.9,6.4-6.4,6.4
			l0,0C227.5,297.4,224.6,294.5,224.6,291z M213.9,282.7c-3-1.9-4-5.8-2.1-8.9l0,0c1.9-3,5.8-4,8.9-2.1l0,0c3,1.9,4,5.8,2.1,8.9l0,0
			c-1.2,2-3.3,3.1-5.5,3.1l0,0C216.2,283.7,215,283.4,213.9,282.7z M195.6,271.5c-3-1.9-4-5.8-2.1-8.9l0,0c1.9-3,5.8-4,8.9-2.1l0,0
			c3,1.9,4,5.8,2.1,8.9l0,0c-1.2,2-3.3,3.1-5.5,3.1l0,0C197.8,272.5,196.7,272.2,195.6,271.5z"/>
	</g>
	<g>
		<path class="st0" d="M299.2,262.7c0-3.6,2.9-6.4,6.4-6.4l0,0c3.6,0,6.4,2.9,6.4,6.4l0,0c0,3.6-2.9,6.4-6.4,6.4l0,0
			C302.1,269.1,299.2,266.2,299.2,262.7z M277.8,262.7c0-3.6,2.9-6.4,6.4-6.4l0,0c3.6,0,6.4,2.9,6.4,6.4l0,0c0,3.6-2.9,6.4-6.4,6.4
			l0,0C280.6,269.1,277.8,266.2,277.8,262.7z M262.1,268.4c-3.5-0.4-6.1-3.6-5.7-7.1l0,0c0.4-3.5,3.6-6.1,7.1-5.7l0,0
			c3.5,0.4,6.1,3.6,5.7,7.1l0,0c-0.4,3.3-3.1,5.7-6.4,5.7l0,0C262.5,268.4,262.3,268.4,262.1,268.4z M240.7,266.1
			c-3.5-0.4-6.1-3.6-5.7-7.1l0,0c0.4-3.5,3.6-6.1,7.1-5.7l0,0c3.5,0.4,6.1,3.6,5.7,7.1l0,0c-0.4,3.3-3.2,5.7-6.4,5.7l0,0
			C241.2,266.1,241,266.1,240.7,266.1z M219.4,263.7c-3.5-0.4-6.1-3.6-5.7-7.1l0,0c0.4-3.5,3.6-6.1,7.1-5.7l0,0
			c3.5,0.4,6.1,3.6,5.7,7.1l0,0c-0.4,3.3-3.2,5.7-6.4,5.7l0,0C219.9,263.8,219.6,263.8,219.4,263.7z"/>
	</g>
</g>
</svg>
