<svg width="484" height="341" viewBox="0 0 484 341" fill="none" xmlns="http://www.w3.org/2000/svg">
<path d="M165.2 340.9C135.7 340.9 111.6 316.9 111.6 287.3C111.6 257.8 135.6 233.7 165.2 233.7C194.7 233.7 218.8 257.7 218.8 287.3C218.7 316.9 194.7 340.9 165.2 340.9ZM165.2 243.3C140.9 243.3 121.1 263.1 121.1 287.4C121.1 311.7 140.9 331.5 165.2 331.5C189.5 331.5 209.3 311.7 209.3 287.4C209.3 263 189.5 243.3 165.2 243.3Z" fill="white"/>
<path d="M165.2 315.4C149.8 315.4 137.2 302.8 137.2 287.4C137.2 272 149.8 259.4 165.2 259.4C180.6 259.4 193.2 272 193.2 287.4C193.2 302.8 180.6 315.4 165.2 315.4ZM165.2 268.8C155 268.8 146.6 277.1 146.6 287.4C146.6 297.6 154.9 306 165.2 306C175.4 306 183.8 297.7 183.8 287.4C183.8 277.1 175.4 268.8 165.2 268.8Z" fill="white"/>
<path d="M389.4 340.9C359.9 340.9 335.8 316.9 335.8 287.3C335.8 257.8 359.8 233.7 389.4 233.7C418.9 233.7 443 257.7 443 287.3C443 316.9 419 340.9 389.4 340.9ZM389.4 243.3C365.1 243.3 345.3 263.1 345.3 287.4C345.3 311.7 365.1 331.5 389.4 331.5C413.7 331.5 433.5 311.7 433.5 287.4C433.6 263 413.8 243.3 389.4 243.3Z" fill="white"/>
<path d="M389.4 315.4C374 315.4 361.4 302.8 361.4 287.4C361.4 272 374 259.4 389.4 259.4C404.8 259.4 417.4 272 417.4 287.4C417.5 302.8 404.9 315.4 389.4 315.4ZM389.4 268.8C379.2 268.8 370.8 277.1 370.8 287.4C370.8 297.6 379.1 306 389.4 306C399.6 306 408 297.7 408 287.4C408 277.1 399.7 268.8 389.4 268.8Z" fill="white"/>
<path d="M340.5 282.5H213.9V291.9H340.5V282.5Z" fill="white"/>
<path d="M439 277.3L433.5 269.6L474.2 240.8V222.9H62.7V242.6L121.1 266.2L117.5 275L53.3 248.9V213.4H483.6V245.6L439 277.3Z" fill="white"/>
<path d="M483.6 218.1H474.2V159.5C474.2 149.5 469.2 140.4 460.7 135.1L454.7 131.3C448.8 127.6 444 122.3 440.9 116L417.8 69.8C412.9 60 403 53.8 392 53.8H320.4V218.1H311V44.4H392C406.6 44.4 419.7 52.5 426.3 65.6L449.5 111.9C451.9 116.6 455.5 120.6 459.9 123.4L465.9 127.2C477.1 134.3 483.8 146.4 483.8 159.6V218.1H483.6Z" fill="white"/>
<path d="M433.6 136.1H342.2V66.5H351.6V126.7H433.6V136.1Z" fill="white"/>
<path d="M219.5 166.6H174C157 166.6 143.1 152.7 143.1 135.7C143.1 127.6 146.2 120 151.9 114.2C135 114.1 121.3 100.2 121.3 83.3C121.3 75 124.6 67.4 130 61.8C113.1 61.6 99.5 47.8 99.5 30.9C99.5 13.9 113.4 0 130.4 0H320.5V49.1H311.1V9.5H130.3C118.5 9.5 108.8 19.1 108.8 31C108.8 42.8 118.4 52.5 130.3 52.5H152.1V61.9C140.3 61.9 130.6 71.5 130.6 83.4C130.6 95.2 140.2 104.9 152.1 104.9H152.2L174 105.1L173.9 114.5C162.1 114.5 152.4 124 152.4 135.7C152.4 147.5 162 157.2 173.9 157.2H219.4V166.6H219.5Z" fill="white"/>
<path d="M184.2 52.4H149.6V61.8H184.2V52.4Z" fill="white"/>
<path d="M207.6 105H169.7V114.4H207.6V105Z" fill="white"/>
<path d="M70.7 57.1C70.7 53.2 73.9 50 77.8 50C81.7 50 84.9 53.2 84.9 57.1C84.9 61 81.7 64.2 77.8 64.2C73.9 64.2 70.7 61 70.7 57.1ZM47.1 57.1C47.1 53.2 50.3 50 54.2 50C58.1 50 61.3 53.2 61.3 57.1C61.3 61 58.1 64.2 54.2 64.2C50.3 64.2 47.1 61 47.1 57.1ZM23.6 57.1C23.6 53.2 26.8 50 30.7 50C34.6 50 37.8 53.2 37.8 57.1C37.8 61 34.6 64.2 30.7 64.2C26.7 64.2 23.6 61 23.6 57.1ZM0 57.1C0 53.2 3.2 50 7.1 50C11 50 14.2 53.2 14.2 57.1C14.2 61 11 64.2 7.1 64.2C3.1 64.2 0 61 0 57.1Z" fill="white"/>
<path d="M87.6 109.9C87.6 106 90.8 102.8 94.7 102.8C98.6 102.8 101.8 106 101.8 109.9C101.8 113.8 98.6 117 94.7 117C90.8 117 87.6 113.8 87.6 109.9ZM64.1 109.9C64.1 106 67.3 102.8 71.2 102.8C75.1 102.8 78.3 106 78.3 109.9C78.3 113.8 75.1 117 71.2 117C67.2 117 64.1 113.8 64.1 109.9ZM40.5 109.9C40.5 106 43.7 102.8 47.6 102.8C51.5 102.8 54.7 106 54.7 109.9C54.7 113.8 51.5 117 47.6 117C43.6 117 40.5 113.8 40.5 109.9ZM16.9 109.9C16.9 106 20.1 102.8 24 102.8C27.9 102.8 31.1 106 31.1 109.9C31.1 113.8 27.9 117 24 117C20 117 16.9 113.8 16.9 109.9Z" fill="white"/>
<path d="M105.6 161.7C105.6 157.8 108.8 154.6 112.7 154.6C116.6 154.6 119.8 157.8 119.8 161.7C119.8 165.6 116.6 168.8 112.7 168.8C108.8 168.7 105.6 165.6 105.6 161.7ZM82 161.7C82 157.8 85.2 154.6 89.1 154.6C93 154.6 96.2 157.8 96.2 161.7C96.2 165.6 93 168.8 89.1 168.8C85.2 168.7 82 165.6 82 161.7ZM58.4 161.7C58.4 157.8 61.6 154.6 65.5 154.6C69.4 154.6 72.6 157.8 72.6 161.7C72.6 165.6 69.4 168.8 65.5 168.8C61.6 168.7 58.4 165.6 58.4 161.7ZM34.8 161.7C34.8 157.8 38 154.6 41.9 154.6C45.8 154.6 49 157.8 49 161.7C49 165.6 45.8 168.8 41.9 168.8C38 168.7 34.8 165.6 34.8 161.7Z" fill="white"/>
</svg>
