<svg width="348" height="352" viewBox="0 0 348 352" fill="none" xmlns="http://www.w3.org/2000/svg">
<path d="M174 210.1C136.9 210.1 106.6 179.9 106.6 142.7V97.8H113.5V142.7C113.5 176 140.6 203.2 174 203.2C207.4 203.2 234.5 176.1 234.5 142.7V97.8H241.4V142.7C241.4 179.9 211.1 210.1 174 210.1Z" fill="white"/>
<path d="M242.2 182.4H199.3V175.5H242.2C252.9 175.5 261.7 166.8 261.7 156V95C261.7 71.6 252.6 49.6 236 33C219.4 16.4 197.4 7.3 174 7.3C150.6 7.3 128.6 16.4 112 33C95.4 49.6 86.3 71.6 86.3 95V103.3H79.4V95C79.4 69.8 89.2 46 107.1 28.2C125 10.3 148.8 0.399994 174 0.399994C199.2 0.399994 223 10.2 240.8 28.1C258.7 46 268.5 69.7 268.5 94.9V156C268.5 170.6 256.7 182.4 242.2 182.4Z" fill="white"/>
<path d="M347.8 351.6H0.200012L22.9 278.8C27.7 263.4 37.1 250.2 50.1 240.6C63.1 231 78.5 226 94.7 226H253.4C269.5 226 284.9 231.1 298 240.6C311 250.2 320.4 263.4 325.2 278.8L347.8 351.6ZM9.50002 344.7H338.5L318.6 280.8C314.2 266.8 305.7 254.8 293.9 246.1C282.1 237.4 268.1 232.8 253.4 232.8H94.6C79.9 232.8 65.9 237.4 54.1 246.1C42.3 254.8 33.7 266.8 29.4 280.8L9.50002 344.7Z" fill="white"/>
<path d="M262.8 305.1C262.8 302.2 265.1 299.9 268 299.9C270.9 299.9 273.2 302.2 273.2 305.1C273.2 308 270.9 310.3 268 310.3C265.1 310.3 262.8 307.9 262.8 305.1ZM245.6 305.1C245.6 302.2 247.9 299.9 250.8 299.9C253.7 299.9 256 302.2 256 305.1C256 308 253.7 310.3 250.8 310.3C247.9 310.3 245.6 307.9 245.6 305.1ZM228.4 305.1C228.4 302.2 230.7 299.9 233.6 299.9C236.5 299.9 238.8 302.2 238.8 305.1C238.8 308 236.5 310.3 233.6 310.3C230.7 310.3 228.4 307.9 228.4 305.1ZM211.2 305.1C211.2 302.2 213.5 299.9 216.4 299.9C219.3 299.9 221.6 302.2 221.6 305.1C221.6 308 219.3 310.3 216.4 310.3C213.5 310.3 211.2 307.9 211.2 305.1ZM194 305.1C194 302.2 196.3 299.9 199.2 299.9C202.1 299.9 204.4 302.2 204.4 305.1C204.4 308 202.1 310.3 199.2 310.3C196.3 310.3 194 307.9 194 305.1ZM176.8 305.1C176.8 302.2 179.1 299.9 182 299.9C184.9 299.9 187.2 302.2 187.2 305.1C187.2 308 184.9 310.3 182 310.3C179.1 310.3 176.8 307.9 176.8 305.1Z" fill="white"/>
<path d="M86.4 152.7H60.3C52.6 152.7 46.3 146.4 46.3 138.7V113.7C46.3 106 52.6 99.7 60.3 99.7H86.4V152.7ZM60.4 106.7C56.5 106.7 53.3 109.9 53.3 113.8V138.8C53.3 142.7 56.5 145.9 60.4 145.9H79.6001V106.8H60.4V106.7Z" fill="white"/>
<path d="M287.6 152.7H261.5V99.8H287.6C295.3 99.8 301.6 106.1 301.6 113.8V138.8C301.6 146.5 295.3 152.7 287.6 152.7ZM268.5 145.8H287.7C291.6 145.8 294.8 142.6 294.8 138.7V113.7C294.8 109.8 291.6 106.6 287.7 106.6H268.5V145.8Z" fill="white"/>
<path d="M207.6 179C207.6 183.6 203.8 187.4 199.2 187.4C194.6 187.4 190.8 183.6 190.8 179C190.8 174.4 194.6 170.6 199.2 170.6C203.9 170.6 207.6 174.3 207.6 179Z" fill="white"/>
<path d="M129.2 87.4C129.1 87.4 129.1 87.4 129.2 87.4C112.5 87.4 99.9 82.8 99.4 82.6L101.8 76.1C101.9 76.1 113.9 80.5 129.2 80.5C129.3 80.5 129.3 80.5 129.4 80.5C138.3 80.5 146.6 79 154.1 76.1C163.3 72.5 171.3 66.7 177.8 58.8L183.1 63.2C170 79.1 151.4 87.4 129.2 87.4Z" fill="white"/>
<path d="M215.6 88.2C206.5 88.2 198.6 86.1 192.5 83.6C179.6 78.3 171.8 70.4 171.5 70.1L176.4 65.3C176.5 65.4 183.6 72.6 195.3 77.3C210.7 83.5 226.5 82.5 242.1 74.5L245.3 80.6C234.5 86.2 224.5 88.2 215.6 88.2Z" fill="white"/>
</svg>
