<svg width="484" height="320" viewBox="0 0 484 320" fill="none" xmlns="http://www.w3.org/2000/svg">
<path d="M184.7 320C156.8 320 134.1 297.3 134.1 269.4C134.1 241.5 156.8 218.8 184.7 218.8C212.6 218.8 235.3 241.5 235.3 269.4C235.2 297.3 212.6 320 184.7 320ZM184.7 228.5C162.1 228.5 143.8 246.9 143.8 269.4C143.8 292 162.2 310.3 184.7 310.3C207.3 310.3 225.6 291.9 225.6 269.4C225.6 246.9 207.3 228.5 184.7 228.5Z" fill="white"/>
<path d="M184.7 296.1C170 296.1 158.1 284.2 158.1 269.5C158.1 254.8 170 242.9 184.7 242.9C199.4 242.9 211.3 254.8 211.3 269.5C211.3 284.2 199.4 296.1 184.7 296.1ZM184.7 252.4C175.3 252.4 167.7 260 167.7 269.4C167.7 278.8 175.3 286.4 184.7 286.4C194.1 286.4 201.7 278.8 201.7 269.4C201.7 260.1 194.1 252.4 184.7 252.4Z" fill="white"/>
<path d="M394.7 320C366.8 320 344.1 297.3 344.1 269.4C344.1 241.5 366.8 218.8 394.7 218.8C422.6 218.8 445.3 241.5 445.3 269.4C445.3 297.3 422.6 320 394.7 320ZM394.7 228.5C372.1 228.5 353.8 246.9 353.8 269.4C353.8 292 372.2 310.3 394.7 310.3C417.2 310.3 435.6 291.9 435.6 269.4C435.6 246.9 417.3 228.5 394.7 228.5Z" fill="white"/>
<path d="M394.7 296.1C380 296.1 368.1 284.2 368.1 269.5C368.1 254.8 380 242.9 394.7 242.9C409.4 242.9 421.3 254.8 421.3 269.5C421.3 284.2 409.4 296.1 394.7 296.1ZM394.7 252.4C385.3 252.4 377.7 260 377.7 269.4C377.7 278.8 385.3 286.4 394.7 286.4C404.1 286.4 411.7 278.8 411.7 269.4C411.7 260.1 404.1 252.4 394.7 252.4Z" fill="white"/>
<path d="M348.9 264.5H230.3V274.1H348.9V264.5Z" fill="white"/>
<path d="M441.4 260.4L435.8 252.5L473.7 225.6V209.4H89.2V227.2L143.5 249.3L139.9 258.2L79.5 233.7V199.8H483.3V230.6L441.4 260.4Z" fill="white"/>
<path d="M483.3 204.6H473.7V149.7C473.7 140.5 469.1 132.1 461.3 127.2L455.7 123.7C450.1 120.2 445.6 115.2 442.6 109.2L420.9 65.8C416.4 56.7 407.2 51.1 397.1 51.1H330.5V204.6H320.9V41.5H397.1C410.9 41.5 423.4 49.2 429.5 61.5L451.2 104.9C453.4 109.3 456.7 112.9 460.8 115.5L466.4 119C477 125.7 483.3 137.2 483.3 149.7V204.6Z" fill="white"/>
<path d="M436.1 128.2H350V62.6H359.7V118.6H436.1V128.2Z" fill="white"/>
<path d="M330.5 46.3H320.8V9.6H66.6V25.6H57V0H330.5V46.3Z" fill="white"/>
<path d="M105.5 53.8C105.5 49.8 108.7 46.6 112.7 46.6C116.7 46.6 119.9 49.8 119.9 53.8C119.9 57.8 116.7 61 112.7 61C108.8 61 105.5 57.8 105.5 53.8ZM81.5 53.8C81.5 49.8 84.7 46.6 88.7 46.6C92.7 46.6 95.9 49.8 95.9 53.8C95.9 57.8 92.7 61 88.7 61C84.7 61 81.5 57.8 81.5 53.8ZM57.4 53.8C57.4 49.8 60.6 46.6 64.6 46.6C68.6 46.6 71.8 49.8 71.8 53.8C71.8 57.8 68.6 61 64.6 61C60.6 61 57.4 57.8 57.4 53.8ZM33.3 53.8C33.3 49.8 36.5 46.6 40.5 46.6C44.5 46.6 47.7 49.8 47.7 53.8C47.7 57.8 44.5 61 40.5 61C36.6 61 33.3 57.8 33.3 53.8Z" fill="white"/>
<path d="M89.7 103.2C89.7 99.2 92.9 96 96.9 96C100.9 96 104.1 99.2 104.1 103.2C104.1 107.2 100.9 110.4 96.9 110.4C92.9 110.5 89.7 107.2 89.7 103.2ZM65.6 103.2C65.6 99.2 68.8 96 72.8 96C76.8 96 80 99.2 80 103.2C80 107.2 76.8 110.4 72.8 110.4C68.9 110.5 65.6 107.2 65.6 103.2ZM41.6 103.2C41.6 99.2 44.8 96 48.8 96C52.8 96 56 99.2 56 103.2C56 107.2 52.8 110.4 48.8 110.4C44.8 110.5 41.6 107.2 41.6 103.2ZM17.5 103.2C17.5 99.2 20.7 96 24.7 96C28.7 96 31.9 99.2 31.9 103.2C31.9 107.2 28.7 110.4 24.7 110.4C20.7 110.5 17.5 107.2 17.5 103.2Z" fill="white"/>
<path d="M72.9 151.7C72.9 147.7 76.1 144.5 80.1 144.5C84.1 144.5 87.3 147.7 87.3 151.7C87.3 155.7 84.1 158.9 80.1 158.9C76.1 158.9 72.9 155.7 72.9 151.7ZM48.8 151.7C48.8 147.7 52 144.5 56 144.5C60 144.5 63.2 147.7 63.2 151.7C63.2 155.7 60 158.9 56 158.9C52.1 158.9 48.8 155.7 48.8 151.7ZM24.7 151.7C24.7 147.7 27.9 144.5 31.9 144.5C35.9 144.5 39.1 147.7 39.1 151.7C39.1 155.7 35.9 158.9 31.9 158.9C28 158.9 24.7 155.7 24.7 151.7ZM0.699997 151.7C0.699997 147.7 3.9 144.5 7.9 144.5C11.9 144.5 15.1 147.7 15.1 151.7C15.1 155.7 11.9 158.9 7.9 158.9C3.9 158.9 0.699997 155.7 0.699997 151.7Z" fill="white"/>
<path d="M102.4 209.5H57V180.9H66.6V199.8H102.4V209.5Z" fill="white"/>
<path d="M227.5 108.2C227.5 113.7 223.1 118.1 217.6 118.1C212.1 118.1 207.7 113.7 207.7 108.2C207.7 102.7 212.1 98.3 217.6 98.3C223.1 98.3 227.5 102.7 227.5 108.2Z" fill="white"/>
<path d="M217.6 171.9C182.5 171.9 153.9 143.3 153.9 108.2C153.9 73.1 182.5 44.5 217.6 44.5V54.1C187.8 54.1 163.6 78.3 163.6 108.1C163.6 137.9 187.8 162.1 217.6 162.1C247.4 162.1 271.6 137.9 271.6 108.1C271.6 92.8 265.1 78.1 253.7 67.9L260.1 60.7C273.5 72.8 281.2 90 281.2 108.1C281.3 143.3 252.7 171.9 217.6 171.9Z" fill="white"/>
<path d="M243.719 71.6356L214.051 104.938L221.219 111.324L250.887 78.0215L243.719 71.6356Z" fill="white"/>
</svg>
