<svg width="444" height="358" viewBox="0 0 444 358" fill="none" xmlns="http://www.w3.org/2000/svg">
<path d="M166.1 197.1C121.5 197.1 85.2 160.8 85.2 116.2V81.2C85.2 36.6 121.5 0.300003 166.1 0.300003C210.7 0.300003 247 36.6 247 81.2V116.2C247.1 160.8 210.8 197.1 166.1 197.1ZM166.1 9C126.3 9 93.8 41.4 93.8 81.3V116.3C93.8 156.1 126.2 188.6 166.1 188.6C205.9 188.6 238.4 156.2 238.4 116.3V81.3C238.4 41.4 206 9 166.1 9Z" fill="white"/>
<path d="M256.5 320H0.700012L14.5 241.3C18.2 220.1 29.3 200.7 45.9 186.8C62.4 172.9 83.4 165.3 104.9 165.3H113.2L114.5 166.6C128.2 180.7 146.6 188.5 166.3 188.5C186 188.5 204.4 180.7 218.1 166.6L219.4 165.3H227.2C248.2 165.3 268.7 172.6 285 185.8L279.5 192.5C264.6 180.6 246 174 227 174H222.8C207.6 189 187.5 197.2 166.1 197.2C144.7 197.2 124.6 189 109.4 174H104.7C85.2 174 66.2 180.9 51.2 193.5C36.2 206.1 26.2 223.6 22.8 242.8L10.8 311.4H256.3V320H256.5Z" fill="white"/>
<path d="M166.1 158C156.8 158 148 154.3 141.5 147.6L147.7 141.6C152.6 146.6 159.1 149.4 166.1 149.4C173.1 149.4 179.6 146.6 184.5 141.6L190.7 147.6C184.2 154.3 175.5 158 166.1 158Z" fill="white"/>
<path d="M133.8 118.4C137.942 118.4 141.3 115.042 141.3 110.9C141.3 106.758 137.942 103.4 133.8 103.4C129.658 103.4 126.3 106.758 126.3 110.9C126.3 115.042 129.658 118.4 133.8 118.4Z" fill="white"/>
<path d="M198 118.4C202.142 118.4 205.5 115.042 205.5 110.9C205.5 106.758 202.142 103.4 198 103.4C193.858 103.4 190.5 106.758 190.5 110.9C190.5 115.042 193.858 118.4 198 118.4Z" fill="white"/>
<path d="M331.4 241.5C331.4 245.6 328 249 323.9 249C319.8 249 316.4 245.6 316.4 241.5C316.4 237.4 319.8 234 323.9 234C328 234 331.4 237.4 331.4 241.5Z" fill="white"/>
<path d="M393.2 241.5C393.2 245.6 389.8 249 385.7 249C381.6 249 378.2 245.6 378.2 241.5C378.2 237.4 381.6 234 385.7 234C389.8 234 393.2 237.4 393.2 241.5Z" fill="white"/>
<path d="M138.5 88.5C135.5 88.5 132.5 88.3 129.6 88C109.9 85.7 93.2 76 88 63.8L96 60.4C99.9 69.6 114.1 77.4 130.6 79.4C141.7 80.7 169.5 80.9 188.9 54.5L195.9 59.6C187.6 70.9 177 79 164.3 83.8C156.2 86.9 147.4 88.5 138.5 88.5Z" fill="white"/>
<path d="M211.8 80.1C210.2 80.1 208.7 80 207.3 79.9C196.5 78.7 187.1 73.5 181.9 69L187.6 62.5C191.8 66.1 199.3 70.4 208.2 71.3C218.9 72.5 228.7 68.5 237.2 59.6L243.5 65.6C232.5 77.1 220.8 80.1 211.8 80.1Z" fill="white"/>
<path d="M443.3 357.7H265.3L276.8 202.1H431.8L443.3 357.7ZM274.6 349H434L423.8 210.7H284.8L274.6 349Z" fill="white"/>
<path d="M390 241.5H381.3V195.6C381.3 181 369.4 169 354.7 169C340.1 169 328.1 180.9 328.1 195.6V241.5H319.4V195.6C319.4 176.2 335.2 160.4 354.6 160.4C374 160.4 389.8 176.2 389.8 195.6V241.5H390Z" fill="white"/>
<path d="M209.7 285C209.7 281.4 212.6 278.5 216.2 278.5C219.8 278.5 222.7 281.4 222.7 285C222.7 288.6 219.8 291.5 216.2 291.5C212.6 291.5 209.7 288.6 209.7 285ZM188 285C188 281.4 190.9 278.5 194.5 278.5C198.1 278.5 201 281.4 201 285C201 288.6 198.1 291.5 194.5 291.5C190.9 291.5 188 288.6 188 285ZM166.4 285C166.4 281.4 169.3 278.5 172.9 278.5C176.5 278.5 179.4 281.4 179.4 285C179.4 288.6 176.5 291.5 172.9 291.5C169.3 291.5 166.4 288.6 166.4 285ZM144.8 285C144.8 281.4 147.7 278.5 151.3 278.5C154.9 278.5 157.8 281.4 157.8 285C157.8 288.6 154.9 291.5 151.3 291.5C147.7 291.5 144.8 288.6 144.8 285ZM123.1 285C123.1 281.4 126 278.5 129.6 278.5C133.2 278.5 136.1 281.4 136.1 285C136.1 288.6 133.2 291.5 129.6 291.5C126 291.5 123.1 288.6 123.1 285ZM101.5 285C101.5 281.4 104.4 278.5 108 278.5C111.6 278.5 114.5 281.4 114.5 285C114.5 288.6 111.6 291.5 108 291.5C104.4 291.5 101.5 288.6 101.5 285ZM79.8 285C79.8 281.4 82.7 278.5 86.3 278.5C89.9 278.5 92.8 281.4 92.8 285C92.8 288.6 89.9 291.5 86.3 291.5C82.7 291.5 79.8 288.6 79.8 285ZM58.2 285C58.2 281.4 61.1 278.5 64.7 278.5C68.3 278.5 71.2 281.4 71.2 285C71.2 288.6 68.3 291.5 64.7 291.5C61.1 291.5 58.2 288.6 58.2 285ZM36.5 285C36.5 281.4 39.4 278.5 43 278.5C46.6 278.5 49.5 281.4 49.5 285C49.5 288.6 46.6 291.5 43 291.5C39.4 291.5 36.5 288.6 36.5 285Z" fill="white"/>
</svg>
