<svg width="442" height="306" viewBox="0 0 442 306" fill="none" xmlns="http://www.w3.org/2000/svg">
<path d="M441.3 305.1H0.699997L56.3 104.1H102.4V112.7H62.8L12 296.5H430L379.2 112.7H202V104.1H385.7L441.3 305.1Z" fill="white"/>
<path d="M391.8 275.8H50.2L84.2 121.9H111.9V130.5H91.1L60.9 267.2H381.1L350.9 130.5H194.5V121.9H357.8L391.8 275.8Z" fill="white"/>
<path d="M152.2 164.5L149.1 161.1C148.6 160.5 136.2 147.2 123.7 127.6C106.7 100.9 98.1 76.5 98.1 55C98.1 25.2 122.4 0.899994 152.2 0.899994C182 0.899994 206.3 25.2 206.3 55C206.3 76.5 197.7 100.9 180.7 127.6C168.2 147.3 155.8 160.6 155.3 161.1L152.2 164.5ZM152.2 9.49999C127.1 9.49999 106.7 29.9 106.7 55C106.7 95.4 141.4 139.1 152.2 151.7C163 139.1 197.7 95.4 197.7 55C197.7 29.9 177.3 9.49999 152.2 9.49999Z" fill="white"/>
<path d="M152.2 85.8C136.5 85.8 123.8 73.1 123.8 57.4C123.8 41.7 136.5 29 152.2 29C167.9 29 180.6 41.7 180.6 57.4C180.6 73.1 167.9 85.8 152.2 85.8ZM152.2 37.5C141.3 37.5 132.4 46.4 132.4 57.3C132.4 68.2 141.3 77.1 152.2 77.1C163.1 77.1 172 68.2 172 57.3C172 46.4 163.1 37.5 152.2 37.5Z" fill="white"/>
<path d="M130.1 242.4C118.4 242.4 109.2 235.7 109.2 227C109.2 218.3 118.4 211.6 130.1 211.6C141.8 211.6 151 218.3 151 227C151 235.7 141.8 242.4 130.1 242.4ZM130.1 220.3C124.3 220.3 117.8 223.2 117.8 227.1C117.8 231 124.3 233.9 130.1 233.9C135.9 233.9 142.4 231 142.4 227.1C142.4 223.2 135.9 220.3 130.1 220.3Z" fill="white"/>
<path d="M253 237.2C241.3 237.2 232.1 230.5 232.1 221.8C232.1 213.2 241.3 206.4 253 206.4C264.7 206.4 273.9 213.1 273.9 221.8C273.9 230.4 264.7 237.2 253 237.2ZM253 215C247.2 215 240.7 217.9 240.7 221.8C240.7 225.7 247.2 228.6 253 228.6C258.8 228.6 265.3 225.7 265.3 221.8C265.3 217.9 258.8 215 253 215Z" fill="white"/>
<path d="M311.1 181C299.4 181 290.2 174.3 290.2 165.6C290.2 157 299.4 150.2 311.1 150.2C322.8 150.2 332 156.9 332 165.6C332 174.3 322.9 181 311.1 181ZM311.1 158.9C305.3 158.9 298.8 161.8 298.8 165.7C298.8 169.6 305.3 172.5 311.1 172.5C316.9 172.5 323.4 169.6 323.4 165.7C323.4 161.8 316.9 158.9 311.1 158.9Z" fill="white"/>
<path d="M123.6 200.4C123.6 196.8 126.5 194 130 194C133.6 194 136.4 196.9 136.4 200.4C136.4 204 133.5 206.8 130 206.8C126.5 206.9 123.6 204 123.6 200.4ZM127.7 183.1C127.7 179.5 130.6 176.7 134.1 176.7C137.7 176.7 140.5 179.6 140.5 183.1C140.5 186.7 137.6 189.5 134.1 189.5C130.6 189.5 127.7 186.6 127.7 183.1ZM145.8 179.6C145.8 176 148.7 173.2 152.2 173.2C155.8 173.2 158.6 176.1 158.6 179.6C158.6 183.2 155.7 186 152.2 186C148.7 186.1 145.8 183.2 145.8 179.6ZM145.8 158.2C145.8 154.6 148.7 151.8 152.2 151.8C155.8 151.8 158.6 154.7 158.6 158.2C158.6 161.8 155.7 164.6 152.2 164.6C148.7 164.6 145.8 161.7 145.8 158.2Z" fill="white"/>
<path d="M210.7 221.8C210.7 218.2 213.6 215.4 217.1 215.4C220.7 215.4 223.5 218.3 223.5 221.8C223.5 225.4 220.6 228.2 217.1 228.2C213.6 228.2 210.7 225.4 210.7 221.8ZM195.6 215.5C195.6 211.9 198.5 209.1 202 209.1C205.6 209.1 208.4 212 208.4 215.5C208.4 219.1 205.5 221.9 202 221.9C198.5 221.9 195.6 219 195.6 215.5ZM195.6 194C195.6 190.4 198.5 187.6 202 187.6C205.6 187.6 208.4 190.5 208.4 194C208.4 197.6 205.5 200.4 202 200.4C198.5 200.4 195.6 197.5 195.6 194ZM184.9 185.7C181.9 183.8 180.9 179.9 182.8 176.8C184.7 173.8 188.6 172.8 191.7 174.7C194.7 176.6 195.7 180.5 193.8 183.6C192.6 185.6 190.5 186.7 188.3 186.7C187.2 186.7 186 186.4 184.9 185.7ZM166.6 174.5C163.6 172.6 162.6 168.7 164.5 165.6C166.4 162.6 170.3 161.6 173.4 163.5C176.4 165.4 177.4 169.3 175.5 172.4C174.3 174.4 172.2 175.5 170 175.5C168.8 175.5 167.7 175.2 166.6 174.5Z" fill="white"/>
<path d="M270.2 165.7C270.2 162.1 273.1 159.3 276.6 159.3C280.2 159.3 283 162.2 283 165.7C283 169.3 280.1 172.1 276.6 172.1C273.1 172.1 270.2 169.2 270.2 165.7ZM248.8 165.7C248.8 162.1 251.7 159.3 255.2 159.3C258.8 159.3 261.6 162.2 261.6 165.7C261.6 169.3 258.7 172.1 255.2 172.1C251.6 172.1 248.8 169.2 248.8 165.7ZM233.1 171.4C229.6 171 227 167.8 227.4 164.3C227.8 160.8 231 158.2 234.5 158.6C238 159 240.6 162.2 240.2 165.7C239.8 169 237.1 171.4 233.8 171.4C233.5 171.4 233.3 171.4 233.1 171.4ZM211.7 169.1C208.2 168.7 205.6 165.5 206 162C206.4 158.5 209.6 155.9 213.1 156.3C216.6 156.7 219.2 159.9 218.8 163.4C218.4 166.7 215.6 169.1 212.4 169.1C212.2 169.1 212 169.1 211.7 169.1ZM190.4 166.7C186.9 166.3 184.3 163.1 184.7 159.6C185.1 156.1 188.3 153.5 191.8 153.9C195.3 154.3 197.9 157.5 197.5 161C197.1 164.3 194.3 166.7 191.1 166.7C190.9 166.8 190.6 166.8 190.4 166.7Z" fill="white"/>
</svg>
