<svg width="500" height="500" viewBox="0 0 500 500" fill="none" xmlns="http://www.w3.org/2000/svg">
<rect width="500" height="500" fill="white"/>
<path d="M144.136 329H126.136L158.909 235.909H179.727L212.545 329H194.545L169.682 255H168.955L144.136 329ZM144.727 292.5H193.818V306.045H144.727V292.5ZM224.807 329V235.909H259.716C266.867 235.909 272.867 237.242 277.716 239.909C282.595 242.576 286.277 246.242 288.761 250.909C291.277 255.545 292.534 260.818 292.534 266.727C292.534 272.697 291.277 278 288.761 282.636C286.246 287.273 282.534 290.924 277.625 293.591C272.716 296.227 266.67 297.545 259.489 297.545H236.352V283.682H257.216C261.398 283.682 264.822 282.955 267.489 281.5C270.155 280.045 272.125 278.045 273.398 275.5C274.701 272.955 275.352 270.03 275.352 266.727C275.352 263.424 274.701 260.515 273.398 258C272.125 255.485 270.14 253.53 267.443 252.136C264.777 250.712 261.337 250 257.125 250H241.67V329H224.807ZM324.045 235.909V329H307.182V235.909H324.045Z" fill="white"/>
<path fill-rule="evenodd" clip-rule="evenodd" d="M296.615 439.049C296.615 423.059 283.67 410.097 267.702 410.097H232.298C224.63 410.097 217.276 413.147 211.853 418.577C206.431 424.006 203.385 431.37 203.385 439.049C203.385 455.038 216.33 468 232.298 468H267.702C283.67 468 296.615 455.038 296.615 439.049ZM79.7828 364.395C84.6121 364.764 90.4548 364.977 96.3236 364.632C99.4503 380.509 107.218 395.235 118.812 406.846C134.204 422.258 155.08 430.917 176.847 430.917H187.879C187.393 433.582 187.143 436.303 187.143 439.049C187.143 441.825 187.393 444.544 187.872 447.18H176.847C150.772 447.18 125.764 436.809 107.327 418.346C92.6177 403.617 83.0502 384.701 79.7828 364.395ZM71.5209 347.089C58.6977 344.924 46.7651 338.82 37.4502 329.491C25.6367 317.662 19 301.618 19 284.889V246.449C19 229.72 25.6367 213.676 37.4502 201.846C49.2637 190.017 65.2866 183.371 81.9935 183.371H86.1867C92.8893 98.6575 163.671 32 250 32C336.329 32 407.111 98.6575 413.813 183.371H418.006C434.713 183.371 450.736 190.017 462.55 201.846C474.363 213.676 481 229.72 481 246.449V284.889C481 301.618 474.363 317.662 462.55 329.491C450.736 341.322 434.713 347.967 418.006 347.967H399.417C391.708 347.967 385.458 341.708 385.458 333.989V196.552C385.458 121.641 324.812 60.9135 250 60.9135C175.188 60.9135 114.542 121.641 114.542 196.552V333.989C114.542 339.44 111.426 344.162 106.88 346.467C94.3665 350.815 74.9598 347.67 71.5209 347.089Z" fill="#674AFE"/>
</svg>
