<svg width="500" height="500" viewBox="0 0 500 500" fill="none" xmlns="http://www.w3.org/2000/svg">
<rect width="500" height="500" fill="white"/>
<path d="M170.667 221.867H197.974L204.988 218.342C207.651 217.015 210.449 215.977 213.334 215.245V196.267H170.667V221.867Z" fill="#674AFE"/>
<path d="M256.913 454.247C254.684 452.468 251.915 451.502 249.063 451.507C247.115 451.504 245.193 451.942 243.439 452.787C241.685 453.633 240.145 454.864 238.934 456.388L224.811 474.18C222.712 476.857 221.762 480.257 222.17 483.634C222.578 487.01 224.311 490.087 226.987 492.186C229.663 494.285 233.064 495.235 236.44 494.827C239.817 494.419 242.893 492.686 244.992 490.01L259.038 472.209C261.136 469.544 262.09 466.156 261.692 462.788C261.293 459.42 259.575 456.348 256.913 454.247Z" fill="#674AFE"/>
<path d="M216.055 93.5936L251.605 72.2603C252.932 71.4629 254.451 71.0416 256 71.0416C257.548 71.0416 259.067 71.4629 260.394 72.2603L295.944 93.5936C296.215 93.7631 296.529 93.853 296.849 93.853C297.169 93.853 297.482 93.7631 297.753 93.5936C298.034 93.4463 298.268 93.2238 298.429 92.951C298.59 92.6782 298.673 92.3659 298.666 92.0491V17.0667H213.333V92.0491C213.322 92.3702 213.402 92.6879 213.563 92.9657C213.725 93.2434 213.962 93.47 214.246 93.6192C214.52 93.7849 214.834 93.8704 215.154 93.8658C215.474 93.8613 215.786 93.767 216.055 93.5936Z" fill="#674AFE"/>
<path d="M153.6 17.0667C149.074 17.0667 144.733 18.8647 141.532 22.0654C138.331 25.266 136.533 29.607 136.533 34.1333V238.933C136.542 241.935 137.349 244.88 138.871 247.467H145.067C146.34 247.473 147.596 247.18 148.736 246.613L165.683 238.08C162.204 237.018 159.155 234.872 156.982 231.956C154.808 229.039 153.623 225.504 153.6 221.867V196.267C153.6 191.74 155.398 187.399 158.599 184.199C161.799 180.998 166.14 179.2 170.667 179.2H213.333C217.86 179.2 222.201 180.998 225.401 184.199C228.602 187.399 230.4 191.74 230.4 196.267V213.769C236.993 214.382 243.386 216.361 249.173 219.58C256.292 215.502 264.35 213.349 272.555 213.333C279.879 213.319 287.102 215.051 293.623 218.385L349.687 246.545C350.856 247.125 352.146 247.417 353.451 247.398H373.128C374.64 244.832 375.446 241.912 375.467 238.933V34.1333C375.467 29.607 373.668 25.266 370.468 22.0654C367.267 18.8647 362.926 17.0667 358.4 17.0667H315.733V92.0491C315.74 95.3914 314.858 98.6755 313.179 101.565C311.5 104.455 309.083 106.847 306.176 108.496C303.269 110.146 299.976 110.993 296.634 110.952C293.292 110.911 290.021 109.983 287.155 108.262L256 89.5317L224.845 108.228C221.982 109.947 218.714 110.875 215.374 110.918C212.035 110.96 208.745 110.116 205.839 108.471C202.932 106.825 200.515 104.438 198.833 101.553C197.152 98.6682 196.266 95.3885 196.267 92.0491V17.0667H153.6Z" fill="#674AFE"/>
<path d="M59.7334 358.733C80.1586 360.738 100.145 365.921 118.972 374.093L130.364 359.671C135.306 353.478 142.494 349.489 150.364 348.571C158.234 347.654 166.148 349.883 172.382 354.773C177.25 358.663 180.769 363.986 182.443 369.988C184.616 369.18 186.875 368.625 189.176 368.333C197.043 367.422 204.951 369.675 211.158 374.594C217.366 379.513 221.365 386.697 222.276 394.564C222.512 396.835 222.492 399.125 222.217 401.391C228.423 401.631 234.395 403.822 239.283 407.654C243.268 410.827 246.378 414.964 248.32 419.673C250.261 424.383 250.969 429.509 250.377 434.568C256.645 434.787 262.68 437.005 267.597 440.9C272.773 445.034 276.428 450.772 277.987 457.211C279.546 463.649 278.92 470.423 276.207 476.467C286.387 485.188 292.361 490.701 292.651 490.974C295.069 493.435 298.363 494.838 301.813 494.875C305.263 494.911 308.587 493.579 311.057 491.17C313.457 488.77 314.805 485.515 314.805 482.12C314.805 478.726 313.457 475.471 311.057 473.071C309.456 471.471 308.556 469.3 308.555 467.037C308.554 464.773 309.453 462.602 311.053 461C312.653 459.399 314.824 458.499 317.087 458.498C319.351 458.498 321.522 459.396 323.123 460.996C324.309 462.193 325.721 463.143 327.276 463.791C328.832 464.438 330.501 464.77 332.186 464.768C334.701 464.746 337.154 463.983 339.238 462.575C341.322 461.167 342.945 459.176 343.905 456.851C344.864 454.526 345.118 451.97 344.633 449.502C344.148 447.034 342.947 444.763 341.18 442.974C339.614 441.374 338.739 439.222 338.745 436.983C338.751 434.744 339.636 432.598 341.21 431.005C342.785 429.413 344.921 428.504 347.16 428.473C349.399 428.442 351.56 429.292 353.178 430.839C355.606 433.229 358.876 434.569 362.283 434.569C365.69 434.569 368.96 433.229 371.388 430.839C372.577 429.651 373.521 428.239 374.165 426.686C374.808 425.132 375.14 423.467 375.14 421.786C375.14 420.104 374.808 418.439 374.165 416.885C373.521 415.332 372.577 413.92 371.388 412.732C369.788 411.131 368.889 408.961 368.889 406.699C368.889 404.436 369.788 402.266 371.388 400.666C372.988 399.066 375.158 398.167 377.421 398.167C379.684 398.167 381.854 399.066 383.454 400.666C385.862 403.068 389.124 404.417 392.525 404.417C395.926 404.417 399.188 403.068 401.596 400.666C402.878 399.358 403.885 397.805 404.555 396.1C405.225 394.395 405.545 392.573 405.496 390.741C405.473 389.274 405.149 387.827 404.544 386.49C403.939 385.153 403.066 383.954 401.98 382.967C371.985 356.557 274.611 284.587 273.63 283.861L230.656 324.113C225.02 329.554 217.497 332.602 209.663 332.616C201.829 332.63 194.294 329.609 188.639 324.188C182.984 318.767 179.648 311.367 179.331 303.539C179.015 295.712 181.741 288.066 186.94 282.206L234.726 231.859C227.447 229.601 219.58 230.212 212.736 233.566L156.501 261.854C152.956 263.641 149.037 264.56 145.067 264.533H59.7334V358.733Z" fill="#674AFE"/>
<path d="M161.784 368.145C159.528 366.365 156.738 365.4 153.865 365.406C151.918 365.404 149.997 365.841 148.243 366.684C146.489 367.528 144.949 368.757 143.736 370.278L124.382 394.743C123.336 396.062 122.56 397.574 122.098 399.193C121.636 400.812 121.498 402.506 121.691 404.179C121.884 405.851 122.404 407.469 123.223 408.94C124.041 410.411 125.141 411.707 126.46 412.753C127.779 413.799 129.291 414.575 130.91 415.037C132.529 415.499 134.223 415.637 135.895 415.444C137.567 415.251 139.185 414.731 140.656 413.912C142.128 413.094 143.423 411.994 144.469 410.675L163.891 386.133C165.979 383.461 166.929 380.074 166.534 376.706C166.14 373.338 164.433 370.262 161.784 368.145Z" fill="#674AFE"/>
<path d="M228.693 421.043C226.451 419.28 223.679 418.324 220.826 418.33C218.916 418.328 217.029 418.752 215.303 419.572C213.578 420.391 212.057 421.584 210.85 423.066L191.283 447.744C189.177 450.413 188.218 453.81 188.617 457.187C189.015 460.563 190.739 463.643 193.408 465.749C196.078 467.855 199.474 468.814 202.851 468.416C206.228 468.018 209.308 466.294 211.413 463.625L230.818 439.032C231.861 437.711 232.633 436.198 233.091 434.58C233.548 432.961 233.682 431.268 233.485 429.597C233.287 427.926 232.763 426.311 231.94 424.843C231.118 423.375 230.015 422.084 228.693 421.043Z" fill="#674AFE"/>
<path d="M200.533 387.959C197.859 385.891 194.482 384.951 191.123 385.34C187.765 385.729 184.692 387.416 182.562 390.041L157.866 421.291C156.818 422.598 156.041 424.102 155.582 425.714C155.123 427.326 154.992 429.014 155.196 430.677C155.49 433.189 156.521 435.557 158.159 437.483C159.798 439.408 161.97 440.806 164.401 441.499C166.833 442.192 169.416 442.149 171.823 441.375C174.23 440.602 176.355 439.133 177.928 437.154L202.675 405.914C204.748 403.24 205.686 399.857 205.285 396.497C204.885 393.137 203.177 390.07 200.533 387.959Z" fill="#674AFE"/>
<path d="M452.267 358.639V264.533H353.451C349.447 264.55 345.497 263.608 341.931 261.785L285.875 233.625C280.126 230.858 273.655 229.959 267.37 231.057C261.084 232.154 255.3 235.192 250.829 239.744L199.475 293.828C198.327 295.221 197.468 296.829 196.949 298.559C196.43 300.288 196.261 302.103 196.453 303.899C196.644 305.694 197.192 307.433 198.064 309.014C198.936 310.595 200.115 311.986 201.532 313.105C204.075 315.006 207.216 315.93 210.383 315.709C213.55 315.488 216.532 314.137 218.786 311.902L262.221 271.539C265.084 268.879 268.772 267.283 272.671 267.016C276.569 266.748 280.441 267.827 283.64 270.071C287.633 273.015 375.236 337.775 409.208 366.754C423.098 362.001 437.599 359.268 452.267 358.639Z" fill="#674AFE"/>
</svg>
