<svg width="500" height="500" viewBox="0 0 500 500" fill="none" xmlns="http://www.w3.org/2000/svg">
<rect width="500" height="500" fill="white"/>
<path d="M410.667 384C403.702 384.043 403.691 394.635 410.667 394.667H416.001C416.15 390.421 416.598 384.096 410.667 384Z" fill="#674AFE"/>
<path d="M85.334 138.667C123.937 110.347 110.881 110.549 149.334 138.667V21.3333H85.334V138.667Z" fill="#674AFE"/>
<path d="M489.92 361.6C484.811 314.667 441.867 276.864 394.667 277.333H373.334C321.856 277.003 277.024 319.968 277.334 373.333V394.667C276.608 446.293 321.846 491.488 373.334 490.667H394.667C447.574 490.667 490.667 447.573 490.667 394.667C490.23 386.592 491.328 369.429 489.92 361.6ZM382.187 399.467C389.878 410.944 372.224 422.891 364.48 411.2L354.027 395.52L352 398.187V405.333C351.744 419.328 330.934 419.36 330.667 405.333V352C330.763 338.08 351.904 338.048 352 352V362.667L364.8 345.6C373.227 334.517 390.166 347.178 381.867 358.4L367.574 377.493L382.187 399.467ZM437.334 407.787C438.016 430.912 411.776 446.667 391.254 436.8C376.086 429.781 386.795 409.984 401.92 417.813C405.43 419.072 409.28 418.347 412.054 416H410.667C395.947 416 384 404.053 384 389.333C384.896 354.176 436.438 354.165 437.334 389.333V407.787Z" fill="#674AFE"/>
<path d="M362.667 256C373.6 256.736 393.376 255.125 405.334 256.533C405.43 228.16 363.264 227.637 362.667 256Z" fill="#674AFE"/>
<path d="M53.334 426.667H260.587C255.286 410.933 255.905 390.069 256.001 373.333C256.001 319.68 292.161 274.347 341.334 260.48C338.177 201.205 424.171 196.693 426.667 256V53.3333C426.667 35.7333 412.267 21.3333 394.667 21.3333H170.667V160C170.667 164.053 168.427 167.787 164.801 169.493C161.195 171.435 156.907 170.912 153.601 168.533L117.334 141.333L81.0673 168.533C74.5073 173.813 63.6593 168.576 64.0007 160V21.3333H53.334C35.734 21.3333 21.334 35.7333 21.334 53.3333V394.667C21.334 412.267 35.734 426.667 53.334 426.667ZM74.6673 320H138.667C152.662 320.267 152.694 341.067 138.667 341.333H74.6673C60.6727 341.067 60.6407 320.267 74.6673 320ZM74.6673 362.667H202.667C208.534 362.667 213.334 367.467 213.334 373.333C213.334 379.2 208.534 384 202.667 384H74.6673C60.694 383.744 60.6193 362.933 74.6673 362.667Z" fill="#674AFE"/>
</svg>
