<svg width="500" height="500" viewBox="0 0 500 500" fill="none" xmlns="http://www.w3.org/2000/svg">
<rect width="500" height="500" fill="white"/>
<path d="M419.168 347.82H414.332V318.638C414.332 291.829 392.66 270 366 270C339.34 270 317.668 291.829 317.668 318.638V347.82H312.832C294.176 347.82 279 363.091 279 381.864V449.956C279 468.729 294.176 484 312.832 484H419.168C437.824 484 453 468.729 453 449.956V381.864C453 363.091 437.824 347.82 419.168 347.82ZM346.668 318.638C346.668 307.916 355.327 299.182 366 299.182C376.673 299.182 385.332 307.916 385.332 318.638V347.82H346.668V318.638Z" fill="#674AFE"/>
<path d="M248.782 380.921C248.782 354.718 264.734 332.226 287.408 322.694V317.843C287.408 278.362 316.993 246.029 355 241.196V70.3763C355 40.9321 331.191 17 301.893 17H99.1108C69.813 17 46 40.9321 46 70.3763V390.627C46 420.071 69.813 444 99.1108 444H248.782V380.921ZM118.422 269.318C110.427 269.318 103.938 262.796 103.938 254.761V206.239C103.938 198.204 110.427 191.682 118.422 191.682C126.418 191.682 132.907 198.204 132.907 206.239V254.761C132.907 262.796 126.418 269.318 118.422 269.318Z" fill="#674AFE"/>
</svg>
