<svg width="500" height="500" viewBox="0 0 500 500" fill="none" xmlns="http://www.w3.org/2000/svg">
<rect width="500" height="500" fill="white"/>
<path d="M144.136 329H126.136L158.909 235.909H179.727L212.545 329H194.545L169.682 255H168.955L144.136 329ZM144.727 292.5H193.818V306.045H144.727V292.5ZM224.807 329V235.909H259.716C266.867 235.909 272.867 237.242 277.716 239.909C282.595 242.576 286.277 246.242 288.761 250.909C291.277 255.545 292.534 260.818 292.534 266.727C292.534 272.697 291.277 278 288.761 282.636C286.246 287.273 282.534 290.924 277.625 293.591C272.716 296.227 266.67 297.545 259.489 297.545H236.352V283.682H257.216C261.398 283.682 264.822 282.955 267.489 281.5C270.155 280.045 272.125 278.045 273.398 275.5C274.701 272.955 275.352 270.03 275.352 266.727C275.352 263.424 274.701 260.515 273.398 258C272.125 255.485 270.14 253.53 267.443 252.136C264.777 250.712 261.337 250 257.125 250H241.67V329H224.807ZM324.045 235.909V329H307.182V235.909H324.045Z" fill="white"/>
<path d="M438.332 125.505H344.166V107.669C344.166 87.9976 327.274 72 306.499 72H193.5C172.726 72 155.833 87.9968 155.833 107.669V125.504H61.6669C40.8926 125.505 24 141.501 24 161.173V214.677C24 234.35 40.8926 250.347 61.6669 250.347H212.334V241.429C212.334 236.5 216.545 232.511 221.751 232.511H278.25C283.455 232.511 287.667 236.5 287.667 241.429V250.347H438.334C459.107 250.347 475.999 234.35 475.999 214.677V161.173C475.999 141.501 459.107 125.505 438.332 125.505ZM306.499 125.505H193.5V107.669H306.499V125.505Z" fill="#674AFE"/>
<path d="M470.776 259.969C467.567 258.462 463.732 258.811 460.899 260.848C454.204 265.647 446.406 268.181 438.331 268.181H287.666V294.933C287.666 299.862 283.455 303.85 278.25 303.85H221.75C216.545 303.85 212.333 299.862 212.333 294.933V268.181H61.6669C53.5927 268.181 45.7948 265.647 39.0996 260.848C36.2578 258.793 32.4326 258.445 29.2227 259.969C26.0234 261.476 24 264.567 24 267.955V393.024C24 412.695 40.8926 428.693 61.6669 428.693H438.333C459.107 428.693 476 412.696 476 393.024V267.955C475.999 264.567 473.976 261.476 470.776 259.969Z" fill="#674AFE"/>
</svg>
