<svg width="500" height="500" viewBox="0 0 500 500" fill="none" xmlns="http://www.w3.org/2000/svg">
<rect width="500" height="500" fill="white"/>
<path d="M144.136 329H126.136L158.909 235.909H179.727L212.545 329H194.545L169.682 255H168.955L144.136 329ZM144.727 292.5H193.818V306.045H144.727V292.5ZM224.807 329V235.909H259.716C266.867 235.909 272.867 237.242 277.716 239.909C282.595 242.576 286.277 246.242 288.761 250.909C291.277 255.545 292.534 260.818 292.534 266.727C292.534 272.697 291.277 278 288.761 282.636C286.246 287.273 282.534 290.924 277.625 293.591C272.716 296.227 266.67 297.545 259.489 297.545H236.352V283.682H257.216C261.398 283.682 264.822 282.955 267.489 281.5C270.155 280.045 272.125 278.045 273.398 275.5C274.701 272.955 275.352 270.03 275.352 266.727C275.352 263.424 274.701 260.515 273.398 258C272.125 255.485 270.14 253.53 267.443 252.136C264.777 250.712 261.337 250 257.125 250H241.67V329H224.807ZM324.045 235.909V329H307.182V235.909H324.045Z" fill="white"/>
<path d="M449.999 321.882C449.999 271.161 421.542 225.895 378.922 203.877C377.599 301.126 300.489 379.97 205.38 381.324C226.914 424.903 271.184 454 320.788 454C344.045 454 366.662 447.667 386.534 435.633L449.435 453.423L432.036 389.107C443.805 368.788 449.999 345.662 449.999 321.882Z" fill="#674AFE"/>
<path d="M355.512 201.193C355.512 115.066 286.987 45 202.756 45C118.525 45 50 115.066 50 201.193C50 229.262 57.3069 256.591 71.1822 280.585L50.5616 356.808L125.111 335.727C148.577 349.914 175.305 357.386 202.756 357.386C286.987 357.386 355.512 287.319 355.512 201.193ZM179.315 164.841H155.874C155.874 138.407 176.904 116.905 202.756 116.905C228.608 116.905 249.638 138.407 249.638 164.841C249.638 178.258 244.083 191.153 234.392 200.216L214.476 218.854V237.545H191.036V208.299L218.566 182.533C223.486 177.93 226.197 171.648 226.197 164.841C226.197 151.624 215.682 140.873 202.756 140.873C189.83 140.873 179.315 151.624 179.315 164.841ZM191.036 261.513H214.476V285.481H191.036V261.513Z" fill="#674AFE"/>
</svg>
