<svg width="500" height="500" viewBox="0 0 500 500" fill="none" xmlns="http://www.w3.org/2000/svg">
<rect width="500" height="500" fill="white"/>
<path d="M115.333 303.333C96.1333 303.333 76.9333 309.733 62 322.533C42.8 337.467 30 360.933 30 388.667C30 435.6 68.4 474 115.333 474C136.667 474 155.867 465.467 170.8 452.667C190 437.734 200.667 414.267 200.667 388.667C200.667 341.733 162.267 303.333 115.333 303.333ZM136.667 395.067C136.667 401.467 134.533 405.733 128.133 407.867L100.4 424.934C98.2667 427.067 94 427.067 91.8667 427.067C85.4667 427.067 81.2 424.933 79.0667 418.533C74.8 410 76.9333 401.467 85.4667 397.2L104.667 386.533V363.067C104.667 354.533 111.067 346 119.6 346C128.133 346 136.667 352.4 136.667 363.067V395.067Z" fill="#674AFE"/>
<path d="M326.533 68.6667V149.733H294.533V68.6667C294.533 62.2667 290.267 60.1333 286 60.1333C283.867 60.1333 283.867 60.1333 283.867 60.1333L115.333 124.133C100.4 128.4 94 139.067 94 149.733V164.667C74.8 179.6 62 203.067 62 228.667V149.733C62 124.133 76.9333 100.667 100.4 92.1333L268.933 28.1333C273.2 26 277.467 26 283.867 26C305.2 28.1333 326.533 45.2 326.533 68.6667Z" fill="#674AFE"/>
<path d="M467.334 292.667V314C467.334 320.4 463.067 324.667 456.667 324.667H424.667C414.001 324.667 403.334 316.133 403.334 305.467C403.334 299.067 405.467 292.667 409.734 288.4C414.001 284.133 418.267 282 424.667 282H456.667C463.067 282 467.334 286.267 467.334 292.667Z" fill="#674AFE"/>
<path d="M424.667 258.533H446C456.667 258.533 467.333 250 467.333 237.2V228.667C467.333 183.867 431.067 147.6 386.267 147.6H143.067C123.867 149.733 106.8 154 94 164.667C74.8 179.6 62 203.067 62 228.667V267.067C62 275.6 70.5333 279.867 79.0667 277.733C91.8667 273.467 102.533 271.333 115.333 271.333C179.333 271.333 232.667 324.667 232.667 388.667C232.667 403.6 228.4 420.667 222 435.6C217.733 444.133 224.133 452.667 232.667 452.667H388.4C433.2 452.667 469.467 416.4 469.467 371.6V367.333C469.467 356.667 458.8 346 448.133 346H428.933C407.6 346 388.4 333.2 384.133 314C379.867 296.933 384.133 282 394.8 271.333C401.2 264.933 411.867 258.533 424.667 258.533ZM307.333 256.4H200.667C192.133 256.4 183.6 250 183.6 239.333C183.6 228.667 190 222.267 200.667 222.267H307.333C315.867 222.267 324.4 228.667 324.4 239.333C324.4 250 315.867 256.4 307.333 256.4Z" fill="#674AFE"/>
</svg>
