<svg width="500" height="500" viewBox="0 0 500 500" fill="none" xmlns="http://www.w3.org/2000/svg">
<rect width="500" height="500" fill="white"/>
<path d="M144.136 329H126.136L158.909 235.909H179.727L212.545 329H194.545L169.682 255H168.955L144.136 329ZM144.727 292.5H193.818V306.045H144.727V292.5ZM224.807 329V235.909H259.716C266.867 235.909 272.867 237.242 277.716 239.909C282.595 242.576 286.277 246.242 288.761 250.909C291.277 255.545 292.534 260.818 292.534 266.727C292.534 272.697 291.277 278 288.761 282.636C286.246 287.273 282.534 290.924 277.625 293.591C272.716 296.227 266.67 297.545 259.489 297.545H236.352V283.682H257.216C261.398 283.682 264.822 282.955 267.489 281.5C270.155 280.045 272.125 278.045 273.398 275.5C274.701 272.955 275.352 270.03 275.352 266.727C275.352 263.424 274.701 260.515 273.398 258C272.125 255.485 270.14 253.53 267.443 252.136C264.777 250.712 261.337 250 257.125 250H241.67V329H224.807ZM324.045 235.909V329H307.182V235.909H324.045Z" fill="white"/>
<path d="M300.931 107.625L64.8888 343.684C63.7013 344.875 62.8438 346.379 62.4355 347.996L36.2725 453.008C35.4899 456.169 36.4188 459.531 38.7258 461.838C40.4714 463.584 42.8498 464.55 45.2827 464.55C46.0279 464.55 46.7901 464.458 47.5319 464.271L152.545 438.105C154.181 437.696 155.668 436.842 156.856 435.655L392.918 199.613L300.931 107.625Z" fill="#674AFE"/>
<path d="M451.396 75.4397L425.121 49.1644C407.56 31.6033 376.953 31.6204 359.412 49.1644L327.227 81.3502L419.211 173.334L451.396 141.148C460.168 132.38 465 120.709 465 108.296C465 95.8829 460.168 84.2118 451.396 75.4397Z" fill="#674AFE"/>
</svg>
