<svg width="500" height="500" viewBox="0 0 500 500" fill="none" xmlns="http://www.w3.org/2000/svg">
<rect width="500" height="500" fill="white"/>
<g clip-path="url(#clip0_11_268)">
<path d="M75.9362 125.982C66.8413 127.973 57.7331 128.101 48.6113 126.368C53.3627 157.799 80.5531 181.977 113.293 181.977H114.368C114.198 172.985 114.951 163.975 116.619 155.082C97.9565 155.956 80.6095 144.507 75.9362 125.982Z" fill="#674AFE"/>
<path d="M386.631 181.977H387.707C420.446 181.977 447.637 157.799 452.388 126.368C443.266 128.101 434.158 127.973 425.063 125.982C420.39 144.507 403.043 155.956 384.381 155.082C386.048 163.975 386.801 172.985 386.631 181.977Z" fill="#674AFE"/>
<path d="M113.293 317.023C80.5531 317.023 53.3627 341.201 48.6113 372.632C57.7331 370.899 66.8413 371.027 75.9362 373.018C80.1496 356.316 95.3002 343.918 113.293 343.918H179.381L166.338 317.023H113.293Z" fill="#674AFE"/>
<path d="M61.3418 479C83.622 479 101.684 460.938 101.684 438.658C101.684 416.378 83.622 398.316 61.3418 398.316C39.0616 398.316 21 416.378 21 438.658C21 460.938 39.0616 479 61.3418 479Z" fill="#674AFE"/>
<path d="M439.658 479C461.938 479 480 460.938 480 438.658C480 416.378 461.938 398.316 439.658 398.316C417.378 398.316 399.316 416.378 399.316 438.658C399.316 460.938 417.378 479 439.658 479Z" fill="#674AFE"/>
<path d="M425.064 373.018C434.158 371.027 443.267 370.899 452.388 372.632C447.637 341.201 420.447 317.023 387.707 317.023H334.662L321.618 343.918H387.707C405.699 343.918 420.85 356.316 425.064 373.018Z" fill="#674AFE"/>
<path d="M250.5 204.667C264.363 204.667 275.602 193.428 275.602 179.565C275.602 165.702 264.363 154.464 250.5 154.464C236.637 154.464 225.398 165.702 225.398 179.565C225.398 193.428 236.637 204.667 250.5 204.667Z" fill="#674AFE"/>
<path d="M250.5 70.0955C172.972 70.0955 117.659 155.046 151.824 225.483L250.5 428.904L349.242 225.483C383.407 155.046 328.028 70.0955 250.5 70.0955ZM250.5 231.561C221.83 231.561 198.504 208.235 198.504 179.565C198.504 150.896 221.83 127.569 250.5 127.569C279.169 127.569 302.562 150.896 302.562 179.565C302.562 208.235 279.169 231.561 250.5 231.561Z" fill="#674AFE"/>
<path d="M61.3418 100.684C83.622 100.684 101.684 82.622 101.684 60.3418C101.684 38.0616 83.622 20 61.3418 20C39.0616 20 21 38.0616 21 60.3418C21 82.622 39.0616 100.684 61.3418 100.684Z" fill="#674AFE"/>
<path d="M439.658 100.684C461.938 100.684 480 82.622 480 60.3418C480 38.0616 461.938 20 439.658 20C417.378 20 399.316 38.0616 399.316 60.3418C399.316 82.622 417.378 100.684 439.658 100.684Z" fill="#674AFE"/>
</g>
<defs>
<clipPath id="clip0_11_268">
<rect width="459" height="459" fill="white" transform="translate(21 20)"/>
</clipPath>
</defs>
</svg>
