<svg width="500" height="500" viewBox="0 0 500 500" fill="none" xmlns="http://www.w3.org/2000/svg">
<rect width="500" height="500" fill="white"/>
<path fill-rule="evenodd" clip-rule="evenodd" d="M396.843 396.98C450.014 396.98 493 353.865 493 300.823C493 242.974 442.161 197.957 384.369 205.467C368.448 171.965 329.853 156.959 296.023 169.404C283.449 130.481 246.986 102.844 204.514 102.844C151.401 102.844 108.357 145.902 108.357 199.001C108.415 200.947 108.486 202.892 108.543 204.837C106.598 204.78 104.652 204.723 102.707 204.652C49.5931 204.652 6.5498 247.709 6.5498 300.809C6.5498 353.908 49.6074 396.966 102.707 396.966C104.123 396.98 395.484 396.98 396.843 396.98ZM126.181 310.622L113.35 345.397C112.12 348.759 108.4 350.475 105.039 349.245C101.677 348.015 99.9604 344.295 101.191 340.934L137.253 243.146C138.24 240.457 140.815 238.826 143.519 238.897C146.222 238.826 148.797 240.457 149.784 243.146L185.847 340.934C187.077 344.295 185.36 348.015 181.999 349.245C178.637 350.475 174.918 348.759 173.688 345.397L160.856 310.622H126.181ZM143.519 263.602L156.078 297.647H130.959L143.519 263.602ZM359.007 338.287V253.474H338.723C335.146 253.474 332.242 250.57 332.242 246.994C332.242 243.418 335.146 240.514 338.723 240.514H391.522C395.098 240.514 398.002 243.418 398.002 246.994C398.002 250.57 395.098 253.474 391.522 253.474H371.981V338.287H392.266C395.842 338.287 398.746 341.191 398.746 344.767C398.746 348.344 395.842 351.248 392.266 351.248C389.362 351.248 342.385 351.248 339.466 351.248C335.89 351.248 332.986 348.344 332.986 344.767C332.986 341.191 335.89 338.287 339.466 338.287H359.007ZM265.725 238.897C274.479 238.897 282.419 242.445 288.155 248.195C300.543 260.583 300.557 280.667 288.155 293.07C282.419 298.806 274.479 302.368 265.725 302.368H236.142V343.18C236.142 346.756 233.239 349.66 229.662 349.66C226.086 349.66 223.182 346.756 223.182 343.18C223.182 340.247 223.182 247.981 223.182 245.392C223.182 241.816 226.086 238.912 229.662 238.912C231.851 238.897 263.679 238.897 265.725 238.897ZM236.157 251.872H265.739C270.918 251.872 275.61 253.975 279 257.365C286.324 264.689 286.338 276.562 279 283.9C275.61 287.291 270.918 289.393 265.739 289.393H236.157V251.872Z" fill="#674AFE"/>
<rect x="94" y="228" width="307" height="128" fill="#674AFE"/>
<path d="M144.136 329H126.136L158.909 235.909H179.727L212.545 329H194.545L169.682 255H168.955L144.136 329ZM144.727 292.5H193.818V306.045H144.727V292.5ZM224.807 329V235.909H259.716C266.867 235.909 272.867 237.242 277.716 239.909C282.595 242.576 286.277 246.242 288.761 250.909C291.277 255.545 292.534 260.818 292.534 266.727C292.534 272.697 291.277 278 288.761 282.636C286.246 287.273 282.534 290.924 277.625 293.591C272.716 296.227 266.67 297.545 259.489 297.545H236.352V283.682H257.216C261.398 283.682 264.822 282.955 267.489 281.5C270.155 280.045 272.125 278.045 273.398 275.5C274.701 272.955 275.352 270.03 275.352 266.727C275.352 263.424 274.701 260.515 273.398 258C272.125 255.485 270.14 253.53 267.443 252.136C264.777 250.712 261.337 250 257.125 250H241.67V329H224.807ZM324.045 235.909V329H307.182V235.909H324.045Z" fill="white"/>
</svg>
