<?xml version="1.0" encoding="utf-8"?>
<!-- Generator: Adobe Illustrator 23.0.5, SVG Export Plug-In . SVG Version: 6.00 Build 0)  -->
<svg version="1.1" xmlns="http://www.w3.org/2000/svg" xmlns:xlink="http://www.w3.org/1999/xlink" x="0px" y="0px"
	 viewBox="0 0 500 500" style="enable-background:new 0 0 500 500;" xml:space="preserve">
<g id="BACKGROUND">
</g>
<g id="OBJECTS">
	<g>
		<g>
			<g>
				<path style="fill:#FD0047;" d="M175.35,243.73c-15.43-3.47-16.91-25.49-5.97-45.55c5.79-10.52,10.4-23.2,19.06-29.88
					c6.96-5.36,19.91-3.47,29.24-3.47c11.87,0,20.58-2.47,29.22,1.87c8.64,4.34,13.47,11.68,18.94,21.71
					c8.46,15.73,10.87,47.47-0.24,53.21c-16.2,8.37-32.09,0.48-48.99,3.19L175.35,243.73z"/>
			</g>
			<g style="opacity:0.3;">
				<g>
					<path style="fill:#505285;" d="M176.35,229.6c-2.58-2.69-2.9-8.48-1.18-11.97c1.18-2.42,4.87-6.59,6.26-4.3
						c1.72,3.23,1.37,14.93-1.21,18.03L176.35,229.6z M260.8,229.6c2.58-2.69,2.9-8.48,1.18-11.97c-1.18-2.42-4.87-6.59-6.26-4.3
						c-1.72,3.23-1.37,14.93,1.21,18.03L260.8,229.6z"/>
				</g>
			</g>
		</g>
		<ellipse style="opacity:0.3;fill:#ABB4FF;" cx="220.76" cy="434.98" rx="82.85" ry="12.19"/>
		<g>
			<g>
				<rect x="196.56" y="421.3" style="fill:#FFFFFF;" width="8.18" height="6.26"/>
				<g>
					<path style="fill:#806223;" d="M195.94,426.39c-1.11,1.6-2.61,1.46-6.53,3.71c-1.11,0.62-3.19,1.37-4.06,2.52
						c-1.47,1.97-0.99,4.59,2.18,5.89c4.41,1.8,5.54,0.74,11.71,0.74c2.68,0,8.82-2.65,8.66-5.74c-0.19-3.74-1.37-4.13-2.12-7.12
						H195.94z"/>
				</g>
			</g>
			<g style="opacity:0.3;">
				<path style="fill:#505285;" d="M200.38,436.96c-6.17,0-7.3,1.05-11.71-0.74c-2.24-0.92-3.12-2.49-2.93-4.03
					c-0.15,0.14-0.28,0.28-0.39,0.43c-1.47,1.97-0.99,4.59,2.18,5.89c4.41,1.8,5.54,0.74,11.71,0.74c2.63,0,8.59-2.56,8.65-5.58
					C206.01,435.59,202.31,436.96,200.38,436.96z"/>
			</g>
		</g>
		<g>
			<g>
				<rect x="236.3" y="418.96" style="fill:#FFFFFF;" width="8.18" height="6.26"/>
				<g>
					<path style="fill:#806223;" d="M245.1,425.19c1.11,1.6,4.95,3.8,8.88,6.04c1.11,0.62,3.19,1.37,4.06,2.52
						c1.47,1.97,0.99,4.59-2.18,5.89c-4.41,1.8-5.54,0.74-11.71,0.74c-2.68,0-11.16-4.99-11.01-8.08c0.19-3.74,1.38-4.13,2.12-7.12
						H245.1z"/>
				</g>
			</g>
			<g style="opacity:0.3;">
				<path style="fill:#505285;" d="M258.03,433.76c-0.11-0.15-0.25-0.29-0.39-0.43c0.19,1.54-0.69,3.12-2.93,4.03
					c-4.41,1.8-5.54,0.74-11.71,0.74c-2.05,0-7.47-2.91-9.85-5.67c0.08,3.1,8.35,7.95,10.99,7.95c6.17,0,7.3,1.05,11.71-0.74
					C259.03,438.35,259.5,435.73,258.03,433.76z"/>
			</g>
		</g>
		<g>
			<path style="fill:#505285;" d="M191.25,273.5c-4.37,32.89,0,36.89,0.85,74.31c0,10.91-0.22,63.67,2.33,74.58
				c1.7,0.78,11.29,0.78,12.99,0c1.77-16.36,5.08-55.09,2.52-74.58c0.78-19.57,4.33-35.4,5.72-51.7c1.7,0,6.56-0.78,8.26,0
				c0.43,17.78,2.69,32.99,4.69,51.7c2.17,20.39,1.33,56.69,6.21,74.58c1.17,0,10.87,0,10.87,0c2.72-18.5,0.43-55.87,0.43-74.58
				c0.85-24.95,5.25-58.41-0.18-75.51L191.25,273.5z"/>
		</g>
		<g>
			<path style="fill:#FD0047;" d="M188.55,244.46c-1.28,4.09-1.29,25.53,1.9,29.04c3.83,4.09,10.51,4.15,16.25,3.56
				c13.4-1.17,36.24,0.73,39.84-2.14c3.6-2.87,4.29-34.34-4.01-41.35L188.55,244.46z"/>
		</g>
		<path style="fill:#FFA4D3;" d="M193.84,120.18c0-23.06,11.03-29.43,24.63-29.43c13.6,0,24.63,6.37,24.63,29.43
			c0,14.07-11.03,33.31-24.63,33.31C204.87,153.49,193.84,135.66,193.84,120.18z"/>
		<path style="fill:#FFA4D3;" d="M226.6,164.7c0,0-3.09,3.54-8.13,3.54c-5.04,0-8.13-3.54-8.13-3.54l2.34-20.49h11.58L226.6,164.7z"
			/>
		<g>
			<path style="fill:#FFA4D3;" d="M249,121.44c-0.75,4.23-2.43,7.48-5.12,7c-2.69-0.48-5.38-4.49-4.64-8.72
				c0.75-4.23,3.54-7.28,6.23-6.81C248.16,113.39,249.74,117.21,249,121.44z"/>
			<path style="fill:#FFA4D3;" d="M187.94,121.44c0.75,4.23,2.42,7.48,5.12,7c2.69-0.48,5.39-4.49,4.64-8.72
				c-0.74-4.23-3.53-7.28-6.23-6.8C188.77,113.39,187.2,117.21,187.94,121.44z"/>
			<g>
				<path style="fill:#FF8AC7;" d="M246.28,121.14c-0.45,2.54-1.46,4.48-3.07,4.2c-1.61-0.29-0.42-2.69,0.03-5.23
					c0.45-2.54-0.69-4.36,0.92-4.08C245.78,116.31,246.73,118.6,246.28,121.14z"/>
				<path style="fill:#FF8AC7;" d="M190.65,121.14c0.45,2.54,1.45,4.48,3.07,4.2c1.61-0.29,0.42-2.69-0.03-5.23
					c-0.45-2.54,0.69-4.36-0.92-4.08C191.15,116.31,190.21,118.6,190.65,121.14z"/>
			</g>
		</g>
		<path style="fill:#FF8AC7;" d="M221.36,120.18c0,1.67-1.29,3.03-2.89,3.03c-1.6,0-2.89-1.36-2.89-3.03c0-1.67,1.29-3.03,2.89-3.03
			C220.07,117.15,221.36,118.5,221.36,120.18z"/>
		<g>
			<path style="fill:#4D3B15;" d="M210.74,115.14c0,1.67-0.81,3.03-1.81,3.03c-1,0-1.81-1.36-1.81-3.03s0.81-3.03,1.81-3.03
				C209.93,112.11,210.74,113.47,210.74,115.14z"/>
			<path style="fill:#4D3B15;" d="M230.09,115.14c0,1.67-0.81,3.03-1.81,3.03c-1,0-1.81-1.36-1.81-3.03s0.81-3.03,1.81-3.03
				C229.28,112.11,230.09,113.47,230.09,115.14z"/>
			<path style="fill:none;stroke:#4D3B15;stroke-width:0.6753;stroke-linecap:round;stroke-miterlimit:10;" d="M203.84,114.88
				c0-3.19,2.59-5.78,5.78-5.78"/>
			<path style="fill:none;stroke:#4D3B15;stroke-width:0.6753;stroke-linecap:round;stroke-miterlimit:10;" d="M233.38,114.88
				c0-3.19-2.59-5.78-5.78-5.78"/>
		</g>
		<g>
			<path style="fill:#4D3B15;" d="M195.64,101.79c-2.49,5.84-1.38,15.63-0.31,19.48c1.32-5.73,2.33-8.61,5.25-11.68
				c0,0.46,0.5,2.67,0.5,3.29c5.37-15.3,30.69-11.35,34.66-7.84c3.37,2.97,4.55,8.76,6.28,14.53c3.45-6.64-1.16-23.56-7.93-24.02
				l-29.11,0.52L195.64,101.79z"/>
		</g>
		<g>
			<path style="fill:#B88D33;" d="M221.72,82.72c0-1.48-1.45-2.68-3.25-2.68c-1.79,0-3.25,1.2-3.25,2.68s1.45,2.68,3.25,2.68
				C220.26,85.4,221.72,84.2,221.72,82.72z"/>
			<path style="fill:#856625;" d="M218.47,100.86c11.87,0,22.39,3.25,28.92,8.25l-7.32-0.51c0,0-5.87-3.94-21.6-3.94
				c-15.73,0-21.35,3.9-21.35,3.9l-7.58,0.55C196.08,104.11,206.6,100.86,218.47,100.86z"/>
			<path style="fill:#FDBD47;" d="M218.47,99.76c-9.3,0-17.76,2-24.13,5.27c0.54-1.94,1.03-4,1.03-6.14
				c0-11.36,10.34-16.16,23.1-16.16c12.76,0,23.1,4.8,23.1,16.16c0,2.14,0.49,4.2,1.03,6.14
				C236.23,101.76,227.77,99.76,218.47,99.76z"/>
			<path style="opacity:0.5;fill:#FFFFFF;" d="M204.99,101.25c-0.09-0.43-0.15-0.87-0.15-1.32c0-6.66,10.55-12.05,23.55-12.05
				c3.3,0,6.44,0.35,9.29,0.98c2.45,2.5,3.88,5.81,3.88,10.03c0,2.14,0.49,4.2,1.03,6.14c-6.37-3.27-14.83-5.27-24.13-5.27
				C213.7,99.76,209.16,100.3,204.99,101.25z"/>
			<path style="fill:none;stroke:#B88D33;stroke-width:3.1957;stroke-linecap:round;stroke-miterlimit:10;" d="M189.54,108.01
				c6.53-5,17.05-8.25,28.92-8.25c11.87,0,22.39,3.25,28.92,8.25"/>
		</g>
		<g>
			<path style="fill:#DCE0FF;" d="M193.44,130.95c0-2.03,1.46-5.89,1.46-5.89l23.56-4.88l23.13,4.04c0,0,1.9,4.4,1.9,6.73
				c0,13.82-11.2,25.03-25.03,25.03C204.65,155.97,193.44,144.77,193.44,130.95z"/>
			<g>
				<g>
					
						<line style="fill:none;stroke:#FFFFFF;stroke-width:1.9294;stroke-linecap:round;stroke-miterlimit:10;" x1="196.65" y1="129.18" x2="216.26" y2="129.18"/>
					
						<line style="fill:none;stroke:#FFFFFF;stroke-width:1.9294;stroke-linecap:round;stroke-miterlimit:10;" x1="196.65" y1="134.19" x2="216.26" y2="134.19"/>
					
						<line style="fill:none;stroke:#FFFFFF;stroke-width:1.9294;stroke-linecap:round;stroke-miterlimit:10;" x1="197.69" y1="139.19" x2="216.26" y2="139.19"/>
					
						<line style="fill:none;stroke:#FFFFFF;stroke-width:1.9294;stroke-linecap:round;stroke-miterlimit:10;" x1="200.81" y1="144.2" x2="216.26" y2="144.2"/>
					
						<line style="fill:none;stroke:#FFFFFF;stroke-width:1.9294;stroke-linecap:round;stroke-miterlimit:10;" x1="204.98" y1="149.2" x2="216.26" y2="149.2"/>
				</g>
				<g>
					
						<line style="fill:none;stroke:#FFFFFF;stroke-width:1.9294;stroke-linecap:round;stroke-miterlimit:10;" x1="220.68" y1="129.18" x2="240.29" y2="129.18"/>
					
						<line style="fill:none;stroke:#FFFFFF;stroke-width:1.9294;stroke-linecap:round;stroke-miterlimit:10;" x1="220.68" y1="134.19" x2="240.29" y2="134.19"/>
					
						<line style="fill:none;stroke:#FFFFFF;stroke-width:1.9294;stroke-linecap:round;stroke-miterlimit:10;" x1="220.68" y1="139.19" x2="239.25" y2="139.19"/>
					
						<line style="fill:none;stroke:#FFFFFF;stroke-width:1.9294;stroke-linecap:round;stroke-miterlimit:10;" x1="220.68" y1="144.2" x2="236.12" y2="144.2"/>
					
						<line style="fill:none;stroke:#FFFFFF;stroke-width:1.9294;stroke-linecap:round;stroke-miterlimit:10;" x1="220.68" y1="149.2" x2="231.96" y2="149.2"/>
				</g>
			</g>
			<g>
				<path style="fill:#FFFFFF;" d="M196.87,125.06c0-1.08-0.87-1.95-1.95-1.95c-1.08,0-1.95,0.87-1.95,1.95
					c0,1.08,0.87,1.95,1.95,1.95C195.99,127.01,196.87,126.13,196.87,125.06z"/>
				<path style="fill:#FFFFFF;" d="M243.97,125.06c0-1.08-0.87-1.95-1.95-1.95c-1.08,0-1.95,0.87-1.95,1.95
					c0,1.08,0.87,1.95,1.95,1.95C243.1,127.01,243.97,126.13,243.97,125.06z"/>
			</g>
			
				<line style="fill:none;stroke:#FFFFFF;stroke-width:1.0449;stroke-linecap:round;stroke-miterlimit:10;" x1="194.92" y1="125.06" x2="193.72" y2="112.86"/>
			
				<line style="fill:none;stroke:#FFFFFF;stroke-width:1.0449;stroke-linecap:round;stroke-miterlimit:10;" x1="242.23" y1="125.06" x2="243.42" y2="112.86"/>
		</g>
		<path style="opacity:0.3;fill:#505285;" d="M220.76,153.69c-13.82,0-25.03-11.2-25.03-25.03c0-1.08,0.42-2.68,0.8-3.94l-1.63,0.34
			c0,0-1.46,3.86-1.46,5.89c0,13.82,11.2,25.03,25.03,25.03c7.49,0,14.21-3.3,18.79-8.51C232.86,151.34,227.08,153.69,220.76,153.69
			z"/>
		<g style="opacity:0.3;">
			<path style="fill:#505285;" d="M186.51,174.09c3.81-6.52,21.87-3.22,32.33-2.87c6.63,0,22.09-3.2,28.01-0.06
				c18.48,10.11-30.46,16.36-34.29,17.05C212.56,188.21,176.02,192.03,186.51,174.09z"/>
		</g>
		<g>
			<rect x="177.25" y="180.33" style="fill:#FDBD47;" width="82.43" height="77.07"/>
			<polygon style="fill:#FDEF47;" points="246.38,172.29 190.56,172.29 177.25,180.33 259.69,180.33 			"/>
			<g>
				<g>
					<g>
						<polyline style="fill:none;stroke:#FFFFFF;stroke-width:1.1319;stroke-miterlimit:10;" points="205.13,206.55 210.42,201.25 
							215.72,206.55 						"/>
						
							<line style="fill:none;stroke:#FFFFFF;stroke-width:1.1319;stroke-miterlimit:10;" x1="210.42" y1="201.25" x2="210.42" y2="217.86"/>
					</g>
					<g>
						<polyline style="fill:none;stroke:#FFFFFF;stroke-width:1.1319;stroke-miterlimit:10;" points="221.22,206.55 226.51,201.25 
							231.81,206.55 						"/>
						
							<line style="fill:none;stroke:#FFFFFF;stroke-width:1.1319;stroke-miterlimit:10;" x1="226.51" y1="201.25" x2="226.51" y2="217.86"/>
					</g>
				</g>
				
					<line style="fill:none;stroke:#FFFFFF;stroke-width:1.1319;stroke-miterlimit:10;" x1="205.92" y1="222.48" x2="231.02" y2="222.48"/>
			</g>
			<rect x="197.44" y="244.62" style="fill:#FFFFFF;" width="42.06" height="7.58"/>
			<polygon style="fill:#FDBD47;" points="221.5,172.29 215.44,172.29 208.02,180.33 228.92,180.33 			"/>
			<rect x="208.02" y="180.33" style="fill:#D88D33;" width="20.9" height="7.88"/>
			<path style="opacity:0.35;fill:#FFFFFF;" d="M259.69,246.55c0,0-0.42-52.93-6.86-59.36c-6.44-6.44-64.72-6.85-64.72-6.85h71.58
				V246.55z"/>
			<path style="opacity:0.3;fill:#505285;" d="M177.25,191.19c0,0,0.66,53.16,6.86,59.36c6.2,6.2,64.72,6.86,64.72,6.86h-71.58
				V191.19z"/>
		</g>
		<g>
			<g>
				<path style="fill:#DCE0FF;" d="M261.33,230.16c-3.97-0.08-14.61-0.62-14.47,2.15c0.16,3.41,7.47,3.08,9.38,3.4
					c-3.63,0.01-9.78-0.96-10.19,1.71c-0.39,2.6,8.05,2.93,9.96,3.24c-2.23,0-10.7-0.9-10.38,2.92c0.32,3.18,8.7,2.32,10.93,2.64
					c-11.65,0.28-6.62,4.89,4.56,3.43C268,248.75,268.17,230.29,261.33,230.16z"/>
			</g>
			<g style="opacity:0.2;">
				<g style="opacity:0.3;">
					<path style="fill:#505285;" d="M248.68,239.54c-0.27-0.29-0.41-0.61-0.35-0.98c0.4-2.67,4.7-1.84,2.4-3.02
						c-2.4,0.02-4.46,0.37-4.68,1.87C245.89,238.43,247.08,239.09,248.68,239.54z"/>
				</g>
				<g style="opacity:0.3;">
					<path style="fill:#505285;" d="M249.83,234.92c-0.4-0.39-0.66-0.87-0.69-1.47c-0.13-2.77,10.51-2.23,14.47-2.15
						c0.11,0,0.21,0.02,0.31,0.03c-0.71-0.72-1.57-1.16-2.59-1.17c-3.97-0.08-14.61-0.62-14.47,2.15
						C246.93,233.72,248.21,234.48,249.83,234.92z"/>
				</g>
				<g style="opacity:0.3;">
					<path style="fill:#505285;" d="M247.91,244.72c-0.32-3.82,5.36-3.33,2.82-4.11c-2.7,0.16-5.28,0.82-5.1,2.96
						c0.11,1.11,1.22,1.73,2.7,2.07C248.1,245.39,247.95,245.09,247.91,244.72z"/>
				</g>
				<g style="opacity:0.3;">
					<path style="fill:#505285;" d="M251.19,246.92c-2.15,0.74-1.46,1.89,1.13,2.54C250.43,248.22,252.55,247.93,251.19,246.92z"/>
				</g>
			</g>
		</g>
		<g style="opacity:0.3;">
			<path style="fill:#505285;" d="M246.54,274.92c-3.6,2.87-26.44,0.97-39.84,2.14c-5.4,0.55-11.63,0.53-15.54-2.88
				c-0.21,1.64-0.41,3.21-0.58,4.72c3.27,1.15,6.66,2,9.67,1.88c5.18-0.23,11.04-0.23,16.23-0.68c6.54-0.45,13.3-0.45,19.84-0.68
				c2.42,0,7.3,0.32,11.2-0.18c-0.24-1.56-0.54-3.03-0.88-4.42C246.6,274.86,246.57,274.9,246.54,274.92z"/>
		</g>
		<g style="opacity:0.3;">
			<path style="fill:#505285;" d="M230.91,334.04c0-9.04,0.31-17.76-0.31-26.49c0-3.74-0.34-10.41-2.83-13.52
				c-3.12-3.43-7.14-0.5-11.5-1.12c-0.31,0.62-0.62,1.56-0.62,2.49l0.02,0.71c1.7,0,6.56-0.78,8.26,0
				c0.43,17.78,2.69,32.99,4.69,51.7c1.49,14.03,1.56,35.59,3.05,53.5c2.2-4.56,2.82-12.05,2.37-17.41
				C232.47,368.01,230.91,350.25,230.91,334.04z"/>
		</g>
		<g>
			<g>
				<path style="fill:#DCE0FF;" d="M173.32,230.16c3.97-0.08,14.61-0.62,14.48,2.15c-0.16,3.41-7.47,3.08-9.38,3.4
					c3.63,0.01,9.79-0.96,10.19,1.71c0.39,2.6-8.05,2.93-9.96,3.24c2.23,0,10.7-0.9,10.39,2.92c-0.32,3.18-8.7,2.32-10.93,2.64
					c11.65,0.28,6.63,4.89-4.56,3.43C166.65,248.75,166.48,230.29,173.32,230.16z"/>
			</g>
			<g style="opacity:0.3;">
				<g>
					<path style="fill:#505285;" d="M175.6,231.3c2.74-0.05,8.65-0.33,12.01,0.42c-1.35-2.09-10.64-1.63-14.29-1.56
						c-6.82,0.13-6.66,18.52,0.18,19.48C169.01,245.44,169.65,231.42,175.6,231.3z"/>
				</g>
			</g>
		</g>
	</g>
	<g style="opacity:0.3;">
		<polygon style="fill:#C2C9FF;" points="115.83,52.84 115.83,440.38 128.26,440.38 128.26,67.17 305.87,67.17 305.87,440.38 
			318.3,440.38 318.3,52.84 		"/>
		<g>
			<path style="fill:#ABB4FF;" d="M429.85,482.52c-37.19-14.24-74.37-28.48-111.55-42.72c0-128.79,0-257.59,0-386.38
				c37.18-14.24,74.37-28.48,111.55-42.72C429.85,167.97,429.85,325.25,429.85,482.52z"/>
			<path style="fill:#DCE0FF;" d="M338.71,160.27c23.58-3.88,47.15-7.76,70.72-11.63c0-16.24,0-32.48,0-48.72
				c0-26.33-15.83-42.28-35.36-35.64c-19.53,6.65-35.36,30.4-35.36,53.06C338.71,131.65,338.71,145.96,338.71,160.27z"/>
			<path style="fill:#DCE0FF;" d="M338.71,192.3c0,32.49,0,64.98,0,97.48c23.58,1.94,47.15,3.88,70.72,5.82
				c0-36.87,0-73.74,0-110.61C385.86,187.43,362.29,189.87,338.71,192.3z"/>
			<path style="fill:#DCE0FF;" d="M338.71,321.82c0,32.49,0,64.98,0,97.48c23.58,7.75,47.15,15.51,70.72,23.27
				c0-36.87,0-73.74,0-110.61C385.86,328.58,362.29,325.2,338.71,321.82z"/>
			<path style="fill:#DCE0FF;" d="M412.07,248.5c0-6.85,3.27-12.47,7.32-12.55c4.05-0.09,7.32,5.55,7.32,12.6
				c0,7.05-3.27,12.67-7.32,12.55C415.34,260.99,412.07,255.34,412.07,248.5z"/>
			<polygon style="fill:#929DFF;" points="429.85,482.52 439.16,481.52 439.16,12 429.85,10.7 			"/>
		</g>
		<polygon style="fill:#ECEDFF;" points="128.26,241.92 128.26,67.17 305.87,67.17 144.96,83.87 		"/>
		<polygon style="fill:#FFFFFF;" points="121.4,60.63 121.4,440.38 128.26,440.38 128.26,67.17 305.87,67.17 305.87,440.38 
			312.73,440.38 312.73,60.63 		"/>
	</g>
	<g id="New_Symbol_1_2_">
	</g>
	<g id="New_Symbol_1_1_">
	</g>
	<g id="New_Symbol_1">
	</g>
	<g>
		<path style="opacity:0.3;fill:#ABB4FF;" d="M57.99,470.73c0-8.09,32.39-14.65,72.35-14.65c39.96,0,72.35,6.56,72.35,14.65
			c0,8.09-32.39,14.65-72.35,14.65C90.38,485.39,57.99,478.83,57.99,470.73z"/>
		<g>
			<rect x="82.48" y="385.92" style="fill:#FDBD47;" width="93.46" height="87.38"/>
			<polygon style="fill:#FDEF47;" points="160.86,376.79 97.56,376.79 82.48,385.92 175.94,385.92 			"/>
			<g>
				<g>
					<g>
						<polyline style="fill:none;stroke:#FFFFFF;stroke-width:1.2832;stroke-miterlimit:10;" points="114.08,415.64 120.09,409.63 
							126.09,415.64 						"/>
						
							<line style="fill:none;stroke:#FFFFFF;stroke-width:1.2832;stroke-miterlimit:10;" x1="120.09" y1="409.63" x2="120.09" y2="428.47"/>
					</g>
					<g>
						<polyline style="fill:none;stroke:#FFFFFF;stroke-width:1.2832;stroke-miterlimit:10;" points="132.33,415.64 138.33,409.63 
							144.34,415.64 						"/>
						
							<line style="fill:none;stroke:#FFFFFF;stroke-width:1.2832;stroke-miterlimit:10;" x1="138.33" y1="409.63" x2="138.33" y2="428.47"/>
					</g>
				</g>
				
					<line style="fill:none;stroke:#FFFFFF;stroke-width:1.2832;stroke-miterlimit:10;" x1="114.98" y1="433.69" x2="143.44" y2="433.69"/>
			</g>
			<rect x="105.37" y="458.8" style="fill:#FFFFFF;" width="47.68" height="8.59"/>
			<polygon style="fill:#FDBD47;" points="132.65,376.79 125.77,376.79 117.36,385.92 141.06,385.92 			"/>
			<rect x="117.36" y="385.92" style="fill:#D88D33;" width="23.7" height="8.93"/>
			<path style="opacity:0.35;fill:#FFFFFF;" d="M175.94,460.99c0,0-0.48-60-7.78-67.3c-7.29-7.3-73.38-7.77-73.38-7.77h81.15V460.99
				z"/>
			<path style="opacity:0.3;fill:#505285;" d="M82.48,398.22c0,0,0.74,60.27,7.77,67.3c7.03,7.03,73.38,7.78,73.38,7.78H82.48
				V398.22z"/>
		</g>
		<g>
			<rect x="98.96" y="323.92" style="fill:#FDBD47;" width="59.47" height="55.61"/>
			<polygon style="fill:#FDEF47;" points="148.83,318.11 108.56,318.11 98.96,323.92 158.43,323.92 			"/>
			<g>
				<g>
					<g>
						<polyline style="fill:none;stroke:#FFFFFF;stroke-width:0.8166;stroke-miterlimit:10;" points="119.07,342.83 122.89,339.01 
							126.71,342.83 						"/>
						
							<line style="fill:none;stroke:#FFFFFF;stroke-width:0.8166;stroke-miterlimit:10;" x1="122.89" y1="339.01" x2="122.89" y2="351"/>
					</g>
					<g>
						<polyline style="fill:none;stroke:#FFFFFF;stroke-width:0.8166;stroke-miterlimit:10;" points="130.68,342.83 134.5,339.01 
							138.32,342.83 						"/>
						
							<line style="fill:none;stroke:#FFFFFF;stroke-width:0.8166;stroke-miterlimit:10;" x1="134.5" y1="339.01" x2="134.5" y2="351"/>
					</g>
				</g>
				
					<line style="fill:none;stroke:#FFFFFF;stroke-width:0.8166;stroke-miterlimit:10;" x1="119.64" y1="354.32" x2="137.75" y2="354.32"/>
			</g>
			<rect x="113.52" y="370.3" style="fill:#FFFFFF;" width="30.34" height="5.47"/>
			<polygon style="fill:#FDBD47;" points="130.88,318.11 126.51,318.11 121.15,323.92 136.24,323.92 			"/>
			<rect x="121.15" y="323.92" style="fill:#D88D33;" width="15.08" height="5.68"/>
			<path style="opacity:0.35;fill:#FFFFFF;" d="M158.43,371.69c0,0-0.3-38.18-4.95-42.83c-4.64-4.64-46.69-4.94-46.69-4.94h51.64
				V371.69z"/>
			<path style="opacity:0.3;fill:#505285;" d="M98.96,331.75c0,0,0.47,38.35,4.95,42.83c4.47,4.47,46.7,4.95,46.7,4.95H98.96V331.75
				z"/>
		</g>
	</g>
	<g>
		<path style="opacity:0.3;fill:#ABB4FF;" d="M225.85,470.73c0-8.09,32.39-14.65,72.35-14.65c39.96,0,72.35,6.56,72.35,14.65
			c0,8.09-32.4,14.65-72.35,14.65C258.24,485.39,225.85,478.83,225.85,470.73z"/>
		<g>
			<rect x="250.34" y="385.92" style="fill:#FDBD47;" width="93.46" height="87.38"/>
			<polygon style="fill:#FDEF47;" points="328.71,376.79 265.42,376.79 250.34,385.92 343.8,385.92 			"/>
			<g>
				<g>
					<g>
						<polyline style="fill:none;stroke:#FFFFFF;stroke-width:1.2832;stroke-miterlimit:10;" points="281.94,415.64 287.95,409.63 
							293.95,415.64 						"/>
						
							<line style="fill:none;stroke:#FFFFFF;stroke-width:1.2832;stroke-miterlimit:10;" x1="287.95" y1="409.63" x2="287.95" y2="428.47"/>
					</g>
					<g>
						<polyline style="fill:none;stroke:#FFFFFF;stroke-width:1.2832;stroke-miterlimit:10;" points="300.18,415.64 306.19,409.63 
							312.19,415.64 						"/>
						
							<line style="fill:none;stroke:#FFFFFF;stroke-width:1.2832;stroke-miterlimit:10;" x1="306.19" y1="409.63" x2="306.19" y2="428.47"/>
					</g>
				</g>
				
					<line style="fill:none;stroke:#FFFFFF;stroke-width:1.2832;stroke-miterlimit:10;" x1="282.84" y1="433.69" x2="311.3" y2="433.69"/>
			</g>
			<rect x="273.22" y="458.8" style="fill:#FFFFFF;" width="47.68" height="8.59"/>
			<polygon style="fill:#FDBD47;" points="300.5,376.79 293.63,376.79 285.22,385.92 308.91,385.92 			"/>
			<rect x="285.22" y="385.92" style="fill:#D88D33;" width="23.7" height="8.93"/>
			<path style="opacity:0.35;fill:#FFFFFF;" d="M343.8,460.99c0,0-0.48-60-7.78-67.3c-7.29-7.3-73.38-7.77-73.38-7.77h81.15V460.99z
				"/>
			<path style="opacity:0.3;fill:#505285;" d="M250.34,398.22c0,0,0.74,60.27,7.78,67.3c7.03,7.03,73.37,7.78,73.37,7.78h-81.15
				V398.22z"/>
		</g>
		<g>
			<rect x="266.82" y="323.92" style="fill:#FDBD47;" width="59.47" height="55.61"/>
			<polygon style="fill:#FDEF47;" points="316.69,318.11 276.41,318.11 266.82,323.92 326.29,323.92 			"/>
			<g>
				<g>
					<g>
						<polyline style="fill:none;stroke:#FFFFFF;stroke-width:0.8166;stroke-miterlimit:10;" points="286.93,342.83 290.75,339.01 
							294.57,342.83 						"/>
						
							<line style="fill:none;stroke:#FFFFFF;stroke-width:0.8166;stroke-miterlimit:10;" x1="290.75" y1="339.01" x2="290.75" y2="351"/>
					</g>
					<g>
						<polyline style="fill:none;stroke:#FFFFFF;stroke-width:0.8166;stroke-miterlimit:10;" points="298.53,342.83 302.36,339.01 
							306.18,342.83 						"/>
						
							<line style="fill:none;stroke:#FFFFFF;stroke-width:0.8166;stroke-miterlimit:10;" x1="302.36" y1="339.01" x2="302.36" y2="351"/>
					</g>
				</g>
				
					<line style="fill:none;stroke:#FFFFFF;stroke-width:0.8166;stroke-miterlimit:10;" x1="287.5" y1="354.32" x2="305.61" y2="354.32"/>
			</g>
			<rect x="281.38" y="370.3" style="fill:#FFFFFF;" width="30.34" height="5.47"/>
			<polygon style="fill:#FDBD47;" points="298.74,318.11 294.36,318.11 289.01,323.92 304.09,323.92 			"/>
			<rect x="289.01" y="323.92" style="fill:#D88D33;" width="15.08" height="5.68"/>
			<path style="opacity:0.35;fill:#FFFFFF;" d="M326.29,371.69c0,0-0.31-38.18-4.95-42.83c-4.64-4.64-46.7-4.94-46.7-4.94h51.64
				V371.69z"/>
			<path style="opacity:0.3;fill:#505285;" d="M266.82,331.75c0,0,0.47,38.35,4.95,42.83c4.47,4.47,46.7,4.95,46.7,4.95h-51.64
				V331.75z"/>
		</g>
	</g>
</g>
</svg>
