<?xml version="1.0" encoding="utf-8"?>
<!-- Generator: Adobe Illustrator 24.3.0, SVG Export Plug-In . SVG Version: 6.00 Build 0)  -->
<svg version="1.1" id="Layer_1" xmlns="http://www.w3.org/2000/svg" xmlns:xlink="http://www.w3.org/1999/xlink" x="0px" y="0px"
	 viewBox="0 0 500 621.86" style="enable-background:new 0 0 500 621.86;" xml:space="preserve">
<style type="text/css">
	.st0{fill:#EE1E4C;}
	.st1{fill:#C21F4A;}
	.st2{fill:#FFFFFF;}
</style>
<g>
	<g>
		<circle class="st0" cx="244.05" cy="591.59" r="24.83"/>
		<g>
			<path class="st0" d="M364.5,422.29L244.05,453.9L123.6,422.29c38.5,26.13,111,45.02,111,106.55c0,43.26-15.38,45.08-15.38,62.75
				h24.83h24.83c0-17.67-15.38-19.5-15.38-62.75C253.5,467.3,326,448.42,364.5,422.29z"/>
			<path class="st0" d="M470.4,230.62c0,125.02-101.33,226.35-226.35,226.35c-15.69,0-31.01-1.61-45.78-4.65
				C95.2,431.15,17.7,339.94,17.7,230.62C17.7,105.6,119.03,4.27,244.05,4.27c109.33,0,200.53,77.5,221.7,180.57
				C468.79,199.61,470.4,214.93,470.4,230.62z"/>
		</g>
		<path class="st1" d="M378.03,96.64L110.07,364.6c80.08,103.51,213.82,81.93,281.85,13.89c0,0,0,0,0,0c0,0,0,0,0,0
			C459.96,310.46,481.54,176.72,378.03,96.64z"/>
		<circle class="st2" cx="244.05" cy="230.62" r="189.48"/>
	</g>
	<g>
		<path class="st1" d="M352.28,101.32l-16.48,34.35l23.28-20.09L356,101.75C355.59,99.91,353.09,99.62,352.28,101.32z"/>
		<g>
			<path class="st1" d="M295.17,230.61c0,28.18-22.93,51.12-51.12,51.12s-51.12-22.93-51.12-51.12c0-28.2,22.93-51.14,51.12-51.14
				c13.49,0,25.74,5.29,34.88,13.86l15.39-15.39c-13.09-12.5-30.79-20.21-50.27-20.21c-40.17,0-72.85,32.69-72.85,72.87
				c0,40.17,32.68,72.85,72.85,72.85s72.85-32.68,72.85-72.85c0-17.35-6.1-33.29-16.26-45.82l-15.52,15.52
				C291.41,208.8,295.17,219.26,295.17,230.61z"/>
			<path class="st1" d="M318.98,166.46c14.81,17.27,23.78,39.68,23.78,64.15c0,54.43-44.28,98.71-98.71,98.71
				s-98.71-44.28-98.71-98.71s44.28-98.71,98.71-98.71c26.61,0,50.77,10.6,68.54,27.77l15.36-15.36
				c-21.71-21.11-51.3-34.15-83.9-34.15c-66.41,0-120.45,54.03-120.45,120.45c0,66.41,54.03,120.45,120.45,120.45
				S364.5,297.03,364.5,230.62c0-30.47-11.4-58.32-30.12-79.55L318.98,166.46z"/>
			<path class="st1" d="M372.92,118.66l-5.03-1.12l-14.34,14.34l19.79-9.5C375.04,121.58,374.76,119.07,372.92,118.66z"/>
			<path class="st1" d="M247.18,236.33c-1.19,0-2.38-0.45-3.29-1.36c-1.82-1.82-1.82-4.77,0-6.59l14.57-14.57
				c-3.87-3.33-8.9-5.35-14.4-5.35c-12.23,0-22.13,9.91-22.13,22.14c0,12.22,9.91,22.13,22.13,22.13c12.23,0,22.13-9.91,22.13-22.13
				c0-3.32-0.75-6.46-2.06-9.29l-13.65,13.65C249.56,235.88,248.37,236.33,247.18,236.33z"/>
		</g>
		<path class="st1" d="M244.05,235.28c-1.19,0-2.38-0.45-3.29-1.36c-1.82-1.82-1.82-4.77,0-6.59l121.06-121.07
			c1.82-1.82,4.77-1.82,6.59,0c1.82,1.82,1.82,4.77,0,6.59L247.34,233.91C246.43,234.82,245.24,235.28,244.05,235.28z"/>
	</g>
</g>
</svg>
