<?xml version="1.0" encoding="utf-8"?>
<!-- Generator: Adobe Illustrator 24.3.0, SVG Export Plug-In . SVG Version: 6.00 Build 0)  -->
<svg version="1.1" id="Layer_1" xmlns="http://www.w3.org/2000/svg" xmlns:xlink="http://www.w3.org/1999/xlink" x="0px" y="0px"
	 viewBox="0 0 500 621.86" style="enable-background:new 0 0 500 621.86;" xml:space="preserve">
<style type="text/css">
	.st0{fill:#61C08F;}
	.st1{fill:#3CBA8E;}
	.st2{fill:#FFFFFF;}
</style>
<g>
	<g>
		<g>
			<circle class="st0" cx="250" cy="593.89" r="24.83"/>
			<g>
				<path class="st0" d="M370.45,424.58L250,456.2l-120.45-31.61c38.5,26.13,111,45.02,111,106.55c0,43.26-15.38,45.08-15.38,62.75
					H250h24.83c0-17.67-15.38-19.5-15.38-62.75C259.45,469.6,331.95,450.72,370.45,424.58z"/>
				<path class="st0" d="M476.35,232.91c0,125.02-101.33,226.35-226.35,226.35c-15.69,0-31.01-1.61-45.78-4.65
					C101.15,433.45,23.65,342.24,23.65,232.91C23.65,107.9,124.98,6.57,250,6.57c109.33,0,200.53,77.5,221.7,180.57
					C474.74,201.91,476.35,217.22,476.35,232.91z"/>
			</g>
			<path class="st1" d="M383.98,98.93L116.02,366.89c80.08,103.51,213.82,81.93,281.85,13.89c0,0,0,0,0,0s0,0,0,0
				C465.91,312.75,487.49,179.02,383.98,98.93z"/>
			<circle class="st2" cx="250" cy="232.91" r="189.48"/>
		</g>
	</g>
	<g>
		<g>
			<path class="st1" d="M341.96,192.15l-5.49-10.04c-7.09-12.96-17.69-23.56-30.65-30.65l-10.04-5.49l10.04-5.49
				c12.96-7.09,23.56-17.68,30.65-30.65l5.49-10.04l5.49,10.04c7.09,12.96,17.69,23.56,30.65,30.65l10.04,5.49l-10.04,5.49
				c-12.96,7.09-23.56,17.69-30.65,30.65L341.96,192.15z M320.62,145.98c8.28,5.86,15.48,13.06,21.34,21.34
				c5.86-8.28,13.06-15.48,21.34-21.34c-8.28-5.86-15.48-13.06-21.34-21.34C336.11,132.92,328.9,140.12,320.62,145.98z"/>
		</g>
		<g>
			<path class="st1" d="M273.37,154.21l-5.49-10.04c-1.79-3.28-4.47-5.96-7.75-7.75l-10.04-5.49l10.04-5.49
				c3.28-1.79,5.96-4.47,7.75-7.75l5.49-10.04l5.49,10.04c1.79,3.28,4.47,5.96,7.75,7.75l10.04,5.49l-10.04,5.49
				c-3.28,1.79-5.95,4.47-7.75,7.75L273.37,154.21z"/>
		</g>
		<path class="st1" d="M304.79,167.31H195.21l-53.08,51.64L250,351.26l107.87-132.3L304.79,167.31z M212.08,225.7l24.15,88.87
			l-72.46-88.87H212.08z M274.95,225.7L250,317.5l-24.95-91.8H274.95z M229.1,213.19l20.9-28.93l20.9,28.93H229.1z M287.92,225.7
			h48.31l-72.46,88.87L287.92,225.7z M333.99,213.19h-47.66l-24.1-33.36h37.47L333.99,213.19z M200.29,179.83h37.47l-24.1,33.36
			h-47.66L200.29,179.83z"/>
	</g>
</g>
</svg>
