<?xml version="1.0" encoding="utf-8"?>
<!-- Generator: Adobe Illustrator 24.3.0, SVG Export Plug-In . SVG Version: 6.00 Build 0)  -->
<svg version="1.1" id="Layer_1" xmlns="http://www.w3.org/2000/svg" xmlns:xlink="http://www.w3.org/1999/xlink" x="0px" y="0px"
	 viewBox="0 0 500 621.86" style="enable-background:new 0 0 500 621.86;" xml:space="preserve">
<style type="text/css">
	.st0{fill:#4D93CF;}
	.st1{fill:#307BBF;}
	.st2{fill:#FFFFFF;}
</style>
<g>
	<g>
		<circle class="st0" cx="252.47" cy="592.89" r="24.83"/>
		<g>
			<path class="st0" d="M372.92,423.58L252.47,455.2l-120.45-31.61c38.5,26.13,111,45.02,111,106.55
				c0,43.26-15.38,45.08-15.38,62.75h24.83h24.83c0-17.67-15.38-19.5-15.38-62.75C261.92,468.6,334.42,449.72,372.92,423.58z"/>
			<path class="st0" d="M478.82,231.91c0,125.02-101.33,226.35-226.35,226.35c-15.69,0-31.01-1.61-45.78-4.65
				C103.63,432.45,26.13,341.24,26.13,231.91C26.13,106.9,127.46,5.57,252.47,5.57c109.33,0,200.53,77.5,221.7,180.57
				C477.21,200.91,478.82,216.22,478.82,231.91z"/>
		</g>
		<path class="st1" d="M386.45,97.93L118.49,365.89c80.08,103.51,213.82,81.93,281.85,13.89c0,0,0,0,0,0c0,0,0,0,0,0
			C468.38,311.75,489.96,178.02,386.45,97.93z"/>
		<circle class="st2" cx="252.47" cy="231.91" r="189.48"/>
	</g>
	<path class="st1" d="M252.46,111.47c-66.52,0-120.43,53.91-120.43,120.43s53.91,120.47,120.43,120.47s120.47-53.95,120.47-120.47
		S318.98,111.47,252.46,111.47z M252.46,330.61c-54.49,0-120.43-98.71-120.43-98.71s65.94-98.71,120.43-98.71
		c54.53,0,120.44,98.71,120.44,98.71S306.99,330.61,252.46,330.61z"/>
	<path class="st1" d="M252.46,159.03c-40.23,0-72.88,32.65-72.88,72.88c0,40.27,32.65,72.88,72.88,72.88
		c40.27,0,72.88-32.61,72.88-72.88C325.34,191.67,292.73,159.03,252.46,159.03z M252.46,283.06c-28.24,0-72.88-51.15-72.88-51.15
		s44.64-51.12,72.88-51.12s72.88,51.12,72.88,51.12S280.7,283.06,252.46,283.06z"/>
	<circle class="st1" cx="252.46" cy="231.91" r="22.15"/>
</g>
</svg>
