<?xml version="1.0" encoding="utf-8"?>
<!-- Generator: Adobe Illustrator 24.3.0, SVG Export Plug-In . SVG Version: 6.00 Build 0)  -->
<svg version="1.1" xmlns="http://www.w3.org/2000/svg" xmlns:xlink="http://www.w3.org/1999/xlink" x="0px" y="0px"
	 viewBox="0 0 750 500" style="enable-background:new 0 0 750 500;" xml:space="preserve">
<style type="text/css">
	.st0{fill:#FFFFFF;}
	.st1{fill:#DADEF1;}
	.st2{fill:#B8C1EA;}
	.st3{fill:none;stroke:#B8C1EA;stroke-miterlimit:10;}
	.st4{fill:#F2A441;}
	.st5{fill:#26244A;}
	.st6{fill:#F4B298;}
	.st7{fill:#ED796A;}
	.st8{fill:none;stroke:#B8C1EA;stroke-width:3;stroke-linecap:round;stroke-linejoin:round;}
	.st9{fill:none;stroke:#B8C1EA;stroke-width:3;stroke-linecap:round;stroke-linejoin:round;stroke-dasharray:9.3373,18.6747;}
	
		.st10{fill:none;stroke:#B8C1EA;stroke-width:3;stroke-linecap:round;stroke-linejoin:round;stroke-miterlimit:10;stroke-dasharray:10,20;}
	.st11{fill:#F5F5F5;}
	.st12{fill:#EF6856;}
	.st13{fill:none;stroke:#26244A;stroke-miterlimit:10;}
	.st14{fill:#545DBF;}
	.st15{opacity:0.5;fill:#FFFFFF;}
	.st16{fill:#5BC55C;}
	.st17{fill:#4092E2;}
</style>
<g id="BACKGROUND_x0A_">
	<rect class="st0" width="750" height="500"/>
</g>
<g id="OBJECTS_x0A_">
	<g>
		<g>
			<g>
				<path class="st1" d="M100.91,317.09H48.32c-1.21,0-2.19-0.98-2.19-2.19v-37.33c0-1.98,1.6-3.58,3.58-3.58h51.2
					c1.21,0,2.19,0.98,2.19,2.19v38.72C103.1,316.11,102.12,317.09,100.91,317.09z"/>
			</g>
			<g>
				<g>
					<path class="st2" d="M84.1,274.27c0,14.29,0,28.58,0,42.87c0,0.8,1.25,0.81,1.25,0c0-14.29,0-28.58,0-42.87
						C85.35,273.46,84.1,273.46,84.1,274.27L84.1,274.27z"/>
				</g>
			</g>
			<rect x="61.21" y="274" class="st0" width="7.93" height="7.93"/>
			<rect x="91.18" y="309.16" class="st0" width="7.93" height="7.93"/>
			<path class="st3" d="M46.19,316.42l-0.05-40.76c0-0.98,0.8-1.78,1.78-1.78L103.1,274"/>
		</g>
		<g>
			<g>
				<path class="st1" d="M131.81,388.29H43.26c-1.21,0-2.19-0.98-2.19-2.19v-64.52c0-1.98,1.6-3.58,3.58-3.58h87.15
					c1.21,0,2.19,0.98,2.19,2.19v65.91C133.99,387.32,133.01,388.29,131.81,388.29z"/>
			</g>
			<g>
				<g>
					<path class="st2" d="M103.39,318.45c0,18.16,0,36.32,0,54.48c0,5.15,0,10.3,0,15.45c0,0.8,1.25,0.81,1.25,0
						c0-18.16,0-36.32,0-54.48c0-5.15,0-10.3,0-15.45C104.64,317.64,103.39,317.64,103.39,318.45L103.39,318.45z"/>
				</g>
			</g>
			<rect x="65.66" y="318.01" class="st0" width="12.94" height="12.94"/>
			<rect x="114.55" y="375.36" class="st0" width="12.94" height="12.94"/>
			<path class="st3" d="M41.15,387.2l-0.08-66.49c0-1.6,1.3-2.9,2.9-2.9l90.01,0.2"/>
		</g>
		<g>
			<g>
				<path class="st1" d="M118.27,458.54H29.72c-1.21,0-2.19-0.98-2.19-2.19v-64.52c0-1.98,1.6-3.58,3.58-3.58h87.15
					c1.21,0,2.19,0.98,2.19,2.19v65.91C120.45,457.56,119.48,458.54,118.27,458.54z"/>
			</g>
			<g>
				<g>
					<path class="st2" d="M89.85,388.69c0,18.16,0,36.32,0,54.48c0,5.15,0,10.3,0,15.45c0,0.8,1.25,0.81,1.25,0
						c0-18.16,0-36.32,0-54.48c0-5.15,0-10.3,0-15.45C91.1,387.88,89.85,387.88,89.85,388.69L89.85,388.69z"/>
				</g>
			</g>
			<rect x="52.13" y="388.25" class="st0" width="12.94" height="12.94"/>
			<rect x="101.01" y="445.6" class="st0" width="12.94" height="12.94"/>
			<path class="st3" d="M27.62,457.44l-0.08-66.49c0-1.6,1.3-2.9,2.9-2.9l90.01,0.2"/>
		</g>
	</g>
	<g>
		<g>
			<g>
				<path class="st1" d="M239.3,162.21c-3.39,0-6.77,0-10.16,0c-8.09,0-16.18,0-24.27,0c-9.82,0-19.65,0-29.47,0
					c-8.46,0-16.91,0-25.37,0c-2.79,0-5.58,0-8.37,0c-1.31,0-2.68-0.11-3.99,0c-0.06,0.01-0.12,0-0.18,0c-0.8,0-0.81,1.25,0,1.25
					c3.39,0,6.77,0,10.16,0c8.09,0,16.18,0,24.27,0c9.82,0,19.65,0,29.47,0c8.46,0,16.91,0,25.37,0c2.79,0,5.58,0,8.37,0
					c1.31,0,2.68,0.11,3.99,0c0.06-0.01,0.12,0,0.18,0C240.1,163.46,240.1,162.21,239.3,162.21L239.3,162.21z"/>
			</g>
		</g>
		<path class="st1" d="M237.95,162.78c0,2.34,1.9,4.24,4.24,4.24c2.34,0,4.24-1.9,4.24-4.24c0-2.34-1.9-4.24-4.24-4.24
			C239.84,158.54,237.95,160.44,237.95,162.78z"/>
	</g>
	<g>
		<g>
			<g>
				<path class="st1" d="M133.94,241.38c0,19.32,0,38.65,0,57.97c0,0.8,1.25,0.81,1.25,0c0-19.32,0-38.65,0-57.97
					C135.19,240.57,133.94,240.57,133.94,241.38L133.94,241.38z"/>
			</g>
		</g>
		<path class="st1" d="M129.75,300.55c0,2.34,1.9,4.24,4.24,4.24c2.34,0,4.24-1.9,4.24-4.24s-1.9-4.24-4.24-4.24
			C131.65,296.32,129.75,298.21,129.75,300.55z"/>
	</g>
	<g>
		<g>
			<g>
				<path class="st4" d="M94.2,244.45h64.47c1.21,0,2.19-0.98,2.19-2.19v-46.31c0-1.98-1.6-3.58-3.58-3.58H94.2
					c-1.21,0-2.19,0.98-2.19,2.19v47.71C92.01,243.47,92.99,244.45,94.2,244.45z"/>
			</g>
			<g>
				<g>
					<path class="st5" d="M113.6,192.7c0,17.27,0,34.55,0,51.82c0,0.8,1.25,0.81,1.25,0c0-17.27,0-34.55,0-51.82
						C114.85,191.89,113.6,191.89,113.6,192.7L113.6,192.7z"/>
				</g>
			</g>
			
				<rect x="133.06" y="192.37" transform="matrix(-1 -1.224647e-16 1.224647e-16 -1 275.6974 394.3316)" class="st1" width="9.59" height="9.59"/>
			
				<rect x="96.84" y="234.87" transform="matrix(-1 -1.224647e-16 1.224647e-16 -1 203.2586 479.3183)" class="st1" width="9.59" height="9.59"/>
		</g>
		<g>
			<path class="st6" d="M106.48,175.18c0,0,5.78-7.59,19.96-10.23c14.18-2.64,19.52,1.75,19.52,1.75s8.05,12.89,4.31,20.88
				s-5.66,19.79,3.22,23.12c8.88,3.33,19-7.35,21.75-18.87c2.29-9.57,5.24-17.61,1.5-37.39c-3.74-19.78-44.32-39.83-44.32-39.83
				s-21.35,18.66-30.79,29.08s-8.83,22.6-8.83,22.6"/>
			<path class="st6" d="M132.92,112.14c0,0-24.65,8.22-39.47,20.95c-7.08,6.08-20.93,35.81-28.6,57.17c-1.5,4.17-2.77,7.33-3.3,9.01
				c-2.75,8.73,5.83,18.66,14.93,12.05c7.62-5.53,13.57-24.18,13.57-24.18l21.82-44.78L132.92,112.14z"/>
			<path class="st6" d="M54.69,173.22l37.79-39.19l-21.06,52.86c0,0-2.76,1.6-7.26,3.37c-4.16,1.64-7.9-0.09-8.79-0.9
				C50.67,185.11,50.36,177.41,54.69,173.22z"/>
			<path class="st6" d="M203.33,112.14l-37.46,38.29l-25.13-21.2l-17.35-13.42l22.39-43.23C166.69,72.21,192.28,87.13,203.33,112.14
				z"/>
			<g>
				<path class="st6" d="M89.24,157.05l23.66,2.34c-3.94,4.75-5.68,11.15-6.3,17.37c-0.62,6.22-0.25,12.46-0.62,18.7
					c-0.21,3.55-0.68,7.18-2.25,10.37c-1.57,3.19-4.45,5.87-7.73,6.21c-2.92,0.3-5.73-1.3-7.61-3.63c-1.88-2.32-2.96-5.3-3.76-8.29
					C80.89,186.12,82.58,170.27,89.24,157.05z"/>
			</g>
			<g>
				<g>
					<path class="st7" d="M85.25,199.95c-1.11-6.22-2.34-12.57-2.31-18.92c0.03-7.07,2.56-13.88,6.31-19.82
						c1.81-2.87,3.93-5.64,6.55-7.82c0.62-0.52-0.27-1.4-0.88-0.88c-5.15,4.29-8.84,10.72-11.1,16.94
						c-2.14,5.91-2.41,11.86-1.72,18.04c0.47,4.29,1.21,8.55,1.96,12.79C84.18,201.08,85.39,200.74,85.25,199.95L85.25,199.95z"/>
				</g>
			</g>
			<g>
				<g>
					<path class="st7" d="M65.16,192.39c5.25-14.09,11.18-27.92,17.78-41.44c0.35-0.72-0.73-1.35-1.08-0.63
						c-6.65,13.61-12.63,27.54-17.91,41.73C63.67,192.81,64.88,193.14,65.16,192.39L65.16,192.39z"/>
				</g>
			</g>
			<g>
				<g>
					<path class="st7" d="M162.76,133.35c7.59,7.03,12.29,16.17,14.28,26.26c1.91,9.67,1.66,20.02-1.9,29.27
						c-2,5.21-4.51,10.45-8.14,14.74c-2.99,3.53-7.03,6.52-11.87,6.24c-2.19-0.13-4.7-0.82-6.3-2.4c-1.44-1.43-1.97-3.45-2.03-5.42
						c-0.12-4.01,1.27-8.07,2.85-11.71c2.57-5.9,3.14-12.28,0.33-18.23c-1.77-3.76-4.25-7.26-6.78-10.54
						c-0.48-0.63-1.57-0.01-1.08,0.63c2.35,3.04,4.6,6.27,6.36,9.69c1.5,2.91,2.27,6.1,2.18,9.38c-0.09,3.23-1.09,6.09-2.33,9.03
						c-1.58,3.74-2.97,7.91-2.76,12.03c0.1,1.9,0.59,3.82,1.78,5.34c1.34,1.71,3.35,2.62,5.42,3.11
						c10.73,2.56,17.9-8.73,21.68-16.99c2.59-5.66,4.37-11.48,4.84-17.72c0.36-4.86,0.1-9.77-0.65-14.59
						c-1.72-11.08-6.7-21.32-14.98-28.99C163.06,131.92,162.17,132.8,162.76,133.35L162.76,133.35z"/>
				</g>
			</g>
		</g>
	</g>
	<g>
		<g>
			<path class="st1" d="M510.13,165.94c4.25,0,8.49,0,12.74,0c10.19,0,20.39,0,30.58,0c12.33,0,24.66,0,36.99,0
				c10.65,0,21.3,0,31.96,0c3.49,0,6.97,0,10.46,0c1.1,0,2.19,0,3.29,0c0.51,0,1.22,0.13,1.72,0c0.06-0.02,0.15,0,0.22,0
				c-0.21-0.21-0.42-0.42-0.62-0.62c0,3.92,0,7.83,0,11.75c0,9.41,0,18.81,0,28.22c0,11.33,0,22.67,0,34c0,9.84,0,19.67,0,29.51
				c0,3.25,0,6.5,0,9.75c0,1.51-0.12,3.08,0,4.59c0.01,0.07,0,0.13,0,0.2c0,0.8,1.25,0.81,1.25,0c0-3.92,0-7.83,0-11.75
				c0-9.41,0-18.81,0-28.22c0-11.33,0-22.67,0-34c0-9.84,0-19.67,0-29.51c0-3.25,0-6.5,0-9.75c0-1.51,0.12-3.08,0-4.59
				c-0.01-0.07,0-0.13,0-0.2c0-0.34-0.29-0.62-0.62-0.62c-4.25,0-8.49,0-12.74,0c-10.19,0-20.39,0-30.58,0c-12.33,0-24.66,0-36.99,0
				c-10.65,0-21.3,0-31.96,0c-3.49,0-6.97,0-10.46,0c-1.65,0-3.36-0.12-5.01,0c-0.07,0.01-0.15,0-0.22,0
				C509.32,164.69,509.32,165.94,510.13,165.94L510.13,165.94z"/>
		</g>
	</g>
	<g>
		<g>
			<g>
				<path class="st8" d="M378.83,126.16c0.97-1.35,1.94-2.71,2.92-4.06"/>
				<path class="st9" d="M393.16,107.33c8.21-9.46,17.61-17.2,30.05-20.03c17.62-4.02,37.08,1.11,50.43,13.3
					c9.81,8.96,16.13,21.55,17.84,34.71"/>
				<path class="st8" d="M491.9,144.62c-0.07,1.66-0.21,3.33-0.43,4.98"/>
			</g>
		</g>
		<path class="st10" d="M352.96,125.23c-30.26-8.31-65.23,5.73-81.34,32.67c-16.1,26.93-11.92,64.39,9.72,87.11"/>
		<path class="st1" d="M533.86,122.53c-3.99-4.54-10.94-5.65-16.45-2.65c-2.7,1.47-4.7,3.64-5.93,6.11c-0.3,0.6-0.51,1.24-0.7,1.88
			l-3.58,12.24c-0.56,1.92,0.82,3.87,2.82,3.97l9.08,0.45c0.86,0.04,2.51,0.08,3.98,0.09c2.77,0.02,5.57-0.7,7.89-2.29
			c0.02-0.01,0.04-0.02,0.05-0.04C537.67,137.7,539.13,128.52,533.86,122.53z M519.85,135.62c-3.09-2.81-2.08-7.82,1.92-9.5
			c2.01-0.84,4.37-0.47,5.93,0.95c3.09,2.81,2.08,7.82-1.92,9.5C523.77,137.41,521.41,137.04,519.85,135.62z"/>
		<g>
			
				<ellipse transform="matrix(0.7071 -0.7071 0.7071 0.7071 -20.4408 336.752)" class="st2" cx="396.28" cy="193.05" rx="99.82" ry="99.82"/>
			<g>
				<g>
					<path class="st11" d="M393.96,93.18c-17.02,1.63-33.15,8.03-46.05,19.36c-10.54,9.27-18.67,21.3-24.12,34.2
						c-8.29,19.64-9.65,41.64-6.4,62.56c3.09,19.87,10.39,39.51,23.28,55.14c12.09,14.66,29.47,25.42,48.51,27.73
						c2.37,0.29,4.75,0.43,7.13,0.45c0.8,0.01,0.81-1.24,0-1.25c-19.05-0.14-37.15-9.27-50.28-22.8
						c-13.85-14.28-22.12-33.17-26.15-52.46c-4.23-20.25-4.16-41.82,2.32-61.6c4.51-13.78,12.22-26.85,22.43-37.18
						c11.46-11.59,26.19-19.16,42.23-21.97c2.35-0.41,4.71-0.72,7.09-0.95C394.75,94.36,394.76,93.11,393.96,93.18L393.96,93.18z"/>
				</g>
			</g>
			<g>
				<g>
					<path class="st11" d="M393.64,93.27c-12.22,7.04-21.96,18.5-29.45,30.27c-3.78,5.94-7.07,12.26-9.44,18.9
						c-2.77,7.78-4.36,16.02-5.37,24.2c-1.07,8.71-1.39,17.5-1.3,26.28c0.08,8.71,0.45,17.43,1.24,26.1
						c0.79,8.59,2.04,17.16,4.16,25.52c1.9,7.52,4.33,15.14,8.4,21.8c7.1,11.6,18.46,19.78,30.73,25.21
						c1.52,0.68,3.07,1.31,4.62,1.92c0.75,0.29,1.08-0.92,0.33-1.21c-12.42-4.84-24.33-12.14-32.28-23.07
						c-4.41-6.05-7.13-12.95-9.25-20.08c-2.43-8.16-3.96-16.56-4.94-25c-0.97-8.4-1.42-16.86-1.66-25.31
						c-0.23-8.46-0.17-16.95,0.51-25.39c0.69-8.58,2.04-17.12,4.37-25.41c1.88-6.69,4.67-13.03,8.1-19.07
						c6.95-12.24,16.29-24.02,27.94-32.1c1.27-0.88,2.58-1.71,3.92-2.48C394.97,93.95,394.34,92.87,393.64,93.27L393.64,93.27z"/>
				</g>
			</g>
			<g>
				<g>
					<path class="st11" d="M398.03,292.01c-2.54-25.55-4.02-51.2-4.78-76.87c-0.77-26.14-0.79-52.3-0.2-78.44
						c0.32-14.3,0.84-28.6,1.53-42.89c0.04-0.8-1.21-0.8-1.25,0c-1.24,25.66-1.91,51.35-1.94,77.04
						c-0.03,26.14,0.59,52.29,2.08,78.4c0.82,14.28,1.9,28.54,3.31,42.77C396.86,292.8,398.11,292.81,398.03,292.01L398.03,292.01z"
						/>
				</g>
			</g>
			<g>
				<g>
					<path class="st11" d="M397.84,293.31c13.06-10.26,24.55-22.59,33.41-36.67c8.7-13.83,14.77-29.37,17.06-45.58
						c1.15-8.16,1.24-16.37,0.8-24.59c-0.42-7.97-1.38-15.93-2.97-23.75c-2.92-14.29-8.05-28.31-16.21-40.46
						c-7.65-11.39-17.98-20.86-30.31-26.95c-1.53-0.75-3.08-1.45-4.65-2.11c-0.74-0.31-1.06,0.9-0.33,1.21
						c12.67,5.3,23.6,14.05,31.79,25.05c8.52,11.44,14.07,24.85,17.41,38.66c1.83,7.55,3.02,15.26,3.67,23
						c0.68,8.1,0.93,16.31,0.2,24.41c-1.44,16.16-6.72,31.82-14.76,45.88c-8.09,14.14-18.87,26.65-31.27,37.18
						c-1.54,1.31-3.11,2.59-4.71,3.84C396.33,292.92,397.22,293.8,397.84,293.31L397.84,293.31z"/>
				</g>
			</g>
			<g>
				<g>
					<path class="st11" d="M394.79,94.43c7.72,0,15.36,2.06,22.5,4.86c8.01,3.14,15.62,7.36,22.66,12.3
						c6.76,4.75,13.11,10.24,18.36,16.64c5.67,6.9,9.53,15.17,12.28,23.62c6.23,19.15,6.44,39.99,3.07,59.71
						c-1.69,9.93-4.38,19.72-8.36,28.99c-3.78,8.81-8.7,17.44-15.16,24.58c-6.04,6.69-13.37,12.19-21.21,16.6
						c-7.87,4.42-16.4,7.81-25.27,9.58c-2.07,0.41-4.17,0.73-6.27,0.94c-0.79,0.08-0.8,1.33,0,1.25c8.91-0.89,17.56-3.58,25.66-7.35
						c8.44-3.92,16.38-9.07,23.24-15.37c14.51-13.31,22.85-32.55,27.11-51.46c4.46-19.8,5.24-41,0.38-60.8
						c-2.28-9.27-5.8-18.65-11.17-26.6c-4.55-6.74-10.5-12.51-16.85-17.53c-6.92-5.47-14.47-10.16-22.47-13.87
						c-7.3-3.39-15.06-6.06-23.08-7.01c-1.8-0.21-3.61-0.32-5.43-0.32C393.99,93.19,393.99,94.44,394.79,94.43L394.79,94.43z"/>
				</g>
			</g>
			<g>
				<g>
					<path class="st11" d="M296.6,197.73c25.85,0,51.7,0,77.56,0c26.16,0,52.32,0,78.48,0c14.49,0,28.98,0,43.47,0
						c0.8,0,0.81-1.25,0-1.25c-25.85,0-51.7,0-77.56,0c-26.16,0-52.32,0-78.48,0c-14.49,0-28.98,0-43.47,0
						C295.79,196.48,295.79,197.73,296.6,197.73L296.6,197.73z"/>
				</g>
			</g>
			<g>
				<g>
					<path class="st11" d="M311.22,141.4c5.58,0,11.16,0,16.73,0c13.39,0,26.78,0,40.17,0c16.19,0,32.38,0,48.57,0
						c13.92,0,27.84,0,41.76,0c4.63,0,9.26,0,13.89,0c2.16,0,4.35,0.11,6.5,0c0.09,0,0.19,0,0.28,0c0.8,0,0.81-1.25,0-1.25
						c-5.58,0-11.16,0-16.73,0c-13.39,0-26.78,0-40.17,0c-16.19,0-32.38,0-48.57,0c-13.92,0-27.84,0-41.76,0c-4.63,0-9.26,0-13.89,0
						c-2.16,0-4.35-0.11-6.5,0c-0.09,0-0.19,0-0.28,0C310.42,140.15,310.42,141.4,311.22,141.4L311.22,141.4z"/>
				</g>
			</g>
			<g>
				<g>
					<path class="st11" d="M319.57,254.05c19.99,0,39.98,0,59.97,0c19.91,0,39.81,0,59.72,0c11.24,0,22.49,0,33.73,0
						c0.8,0,0.81-1.25,0-1.25c-19.99,0-39.98,0-59.97,0c-19.91,0-39.81,0-59.72,0c-11.24,0-22.49,0-33.73,0
						C318.77,252.8,318.76,254.05,319.57,254.05L319.57,254.05z"/>
				</g>
			</g>
		</g>
	</g>
	<g>
		<g>
			<g>
				<path class="st12" d="M139.06,381.14H70.59c-1.21,0-2.19-0.98-2.19-2.19v-49.34c0-1.98,1.6-3.58,3.58-3.58h67.09
					c1.21,0,2.19,0.98,2.19,2.19v50.74C141.25,380.16,140.27,381.14,139.06,381.14z"/>
			</g>
			<g>
				<g>
					<path class="st5" d="M117.12,326.38c0,18.28,0,36.56,0,54.83c0,0.8,1.25,0.81,1.25,0c0-18.28,0-36.56,0-54.83
						C118.37,325.57,117.12,325.57,117.12,326.38L117.12,326.38z"/>
				</g>
			</g>
			<rect x="87.68" y="326.03" class="st1" width="10.14" height="10.14"/>
			<rect x="126" y="371" class="st1" width="10.14" height="10.14"/>
		</g>
		<g>
			<g>
				<path class="st4" d="M206.46,380.51h-68.48c-1.21,0-2.19-0.98-2.19-2.19v-49.34c0-1.98,1.6-3.58,3.58-3.58h67.09
					c1.21,0,2.19,0.98,2.19,2.19v50.74C208.64,379.53,207.66,380.51,206.46,380.51z"/>
			</g>
			<g>
				<g>
					<path class="st5" d="M184.51,325.75c0,18.28,0,36.56,0,54.83c0,0.8,1.25,0.81,1.25,0c0-18.28,0-36.56,0-54.83
						C185.76,324.94,184.51,324.94,184.51,325.75L184.51,325.75z"/>
				</g>
			</g>
			<rect x="155.07" y="325.4" class="st1" width="10.14" height="10.14"/>
			<rect x="193.4" y="370.37" class="st1" width="10.14" height="10.14"/>
		</g>
		<g>
			<g>
				<path class="st4" d="M138.01,436.51H69.53c-1.21,0-2.19-0.98-2.19-2.19v-49.34c0-1.98,1.6-3.58,3.58-3.58h67.09
					c1.21,0,2.19,0.98,2.19,2.19v50.74C140.19,435.53,139.22,436.51,138.01,436.51z"/>
			</g>
			<g>
				<g>
					<path class="st5" d="M116.07,381.75c0,18.28,0,36.56,0,54.83c0,0.8,1.25,0.81,1.25,0c0-18.28,0-36.56,0-54.83
						C117.32,380.94,116.07,380.94,116.07,381.75L116.07,381.75z"/>
				</g>
			</g>
			<rect x="86.62" y="381.4" class="st1" width="10.14" height="10.14"/>
			<rect x="124.95" y="426.37" class="st1" width="10.14" height="10.14"/>
			<path class="st13" d="M67.4,435.65l-0.06-52.13c0-1.26,1.02-2.28,2.28-2.28l70.58,0.16"/>
		</g>
		<g>
			<g>
				<path class="st4" d="M206.47,436.51h-68.48c-1.21,0-2.19-0.98-2.19-2.19v-49.34c0-1.98,1.6-3.58,3.58-3.58h67.09
					c1.21,0,2.19,0.98,2.19,2.19v50.74C208.65,435.53,207.68,436.51,206.47,436.51z"/>
			</g>
			<g>
				<g>
					<path class="st5" d="M184.53,381.75c0,18.28,0,36.56,0,54.83c0,0.8,1.25,0.81,1.25,0c0-18.28,0-36.56,0-54.83
						C185.78,380.94,184.53,380.94,184.53,381.75L184.53,381.75z"/>
				</g>
			</g>
			<rect x="155.08" y="381.4" class="st1" width="10.14" height="10.14"/>
			<rect x="193.41" y="426.37" class="st1" width="10.14" height="10.14"/>
			<path class="st13" d="M135.86,435.65l-0.06-52.13c0-1.26,1.02-2.28,2.28-2.28l70.58,0.16"/>
		</g>
		<path class="st14" d="M211.45,440.21H62.23c-1,0-1.82-0.81-1.82-1.82l0,0c0-1,0.81-1.82,1.82-1.82h149.22c1,0,1.82,0.81,1.82,1.82
			l0,0C213.27,439.4,212.45,440.21,211.45,440.21z"/>
		<path class="st14" d="M211.45,458.35H62.23c-1,0-1.82-0.81-1.82-1.82l0,0c0-1,0.81-1.82,1.82-1.82h149.22c1,0,1.82,0.81,1.82,1.82
			l0,0C213.27,457.53,212.45,458.35,211.45,458.35z"/>
		<rect x="62.91" y="439.17" class="st14" width="18.6" height="15.55"/>
		<rect x="127.84" y="439.17" class="st14" width="18.59" height="15.55"/>
		<rect x="192.77" y="439.17" class="st14" width="18.6" height="15.55"/>
		<g>
			<g>
				<path class="st5" d="M62.5,441.12c19.33,0,38.65,0,57.98,0c19.41,0,38.82,0,58.23,0c10.91,0,21.83,0,32.74,0
					c0.8,0,0.81-1.25,0-1.25c-19.33,0-38.65,0-57.98,0c-19.41,0-38.82,0-58.23,0c-10.91,0-21.83,0-32.74,0
					C61.7,439.87,61.7,441.12,62.5,441.12L62.5,441.12z"/>
			</g>
		</g>
		<g>
			<g>
				<path class="st5" d="M62.5,455.34c19.33,0,38.65,0,57.98,0c19.41,0,38.82,0,58.23,0c10.91,0,21.83,0,32.74,0
					c0.8,0,0.81-1.25,0-1.25c-19.33,0-38.65,0-57.98,0c-19.41,0-38.82,0-58.23,0c-10.91,0-21.83,0-32.74,0
					C61.7,454.09,61.7,455.34,62.5,455.34L62.5,455.34z"/>
			</g>
		</g>
		<g>
			<g>
				<path class="st5" d="M69.9,326.02c18.06,0,36.12,0,54.17,0c17.79,0,35.57,0,53.36,0c10.28,0,20.55,0,30.83,0
					c0.8,0,0.81-1.25,0-1.25c-18.06,0-36.12,0-54.17,0c-17.79,0-35.57,0-53.36,0c-10.28,0-20.55,0-30.83,0
					C69.1,324.77,69.1,326.02,69.9,326.02L69.9,326.02z"/>
			</g>
		</g>
		<g>
			<g>
				<path class="st5" d="M136.49,380.22c0-18.27,0-36.55,0-54.82c0-0.8-1.25-0.81-1.25,0c0,18.27,0,36.55,0,54.82
					C135.24,381.02,136.49,381.02,136.49,380.22L136.49,380.22z"/>
			</g>
		</g>
	</g>
	<g>
		<g>
			<g>
				<path class="st5" d="M333.53,425c0,10.71-4.33,24.34-10.77,31.04c-3,3.13-12.11,2.76-19.16,2.76
					c-16.53,0-29.92-15.13-29.92-33.8s13.4-33.8,29.92-33.8c1.26,0,11.86-0.16,13.08,0.01C331.46,393.27,333.53,407.75,333.53,425z"
					/>
				<ellipse class="st14" cx="316.69" cy="425.01" rx="29.92" ry="33.8"/>
				<ellipse class="st2" cx="316.69" cy="425.01" rx="13.08" ry="15.16"/>
			</g>
			<rect x="234.07" y="425.36" class="st5" width="129.78" height="10.09"/>
			<rect x="209.32" y="367.81" class="st5" width="475.62" height="59.72"/>
		</g>
		<g>
			<g>
				<path class="st5" d="M665.02,425.48c0,10.71-4.33,24.34-10.77,31.04c-3,3.13-12.11,2.76-19.16,2.76
					c-16.53,0-29.92-15.13-29.92-33.8c0-18.67,13.4-33.8,29.92-33.8c1.26,0,11.86-0.16,13.08,0.01
					C662.95,393.75,665.02,408.23,665.02,425.48z"/>
				<ellipse class="st14" cx="648.18" cy="425.49" rx="29.92" ry="33.8"/>
				<ellipse class="st2" cx="648.18" cy="425.49" rx="13.08" ry="15.16"/>
			</g>
			<path class="st12" d="M697.14,337.31c-2.13-6.8-8.33-11.53-15.42-12.33l-42.13-4.75l-23.29-47.06c-0.8-1.61-1.89-3.06-3.22-4.28
				c-4.16-3.8-12.87-3.18-16.08-3.2c-10.71-0.04-26.08-0.07-26.08,0v19.75v134.49c0,0,28.86,0,34.82,0c4.66,0,7.41-11.86,8.21-15.89
				c0.04-0.19,0.06-0.3,0.07-0.36c0.01-0.05,0.03-0.12,0.04-0.19c3.17-13.89,7.45-15.88,9.85-18.5c5-5.47,14.24-7.14,20.97-7.14
				c29.11-1.67,34.79,23.25,34.79,23.25l2.52,14.04H698v-19.64V342.9C698,340.97,697.7,339.09,697.14,337.31z"/>
			<rect x="570.93" y="350.8" class="st4" width="127.06" height="14.76"/>
			<g>
				<g>
					<path class="st5" d="M570.93,406.05c9.66,0,19.33,0,28.99,0c1.38,0,2.76,0,4.14,0c0.33,0,0.63-0.29,0.62-0.62
						c-0.11-3.91,0.59-7.95,1.61-11.7c2.11-7.73,6.45-14.92,13.39-19.19c5.31-3.27,11.52-4.54,17.7-4.65
						c0.34-0.01,0.63-0.28,0.62-0.62c-0.01-9-0.02-18.01-0.03-27.01c0-4.63-0.01-9.26-0.01-13.9c0-0.62,0.09-1.31-0.12-1.9
						c-0.31-0.85-0.85-1.69-1.25-2.5c-4.89-9.76-9.79-19.52-14.68-29.29c-2.01-4-4.01-8-6.02-12c-0.37-0.74-0.72-1.5-1.13-2.21
						c-2.15-3.72-5.96-6.17-10.02-7.38c-4.6-1.37-9.69-0.92-14.44-0.92c-5.37,0-10.73,0-16.1,0c-0.35,0-0.7,0-1.05,0
						c-0.8,0-0.81,1.25,0,1.25c8.33,0,16.66-0.02,24.98,0c6.59,0.01,13.11,2.8,16.16,8.89c1.69,3.37,3.38,6.74,5.07,10.11
						c5.02,10.01,10.04,20.03,15.06,30.04c0.65,1.31,1.31,2.61,1.96,3.92c0.13,0.25,0.26,0.51,0.38,0.76
						c-0.15-0.31-0.04-0.31-0.07,0.09c-0.09,1.33,0,2.71,0,4.04c0,2.46,0,4.91,0.01,7.37c0.01,10.01,0.02,20.03,0.03,30.04
						c0,0.2,0,0.4,0,0.6c0.21-0.21,0.42-0.42,0.62-0.62c-10.36,0.18-20.26,3.9-26.53,12.44c-4.2,5.72-6.39,12.76-7.16,19.75
						c-0.17,1.52-0.3,3.07-0.26,4.61c0.21-0.21,0.42-0.42,0.62-0.62c-9.67,0-19.33,0-28.99,0c-1.38,0-2.76,0-4.14,0
						C570.13,404.8,570.13,406.05,570.93,406.05L570.93,406.05z"/>
				</g>
			</g>
			<g>
				<path class="st1" d="M574.11,318.68c0.44-11.72,0.88-23.44,1.32-35.16c0.06-1.68,0.2-3.55,1.38-4.7
					c1.11-1.08,2.78-1.14,4.3-1.14c4.5,0,8.99,0,13.49,0c3.81,0,7.79,0.04,11.15,1.94c3.32,1.88,5.71,5.19,7.6,8.61
					c6.91,12.47,10.95,21.12,16.18,31.87c1.91,3.93-0.75,8.6-4.94,8.65c-13.74,0.16-30.69,1.24-42.31,0.43
					c-2.11-0.15-4.38-0.36-5.98-1.81C574.06,325.35,574,321.79,574.11,318.68z"/>
			</g>
			<path class="st15" d="M624.1,308.85l-23.65,20.26c-6.65,0.12-20.81,1.14-23.6-1.3l40-33.11L624.1,308.85z"/>
			<polygon class="st15" points="613.35,288.23 574.08,321.49 574.36,312.12 609.58,282.76 			"/>
			<path class="st5" d="M625.69,328.82v-16.8l4.31,8.88c0.11,0.22,0.16,0.47,0.16,0.71v5.58c0,0.9-0.73,1.63-1.63,1.63H625.69z"/>
			<g>
				<g>
					<path class="st5" d="M615.16,311.8c1.58,1.63,2.97,3.52,4.42,5.27c2.23,2.68,4.47,5.37,6.7,8.05c0.51,0.61,1.02,1.22,1.53,1.84
						c0.51,0.62,1.39-0.27,0.88-0.88c-3.64-4.39-7.28-8.77-10.94-13.14c-0.56-0.67-1.1-1.39-1.7-2.02
						C615.48,310.33,614.6,311.22,615.16,311.8L615.16,311.8z"/>
				</g>
			</g>
			<path class="st12" d="M609.31,308.74v13.77c0,1.69,1.22,3.06,2.71,3.06h4.71c1.5,0,2.71-1.37,2.71-3.06v-13.54
				c0-1.64-1.15-2.99-2.6-3.06l-4.71-0.23C610.6,305.6,609.31,306.99,609.31,308.74z"/>
			<path class="st4" d="M683.39,325.24c0,0-2.24,10.98,2.18,13c4.42,2.03,12.03,0.85,12.03,0.85S695.95,326.43,683.39,325.24z"/>
			<path class="st5" d="M699.72,426.96h-16.9l-8.16-36.23h25.06c3.3,0,5.98,2.68,5.98,5.98v24.28
				C705.7,424.28,703.02,426.96,699.72,426.96z"/>
			<path class="st1" d="M698,383.76h-7.44c-2.43,0-4.4-1.97-4.4-4.4v0c0-2.43,1.97-4.4,4.4-4.4H698V383.76z"/>
		</g>
		<g>
			<rect x="186.27" y="227.07" class="st2" width="100.28" height="195.88"/>
			<path class="st1" d="M286.55,418.12v-191h273.31c6.9,0,12.49,5.59,12.49,12.49v178.52H439.82v-4.36
				c0-19.21-15.57-34.79-34.79-34.79h-20.95c-13.94,0-22.09,9.34-23.76,23.18l-5.39,15.96H286.55z"/>
			<rect x="194.96" y="241.75" class="st14" width="84.18" height="61.52"/>
			<rect x="194.96" y="303.27" class="st14" width="84.18" height="107.65"/>
			<polygon class="st5" points="279.14,332.07 194.96,303.27 279.14,303.27 			"/>
			<g>
				<path class="st4" d="M285.01,402.11c0,0.99-0.8,1.79-1.79,1.79c-0.99,0-1.79-0.8-1.79-1.79c0-0.99,0.8-1.79,1.79-1.79
					C284.21,400.32,285.01,401.12,285.01,402.11z"/>
				<path class="st4" d="M285.01,407.41c0,0.99-0.8,1.79-1.79,1.79c-0.99,0-1.79-0.8-1.79-1.79c0-0.99,0.8-1.79,1.79-1.79
					C284.21,405.62,285.01,406.42,285.01,407.41z"/>
				<path class="st4" d="M285.01,412.71c0,0.99-0.8,1.79-1.79,1.79c-0.99,0-1.79-0.8-1.79-1.79c0-0.99,0.8-1.79,1.79-1.79
					C284.21,410.92,285.01,411.72,285.01,412.71z"/>
			</g>
			<g>
				<path class="st4" d="M192.2,402.11c0,0.99-0.8,1.79-1.79,1.79c-0.99,0-1.79-0.8-1.79-1.79c0-0.99,0.8-1.79,1.79-1.79
					C191.4,400.32,192.2,401.12,192.2,402.11z"/>
				<path class="st4" d="M192.2,407.41c0,0.99-0.8,1.79-1.79,1.79c-0.99,0-1.79-0.8-1.79-1.79c0-0.99,0.8-1.79,1.79-1.79
					C191.4,405.62,192.2,406.42,192.2,407.41z"/>
				<path class="st4" d="M192.2,412.71c0,0.99-0.8,1.79-1.79,1.79c-0.99,0-1.79-0.8-1.79-1.79c0-0.99,0.8-1.79,1.79-1.79
					C191.4,410.92,192.2,411.72,192.2,412.71z"/>
			</g>
			<g>
				<g>
					<path class="st5" d="M195.72,290.49c21.55,0,43.1,0,64.65,0c6.13,0,12.27,0,18.4,0c0.8,0,0.81-1.25,0-1.25
						c-21.55,0-43.1,0-64.65,0c-6.13,0-12.27,0-18.4,0C194.91,289.24,194.91,290.49,195.72,290.49L195.72,290.49z"/>
				</g>
			</g>
			<g>
				<g>
					<path class="st5" d="M195.72,276.25c21.55,0,43.1,0,64.65,0c6.13,0,12.27,0,18.4,0c0.8,0,0.81-1.25,0-1.25
						c-21.55,0-43.1,0-64.65,0c-6.13,0-12.27,0-18.4,0C194.91,275,194.91,276.25,195.72,276.25L195.72,276.25z"/>
				</g>
			</g>
			<g>
				<g>
					<path class="st5" d="M195.72,262.01c21.55,0,43.1,0,64.65,0c6.13,0,12.27,0,18.4,0c0.8,0,0.81-1.25,0-1.25
						c-21.55,0-43.1,0-64.65,0c-6.13,0-12.27,0-18.4,0C194.91,260.76,194.91,262.01,195.72,262.01L195.72,262.01z"/>
				</g>
			</g>
			<g>
				<g>
					<path class="st5" d="M195.34,248.73c21.55,0,43.1,0,64.65,0c6.13,0,12.27,0,18.4,0c0.8,0,0.81-1.25,0-1.25
						c-21.55,0-43.1,0-64.65,0c-6.13,0-12.27,0-18.4,0C194.54,247.48,194.54,248.73,195.34,248.73L195.34,248.73z"/>
				</g>
			</g>
			<rect x="192.1" y="410.92" class="st1" width="87.04" height="5.98"/>
			<g>
				<path class="st5" d="M420.77,424.42c0,10.71-4.33,24.34-10.77,31.04c-3,3.13-12.11,2.76-19.16,2.76
					c-16.53,0-29.92-15.13-29.92-33.8s13.4-33.8,29.92-33.8c1.26,0,11.86-0.16,13.08,0.01C418.7,392.69,420.77,407.18,420.77,424.42
					z"/>
				<ellipse class="st14" cx="403.92" cy="424.43" rx="29.92" ry="33.8"/>
				<ellipse class="st2" cx="403.92" cy="424.43" rx="13.08" ry="15.16"/>
			</g>
			<g>
				<g>
					<path class="st4" d="M270.65,410.85h-68.48c-1.21,0-2.19-0.98-2.19-2.19v-49.34c0-1.98,1.6-3.58,3.58-3.58h67.09
						c1.21,0,2.19,0.98,2.19,2.19v50.74C272.83,409.88,271.86,410.85,270.65,410.85z"/>
				</g>
				<g>
					<g>
						<path class="st5" d="M248.71,356.09c0,18.28,0,36.56,0,54.83c0,0.8,1.25,0.81,1.25,0c0-18.28,0-36.56,0-54.83
							C249.96,355.29,248.71,355.28,248.71,356.09L248.71,356.09z"/>
					</g>
				</g>
				<rect x="219.26" y="355.75" class="st1" width="10.14" height="10.14"/>
				<rect x="257.59" y="400.71" class="st1" width="10.14" height="10.14"/>
			</g>
			<path class="st5" d="M244.22,298.2h-13.95c-0.9,0-1.63-0.73-1.63-1.63l0,0c0-0.9,0.73-1.63,1.63-1.63h13.95
				c0.9,0,1.63,0.73,1.63,1.63l0,0C245.85,297.47,245.12,298.2,244.22,298.2z"/>
			<g>
				<g>
					<path class="st0" d="M287.42,298.82c14.94,0.26,27.49-9.76,37.36-19.99c11.07-11.48,19.5-25.21,30.7-36.58
						c6.01-6.1,12.88-11.59,20.99-14.58c0.75-0.28,0.42-1.48-0.33-1.21c-13.97,5.16-24.22,17.02-33.26,28.35
						c-9.95,12.47-19.25,25.57-32.47,34.87c-6.81,4.79-14.55,8.04-22.98,7.89C286.61,297.56,286.61,298.81,287.42,298.82
						L287.42,298.82z"/>
				</g>
			</g>
			<g>
				<g>
					<path class="st0" d="M404.8,228.18c-12.52,10.75-24.68,21.95-36.22,33.75c-11.46,11.72-22.31,24.03-32.28,37.03
						c-5.01,6.53-9.8,13.24-14.32,20.13c-4.42,6.74-8.71,13.7-11.31,21.38c-2.28,6.72-3.1,13.9-1.36,20.84
						c1.5,5.98,4.79,11.67,9.91,15.23c6.12,4.25,14.01,4.49,20.95,2.3c7.53-2.38,13.78-7.46,19.35-12.9
						c12.03-11.77,22.95-24.61,35.43-35.93c12.14-11.01,25.77-20.73,41.32-26.26c7.51-2.68,15.43-4.36,23.42-4.54
						c6.33-0.14,13.81,0.95,18.16,6.04c5.39,6.3,2.66,15.18-0.87,21.66c-3.78,6.94-8.88,13.3-14.12,19.2
						c-10.6,11.92-22.96,22.11-35.55,31.85c-3.17,2.45-6.36,4.88-9.55,7.3c-0.63,0.48-0.01,1.57,0.63,1.08
						c12.63-9.59,25.29-19.24,36.68-30.31c5.66-5.51,10.99-11.36,15.76-17.67c4.55-6.01,9.27-12.63,10.85-20.14
						c1.39-6.64-0.66-13.32-6.64-16.93c-5.71-3.44-12.85-3.65-19.31-3.11c-15.77,1.31-30.67,7.88-43.67,16.66
						c-13.89,9.38-25.76,21.36-37.28,33.44c-5.74,6.03-11.34,12.25-17.38,17.98c-5.91,5.61-12.7,10.62-20.85,12.23
						c-7.5,1.47-15.15-0.47-20.3-6.27c-4.41-4.96-6.54-11.77-6.64-18.33c-0.12-8.06,2.89-15.89,6.64-22.89
						c3.87-7.23,8.57-14.06,13.3-20.74c9.62-13.58,20.25-26.43,31.56-38.63c11.23-12.11,23.12-23.57,35.45-34.55
						c3.03-2.69,6.08-5.36,9.15-8C406.3,228.54,405.41,227.66,404.8,228.18L404.8,228.18z"/>
				</g>
			</g>
			<g>
				<g>
					<path class="st0" d="M451.59,415.04c10.65-17.38,26.3-31.65,44.85-40.18c4.68-2.15,9.52-3.85,14.46-5.28
						c5.43-1.57,10.93-2.91,16.27-4.77c5.1-1.77,10.03-4.05,14.4-7.26c4.08-3,7.65-6.65,10.75-10.65c3.87-4.99,6.87-10.53,9.9-16.06
						c3.27-5.96,6.46-11.97,9.82-17.88c0.4-0.7-0.68-1.33-1.08-0.63c-2.97,5.22-5.8,10.51-8.68,15.78
						c-2.76,5.07-5.44,10.23-8.73,14.98c-3.03,4.39-6.56,8.45-10.67,11.86c-4.4,3.64-9.47,6.26-14.82,8.21
						c-10.05,3.68-20.64,5.53-30.49,9.83c-9.04,3.94-17.46,9.27-24.99,15.63c-8.68,7.34-16.13,16.09-22.07,25.78
						C450.09,415.1,451.17,415.73,451.59,415.04L451.59,415.04z"/>
				</g>
			</g>
			<g>
				<g>
					<path class="st0" d="M450.72,228.37c-8.23,7.73-18.21,18.18-14.5,30.6c1.62,5.44,6.11,9.22,10.97,11.79
						c5.36,2.83,11.25,4.6,17.22,5.52c12.78,1.98,25.75,0.23,38.29-2.48c13.58-2.94,27.05-7.2,40.94-8.46
						c6.52-0.59,14.62-0.44,19.85,4.11c4.42,3.85,5.82,10.15,7.41,15.54c0.23,0.77,1.43,0.44,1.21-0.33
						c-1.38-4.7-2.62-9.8-5.61-13.78c-3.12-4.15-8.09-6.01-13.1-6.69c-6.24-0.85-12.6,0.09-18.76,1.17
						c-6.77,1.19-13.45,2.81-20.12,4.42c-12.85,3.1-25.83,6.2-39.13,6.12c-6.29-0.04-12.58-0.79-18.62-2.6
						c-5.63-1.68-11.61-4.21-15.72-8.54c-4.95-5.2-5.19-12.62-2.61-19.03c2.67-6.63,8.08-11.67,13.18-16.46
						C452.19,228.71,451.31,227.82,450.72,228.37L450.72,228.37z"/>
				</g>
			</g>
			<g>
				<g>
					<path class="st0" d="M286.93,392.04c5.56-1.64,11.25-2.96,17.01-3.69c5.23-0.67,10.55-0.87,15.73,0.3
						c4.67,1.06,9.17,3.18,12.52,6.66c2.92,3.04,5.32,6.6,7.56,10.17c2.35,3.76,4.58,7.66,6.33,11.74c0.32,0.74,1.39,0.1,1.08-0.63
						c-1.63-3.81-3.69-7.45-5.85-10.98c-2.27-3.69-4.72-7.35-7.64-10.56c-6.95-7.63-17.69-9.17-27.49-8.2
						c-6.63,0.65-13.18,2.1-19.57,3.98C285.83,391.06,286.16,392.27,286.93,392.04L286.93,392.04z"/>
				</g>
			</g>
			<g>
				<g>
					<path class="st0" d="M490.93,420.53c8.46-8.11,18.51-14.53,29.44-18.79c5.38-2.1,10.96-3.68,16.64-4.7
						c5.75-1.03,11.6-1.43,17.39-2.19c6.22-0.82,12.48-1.95,18.26-4.49c0.73-0.32,0.1-1.4-0.63-1.08
						c-10.86,4.77-23.04,4.45-34.54,6.41c-11.3,1.93-22.22,6.07-32,12.04c-5.56,3.4-10.74,7.4-15.45,11.91
						C489.47,420.21,490.35,421.09,490.93,420.53L490.93,420.53z"/>
				</g>
			</g>
			<g>
				<path class="st2" d="M183.75,424.61c7.5-0.24,15.04-0.02,22.55,0.02c14.86,0.07,29.73,0.17,44.59,0.27
					c15.9,0.11,31.8,0.22,47.7,0.34c10.83,0.08,21.66,0.16,32.5,0.21c4.9,0.02,9.77-0.03,14.61-1.01
					c6.56-1.33,12.45-4.69,16.03-10.47c3-4.84,4.01-10.98,6.21-15.86c2.27-5.03,5.52-9.43,10.78-11.61c6-2.48,12.93-2.34,19.3-2.42
					c6.38-0.08,13.21-0.05,19.04,2.92c2.51,1.28,4.73,2.88,6.64,4.95c1.87,2.02,3.07,4.54,4.22,7.12c0.03,0.06,0.37,0.86,0.12,0.26
					c0.08,0.2,0.16,0.39,0.24,0.59c0.17,0.42,0.34,0.85,0.49,1.28c0.39,1.04,0.73,2.09,1.09,3.14c0.49,1.44,0.98,2.88,1.57,4.28
					c1.47,3.48,3.42,6.77,6.03,9.51c3.15,3.3,7.22,5.31,11.81,5.33c1.27,0.01,2.55-0.02,3.82-0.03c12.08-0.08,24.16-0.17,36.24-0.25
					c15.96-0.11,31.93-0.22,47.89-0.34c10.14-0.07,20.27-0.14,30.41-0.21c0.51,0,1.02-0.01,1.53-0.01c5.86-0.04,5.87-9.15,0-9.11
					c-7.3,0.05-14.61,0.1-21.91,0.15c-15.45,0.11-30.9,0.22-46.35,0.33c-13.86,0.1-27.72,0.19-41.59,0.29
					c-3.36,0.02-6.73,0.09-10.09,0.07c-0.09,0-0.19,0-0.28,0c-0.22,0-0.43-0.01-0.65-0.02c-0.73-0.02,0.65,0.16-0.05,0
					c-0.47-0.11-0.93-0.23-1.39-0.39c0.79,0.27-0.67-0.37-0.92-0.52c-0.22-0.13-1.21-0.88-0.56-0.35c-0.42-0.34-0.82-0.71-1.2-1.09
					c-0.33-0.33-0.64-0.69-0.96-1.04c-0.13-0.15-0.26-0.31-0.38-0.46c0.62,0.75-0.17-0.24-0.23-0.33c-0.97-1.37-1.81-2.83-2.53-4.35
					c-0.14-0.29-0.26-0.59-0.4-0.88c-0.33-0.67,0.4,1.13,0.14,0.34c-0.09-0.28-0.22-0.57-0.32-0.85
					c-1.79-4.94-3.27-10.17-6.09-14.65c-3.55-5.63-8.99-9.68-15.12-12.13c-6.6-2.63-13.98-2.77-20.99-2.66
					c-6.86,0.11-14.13,0.19-20.64,2.6c-6.26,2.31-11.26,6.54-14.71,12.26c-3.12,5.18-4.31,11-6.58,16.54
					c-0.88,2.16-2.27,4.52-4.23,6.07c-2.12,1.67-4.69,2.51-7.3,3.08c-3.07,0.68-6.22,0.82-9.36,0.82c-8.61,0-17.22-0.09-25.82-0.15
					c-15.29-0.11-30.58-0.22-45.86-0.32c-15.7-0.11-31.4-0.22-47.1-0.31c-9.84-0.06-19.68-0.14-29.51-0.1c-0.82,0-1.65,0-2.47,0.03
					C177.9,415.68,177.88,424.8,183.75,424.61L183.75,424.61z"/>
			</g>
		</g>
	</g>
	<path class="st1" d="M642.21,283.34c0,2.34-1.9,4.24-4.24,4.24c-2.34,0-4.24-1.9-4.24-4.24c0-2.34,1.9-4.24,4.24-4.24
		C640.31,279.1,642.21,281,642.21,283.34z"/>
	<path class="st1" d="M512.58,165.32c0,2.34-1.9,4.24-4.24,4.24c-2.34,0-4.24-1.9-4.24-4.24c0-2.34,1.9-4.24,4.24-4.24
		C510.69,161.08,512.58,162.98,512.58,165.32z"/>
	<g>
		<g>
			<g>
				<path class="st5" d="M672.5,234.41l-76-0.15c-4.44-0.01-8.03-3.62-8.03-8.06l0.29-146.63c0.01-4.44,3.62-8.03,8.06-8.03l76,0.15
					c4.44,0.01,8.03,3.62,8.03,8.06l-0.29,146.63C680.55,230.83,676.94,234.42,672.5,234.41z"/>
				
					<rect x="592.57" y="86.36" transform="matrix(1 1.948621e-03 -1.948621e-03 1 0.2891 -1.2361)" class="st0" width="83.85" height="122.73"/>
				<path class="st14" d="M645.33,80.52l-21.06-0.24c-0.46-0.01-0.83-0.38-0.83-0.85l0-0.18c0.01-0.46,0.38-0.83,0.85-0.83
					l21.06,0.24c0.46,0.01,0.83,0.38,0.83,0.85l0,0.18C646.17,80.16,645.79,80.53,645.33,80.52z"/>
				<g>
					<path class="st14" d="M643.24,220.92c-0.05,4.38-3.64,7.88-8.02,7.83c-4.38-0.05-7.88-3.64-7.83-8.02
						c0.05-4.38,3.64-7.88,8.02-7.83C639.79,212.95,643.29,216.54,643.24,220.92z"/>
				</g>
				<g>
					<g>
						<path class="st4" d="M663.84,173.13l-56.18-0.11c-1.21,0-2.18-0.98-2.18-2.19l0.08-40.04c0-1.98,1.61-3.57,3.58-3.57
							l54.79,0.11c1.21,0,2.18,0.98,2.18,2.19l-0.08,41.43C666.03,172.15,665.05,173.13,663.84,173.13z"/>
					</g>
					<g>
						<g>
							<path class="st5" d="M645.96,127.58c-0.03,15.19-0.06,30.38-0.09,45.57c0,0.8,1.25,0.81,1.25,0
								c0.03-15.19,0.06-30.38,0.09-45.57C647.21,126.77,645.96,126.77,645.96,127.58L645.96,127.58z"/>
						</g>
					</g>
					
						<rect x="621.59" y="127.25" transform="matrix(1 1.957265e-03 -1.957265e-03 1 0.2585 -1.2246)" class="st1" width="8.43" height="8.43"/>
					
						<rect x="653.37" y="164.69" transform="matrix(1 1.945406e-03 -1.945406e-03 1 0.3298 -1.2789)" class="st1" width="8.43" height="8.43"/>
				</g>
			</g>
		</g>
		
			<ellipse transform="matrix(0.1419 -0.9899 0.9899 0.1419 380.3581 776.5832)" class="st16" cx="638.11" cy="168.9" rx="21.11" ry="21.11"/>
		<g>
			<g>
				<path class="st0" d="M627.9,169.74c2.06,2.29,4.12,4.58,6.17,6.87c0.88,0.98,2.66,0.95,3.54,0c3.15-3.42,6.3-6.84,9.46-10.26
					c0.45-0.48,0.89-0.97,1.34-1.45c0.91-0.99,0.98-2.55,0-3.54c-0.93-0.93-2.62-1-3.54,0c-3.15,3.42-6.3,6.84-9.46,10.26
					c-0.45,0.48-0.89,0.97-1.34,1.45c1.18,0,2.36,0,3.54,0c-2.06-2.29-4.12-4.58-6.17-6.87c-0.9-1-2.62-0.92-3.54,0
					C626.9,167.2,627,168.73,627.9,169.74L627.9,169.74z"/>
			</g>
		</g>
		<g>
			<g>
				<path class="st5" d="M609.76,112.67c14.14,0,28.27,0,42.41,0c3.69,0,7.38,0,11.08,0c0.8,0,0.81-1.25,0-1.25
					c-14.14,0-28.27,0-42.41,0c-3.69,0-7.38,0-11.08,0C608.95,111.42,608.95,112.67,609.76,112.67L609.76,112.67z"/>
			</g>
		</g>
		<g>
			<g>
				<path class="st5" d="M628.11,106.53c5.59,0,11.18,0,16.77,0c0.8,0,0.81-1.25,0-1.25c-5.59,0-11.18,0-16.77,0
					C627.31,105.28,627.31,106.53,628.11,106.53L628.11,106.53z"/>
			</g>
		</g>
	</g>
	<path class="st1" d="M249.48,115.01c-3.42,3.47-3.92,9.14-1.17,13.4c1.34,2.09,3.2,3.57,5.26,4.42c0.5,0.21,1.03,0.34,1.56,0.45
		l10.06,2.17c1.58,0.34,3.07-0.89,3.03-2.5l-0.17-7.34c-0.01-0.69-0.08-2.02-0.16-3.21c-0.15-2.23-0.89-4.45-2.31-6.22
		c-0.01-0.01-0.02-0.03-0.03-0.04C261.47,111.06,253.99,110.42,249.48,115.01z M260.84,125.53c-2.08,2.65-6.18,2.13-7.76-0.99
		c-0.8-1.57-0.63-3.49,0.42-4.83c2.08-2.65,6.18-2.13,7.76,0.99C262.05,122.27,261.88,124.19,260.84,125.53z"/>
	<path class="st1" d="M674.81,265.58c-6.27,0.71-11.38,6-12.09,12.52c-0.35,3.19,0.31,6.2,1.7,8.73c0.34,0.62,0.76,1.18,1.2,1.72
		l8.35,10.37c1.31,1.63,3.81,1.61,5.09-0.05l5.81-7.52c0.55-0.71,1.57-2.1,2.46-3.36c1.67-2.37,2.73-5.19,2.74-8.13
		c0-0.02,0-0.04,0-0.07C690.08,271.37,683.09,264.64,674.81,265.58z M677.67,285.4c-4.25,0.97-7.95-2.89-7-7.31
		c0.48-2.23,2.21-4.02,4.35-4.51c4.25-0.97,7.95,2.89,7,7.31C681.54,283.12,679.81,284.91,677.67,285.4z"/>
	<g>
		<g>
			<path class="st2" d="M719.16,119.01c2-2.68,0.56-6.97-2.43-8.46c-2.99-1.5-6.81-0.51-9.27,1.76c2.19-2.32,1.04-6.56-1.72-8.16
				c-2.76-1.61-6.38-1-9.1,0.68c-2.72,1.68-4.73,4.27-6.68,6.8c0.11-1.83-1.65-3.42-3.49-3.54c-1.83-0.12-3.53,0.98-4.77,2.34
				c-3.01,3.28-4.75,7.27-5.44,8.97L719.16,119.01z"/>
		</g>
		<g>
			<path class="st1" d="M527.37,87.18c2-2.68,0.56-6.97-2.43-8.46c-2.99-1.5-6.81-0.51-9.27,1.76c2.19-2.32,1.04-6.56-1.72-8.16
				c-2.76-1.61-6.38-1-9.1,0.68c-2.72,1.68-4.73,4.27-6.68,6.8c0.11-1.83-1.65-3.42-3.49-3.54c-1.83-0.12-3.53,0.98-4.77,2.34
				c-3.01,3.28-4.75,7.27-5.44,8.97L527.37,87.18z"/>
		</g>
		<g>
			<path class="st11" d="M156.88,62.07c2-2.68,0.56-6.97-2.43-8.46c-2.99-1.5-6.81-0.51-9.27,1.76c2.19-2.32,1.04-6.56-1.72-8.16
				c-2.76-1.61-6.38-1-9.1,0.68c-2.72,1.68-4.73,4.27-6.68,6.8c0.11-1.83-1.65-3.42-3.49-3.54c-1.83-0.12-3.53,0.98-4.77,2.34
				c-3.01,3.28-4.75,7.27-5.44,8.97L156.88,62.07z"/>
		</g>
		<g>
			<path class="st11" d="M622.03,55.35c2-2.68,0.56-6.97-2.43-8.46c-2.99-1.5-6.81-0.51-9.27,1.76c2.19-2.32,1.04-6.56-1.72-8.16
				c-2.76-1.61-6.38-1-9.1,0.68c-2.72,1.68-4.73,4.27-6.68,6.8c0.11-1.83-1.65-3.42-3.49-3.54c-1.83-0.12-3.53,0.98-4.77,2.34
				c-3.01,3.28-4.75,7.27-5.44,8.97L622.03,55.35z"/>
		</g>
		<g>
			<path class="st11" d="M441.72,57.04c2-2.68,0.56-6.97-2.43-8.46c-2.99-1.5-6.81-0.51-9.27,1.76c2.19-2.32,1.04-6.56-1.72-8.16
				c-2.76-1.61-6.38-1-9.1,0.68c-2.72,1.68-4.73,4.27-6.68,6.8c0.11-1.83-1.65-3.42-3.49-3.54c-1.83-0.12-3.53,0.98-4.77,2.34
				c-3.01,3.28-4.75,7.27-5.44,8.97L441.72,57.04z"/>
		</g>
		<g>
			<path class="st11" d="M545.62,212.03c2-2.68,0.56-6.97-2.43-8.46c-2.99-1.5-6.81-0.51-9.27,1.76c2.19-2.32,1.04-6.56-1.72-8.16
				c-2.76-1.61-6.38-1-9.1,0.68c-2.72,1.68-4.73,4.27-6.68,6.8c0.11-1.83-1.65-3.42-3.49-3.54c-1.83-0.12-3.53,0.98-4.77,2.34
				c-3.01,3.28-4.75,7.27-5.44,8.97L545.62,212.03z"/>
		</g>
		<g>
			<path class="st2" d="M267.41,80.35c2-2.68,0.56-6.97-2.43-8.46c-2.99-1.5-6.81-0.51-9.27,1.76c2.19-2.32,1.04-6.56-1.72-8.16
				c-2.76-1.61-6.38-1-9.1,0.68c-2.72,1.68-4.73,4.27-6.68,6.8c0.11-1.83-1.65-3.42-3.49-3.54c-1.83-0.12-3.53,0.98-4.77,2.34
				c-3.01,3.28-4.75,7.27-5.44,8.97L267.41,80.35z"/>
		</g>
		<g>
			<path class="st2" d="M79.58,122.33c2-2.68,0.56-6.97-2.43-8.46c-2.99-1.5-6.81-0.51-9.27,1.76c2.19-2.32,1.04-6.56-1.72-8.16
				c-2.76-1.61-6.38-1-9.1,0.68c-2.72,1.68-4.73,4.27-6.68,6.8c0.11-1.83-1.65-3.42-3.49-3.54c-1.83-0.12-3.53,0.98-4.77,2.34
				c-3.01,3.28-4.75,7.27-5.44,8.97L79.58,122.33z"/>
		</g>
	</g>
	<path class="st17" d="M330.88,43.64c-8.92,3.47-14.36,13.21-12.88,23.06c0.73,4.82,2.86,8.98,5.88,12.15
		c0.73,0.77,1.57,1.43,2.42,2.06l16.28,11.98c2.56,1.88,6.21,0.88,7.44-2.05l5.61-13.29c0.53-1.25,1.49-3.69,2.31-5.88
		c1.54-4.12,1.98-8.68,0.87-13c-0.01-0.03-0.02-0.07-0.03-0.1C355.54,46.22,342.66,39.05,330.88,43.64z M342.76,71.63
		c-5.86,3.08-12.78-1.16-13.1-8.01c-0.16-3.46,1.68-6.76,4.63-8.31c5.86-3.08,12.78,1.16,13.1,8.01
		C347.56,66.77,345.72,70.08,342.76,71.63z"/>
	<g>
		<g>
			<g>
				<path class="st4" d="M526.45,390.93h-44.68c-1.21,0-2.19-0.98-2.19-2.19V357.4c0-1.98,1.6-3.58,3.58-3.58h43.29
					c1.21,0,2.19,0.98,2.19,2.19v32.73C528.64,389.95,527.66,390.93,526.45,390.93z"/>
			</g>
			<g>
				<g>
					<path class="st5" d="M512.18,354.05c0,12.31,0,24.61,0,36.92c0,0.8,1.25,0.81,1.25,0c0-12.31,0-24.61,0-36.92
						C513.43,353.25,512.18,353.25,512.18,354.05L512.18,354.05z"/>
				</g>
			</g>
			<rect x="492.56" y="353.82" class="st1" width="6.83" height="6.83"/>
			<rect x="518.37" y="384.1" class="st1" width="6.83" height="6.83"/>
			<path class="st13" d="M479.62,390.35l-0.04-35.1c0-0.85,0.69-1.53,1.53-1.53l47.52,0.11"/>
		</g>
		<g>
			<g>
				<path class="st4" d="M548.6,458.61h-84.43c-1.21,0-2.19-0.98-2.19-2.19v-61.41c0-1.98,1.6-3.58,3.58-3.58h83.04
					c1.21,0,2.19,0.98,2.19,2.19v62.8C550.79,457.63,549.81,458.61,548.6,458.61z"/>
			</g>
			<g>
				<g>
					<path class="st5" d="M521.51,391.86c0,17.38,0,34.77,0,52.15c0,4.9,0,9.79,0,14.69c0,0.8,1.25,0.81,1.25,0
						c0-17.38,0-34.77,0-52.15c0-4.9,0-9.79,0-14.69C522.76,391.05,521.51,391.05,521.51,391.86L521.51,391.86z"/>
				</g>
			</g>
			<rect x="485.49" y="391.44" class="st1" width="12.36" height="12.36"/>
			<rect x="532.2" y="446.25" class="st1" width="12.36" height="12.36"/>
			<path class="st13" d="M462.06,457.56l-0.08-63.54c0-1.53,1.24-2.78,2.77-2.78l86.03,0.19"/>
		</g>
	</g>
	<g>
		<g>
			<path class="st5" d="M36.66,459.59c88.24,0,176.49,0,264.73,0c87.79,0,175.59,0,263.38,0c49.52,0,99.05,0,148.57,0
				c0.8,0,0.81-1.25,0-1.25c-88.24,0-176.49,0-264.73,0c-87.79,0-175.59,0-263.38,0c-49.52,0-99.05,0-148.57,0
				C35.85,458.34,35.85,459.59,36.66,459.59L36.66,459.59z"/>
		</g>
	</g>
</g>
</svg>
