<?xml version="1.0" encoding="utf-8"?>
<!-- Generator: Adobe Illustrator 24.3.0, SVG Export Plug-In . SVG Version: 6.00 Build 0)  -->
<svg version="1.1" xmlns="http://www.w3.org/2000/svg" xmlns:xlink="http://www.w3.org/1999/xlink" x="0px" y="0px"
	 viewBox="0 0 431.15 424.15" style="enable-background:new 0 0 431.15 424.15;" xml:space="preserve">
<style type="text/css">
	.st0{fill:#F0F2F7;}
	.st1{fill:#F2A441;}
	.st2{fill:#545DBF;}
	.st3{fill:#26244A;}
	.st4{fill:#FFFFFF;}
	.st5{opacity:0.33;fill:#B8C1EA;}
	.st6{fill:#DADEF1;}
	.st7{fill:#9EABDB;}
	.st8{fill:#87B74E;}
	.st9{fill:#B8C1EA;}
	.st10{fill:#4092E2;}
	.st11{fill:#F5F5F5;}
	.st12{fill:#FF725E;}
	.st13{fill:#ED796A;}
	.st14{fill:#F4B298;}
	.st15{fill:none;stroke:#26244A;stroke-linecap:round;stroke-linejoin:round;stroke-miterlimit:10;}
	.st16{fill:#25184C;}
	.st17{fill:#EF6856;}
</style>
<g id="BACKGROUND_x0A_">
</g>
<g id="OBJECTS_x0A_">
	<g>
		<path class="st0" d="M410.68,424.15H85.98c-2.37,0-4.28-1.92-4.28-4.28V4.28c0-2.37,1.92-4.28,4.28-4.28h332.01
			c7.27,0,13.17,5.89,13.17,13.17v390.51C431.15,414.99,421.98,424.15,410.68,424.15z"/>
		<g>
			<polygon class="st0" points="15.83,282.87 34.17,293.35 101.02,254.54 82.67,244.08 			"/>
			<path class="st0" d="M10.52,277.18l-3.31,20.88l33.96-1.03C41.17,297.04,10.79,277.59,10.52,277.18z"/>
		</g>
	</g>
	<g>
		<path class="st1" d="M124.77,175.02l-15.2,9.19c-0.97,0.59-1.56,1.63-1.56,2.76v16.63c0,1.15,0.62,2.22,1.62,2.8l15.18,8.75
			c0.99,0.57,2.22,0.58,3.21,0.01l15.56-8.86c1.01-0.57,1.63-1.65,1.63-2.81V186.8c0-1.15-0.61-2.22-1.61-2.79l-15.54-9.02
			C127.05,174.39,125.78,174.41,124.77,175.02z"/>
		<polygon class="st2" points="126.05,174.57 108.49,185.29 126.15,195.54 144.43,185.14 		"/>
		<polygon class="st1" points="108.69,185.46 103.78,178.67 122.89,190.28 126.15,195.54 		"/>
		<g>
			<g>
				<path class="st3" d="M126.67,215.57c0-11.05,0-22.1,0-33.16c0-2.47,0-4.93,0-7.4c0-0.48-0.75-0.48-0.75,0
					c0,11.05,0,22.1,0,33.16c0,2.47,0,4.93,0,7.4C125.92,216.06,126.67,216.06,126.67,215.57L126.67,215.57z"/>
			</g>
		</g>
		<path class="st4" d="M139.65,206.39l3.49-2c0.24-0.14,0.38-0.39,0.38-0.66v-1.51c0-0.37-0.4-0.59-0.71-0.41l-3.38,1.99
			c-0.3,0.18-0.49,0.5-0.49,0.85v1.32C138.95,206.35,139.34,206.57,139.65,206.39z"/>
		<path class="st4" d="M109.65,189.79c-0.01,0.96,0.01,2.55,0.02,3.41c0,0.37,0.2,0.7,0.51,0.89l4.14,2.51
			c0.3,0.18,0.69-0.03,0.7-0.39l0.06-3.42c0.01-0.38-0.19-0.74-0.52-0.93l-4.21-2.47C110.04,189.22,109.66,189.44,109.65,189.79z"/>
		<polygon class="st1" points="109.65,185.29 103.73,178.5 122.4,166.5 126.05,175.02 		"/>
		<path class="st1" d="M143.52,185c0.1-0.25,5.28-8.25,5.28-8.25l-19.5-10.94l-3.24,9.21L143.52,185z"/>
		<polygon class="st1" points="126.29,195.39 129.3,189.97 148.42,178.64 143.88,185.59 		"/>
		<g>
			<g>
				<path class="st3" d="M108.5,185.78c5.3,2.98,10.59,5.95,15.89,8.93c0.48,0.27,1.3,0.99,1.87,1.04c0.52,0.05,1.23-0.56,1.65-0.8
					c3.1-1.73,6.19-3.46,9.29-5.19c2.47-1.38,4.94-2.76,7.41-4.14c0.42-0.24,0.04-0.88-0.38-0.65c-5.2,2.91-10.4,5.81-15.6,8.72
					c-0.52,0.29-1.04,0.58-1.55,0.87c-0.21,0.12-0.67,0.27-0.83,0.46c-0.15,0.19-0.06-0.28,0.28,0.04c-0.05-0.05-0.15-0.06-0.2-0.11
					c-0.24-0.25-0.75-0.42-1.05-0.59c-3.03-1.7-6.05-3.4-9.08-5.1c-2.44-1.37-4.88-2.74-7.32-4.11
					C108.46,184.9,108.08,185.55,108.5,185.78L108.5,185.78z"/>
			</g>
		</g>
		<g>
			<g>
				<path class="st3" d="M103.54,178.82c3.12,1.85,6.25,3.7,9.37,5.55c2.16,1.28,4.31,2.56,6.47,3.83c1.03,0.61,2.36,1.15,3.27,1.93
					c-0.29-0.25,0.14,0.36,0.23,0.52c0.33,0.59,0.65,1.19,0.98,1.78c0.51,0.94,1.03,1.87,1.54,2.81c0.23,0.42,0.88,0.05,0.65-0.38
					c-0.43-0.78-0.85-1.55-1.28-2.33c-0.49-0.9-0.91-2.02-1.55-2.82c-0.56-0.7-1.73-1.13-2.49-1.58c-4.36-2.58-8.72-5.17-13.08-7.75
					c-1.24-0.74-2.48-1.47-3.72-2.21C103.5,177.93,103.12,178.58,103.54,178.82L103.54,178.82z"/>
			</g>
		</g>
		<g>
			<g>
				<path class="st3" d="M148.3,178.32c-3.19,1.89-6.37,3.77-9.56,5.66c-2.19,1.3-4.38,2.6-6.57,3.89
					c-0.92,0.55-2.19,1.04-2.99,1.77c-0.63,0.58-1.01,1.73-1.41,2.47c-0.53,0.97-1.06,1.94-1.59,2.9c-0.23,0.42,0.42,0.8,0.65,0.38
					c0.93-1.7,1.77-3.49,2.81-5.13c0.15-0.24-0.21,0.13,0.03-0.04c0.15-0.11,0.33-0.19,0.49-0.29c0.66-0.39,1.32-0.78,1.98-1.17
					c4.32-2.56,8.65-5.12,12.97-7.68c1.19-0.71,2.38-1.41,3.57-2.12C149.09,178.72,148.71,178.07,148.3,178.32L148.3,178.32z"/>
			</g>
		</g>
		<g>
			<g>
				<path class="st3" d="M112.36,183.8c4.08-2.49,8.16-4.97,12.24-7.46c0.52-0.32,1.16-0.6,1.63-0.99
					c-0.28,0.24-0.47-0.14-0.04,0.18c0.31,0.23,0.7,0.39,1.04,0.57c2.47,1.37,4.94,2.74,7.41,4.1c1.98,1.1,3.97,2.2,5.95,3.29
					c0.42,0.23,0.8-0.41,0.38-0.65c-4.91-2.72-9.82-5.44-14.73-8.15c-0.12-0.06-0.26-0.07-0.38,0c-4.63,2.82-9.25,5.64-13.88,8.46
					C111.57,183.4,111.95,184.05,112.36,183.8L112.36,183.8z"/>
			</g>
		</g>
	</g>
	<path class="st5" d="M134.71,120.1l23.81,13.93c2.78,1.62,6.21,1.64,8.99,0.03l24.39-14.04c2.83-1.63,2.87-5.7,0.07-7.39
		l-25.93-15.62c-1.34-0.81-3.02-0.82-4.37-0.03l-26.95,15.71C131.88,114.35,131.87,118.44,134.71,120.1z"/>
	<path class="st2" d="M126.59,89.86l28.21,16.5c3.53,2.07,7.91,2.08,11.45,0.04l28.19-16.22c3.48-2.28,3.44-10.17,2.4-12.47
		l-33.09-14.43c-1.37-0.83-3.08-0.84-4.46-0.03l-32.33,17.42c-0.21-1.58-1.51-1.96-1.54-1.84
		C124.76,82.15,123.71,87.67,126.59,89.86z"/>
	<path class="st6" d="M127.99,81.89l27.77,16.24c3.24,1.89,7.24,1.91,10.49,0.04l28.45-16.37c3.3-1.9,3.35-6.65,0.09-8.62
		l-30.24-18.22c-1.56-0.94-3.52-0.96-5.1-0.04l-31.44,18.33C124.69,75.18,124.68,79.96,127.99,81.89z"/>
	<g>
		<path class="st1" d="M292.3,248.69l-12.31,7.44c-0.78,0.47-1.26,1.32-1.26,2.24v13.46c0,0.94,0.5,1.8,1.31,2.27l12.29,7.08
			c0.8,0.46,1.79,0.47,2.6,0.01l12.6-7.17c0.82-0.47,1.32-1.33,1.32-2.27v-13.51c0-0.93-0.5-1.79-1.3-2.26l-12.58-7.3
			C294.14,248.19,293.12,248.2,292.3,248.69z"/>
		<polygon class="st4" points="299,267.79 298.83,262.71 283.95,253.74 287.97,251.34 303,260.27 303.01,265.51 		"/>
		<g>
			<g>
				<path class="st3" d="M279.09,257.47c4.29,2.42,8.59,4.84,12.88,7.27c0.38,0.22,0.97,0.72,1.42,0.79
					c0.44,0.07,0.95-0.36,1.32-0.57c2.52-1.4,5.03-2.8,7.55-4.2c2.05-1.14,4.1-2.28,6.15-3.42c0.42-0.23,0.04-0.88-0.38-0.65
					c-4.25,2.37-8.5,4.73-12.75,7.1c-0.46,0.26-1.55,0.61-1.87,1.04c-0.01,0.01,0.34,0.21,0.16-0.05c-0.14-0.2-0.7-0.39-0.91-0.51
					c-2.42-1.36-4.84-2.73-7.25-4.09c-1.98-1.12-3.96-2.24-5.94-3.35C279.04,256.59,278.67,257.24,279.09,257.47L279.09,257.47z"/>
			</g>
		</g>
		<g>
			<g>
				<path class="st3" d="M293.91,281.54c0-5.45,0-10.9,0-16.35c0-0.48-0.75-0.48-0.75,0c0,5.45,0,10.9,0,16.35
					C293.16,282.02,293.91,282.02,293.91,281.54L293.91,281.54z"/>
			</g>
		</g>
		<path class="st4" d="M304.35,274.1l2.82-1.62c0.19-0.11,0.31-0.31,0.31-0.54v-1.22c0-0.3-0.32-0.48-0.58-0.33l-2.73,1.61
			c-0.24,0.14-0.39,0.41-0.39,0.69v1.07C303.78,274.06,304.09,274.25,304.35,274.1z"/>
		<path class="st4" d="M280.06,260.66c0,0.77,0.01,2.06,0.01,2.76c0,0.3,0.16,0.57,0.41,0.72l3.35,2.03
			c0.25,0.15,0.56-0.02,0.57-0.31l0.05-2.77c0.01-0.31-0.16-0.6-0.42-0.76l-3.41-2C280.37,260.2,280.06,260.37,280.06,260.66z"/>
	</g>
	<g>
		<path class="st1" d="M159.09,53.97l-12.31,7.44c-0.78,0.47-1.26,1.32-1.26,2.24v13.46c0,0.94,0.5,1.8,1.31,2.27l12.29,7.08
			c0.8,0.46,1.79,0.47,2.6,0.01l12.6-7.17c0.82-0.47,1.32-1.33,1.32-2.27V63.51c0-0.93-0.5-1.79-1.3-2.26l-12.58-7.3
			C160.93,53.46,159.91,53.47,159.09,53.97z"/>
		<polygon class="st4" points="165.79,73.07 165.62,67.98 150.75,59.01 154.76,56.61 169.8,65.54 169.8,70.78 		"/>
		<g>
			<g>
				<path class="st3" d="M145.88,62.75c4.29,2.42,8.59,4.84,12.88,7.27c0.38,0.22,0.97,0.72,1.42,0.79
					c0.44,0.07,0.95-0.36,1.32-0.57c2.52-1.4,5.03-2.8,7.55-4.2c2.05-1.14,4.1-2.28,6.15-3.42c0.42-0.23,0.04-0.88-0.38-0.65
					c-4.25,2.37-8.5,4.73-12.75,7.1c-0.46,0.26-1.55,0.61-1.87,1.04c-0.01,0.01,0.34,0.21,0.16-0.05c-0.14-0.2-0.7-0.39-0.91-0.51
					c-2.42-1.36-4.84-2.73-7.25-4.09c-1.98-1.12-3.96-2.24-5.94-3.35C145.84,61.86,145.46,62.51,145.88,62.75L145.88,62.75z"/>
			</g>
		</g>
		<g>
			<g>
				<path class="st3" d="M160.7,86.81c0-5.45,0-10.9,0-16.35c0-0.48-0.75-0.48-0.75,0c0,5.45,0,10.9,0,16.35
					C159.95,87.29,160.7,87.29,160.7,86.81L160.7,86.81z"/>
			</g>
		</g>
		<path class="st4" d="M171.14,79.37l2.82-1.62c0.19-0.11,0.31-0.31,0.31-0.54V76c0-0.3-0.32-0.48-0.58-0.33l-2.74,1.61
			c-0.24,0.14-0.39,0.41-0.39,0.69v1.07C170.57,79.34,170.89,79.52,171.14,79.37z"/>
		<path class="st4" d="M146.85,65.93c0,0.77,0.01,2.06,0.01,2.76c0,0.3,0.16,0.57,0.41,0.72l3.35,2.03
			c0.25,0.15,0.56-0.02,0.57-0.31l0.05-2.77c0.01-0.31-0.16-0.6-0.42-0.76l-3.41-2C147.17,65.47,146.85,65.65,146.85,65.93z"/>
	</g>
	<g>
		<path class="st1" d="M404.3,285.34l-9.26,5.6c-0.59,0.36-0.95,1-0.95,1.68v10.13c0,0.7,0.38,1.35,0.98,1.7l9.24,5.33
			c0.61,0.35,1.35,0.35,1.96,0.01l9.48-5.4c0.61-0.35,0.99-1,0.99-1.71v-10.16c0-0.7-0.37-1.35-0.98-1.7l-9.46-5.49
			C405.69,284.96,404.92,284.97,404.3,285.34z"/>
		<polygon class="st4" points="409.34,299.71 409.22,295.88 398.03,289.13 401.05,287.33 412.36,294.05 412.36,297.99 		"/>
		<g>
			<g>
				<path class="st3" d="M394.32,292.02c3.24,1.83,6.48,3.66,9.73,5.49c0.29,0.16,0.74,0.56,1.09,0.6c0.36,0.04,0.79-0.32,1.09-0.48
					c1.89-1.05,3.77-2.1,5.66-3.15c1.53-0.85,3.06-1.7,4.59-2.55c0.42-0.23,0.04-0.88-0.38-0.65c-3.15,1.76-6.31,3.51-9.46,5.27
					c-0.21,0.11-1.46,0.61-1.52,0.85c-0.02,0.08,0.34,0.18,0.21-0.02c-0.09-0.14-0.48-0.27-0.62-0.35
					c-1.83-1.03-3.66-2.06-5.48-3.09c-1.5-0.85-3.01-1.7-4.51-2.55C394.28,291.14,393.9,291.79,394.32,292.02L394.32,292.02z"/>
			</g>
		</g>
		<g>
			<g>
				<path class="st3" d="M405.61,310.04c0-4.1,0-8.2,0-12.3c0-0.48-0.75-0.48-0.75,0c0,4.1,0,8.2,0,12.3
					C404.86,310.52,405.61,310.53,405.61,310.04L405.61,310.04z"/>
			</g>
		</g>
		<path class="st4" d="M413.37,304.45l2.12-1.22c0.14-0.08,0.23-0.24,0.23-0.4v-0.92c0-0.22-0.24-0.36-0.43-0.25l-2.06,1.21
			c-0.18,0.11-0.3,0.31-0.3,0.52v0.8C412.94,304.42,413.18,304.56,413.37,304.45z"/>
		<path class="st4" d="M395.1,294.34c0,0.58,0.01,1.55,0.01,2.07c0,0.22,0.12,0.43,0.31,0.54l2.52,1.53
			c0.19,0.11,0.42-0.02,0.43-0.23l0.04-2.08c0-0.23-0.12-0.45-0.32-0.57l-2.56-1.5C395.33,293.99,395.1,294.12,395.1,294.34z"/>
	</g>
	<g>
		<path class="st7" d="M32.41,88.08l-14.46,8.74c-0.92,0.56-1.48,1.55-1.48,2.63v15.82c0,1.1,0.59,2.11,1.54,2.66l14.44,8.32
			c0.94,0.54,2.11,0.55,3.06,0.01l14.8-8.43c0.96-0.55,1.55-1.57,1.55-2.67V99.3c0-1.1-0.58-2.11-1.53-2.66l-14.78-8.58
			C34.58,87.49,33.37,87.5,32.41,88.08z"/>
		<polygon class="st4" points="40.28,110.52 40.08,104.55 22.61,94.01 27.33,91.19 44.99,101.69 45,107.84 		"/>
		<g>
			<g>
				<path class="st3" d="M16.92,98.34c5.01,2.83,10.02,5.65,15.03,8.48c0.47,0.26,1.25,0.94,1.8,1c0.49,0.06,1.19-0.54,1.59-0.76
					c2.91-1.62,5.82-3.24,8.74-4.87c2.41-1.34,4.81-2.68,7.22-4.02c0.42-0.23,0.04-0.88-0.38-0.65c-4.97,2.77-9.94,5.54-14.91,8.31
					c-0.46,0.26-0.92,0.51-1.38,0.77c-0.18,0.1-0.76,0.29-0.87,0.48c-0.02,0.03,0.35,0.23,0.11-0.05c-0.21-0.24-0.75-0.43-1.03-0.58
					c-2.86-1.61-5.72-3.22-8.58-4.84c-2.32-1.31-4.65-2.62-6.97-3.93C16.88,97.46,16.5,98.1,16.92,98.34L16.92,98.34z"/>
			</g>
		</g>
		<g>
			<g>
				<path class="st3" d="M34.23,126.67c0-6.4,0-12.8,0-19.2c0-0.48-0.75-0.48-0.75,0c0,6.4,0,12.8,0,19.2
					C33.48,127.15,34.23,127.15,34.23,126.67L34.23,126.67z"/>
			</g>
		</g>
		<path class="st4" d="M46.57,117.93l3.32-1.9c0.23-0.13,0.36-0.37,0.36-0.63v-1.43c0-0.35-0.38-0.56-0.68-0.39l-3.21,1.9
			c-0.29,0.17-0.46,0.48-0.46,0.81v1.26C45.9,117.89,46.27,118.11,46.57,117.93z"/>
		<path class="st4" d="M18.03,102.14c0,0.91,0.01,2.42,0.02,3.24c0,0.35,0.19,0.67,0.48,0.85l3.93,2.39
			c0.29,0.18,0.66-0.03,0.67-0.37l0.06-3.25c0.01-0.36-0.18-0.7-0.5-0.89l-4-2.35C18.4,101.6,18.03,101.81,18.03,102.14z"/>
	</g>
	<g>
		<path class="st1" d="M82.59,199.34l-12.31,7.44c-0.78,0.47-1.26,1.32-1.26,2.24v13.46c0,0.94,0.5,1.8,1.31,2.27l12.29,7.08
			c0.8,0.46,1.79,0.47,2.6,0.01l12.6-7.17c0.82-0.47,1.32-1.33,1.32-2.27v-13.51c0-0.93-0.5-1.79-1.3-2.26l-12.58-7.3
			C84.44,198.84,83.41,198.85,82.59,199.34z"/>
		<polygon class="st4" points="89.29,218.44 89.12,213.35 74.25,204.39 78.27,201.99 93.3,210.92 93.31,216.15 		"/>
		<g>
			<g>
				<path class="st3" d="M69.38,208.12c4.29,2.42,8.59,4.84,12.88,7.26c0.38,0.22,0.97,0.72,1.42,0.79
					c0.44,0.07,0.95-0.36,1.32-0.57c2.52-1.4,5.03-2.8,7.55-4.2c2.05-1.14,4.1-2.28,6.15-3.42c0.42-0.23,0.04-0.88-0.38-0.65
					c-4.25,2.37-8.5,4.73-12.75,7.1c-0.46,0.26-1.55,0.61-1.87,1.04c-0.01,0.01,0.34,0.21,0.16-0.05c-0.14-0.2-0.7-0.39-0.91-0.51
					c-2.42-1.36-4.84-2.73-7.25-4.09c-1.98-1.12-3.96-2.24-5.94-3.35C69.34,207.24,68.96,207.88,69.38,208.12L69.38,208.12z"/>
			</g>
		</g>
		<g>
			<g>
				<path class="st3" d="M84.2,232.18c0-5.45,0-10.9,0-16.35c0-0.48-0.75-0.48-0.75,0c0,5.45,0,10.9,0,16.35
					C83.45,232.66,84.2,232.66,84.2,232.18L84.2,232.18z"/>
			</g>
		</g>
		<path class="st4" d="M94.64,224.75l2.82-1.62c0.19-0.11,0.31-0.31,0.31-0.54v-1.22c0-0.3-0.32-0.48-0.58-0.33l-2.74,1.61
			c-0.24,0.14-0.39,0.41-0.39,0.69v1.07C94.07,224.71,94.39,224.89,94.64,224.75z"/>
		<path class="st4" d="M70.35,211.31c0,0.77,0.01,2.06,0.01,2.76c0,0.3,0.16,0.57,0.41,0.72l3.35,2.03
			c0.25,0.15,0.56-0.02,0.57-0.31l0.05-2.77c0.01-0.31-0.16-0.6-0.42-0.76l-3.41-2C70.67,210.84,70.35,211.02,70.35,211.31z"/>
	</g>
	<g>
		<polygon class="st6" points="331.8,220.89 350.14,231.37 416.99,192.56 398.64,182.09 		"/>
		<path class="st6" d="M326.5,215.2l-3.31,20.88l33.96-1.03C357.15,235.05,326.76,215.61,326.5,215.2z"/>
	</g>
	<g>
		<polygon class="st6" points="318.04,394.91 336.38,405.39 403.23,366.58 384.88,356.11 		"/>
		<path class="st6" d="M312.73,389.22l-3.31,20.88l33.96-1.03C343.38,409.08,313,389.63,312.73,389.22z"/>
	</g>
	<g>
		<g>
			<path class="st8" d="M207.77,328.09c0.43-4-1.26-8.34-4.76-10.31c-1.26-0.71-3.03-1.07-4.01-0.01c-0.56,0.61-0.67,1.53-0.47,2.33
				c0.21,0.8,0.69,1.5,1.2,2.15C201.71,324.73,204.82,326.89,207.77,328.09"/>
		</g>
		<g>
			<path class="st8" d="M208.97,327.63c2.78,0.01,5.54-1.02,7.63-2.86c0.62-0.55,1.23-1.29,1.11-2.11
				c-0.09-0.63-0.61-1.13-1.21-1.35s-1.26-0.18-1.88-0.05C211.58,321.89,208.95,324.52,208.97,327.63"/>
		</g>
		<g>
			<g>
				<path class="st3" d="M202.85,321.19c3.35,3.14,5.53,7.42,6.03,11.99c0.05,0.47,0.8,0.48,0.75,0c-0.53-4.77-2.74-9.24-6.25-12.52
					C203.03,320.33,202.5,320.86,202.85,321.19L202.85,321.19z"/>
			</g>
		</g>
		<g>
			<g>
				<path class="st3" d="M208.62,328.23c1.88-1.46,3.76-2.93,5.64-4.39c0.16-0.13,0.13-0.4,0-0.53c-0.16-0.16-0.37-0.12-0.53,0
					c-1.88,1.46-3.76,2.93-5.64,4.39c-0.16,0.13-0.13,0.4,0,0.53C208.24,328.39,208.46,328.36,208.62,328.23L208.62,328.23z"/>
			</g>
		</g>
	</g>
	<g>
		<g>
			<path class="st8" d="M113.97,247.91c0.43-4-1.26-8.34-4.76-10.31c-1.26-0.71-3.03-1.07-4.01-0.01c-0.56,0.61-0.67,1.53-0.47,2.33
				c0.21,0.8,0.69,1.5,1.2,2.15C107.91,244.55,111.02,246.7,113.97,247.91"/>
		</g>
		<g>
			<path class="st8" d="M115.17,247.45c2.78,0.01,5.54-1.02,7.63-2.86c0.62-0.55,1.23-1.29,1.11-2.11
				c-0.09-0.63-0.61-1.13-1.21-1.35c-0.6-0.21-1.26-0.18-1.88-0.05C117.78,241.71,115.15,244.34,115.17,247.45"/>
		</g>
		<g>
			<g>
				<path class="st3" d="M109.05,241.01c3.35,3.14,5.53,7.42,6.03,11.99c0.05,0.47,0.8,0.48,0.75,0c-0.53-4.77-2.74-9.24-6.25-12.52
					C109.23,240.15,108.69,240.68,109.05,241.01L109.05,241.01z"/>
			</g>
		</g>
		<g>
			<g>
				<path class="st3" d="M114.82,248.05c1.88-1.46,3.76-2.93,5.64-4.39c0.16-0.13,0.13-0.4,0-0.53c-0.16-0.16-0.37-0.12-0.53,0
					c-1.88,1.46-3.76,2.93-5.64,4.39c-0.16,0.13-0.13,0.4,0,0.53C114.44,248.21,114.66,248.18,114.82,248.05L114.82,248.05z"/>
			</g>
		</g>
	</g>
	<g>
		<g>
			<g>
				<g>
					<path class="st9" d="M132.67,209.17c5.2,2.93,10.4,5.87,15.6,8.8c8.21,4.63,16.43,9.27,24.64,13.9
						c1.91,1.08,3.82,2.16,5.74,3.24c2.28,1.29,5.57,0.62,6.84-1.79c1.25-2.37,0.64-5.47-1.79-6.84c-5.2-2.93-10.4-5.87-15.6-8.8
						c-8.21-4.63-16.43-9.27-24.64-13.9c-1.91-1.08-3.82-2.16-5.74-3.24c-2.28-1.29-5.57-0.62-6.84,1.79
						C129.62,204.7,130.24,207.8,132.67,209.17L132.67,209.17z"/>
				</g>
			</g>
			<g>
				<g>
					<path class="st2" d="M161.72,224.07c-0.47-1.44-0.34-3.04,0.43-4.36c0.68-1.15,1.79-2.01,3.07-2.39
						c0.46-0.14,0.26-0.86-0.2-0.72c-1.46,0.44-2.74,1.41-3.52,2.73c-0.87,1.48-1.04,3.31-0.51,4.94
						C161.15,224.72,161.87,224.53,161.72,224.07L161.72,224.07z"/>
				</g>
			</g>
			<g>
				<g>
					<path class="st2" d="M166.43,226.7c-0.47-1.44-0.34-3.04,0.43-4.36c0.68-1.15,1.79-2.01,3.07-2.39
						c0.46-0.14,0.26-0.86-0.2-0.72c-1.46,0.44-2.74,1.41-3.52,2.73c-0.87,1.48-1.04,3.31-0.51,4.94
						C165.86,227.36,166.58,227.16,166.43,226.7L166.43,226.7z"/>
				</g>
			</g>
			<g>
				<g>
					<path class="st2" d="M171.01,229.31c-0.47-1.44-0.34-3.04,0.43-4.36c0.68-1.15,1.79-2.01,3.07-2.39
						c0.46-0.14,0.26-0.86-0.2-0.72c-1.46,0.44-2.74,1.41-3.52,2.73c-0.87,1.48-1.04,3.31-0.51,4.94
						C170.44,229.97,171.16,229.77,171.01,229.31L171.01,229.31z"/>
				</g>
			</g>
			<g>
				<g>
					<path class="st2" d="M136.11,209.93c-0.47-1.44-0.34-3.04,0.43-4.36c0.68-1.15,1.79-2.01,3.07-2.39
						c0.46-0.14,0.26-0.86-0.2-0.72c-1.46,0.44-2.74,1.41-3.52,2.73c-0.87,1.48-1.04,3.31-0.51,4.94
						C135.54,210.59,136.26,210.4,136.11,209.93L136.11,209.93z"/>
				</g>
			</g>
			<g>
				<g>
					<path class="st2" d="M141.17,212.59c-0.47-1.44-0.34-3.04,0.43-4.36c0.68-1.15,1.79-2.01,3.07-2.39
						c0.46-0.14,0.26-0.86-0.2-0.72c-1.46,0.44-2.74,1.41-3.52,2.73c-0.87,1.48-1.04,3.31-0.51,4.94
						C140.6,213.25,141.32,213.05,141.17,212.59L141.17,212.59z"/>
				</g>
			</g>
			<g>
				<g>
					<path class="st2" d="M146.32,215.51c-0.47-1.44-0.34-3.04,0.43-4.36c0.68-1.15,1.79-2.01,3.07-2.39
						c0.46-0.14,0.26-0.86-0.2-0.72c-1.46,0.44-2.74,1.41-3.52,2.73c-0.87,1.48-1.04,3.31-0.51,4.94
						C145.75,216.17,146.47,215.97,146.32,215.51L146.32,215.51z"/>
				</g>
			</g>
			<g>
				<g>
					<path class="st2" d="M151.46,218.41c-0.47-1.44-0.34-3.04,0.43-4.36c0.68-1.15,1.79-2.01,3.07-2.39
						c0.46-0.14,0.26-0.86-0.2-0.72c-1.46,0.44-2.74,1.41-3.52,2.73c-0.87,1.48-1.04,3.31-0.51,4.94
						C150.88,219.06,151.61,218.87,151.46,218.41L151.46,218.41z"/>
				</g>
			</g>
			<g>
				<g>
					<path class="st2" d="M156.81,221.33c-0.47-1.44-0.34-3.04,0.43-4.36c0.68-1.15,1.79-2.01,3.07-2.39
						c0.46-0.14,0.26-0.86-0.2-0.72c-1.46,0.44-2.74,1.41-3.52,2.73c-0.87,1.48-1.04,3.31-0.51,4.94
						C156.23,221.98,156.96,221.79,156.81,221.33L156.81,221.33z"/>
				</g>
			</g>
		</g>
		<path class="st2" d="M145.11,265.64l60.97,35.67c7.64,4.47,17.09,4.5,24.76,0.09l60.92-35.06c7.51-4.94,6.4-16.56,4.14-21.53
			l-70.49-36.62c-2.96-1.78-6.66-1.81-9.64-0.07l-69.88,37.64c-0.46-3.41-3.62,0-3.67,0.25
			C140.79,253.21,138.88,260.91,145.11,265.64z"/>
		<g>
			<g>
				<g>
					<path class="st9" d="M167.31,271.72c-5.04,3.21-10.07,6.42-15.11,9.63c-7.95,5.07-15.91,10.13-23.86,15.2
						c-1.85,1.18-3.7,2.36-5.55,3.54c-2.2,1.4-3.3,4.51-1.79,6.84c1.42,2.2,4.48,3.3,6.84,1.79c5.04-3.21,10.07-6.42,15.11-9.63
						c7.95-5.07,15.91-10.13,23.86-15.2c1.85-1.18,3.7-2.36,5.55-3.54c2.2-1.4,3.3-4.51,1.79-6.84
						C172.73,271.31,169.67,270.22,167.31,271.72L167.31,271.72z"/>
				</g>
			</g>
			<g>
				<g>
					<path class="st2" d="M140.88,289.82c1.37,0.25,2.63,1.01,3.44,2.15c0.87,1.23,1.18,2.79,0.87,4.25
						c-0.1,0.47,0.62,0.67,0.72,0.2c0.36-1.65,0.04-3.44-0.94-4.83c-0.92-1.3-2.33-2.21-3.89-2.5
						C140.61,289.01,140.4,289.73,140.88,289.82L140.88,289.82z"/>
				</g>
			</g>
			<g>
				<g>
					<path class="st2" d="M165.69,273.81c1.37,0.25,2.63,1.01,3.44,2.15c0.87,1.23,1.18,2.79,0.87,4.25
						c-0.1,0.47,0.62,0.67,0.72,0.2c0.36-1.65,0.04-3.44-0.94-4.83c-0.92-1.3-2.33-2.21-3.89-2.5
						C165.42,273,165.22,273.72,165.69,273.81L165.69,273.81z"/>
				</g>
			</g>
			<g>
				<g>
					<path class="st2" d="M160.86,277.01c1.37,0.25,2.63,1.01,3.44,2.15c0.87,1.23,1.18,2.79,0.87,4.25
						c-0.1,0.47,0.62,0.67,0.72,0.2c0.36-1.65,0.04-3.44-0.94-4.83c-0.92-1.3-2.33-2.21-3.89-2.5
						C160.59,276.2,160.39,276.92,160.86,277.01L160.86,277.01z"/>
				</g>
			</g>
			<g>
				<g>
					<path class="st2" d="M155.75,280.16c1.37,0.25,2.63,1.01,3.44,2.15c0.87,1.23,1.18,2.79,0.87,4.25
						c-0.1,0.47,0.62,0.67,0.72,0.2c0.36-1.65,0.04-3.44-0.94-4.83c-0.92-1.3-2.33-2.21-3.89-2.5
						C155.48,279.35,155.28,280.08,155.75,280.16L155.75,280.16z"/>
				</g>
			</g>
			<g>
				<g>
					<path class="st2" d="M150.77,283.57c1.37,0.25,2.63,1.01,3.44,2.15c0.87,1.23,1.18,2.79,0.87,4.25
						c-0.1,0.47,0.62,0.67,0.72,0.2c0.36-1.65,0.04-3.44-0.94-4.83c-0.92-1.3-2.33-2.21-3.89-2.5
						C150.5,282.76,150.3,283.48,150.77,283.57L150.77,283.57z"/>
				</g>
			</g>
			<g>
				<g>
					<path class="st2" d="M145.65,286.9c1.37,0.25,2.63,1.01,3.44,2.15c0.87,1.23,1.18,2.79,0.87,4.25c-0.1,0.47,0.62,0.67,0.72,0.2
						c0.36-1.65,0.04-3.44-0.94-4.83c-0.92-1.3-2.33-2.21-3.89-2.5C145.38,286.09,145.17,286.81,145.65,286.9L145.65,286.9z"/>
				</g>
			</g>
		</g>
		<g>
			<g>
				<g>
					<path class="st9" d="M294.56,202.38c-5.04,3.21-10.07,6.42-15.11,9.63c-7.95,5.07-15.91,10.13-23.86,15.2
						c-1.85,1.18-3.7,2.36-5.55,3.54c-2.2,1.4-3.3,4.51-1.79,6.84c1.42,2.2,4.48,3.3,6.84,1.79c5.04-3.21,10.07-6.42,15.11-9.63
						c7.95-5.07,15.91-10.13,23.86-15.2c1.85-1.18,3.7-2.36,5.55-3.54c2.2-1.4,3.3-4.51,1.79-6.84
						C299.98,201.97,296.92,200.88,294.56,202.38L294.56,202.38z"/>
				</g>
			</g>
			<g>
				<g>
					<path class="st2" d="M268.13,220.48c1.37,0.25,2.63,1.01,3.44,2.15c0.87,1.23,1.18,2.79,0.87,4.25
						c-0.1,0.47,0.62,0.67,0.72,0.2c0.36-1.65,0.04-3.44-0.94-4.83c-0.92-1.3-2.33-2.21-3.89-2.5
						C267.85,219.67,267.65,220.39,268.13,220.48L268.13,220.48z"/>
				</g>
			</g>
			<g>
				<g>
					<path class="st2" d="M292.94,204.47c1.37,0.25,2.63,1.01,3.44,2.15c0.87,1.23,1.18,2.79,0.87,4.25
						c-0.1,0.47,0.62,0.67,0.72,0.2c0.36-1.65,0.04-3.44-0.94-4.83c-0.92-1.3-2.33-2.21-3.89-2.5
						C292.67,203.66,292.46,204.38,292.94,204.47L292.94,204.47z"/>
				</g>
			</g>
			<g>
				<g>
					<path class="st2" d="M288.11,207.67c1.37,0.25,2.63,1.01,3.44,2.15c0.87,1.23,1.18,2.79,0.87,4.25
						c-0.1,0.47,0.62,0.67,0.72,0.2c0.36-1.65,0.04-3.44-0.94-4.83c-0.92-1.3-2.33-2.21-3.89-2.5
						C287.84,206.86,287.63,207.58,288.11,207.67L288.11,207.67z"/>
				</g>
			</g>
			<g>
				<g>
					<path class="st2" d="M283,210.83c1.37,0.25,2.63,1.01,3.44,2.15c0.87,1.23,1.18,2.79,0.87,4.25c-0.1,0.47,0.62,0.67,0.72,0.2
						c0.36-1.65,0.04-3.44-0.94-4.83c-0.92-1.3-2.33-2.21-3.89-2.5C282.73,210.01,282.53,210.74,283,210.83L283,210.83z"/>
				</g>
			</g>
			<g>
				<g>
					<path class="st2" d="M278.02,214.23c1.37,0.25,2.63,1.01,3.44,2.15c0.87,1.23,1.18,2.79,0.87,4.25
						c-0.1,0.47,0.62,0.67,0.72,0.2c0.36-1.65,0.04-3.44-0.94-4.83c-0.92-1.3-2.33-2.21-3.89-2.5
						C277.75,213.42,277.54,214.14,278.02,214.23L278.02,214.23z"/>
				</g>
			</g>
			<g>
				<g>
					<path class="st2" d="M272.9,217.56c1.37,0.25,2.63,1.01,3.44,2.15c0.87,1.23,1.18,2.79,0.87,4.25c-0.1,0.47,0.62,0.67,0.72,0.2
						c0.36-1.65,0.04-3.44-0.94-4.83c-0.92-1.3-2.33-2.21-3.89-2.5C272.63,216.75,272.42,217.47,272.9,217.56L272.9,217.56z"/>
				</g>
			</g>
		</g>
		<g>
			<g>
				<g>
					<path class="st9" d="M260.37,282.96c5.31,2.74,10.61,5.48,15.92,8.22c8.38,4.33,16.76,8.66,25.14,12.99
						c1.95,1.01,3.9,2.02,5.85,3.02c2.32,1.2,5.54,0.68,6.84-1.79c1.21-2.29,0.69-5.56-1.79-6.84c-5.31-2.74-10.61-5.48-15.92-8.22
						c-8.38-4.33-16.76-8.66-25.14-12.99c-1.95-1.01-3.9-2.02-5.85-3.02c-2.32-1.2-5.53-0.68-6.84,1.79
						C257.36,278.41,257.89,281.68,260.37,282.96L260.37,282.96z"/>
				</g>
			</g>
			<g>
				<g>
					<path class="st2" d="M289.36,296.75c-0.51-1.43-0.43-3.05,0.3-4.39c0.66-1.21,1.77-2.12,3.08-2.55
						c0.46-0.15,0.26-0.87-0.2-0.72c-1.49,0.48-2.77,1.52-3.53,2.89c-0.82,1.51-0.95,3.35-0.38,4.97
						C288.8,297.4,289.52,297.2,289.36,296.75L289.36,296.75z"/>
				</g>
			</g>
			<g>
				<g>
					<path class="st2" d="M294.5,299.29c-0.51-1.43-0.43-3.05,0.3-4.39c0.66-1.21,1.77-2.12,3.08-2.55c0.46-0.15,0.26-0.87-0.2-0.72
						c-1.49,0.48-2.77,1.52-3.53,2.89c-0.82,1.51-0.95,3.35-0.38,4.97C293.93,299.95,294.66,299.75,294.5,299.29L294.5,299.29z"/>
				</g>
			</g>
			<g>
				<g>
					<path class="st2" d="M299.63,301.84c-0.51-1.43-0.43-3.05,0.3-4.39c0.66-1.21,1.77-2.12,3.08-2.55
						c0.46-0.15,0.26-0.87-0.2-0.72c-1.49,0.48-2.77,1.52-3.53,2.89c-0.82,1.51-0.95,3.35-0.38,4.97
						C299.07,302.49,299.8,302.3,299.63,301.84L299.63,301.84z"/>
				</g>
			</g>
			<g>
				<g>
					<path class="st2" d="M304.77,304.39c-0.51-1.43-0.43-3.05,0.3-4.39c0.66-1.21,1.77-2.12,3.08-2.55
						c0.46-0.15,0.26-0.87-0.2-0.72c-1.49,0.48-2.77,1.52-3.53,2.89c-0.82,1.51-0.95,3.35-0.38,4.97
						C304.21,305.04,304.93,304.84,304.77,304.39L304.77,304.39z"/>
				</g>
			</g>
			<g>
				<g>
					<path class="st2" d="M263.05,283.34c-0.51-1.43-0.43-3.05,0.3-4.39c0.66-1.21,1.77-2.12,3.08-2.55
						c0.46-0.15,0.26-0.87-0.2-0.72c-1.49,0.48-2.77,1.52-3.53,2.89c-0.82,1.51-0.95,3.35-0.38,4.97
						C262.49,283.99,263.21,283.8,263.05,283.34L263.05,283.34z"/>
				</g>
			</g>
			<g>
				<g>
					<path class="st2" d="M268.24,285.91c-0.51-1.43-0.43-3.05,0.3-4.39c0.66-1.21,1.77-2.12,3.08-2.55
						c0.46-0.15,0.26-0.87-0.2-0.72c-1.49,0.48-2.77,1.52-3.53,2.89c-0.82,1.51-0.95,3.35-0.38,4.97
						C267.68,286.56,268.4,286.37,268.24,285.91L268.24,285.91z"/>
				</g>
			</g>
			<g>
				<g>
					<path class="st2" d="M273.54,288.74c-0.51-1.43-0.43-3.05,0.3-4.39c0.66-1.21,1.77-2.12,3.08-2.55
						c0.46-0.15,0.26-0.87-0.2-0.72c-1.49,0.48-2.77,1.52-3.53,2.89c-0.82,1.51-0.95,3.35-0.38,4.97
						C272.97,289.39,273.7,289.2,273.54,288.74L273.54,288.74z"/>
				</g>
			</g>
			<g>
				<g>
					<path class="st2" d="M278.98,291.34c-0.51-1.43-0.43-3.05,0.3-4.39c0.66-1.21,1.77-2.12,3.08-2.55
						c0.46-0.15,0.26-0.87-0.2-0.72c-1.49,0.48-2.77,1.52-3.53,2.89c-0.82,1.51-0.95,3.35-0.38,4.97
						C278.42,291.99,279.14,291.79,278.98,291.34L278.98,291.34z"/>
				</g>
			</g>
			<g>
				<g>
					<path class="st2" d="M284.44,294.09c-0.51-1.43-0.43-3.05,0.3-4.39c0.66-1.21,1.77-2.12,3.08-2.55
						c0.46-0.15,0.26-0.87-0.2-0.72c-1.49,0.48-2.77,1.52-3.53,2.89c-0.82,1.51-0.95,3.35-0.38,4.97
						C283.88,294.74,284.6,294.55,284.44,294.09L284.44,294.09z"/>
				</g>
			</g>
		</g>
		<path class="st6" d="M147.06,255.73l60.01,35.11c7,4.09,15.65,4.12,22.67,0.08l61.48-35.38c7.14-4.11,7.24-14.37,0.19-18.62
			l-65.37-39.39c-3.38-2.04-7.61-2.07-11.02-0.08l-67.95,39.62C139.93,241.24,139.92,251.56,147.06,255.73z"/>
		<ellipse class="st9" cx="219.31" cy="247.15" rx="41.11" ry="18.89"/>
		<g>
			
				<ellipse transform="matrix(0.2143 -0.9768 0.9768 0.2143 -37.2565 381.9456)" class="st10" cx="218.8" cy="214.13" rx="45.51" ry="45.51"/>
			<g>
				<g>
					<path class="st11" d="M217.74,168.26c-7.91,0.78-15.35,3.72-21.33,9.01c-4.89,4.33-8.63,9.96-11.12,15.98
						c-3.71,8.97-4.26,19-2.76,28.51c1.44,9.11,4.82,18.08,10.74,25.23c6.27,7.57,15.6,12.76,25.55,12.87c0.8,0.01,0.81-1.24,0-1.25
						c-8.65-0.1-16.83-4.22-22.78-10.39c-6.17-6.41-9.87-14.85-11.7-23.48c-3.31-15.64-0.49-32.91,10.94-44.67
						c6-6.17,13.92-9.72,22.45-10.56C218.53,169.44,218.54,168.19,217.74,168.26L217.74,168.26z"/>
				</g>
			</g>
			<g>
				<g>
					<path class="st11" d="M217.42,168.35c-5.61,3.26-10.08,8.48-13.53,13.9c-3.84,6.03-5.9,12.6-6.79,19.67
						c-1.01,8.01-0.78,16.27-0.03,24.29c0.68,7.23,1.9,15.22,5.76,21.52c3.7,6.05,9.83,9.97,16.31,12.5
						c0.75,0.29,1.07-0.91,0.33-1.21c-5.71-2.24-11.19-5.61-14.76-10.71c-4.09-5.83-5.46-13.57-6.23-20.51
						c-0.82-7.47-1.07-15.15-0.47-22.65c0.57-7.05,2.13-13.91,5.64-20.09c3.46-6.1,8.27-12.07,14.4-15.64
						C218.75,169.03,218.12,167.94,217.42,168.35L217.42,168.35z"/>
				</g>
			</g>
			<g>
				<g>
					<path class="st11" d="M219.93,259.25c-2.32-23.48-2.8-47.14-2.27-70.72c0.15-6.55,0.38-13.09,0.7-19.63
						c0.04-0.8-1.21-0.8-1.25,0c-1.14,23.57-1.29,47.22,0.06,70.78c0.37,6.54,0.87,13.06,1.51,19.58
						C218.76,260.04,220.01,260.05,219.93,259.25L219.93,259.25z"/>
				</g>
			</g>
			<g>
				<g>
					<path class="st11" d="M219.75,260.08c11.85-9.33,21-22.61,23.11-37.77c1.02-7.3,0.46-14.97-1.02-22.17
						c-1.35-6.58-3.74-13.05-7.53-18.63c-3.99-5.88-9.47-10.47-16.02-13.23c-0.74-0.31-1.06,0.9-0.33,1.21
						c12.12,5.11,19.29,16.63,22.25,29.04c1.64,6.89,2.32,14.25,1.69,21.31c-0.65,7.33-3.07,14.43-6.72,20.79
						c-4.13,7.2-9.79,13.43-16.3,18.55C218.24,259.69,219.13,260.57,219.75,260.08L219.75,260.08z"/>
				</g>
			</g>
			<g>
				<g>
					<path class="st11" d="M218.12,169.51c7.27,0.03,14.47,3.63,20.31,7.7c3.1,2.16,6,4.67,8.4,7.6c2.57,3.13,4.32,6.91,5.55,10.75
						c2.77,8.61,2.88,17.97,1.38,26.83c-1.46,8.65-4.63,17.64-10.57,24.27c-5.96,6.65-14.98,11.43-23.89,12.35
						c-0.79,0.08-0.8,1.33,0,1.25c8.24-0.85,16.31-4.79,22.41-10.34c6.7-6.1,10.57-14.91,12.55-23.61
						c2.07-9.12,2.44-18.88,0.2-28.01c-1.03-4.21-2.63-8.47-5.05-12.09c-2.07-3.11-4.79-5.78-7.71-8.09
						c-6.52-5.18-15.05-9.82-23.59-9.85C217.32,168.26,217.31,169.51,218.12,169.51L218.12,169.51z"/>
				</g>
			</g>
			<g>
				<g>
					<path class="st11" d="M179.42,190.47c4.2,9.96,15.6,14.43,25.55,16.08c12.31,2.04,25.61,0.67,37.03-4.45
						c5.97-2.67,11.45-6.55,15.35-11.85c0.48-0.65-0.61-1.27-1.08-0.63c-6.96,9.45-18.93,14.05-30.16,15.77
						c-11.31,1.74-24.01,0.99-34.35-4.28c-4.72-2.41-9.05-5.99-11.15-10.97C180.32,189.41,179.11,189.73,179.42,190.47
						L179.42,190.47z"/>
				</g>
			</g>
			<g>
				<g>
					<path class="st11" d="M179.58,238.3c8.13,8.01,19.04,12.67,30.26,14.27c11.22,1.6,22.97,0.35,33.42-4.12
						c5.61-2.4,10.8-5.78,15.07-10.15c0.56-0.58-0.32-1.46-0.88-0.88c-7.54,7.71-17.85,12.12-28.39,13.8
						c-11.04,1.76-22.69,0.6-33.05-3.66c-5.76-2.37-11.09-5.76-15.53-10.14C179.89,236.85,179.01,237.73,179.58,238.3L179.58,238.3z
						"/>
				</g>
			</g>
			<g>
				<g>
					<path class="st11" d="M173.16,215.33c2.75,3.52,6.65,6.12,10.53,8.24c5.23,2.85,10.88,4.92,16.65,6.37
						c13.69,3.46,28.51,3.55,41.96-1c8.4-2.84,16.04-7.49,22.45-13.61c0.58-0.56-0.3-1.44-0.88-0.88
						c-11.05,10.57-25.65,16.12-40.83,16.69c-12.65,0.48-25.79-2.1-37.12-7.82c-4.37-2.21-8.81-4.96-11.87-8.87
						C173.55,213.81,172.67,214.7,173.16,215.33L173.16,215.33z"/>
				</g>
			</g>
		</g>
		<g>
			<g>
				<g>
					<g>
						<g>
							<path class="st12" d="M240.77,150.36c0-13.7-12.38-24.5-26.56-21.84c-8.92,1.67-16.03,8.96-17.59,17.9
								c-0.98,5.59,0.18,10.84,2.73,15.18h-0.01l0.06,0.08c0.85,1.44,1.92,2.47,3,3.98l12.92,17.11c1.61,2.13,4.81,2.13,6.41,0
								l12.7-16.83c0,0,2.37-2.83,3.23-4.28l0.05-0.06h-0.01C239.64,158.3,240.77,154.47,240.77,150.36z M218.52,160.05
								c-5.41,0-9.79-4.38-9.79-9.79c0-5.41,4.38-9.79,9.79-9.79s9.79,4.38,9.79,9.79C228.31,155.66,223.93,160.05,218.52,160.05z"
								/>
						</g>
					</g>
				</g>
			</g>
			<g>
				<g>
					<g>
						<path class="st13" d="M200.32,110.16c-1.98,2.59-4.66,4.74-7.71,6.04c-0.31,0.13-0.38,0.59-0.22,0.86
							c0.19,0.32,0.54,0.36,0.86,0.22c3.26-1.39,6.02-3.68,8.16-6.48c0.2-0.27,0.04-0.7-0.22-0.86
							C200.85,109.74,200.52,109.89,200.32,110.16L200.32,110.16z"/>
					</g>
				</g>
				<path class="st14" d="M261.51,73.07c-1.04,0.96-22.97,15.09-22.97,15.09s-20.97-6.69-33.33,6.06
					c-12.36,12.74-12.22,30.53-7.99,36.39c4.23,5.86,10.78,3.82,11.83-1.37s-3.33-12.91,3.53-17.1c6.86-4.19,14.04-4.49,17.83,5.19
					c2.26,5.77,24.95-1.1,24.95-1.1l23.72-11.49C279.06,90.4,272.49,76.9,261.51,73.07z"/>
				<g>
					<path class="st14" d="M217.65,143.66c-2.3-1.07-2.46-3.47-1.58-5.85c0.87-2.38,2.88-4.14,4.89-5.69
						c2.01-1.55,4.15-3.05,5.48-5.2c1.39-2.24,2.85-7.04,3.48-9.6c0.63-2.56,0.61-3.11,2.84-4.5c2.24-1.39,5.1-1.16,7.68-0.61
						c2.89,0.62,5.7,1.59,8.36,2.88c1.24,0.6,2.63,0.57,3.48-0.51c12.65-15.9,3.82,2.96,0.73,8.32c-0.84,1.45-2.12,2.46-3.2,3.75
						C242.05,135.97,223.4,147.18,217.65,143.66"/>
				</g>
				<g>
					<path class="st14" d="M181.74,118.8c-1.43,1.43-2.88,2.95-3.6,4.84c-0.72,1.89-0.55,4.27,0.93,5.65
						c1.35,1.25,3.4,1.39,5.21,1.02c5.23-1.06,9.01-5.47,12.38-9.62l4.79-19.55C194.72,106.85,187.98,112.56,181.74,118.8z"/>
				</g>
				<g>
					<path class="st14" d="M213.26,94.35c-12.05,2.88-23.54,8.1-33.64,15.27c-1.26,0.9-2.57,1.92-3.02,3.4
						c-0.58,1.91,0.57,4.04,2.27,5.07s3.82,1.15,5.8,0.88"/>
				</g>
				<g>
					<path class="st14" d="M226.57,87.69c-12.39,0.16-24.74,2.72-36.18,7.5c-1.43,0.6-2.93,1.31-3.69,2.65
						c-0.98,1.73-0.33,4.06,1.1,5.44c1.44,1.38,3.48,1.96,5.46,2.13"/>
				</g>
				<g>
					<g>
						<path class="st13" d="M196.31,127.32c-0.98-3.79-1.35-7.69-0.95-11.59c0.36-3.42,1.42-6.59,2.78-9.72
							c1.89-4.34,4.18-8.46,7.73-11.68c2.77-2.51,6.08-4.3,9.57-5.59c0.75-0.28,0.42-1.49-0.33-1.21c-5.84,2.16-10.9,5.7-14.4,10.9
							c-1.35,2.01-2.43,4.18-3.4,6.38c-1.35,3.05-2.51,6.1-3.01,9.42c-0.67,4.49-0.33,9.03,0.8,13.41
							C195.31,128.43,196.51,128.1,196.31,127.32L196.31,127.32z"/>
					</g>
				</g>
				<g>
					<g>
						<path class="st13" d="M197.97,103.38c-6.74,4.97-13.18,10.43-18.38,17.04c-1.91,2.43-3.91,5.58-1.71,8.52
							c2.15,2.87,6.08,2.82,9.06,1.44c3.23-1.5,5.93-4.44,8.33-7.02c0.55-0.59-0.33-1.47-0.88-0.88c-2.28,2.45-4.85,5.27-7.9,6.74
							c-2.08,1-4.6,1.32-6.59-0.07c-1.98-1.38-2.15-3.79-0.95-5.76c1.17-1.93,2.79-3.7,4.3-5.38c1.48-1.65,3.04-3.23,4.65-4.75
							c3.37-3.17,6.99-6.06,10.71-8.8C199.24,103.99,198.61,102.9,197.97,103.38L197.97,103.38z"/>
					</g>
				</g>
				<g>
					<g>
						<path class="st13" d="M203.71,94.8c-6.93,2.85-13.03,7.03-19.47,10.78c-3.38,1.97-9.07,4.77-8.21,9.51
							c0.29,1.58,1.31,2.92,2.73,3.65c0.89,0.46,2.12,0.96,3.15,0.66c0.77-0.22,0.44-1.43-0.33-1.21c-1.31,0.38-3.13-0.94-3.77-1.95
							c-1.02-1.6-0.71-3.59,0.53-4.93c1.66-1.79,3.89-3.13,5.99-4.35c6.51-3.8,12.7-8.09,19.72-10.97
							C204.78,95.7,204.46,94.49,203.71,94.8L203.71,94.8z"/>
					</g>
				</g>
				<g>
					<g>
						<path class="st13" d="M186.62,99.95c3.3,0.1,6.43-2.13,7.46-5.26c0.25-0.77-0.96-1.09-1.21-0.33
							c-0.86,2.61-3.52,4.43-6.25,4.34C185.81,98.67,185.81,99.92,186.62,99.95L186.62,99.95z"/>
					</g>
				</g>
				<g>
					<g>
						<path class="st13" d="M203.41,133.08c-0.27-2.3-0.84-4.74-2.8-6.21c-1.62-1.22-3.79-1.25-5.33,0.1
							c-0.16,0.14-0.22,0.41-0.16,0.61c1.37,4.48,6.23,8.71,11.1,6.65c4.04-1.71,3.66-6.57,3.6-10.21
							c-0.03-2.18-0.17-4.34-0.26-6.51c-0.04-0.9,0.47-1.82,1-2.64c2.65-4.18,7.43-6.08,12.25-5.8c0.8,0.05,0.8-1.2,0-1.25
							c-4.05-0.24-8.04,0.92-11.05,3.7c-1.51,1.39-3.52,3.72-3.45,5.93c0.07,1.98,0.21,3.96,0.26,5.94
							c0.05,2.43,0.49,5.53-0.71,7.75c-1.38,2.56-4.49,2.84-6.89,1.76c-2.23-1-3.93-3.33-4.64-5.64c-0.05,0.2-0.11,0.41-0.16,0.61
							c1.34-1.17,3.22-0.64,4.32,0.59c1.13,1.27,1.48,2.99,1.67,4.63C202.25,133.87,203.5,133.88,203.41,133.08L203.41,133.08z"/>
					</g>
				</g>
				<g>
					<g>
						<path class="st13" d="M176.68,115.2c1.75,0.17,3.61-0.54,4.77-1.88c1.19-1.38,1.64-3.27,1.24-5.04
							c-0.18-0.78-1.39-0.45-1.21,0.33c0.31,1.35-0.05,2.86-0.98,3.9c-0.96,1.07-2.39,1.59-3.82,1.45
							c-0.34-0.03-0.62,0.31-0.62,0.62C176.05,114.94,176.34,115.17,176.68,115.2L176.68,115.2z"/>
					</g>
				</g>
				<g>
					<g>
						<path class="st13" d="M178.8,128.78c1.57-1.09,3.05-2.43,3.74-4.27c0.63-1.67,0.42-3.64-0.78-5c-0.54-0.6-1.42,0.28-0.88,0.88
							c0.93,1.05,0.94,2.64,0.43,3.88c-0.61,1.45-1.86,2.54-3.13,3.42C177.51,128.16,178.14,129.24,178.8,128.78L178.8,128.78z"/>
					</g>
				</g>
				<g>
					<g>
						<path class="st13" d="M216.49,142.49c1.52-0.62,3.11-1.13,4.77-1.08c1.25,0.03,2.57,0.75,2.77,2.06
							c0.05,0.33,0.47,0.52,0.77,0.44c0.36-0.1,0.49-0.43,0.44-0.77c-0.25-1.65-1.87-2.74-3.44-2.94c-1.92-0.24-3.89,0.36-5.64,1.08
							c-0.31,0.13-0.54,0.42-0.44,0.77C215.81,142.35,216.18,142.62,216.49,142.49L216.49,142.49z"/>
					</g>
				</g>
			</g>
			<g>
				<g>
					<path class="st13" d="M250.68,127.11c4.83-5.02,7.54-11.85,7.45-18.82c-0.01-0.8-1.26-0.81-1.25,0
						c0.09,6.64-2.47,13.14-7.08,17.94C249.24,126.81,250.12,127.69,250.68,127.11L250.68,127.11z"/>
				</g>
			</g>
		</g>
	</g>
	<line class="st15" x1="81.69" y1="383.56" x2="81.69" y2="399.34"/>
	<polyline class="st15" points="79.3,397.38 81.89,399.34 84.08,397.38 	"/>
	<g>
		<path id="XMLID_00000043437209103953359610000011643218394544188549_" class="st2" d="M346.7,108.24l-0.21-11.31
			c-0.02-0.94-0.53-1.79-1.35-2.25l-13.05-7.28c-0.82-0.46-1.81-0.44-2.62,0.03l-30.09,17.78c-0.82,0.48-1.31,1.37-1.29,2.32
			l0.21,11.27c0.02,0.94,0.53,1.79,1.35,2.25l13.24,7.38c0.82,0.46,1.82,0.44,2.63-0.04l29.9-17.86
			C346.23,110.07,346.72,109.18,346.7,108.24z"/>
		<g>
			<g>
				<path class="st16" d="M313.41,114.3C313.41,114.29,313.41,114.29,313.41,114.3c-0.06,0.1-0.12,0.21-0.19,0.32c0,0,0,0,0,0
					c-0.18-0.07-0.37-0.15-0.55-0.22c-0.04-0.2,0.01,0.28,0.01,0.37c0.02,0.36,0.03,0.72,0.05,1.07c0.05,1.15,0.1,2.31,0.14,3.46
					c0.1,2.55,0.21,5.09,0.31,7.64c0.02,0.59,0.05,1.19,0.07,1.78c0.02,0.48,0.77,0.48,0.75,0c-0.17-4.22-0.33-8.43-0.51-12.65
					c-0.03-0.61,0.01-1.27-0.1-1.88c-0.04-0.24-0.36-0.34-0.55-0.22c-0.12,0.07-0.18,0.19-0.19,0.33
					C312.62,114.78,313.37,114.77,313.41,114.3L313.41,114.3z"/>
			</g>
		</g>
		<g>
			<g>
				<path class="st10" d="M308.75,111.68C308.75,111.67,308.75,111.67,308.75,111.68c-0.06,0.1-0.12,0.21-0.19,0.32c0,0,0,0,0,0
					c-0.18-0.07-0.37-0.15-0.55-0.22c-0.04-0.2,0.01,0.28,0.01,0.37c0.02,0.36,0.03,0.72,0.05,1.07c0.05,1.15,0.1,2.31,0.14,3.46
					c0.1,2.55,0.21,5.09,0.31,7.64c0.02,0.59,0.05,1.19,0.07,1.78c0.02,0.48,0.77,0.48,0.75,0c-0.17-4.22-0.33-8.43-0.51-12.65
					c-0.03-0.61,0.01-1.27-0.1-1.88c-0.04-0.24-0.36-0.34-0.55-0.22c-0.12,0.07-0.17,0.19-0.19,0.33
					C307.96,112.16,308.71,112.15,308.75,111.68L308.75,111.68z"/>
			</g>
		</g>
		<g>
			<g>
				<path class="st10" d="M303.25,108.56C303.25,108.56,303.25,108.56,303.25,108.56c-0.06,0.1-0.12,0.21-0.19,0.32c0,0,0,0,0,0
					c-0.18-0.07-0.37-0.15-0.55-0.22c-0.04-0.2,0.01,0.28,0.01,0.37c0.02,0.36,0.03,0.72,0.05,1.07c0.05,1.15,0.1,2.31,0.14,3.46
					c0.1,2.55,0.21,5.09,0.31,7.64c0.02,0.59,0.05,1.19,0.07,1.78c0.02,0.48,0.77,0.48,0.75,0c-0.17-4.22-0.33-8.43-0.51-12.65
					c-0.03-0.61,0.01-1.27-0.1-1.88c-0.04-0.24-0.36-0.34-0.55-0.22c-0.12,0.07-0.18,0.19-0.19,0.33
					C302.46,109.05,303.21,109.04,303.25,108.56L303.25,108.56z"/>
			</g>
		</g>
		<g>
			<g>
				<path class="st10" d="M318.19,111.51C318.19,111.51,318.19,111.51,318.19,111.51c-0.06,0.1-0.12,0.21-0.19,0.32c0,0,0,0,0,0
					c-0.18-0.07-0.37-0.15-0.55-0.22c-0.04-0.2,0.01,0.28,0.01,0.37c0.02,0.36,0.03,0.72,0.05,1.07c0.05,1.15,0.1,2.31,0.14,3.46
					c0.1,2.55,0.21,5.09,0.31,7.64c0.02,0.59,0.05,1.19,0.07,1.78c0.02,0.48,0.77,0.48,0.75,0c-0.17-4.22-0.33-8.43-0.51-12.65
					c-0.03-0.61,0.01-1.27-0.1-1.88c-0.04-0.24-0.36-0.34-0.55-0.22c-0.12,0.07-0.18,0.19-0.19,0.33
					C317.4,111.99,318.15,111.99,318.19,111.51L318.19,111.51z"/>
			</g>
		</g>
		<g>
			<g>
				<path class="st10" d="M323.12,108.94C323.12,108.94,323.12,108.94,323.12,108.94c-0.06,0.1-0.12,0.21-0.19,0.32c0,0,0,0,0,0
					c-0.18-0.07-0.37-0.15-0.55-0.22c-0.04-0.2,0.01,0.28,0.01,0.37c0.02,0.36,0.03,0.72,0.05,1.07c0.05,1.15,0.1,2.31,0.14,3.46
					c0.1,2.55,0.21,5.09,0.31,7.64c0.02,0.59,0.05,1.19,0.07,1.78c0.02,0.48,0.77,0.48,0.75,0c-0.17-4.22-0.33-8.43-0.51-12.65
					c-0.03-0.61,0.01-1.27-0.1-1.88c-0.04-0.24-0.36-0.34-0.55-0.22c-0.12,0.07-0.18,0.19-0.19,0.33
					C322.33,109.42,323.08,109.42,323.12,108.94L323.12,108.94z"/>
			</g>
		</g>
		<g>
			<g>
				<path class="st10" d="M328.05,106.37C328.06,106.36,328.06,106.36,328.05,106.37c-0.06,0.1-0.12,0.21-0.19,0.32c0,0,0,0,0,0
					c-0.18-0.07-0.37-0.15-0.55-0.22c-0.04-0.2,0.01,0.28,0.01,0.37c0.02,0.36,0.03,0.72,0.05,1.07c0.05,1.15,0.1,2.31,0.14,3.46
					c0.1,2.55,0.21,5.09,0.31,7.64c0.02,0.59,0.05,1.19,0.07,1.78c0.02,0.48,0.77,0.48,0.75,0c-0.17-4.22-0.33-8.43-0.51-12.65
					c-0.03-0.61,0.01-1.27-0.1-1.88c-0.04-0.24-0.36-0.34-0.55-0.22c-0.12,0.07-0.18,0.19-0.19,0.33
					C327.26,106.85,328.01,106.84,328.05,106.37L328.05,106.37z"/>
			</g>
		</g>
		<g>
			<g>
				<path class="st10" d="M332.99,103.16C332.99,103.16,332.99,103.16,332.99,103.16c-0.06,0.1-0.12,0.21-0.19,0.32c0,0,0,0,0,0
					c-0.18-0.07-0.37-0.15-0.55-0.22c-0.04-0.2,0.01,0.28,0.01,0.37c0.02,0.36,0.03,0.72,0.05,1.07c0.05,1.15,0.1,2.31,0.14,3.46
					c0.1,2.55,0.21,5.09,0.31,7.64c0.02,0.59,0.05,1.19,0.07,1.78c0.02,0.48,0.77,0.48,0.75,0c-0.17-4.22-0.33-8.43-0.51-12.65
					c-0.03-0.61,0.01-1.27-0.1-1.88c-0.04-0.24-0.36-0.34-0.55-0.22c-0.12,0.07-0.18,0.19-0.19,0.33
					C332.2,103.64,332.95,103.64,332.99,103.16L332.99,103.16z"/>
			</g>
		</g>
		<g>
			<g>
				<path class="st10" d="M337.92,99.93C337.92,99.93,337.92,99.93,337.92,99.93c-0.06,0.1-0.12,0.21-0.19,0.32c0,0,0,0,0,0
					c-0.18-0.07-0.37-0.15-0.55-0.22c-0.04-0.2,0.01,0.28,0.01,0.37c0.02,0.36,0.03,0.72,0.05,1.07c0.05,1.15,0.1,2.31,0.14,3.46
					c0.1,2.55,0.21,5.09,0.31,7.64c0.02,0.59,0.05,1.19,0.07,1.78c0.02,0.48,0.77,0.48,0.75,0c-0.17-4.22-0.33-8.43-0.51-12.65
					c-0.03-0.61,0.01-1.27-0.1-1.88c-0.04-0.24-0.36-0.34-0.55-0.22c-0.12,0.07-0.18,0.19-0.19,0.33
					C337.13,100.41,337.88,100.41,337.92,99.93L337.92,99.93z"/>
			</g>
		</g>
		<g>
			<g>
				<path class="st10" d="M342.86,97.36C342.86,97.36,342.86,97.36,342.86,97.36c-0.06,0.1-0.12,0.21-0.19,0.32c0,0,0,0,0,0
					c-0.18-0.07-0.37-0.15-0.55-0.22c-0.04-0.2,0.01,0.28,0.01,0.37c0.02,0.36,0.03,0.72,0.05,1.07c0.05,1.15,0.1,2.31,0.14,3.46
					c0.1,2.55,0.21,5.09,0.31,7.64c0.02,0.59,0.05,1.19,0.07,1.78c0.02,0.48,0.77,0.48,0.75,0c-0.17-4.22-0.33-8.43-0.51-12.65
					c-0.03-0.61,0.01-1.27-0.1-1.88c-0.04-0.24-0.36-0.34-0.55-0.22c-0.12,0.07-0.18,0.19-0.19,0.33
					C342.06,97.84,342.81,97.84,342.86,97.36L342.86,97.36z"/>
			</g>
		</g>
		<g>
			<g>
				<path class="st16" d="M345.53,95.22c0.04-0.27,0.22-0.15,0-0.1c-0.13,0.03-0.28,0.17-0.39,0.24c-0.46,0.28-0.92,0.55-1.39,0.82
					c-1.51,0.87-3.02,1.74-4.53,2.6c-4.37,2.49-8.75,4.97-13.13,7.44c-3.68,2.08-7.37,4.16-11.05,6.23
					c-0.62,0.35-1.62,0.69-2.14,1.2c0.09-0.09,0.37,0.17,0.24-0.04c-0.07-0.12-0.45-0.24-0.57-0.3c-0.77-0.41-1.54-0.81-2.31-1.22
					c-3.89-2.05-7.79-4.1-11.68-6.16c-0.43-0.22-0.81,0.42-0.38,0.65c3.51,1.85,7.02,3.7,10.53,5.55c0.94,0.49,1.87,0.99,2.81,1.48
					c0.38,0.2,0.88,0.6,1.3,0.69c0.55,0.11,1.17-0.42,1.64-0.69c8.05-4.53,16.09-9.06,24.11-13.63c1.85-1.05,3.69-2.1,5.53-3.17
					c0.37-0.21,2.05-0.87,2.12-1.4C346.32,94.94,345.59,94.74,345.53,95.22L345.53,95.22z"/>
			</g>
		</g>
	</g>
	<g>
		<g>
			<path id="XMLID_00000054225183469805335740000015683020886729327245_" class="st2" d="M224.91,375.64l-0.21-11.31
				c-0.02-0.94-0.53-1.79-1.35-2.25l-13.05-7.28c-0.82-0.46-1.81-0.44-2.62,0.03l-30.09,17.78c-0.82,0.48-1.31,1.37-1.29,2.32
				l0.21,11.27c0.02,0.94,0.53,1.79,1.35,2.25l13.24,7.38c0.82,0.46,1.82,0.44,2.63-0.04l29.9-17.86
				C224.43,377.46,224.92,376.58,224.91,375.64z"/>
			<g>
				<g>
					<path class="st16" d="M191.62,381.69C191.62,381.69,191.62,381.69,191.62,381.69c-0.06,0.1-0.12,0.21-0.19,0.32c0,0,0,0,0,0
						c-0.18-0.07-0.37-0.15-0.55-0.22c-0.04-0.2,0.01,0.28,0.01,0.37c0.02,0.36,0.03,0.72,0.05,1.07c0.05,1.15,0.1,2.31,0.14,3.46
						c0.1,2.55,0.21,5.09,0.31,7.64c0.02,0.59,0.05,1.19,0.07,1.78c0.02,0.48,0.77,0.48,0.75,0c-0.17-4.22-0.33-8.43-0.51-12.65
						c-0.03-0.61,0.01-1.27-0.1-1.88c-0.04-0.24-0.36-0.34-0.55-0.22c-0.12,0.07-0.18,0.19-0.19,0.33
						C190.83,382.17,191.58,382.17,191.62,381.69L191.62,381.69z"/>
				</g>
			</g>
			<g>
				<g>
					<path class="st10" d="M186.96,379.07C186.96,379.07,186.96,379.07,186.96,379.07c-0.06,0.1-0.12,0.21-0.19,0.32c0,0,0,0,0,0
						c-0.18-0.07-0.37-0.15-0.55-0.22c-0.04-0.2,0.01,0.28,0.01,0.37c0.02,0.36,0.03,0.72,0.05,1.07c0.05,1.15,0.1,2.31,0.14,3.46
						c0.1,2.55,0.21,5.09,0.31,7.64c0.02,0.59,0.05,1.19,0.07,1.78c0.02,0.48,0.77,0.48,0.75,0c-0.17-4.22-0.33-8.43-0.51-12.65
						c-0.03-0.61,0.01-1.27-0.1-1.88c-0.04-0.24-0.36-0.34-0.55-0.22c-0.12,0.07-0.18,0.19-0.19,0.33
						C186.17,379.55,186.92,379.55,186.96,379.07L186.96,379.07z"/>
				</g>
			</g>
			<g>
				<g>
					<path class="st10" d="M181.46,375.96C181.46,375.96,181.46,375.96,181.46,375.96c-0.06,0.1-0.12,0.21-0.19,0.32c0,0,0,0,0,0
						c-0.18-0.07-0.37-0.15-0.55-0.22c-0.04-0.2,0.01,0.28,0.01,0.37c0.02,0.36,0.03,0.72,0.05,1.07c0.05,1.15,0.1,2.31,0.14,3.46
						c0.1,2.55,0.21,5.09,0.31,7.64c0.02,0.59,0.05,1.19,0.07,1.78c0.02,0.48,0.77,0.48,0.75,0c-0.17-4.22-0.33-8.43-0.51-12.65
						c-0.03-0.61,0.01-1.27-0.1-1.88c-0.04-0.24-0.36-0.34-0.55-0.22c-0.12,0.07-0.18,0.19-0.19,0.33
						C180.67,376.44,181.42,376.44,181.46,375.96L181.46,375.96z"/>
				</g>
			</g>
			<g>
				<g>
					<path class="st10" d="M196.39,378.91C196.39,378.91,196.39,378.91,196.39,378.91c-0.06,0.1-0.12,0.21-0.19,0.32c0,0,0,0,0,0
						c-0.18-0.07-0.37-0.15-0.55-0.22c-0.04-0.2,0.01,0.28,0.01,0.37c0.02,0.36,0.03,0.72,0.05,1.07c0.05,1.15,0.1,2.31,0.14,3.46
						c0.1,2.55,0.21,5.09,0.31,7.64c0.02,0.59,0.05,1.19,0.07,1.78c0.02,0.48,0.77,0.48,0.75,0c-0.17-4.22-0.33-8.43-0.51-12.65
						c-0.03-0.61,0.01-1.27-0.1-1.88c-0.04-0.24-0.36-0.34-0.55-0.22c-0.12,0.07-0.18,0.19-0.19,0.33
						C195.6,379.39,196.35,379.39,196.39,378.91L196.39,378.91z"/>
				</g>
			</g>
			<g>
				<g>
					<path class="st10" d="M201.33,376.34C201.33,376.34,201.33,376.33,201.33,376.34c-0.06,0.1-0.12,0.21-0.19,0.32c0,0,0,0,0,0
						c-0.18-0.07-0.37-0.15-0.55-0.22c-0.04-0.2,0.01,0.28,0.01,0.37c0.02,0.36,0.03,0.72,0.05,1.07c0.05,1.15,0.1,2.31,0.14,3.46
						c0.1,2.55,0.21,5.09,0.31,7.64c0.02,0.59,0.05,1.19,0.07,1.78c0.02,0.48,0.77,0.48,0.75,0c-0.17-4.22-0.33-8.43-0.51-12.65
						c-0.03-0.61,0.01-1.27-0.1-1.88c-0.04-0.24-0.36-0.34-0.55-0.22c-0.12,0.07-0.18,0.19-0.19,0.33
						C200.54,376.82,201.29,376.81,201.33,376.34L201.33,376.34z"/>
				</g>
			</g>
			<g>
				<g>
					<path class="st10" d="M206.26,373.76C206.26,373.76,206.26,373.76,206.26,373.76c-0.06,0.1-0.12,0.21-0.19,0.32c0,0,0,0,0,0
						c-0.18-0.07-0.37-0.15-0.55-0.22c-0.04-0.2,0.01,0.28,0.01,0.37c0.02,0.36,0.03,0.72,0.05,1.07c0.05,1.15,0.1,2.31,0.14,3.46
						c0.1,2.55,0.21,5.09,0.31,7.64c0.02,0.59,0.05,1.19,0.07,1.78c0.02,0.48,0.77,0.48,0.75,0c-0.17-4.22-0.33-8.43-0.51-12.65
						c-0.03-0.61,0.01-1.27-0.1-1.88c-0.04-0.24-0.36-0.34-0.55-0.22c-0.12,0.07-0.18,0.19-0.19,0.33
						C205.47,374.24,206.22,374.24,206.26,373.76L206.26,373.76z"/>
				</g>
			</g>
			<g>
				<g>
					<path class="st10" d="M211.19,370.56C211.2,370.56,211.2,370.56,211.19,370.56c-0.06,0.1-0.12,0.21-0.19,0.32c0,0,0,0,0,0
						c-0.18-0.07-0.37-0.15-0.55-0.22c-0.04-0.2,0.01,0.28,0.01,0.37c0.02,0.36,0.03,0.72,0.05,1.07c0.05,1.15,0.1,2.31,0.14,3.46
						c0.1,2.55,0.21,5.09,0.31,7.64c0.02,0.59,0.05,1.19,0.07,1.78c0.02,0.48,0.77,0.48,0.75,0c-0.17-4.22-0.33-8.43-0.51-12.65
						c-0.03-0.61,0.01-1.27-0.1-1.88c-0.04-0.24-0.36-0.34-0.55-0.22c-0.12,0.07-0.18,0.19-0.19,0.33
						C210.4,371.04,211.15,371.04,211.19,370.56L211.19,370.56z"/>
				</g>
			</g>
			<g>
				<g>
					<path class="st10" d="M216.13,367.33C216.13,367.33,216.13,367.33,216.13,367.33c-0.06,0.1-0.12,0.21-0.19,0.32c0,0,0,0,0,0
						c-0.18-0.07-0.37-0.15-0.55-0.22c-0.04-0.2,0.01,0.28,0.01,0.37c0.02,0.36,0.03,0.72,0.05,1.07c0.05,1.15,0.1,2.31,0.14,3.46
						c0.1,2.55,0.21,5.09,0.31,7.64c0.02,0.59,0.05,1.19,0.07,1.78c0.02,0.48,0.77,0.48,0.75,0c-0.17-4.22-0.33-8.43-0.51-12.65
						c-0.03-0.61,0.01-1.27-0.1-1.88c-0.04-0.24-0.36-0.34-0.55-0.22c-0.12,0.07-0.18,0.19-0.19,0.33
						C215.34,367.81,216.09,367.81,216.13,367.33L216.13,367.33z"/>
				</g>
			</g>
			<g>
				<g>
					<path class="st10" d="M221.06,364.76C221.06,364.76,221.06,364.75,221.06,364.76c-0.06,0.1-0.12,0.21-0.19,0.32c0,0,0,0,0,0
						c-0.18-0.07-0.37-0.15-0.55-0.22c-0.04-0.2,0.01,0.28,0.01,0.37c0.02,0.36,0.03,0.72,0.05,1.07c0.05,1.15,0.1,2.31,0.14,3.46
						c0.1,2.55,0.21,5.09,0.31,7.64c0.02,0.59,0.05,1.19,0.07,1.78c0.02,0.48,0.77,0.48,0.75,0c-0.17-4.22-0.33-8.43-0.51-12.65
						c-0.03-0.61,0.01-1.27-0.1-1.88c-0.04-0.24-0.36-0.34-0.55-0.22c-0.12,0.07-0.18,0.19-0.19,0.33
						C220.27,365.24,221.02,365.24,221.06,364.76L221.06,364.76z"/>
				</g>
			</g>
			<g>
				<g>
					<path class="st16" d="M223.73,362.61c0.04-0.27,0.22-0.15,0-0.1c-0.13,0.03-0.28,0.17-0.39,0.24
						c-0.46,0.28-0.92,0.55-1.39,0.82c-1.51,0.88-3.02,1.74-4.53,2.6c-4.37,2.49-8.75,4.97-13.13,7.44
						c-3.68,2.08-7.37,4.16-11.05,6.23c-0.62,0.35-1.62,0.69-2.14,1.2c0.09-0.09,0.37,0.17,0.24-0.04c-0.07-0.12-0.45-0.24-0.57-0.3
						c-0.77-0.4-1.54-0.81-2.31-1.21c-3.89-2.05-7.79-4.1-11.68-6.16c-0.43-0.22-0.81,0.42-0.38,0.65c3.51,1.85,7.02,3.7,10.53,5.55
						c0.94,0.49,1.87,0.99,2.81,1.48c0.38,0.2,0.88,0.6,1.3,0.69c0.55,0.11,1.17-0.42,1.64-0.69c8.05-4.53,16.09-9.06,24.11-13.63
						c1.85-1.05,3.69-2.1,5.53-3.17c0.37-0.21,2.05-0.87,2.12-1.4C224.52,362.34,223.8,362.14,223.73,362.61L223.73,362.61z"/>
				</g>
			</g>
		</g>
		<g>
			<path id="XMLID_00000044149100264995613460000014449692971276548257_" class="st1" d="M221.92,358.18l-0.21-11.31
				c-0.02-0.94-0.53-1.79-1.35-2.25l-13.05-7.28c-0.82-0.46-1.81-0.44-2.62,0.03l-30.09,17.78c-0.82,0.48-1.31,1.37-1.29,2.32
				l0.21,11.27c0.02,0.94,0.53,1.79,1.35,2.25l13.24,7.38c0.82,0.46,1.82,0.44,2.63-0.04l29.9-17.86
				C221.45,360.01,221.94,359.13,221.92,358.18z"/>
			<g>
				<g>
					<path class="st16" d="M188.63,364.24C188.63,364.24,188.63,364.24,188.63,364.24c-0.06,0.1-0.12,0.21-0.19,0.32c0,0,0,0,0,0
						c-0.18-0.07-0.37-0.15-0.55-0.22c-0.04-0.2,0.01,0.28,0.01,0.37c0.02,0.36,0.03,0.72,0.05,1.07c0.05,1.15,0.1,2.31,0.14,3.46
						c0.1,2.55,0.21,5.09,0.31,7.64c0.02,0.59,0.05,1.19,0.07,1.78c0.02,0.48,0.77,0.48,0.75,0c-0.17-4.22-0.33-8.43-0.51-12.65
						c-0.03-0.61,0.01-1.27-0.1-1.88c-0.04-0.24-0.36-0.34-0.55-0.22c-0.12,0.07-0.18,0.19-0.19,0.33
						C187.84,364.72,188.59,364.72,188.63,364.24L188.63,364.24z"/>
				</g>
			</g>
			<g>
				<g>
					<path class="st17" d="M183.98,361.62C183.98,361.62,183.98,361.62,183.98,361.62c-0.06,0.1-0.12,0.21-0.19,0.32c0,0,0,0,0,0
						c-0.18-0.07-0.37-0.15-0.55-0.22c-0.04-0.2,0.01,0.28,0.01,0.37c0.02,0.36,0.03,0.72,0.05,1.07c0.05,1.15,0.1,2.31,0.14,3.46
						c0.1,2.55,0.21,5.09,0.31,7.64c0.02,0.59,0.05,1.19,0.07,1.78c0.02,0.48,0.77,0.48,0.75,0c-0.17-4.22-0.33-8.43-0.51-12.65
						c-0.03-0.61,0.01-1.27-0.1-1.88c-0.04-0.24-0.36-0.34-0.55-0.22c-0.12,0.07-0.18,0.19-0.19,0.33
						C183.18,362.1,183.93,362.1,183.98,361.62L183.98,361.62z"/>
				</g>
			</g>
			<g>
				<g>
					<path class="st17" d="M178.48,358.51C178.48,358.51,178.48,358.5,178.48,358.51c-0.06,0.1-0.12,0.21-0.19,0.32c0,0,0,0,0,0
						c-0.18-0.07-0.37-0.15-0.55-0.22c-0.04-0.2,0.01,0.28,0.01,0.37c0.02,0.36,0.03,0.72,0.05,1.07c0.05,1.15,0.1,2.31,0.14,3.46
						c0.1,2.55,0.21,5.09,0.31,7.64c0.02,0.59,0.05,1.19,0.07,1.78c0.02,0.48,0.77,0.48,0.75,0c-0.17-4.22-0.33-8.43-0.51-12.65
						c-0.03-0.61,0.01-1.27-0.1-1.88c-0.04-0.24-0.36-0.34-0.55-0.22c-0.12,0.07-0.18,0.19-0.19,0.33
						C177.68,358.99,178.44,358.99,178.48,358.51L178.48,358.51z"/>
				</g>
			</g>
			<g>
				<g>
					<path class="st17" d="M193.41,361.45C193.41,361.45,193.41,361.45,193.41,361.45c-0.06,0.1-0.12,0.21-0.19,0.32c0,0,0,0,0,0
						c-0.18-0.07-0.37-0.15-0.55-0.22c-0.04-0.2,0.01,0.28,0.01,0.37c0.02,0.36,0.03,0.72,0.05,1.07c0.05,1.15,0.1,2.31,0.14,3.46
						c0.1,2.55,0.21,5.09,0.31,7.64c0.02,0.59,0.05,1.19,0.07,1.78c0.02,0.48,0.77,0.48,0.75,0c-0.17-4.22-0.33-8.43-0.51-12.65
						c-0.03-0.61,0.01-1.27-0.1-1.88c-0.04-0.24-0.36-0.34-0.55-0.22c-0.12,0.07-0.18,0.19-0.19,0.33
						C192.62,361.94,193.37,361.93,193.41,361.45L193.41,361.45z"/>
				</g>
			</g>
			<g>
				<g>
					<path class="st17" d="M198.35,358.88C198.35,358.88,198.35,358.88,198.35,358.88c-0.06,0.1-0.12,0.21-0.19,0.32c0,0,0,0,0,0
						c-0.18-0.07-0.37-0.15-0.55-0.22c-0.04-0.2,0.01,0.28,0.01,0.37c0.02,0.36,0.03,0.72,0.05,1.07c0.05,1.15,0.1,2.31,0.14,3.46
						c0.1,2.55,0.21,5.09,0.31,7.64c0.02,0.59,0.05,1.19,0.07,1.78c0.02,0.48,0.77,0.48,0.75,0c-0.17-4.22-0.33-8.43-0.51-12.65
						c-0.03-0.61,0.01-1.27-0.1-1.88c-0.04-0.24-0.36-0.34-0.55-0.22c-0.12,0.07-0.17,0.19-0.19,0.33
						C197.55,359.36,198.3,359.36,198.35,358.88L198.35,358.88z"/>
				</g>
			</g>
			<g>
				<g>
					<path class="st17" d="M203.28,356.31C203.28,356.31,203.28,356.31,203.28,356.31c-0.06,0.1-0.12,0.21-0.19,0.32c0,0,0,0,0,0
						c-0.18-0.07-0.37-0.15-0.55-0.22c-0.04-0.2,0.01,0.28,0.01,0.37c0.02,0.36,0.03,0.72,0.05,1.07c0.05,1.15,0.1,2.31,0.14,3.46
						c0.1,2.55,0.21,5.09,0.31,7.64c0.02,0.59,0.05,1.19,0.07,1.78c0.02,0.48,0.77,0.48,0.75,0c-0.17-4.22-0.33-8.43-0.51-12.65
						c-0.03-0.61,0.01-1.27-0.1-1.88c-0.04-0.24-0.36-0.34-0.55-0.22c-0.12,0.07-0.18,0.19-0.19,0.33
						C202.49,356.79,203.24,356.79,203.28,356.31L203.28,356.31z"/>
				</g>
			</g>
			<g>
				<g>
					<path class="st17" d="M208.21,353.1C208.21,353.1,208.21,353.1,208.21,353.1c-0.06,0.1-0.12,0.21-0.19,0.32c0,0,0,0,0,0
						c-0.18-0.07-0.37-0.15-0.55-0.22c-0.04-0.2,0.01,0.28,0.01,0.37c0.02,0.36,0.03,0.72,0.05,1.07c0.05,1.15,0.1,2.31,0.14,3.46
						c0.1,2.55,0.21,5.09,0.31,7.64c0.02,0.59,0.05,1.19,0.07,1.78c0.02,0.48,0.77,0.48,0.75,0c-0.17-4.22-0.33-8.43-0.51-12.65
						c-0.03-0.61,0.01-1.27-0.1-1.88c-0.04-0.24-0.36-0.34-0.55-0.22c-0.12,0.07-0.18,0.19-0.19,0.33
						C207.42,353.58,208.17,353.58,208.21,353.1L208.21,353.1z"/>
				</g>
			</g>
			<g>
				<g>
					<path class="st17" d="M213.15,349.88C213.15,349.87,213.15,349.87,213.15,349.88c-0.06,0.1-0.12,0.21-0.19,0.32c0,0,0,0,0,0
						c-0.18-0.07-0.37-0.15-0.55-0.22c-0.04-0.2,0.01,0.28,0.01,0.37c0.02,0.36,0.03,0.72,0.05,1.07c0.05,1.15,0.1,2.31,0.14,3.46
						c0.1,2.55,0.21,5.09,0.31,7.64c0.02,0.59,0.05,1.19,0.07,1.78c0.02,0.48,0.77,0.48,0.75,0c-0.17-4.22-0.33-8.43-0.51-12.65
						c-0.03-0.61,0.01-1.27-0.1-1.88c-0.04-0.24-0.36-0.34-0.55-0.22c-0.12,0.07-0.18,0.19-0.19,0.33
						C212.35,350.36,213.11,350.35,213.15,349.88L213.15,349.88z"/>
				</g>
			</g>
			<g>
				<g>
					<path class="st17" d="M218.08,347.3C218.08,347.3,218.08,347.3,218.08,347.3c-0.06,0.1-0.12,0.21-0.19,0.32c0,0,0,0,0,0
						c-0.18-0.07-0.37-0.15-0.55-0.22c-0.04-0.2,0.01,0.28,0.01,0.37c0.02,0.36,0.03,0.72,0.05,1.07c0.05,1.15,0.1,2.31,0.14,3.46
						c0.1,2.55,0.21,5.09,0.31,7.64c0.02,0.59,0.05,1.19,0.07,1.78c0.02,0.48,0.77,0.48,0.75,0c-0.17-4.22-0.33-8.43-0.51-12.65
						c-0.03-0.61,0.01-1.27-0.1-1.88c-0.04-0.24-0.36-0.34-0.55-0.22c-0.12,0.07-0.18,0.19-0.19,0.33
						C217.29,347.78,218.04,347.78,218.08,347.3L218.08,347.3z"/>
				</g>
			</g>
			<g>
				<g>
					<path class="st16" d="M220.75,345.16c0.04-0.27,0.22-0.15,0-0.1c-0.13,0.03-0.28,0.17-0.39,0.24
						c-0.46,0.28-0.92,0.55-1.39,0.82c-1.51,0.88-3.02,1.74-4.53,2.6c-4.37,2.49-8.75,4.97-13.13,7.44
						c-3.68,2.08-7.37,4.16-11.05,6.23c-0.62,0.35-1.62,0.69-2.14,1.2c0.09-0.09,0.37,0.17,0.24-0.04c-0.07-0.12-0.45-0.24-0.57-0.3
						c-0.77-0.4-1.54-0.81-2.31-1.21c-3.89-2.05-7.79-4.1-11.68-6.16c-0.43-0.22-0.81,0.42-0.38,0.65c3.51,1.85,7.02,3.7,10.53,5.55
						c0.94,0.49,1.87,0.99,2.81,1.48c0.38,0.2,0.88,0.6,1.3,0.69c0.55,0.11,1.17-0.42,1.64-0.69c8.05-4.53,16.09-9.06,24.11-13.63
						c1.85-1.05,3.69-2.1,5.53-3.17c0.37-0.21,2.05-0.87,2.12-1.4C221.54,344.89,220.82,344.68,220.75,345.16L220.75,345.16z"/>
				</g>
			</g>
		</g>
	</g>
	<g>
		<g>
			<g>
				<path class="st3" d="M91.31,339.23c0,1.6,0.55,2.73,1.45,3.28c0.03,0.02,2.84,1.64,2.86,1.66c0.93,0.52,0.34-0.66,1.76-1.48
					c2.86-1.65,5.17-5.64,5.17-8.92c0-1.62,1.5-1.63,0.58-2.17c-0.03-0.02-3.01-1.67-3.04-1.68c-0.93-0.5-2.21-0.41-3.61,0.4
					C93.62,331.96,91.31,335.96,91.31,339.23z"/>
				<path class="st2" d="M94.3,340.93c0,3.28,2.31,4.6,5.17,2.95c2.86-1.65,5.17-5.64,5.17-8.92c0-3.28-2.31-4.6-5.17-2.95
					C96.62,333.66,94.3,337.66,94.3,340.93z"/>
				<g>
					<g>
						<path class="st9" d="M99.52,334.37c-1.84,1.06-3.34,3.65-3.34,5.76c0,2.11,1.5,2.97,3.34,1.91c1.84-1.06,3.34-3.65,3.34-5.76
							C102.86,334.16,101.36,333.31,99.52,334.37z"/>
					</g>
				</g>
			</g>
			<g>
				<path class="st3" d="M130.95,314.95c0,1.6,0.55,2.73,1.45,3.28c0.03,0.02,2.84,1.64,2.86,1.66c0.93,0.52,0.34-0.66,1.76-1.48
					c2.86-1.65,5.17-5.64,5.17-8.92c0-1.62,1.5-1.63,0.58-2.17c-0.03-0.02-3.01-1.67-3.04-1.68c-0.93-0.5-2.21-0.41-3.61,0.4
					C133.27,307.68,130.95,311.68,130.95,314.95z"/>
				<path class="st2" d="M133.95,316.65c0,3.28,2.31,4.6,5.17,2.95c2.86-1.65,5.17-5.64,5.17-8.92c0-3.28-2.31-4.6-5.17-2.95
					C136.26,309.38,133.95,313.38,133.95,316.65z"/>
				<g>
					<g>
						<path class="st9" d="M139.16,310.09c-1.84,1.06-3.34,3.65-3.34,5.76c0,2.11,1.5,2.97,3.34,1.91c1.84-1.06,3.34-3.65,3.34-5.76
							C142.5,309.88,141,309.03,139.16,310.09z"/>
					</g>
				</g>
			</g>
			<g>
				<polygon class="st3" points="75.42,342.64 75.41,347.97 54.12,332.92 54.12,330.47 				"/>
				<path class="st3" d="M131.74,285.41l-77.62,45.06l21.3,12.17l0,0v5.33l76.68-44.35c0.6-0.35,0.97-0.99,0.97-1.68v-2.94
					c0-0.88-0.47-1.7-1.24-2.14L131.74,285.41z"/>
			</g>
			<g>
				<path class="st2" d="M150.15,274.99c0-1.27-0.68-2.45-1.79-3.08l-0.58-0.33l-72.42,43.73L56.55,303.7l0,0
					c-0.9,0.52-1.45,1.49-1.45,2.53v23.49l20.45,11.64v0l0,0l0,0v0l74.59-43.37V274.99z"/>
				<path class="st10" d="M56.36,305.26l17.47,9.98c1.07,0.61,2.39,0.61,3.46-0.01l71.56-41.55c0.58-0.33,0.57-1.17-0.01-1.5
					l-17.2-9.81c-1.22-0.69-2.71-0.69-3.92,0.02l-71.36,41.42C55.8,304.14,55.8,304.94,56.36,305.26z"/>
			</g>
			<g>
				<path class="st17" d="M74.11,325.84l-16.26-9.39c-1.72-0.99-3.82-1.07-5.61-0.2l-8.41,4.07c-1.72,0.98-6.3,3.62-7.73,9.27
					l-1.13,3.94c-0.59,2.32-1.07,6.16-1.07,8.55v9.06c0.01,0.02,0.02,0.03,0.03,0.05l19.86,11.24c0.04-0.02,0.04-0.03,0.08-0.05
					v-7.99c0-2.96,0.45-5.9,1.34-8.72l2.54-8.05c0.55-1.74,1.74-3.22,3.33-4.12l13.01-7.59C74.11,325.89,74.11,325.88,74.11,325.84z
					"/>
				<path class="st17" d="M53.87,354.36v8.12l10.69-6.14l0.82-4.72l8.81-5.24v-20.51l-13.14,7.66c-1.6,0.91-2.79,2.39-3.34,4.14
					l-2.52,8.05C54.31,348.53,53.87,351.44,53.87,354.36z"/>
				<path class="st3" d="M50.84,348.7L50.84,348.7c0,4.12-4.34,6.09-7.96,4.05l-0.27-0.15c-3.54-2-5.88-5.11-5.88-9.14v-1.3
					c0-0.98,1.08-1.6,1.94-1.11l11.52,6.54C50.59,347.82,50.84,348.24,50.84,348.7z"/>
				<path class="st2" d="M67.61,341.81l-1.16,0.68c-0.26,0.15-0.42,0.43-0.42,0.73v0.05c0,0.3,0.32,0.49,0.58,0.33l1.05-0.61
					c0.25-0.15,0.4-0.41,0.4-0.7v-0.22C68.06,341.84,67.81,341.69,67.61,341.81z"/>
			</g>
			<path class="st3" d="M59.27,362.42l0.43-1.61c0-2.44,0.64-4.84,1.87-6.95l0,0c1.22-2.1,2.96-3.84,5.06-5.05l2.05-1.18l-3.28-1.59
				l-1.96,0.97c-2.1,1.21-3.85,2.95-5.06,5.05l0,0c-1.22,2.11-1.87,4.51-1.87,6.95v2L59.27,362.42z"/>
			<g>
				<path class="st3" d="M32.41,349.26l19.98,11.85c0.97,0.56,2.17,0.56,3.14,0l3.74-2.09v3.4l-3.78,2.13
					c-0.98,0.55-2.17,0.54-3.14-0.01l-18.91-10.85c-0.64-0.37-1.03-1.04-1.03-1.78V349.26z"/>
				<path class="st3" d="M32.75,349.91l19.64,11.21c0.97,0.56,2.17,0.56,3.14,0l3.74-2.09l-1.02-0.58l-2.7,1.53
					c-0.98,0.56-2.19,0.56-3.17,0l-18.44-10.64l0.01-1.36l-1.2,0.74C32.28,348.98,32.29,349.64,32.75,349.91z"/>
			</g>
			<g>
				<g>
					<path class="st3" d="M75.21,316.22c0,8.5,0,17,0,25.5c0,0.48,0.75,0.48,0.75,0c0-8.5,0-17,0-25.5
						C75.96,315.74,75.21,315.74,75.21,316.22L75.21,316.22z"/>
				</g>
			</g>
			<g>
				<g>
					<path class="st3" d="M54.5,361.12c-0.22-4.62,0.11-9.25,1.03-13.78c0.42-2.03,0.93-4.04,1.56-6.01
						c0.55-1.72,1.13-3.77,2.12-5.29c1.39-2.14,4.19-3.61,6.31-4.91c2.79-1.71,5.68-3.26,8.64-4.66c0.44-0.21,0.06-0.85-0.38-0.65
						c-3.17,1.5-6.27,3.17-9.25,5.04c-2.03,1.27-4.65,2.73-5.97,4.8c-0.95,1.48-1.5,3.4-2.06,5.06c-0.7,2.1-1.25,4.26-1.7,6.42
						c-0.94,4.6-1.28,9.29-1.06,13.98C53.78,361.6,54.53,361.6,54.5,361.12L54.5,361.12z"/>
				</g>
			</g>
			<g>
				<path class="st6" d="M67.56,338.44c-0.08-1-0.08-2.77-0.1-4.14c-0.01-0.67-0.71-1.28-1.34-1.04c-0.84,0.32-1.67,0.8-2.31,1.16
					c-0.88,0.5-1.85,0.9-2.44,1.72c-0.45,0.63-0.66,1.4-0.86,2.14c-0.47,1.73-0.94,3.46-1.41,5.19c-0.05,0.2-0.11,0.42-0.02,0.6
					c0.1,0.22,0.37,0.31,0.61,0.28c0.24-0.03,0.45-0.15,0.66-0.28c2.08-1.23,4.16-2.46,6.24-3.69c0.31-0.19,0.64-0.39,0.82-0.7
					C67.62,339.31,67.59,338.86,67.56,338.44z"/>
			</g>
			<g>
				<path class="st6" d="M56.49,336.23c-0.27-0.87-1.13-1.4-1.93-1.84c-4.45-2.47-9.83-5.27-14.43-7.79
					c-0.69-0.38-1.54-0.05-1.81,0.7c-0.93,2.61-2.57,6.68-2.04,8.18c0.22,0.63,1.32,1.39,2.03,1.82c3.89,2.36,7.46,4.24,10.98,6.28
					c0.58,0.34,1.11,0.77,1.74,1.01c0.63,0.24,1.35,0.3,1.96,0.03c0.74-0.33,1.19-1.09,1.56-1.82c0.76-1.52,1.37-3.11,1.81-4.75
					C56.53,337.46,56.67,336.82,56.49,336.23z"/>
			</g>
			<g>
				<g>
					<path class="st17" d="M36.53,342.19c4.18,2.38,8.36,4.76,12.54,7.14c0.59,0.34,1.18,0.67,1.77,1.01
						c0.42,0.24,0.8-0.41,0.38-0.65c-4.18-2.38-8.36-4.76-12.54-7.14c-0.59-0.34-1.18-0.67-1.77-1.01
						C36.49,341.3,36.11,341.95,36.53,342.19L36.53,342.19z"/>
				</g>
			</g>
			<g>
				<g>
					<path class="st17" d="M36.53,344.55c4.18,2.38,8.36,4.76,12.54,7.14c0.59,0.34,1.18,0.67,1.77,1.01
						c0.42,0.24,0.8-0.41,0.38-0.65c-4.18-2.38-8.36-4.76-12.54-7.14c-0.59-0.34-1.18-0.67-1.77-1.01
						C36.49,343.66,36.11,344.31,36.53,344.55L36.53,344.55z"/>
				</g>
			</g>
			<g>
				<g>
					<path class="st17" d="M36.44,347.14c4.18,2.38,8.36,4.76,12.54,7.14c0.59,0.34,1.18,0.67,1.77,1.01
						c0.42,0.24,0.8-0.41,0.38-0.65c-4.18-2.38-8.36-4.76-12.54-7.14c-0.59-0.34-1.18-0.67-1.77-1.01
						C36.39,346.26,36.02,346.9,36.44,347.14L36.44,347.14z"/>
				</g>
			</g>
			<g>
				<path class="st1" d="M51.34,355.02c-0.21-0.21-0.54-0.18-0.74-0.09c-0.2,0.09-0.34,0.27-0.44,0.46
					c-0.12,0.22-0.19,0.48-0.15,0.73c0.07,0.4,0.45,0.72,0.85,0.73c0.41,0.01,0.8-0.28,0.92-0.67
					C51.91,355.8,51.67,355.27,51.34,355.02z"/>
			</g>
			<g>
				<path class="st1" d="M35.95,346.98c-0.21-0.21-0.54-0.18-0.74-0.09c-0.2,0.09-0.34,0.27-0.44,0.46
					c-0.12,0.22-0.19,0.48-0.15,0.73c0.07,0.4,0.45,0.72,0.85,0.73c0.41,0.01,0.8-0.28,0.92-0.67
					C36.51,347.76,36.27,347.23,35.95,346.98z"/>
			</g>
			<g>
				<path class="st3" d="M75.66,346.89c-0.28-0.68-0.66-1.36-0.59-2.09c-1.2,0.82-2.51,1.68-3.96,1.6c-0.79-0.04-1.53-0.37-2.3-0.54
					c-1.79-0.41-3.76,0.03-5.21,1.15l0.5,2.72c1.18-0.58,2.59-0.68,3.84-0.28c1.25,0.41,2.33,1.32,2.94,2.48
					c1.33-0.76,2.66-1.52,3.99-2.28c0.32-0.18,0.64-0.37,0.85-0.67C76.12,348.39,75.94,347.56,75.66,346.89z"/>
			</g>
			<g>
				<path class="st3" d="M58.6,357.99c0,1.6,0.55,2.73,1.45,3.28c0.03,0.02,2.84,1.64,2.86,1.66c0.93,0.52,0.34-0.66,1.76-1.48
					c2.86-1.65,5.17-5.64,5.17-8.92c0-1.62,1.5-1.63,0.58-2.17c-0.03-0.01-3.01-1.67-3.04-1.68c-0.93-0.5-2.21-0.41-3.61,0.4
					C60.91,350.72,58.6,354.72,58.6,357.99z"/>
				<path class="st2" d="M61.59,359.69c0,3.28,2.31,4.6,5.17,2.95c2.86-1.65,5.17-5.64,5.17-8.92s-2.31-4.6-5.17-2.95
					C63.91,352.42,61.59,356.41,61.59,359.69z"/>
				<g>
					<g>
						<path class="st9" d="M66.8,353.13c-1.84,1.06-3.34,3.65-3.34,5.76c0,2.11,1.5,2.97,3.34,1.91c1.84-1.06,3.34-3.65,3.34-5.76
							C70.15,352.92,68.65,352.07,66.8,353.13z"/>
					</g>
				</g>
			</g>
			<g>
				<g>
					<path class="st2" d="M76.48,347.54c2.5-1.43,5-2.87,7.5-4.3c6.01-3.45,12.02-6.89,18.03-10.34
						c7.27-4.17,14.55-8.34,21.82-12.52c6.29-3.61,12.59-7.22,18.88-10.83c2.08-1.19,4.16-2.39,6.24-3.58
						c0.94-0.54,2.14-1.01,2.98-1.71c0.04-0.03,0.09-0.05,0.14-0.08c0.42-0.24,0.04-0.89-0.38-0.65c-2.5,1.43-5,2.87-7.5,4.3
						c-6.01,3.45-12.02,6.89-18.03,10.34c-7.27,4.17-14.55,8.34-21.82,12.52c-6.29,3.61-12.59,7.22-18.88,10.83
						c-2.08,1.19-4.16,2.39-6.24,3.58c-0.94,0.54-2.14,1.01-2.98,1.71c-0.04,0.03-0.09,0.05-0.14,0.08
						C75.68,347.13,76.06,347.78,76.48,347.54L76.48,347.54z"/>
				</g>
			</g>
		</g>
		<g>
			<path class="st10" d="M138.28,305.16l-9.34,5.64c-0.59,0.36-0.96,1-0.96,1.7v10.22c0,0.71,0.38,1.37,0.99,1.72l9.32,5.37
				c0.61,0.35,1.36,0.35,1.97,0.01l9.56-5.44c0.62-0.35,1-1.01,1-1.72V312.4c0-0.71-0.38-1.36-0.99-1.72l-9.55-5.54
				C139.67,304.78,138.9,304.79,138.28,305.16z"/>
			<polygon class="st6" points="143.36,319.65 143.23,315.8 131.94,308.99 134.99,307.17 146.4,313.95 146.4,317.92 			"/>
			<g>
				<g>
					<path class="st3" d="M128.2,311.9c3.27,1.84,6.54,3.69,9.81,5.53c0.29,0.17,0.75,0.56,1.1,0.6c0.36,0.04,0.8-0.32,1.1-0.49
						c1.9-1.06,3.8-2.12,5.71-3.18c1.54-0.86,3.08-1.72,4.62-2.58c0.42-0.23,0.04-0.88-0.38-0.65c-3.18,1.77-6.36,3.54-9.54,5.31
						c-0.21,0.11-1.48,0.62-1.53,0.85c-0.02,0.08,0.33,0.18,0.2-0.02c-0.09-0.14-0.49-0.27-0.62-0.35
						c-1.84-1.04-3.69-2.08-5.53-3.12c-1.52-0.86-3.04-1.71-4.55-2.57C128.16,311.02,127.78,311.67,128.2,311.9L128.2,311.9z"/>
				</g>
			</g>
			<g>
				<g>
					<path class="st3" d="M139.58,330.08c0-4.13,0-8.27,0-12.4c0-0.48-0.75-0.48-0.75,0c0,4.13,0,8.27,0,12.4
						C138.83,330.56,139.58,330.56,139.58,330.08L139.58,330.08z"/>
				</g>
			</g>
			<path class="st6" d="M147.42,324.44l2.14-1.23c0.15-0.08,0.24-0.24,0.24-0.41v-0.93c0-0.22-0.24-0.36-0.44-0.25l-2.08,1.22
				c-0.19,0.11-0.3,0.31-0.3,0.52v0.81C146.98,324.41,147.22,324.55,147.42,324.44z"/>
			<path class="st6" d="M128.99,314.24c0,0.59,0.01,1.57,0.01,2.09c0,0.23,0.12,0.43,0.31,0.55l2.54,1.54
				c0.19,0.11,0.43-0.02,0.43-0.24l0.04-2.1c0-0.24-0.12-0.45-0.32-0.57l-2.58-1.52C129.22,313.89,128.99,314.02,128.99,314.24z"/>
		</g>
		<g>
			<path class="st1" d="M124.57,313.65l-9.34,5.64c-0.59,0.36-0.96,1-0.96,1.7v10.22c0,0.71,0.38,1.37,0.99,1.72l9.32,5.37
				c0.61,0.35,1.36,0.35,1.97,0.01l9.56-5.44c0.62-0.35,1-1.01,1-1.72V320.9c0-0.71-0.38-1.36-0.99-1.72l-9.55-5.54
				C125.97,313.27,125.19,313.28,124.57,313.65z"/>
			<polygon class="st6" points="129.65,328.15 129.53,324.29 118.24,317.48 121.29,315.66 132.69,322.44 132.7,326.41 			"/>
			<g>
				<g>
					<path class="st3" d="M114.5,320.39c3.27,1.84,6.54,3.69,9.81,5.53c0.29,0.17,0.75,0.56,1.1,0.6c0.36,0.04,0.8-0.32,1.1-0.49
						c1.9-1.06,3.8-2.12,5.71-3.18c1.54-0.86,3.08-1.72,4.62-2.58c0.42-0.23,0.04-0.88-0.38-0.65c-3.18,1.77-6.36,3.54-9.54,5.31
						c-0.21,0.11-1.48,0.62-1.53,0.85c-0.02,0.08,0.33,0.18,0.2-0.02c-0.09-0.14-0.49-0.27-0.62-0.35
						c-1.84-1.04-3.69-2.08-5.53-3.12c-1.52-0.86-3.04-1.71-4.55-2.57C114.46,319.51,114.08,320.16,114.5,320.39L114.5,320.39z"/>
				</g>
			</g>
			<g>
				<g>
					<path class="st3" d="M125.88,338.57c0-4.13,0-8.27,0-12.4c0-0.48-0.75-0.48-0.75,0c0,4.13,0,8.27,0,12.4
						C125.13,339.05,125.88,339.06,125.88,338.57L125.88,338.57z"/>
				</g>
			</g>
			<path class="st6" d="M133.71,332.93l2.14-1.23c0.15-0.08,0.24-0.24,0.24-0.41v-0.93c0-0.22-0.24-0.36-0.44-0.25l-2.08,1.22
				c-0.19,0.11-0.3,0.31-0.3,0.52v0.81C133.28,332.9,133.52,333.04,133.71,332.93z"/>
			<path class="st6" d="M115.28,322.73c0,0.59,0.01,1.57,0.01,2.09c0,0.23,0.12,0.43,0.31,0.55l2.54,1.54
				c0.19,0.11,0.43-0.02,0.43-0.24l0.04-2.1c0-0.24-0.12-0.45-0.32-0.57l-2.58-1.52C115.52,322.38,115.28,322.52,115.28,322.73z"/>
		</g>
		<g>
			<path class="st17" d="M130.38,296.43l-9.34,5.64c-0.59,0.36-0.96,1-0.96,1.7v10.22c0,0.71,0.38,1.37,0.99,1.72l9.32,5.37
				c0.61,0.35,1.36,0.35,1.97,0.01l9.56-5.44c0.62-0.35,1-1.01,1-1.72v-10.25c0-0.71-0.38-1.36-0.99-1.72l-9.55-5.54
				C131.78,296.05,131,296.06,130.38,296.43z"/>
			<polygon class="st6" points="135.47,310.92 135.34,307.07 124.05,300.26 127.1,298.44 138.5,305.22 138.51,309.19 			"/>
			<g>
				<g>
					<path class="st3" d="M120.31,303.17c3.27,1.84,6.54,3.69,9.81,5.53c0.29,0.17,0.75,0.56,1.1,0.6c0.36,0.04,0.8-0.32,1.1-0.49
						c1.9-1.06,3.8-2.12,5.71-3.18c1.54-0.86,3.08-1.72,4.62-2.58c0.42-0.23,0.04-0.88-0.38-0.65c-3.18,1.77-6.36,3.54-9.54,5.31
						c-0.21,0.11-1.48,0.62-1.53,0.85c-0.02,0.08,0.33,0.18,0.2-0.02c-0.09-0.14-0.49-0.27-0.62-0.35
						c-1.84-1.04-3.69-2.08-5.53-3.12c-1.52-0.86-3.04-1.71-4.55-2.57C120.27,302.29,119.89,302.94,120.31,303.17L120.31,303.17z"/>
				</g>
			</g>
			<g>
				<g>
					<path class="st3" d="M131.69,321.35c0-4.13,0-8.27,0-12.4c0-0.48-0.75-0.48-0.75,0c0,4.13,0,8.27,0,12.4
						C130.94,321.83,131.69,321.83,131.69,321.35L131.69,321.35z"/>
				</g>
			</g>
			<path class="st6" d="M139.53,315.71l2.14-1.23c0.15-0.08,0.24-0.24,0.24-0.41v-0.93c0-0.22-0.24-0.36-0.44-0.25l-2.08,1.22
				c-0.19,0.11-0.3,0.31-0.3,0.52v0.81C139.09,315.68,139.33,315.82,139.53,315.71z"/>
			<path class="st6" d="M121.09,305.51c0,0.59,0.01,1.57,0.01,2.09c0,0.23,0.12,0.43,0.31,0.55l2.54,1.54
				c0.19,0.11,0.43-0.02,0.43-0.24l0.04-2.1c0-0.24-0.12-0.45-0.32-0.57l-2.58-1.52C121.33,305.16,121.1,305.29,121.09,305.51z"/>
		</g>
	</g>
	<g>
		<path class="st2" d="M386.6,125.53c-0.89-0.5-1.98-0.48-2.86,0.04l-86.5,51.24c-13.58,7.33-15.72,18.51-8.12,23.93
			c0.01,0.01-0.02-0.01-0.01-0.01c6.67,4.6,13.58,6.18,13.58,6.18c5.87,1.39,14.9,1.03,22.49-1.1c5.44-1.53,10.66-3.78,15.52-6.66
			l69.85-41.42c0.71-0.42,1.2-1.15,1.31-1.97l2.61-12.35c0.26-1.23-0.31-2.48-1.41-3.1L386.6,125.53z"/>
		<path id="XMLID_15365_" class="st9" d="M385.34,133.37l-75.59,42.99c-12.16,6.14-22.21,11.66-21.29,18.56l1.12,2
			c0.36,0.44,0.44,0.63,1.03,0.96l0.66,0.71c6.62,3.73,23.14-0.75,32.2-5.26l51.46-28.94l31.1-19.47L385.34,133.37z"/>
		<path id="XMLID_15333_" class="st9" d="M371.72,140.81l-0.28-22.62l32.49,3.57l0.29,22.75c0.05,0.25-0.51,0.84-0.81,1.02
			l-10.63,6.28c-0.58,0.35-1.61,0.32-2.29-0.06l-18.19-10.17C371.9,141.37,371.7,141.08,371.72,140.81z"/>
		<path id="XMLID_15332_" class="st9" d="M392.46,127.07l11.07-6.63c0.58-0.35,0.5-0.94-0.19-1.32l-18.19-10.17
			c-0.68-0.38-1.71-0.4-2.29-0.06l-11.07,6.63c-0.58,0.35-0.5,0.94,0.19,1.32l18.19,10.17
			C390.85,127.39,391.88,127.42,392.46,127.07z"/>
		<path id="XMLID_15331_" class="st9" d="M371.41,115.92c0.04,0.23,0.23,0.47,0.56,0.65l18.19,10.17c0.68,0.38,1.71,0.4,2.29,0.06
			l11.07-6.63c0.22-0.13,0.35-0.3,0.38-0.48l0.03,2.67c0.05,0.25-0.07,0.49-0.38,0.67l-11.07,6.63c-0.58,0.35-1.61,0.32-2.29-0.06
			l-18.19-10.17c-0.4-0.22-0.59-0.51-0.57-0.79L371.41,115.92L371.41,115.92z"/>
		<g>
			<g>
				<path class="st3" d="M371.46,135.29c-3.37,1.95-6.73,3.9-10.09,5.86c-7.74,4.51-15.48,9.03-23.21,13.57
					c-8.57,5.04-17.13,10.09-25.65,15.21c-5.96,3.58-11.98,7.12-17.76,10.99c-2.95,1.98-5.58,4.44-6.96,7.81
					c-1.08,2.64-0.64,5.68,1.08,7.94c1.61,2.11,3.93,2.99,6.49,3.28c6.42,0.72,13.15-0.87,19.22-2.79c2.7-0.86,5.31-2.02,7.88-3.21
					c8.15-3.77,16.04-8.09,23.89-12.45c9.42-5.23,18.75-10.63,28.04-16.1c8.23-4.85,16.43-9.76,24.61-14.72
					c4.4-2.67,8.8-5.35,13.18-8.06c0.21-0.13,0.41-0.25,0.62-0.38c0.41-0.25,0.03-0.9-0.38-0.65c-2.96,1.83-5.93,3.65-8.91,5.46
					c-7.25,4.42-14.52,8.8-21.81,13.14c-9.07,5.4-18.17,10.73-27.35,15.94c-8.42,4.78-16.88,9.5-25.52,13.88
					c-7.37,3.73-14.64,7.01-22.81,8.55c-2.95,0.56-5.98,0.9-8.99,0.77c-2.7-0.12-5.4-0.6-7.27-2.75
					c-4.14-4.77-0.28-10.99,4.01-14.07c4.81-3.46,10.02-6.43,15.08-9.49c8.15-4.93,16.34-9.78,24.55-14.62
					c8.02-4.72,16.05-9.43,24.09-14.11c4.57-2.66,9.14-5.32,13.71-7.97c0.21-0.12,0.43-0.25,0.64-0.37
					C372.26,135.7,371.88,135.05,371.46,135.29L371.46,135.29z"/>
			</g>
		</g>
		<g>
			<g>
				<path class="st3" d="M371.22,116.25c4.4,2.43,8.81,4.86,13.21,7.29c1.48,0.82,2.94,1.69,4.45,2.46
					c3.05,1.55,5.45-0.17,7.99-1.69c2.41-1.43,4.81-2.87,7.22-4.3c0.41-0.25,0.04-0.9-0.38-0.65c-1.93,1.15-3.87,2.3-5.8,3.46
					c-2.42,1.44-5.38,3.99-8.33,2.67c-1.55-0.69-3.01-1.63-4.49-2.44c-2.75-1.52-5.51-3.04-8.26-4.56
					c-1.74-0.96-3.49-1.93-5.24-2.89C371.17,115.37,370.8,116.01,371.22,116.25L371.22,116.25z"/>
			</g>
		</g>
		<g>
			<g>
				<path class="st3" d="M391.51,126.25c0.12,9.05,0.23,18.09,0.35,27.14c0.01,0.48,0.76,0.48,0.75,0
					c-0.12-9.05-0.23-18.09-0.35-27.14C392.25,125.77,391.5,125.77,391.51,126.25L391.51,126.25z"/>
			</g>
		</g>
		<g>
			<path id="XMLID_14839_" class="st10" d="M370.75,132.22l-5.64,3.38c-0.47,0.28-0.75,0.79-0.74,1.33l0.11,8.69
				c0.01,0.54,0.3,1.04,0.78,1.31l17.69,10.03c0.48,0.27,1.07,0.26,1.54-0.02l5.62-3.37c0.47-0.28,0.75-0.79,0.74-1.33l-0.11-8.82
				c-0.01-0.55-0.31-1.05-0.78-1.32l-17.67-9.91C371.81,131.93,371.22,131.94,370.75,132.22z"/>
			<g>
				<g>
					<path class="st3" d="M364.56,136.74c-0.33,0.06-0.2-0.01,0.08,0.15c0.27,0.15,0.54,0.31,0.81,0.46
						c0.9,0.52,1.79,1.04,2.68,1.56c2.5,1.47,5,2.95,7.49,4.43c2.11,1.25,4.23,2.51,6.34,3.76c0.17,0.1,1.03,0.79,1.23,0.74
						c-0.17,0.04-0.18-0.58-0.15,0.12c0.02,0.49,0.04,0.98,0.05,1.47c0.09,2.58,0.19,5.15,0.28,7.73c0.02,0.48,0.77,0.48,0.75,0
						c-0.08-2.34-0.17-4.68-0.25-7.02c-0.03-0.77,0.13-1.86-0.09-2.62c-0.12-0.39-0.52-0.53-0.86-0.73
						c-4.65-2.77-9.3-5.53-13.96-8.27c-1.07-0.63-2.14-1.26-3.22-1.88c-0.34-0.2-0.95-0.72-1.38-0.64
						C363.89,136.1,364.09,136.82,364.56,136.74L364.56,136.74z"/>
				</g>
			</g>
			<g>
				<g>
					<path class="st3" d="M383.37,147.13c0.03-0.01,0.06-0.02,0.09-0.04c0.12,0.21,0.24,0.42,0.36,0.63
						c-0.14,0.14,0.07-0.04,0.13-0.08c0.18-0.11,0.35-0.22,0.53-0.34c0.57-0.36,1.14-0.72,1.71-1.08c1.26-0.79,2.52-1.59,3.78-2.38
						c0.29-0.18,0.58-0.37,0.88-0.55c0.41-0.26,0.03-0.91-0.38-0.65c-2.08,1.31-4.17,2.62-6.25,3.93c-0.29,0.18-0.69,0.36-0.93,0.61
						c-0.28,0.29,0.01,0.68,0.36,0.63c0.01,0,0.08-0.04,0.09-0.04C384.18,147.57,383.8,146.92,383.37,147.13L383.37,147.13z"/>
				</g>
			</g>
		</g>
		<g>
			<path id="XMLID_00000109019249937929546510000013833377772837000611_" class="st17" d="M361.9,137.74l-5.64,3.38
				c-0.47,0.28-0.75,0.79-0.74,1.33l0.11,8.69c0.01,0.54,0.3,1.04,0.78,1.31l17.69,10.03c0.48,0.27,1.07,0.26,1.54-0.02l5.62-3.37
				c0.47-0.28,0.75-0.79,0.74-1.33l-0.11-8.82c-0.01-0.55-0.31-1.05-0.78-1.32l-17.67-9.91
				C362.96,137.45,362.37,137.46,361.9,137.74z"/>
			<g>
				<g>
					<path class="st3" d="M355.72,142.26c-0.33,0.06-0.2-0.01,0.08,0.15c0.27,0.15,0.54,0.31,0.81,0.46
						c0.9,0.52,1.79,1.04,2.68,1.56c2.5,1.47,5,2.95,7.49,4.43c2.11,1.25,4.23,2.51,6.34,3.76c0.17,0.1,1.03,0.79,1.23,0.74
						c-0.17,0.04-0.18-0.58-0.15,0.12c0.02,0.49,0.04,0.98,0.05,1.47c0.09,2.58,0.19,5.15,0.28,7.73c0.02,0.48,0.77,0.48,0.75,0
						c-0.08-2.34-0.17-4.68-0.25-7.02c-0.03-0.77,0.13-1.86-0.09-2.62c-0.12-0.39-0.52-0.53-0.86-0.73
						c-4.65-2.77-9.3-5.53-13.96-8.27c-1.07-0.63-2.14-1.26-3.22-1.88c-0.34-0.2-0.95-0.72-1.38-0.64
						C355.04,141.62,355.24,142.34,355.72,142.26L355.72,142.26z"/>
				</g>
			</g>
			<g>
				<g>
					<path class="st3" d="M374.52,152.65c0.03-0.01,0.06-0.02,0.09-0.04c0.12,0.21,0.24,0.42,0.36,0.63
						c-0.14,0.14,0.07-0.04,0.13-0.08c0.18-0.11,0.35-0.22,0.53-0.34c0.57-0.36,1.14-0.72,1.71-1.08c1.26-0.79,2.52-1.59,3.78-2.38
						c0.29-0.18,0.58-0.37,0.88-0.55c0.41-0.26,0.03-0.91-0.38-0.65c-2.08,1.31-4.17,2.62-6.25,3.93c-0.29,0.18-0.69,0.36-0.93,0.61
						c-0.28,0.29,0.01,0.68,0.36,0.63c0.01,0,0.08-0.04,0.09-0.04C375.34,153.09,374.96,152.44,374.52,152.65L374.52,152.65z"/>
				</g>
			</g>
		</g>
		<g>
			<path id="XMLID_00000030450321330850012750000017815738073081137806_" class="st2" d="M352.66,142.89l-5.64,3.38
				c-0.47,0.28-0.75,0.79-0.74,1.33l0.11,8.69c0.01,0.54,0.3,1.04,0.78,1.31l17.69,10.03c0.48,0.27,1.07,0.26,1.54-0.02l5.62-3.37
				c0.47-0.28,0.75-0.79,0.74-1.33l-0.11-8.82c-0.01-0.55-0.31-1.05-0.78-1.32l-17.67-9.91
				C353.71,142.6,353.13,142.61,352.66,142.89z"/>
			<g>
				<g>
					<path class="st3" d="M346.47,147.41c-0.33,0.06-0.2-0.01,0.08,0.15c0.27,0.15,0.54,0.31,0.81,0.46
						c0.9,0.52,1.79,1.04,2.68,1.56c2.5,1.47,5,2.95,7.49,4.43c2.11,1.25,4.23,2.51,6.34,3.76c0.17,0.1,1.03,0.79,1.23,0.74
						c-0.17,0.04-0.18-0.58-0.15,0.12c0.02,0.49,0.04,0.98,0.05,1.47c0.09,2.58,0.19,5.15,0.28,7.73c0.02,0.48,0.77,0.48,0.75,0
						c-0.08-2.34-0.17-4.68-0.25-7.02c-0.03-0.77,0.13-1.86-0.1-2.62c-0.12-0.39-0.52-0.53-0.86-0.73
						c-4.65-2.77-9.3-5.53-13.96-8.27c-1.07-0.63-2.14-1.26-3.22-1.88c-0.34-0.2-0.95-0.72-1.38-0.64
						C345.8,146.77,346,147.49,346.47,147.41L346.47,147.41z"/>
				</g>
			</g>
			<g>
				<g>
					<path class="st3" d="M365.28,157.8c0.03-0.01,0.06-0.02,0.09-0.04c0.12,0.21,0.24,0.42,0.36,0.63
						c-0.14,0.14,0.07-0.04,0.13-0.08c0.18-0.11,0.35-0.22,0.53-0.34c0.57-0.36,1.14-0.72,1.71-1.08c1.26-0.79,2.52-1.59,3.78-2.38
						c0.29-0.18,0.58-0.37,0.88-0.55c0.41-0.26,0.03-0.91-0.38-0.65c-2.08,1.31-4.17,2.62-6.25,3.93c-0.29,0.18-0.69,0.36-0.93,0.61
						c-0.28,0.29,0.01,0.68,0.36,0.63c0.01,0,0.08-0.04,0.09-0.04C366.09,158.24,365.71,157.59,365.28,157.8L365.28,157.8z"/>
				</g>
			</g>
		</g>
		<g>
			<path id="XMLID_00000130644030856893502600000009978670603917434268_" class="st1" d="M344.4,147.92l-5.64,3.38
				c-0.47,0.28-0.75,0.79-0.74,1.33l0.11,8.69c0.01,0.54,0.3,1.04,0.78,1.31l17.69,10.03c0.48,0.27,1.07,0.26,1.54-0.02l5.62-3.37
				c0.47-0.28,0.75-0.79,0.74-1.33l-0.11-8.82c-0.01-0.55-0.31-1.05-0.78-1.32l-17.67-9.91
				C345.46,147.63,344.87,147.63,344.4,147.92z"/>
			<g>
				<g>
					<path class="st3" d="M338.21,152.43c-0.33,0.06-0.2-0.01,0.08,0.15c0.27,0.15,0.54,0.31,0.81,0.46
						c0.9,0.52,1.79,1.04,2.68,1.56c2.5,1.47,5,2.95,7.49,4.43c2.11,1.25,4.23,2.51,6.34,3.76c0.17,0.1,1.03,0.79,1.23,0.74
						c-0.17,0.04-0.18-0.58-0.15,0.12c0.02,0.49,0.04,0.98,0.05,1.47c0.09,2.58,0.19,5.15,0.28,7.73c0.02,0.48,0.77,0.48,0.75,0
						c-0.08-2.34-0.17-4.68-0.25-7.02c-0.03-0.77,0.13-1.86-0.1-2.62c-0.12-0.39-0.52-0.53-0.86-0.73
						c-4.65-2.77-9.3-5.53-13.96-8.27c-1.07-0.63-2.14-1.26-3.22-1.88c-0.34-0.2-0.95-0.72-1.38-0.64
						C337.54,151.79,337.74,152.52,338.21,152.43L338.21,152.43z"/>
				</g>
			</g>
			<g>
				<g>
					<path class="st3" d="M357.02,162.82c0.03-0.01,0.06-0.02,0.09-0.04c0.12,0.21,0.24,0.42,0.36,0.63
						c-0.14,0.14,0.07-0.04,0.13-0.08c0.18-0.11,0.35-0.22,0.53-0.34c0.57-0.36,1.14-0.72,1.71-1.08c1.26-0.79,2.52-1.59,3.78-2.38
						c0.29-0.18,0.58-0.37,0.88-0.55c0.41-0.26,0.03-0.91-0.38-0.65c-2.08,1.31-4.17,2.62-6.25,3.93c-0.29,0.18-0.69,0.36-0.93,0.61
						c-0.28,0.29,0.01,0.68,0.36,0.63c0.01,0,0.08-0.04,0.09-0.04C357.83,163.26,357.45,162.62,357.02,162.82L357.02,162.82z"/>
				</g>
			</g>
		</g>
		<g>
			<path id="XMLID_00000079466417031217144050000009805995074935477174_" class="st10" d="M361.2,127.27l-5.64,3.38
				c-0.47,0.28-0.75,0.79-0.74,1.33l0.11,8.69c0.01,0.54,0.3,1.04,0.78,1.31l17.69,10.03c0.48,0.27,1.07,0.26,1.54-0.02l5.62-3.37
				c0.47-0.28,0.75-0.79,0.74-1.33l-0.11-8.82c-0.01-0.55-0.31-1.05-0.78-1.32l-17.67-9.91
				C362.26,126.98,361.67,126.99,361.2,127.27z"/>
			<g>
				<g>
					<path class="st3" d="M355.01,131.79c-0.33,0.06-0.2-0.01,0.08,0.15c0.27,0.15,0.54,0.31,0.81,0.46
						c0.9,0.52,1.79,1.04,2.68,1.56c2.5,1.47,5,2.95,7.49,4.43c2.11,1.25,4.23,2.51,6.34,3.76c0.17,0.1,1.03,0.79,1.23,0.74
						c-0.17,0.04-0.18-0.58-0.15,0.12c0.02,0.49,0.04,0.98,0.05,1.47c0.09,2.58,0.19,5.15,0.28,7.73c0.02,0.48,0.77,0.48,0.75,0
						c-0.08-2.34-0.17-4.68-0.25-7.02c-0.03-0.77,0.13-1.86-0.1-2.62c-0.12-0.39-0.52-0.53-0.86-0.73
						c-4.65-2.77-9.3-5.53-13.96-8.27c-1.07-0.63-2.14-1.26-3.22-1.88c-0.34-0.2-0.95-0.72-1.38-0.64
						C354.34,131.15,354.54,131.88,355.01,131.79L355.01,131.79z"/>
				</g>
			</g>
			<g>
				<g>
					<path class="st3" d="M373.82,142.18c0.03-0.01,0.06-0.02,0.09-0.04c0.12,0.21,0.24,0.42,0.36,0.63
						c-0.14,0.14,0.07-0.04,0.13-0.08c0.18-0.11,0.35-0.22,0.53-0.34c0.57-0.36,1.14-0.72,1.71-1.08c1.26-0.79,2.52-1.59,3.78-2.38
						c0.29-0.18,0.58-0.37,0.88-0.55c0.41-0.26,0.03-0.91-0.38-0.65c-2.08,1.31-4.17,2.62-6.25,3.93c-0.29,0.18-0.69,0.36-0.93,0.61
						c-0.28,0.29,0.01,0.68,0.36,0.63c0.01,0,0.08-0.04,0.09-0.04C374.63,142.62,374.25,141.97,373.82,142.18L373.82,142.18z"/>
				</g>
			</g>
		</g>
		<g>
			<path id="XMLID_00000111910263646803646960000007930155039945594293_" class="st10" d="M329.38,155.85l-5.64,3.38
				c-0.47,0.28-0.75,0.79-0.74,1.33l0.11,8.69c0.01,0.54,0.3,1.04,0.78,1.31l17.69,10.03c0.48,0.27,1.07,0.26,1.54-0.02l5.62-3.37
				c0.47-0.28,0.75-0.79,0.74-1.33l-0.11-8.82c-0.01-0.55-0.31-1.05-0.78-1.32l-17.67-9.91
				C330.43,155.56,329.85,155.57,329.38,155.85z"/>
			<g>
				<g>
					<path class="st3" d="M323.19,160.36c-0.33,0.06-0.2-0.01,0.08,0.15c0.27,0.15,0.54,0.31,0.81,0.46
						c0.9,0.52,1.79,1.04,2.68,1.56c2.5,1.47,5,2.95,7.49,4.43c2.11,1.25,4.23,2.51,6.34,3.76c0.17,0.1,1.03,0.79,1.23,0.74
						c-0.17,0.04-0.18-0.58-0.15,0.12c0.02,0.49,0.04,0.98,0.05,1.47c0.09,2.58,0.19,5.15,0.28,7.73c0.02,0.48,0.77,0.48,0.75,0
						c-0.08-2.34-0.17-4.68-0.25-7.02c-0.03-0.77,0.13-1.86-0.09-2.62c-0.12-0.39-0.52-0.53-0.86-0.73
						c-4.65-2.77-9.3-5.53-13.96-8.27c-1.07-0.63-2.14-1.26-3.22-1.88c-0.34-0.2-0.95-0.72-1.38-0.64
						C322.52,159.73,322.72,160.45,323.19,160.36L323.19,160.36z"/>
				</g>
			</g>
			<g>
				<g>
					<path class="st3" d="M342,170.75c0.03-0.01,0.06-0.02,0.09-0.04c0.12,0.21,0.24,0.42,0.36,0.63c-0.14,0.14,0.07-0.04,0.13-0.08
						c0.18-0.11,0.35-0.22,0.53-0.34c0.57-0.36,1.14-0.72,1.71-1.08c1.26-0.79,2.52-1.59,3.78-2.38c0.29-0.18,0.58-0.37,0.88-0.55
						c0.41-0.26,0.03-0.91-0.38-0.65c-2.08,1.31-4.17,2.62-6.25,3.93c-0.29,0.18-0.69,0.36-0.93,0.61
						c-0.28,0.29,0.01,0.68,0.36,0.63c0.01,0,0.08-0.04,0.09-0.04C342.81,171.19,342.43,170.55,342,170.75L342,170.75z"/>
				</g>
			</g>
		</g>
		<g>
			<path id="XMLID_00000013180546013031713970000006165609174499833491_" class="st17" d="M319.96,161.64l-5.64,3.38
				c-0.47,0.28-0.75,0.79-0.74,1.33l0.11,8.69c0.01,0.54,0.3,1.04,0.78,1.31l17.69,10.03c0.48,0.27,1.07,0.26,1.54-0.02l5.62-3.37
				c0.47-0.28,0.75-0.79,0.74-1.33l-0.11-8.82c-0.01-0.55-0.31-1.05-0.78-1.32l-17.67-9.91
				C321.01,161.34,320.43,161.35,319.96,161.64z"/>
			<g>
				<g>
					<path class="st3" d="M313.77,166.15c-0.33,0.06-0.2-0.01,0.08,0.15c0.27,0.15,0.54,0.31,0.81,0.46
						c0.9,0.52,1.79,1.04,2.68,1.56c2.5,1.47,5,2.95,7.49,4.43c2.11,1.25,4.23,2.51,6.34,3.76c0.17,0.1,1.03,0.79,1.23,0.74
						c-0.17,0.04-0.18-0.58-0.15,0.13c0.02,0.49,0.04,0.98,0.05,1.47c0.09,2.58,0.19,5.15,0.28,7.73c0.02,0.48,0.77,0.48,0.75,0
						c-0.08-2.34-0.17-4.68-0.25-7.02c-0.03-0.77,0.13-1.86-0.09-2.62c-0.12-0.39-0.52-0.53-0.86-0.73
						c-4.65-2.77-9.3-5.53-13.96-8.27c-1.07-0.63-2.14-1.26-3.22-1.88c-0.34-0.2-0.95-0.72-1.38-0.64
						C313.1,165.51,313.3,166.24,313.77,166.15L313.77,166.15z"/>
				</g>
			</g>
			<g>
				<g>
					<path class="st3" d="M332.58,176.54c0.03-0.01,0.06-0.02,0.09-0.04c0.12,0.21,0.24,0.42,0.36,0.63
						c-0.14,0.14,0.07-0.04,0.13-0.08c0.18-0.11,0.35-0.22,0.53-0.34c0.57-0.36,1.14-0.72,1.71-1.08c1.26-0.79,2.52-1.59,3.78-2.38
						c0.29-0.18,0.58-0.37,0.88-0.55c0.41-0.26,0.03-0.91-0.38-0.65c-2.08,1.31-4.17,2.62-6.25,3.93c-0.29,0.18-0.69,0.36-0.93,0.61
						c-0.28,0.29,0.01,0.68,0.36,0.63c0.01,0,0.08-0.04,0.09-0.04C333.39,176.98,333.01,176.33,332.58,176.54L332.58,176.54z"/>
				</g>
			</g>
		</g>
		<g>
			<path id="XMLID_00000117641460283689085900000006300054952122319509_" class="st1" d="M305.23,170.3l-5.48,3.29
				c-0.45,0.27-0.73,0.77-0.72,1.29l0.11,8.45c0.01,0.53,0.29,1.01,0.75,1.28l17.19,9.75c0.47,0.26,1.04,0.26,1.5-0.02l5.47-3.28
				c0.45-0.27,0.73-0.77,0.72-1.29l-0.11-8.57c-0.01-0.53-0.3-1.02-0.76-1.28l-17.17-9.63C306.26,170.01,305.69,170.02,305.23,170.3
				z"/>
			<g>
				<g>
					<path class="st3" d="M299.23,174.69c-0.32,0.06-0.21-0.01,0.07,0.15c0.26,0.15,0.53,0.3,0.79,0.45c0.87,0.5,1.74,1.01,2.6,1.52
						c2.43,1.43,4.86,2.86,7.28,4.3c2.05,1.22,4.11,2.44,6.16,3.66c0.17,0.1,1,0.76,1.2,0.71c-0.17,0.04-0.18-0.58-0.15,0.11
						c0.02,0.48,0.03,0.95,0.05,1.43c0.09,2.5,0.18,5.01,0.27,7.51c0.02,0.48,0.77,0.48,0.75,0c-0.08-2.27-0.16-4.54-0.25-6.82
						c-0.03-0.76,0.12-1.81-0.09-2.54c-0.11-0.39-0.5-0.52-0.84-0.72c-4.52-2.69-9.04-5.38-13.57-8.04
						c-1.04-0.61-2.08-1.22-3.13-1.83c-0.33-0.19-0.93-0.7-1.35-0.62C298.55,174.06,298.75,174.78,299.23,174.69L299.23,174.69z"/>
				</g>
			</g>
			<g>
				<g>
					<path class="st3" d="M317.49,184.77c0.03-0.01,0.06-0.02,0.09-0.04c0.12,0.21,0.24,0.42,0.36,0.63
						c-0.14,0.14,0.07-0.03,0.13-0.07c0.17-0.11,0.34-0.22,0.51-0.33c0.55-0.35,1.1-0.7,1.66-1.05c1.23-0.77,2.45-1.54,3.68-2.31
						c0.28-0.18,0.57-0.36,0.85-0.54c0.41-0.26,0.03-0.91-0.38-0.65c-2.02,1.27-4.05,2.54-6.07,3.82c-0.28,0.18-0.67,0.35-0.91,0.59
						c-0.28,0.29,0.01,0.68,0.36,0.63c0.01,0,0.08-0.04,0.09-0.04C318.31,185.21,317.93,184.56,317.49,184.77L317.49,184.77z"/>
				</g>
			</g>
		</g>
		<g>
			<path id="XMLID_00000005963399173533378200000008700149943605447827_" class="st17" d="M350.2,133.97l-5.64,3.38
				c-0.47,0.28-0.75,0.79-0.74,1.33l0.11,8.69c0.01,0.54,0.3,1.04,0.78,1.31l17.69,10.03c0.48,0.27,1.07,0.26,1.54-0.02l5.62-3.37
				c0.47-0.28,0.75-0.79,0.74-1.33l-0.11-8.82c-0.01-0.55-0.31-1.05-0.78-1.32l-17.67-9.91
				C351.26,133.68,350.67,133.69,350.2,133.97z"/>
			<g>
				<g>
					<path class="st3" d="M344.02,138.49c-0.33,0.06-0.2-0.01,0.08,0.15c0.27,0.15,0.54,0.31,0.81,0.46
						c0.9,0.52,1.79,1.04,2.68,1.56c2.5,1.47,5,2.95,7.49,4.43c2.11,1.25,4.23,2.51,6.34,3.76c0.17,0.1,1.03,0.79,1.23,0.74
						c-0.17,0.04-0.18-0.58-0.15,0.12c0.02,0.49,0.04,0.98,0.05,1.47c0.09,2.58,0.19,5.15,0.28,7.73c0.02,0.48,0.77,0.48,0.75,0
						c-0.08-2.34-0.17-4.68-0.25-7.02c-0.03-0.77,0.13-1.86-0.1-2.62c-0.12-0.39-0.52-0.53-0.86-0.73
						c-4.65-2.77-9.3-5.53-13.96-8.27c-1.07-0.63-2.14-1.26-3.22-1.88c-0.34-0.2-0.95-0.72-1.38-0.64
						C343.34,137.85,343.54,138.57,344.02,138.49L344.02,138.49z"/>
				</g>
			</g>
			<g>
				<g>
					<path class="st3" d="M362.82,148.88c0.03-0.01,0.06-0.02,0.09-0.04c0.12,0.21,0.24,0.42,0.36,0.63
						c-0.14,0.14,0.07-0.04,0.13-0.08c0.18-0.11,0.35-0.22,0.53-0.34c0.57-0.36,1.14-0.72,1.71-1.08c1.26-0.79,2.52-1.59,3.78-2.38
						c0.29-0.18,0.58-0.37,0.88-0.55c0.41-0.26,0.03-0.91-0.38-0.65c-2.08,1.31-4.17,2.62-6.25,3.93c-0.29,0.18-0.69,0.36-0.93,0.61
						c-0.28,0.29,0.01,0.68,0.36,0.63c0.01,0,0.08-0.04,0.09-0.04C363.64,149.32,363.26,148.67,362.82,148.88L362.82,148.88z"/>
				</g>
			</g>
		</g>
		<polygon class="st4" points="372.62,125.61 389.56,134.83 389.51,130.96 372.56,121.7 		"/>
		<polygon class="st4" points="393.46,130.85 393.5,133.97 404.01,127.49 403.96,124.59 		"/>
		<g>
			<path id="XMLID_00000021835874325938887150000007804442825490532286_" class="st1" d="M324.09,148.42l-5.64,3.38
				c-0.47,0.28-0.75,0.79-0.74,1.33l0.11,8.69c0.01,0.54,0.3,1.04,0.78,1.31l17.69,10.03c0.48,0.27,1.07,0.26,1.54-0.02l5.62-3.37
				c0.47-0.28,0.75-0.79,0.74-1.33l-0.11-8.82c-0.01-0.55-0.31-1.05-0.78-1.32l-17.67-9.91
				C325.15,148.13,324.56,148.14,324.09,148.42z"/>
			<g>
				<g>
					<path class="st3" d="M317.91,152.93c-0.33,0.06-0.2-0.01,0.08,0.15c0.27,0.15,0.54,0.31,0.81,0.46
						c0.9,0.52,1.79,1.04,2.68,1.56c2.5,1.47,5,2.95,7.49,4.43c2.11,1.25,4.22,2.51,6.34,3.76c0.17,0.1,1.03,0.79,1.23,0.74
						c-0.17,0.04-0.18-0.58-0.15,0.13c0.02,0.49,0.04,0.98,0.05,1.47c0.09,2.58,0.19,5.15,0.28,7.73c0.02,0.48,0.77,0.48,0.75,0
						c-0.08-2.34-0.17-4.68-0.25-7.02c-0.03-0.77,0.13-1.86-0.1-2.62c-0.12-0.39-0.52-0.53-0.86-0.73
						c-4.65-2.77-9.3-5.53-13.96-8.27c-1.07-0.63-2.14-1.26-3.22-1.88c-0.34-0.2-0.95-0.72-1.38-0.64
						C317.23,152.3,317.43,153.02,317.91,152.93L317.91,152.93z"/>
				</g>
			</g>
			<g>
				<g>
					<path class="st3" d="M336.71,163.32c0.03-0.01,0.06-0.02,0.09-0.04c0.12,0.21,0.24,0.42,0.36,0.63
						c-0.14,0.14,0.07-0.04,0.13-0.08c0.18-0.11,0.35-0.22,0.53-0.34c0.57-0.36,1.14-0.72,1.71-1.08c1.26-0.79,2.52-1.59,3.78-2.38
						c0.29-0.18,0.58-0.37,0.88-0.55c0.41-0.26,0.03-0.91-0.38-0.65c-2.08,1.31-4.17,2.62-6.25,3.93c-0.29,0.18-0.69,0.36-0.93,0.61
						c-0.28,0.29,0.01,0.68,0.36,0.63c0.01,0,0.08-0.04,0.09-0.04C337.53,163.76,337.15,163.12,336.71,163.32L336.71,163.32z"/>
				</g>
			</g>
		</g>
		<g>
			<g>
				<path class="st3" d="M292.93,203.43c22.87,2.3,43.15-10.91,61.81-22.25c15.49-9.41,31.2-18.47,46.77-27.76
					c4.24-2.53,8.48-5.06,12.71-7.59c0.41-0.25,0.04-0.9-0.38-0.65c-10.9,6.52-21.8,13.02-32.72,19.5
					c-7.64,4.54-15.3,9.06-22.96,13.57c-9.19,5.41-18.09,11.3-27.68,16c-11.65,5.71-24.44,9.74-37.55,8.42
					C292.45,202.63,292.45,203.38,292.93,203.43L292.93,203.43z"/>
			</g>
		</g>
	</g>
	<g>
		<path class="st2" d="M344.94,285.05c0,0-7.78-10.85-8.92-10.94c-1.14-0.09-2.44,0.73-2.94,2.03c-0.49,1.29,0.99,14.23,0.99,14.23
			l10.87-4.91"/>
		<g>
			<g>
				<path class="st2" d="M315.83,331.7c-2.35,1.28-7.91,4.23-9.47,6.31c-1.57,2.08-2.02,5.13-0.57,7.29
					c1.44,2.14,4.35,2.89,6.88,2.41c2.53-0.48,4.74-1.96,6.78-3.53c2.04-1.57,8.21-7.13,8.21-7.13"/>
			</g>
			<g>
				<path class="st3" d="M307.46,340.26c-0.67,0.58-0.9,2.12-0.56,3.19c0.34,1.07,1.1,2.02,2.13,2.48c1.03,0.45,2.31,0.36,3.19-0.34
					c1.2-0.95,1.4-2.87,0.57-4.16C311.95,340.14,309.16,338.73,307.46,340.26"/>
			</g>
		</g>
		<g>
			<g>
				<path class="st2" d="M267.48,303.4c-2.35,1.28-7.91,4.23-9.47,6.31c-1.57,2.08-2.02,5.13-0.57,7.29
					c1.44,2.14,4.35,2.89,6.88,2.41c2.53-0.48,4.74-1.96,6.78-3.53c2.04-1.57,8.21-7.13,8.21-7.13"/>
			</g>
			<g>
				<path class="st3" d="M258.17,313.86c-0.19,0.68,0.25,2.02,0.88,2.81c0.63,0.79,1.48,1.35,2.3,1.43
					c0.82,0.07,1.59-0.38,1.88-1.22c0.39-1.14-0.23-2.79-1.25-3.61C260.96,312.45,258.65,312.09,258.17,313.86"/>
			</g>
		</g>
		<path class="st10" d="M314.79,319.15c0,0,51.25,13.35,53.11,17.33c0.61,1.29-0.56,7.11-39.53,3.36
			c-38.97-3.75-35.58-7.48-35.58-7.48L314.79,319.15z"/>
		<path class="st10" d="M354.17,283.14c4.2,3.85,0.25,8.02-3.04,11.51c-3.9,4.13-9.03,9.43-12.29,12.23
			c-5.84,5.03-58.27,33.83-64.28,35.68c-6.01,1.85-14.24-1.01-10.07-9.98c4.17-8.98,24.84-19,32.17-23.65
			c7.33-4.65,41.53-21.17,41.53-21.17l9.3-5.5C349.27,281.21,352.05,280.78,354.17,283.14L354.17,283.14L354.17,283.14z"/>
		<path class="st10" d="M371.89,294.87c0,0-1.52,3.74-5.27,3.91c-3.75,0.17-24.73-2.09-24.73-2.09l7.05-8.74L371.89,294.87z"/>
		<path class="st10" d="M295.81,311.74c0,0-30.09-21.12-31.81-22.23c-1.8-1.17-4.78,0.37-4.88,1.48
			c-1.12,12.13,12.55,34.43,14.91,31.61L295.81,311.74z"/>
		<path class="st10" d="M351.35,284.99c-1.21-0.06-13.97,8.59-14.64,7.78c-0.67-0.81,3.87-20.1,7.41-27.4
			c1.3-2.69,7.35-4.4,7.35-4.4L351.35,284.99z"/>
		<g>
			<g>
				<path class="st3" d="M362.35,339.79c-3.63,0.65-7.36,0.78-11.04,0.83c-4.74,0.06-9.49-0.11-14.22-0.4
					c-10.38-0.64-20.78-1.81-30.99-3.83c-4.46-0.88-8.93-1.91-13.2-3.48c-0.45-0.17-0.65,0.56-0.2,0.72
					c8.53,3.15,17.8,4.5,26.77,5.66c10.17,1.31,20.45,2.14,30.71,2.09c4.12-0.02,8.3-0.14,12.37-0.86
					C363.03,340.43,362.83,339.7,362.35,339.79L362.35,339.79z"/>
			</g>
		</g>
		<path class="st1" d="M351.11,274.11l-12.25,7.31l4.87-16.1c0,0,5.71-4.9,7.38-4.24V274.11z"/>
		<g>
			<g>
				<path class="st3" d="M266.73,328.73c6.91-7.16,16.31-11.8,24.93-16.54c8.33-4.57,16.76-8.95,25.2-13.31
					c4.26-2.2,8.52-4.38,12.79-6.56c1.91-0.98,3.83-1.96,5.74-2.94c0.78-0.4,2.05-0.71,2.37-1.56c0.63-1.66,0.9-3.54,1.35-5.25
					c0.78-2.94,1.59-5.88,2.46-8.8c0.8-2.67,1.54-5.51,2.8-8.01c1.26-2.5,4.64-3.76,7.2-4.43c-0.16-0.12-0.32-0.24-0.47-0.36
					c-0.03,7.01-0.07,14.02-0.1,21.03c0,1-0.01,2-0.01,2.99c0,0.48,0.75,0.48,0.75,0c0.03-7.01,0.07-14.02,0.1-21.03
					c0-1,0.01-2,0.01-2.99c0-0.25-0.24-0.42-0.47-0.36c-2.46,0.65-5.49,1.81-7.1,3.87c-1.16,1.48-1.69,3.63-2.27,5.39
					c-1.78,5.38-3.22,10.88-4.61,16.37c-0.1,0.37-0.14,1.24-0.39,1.54c-0.13,0.16-1.04,0.47-1.37,0.63
					c-1.01,0.52-2.01,1.03-3.02,1.55c-4.2,2.16-8.41,4.31-12.61,6.47c-8.73,4.49-17.45,9-26.08,13.68
					c-4.83,2.62-9.67,5.27-14.38,8.11c-4.75,2.86-9.47,5.98-13.34,9.99C265.86,328.55,266.39,329.08,266.73,328.73L266.73,328.73z"
					/>
			</g>
		</g>
		<g>
			<g>
				<path class="st3" d="M352.63,288.77c-3.8,0.55-5.44,4.49-6.51,7.68c-0.15,0.46,0.57,0.66,0.72,0.2
					c0.99-2.96,2.45-6.65,5.98-7.16C353.3,289.43,353.1,288.71,352.63,288.77L352.63,288.77z"/>
			</g>
		</g>
		<g>
			<g>
				<path class="st3" d="M319.56,318.3c-8.98,4.88-17.97,9.76-26.95,14.64c-0.42,0.23-0.05,0.88,0.38,0.65
					c8.98-4.88,17.97-9.76,26.95-14.64C320.36,318.72,319.99,318.07,319.56,318.3L319.56,318.3z"/>
			</g>
		</g>
		<g>
			<path class="st4" d="M318.98,314.11c-8.98,4.88-25.2,13.99-34.18,18.87l0.65-3.14l33.75-18.77L318.98,314.11z"/>
		</g>
		<path class="st4" d="M265.82,330.38c0,0-1.48,4.35,2.47,5.74c2.71,0.95,8.41-0.66,13.09-4.3l-0.55,3.13c0,0-6.08,4.24-11.41,3.89
			c-1.83-0.12-3.58-0.94-4.66-2.43c-0.5-0.7-0.88-1.57-0.78-2.57C264.34,332.5,265.08,331.29,265.82,330.38"/>
	</g>
</g>
</svg>
