<?xml version="1.0" encoding="utf-8"?>
<!-- Generator: Adobe Illustrator 24.3.0, SVG Export Plug-In . SVG Version: 6.00 Build 0)  -->
<svg version="1.1" xmlns="http://www.w3.org/2000/svg" xmlns:xlink="http://www.w3.org/1999/xlink" x="0px" y="0px"
	 viewBox="0 0 652.98 424.15" style="enable-background:new 0 0 652.98 424.15;" xml:space="preserve">
<style type="text/css">
	.st0{fill:#F0F2F7;}
	.st1{fill:#F2A441;}
	.st2{fill:#545DBF;}
	.st3{fill:#26244A;}
	.st4{fill:#FFFFFF;}
	.st5{opacity:0.33;fill:#B8C1EA;}
	.st6{fill:#DADEF1;}
	.st7{fill:#FF725E;}
	.st8{fill:#9EABDB;}
	.st9{fill:#87B74E;}
	.st10{fill:#B8C1EA;}
	.st11{fill:#4092E2;}
	.st12{fill:#F5F5F5;}
	.st13{fill:#ED796A;}
	.st14{fill:#F4B298;}
	.st15{fill:none;stroke:#26244A;stroke-linecap:round;stroke-linejoin:round;stroke-miterlimit:10;}
	.st16{clip-path:url(#SVGID_2_);}
	.st17{fill:#EF6856;}
	.st18{fill:#25184C;}
</style>
<g id="BACKGROUND_x0A_">
</g>
<g id="OBJECTS_x0A_">
	<g>
		<path class="st0" d="M632.51,424.15H307.8c-2.37,0-4.28-1.92-4.28-4.28V4.28c0-2.37,1.92-4.28,4.28-4.28h332.01
			c7.27,0,13.17,5.89,13.17,13.17v390.51C652.98,414.99,643.81,424.15,632.51,424.15z"/>
		<g>
			<polygon class="st0" points="237.66,282.87 256,293.35 322.85,254.54 304.49,244.08 			"/>
			<path class="st0" d="M232.35,277.18l-3.31,20.88l33.96-1.03C263,297.04,232.62,277.59,232.35,277.18z"/>
		</g>
	</g>
	<g>
		<path class="st1" d="M346.6,175.02l-15.2,9.19c-0.97,0.59-1.56,1.63-1.56,2.76v16.63c0,1.15,0.62,2.22,1.62,2.8l15.18,8.75
			c0.99,0.57,2.22,0.58,3.21,0.01l15.56-8.86c1.01-0.57,1.63-1.65,1.63-2.81V186.8c0-1.15-0.61-2.22-1.61-2.79l-15.54-9.02
			C348.87,174.39,347.61,174.41,346.6,175.02z"/>
		<polygon class="st2" points="347.88,174.57 330.31,185.29 347.98,195.54 366.25,185.14 		"/>
		<polygon class="st1" points="330.52,185.46 325.6,178.67 344.72,190.28 347.98,195.54 		"/>
		<g>
			<g>
				<path class="st3" d="M348.5,215.57c0-11.05,0-22.1,0-33.16c0-2.47,0-4.93,0-7.4c0-0.48-0.75-0.48-0.75,0c0,11.05,0,22.1,0,33.16
					c0,2.47,0,4.93,0,7.4C347.75,216.06,348.5,216.06,348.5,215.57L348.5,215.57z"/>
			</g>
		</g>
		<path class="st4" d="M361.48,206.39l3.49-2c0.24-0.14,0.38-0.39,0.38-0.66v-1.51c0-0.37-0.4-0.59-0.71-0.41l-3.38,1.99
			c-0.3,0.18-0.49,0.5-0.49,0.85v1.32C360.77,206.35,361.17,206.57,361.48,206.39z"/>
		<path class="st4" d="M331.48,189.79c-0.01,0.96,0.01,2.55,0.02,3.41c0,0.37,0.2,0.7,0.51,0.89l4.14,2.51
			c0.3,0.18,0.69-0.03,0.7-0.39l0.06-3.42c0.01-0.38-0.19-0.74-0.52-0.93l-4.21-2.47C331.87,189.22,331.48,189.44,331.48,189.79z"/>
		<polygon class="st1" points="331.48,185.29 325.56,178.5 344.23,166.5 347.88,175.02 		"/>
		<path class="st1" d="M365.35,185c0.1-0.25,5.27-8.25,5.27-8.25l-19.5-10.94l-3.24,9.21L365.35,185z"/>
		<polygon class="st1" points="348.12,195.39 351.13,189.97 370.25,178.64 365.71,185.59 		"/>
		<g>
			<g>
				<path class="st3" d="M330.33,185.78c5.3,2.98,10.59,5.95,15.89,8.93c0.48,0.27,1.3,0.99,1.87,1.04c0.52,0.05,1.23-0.56,1.65-0.8
					c3.1-1.73,6.19-3.46,9.29-5.19c2.47-1.38,4.94-2.76,7.41-4.14c0.42-0.24,0.04-0.88-0.38-0.65c-5.2,2.91-10.4,5.81-15.6,8.72
					c-0.52,0.29-1.04,0.58-1.55,0.87c-0.21,0.12-0.67,0.27-0.83,0.46c-0.15,0.19-0.06-0.28,0.28,0.04c-0.05-0.05-0.15-0.06-0.2-0.11
					c-0.24-0.25-0.75-0.42-1.05-0.59c-3.03-1.7-6.05-3.4-9.08-5.1c-2.44-1.37-4.88-2.74-7.32-4.11
					C330.28,184.9,329.91,185.55,330.33,185.78L330.33,185.78z"/>
			</g>
		</g>
		<g>
			<g>
				<path class="st3" d="M325.37,178.82c3.12,1.85,6.25,3.7,9.37,5.55c2.16,1.28,4.31,2.56,6.47,3.83c1.03,0.61,2.36,1.15,3.27,1.93
					c-0.29-0.25,0.14,0.36,0.23,0.52c0.33,0.59,0.65,1.19,0.98,1.78c0.51,0.94,1.03,1.87,1.54,2.81c0.23,0.42,0.88,0.05,0.65-0.38
					c-0.43-0.78-0.85-1.55-1.28-2.33c-0.49-0.9-0.91-2.02-1.55-2.82c-0.56-0.7-1.73-1.13-2.49-1.58c-4.36-2.58-8.72-5.17-13.08-7.75
					c-1.24-0.74-2.48-1.47-3.72-2.21C325.33,177.93,324.95,178.58,325.37,178.82L325.37,178.82z"/>
			</g>
		</g>
		<g>
			<g>
				<path class="st3" d="M370.12,178.32c-3.19,1.89-6.37,3.77-9.56,5.66c-2.19,1.3-4.38,2.6-6.57,3.89
					c-0.92,0.55-2.19,1.04-2.99,1.77c-0.63,0.58-1.01,1.73-1.41,2.47c-0.53,0.97-1.06,1.94-1.59,2.9c-0.23,0.42,0.42,0.8,0.65,0.38
					c0.93-1.7,1.77-3.49,2.81-5.13c0.15-0.24-0.21,0.13,0.03-0.04c0.15-0.11,0.33-0.19,0.49-0.29c0.66-0.39,1.32-0.78,1.98-1.17
					c4.32-2.56,8.65-5.12,12.97-7.68c1.19-0.71,2.38-1.41,3.57-2.12C370.92,178.72,370.54,178.07,370.12,178.32L370.12,178.32z"/>
			</g>
		</g>
		<g>
			<g>
				<path class="st3" d="M334.19,183.8c4.08-2.49,8.16-4.97,12.24-7.46c0.52-0.32,1.16-0.6,1.63-0.99
					c-0.28,0.24-0.47-0.14-0.04,0.18c0.31,0.23,0.7,0.39,1.04,0.57c2.47,1.37,4.94,2.74,7.41,4.1c1.98,1.1,3.97,2.2,5.95,3.29
					c0.42,0.23,0.8-0.41,0.38-0.65c-4.91-2.72-9.82-5.44-14.73-8.15c-0.12-0.06-0.26-0.07-0.38,0c-4.63,2.82-9.25,5.64-13.88,8.46
					C333.4,183.4,333.77,184.05,334.19,183.8L334.19,183.8z"/>
			</g>
		</g>
	</g>
	<path class="st5" d="M356.53,120.1l23.81,13.93c2.78,1.62,6.21,1.64,8.99,0.03l24.39-14.04c2.83-1.63,2.87-5.7,0.07-7.39
		l-25.93-15.62c-1.34-0.81-3.02-0.82-4.37-0.03l-26.95,15.71C353.7,114.35,353.7,118.44,356.53,120.1z"/>
	<path class="st2" d="M348.42,89.86l28.21,16.5c3.53,2.07,7.91,2.08,11.45,0.04l28.19-16.22c3.48-2.28,3.44-10.17,2.4-12.47
		l-33.09-14.43c-1.37-0.83-3.08-0.84-4.46-0.03l-32.33,17.42c-0.21-1.58-1.51-1.96-1.54-1.84
		C346.59,82.15,345.54,87.67,348.42,89.86z"/>
	<path class="st6" d="M349.81,81.89l27.77,16.24c3.24,1.89,7.24,1.91,10.49,0.04l28.45-16.37c3.3-1.9,3.35-6.65,0.09-8.62
		l-30.24-18.22c-1.57-0.94-3.52-0.96-5.1-0.04l-31.44,18.33C346.51,75.18,346.51,79.96,349.81,81.89z"/>
	<g>
		<path class="st1" d="M514.13,248.69l-12.31,7.44c-0.78,0.47-1.26,1.32-1.26,2.24v13.46c0,0.94,0.5,1.8,1.31,2.27l12.29,7.08
			c0.8,0.46,1.79,0.47,2.6,0.01l12.6-7.17c0.82-0.47,1.32-1.33,1.32-2.27v-13.51c0-0.93-0.5-1.79-1.3-2.26l-12.58-7.3
			C515.97,248.19,514.95,248.2,514.13,248.69z"/>
		<polygon class="st4" points="520.83,267.79 520.66,262.71 505.78,253.74 509.8,251.34 524.83,260.27 524.84,265.51 		"/>
		<g>
			<g>
				<path class="st3" d="M500.92,257.47c4.29,2.42,8.59,4.84,12.88,7.27c0.38,0.22,0.97,0.72,1.42,0.79
					c0.44,0.07,0.95-0.36,1.32-0.57c2.52-1.4,5.03-2.8,7.55-4.2c2.05-1.14,4.1-2.28,6.15-3.42c0.42-0.23,0.04-0.88-0.38-0.65
					c-4.25,2.37-8.5,4.73-12.75,7.1c-0.46,0.26-1.55,0.61-1.87,1.04c-0.01,0.01,0.34,0.21,0.16-0.05c-0.14-0.2-0.7-0.39-0.91-0.51
					c-2.42-1.36-4.84-2.73-7.25-4.09c-1.98-1.12-3.96-2.24-5.94-3.35C500.87,256.59,500.49,257.24,500.92,257.47L500.92,257.47z"/>
			</g>
		</g>
		<g>
			<g>
				<path class="st3" d="M515.74,281.54c0-5.45,0-10.9,0-16.35c0-0.48-0.75-0.48-0.75,0c0,5.45,0,10.9,0,16.35
					C514.99,282.02,515.74,282.02,515.74,281.54L515.74,281.54z"/>
			</g>
		</g>
		<path class="st4" d="M526.18,274.1l2.82-1.62c0.19-0.11,0.31-0.31,0.31-0.54v-1.22c0-0.3-0.32-0.48-0.58-0.33l-2.73,1.61
			c-0.24,0.14-0.39,0.41-0.39,0.69v1.07C525.6,274.06,525.92,274.25,526.18,274.1z"/>
		<path class="st4" d="M501.89,260.66c0,0.77,0.01,2.06,0.01,2.76c0,0.3,0.16,0.57,0.41,0.72l3.35,2.03
			c0.25,0.15,0.56-0.02,0.57-0.31l0.05-2.77c0.01-0.31-0.16-0.6-0.42-0.76l-3.41-2C502.2,260.2,501.89,260.37,501.89,260.66z"/>
	</g>
	<g>
		<path class="st1" d="M380.92,53.97l-12.31,7.44c-0.78,0.47-1.26,1.32-1.26,2.24v13.46c0,0.94,0.5,1.8,1.31,2.27l12.29,7.08
			c0.8,0.46,1.79,0.47,2.6,0.01l12.6-7.17c0.82-0.47,1.32-1.33,1.32-2.27V63.51c0-0.93-0.5-1.79-1.3-2.26l-12.58-7.3
			C382.76,53.46,381.74,53.47,380.92,53.97z"/>
		<polygon class="st4" points="387.62,73.07 387.45,67.98 372.57,59.01 376.59,56.61 391.62,65.54 391.63,70.78 		"/>
		<g>
			<g>
				<path class="st3" d="M367.71,62.75c4.29,2.42,8.59,4.84,12.88,7.27c0.38,0.22,0.97,0.72,1.42,0.79
					c0.44,0.07,0.95-0.36,1.32-0.57c2.52-1.4,5.03-2.8,7.55-4.2c2.05-1.14,4.1-2.28,6.15-3.42c0.42-0.23,0.04-0.88-0.38-0.65
					c-4.25,2.37-8.5,4.73-12.75,7.1c-0.46,0.26-1.55,0.61-1.87,1.04c-0.01,0.01,0.34,0.21,0.16-0.05c-0.14-0.2-0.7-0.39-0.91-0.51
					c-2.42-1.36-4.84-2.73-7.25-4.09c-1.98-1.12-3.96-2.24-5.94-3.35C367.67,61.86,367.29,62.51,367.71,62.75L367.71,62.75z"/>
			</g>
		</g>
		<g>
			<g>
				<path class="st3" d="M382.53,86.81c0-5.45,0-10.9,0-16.35c0-0.48-0.75-0.48-0.75,0c0,5.45,0,10.9,0,16.35
					C381.78,87.29,382.53,87.29,382.53,86.81L382.53,86.81z"/>
			</g>
		</g>
		<path class="st4" d="M392.97,79.37l2.82-1.62c0.19-0.11,0.31-0.31,0.31-0.54V76c0-0.3-0.32-0.48-0.58-0.33l-2.73,1.61
			c-0.24,0.14-0.39,0.41-0.39,0.69v1.07C392.4,79.34,392.71,79.52,392.97,79.37z"/>
		<path class="st4" d="M368.68,65.93c0,0.77,0.01,2.06,0.01,2.76c0,0.3,0.16,0.57,0.41,0.72l3.35,2.03
			c0.25,0.15,0.56-0.02,0.57-0.31l0.05-2.77c0.01-0.31-0.16-0.6-0.42-0.76l-3.41-2C368.99,65.47,368.68,65.65,368.68,65.93z"/>
	</g>
	<g>
		<path class="st1" d="M626.13,285.34l-9.26,5.6c-0.59,0.36-0.95,1-0.95,1.68v10.13c0,0.7,0.38,1.35,0.98,1.7l9.24,5.33
			c0.61,0.35,1.35,0.35,1.96,0.01l9.48-5.4c0.61-0.35,0.99-1,0.99-1.71v-10.16c0-0.7-0.37-1.35-0.98-1.7l-9.46-5.49
			C627.52,284.96,626.75,284.97,626.13,285.34z"/>
		<polygon class="st4" points="631.17,299.71 631.04,295.88 619.85,289.13 622.88,287.33 634.18,294.05 634.19,297.99 		"/>
		<g>
			<g>
				<path class="st3" d="M616.15,292.02c3.24,1.83,6.48,3.66,9.73,5.49c0.29,0.16,0.74,0.56,1.09,0.6c0.36,0.04,0.79-0.32,1.09-0.48
					c1.89-1.05,3.77-2.1,5.66-3.15c1.53-0.85,3.06-1.7,4.59-2.55c0.42-0.23,0.04-0.88-0.38-0.65c-3.15,1.76-6.31,3.51-9.46,5.27
					c-0.21,0.11-1.46,0.61-1.52,0.85c-0.02,0.08,0.34,0.18,0.21-0.02c-0.09-0.14-0.48-0.27-0.62-0.35
					c-1.83-1.03-3.66-2.06-5.48-3.09c-1.5-0.85-3.01-1.7-4.51-2.55C616.1,291.14,615.72,291.79,616.15,292.02L616.15,292.02z"/>
			</g>
		</g>
		<g>
			<g>
				<path class="st3" d="M627.43,310.04c0-4.1,0-8.2,0-12.3c0-0.48-0.75-0.48-0.75,0c0,4.1,0,8.2,0,12.3
					C626.68,310.52,627.43,310.53,627.43,310.04L627.43,310.04z"/>
			</g>
		</g>
		<path class="st4" d="M635.2,304.45l2.12-1.22c0.14-0.08,0.23-0.24,0.23-0.4v-0.92c0-0.22-0.24-0.36-0.43-0.25l-2.06,1.21
			c-0.18,0.11-0.3,0.31-0.3,0.52v0.8C634.76,304.42,635,304.56,635.2,304.45z"/>
		<path class="st4" d="M616.92,294.34c0,0.58,0.01,1.55,0.01,2.07c0,0.22,0.12,0.43,0.31,0.54l2.52,1.53
			c0.19,0.11,0.42-0.02,0.43-0.23l0.04-2.08c0-0.23-0.12-0.45-0.32-0.57l-2.56-1.5C617.16,293.99,616.92,294.12,616.92,294.34z"/>
	</g>
	<g>
		<path class="st7" d="M55.93,370.58l-10.92,6.6c-0.7,0.42-1.12,1.17-1.12,1.99v11.95c0,0.83,0.44,1.6,1.16,2.01l10.9,6.29
			c0.71,0.41,1.59,0.41,2.31,0.01l11.18-6.37c0.72-0.41,1.17-1.18,1.17-2.02v-11.98c0-0.83-0.44-1.59-1.16-2.01l-11.16-6.48
			C57.57,370.14,56.66,370.14,55.93,370.58z"/>
		<polygon class="st4" points="61.88,387.53 61.73,383.02 48.53,375.06 52.09,372.93 65.43,380.86 65.44,385.5 		"/>
		<g>
			<g>
				<path class="st3" d="M44.19,378.41c3.81,2.15,7.61,4.29,11.42,6.44c0.35,0.2,0.91,0.69,1.32,0.73c0.39,0.04,0.87-0.36,1.2-0.54
					c2.23-1.24,4.46-2.48,6.69-3.73c1.81-1.01,3.62-2.02,5.43-3.03c0.42-0.23,0.04-0.88-0.38-0.65c-3.74,2.09-7.49,4.17-11.23,6.26
					c-0.44,0.24-1.41,0.56-1.72,0.96c-0.03,0.03,0.31,0.21,0.16-0.04c-0.1-0.17-0.6-0.34-0.77-0.44c-2.16-1.22-4.32-2.44-6.48-3.65
					c-1.75-0.99-3.5-1.97-5.25-2.96C44.14,377.52,43.77,378.17,44.19,378.41L44.19,378.41z"/>
			</g>
		</g>
		<g>
			<g>
				<path class="st3" d="M57.4,399.72c0-4.83,0-9.67,0-14.5c0-0.48-0.75-0.48-0.75,0c0,4.83,0,9.67,0,14.5
					C56.65,400.21,57.4,400.21,57.4,399.72L57.4,399.72z"/>
			</g>
		</g>
		<path class="st4" d="M66.62,393.13l2.51-1.44c0.17-0.1,0.28-0.28,0.28-0.48v-1.08c0-0.26-0.29-0.43-0.51-0.29l-2.43,1.43
			c-0.22,0.13-0.35,0.36-0.35,0.61v0.95C66.12,393.09,66.4,393.26,66.62,393.13z"/>
		<path class="st4" d="M45.07,381.2c0,0.69,0.01,1.83,0.01,2.45c0,0.26,0.14,0.51,0.37,0.64l2.97,1.8c0.22,0.13,0.5-0.02,0.5-0.28
			l0.04-2.46c0-0.27-0.14-0.53-0.38-0.67l-3.02-1.77C45.35,380.79,45.07,380.95,45.07,381.2z"/>
	</g>
	<g>
		<path class="st8" d="M254.24,88.08l-14.46,8.74c-0.92,0.56-1.48,1.55-1.48,2.63v15.82c0,1.1,0.59,2.11,1.54,2.66l14.44,8.32
			c0.94,0.54,2.11,0.55,3.06,0.01l14.8-8.43c0.96-0.55,1.55-1.57,1.55-2.67V99.3c0-1.1-0.58-2.11-1.53-2.66l-14.78-8.58
			C256.4,87.49,255.2,87.5,254.24,88.08z"/>
		<polygon class="st4" points="262.11,110.52 261.91,104.55 244.43,94.01 249.15,91.19 266.81,101.69 266.82,107.84 		"/>
		<g>
			<g>
				<path class="st3" d="M238.75,98.34c5.01,2.83,10.02,5.65,15.04,8.48c0.47,0.26,1.25,0.94,1.8,1c0.49,0.06,1.19-0.54,1.59-0.76
					c2.91-1.62,5.82-3.24,8.74-4.87c2.41-1.34,4.81-2.68,7.22-4.02c0.42-0.23,0.04-0.88-0.38-0.65c-4.97,2.77-9.94,5.54-14.91,8.31
					c-0.46,0.26-0.92,0.51-1.38,0.77c-0.18,0.1-0.76,0.29-0.87,0.48c-0.02,0.03,0.35,0.23,0.11-0.05c-0.21-0.24-0.75-0.43-1.03-0.58
					c-2.86-1.61-5.72-3.22-8.58-4.84c-2.32-1.31-4.65-2.62-6.97-3.93C238.71,97.46,238.33,98.1,238.75,98.34L238.75,98.34z"/>
			</g>
		</g>
		<g>
			<g>
				<path class="st3" d="M256.06,126.67c0-6.4,0-12.8,0-19.2c0-0.48-0.75-0.48-0.75,0c0,6.4,0,12.8,0,19.2
					C255.31,127.15,256.06,127.15,256.06,126.67L256.06,126.67z"/>
			</g>
		</g>
		<path class="st4" d="M268.4,117.93l3.32-1.9c0.23-0.13,0.36-0.37,0.36-0.63v-1.43c0-0.35-0.38-0.56-0.68-0.39l-3.21,1.9
			c-0.29,0.17-0.46,0.48-0.46,0.81v1.26C267.72,117.89,268.1,118.11,268.4,117.93z"/>
		<path class="st4" d="M239.86,102.14c0,0.91,0.01,2.42,0.02,3.24c0,0.35,0.19,0.67,0.48,0.85l3.93,2.39
			c0.29,0.18,0.66-0.03,0.67-0.37l0.06-3.25c0.01-0.36-0.18-0.7-0.5-0.89l-4-2.35C240.23,101.6,239.86,101.81,239.86,102.14z"/>
	</g>
	<g>
		<path class="st1" d="M21.51,359.26L2,371.05c-1.24,0.75-2,2.1-2,3.55v21.34c0,1.48,0.79,2.85,2.08,3.59l19.48,11.23
			c1.27,0.73,2.84,0.74,4.12,0.01l19.97-11.37c1.3-0.74,2.09-2.11,2.09-3.6v-21.41c0-1.48-0.79-2.84-2.06-3.59l-19.94-11.58
			C24.43,358.46,22.81,358.47,21.51,359.26z"/>
		<polygon class="st4" points="32.12,389.53 31.86,381.47 8.28,367.25 14.65,363.45 38.47,377.61 38.49,385.91 		"/>
		<g>
			<g>
				<path class="st3" d="M0.67,372.98c6.76,3.81,13.52,7.62,20.28,11.43c0.66,0.37,1.57,1.15,2.32,1.31
					c0.65,0.14,1.61-0.68,2.14-0.98c3.98-2.22,7.96-4.43,11.94-6.65c3.19-1.78,6.38-3.55,9.57-5.33c0.42-0.23,0.04-0.88-0.38-0.65
					c-6.71,3.73-13.41,7.47-20.12,11.2c-0.65,0.36-1.31,0.73-1.96,1.09c-0.22,0.12-0.96,0.38-1.09,0.61
					c-0.15,0.27-0.29-0.51,0.25,0.06c-0.06-0.07-0.19-0.08-0.26-0.14c-0.36-0.32-0.93-0.52-1.35-0.76
					c-3.88-2.19-7.75-4.37-11.63-6.56c-3.12-1.76-6.23-3.52-9.35-5.27C0.63,372.1,0.25,372.75,0.67,372.98L0.67,372.98z"/>
			</g>
		</g>
		<g>
			<g>
				<path class="st3" d="M23.84,411.31c0-8.64,0-17.27,0-25.91c0-0.48-0.75-0.48-0.75,0c0,8.64,0,17.27,0,25.91
					C23.09,411.8,23.84,411.8,23.84,411.31L23.84,411.31z"/>
			</g>
		</g>
		<path class="st4" d="M40.61,399.53l4.48-2.57c0.3-0.17,0.49-0.5,0.49-0.85v-1.94c0-0.47-0.51-0.76-0.91-0.52l-4.34,2.56
			c-0.39,0.23-0.63,0.65-0.63,1.1v1.69C39.7,399.47,40.2,399.76,40.61,399.53z"/>
		<path class="st4" d="M2.1,378.23c-0.01,1.23,0.01,3.27,0.02,4.37c0,0.47,0.25,0.9,0.65,1.15l5.31,3.22
			c0.39,0.24,0.89-0.04,0.9-0.5l0.08-4.39c0.01-0.49-0.25-0.95-0.67-1.2l-5.4-3.17C2.6,377.49,2.11,377.77,2.1,378.23z"/>
	</g>
	<g>
		<path class="st1" d="M304.42,199.34l-12.31,7.44c-0.78,0.47-1.26,1.32-1.26,2.24v13.46c0,0.94,0.5,1.8,1.31,2.27l12.29,7.08
			c0.8,0.46,1.79,0.47,2.6,0.01l12.6-7.17c0.82-0.47,1.32-1.33,1.32-2.27v-13.51c0-0.93-0.5-1.79-1.3-2.26l-12.58-7.3
			C306.26,198.84,305.24,198.85,304.42,199.34z"/>
		<polygon class="st4" points="311.12,218.44 310.95,213.35 296.08,204.39 300.09,201.99 315.12,210.92 315.13,216.15 		"/>
		<g>
			<g>
				<path class="st3" d="M291.21,208.12c4.29,2.42,8.59,4.84,12.88,7.26c0.38,0.22,0.97,0.72,1.42,0.79
					c0.44,0.07,0.95-0.36,1.32-0.57c2.52-1.4,5.03-2.8,7.55-4.2c2.05-1.14,4.1-2.28,6.15-3.42c0.42-0.23,0.04-0.88-0.38-0.65
					c-4.25,2.37-8.5,4.73-12.75,7.1c-0.46,0.26-1.55,0.61-1.87,1.04c-0.01,0.01,0.34,0.21,0.16-0.05c-0.14-0.2-0.7-0.39-0.91-0.51
					c-2.42-1.36-4.84-2.73-7.25-4.09c-1.98-1.12-3.96-2.24-5.94-3.35C291.17,207.24,290.79,207.88,291.21,208.12L291.21,208.12z"/>
			</g>
		</g>
		<g>
			<g>
				<path class="st3" d="M306.03,232.18c0-5.45,0-10.9,0-16.35c0-0.48-0.75-0.48-0.75,0c0,5.45,0,10.9,0,16.35
					C305.28,232.66,306.03,232.66,306.03,232.18L306.03,232.18z"/>
			</g>
		</g>
		<path class="st4" d="M316.47,224.75l2.82-1.62c0.19-0.11,0.31-0.31,0.31-0.54v-1.22c0-0.3-0.32-0.48-0.58-0.33l-2.74,1.61
			c-0.24,0.14-0.39,0.41-0.39,0.69v1.07C315.9,224.71,316.22,224.89,316.47,224.75z"/>
		<path class="st4" d="M292.18,211.31c0,0.77,0.01,2.06,0.01,2.76c0,0.3,0.16,0.57,0.41,0.72l3.35,2.03
			c0.25,0.15,0.56-0.02,0.57-0.31l0.05-2.77c0.01-0.31-0.16-0.6-0.42-0.76l-3.41-2C292.49,210.84,292.18,211.02,292.18,211.31z"/>
	</g>
	<g>
		<polygon class="st6" points="553.63,220.89 571.97,231.37 638.82,192.56 620.47,182.09 		"/>
		<path class="st6" d="M548.32,215.2l-3.31,20.88l33.96-1.03C578.97,235.05,548.59,215.61,548.32,215.2z"/>
	</g>
	<g>
		<polygon class="st6" points="539.86,394.91 558.2,405.39 625.06,366.58 606.7,356.11 		"/>
		<path class="st6" d="M534.56,389.22l-3.31,20.88l33.96-1.03C565.21,409.08,534.83,389.63,534.56,389.22z"/>
	</g>
	<g>
		<g>
			<path class="st9" d="M429.6,328.09c0.43-4-1.26-8.34-4.76-10.31c-1.26-0.71-3.03-1.07-4.01-0.01c-0.56,0.61-0.67,1.53-0.47,2.33
				c0.21,0.8,0.69,1.5,1.2,2.15C423.54,324.73,426.65,326.89,429.6,328.09"/>
		</g>
		<g>
			<path class="st9" d="M430.8,327.63c2.78,0.01,5.54-1.02,7.63-2.86c0.62-0.55,1.23-1.29,1.11-2.11c-0.09-0.63-0.61-1.13-1.21-1.35
				c-0.6-0.21-1.26-0.18-1.88-0.05C433.41,321.89,430.78,324.52,430.8,327.63"/>
		</g>
		<g>
			<g>
				<path class="st3" d="M424.68,321.19c3.35,3.14,5.53,7.42,6.03,11.99c0.05,0.47,0.8,0.48,0.75,0c-0.53-4.77-2.74-9.24-6.25-12.52
					C424.86,320.33,424.32,320.86,424.68,321.19L424.68,321.19z"/>
			</g>
		</g>
		<g>
			<g>
				<path class="st3" d="M430.45,328.23c1.88-1.46,3.76-2.93,5.64-4.39c0.16-0.13,0.13-0.4,0-0.53c-0.16-0.16-0.37-0.12-0.53,0
					c-1.88,1.46-3.76,2.93-5.64,4.39c-0.16,0.13-0.13,0.4,0,0.53C430.07,328.39,430.29,328.36,430.45,328.23L430.45,328.23z"/>
			</g>
		</g>
	</g>
	<g>
		<g>
			<path class="st9" d="M335.79,247.91c0.43-4-1.26-8.34-4.76-10.31c-1.26-0.71-3.03-1.07-4.01-0.01c-0.56,0.61-0.67,1.53-0.47,2.33
				c0.21,0.8,0.69,1.5,1.2,2.15C329.74,244.55,332.85,246.7,335.79,247.91"/>
		</g>
		<g>
			<path class="st9" d="M337,247.45c2.78,0.01,5.54-1.02,7.63-2.86c0.62-0.55,1.23-1.29,1.11-2.11c-0.09-0.63-0.61-1.13-1.21-1.35
				c-0.6-0.21-1.26-0.18-1.88-0.05C339.6,241.71,336.98,244.34,337,247.45"/>
		</g>
		<g>
			<g>
				<path class="st3" d="M330.87,241.01c3.35,3.14,5.53,7.42,6.03,11.99c0.05,0.47,0.8,0.48,0.75,0c-0.53-4.77-2.74-9.24-6.25-12.52
					C331.05,240.15,330.52,240.68,330.87,241.01L330.87,241.01z"/>
			</g>
		</g>
		<g>
			<g>
				<path class="st3" d="M336.64,248.05c1.88-1.46,3.76-2.93,5.64-4.39c0.16-0.13,0.13-0.4,0-0.53c-0.16-0.16-0.37-0.12-0.53,0
					c-1.88,1.46-3.76,2.93-5.64,4.39c-0.16,0.13-0.13,0.4,0,0.53C336.27,248.21,336.48,248.18,336.64,248.05L336.64,248.05z"/>
			</g>
		</g>
	</g>
	<g>
		<g>
			<g>
				<g>
					<path class="st10" d="M354.5,209.17c5.2,2.93,10.4,5.87,15.6,8.8c8.21,4.63,16.43,9.27,24.64,13.9
						c1.91,1.08,3.82,2.16,5.74,3.24c2.28,1.29,5.57,0.62,6.84-1.79c1.25-2.37,0.64-5.47-1.79-6.84c-5.2-2.93-10.4-5.87-15.6-8.8
						c-8.21-4.63-16.43-9.27-24.64-13.9c-1.91-1.08-3.82-2.16-5.74-3.24c-2.28-1.29-5.57-0.62-6.84,1.79
						C351.45,204.7,352.06,207.8,354.5,209.17L354.5,209.17z"/>
				</g>
			</g>
			<g>
				<g>
					<path class="st2" d="M383.55,224.07c-0.47-1.44-0.34-3.04,0.43-4.36c0.68-1.15,1.79-2.01,3.07-2.39
						c0.46-0.14,0.26-0.86-0.2-0.72c-1.46,0.44-2.74,1.41-3.52,2.73c-0.87,1.48-1.04,3.31-0.51,4.94
						C382.98,224.72,383.7,224.53,383.55,224.07L383.55,224.07z"/>
				</g>
			</g>
			<g>
				<g>
					<path class="st2" d="M388.26,226.7c-0.47-1.44-0.34-3.04,0.43-4.36c0.68-1.15,1.79-2.01,3.07-2.39
						c0.46-0.14,0.26-0.86-0.2-0.72c-1.46,0.44-2.74,1.41-3.52,2.73c-0.87,1.48-1.04,3.31-0.51,4.94
						C387.68,227.36,388.41,227.16,388.26,226.7L388.26,226.7z"/>
				</g>
			</g>
			<g>
				<g>
					<path class="st2" d="M392.84,229.31c-0.47-1.44-0.34-3.04,0.43-4.36c0.68-1.15,1.79-2.01,3.07-2.39
						c0.46-0.14,0.26-0.86-0.2-0.72c-1.46,0.44-2.74,1.41-3.52,2.73c-0.87,1.48-1.04,3.31-0.51,4.94
						C392.27,229.97,392.99,229.77,392.84,229.31L392.84,229.31z"/>
				</g>
			</g>
			<g>
				<g>
					<path class="st2" d="M357.94,209.93c-0.47-1.44-0.34-3.04,0.43-4.36c0.68-1.15,1.79-2.01,3.07-2.39
						c0.46-0.14,0.26-0.86-0.2-0.72c-1.46,0.44-2.74,1.41-3.52,2.73c-0.87,1.48-1.04,3.31-0.51,4.94
						C357.37,210.59,358.09,210.4,357.94,209.93L357.94,209.93z"/>
				</g>
			</g>
			<g>
				<g>
					<path class="st2" d="M363,212.59c-0.47-1.44-0.34-3.04,0.43-4.36c0.68-1.15,1.79-2.01,3.07-2.39c0.46-0.14,0.26-0.86-0.2-0.72
						c-1.46,0.44-2.74,1.41-3.52,2.73c-0.87,1.48-1.04,3.31-0.51,4.94C362.42,213.25,363.15,213.05,363,212.59L363,212.59z"/>
				</g>
			</g>
			<g>
				<g>
					<path class="st2" d="M368.15,215.51c-0.47-1.44-0.34-3.04,0.43-4.36c0.68-1.15,1.79-2.01,3.07-2.39
						c0.46-0.14,0.26-0.86-0.2-0.72c-1.46,0.44-2.74,1.41-3.52,2.73c-0.87,1.48-1.04,3.31-0.51,4.94
						C367.57,216.17,368.3,215.97,368.15,215.51L368.15,215.51z"/>
				</g>
			</g>
			<g>
				<g>
					<path class="st2" d="M373.28,218.41c-0.47-1.44-0.34-3.04,0.43-4.36c0.68-1.15,1.79-2.01,3.07-2.39
						c0.46-0.14,0.26-0.86-0.2-0.72c-1.46,0.44-2.74,1.41-3.52,2.73c-0.87,1.48-1.04,3.31-0.51,4.94
						C372.71,219.06,373.43,218.87,373.28,218.41L373.28,218.41z"/>
				</g>
			</g>
			<g>
				<g>
					<path class="st2" d="M378.64,221.33c-0.47-1.44-0.34-3.04,0.43-4.36c0.68-1.15,1.79-2.01,3.07-2.39
						c0.46-0.14,0.26-0.86-0.2-0.72c-1.46,0.44-2.74,1.41-3.52,2.73c-0.87,1.48-1.04,3.31-0.51,4.94
						C378.06,221.98,378.79,221.79,378.64,221.33L378.64,221.33z"/>
				</g>
			</g>
		</g>
		<path class="st2" d="M366.93,265.64l60.97,35.67c7.64,4.47,17.09,4.5,24.76,0.09l60.92-35.06c7.51-4.94,6.4-16.56,4.14-21.53
			l-70.49-36.62c-2.96-1.78-6.66-1.81-9.64-0.07l-69.88,37.64c-0.46-3.41-3.62,0-3.67,0.25
			C362.61,253.21,360.71,260.91,366.93,265.64z"/>
		<g>
			<g>
				<g>
					<path class="st10" d="M389.14,271.72c-5.04,3.21-10.07,6.42-15.11,9.63c-7.95,5.07-15.91,10.13-23.86,15.2
						c-1.85,1.18-3.7,2.36-5.55,3.54c-2.2,1.4-3.3,4.51-1.79,6.84c1.42,2.2,4.48,3.3,6.84,1.79c5.04-3.21,10.07-6.42,15.11-9.63
						c7.95-5.07,15.91-10.13,23.86-15.2c1.85-1.18,3.7-2.36,5.55-3.54c2.2-1.4,3.3-4.51,1.79-6.84
						C394.56,271.31,391.5,270.22,389.14,271.72L389.14,271.72z"/>
				</g>
			</g>
			<g>
				<g>
					<path class="st2" d="M362.71,289.82c1.37,0.25,2.63,1.01,3.44,2.15c0.87,1.23,1.18,2.79,0.87,4.25
						c-0.1,0.47,0.62,0.67,0.72,0.2c0.36-1.65,0.04-3.44-0.94-4.83c-0.92-1.3-2.33-2.21-3.89-2.5
						C362.43,289.01,362.23,289.73,362.71,289.82L362.71,289.82z"/>
				</g>
			</g>
			<g>
				<g>
					<path class="st2" d="M387.52,273.81c1.37,0.25,2.63,1.01,3.44,2.15c0.87,1.23,1.18,2.79,0.87,4.25
						c-0.1,0.47,0.62,0.67,0.72,0.2c0.36-1.65,0.04-3.44-0.94-4.83c-0.92-1.3-2.33-2.21-3.89-2.5
						C387.25,273,387.04,273.72,387.52,273.81L387.52,273.81z"/>
				</g>
			</g>
			<g>
				<g>
					<path class="st2" d="M382.69,277.01c1.37,0.25,2.63,1.01,3.44,2.15c0.87,1.23,1.18,2.79,0.87,4.25
						c-0.1,0.47,0.62,0.67,0.72,0.2c0.36-1.65,0.04-3.44-0.94-4.83c-0.92-1.3-2.33-2.21-3.89-2.5
						C382.42,276.2,382.21,276.92,382.69,277.01L382.69,277.01z"/>
				</g>
			</g>
			<g>
				<g>
					<path class="st2" d="M377.58,280.16c1.37,0.25,2.63,1.01,3.44,2.15c0.87,1.23,1.18,2.79,0.87,4.25
						c-0.1,0.47,0.62,0.67,0.72,0.2c0.36-1.65,0.04-3.44-0.94-4.83c-0.92-1.3-2.33-2.21-3.89-2.5
						C377.31,279.35,377.11,280.08,377.58,280.16L377.58,280.16z"/>
				</g>
			</g>
			<g>
				<g>
					<path class="st2" d="M372.6,283.57c1.37,0.25,2.63,1.01,3.44,2.15c0.87,1.23,1.18,2.79,0.87,4.25c-0.1,0.47,0.62,0.67,0.72,0.2
						c0.36-1.65,0.04-3.44-0.94-4.83c-0.92-1.3-2.33-2.21-3.89-2.5C372.33,282.76,372.12,283.48,372.6,283.57L372.6,283.57z"/>
				</g>
			</g>
			<g>
				<g>
					<path class="st2" d="M367.48,286.9c1.37,0.25,2.63,1.01,3.44,2.15c0.87,1.23,1.18,2.79,0.87,4.25c-0.1,0.47,0.62,0.67,0.72,0.2
						c0.36-1.65,0.04-3.44-0.94-4.83c-0.92-1.3-2.33-2.21-3.89-2.5C367.2,286.09,367,286.81,367.48,286.9L367.48,286.9z"/>
				</g>
			</g>
		</g>
		<g>
			<g>
				<g>
					<path class="st10" d="M516.39,202.38c-5.04,3.21-10.07,6.42-15.11,9.63c-7.95,5.07-15.91,10.13-23.86,15.2
						c-1.85,1.18-3.7,2.36-5.55,3.54c-2.2,1.4-3.3,4.51-1.79,6.84c1.42,2.2,4.48,3.3,6.84,1.79c5.04-3.21,10.07-6.42,15.11-9.63
						c7.95-5.07,15.91-10.13,23.86-15.2c1.85-1.18,3.7-2.36,5.55-3.54c2.2-1.4,3.3-4.51,1.79-6.84
						C521.81,201.97,518.75,200.88,516.39,202.38L516.39,202.38z"/>
				</g>
			</g>
			<g>
				<g>
					<path class="st2" d="M489.95,220.48c1.37,0.25,2.63,1.01,3.44,2.15c0.87,1.23,1.18,2.79,0.87,4.25
						c-0.1,0.47,0.62,0.67,0.72,0.2c0.36-1.65,0.04-3.44-0.94-4.83c-0.92-1.3-2.33-2.21-3.89-2.5
						C489.68,219.67,489.48,220.39,489.95,220.48L489.95,220.48z"/>
				</g>
			</g>
			<g>
				<g>
					<path class="st2" d="M514.77,204.47c1.37,0.25,2.63,1.01,3.44,2.15c0.87,1.23,1.18,2.79,0.87,4.25
						c-0.1,0.47,0.62,0.67,0.72,0.2c0.36-1.65,0.04-3.44-0.94-4.83c-0.92-1.3-2.33-2.21-3.89-2.5
						C514.49,203.66,514.29,204.38,514.77,204.47L514.77,204.47z"/>
				</g>
			</g>
			<g>
				<g>
					<path class="st2" d="M509.94,207.67c1.37,0.25,2.63,1.01,3.44,2.15c0.87,1.23,1.18,2.79,0.87,4.25
						c-0.1,0.47,0.62,0.67,0.72,0.2c0.36-1.65,0.04-3.44-0.94-4.83c-0.92-1.3-2.33-2.21-3.89-2.5
						C509.66,206.86,509.46,207.58,509.94,207.67L509.94,207.67z"/>
				</g>
			</g>
			<g>
				<g>
					<path class="st2" d="M504.83,210.83c1.37,0.25,2.63,1.01,3.44,2.15c0.87,1.23,1.18,2.79,0.87,4.25
						c-0.1,0.47,0.62,0.67,0.72,0.2c0.36-1.65,0.04-3.44-0.94-4.83c-0.92-1.3-2.33-2.21-3.89-2.5
						C504.56,210.01,504.36,210.74,504.83,210.83L504.83,210.83z"/>
				</g>
			</g>
			<g>
				<g>
					<path class="st2" d="M499.85,214.23c1.37,0.25,2.63,1.01,3.44,2.15c0.87,1.23,1.18,2.79,0.87,4.25
						c-0.1,0.47,0.62,0.67,0.72,0.2c0.36-1.65,0.04-3.44-0.94-4.83c-0.92-1.3-2.33-2.21-3.89-2.5
						C499.57,213.42,499.37,214.14,499.85,214.23L499.85,214.23z"/>
				</g>
			</g>
			<g>
				<g>
					<path class="st2" d="M494.73,217.56c1.37,0.25,2.63,1.01,3.44,2.15c0.87,1.23,1.18,2.79,0.87,4.25
						c-0.1,0.47,0.62,0.67,0.72,0.2c0.36-1.65,0.04-3.44-0.94-4.83c-0.92-1.3-2.33-2.21-3.89-2.5
						C494.45,216.75,494.25,217.47,494.73,217.56L494.73,217.56z"/>
				</g>
			</g>
		</g>
		<g>
			<g>
				<g>
					<path class="st10" d="M482.2,282.96c5.31,2.74,10.61,5.48,15.92,8.22c8.38,4.33,16.76,8.66,25.14,12.99
						c1.95,1.01,3.9,2.02,5.85,3.02c2.32,1.2,5.54,0.68,6.84-1.79c1.21-2.29,0.69-5.56-1.79-6.84c-5.31-2.74-10.61-5.48-15.92-8.22
						c-8.38-4.33-16.76-8.66-25.14-12.99c-1.95-1.01-3.9-2.02-5.85-3.02c-2.32-1.2-5.53-0.68-6.84,1.79
						C479.19,278.41,479.71,281.68,482.2,282.96L482.2,282.96z"/>
				</g>
			</g>
			<g>
				<g>
					<path class="st2" d="M511.19,296.75c-0.51-1.43-0.43-3.05,0.3-4.39c0.66-1.21,1.77-2.12,3.08-2.55
						c0.46-0.15,0.26-0.87-0.2-0.72c-1.49,0.48-2.77,1.52-3.53,2.89c-0.82,1.51-0.95,3.35-0.38,4.97
						C510.62,297.4,511.35,297.2,511.19,296.75L511.19,296.75z"/>
				</g>
			</g>
			<g>
				<g>
					<path class="st2" d="M516.32,299.29c-0.51-1.43-0.43-3.05,0.3-4.39c0.66-1.21,1.77-2.12,3.08-2.55
						c0.46-0.15,0.26-0.87-0.2-0.72c-1.49,0.48-2.77,1.52-3.53,2.89c-0.82,1.51-0.95,3.35-0.38,4.97
						C515.76,299.95,516.49,299.75,516.32,299.29L516.32,299.29z"/>
				</g>
			</g>
			<g>
				<g>
					<path class="st2" d="M521.46,301.84c-0.51-1.43-0.43-3.05,0.3-4.39c0.66-1.21,1.77-2.12,3.08-2.55
						c0.46-0.15,0.26-0.87-0.2-0.72c-1.49,0.48-2.77,1.52-3.53,2.89c-0.82,1.51-0.95,3.35-0.38,4.97
						C520.9,302.49,521.62,302.3,521.46,301.84L521.46,301.84z"/>
				</g>
			</g>
			<g>
				<g>
					<path class="st2" d="M526.6,304.39c-0.51-1.43-0.43-3.05,0.3-4.39c0.66-1.21,1.77-2.12,3.08-2.55c0.46-0.15,0.26-0.87-0.2-0.72
						c-1.49,0.48-2.77,1.52-3.53,2.89c-0.82,1.51-0.95,3.35-0.38,4.97C526.04,305.04,526.76,304.84,526.6,304.39L526.6,304.39z"/>
				</g>
			</g>
			<g>
				<g>
					<path class="st2" d="M484.88,283.34c-0.51-1.43-0.43-3.05,0.3-4.39c0.66-1.21,1.77-2.12,3.08-2.55
						c0.46-0.15,0.26-0.87-0.2-0.72c-1.49,0.48-2.77,1.52-3.53,2.89c-0.82,1.51-0.95,3.35-0.38,4.97
						C484.31,283.99,485.04,283.8,484.88,283.34L484.88,283.34z"/>
				</g>
			</g>
			<g>
				<g>
					<path class="st2" d="M490.07,285.91c-0.51-1.43-0.43-3.05,0.3-4.39c0.66-1.21,1.77-2.12,3.08-2.55
						c0.46-0.15,0.26-0.87-0.2-0.72c-1.49,0.48-2.77,1.52-3.53,2.89c-0.82,1.51-0.95,3.35-0.38,4.97
						C489.51,286.56,490.23,286.37,490.07,285.91L490.07,285.91z"/>
				</g>
			</g>
			<g>
				<g>
					<path class="st2" d="M495.36,288.74c-0.51-1.43-0.43-3.05,0.3-4.39c0.66-1.21,1.77-2.12,3.08-2.55
						c0.46-0.15,0.26-0.87-0.2-0.72c-1.49,0.48-2.77,1.52-3.53,2.89c-0.82,1.51-0.95,3.35-0.38,4.97
						C494.8,289.39,495.53,289.2,495.36,288.74L495.36,288.74z"/>
				</g>
			</g>
			<g>
				<g>
					<path class="st2" d="M500.81,291.34c-0.51-1.43-0.43-3.05,0.3-4.39c0.66-1.21,1.77-2.12,3.08-2.55
						c0.46-0.15,0.26-0.87-0.2-0.72c-1.49,0.48-2.77,1.52-3.53,2.89c-0.82,1.51-0.95,3.35-0.38,4.97
						C500.25,291.99,500.97,291.79,500.81,291.34L500.81,291.34z"/>
				</g>
			</g>
			<g>
				<g>
					<path class="st2" d="M506.27,294.09c-0.51-1.43-0.43-3.05,0.3-4.39c0.66-1.21,1.77-2.12,3.08-2.55
						c0.46-0.15,0.26-0.87-0.2-0.72c-1.49,0.48-2.77,1.52-3.53,2.89c-0.82,1.51-0.95,3.35-0.38,4.97
						C505.7,294.74,506.43,294.55,506.27,294.09L506.27,294.09z"/>
				</g>
			</g>
		</g>
		<path class="st6" d="M368.89,255.73l60.01,35.11c7,4.09,15.65,4.12,22.67,0.08l61.48-35.38c7.14-4.11,7.24-14.37,0.19-18.62
			l-65.37-39.39c-3.38-2.04-7.61-2.07-11.02-0.08l-67.95,39.62C361.76,241.24,361.75,251.56,368.89,255.73z"/>
		<ellipse class="st10" cx="441.14" cy="247.15" rx="41.11" ry="18.89"/>
		<g>
			
				<ellipse transform="matrix(0.2143 -0.9768 0.9768 0.2143 137.0246 598.618)" class="st11" cx="440.62" cy="214.13" rx="45.51" ry="45.51"/>
			<g>
				<g>
					<path class="st12" d="M439.57,168.26c-7.91,0.78-15.35,3.72-21.33,9.01c-4.89,4.33-8.63,9.96-11.12,15.98
						c-3.71,8.97-4.26,19-2.76,28.51c1.44,9.11,4.82,18.08,10.74,25.23c6.27,7.57,15.6,12.76,25.55,12.87c0.8,0.01,0.81-1.24,0-1.25
						c-8.65-0.1-16.83-4.22-22.78-10.39c-6.17-6.41-9.87-14.85-11.7-23.48c-3.31-15.64-0.49-32.91,10.94-44.67
						c6-6.17,13.92-9.72,22.45-10.56C440.36,169.44,440.37,168.19,439.57,168.26L439.57,168.26z"/>
				</g>
			</g>
			<g>
				<g>
					<path class="st12" d="M439.25,168.35c-5.61,3.26-10.08,8.48-13.53,13.9c-3.84,6.03-5.9,12.6-6.79,19.67
						c-1.01,8.01-0.78,16.27-0.03,24.29c0.68,7.23,1.9,15.22,5.76,21.52c3.7,6.05,9.83,9.97,16.31,12.5
						c0.75,0.29,1.07-0.91,0.33-1.21c-5.71-2.24-11.19-5.61-14.76-10.71c-4.09-5.83-5.46-13.57-6.23-20.51
						c-0.82-7.47-1.07-15.15-0.47-22.65c0.57-7.05,2.13-13.91,5.64-20.09c3.46-6.1,8.27-12.07,14.4-15.64
						C440.58,169.03,439.95,167.94,439.25,168.35L439.25,168.35z"/>
				</g>
			</g>
			<g>
				<g>
					<path class="st12" d="M441.76,259.25c-2.32-23.48-2.8-47.14-2.27-70.72c0.15-6.55,0.38-13.09,0.7-19.63
						c0.04-0.8-1.21-0.8-1.25,0c-1.14,23.57-1.29,47.22,0.06,70.78c0.37,6.54,0.87,13.06,1.51,19.58
						C440.59,260.04,441.84,260.05,441.76,259.25L441.76,259.25z"/>
				</g>
			</g>
			<g>
				<g>
					<path class="st12" d="M441.58,260.08c11.85-9.33,21-22.61,23.11-37.77c1.02-7.3,0.46-14.97-1.02-22.17
						c-1.35-6.58-3.74-13.05-7.53-18.63c-3.99-5.88-9.47-10.47-16.02-13.23c-0.74-0.31-1.06,0.9-0.33,1.21
						c12.12,5.11,19.29,16.63,22.25,29.04c1.64,6.89,2.32,14.25,1.69,21.31c-0.65,7.33-3.07,14.43-6.72,20.79
						c-4.13,7.2-9.79,13.43-16.3,18.55C440.06,259.69,440.95,260.57,441.58,260.08L441.58,260.08z"/>
				</g>
			</g>
			<g>
				<g>
					<path class="st12" d="M439.95,169.51c7.27,0.03,14.47,3.63,20.31,7.7c3.1,2.16,6,4.67,8.4,7.6c2.57,3.13,4.32,6.91,5.55,10.75
						c2.77,8.61,2.88,17.97,1.38,26.83c-1.46,8.65-4.63,17.64-10.57,24.27c-5.96,6.65-14.98,11.43-23.89,12.35
						c-0.79,0.08-0.8,1.33,0,1.25c8.24-0.85,16.31-4.79,22.41-10.34c6.7-6.1,10.57-14.91,12.55-23.61
						c2.07-9.12,2.44-18.88,0.2-28.01c-1.03-4.21-2.63-8.47-5.05-12.09c-2.07-3.11-4.79-5.78-7.71-8.09
						c-6.52-5.18-15.05-9.82-23.59-9.85C439.14,168.26,439.14,169.51,439.95,169.51L439.95,169.51z"/>
				</g>
			</g>
			<g>
				<g>
					<path class="st12" d="M401.25,190.47c4.2,9.96,15.6,14.43,25.55,16.08c12.31,2.04,25.61,0.67,37.03-4.45
						c5.97-2.67,11.45-6.55,15.35-11.85c0.48-0.65-0.61-1.27-1.08-0.63c-6.96,9.45-18.93,14.05-30.16,15.77
						c-11.31,1.74-24.01,0.99-34.35-4.28c-4.72-2.41-9.05-5.99-11.15-10.97C402.15,189.41,400.93,189.73,401.25,190.47
						L401.25,190.47z"/>
				</g>
			</g>
			<g>
				<g>
					<path class="st12" d="M401.41,238.3c8.13,8.01,19.04,12.67,30.26,14.27c11.22,1.6,22.97,0.35,33.42-4.12
						c5.61-2.4,10.8-5.78,15.07-10.15c0.56-0.58-0.32-1.46-0.88-0.88c-7.54,7.71-17.85,12.12-28.39,13.8
						c-11.04,1.76-22.69,0.6-33.05-3.66c-5.76-2.37-11.09-5.76-15.53-10.14C401.72,236.85,400.83,237.73,401.41,238.3L401.41,238.3z
						"/>
				</g>
			</g>
			<g>
				<g>
					<path class="st12" d="M394.98,215.33c2.75,3.52,6.65,6.12,10.53,8.24c5.23,2.85,10.88,4.92,16.65,6.37
						c13.69,3.46,28.51,3.55,41.96-1c8.4-2.84,16.04-7.49,22.45-13.61c0.58-0.56-0.3-1.44-0.88-0.88
						c-11.05,10.57-25.65,16.12-40.83,16.69c-12.65,0.48-25.79-2.1-37.12-7.82c-4.37-2.21-8.81-4.96-11.87-8.87
						C395.37,213.81,394.49,214.7,394.98,215.33L394.98,215.33z"/>
				</g>
			</g>
		</g>
		<g>
			<g>
				<g>
					<g>
						<g>
							<path class="st7" d="M462.6,150.36c0-13.7-12.38-24.5-26.56-21.84c-8.92,1.67-16.03,8.96-17.59,17.9
								c-0.98,5.59,0.18,10.84,2.73,15.18h-0.01l0.06,0.08c0.85,1.44,1.92,2.47,3,3.98l12.92,17.11c1.61,2.13,4.81,2.13,6.41,0
								l12.7-16.83c0,0,2.37-2.83,3.23-4.28l0.05-0.06h-0.01C461.47,158.3,462.6,154.47,462.6,150.36z M440.35,160.05
								c-5.41,0-9.79-4.38-9.79-9.79c0-5.41,4.38-9.79,9.79-9.79c5.41,0,9.79,4.38,9.79,9.79
								C450.14,155.66,445.76,160.05,440.35,160.05z"/>
						</g>
					</g>
				</g>
			</g>
			<g>
				<g>
					<g>
						<path class="st13" d="M422.15,110.16c-1.98,2.59-4.66,4.74-7.71,6.04c-0.31,0.13-0.38,0.59-0.22,0.86
							c0.19,0.32,0.54,0.36,0.86,0.22c3.26-1.39,6.02-3.68,8.16-6.48c0.2-0.27,0.04-0.7-0.22-0.86
							C422.68,109.74,422.35,109.89,422.15,110.16L422.15,110.16z"/>
					</g>
				</g>
				<path class="st14" d="M483.33,73.07c-1.04,0.96-22.97,15.09-22.97,15.09s-20.97-6.69-33.33,6.06
					c-12.36,12.74-12.22,30.53-7.99,36.39c4.23,5.86,10.78,3.82,11.83-1.37s-3.33-12.91,3.53-17.1c6.86-4.19,14.04-4.49,17.83,5.19
					c2.26,5.77,24.95-1.1,24.95-1.1l23.72-11.49C500.89,90.4,494.32,76.9,483.33,73.07z"/>
				<g>
					<path class="st14" d="M439.48,143.66c-2.3-1.07-2.46-3.47-1.58-5.85c0.87-2.38,2.88-4.14,4.89-5.69
						c2.01-1.55,4.15-3.05,5.48-5.2c1.39-2.24,2.85-7.04,3.48-9.6c0.63-2.56,0.61-3.11,2.84-4.5c2.24-1.39,5.1-1.16,7.68-0.61
						c2.89,0.62,5.7,1.59,8.36,2.88c1.24,0.6,2.63,0.57,3.48-0.51c12.65-15.9,3.82,2.96,0.73,8.32c-0.84,1.45-2.12,2.46-3.2,3.75
						C463.87,135.97,445.23,147.18,439.48,143.66"/>
				</g>
				<g>
					<path class="st14" d="M403.57,118.8c-1.43,1.43-2.88,2.95-3.6,4.84c-0.72,1.89-0.55,4.27,0.93,5.65
						c1.35,1.25,3.4,1.39,5.21,1.02c5.23-1.06,9.01-5.47,12.38-9.62l4.79-19.55C416.55,106.85,409.81,112.56,403.57,118.8z"/>
				</g>
				<g>
					<path class="st14" d="M435.08,94.35c-12.05,2.88-23.54,8.1-33.64,15.27c-1.26,0.9-2.57,1.92-3.02,3.4
						c-0.58,1.91,0.57,4.04,2.27,5.07s3.82,1.15,5.8,0.88"/>
				</g>
				<g>
					<path class="st14" d="M448.4,87.69c-12.39,0.16-24.74,2.72-36.18,7.5c-1.43,0.6-2.93,1.31-3.69,2.65
						c-0.98,1.73-0.33,4.06,1.1,5.44c1.44,1.38,3.48,1.96,5.46,2.13"/>
				</g>
				<g>
					<g>
						<path class="st13" d="M418.14,127.32c-0.98-3.79-1.35-7.69-0.95-11.59c0.36-3.42,1.42-6.59,2.78-9.72
							c1.89-4.34,4.18-8.46,7.73-11.68c2.77-2.51,6.08-4.3,9.57-5.59c0.75-0.28,0.42-1.49-0.33-1.21c-5.84,2.16-10.9,5.7-14.4,10.9
							c-1.35,2.01-2.43,4.18-3.4,6.38c-1.35,3.05-2.51,6.1-3.01,9.42c-0.67,4.49-0.33,9.03,0.8,13.41
							C417.14,128.43,418.34,128.1,418.14,127.32L418.14,127.32z"/>
					</g>
				</g>
				<g>
					<g>
						<path class="st13" d="M419.79,103.38c-6.74,4.97-13.18,10.43-18.38,17.04c-1.91,2.43-3.91,5.58-1.71,8.52
							c2.15,2.87,6.08,2.82,9.06,1.44c3.23-1.5,5.93-4.44,8.33-7.02c0.55-0.59-0.33-1.47-0.88-0.88c-2.28,2.45-4.85,5.27-7.9,6.74
							c-2.08,1-4.6,1.32-6.59-0.07c-1.98-1.38-2.15-3.79-0.95-5.76c1.17-1.93,2.79-3.7,4.3-5.38c1.48-1.65,3.04-3.23,4.65-4.75
							c3.37-3.17,6.99-6.06,10.71-8.8C421.07,103.99,420.44,102.9,419.79,103.38L419.79,103.38z"/>
					</g>
				</g>
				<g>
					<g>
						<path class="st13" d="M425.54,94.8c-6.93,2.85-13.03,7.03-19.47,10.78c-3.38,1.97-9.07,4.77-8.21,9.51
							c0.29,1.58,1.31,2.92,2.73,3.65c0.89,0.46,2.12,0.96,3.15,0.66c0.77-0.22,0.44-1.43-0.33-1.21c-1.31,0.38-3.13-0.94-3.77-1.95
							c-1.02-1.6-0.71-3.59,0.53-4.93c1.66-1.79,3.89-3.13,5.99-4.35c6.51-3.8,12.7-8.09,19.72-10.97
							C426.61,95.7,426.29,94.49,425.54,94.8L425.54,94.8z"/>
					</g>
				</g>
				<g>
					<g>
						<path class="st13" d="M408.44,99.95c3.3,0.1,6.43-2.13,7.46-5.26c0.25-0.77-0.96-1.09-1.21-0.33
							c-0.86,2.61-3.52,4.43-6.25,4.34C407.64,98.67,407.64,99.92,408.44,99.95L408.44,99.95z"/>
					</g>
				</g>
				<g>
					<g>
						<path class="st13" d="M425.24,133.08c-0.27-2.3-0.84-4.74-2.8-6.21c-1.62-1.22-3.79-1.25-5.33,0.1
							c-0.16,0.14-0.22,0.41-0.16,0.61c1.37,4.48,6.23,8.71,11.1,6.65c4.04-1.71,3.66-6.57,3.6-10.21
							c-0.03-2.18-0.17-4.34-0.26-6.51c-0.04-0.9,0.47-1.82,1-2.64c2.65-4.18,7.43-6.08,12.25-5.8c0.8,0.05,0.8-1.2,0-1.25
							c-4.05-0.24-8.04,0.92-11.05,3.7c-1.51,1.39-3.52,3.72-3.45,5.93c0.07,1.98,0.21,3.96,0.26,5.94
							c0.05,2.43,0.49,5.53-0.71,7.75c-1.38,2.56-4.49,2.84-6.89,1.76c-2.23-1-3.93-3.33-4.64-5.64c-0.05,0.2-0.11,0.41-0.16,0.61
							c1.34-1.17,3.22-0.64,4.32,0.59c1.13,1.27,1.48,2.99,1.67,4.63C424.08,133.87,425.33,133.88,425.24,133.08L425.24,133.08z"/>
					</g>
				</g>
				<g>
					<g>
						<path class="st13" d="M398.5,115.2c1.75,0.17,3.61-0.54,4.77-1.88c1.19-1.38,1.64-3.27,1.24-5.04
							c-0.18-0.78-1.39-0.45-1.21,0.33c0.31,1.35-0.05,2.86-0.98,3.9c-0.96,1.07-2.39,1.59-3.82,1.45
							c-0.34-0.03-0.62,0.31-0.62,0.62C397.88,114.94,398.17,115.17,398.5,115.2L398.5,115.2z"/>
					</g>
				</g>
				<g>
					<g>
						<path class="st13" d="M400.63,128.78c1.57-1.09,3.05-2.43,3.74-4.27c0.63-1.67,0.42-3.64-0.78-5
							c-0.54-0.6-1.42,0.28-0.88,0.88c0.93,1.05,0.94,2.64,0.43,3.88c-0.61,1.45-1.86,2.54-3.13,3.42
							C399.34,128.16,399.96,129.24,400.63,128.78L400.63,128.78z"/>
					</g>
				</g>
				<g>
					<g>
						<path class="st13" d="M438.32,142.49c1.52-0.62,3.11-1.13,4.77-1.08c1.25,0.03,2.57,0.75,2.77,2.06
							c0.05,0.33,0.47,0.52,0.77,0.44c0.36-0.1,0.49-0.43,0.44-0.77c-0.25-1.65-1.87-2.74-3.44-2.94c-1.92-0.24-3.89,0.36-5.64,1.08
							c-0.31,0.13-0.54,0.42-0.44,0.77C437.63,142.35,438,142.62,438.32,142.49L438.32,142.49z"/>
					</g>
				</g>
			</g>
			<g>
				<g>
					<path class="st13" d="M472.51,127.11c4.83-5.02,7.54-11.85,7.45-18.82c-0.01-0.8-1.26-0.81-1.25,0
						c0.09,6.64-2.47,13.14-7.08,17.94C471.07,126.81,471.95,127.69,472.51,127.11L472.51,127.11z"/>
				</g>
			</g>
		</g>
	</g>
	<line class="st15" x1="303.52" y1="383.56" x2="303.52" y2="399.34"/>
	<polyline class="st15" points="301.13,397.38 303.72,399.34 305.91,397.38 	"/>
	<g>
		<defs>
			<rect id="SVGID_1_" x="70.62" y="334.42" width="141.22" height="89.74"/>
		</defs>
		<clipPath id="SVGID_2_">
			<use xlink:href="#SVGID_1_"  style="overflow:visible;"/>
		</clipPath>
		<g class="st16">
			<g>
				<path class="st3" d="M161.2,428.66c0,1.64,0.57,2.8,1.48,3.36c0.03,0.02,2.9,1.68,2.93,1.7c0.96,0.53,0.34-0.68,1.8-1.52
					c2.92-1.69,5.29-5.77,5.29-9.13c0-1.66,1.53-1.67,0.59-2.23c-0.03-0.02-3.09-1.71-3.11-1.72c-0.95-0.52-2.26-0.42-3.69,0.41
					C163.57,421.22,161.2,425.31,161.2,428.66z"/>
				<path class="st2" d="M164.27,430.4c0,3.35,2.37,4.7,5.29,3.02c2.92-1.69,5.29-5.77,5.29-9.13c0-3.35-2.37-4.7-5.29-3.02
					C166.64,422.96,164.27,427.05,164.27,430.4z"/>
				<g>
					<g>
						<path class="st10" d="M169.6,423.69c-1.89,1.09-3.42,3.74-3.42,5.9c0,2.16,1.53,3.04,3.42,1.95c1.89-1.09,3.42-3.74,3.42-5.9
							C173.02,423.47,171.49,422.6,169.6,423.69z"/>
					</g>
				</g>
			</g>
			<g>
				<path class="st3" d="M161.83,398.32l-79.72,46.27l21.87,12.5l0,0v5.47l78.75-45.55c0.61-0.35,0.99-1.01,0.99-1.72v-3.03
					c0-0.9-0.49-1.74-1.27-2.19L161.83,398.32z"/>
			</g>
			<g>
				<path class="st2" d="M181.17,386.63c0-0.64-0.34-1.23-0.9-1.55l-1.53-0.87l-74.33,44.88l-19.3-11.92l-0.76,0.44
					c-0.45,0.26-0.73,0.75-0.73,1.27v25.05l20.36,11.58v0.17l0.53,0l0.32,0v0l76.35-44.4V386.63z"/>
				<path class="st11" d="M84.86,418.74l17.88,10.22c1.1,0.63,2.44,0.62,3.54-0.01l73.24-42.52c0.59-0.34,0.59-1.2-0.01-1.53
					l-17.61-10.04c-1.25-0.71-2.78-0.7-4.02,0.02l-73.03,42.39C84.28,417.59,84.29,418.42,84.86,418.74z"/>
			</g>
			<g>
				<g>
					<path class="st2" d="M105.45,462c2.56-1.47,5.12-2.94,7.68-4.4c6.15-3.53,12.29-7.05,18.44-10.58
						c7.48-4.29,14.95-8.58,22.43-12.87c6.43-3.69,12.87-7.38,19.3-11.07c2.11-1.21,4.23-2.42,6.34-3.64
						c0.96-0.55,2.19-1.04,3.05-1.75c0.04-0.03,0.09-0.05,0.13-0.08c0.42-0.24,0.04-0.89-0.38-0.65c-2.56,1.47-5.12,2.94-7.68,4.4
						c-6.15,3.53-12.29,7.05-18.44,10.58c-7.48,4.29-14.95,8.58-22.43,12.87c-6.43,3.69-12.87,7.38-19.3,11.07
						c-2.11,1.21-4.23,2.42-6.34,3.64c-0.96,0.55-2.19,1.04-3.05,1.75c-0.04,0.03-0.09,0.05-0.13,0.08
						C104.65,461.59,105.03,462.24,105.45,462L105.45,462z"/>
				</g>
			</g>
		</g>
	</g>
	<g>
		<path id="XMLID_00000043437209103953359610000011643218394544188549_" class="st2" d="M568.53,108.24l-0.21-11.31
			c-0.02-0.94-0.53-1.79-1.35-2.25l-13.05-7.28c-0.82-0.46-1.81-0.44-2.62,0.03l-30.09,17.78c-0.82,0.48-1.31,1.37-1.29,2.32
			l0.21,11.27c0.02,0.94,0.53,1.79,1.35,2.25l13.24,7.38c0.82,0.46,1.82,0.44,2.63-0.04l29.9-17.86
			C568.06,110.07,568.54,109.18,568.53,108.24z"/>
		<g>
			<g>
				<path class="st18" d="M535.24,114.3C535.24,114.29,535.24,114.29,535.24,114.3c-0.06,0.1-0.12,0.21-0.19,0.32c0,0,0,0,0,0
					c-0.18-0.07-0.37-0.15-0.55-0.22c-0.04-0.2,0.01,0.28,0.01,0.37c0.02,0.36,0.03,0.72,0.05,1.07c0.05,1.15,0.1,2.31,0.14,3.46
					c0.1,2.55,0.21,5.09,0.31,7.64c0.02,0.59,0.05,1.19,0.07,1.78c0.02,0.48,0.77,0.48,0.75,0c-0.17-4.22-0.33-8.43-0.51-12.65
					c-0.03-0.61,0.01-1.27-0.1-1.88c-0.04-0.24-0.36-0.34-0.55-0.22c-0.12,0.07-0.18,0.19-0.19,0.33
					C534.45,114.78,535.2,114.77,535.24,114.3L535.24,114.3z"/>
			</g>
		</g>
		<g>
			<g>
				<path class="st11" d="M530.58,111.68C530.58,111.67,530.58,111.67,530.58,111.68c-0.06,0.1-0.12,0.21-0.19,0.32c0,0,0,0,0,0
					c-0.18-0.07-0.37-0.15-0.55-0.22c-0.04-0.2,0.01,0.28,0.01,0.37c0.02,0.36,0.03,0.72,0.05,1.07c0.05,1.15,0.1,2.31,0.14,3.46
					c0.1,2.55,0.21,5.09,0.31,7.64c0.02,0.59,0.05,1.19,0.07,1.78c0.02,0.48,0.77,0.48,0.75,0c-0.17-4.22-0.33-8.43-0.51-12.65
					c-0.03-0.61,0.01-1.27-0.1-1.88c-0.04-0.24-0.36-0.34-0.55-0.22c-0.12,0.07-0.17,0.19-0.19,0.33
					C529.79,112.16,530.54,112.15,530.58,111.68L530.58,111.68z"/>
			</g>
		</g>
		<g>
			<g>
				<path class="st11" d="M525.08,108.56C525.08,108.56,525.08,108.56,525.08,108.56c-0.06,0.1-0.12,0.21-0.19,0.32c0,0,0,0,0,0
					c-0.18-0.07-0.37-0.15-0.55-0.22c-0.04-0.2,0.01,0.28,0.01,0.37c0.02,0.36,0.03,0.72,0.05,1.07c0.05,1.15,0.1,2.31,0.14,3.46
					c0.1,2.55,0.21,5.09,0.31,7.64c0.02,0.59,0.05,1.19,0.07,1.78c0.02,0.48,0.77,0.48,0.75,0c-0.17-4.22-0.33-8.43-0.51-12.65
					c-0.03-0.61,0.01-1.27-0.1-1.88c-0.04-0.24-0.36-0.34-0.55-0.22c-0.12,0.07-0.18,0.19-0.19,0.33
					C524.29,109.05,525.04,109.04,525.08,108.56L525.08,108.56z"/>
			</g>
		</g>
		<g>
			<g>
				<path class="st11" d="M540.02,111.51C540.02,111.51,540.02,111.51,540.02,111.51c-0.06,0.1-0.12,0.21-0.19,0.32c0,0,0,0,0,0
					c-0.18-0.07-0.37-0.15-0.55-0.22c-0.04-0.2,0.01,0.28,0.01,0.37c0.02,0.36,0.03,0.72,0.05,1.07c0.05,1.15,0.1,2.31,0.14,3.46
					c0.1,2.55,0.21,5.09,0.31,7.64c0.02,0.59,0.05,1.19,0.07,1.78c0.02,0.48,0.77,0.48,0.75,0c-0.17-4.22-0.33-8.43-0.51-12.65
					c-0.03-0.61,0.01-1.27-0.1-1.88c-0.04-0.24-0.36-0.34-0.55-0.22c-0.12,0.07-0.18,0.19-0.19,0.33
					C539.23,111.99,539.98,111.99,540.02,111.51L540.02,111.51z"/>
			</g>
		</g>
		<g>
			<g>
				<path class="st11" d="M544.95,108.94C544.95,108.94,544.95,108.94,544.95,108.94c-0.06,0.1-0.12,0.21-0.19,0.32c0,0,0,0,0,0
					c-0.18-0.07-0.37-0.15-0.55-0.22c-0.04-0.2,0.01,0.28,0.01,0.37c0.02,0.36,0.03,0.72,0.05,1.07c0.05,1.15,0.1,2.31,0.14,3.46
					c0.1,2.55,0.21,5.09,0.31,7.64c0.02,0.59,0.05,1.19,0.07,1.78c0.02,0.48,0.77,0.48,0.75,0c-0.17-4.22-0.33-8.43-0.51-12.65
					c-0.03-0.61,0.01-1.27-0.1-1.88c-0.04-0.24-0.36-0.34-0.55-0.22c-0.12,0.07-0.18,0.19-0.19,0.33
					C544.16,109.42,544.91,109.42,544.95,108.94L544.95,108.94z"/>
			</g>
		</g>
		<g>
			<g>
				<path class="st11" d="M549.88,106.37C549.88,106.36,549.88,106.36,549.88,106.37c-0.06,0.1-0.12,0.21-0.19,0.32c0,0,0,0,0,0
					c-0.18-0.07-0.37-0.15-0.55-0.22c-0.04-0.2,0.01,0.28,0.01,0.37c0.02,0.36,0.03,0.72,0.05,1.07c0.05,1.15,0.1,2.31,0.14,3.46
					c0.1,2.55,0.21,5.09,0.31,7.64c0.02,0.59,0.05,1.19,0.07,1.78c0.02,0.48,0.77,0.48,0.75,0c-0.17-4.22-0.33-8.43-0.51-12.65
					c-0.03-0.61,0.01-1.27-0.1-1.88c-0.04-0.24-0.36-0.34-0.55-0.22c-0.12,0.07-0.18,0.19-0.19,0.33
					C549.09,106.85,549.84,106.84,549.88,106.37L549.88,106.37z"/>
			</g>
		</g>
		<g>
			<g>
				<path class="st11" d="M554.82,103.16C554.82,103.16,554.82,103.16,554.82,103.16c-0.06,0.1-0.12,0.21-0.19,0.32c0,0,0,0,0,0
					c-0.18-0.07-0.37-0.15-0.55-0.22c-0.04-0.2,0.01,0.28,0.01,0.37c0.02,0.36,0.03,0.72,0.05,1.07c0.05,1.15,0.1,2.31,0.14,3.46
					c0.1,2.55,0.21,5.09,0.31,7.64c0.02,0.59,0.05,1.19,0.07,1.78c0.02,0.48,0.77,0.48,0.75,0c-0.17-4.22-0.33-8.43-0.51-12.65
					c-0.03-0.61,0.01-1.27-0.1-1.88c-0.04-0.24-0.36-0.34-0.55-0.22c-0.12,0.07-0.18,0.19-0.19,0.33
					C554.03,103.64,554.78,103.64,554.82,103.16L554.82,103.16z"/>
			</g>
		</g>
		<g>
			<g>
				<path class="st11" d="M559.75,99.93C559.75,99.93,559.75,99.93,559.75,99.93c-0.06,0.1-0.12,0.21-0.19,0.32c0,0,0,0,0,0
					c-0.18-0.07-0.37-0.15-0.55-0.22c-0.04-0.2,0.01,0.28,0.01,0.37c0.02,0.36,0.03,0.72,0.05,1.07c0.05,1.15,0.1,2.31,0.14,3.46
					c0.1,2.55,0.21,5.09,0.31,7.64c0.02,0.59,0.05,1.19,0.07,1.78c0.02,0.48,0.77,0.48,0.75,0c-0.17-4.22-0.33-8.43-0.51-12.65
					c-0.03-0.61,0.01-1.27-0.1-1.88c-0.04-0.24-0.36-0.34-0.55-0.22c-0.12,0.07-0.18,0.19-0.19,0.33
					C558.96,100.41,559.71,100.41,559.75,99.93L559.75,99.93z"/>
			</g>
		</g>
		<g>
			<g>
				<path class="st11" d="M564.68,97.36C564.68,97.36,564.68,97.36,564.68,97.36c-0.06,0.1-0.12,0.21-0.19,0.32c0,0,0,0,0,0
					c-0.18-0.07-0.37-0.15-0.55-0.22c-0.04-0.2,0.01,0.28,0.01,0.37c0.02,0.36,0.03,0.72,0.05,1.07c0.05,1.15,0.1,2.31,0.14,3.46
					c0.1,2.55,0.21,5.09,0.31,7.64c0.02,0.59,0.05,1.19,0.07,1.78c0.02,0.48,0.77,0.48,0.75,0c-0.17-4.22-0.33-8.43-0.51-12.65
					c-0.03-0.61,0.01-1.27-0.1-1.88c-0.04-0.24-0.36-0.34-0.55-0.22c-0.12,0.07-0.18,0.19-0.19,0.33
					C563.89,97.84,564.64,97.84,564.68,97.36L564.68,97.36z"/>
			</g>
		</g>
		<g>
			<g>
				<path class="st18" d="M567.35,95.22c0.04-0.27,0.22-0.15,0-0.1c-0.13,0.03-0.28,0.17-0.39,0.24c-0.46,0.28-0.92,0.55-1.39,0.82
					c-1.51,0.87-3.02,1.74-4.53,2.6c-4.37,2.49-8.75,4.97-13.13,7.44c-3.68,2.08-7.37,4.16-11.05,6.23
					c-0.62,0.35-1.62,0.69-2.14,1.2c0.09-0.09,0.37,0.17,0.24-0.04c-0.07-0.12-0.45-0.24-0.57-0.3c-0.77-0.41-1.54-0.81-2.31-1.22
					c-3.89-2.05-7.79-4.1-11.68-6.16c-0.43-0.22-0.81,0.42-0.38,0.65c3.51,1.85,7.02,3.7,10.53,5.55c0.94,0.49,1.87,0.99,2.81,1.48
					c0.38,0.2,0.88,0.6,1.3,0.69c0.55,0.11,1.17-0.42,1.64-0.69c8.05-4.53,16.09-9.06,24.11-13.63c1.85-1.05,3.69-2.1,5.53-3.17
					c0.37-0.21,2.05-0.87,2.12-1.4C568.14,94.94,567.42,94.74,567.35,95.22L567.35,95.22z"/>
			</g>
		</g>
	</g>
	<g>
		<g>
			<path id="XMLID_00000054225183469805335740000015683020886729327245_" class="st2" d="M446.73,375.64l-0.21-11.31
				c-0.02-0.94-0.53-1.79-1.35-2.25l-13.05-7.28c-0.82-0.46-1.81-0.44-2.62,0.03l-30.09,17.78c-0.82,0.48-1.31,1.37-1.29,2.32
				l0.21,11.27c0.02,0.94,0.53,1.79,1.35,2.25l13.24,7.38c0.82,0.46,1.82,0.44,2.63-0.04l29.9-17.86
				C446.26,377.46,446.75,376.58,446.73,375.64z"/>
			<g>
				<g>
					<path class="st18" d="M413.44,381.69C413.44,381.69,413.44,381.69,413.44,381.69c-0.06,0.1-0.12,0.21-0.19,0.32c0,0,0,0,0,0
						c-0.18-0.07-0.37-0.15-0.55-0.22c-0.04-0.2,0.01,0.28,0.01,0.37c0.02,0.36,0.03,0.72,0.05,1.07c0.05,1.15,0.1,2.31,0.14,3.46
						c0.1,2.55,0.21,5.09,0.31,7.64c0.02,0.59,0.05,1.19,0.07,1.78c0.02,0.48,0.77,0.48,0.75,0c-0.17-4.22-0.33-8.43-0.51-12.65
						c-0.03-0.61,0.01-1.27-0.1-1.88c-0.04-0.24-0.36-0.34-0.55-0.22c-0.12,0.07-0.18,0.19-0.19,0.33
						C412.65,382.17,413.4,382.17,413.44,381.69L413.44,381.69z"/>
				</g>
			</g>
			<g>
				<g>
					<path class="st11" d="M408.79,379.07C408.79,379.07,408.79,379.07,408.79,379.07c-0.06,0.1-0.12,0.21-0.19,0.32c0,0,0,0,0,0
						c-0.18-0.07-0.37-0.15-0.55-0.22c-0.04-0.2,0.01,0.28,0.01,0.37c0.02,0.36,0.03,0.72,0.05,1.07c0.05,1.15,0.1,2.31,0.14,3.46
						c0.1,2.55,0.21,5.09,0.31,7.64c0.02,0.59,0.05,1.19,0.07,1.78c0.02,0.48,0.77,0.48,0.75,0c-0.17-4.22-0.33-8.43-0.51-12.65
						c-0.03-0.61,0.01-1.27-0.1-1.88c-0.04-0.24-0.36-0.34-0.55-0.22c-0.12,0.07-0.17,0.19-0.19,0.33
						C407.99,379.55,408.75,379.55,408.79,379.07L408.79,379.07z"/>
				</g>
			</g>
			<g>
				<g>
					<path class="st11" d="M403.29,375.96C403.29,375.96,403.29,375.96,403.29,375.96c-0.06,0.1-0.12,0.21-0.19,0.32c0,0,0,0,0,0
						c-0.18-0.07-0.37-0.15-0.55-0.22c-0.04-0.2,0.01,0.28,0.01,0.37c0.02,0.36,0.03,0.72,0.05,1.07c0.05,1.15,0.1,2.31,0.14,3.46
						c0.1,2.55,0.21,5.09,0.31,7.64c0.02,0.59,0.05,1.19,0.07,1.78c0.02,0.48,0.77,0.48,0.75,0c-0.17-4.22-0.33-8.43-0.51-12.65
						c-0.03-0.61,0.01-1.27-0.1-1.88c-0.04-0.24-0.36-0.34-0.55-0.22c-0.12,0.07-0.18,0.19-0.19,0.33
						C402.5,376.44,403.25,376.44,403.29,375.96L403.29,375.96z"/>
				</g>
			</g>
			<g>
				<g>
					<path class="st11" d="M418.22,378.91C418.22,378.91,418.22,378.91,418.22,378.91c-0.06,0.1-0.12,0.21-0.19,0.32c0,0,0,0,0,0
						c-0.18-0.07-0.37-0.15-0.55-0.22c-0.04-0.2,0.01,0.28,0.01,0.37c0.02,0.36,0.03,0.72,0.05,1.07c0.05,1.15,0.1,2.31,0.14,3.46
						c0.1,2.55,0.21,5.09,0.31,7.64c0.02,0.59,0.05,1.19,0.07,1.78c0.02,0.48,0.77,0.48,0.75,0c-0.17-4.22-0.33-8.43-0.51-12.65
						c-0.03-0.61,0.01-1.27-0.1-1.88c-0.04-0.24-0.36-0.34-0.55-0.22c-0.12,0.07-0.18,0.19-0.19,0.33
						C417.43,379.39,418.18,379.39,418.22,378.91L418.22,378.91z"/>
				</g>
			</g>
			<g>
				<g>
					<path class="st11" d="M423.16,376.34C423.16,376.34,423.16,376.33,423.16,376.34c-0.06,0.1-0.12,0.21-0.19,0.32c0,0,0,0,0,0
						c-0.18-0.07-0.37-0.15-0.55-0.22c-0.04-0.2,0.01,0.28,0.01,0.37c0.02,0.36,0.03,0.72,0.05,1.07c0.05,1.15,0.1,2.31,0.14,3.46
						c0.1,2.55,0.21,5.09,0.31,7.64c0.02,0.59,0.05,1.19,0.07,1.78c0.02,0.48,0.77,0.48,0.75,0c-0.17-4.22-0.33-8.43-0.51-12.65
						c-0.03-0.61,0.01-1.27-0.1-1.88c-0.04-0.24-0.36-0.34-0.55-0.22c-0.12,0.07-0.18,0.19-0.19,0.33
						C422.37,376.82,423.12,376.81,423.16,376.34L423.16,376.34z"/>
				</g>
			</g>
			<g>
				<g>
					<path class="st11" d="M428.09,373.76C428.09,373.76,428.09,373.76,428.09,373.76c-0.06,0.1-0.12,0.21-0.19,0.32c0,0,0,0,0,0
						c-0.18-0.07-0.37-0.15-0.55-0.22c-0.04-0.2,0.01,0.28,0.01,0.37c0.02,0.36,0.03,0.72,0.05,1.07c0.05,1.15,0.1,2.31,0.14,3.46
						c0.1,2.55,0.21,5.09,0.31,7.64c0.02,0.59,0.05,1.19,0.07,1.78c0.02,0.48,0.77,0.48,0.75,0c-0.17-4.22-0.33-8.43-0.51-12.65
						c-0.03-0.61,0.01-1.27-0.1-1.88c-0.04-0.24-0.36-0.34-0.55-0.22c-0.12,0.07-0.18,0.19-0.19,0.33
						C427.3,374.24,428.05,374.24,428.09,373.76L428.09,373.76z"/>
				</g>
			</g>
			<g>
				<g>
					<path class="st11" d="M433.02,370.56C433.02,370.56,433.02,370.56,433.02,370.56c-0.06,0.1-0.12,0.21-0.19,0.32c0,0,0,0,0,0
						c-0.18-0.07-0.37-0.15-0.55-0.22c-0.04-0.2,0.01,0.28,0.01,0.37c0.02,0.36,0.03,0.72,0.05,1.07c0.05,1.15,0.1,2.31,0.14,3.46
						c0.1,2.55,0.21,5.09,0.31,7.64c0.02,0.59,0.05,1.19,0.07,1.78c0.02,0.48,0.77,0.48,0.75,0c-0.17-4.22-0.33-8.43-0.51-12.65
						c-0.03-0.61,0.01-1.27-0.1-1.88c-0.04-0.24-0.36-0.34-0.55-0.22c-0.12,0.07-0.18,0.19-0.19,0.33
						C432.23,371.04,432.98,371.04,433.02,370.56L433.02,370.56z"/>
				</g>
			</g>
			<g>
				<g>
					<path class="st11" d="M437.96,367.33C437.96,367.33,437.96,367.33,437.96,367.33c-0.06,0.1-0.12,0.21-0.19,0.32c0,0,0,0,0,0
						c-0.18-0.07-0.37-0.15-0.55-0.22c-0.04-0.2,0.01,0.28,0.01,0.37c0.02,0.36,0.03,0.72,0.05,1.07c0.05,1.15,0.1,2.31,0.14,3.46
						c0.1,2.55,0.21,5.09,0.31,7.64c0.02,0.59,0.05,1.19,0.07,1.78c0.02,0.48,0.77,0.48,0.75,0c-0.17-4.22-0.33-8.43-0.51-12.65
						c-0.03-0.61,0.01-1.27-0.1-1.88c-0.04-0.24-0.36-0.34-0.55-0.22c-0.12,0.07-0.18,0.19-0.19,0.33
						C437.17,367.81,437.92,367.81,437.96,367.33L437.96,367.33z"/>
				</g>
			</g>
			<g>
				<g>
					<path class="st11" d="M442.89,364.76C442.89,364.76,442.89,364.75,442.89,364.76c-0.06,0.1-0.12,0.21-0.19,0.32c0,0,0,0,0,0
						c-0.18-0.07-0.37-0.15-0.55-0.22c-0.04-0.2,0.01,0.28,0.01,0.37c0.02,0.36,0.03,0.72,0.05,1.07c0.05,1.15,0.1,2.31,0.14,3.46
						c0.1,2.55,0.21,5.09,0.31,7.64c0.02,0.59,0.05,1.19,0.07,1.78c0.02,0.48,0.77,0.48,0.75,0c-0.17-4.22-0.33-8.43-0.51-12.65
						c-0.03-0.61,0.01-1.27-0.1-1.88c-0.04-0.24-0.36-0.34-0.55-0.22c-0.12,0.07-0.18,0.19-0.19,0.33
						C442.1,365.24,442.85,365.24,442.89,364.76L442.89,364.76z"/>
				</g>
			</g>
			<g>
				<g>
					<path class="st18" d="M445.56,362.61c0.04-0.27,0.22-0.15,0-0.1c-0.13,0.03-0.28,0.17-0.39,0.24
						c-0.46,0.28-0.92,0.55-1.39,0.82c-1.51,0.88-3.02,1.74-4.53,2.6c-4.37,2.49-8.75,4.97-13.13,7.44
						c-3.68,2.08-7.37,4.16-11.05,6.23c-0.62,0.35-1.62,0.69-2.14,1.2c0.09-0.09,0.37,0.17,0.24-0.04c-0.07-0.12-0.45-0.24-0.57-0.3
						c-0.77-0.4-1.54-0.81-2.31-1.21c-3.89-2.05-7.79-4.1-11.68-6.16c-0.43-0.22-0.81,0.42-0.38,0.65c3.51,1.85,7.02,3.7,10.53,5.55
						c0.94,0.49,1.87,0.99,2.81,1.48c0.38,0.2,0.88,0.6,1.3,0.69c0.55,0.11,1.17-0.42,1.64-0.69c8.05-4.53,16.09-9.06,24.11-13.63
						c1.85-1.05,3.69-2.1,5.53-3.17c0.37-0.21,2.05-0.87,2.12-1.4C446.35,362.34,445.63,362.14,445.56,362.61L445.56,362.61z"/>
				</g>
			</g>
		</g>
		<g>
			<path id="XMLID_00000044149100264995613460000014449692971276548257_" class="st1" d="M443.75,358.18l-0.21-11.31
				c-0.02-0.94-0.53-1.79-1.35-2.25l-13.05-7.28c-0.82-0.46-1.81-0.44-2.62,0.03l-30.09,17.78c-0.82,0.48-1.31,1.37-1.29,2.32
				l0.21,11.27c0.02,0.94,0.53,1.79,1.35,2.25l13.24,7.38c0.82,0.46,1.82,0.44,2.63-0.04l29.9-17.86
				C443.28,360.01,443.77,359.13,443.75,358.18z"/>
			<g>
				<g>
					<path class="st18" d="M410.46,364.24C410.46,364.24,410.46,364.24,410.46,364.24c-0.06,0.1-0.12,0.21-0.19,0.32c0,0,0,0,0,0
						c-0.18-0.07-0.37-0.15-0.55-0.22c-0.04-0.2,0.01,0.28,0.01,0.37c0.02,0.36,0.03,0.72,0.05,1.07c0.05,1.15,0.1,2.31,0.14,3.46
						c0.1,2.55,0.21,5.09,0.31,7.64c0.02,0.59,0.05,1.19,0.07,1.78c0.02,0.48,0.77,0.48,0.75,0c-0.17-4.22-0.33-8.43-0.51-12.65
						c-0.03-0.61,0.01-1.27-0.1-1.88c-0.04-0.24-0.36-0.34-0.55-0.22c-0.12,0.07-0.17,0.19-0.19,0.33
						C409.67,364.72,410.42,364.72,410.46,364.24L410.46,364.24z"/>
				</g>
			</g>
			<g>
				<g>
					<path class="st17" d="M405.8,361.62C405.8,361.62,405.8,361.62,405.8,361.62c-0.06,0.1-0.12,0.21-0.19,0.32c0,0,0,0,0,0
						c-0.18-0.07-0.37-0.15-0.55-0.22c-0.04-0.2,0.01,0.28,0.01,0.37c0.02,0.36,0.03,0.72,0.05,1.07c0.05,1.15,0.1,2.31,0.14,3.46
						c0.1,2.55,0.21,5.09,0.31,7.64c0.02,0.59,0.05,1.19,0.07,1.78c0.02,0.48,0.77,0.48,0.75,0c-0.17-4.22-0.33-8.43-0.51-12.65
						c-0.03-0.61,0.01-1.27-0.1-1.88c-0.04-0.24-0.36-0.34-0.55-0.22c-0.12,0.07-0.18,0.19-0.19,0.33
						C405.01,362.1,405.76,362.1,405.8,361.62L405.8,361.62z"/>
				</g>
			</g>
			<g>
				<g>
					<path class="st17" d="M400.3,358.51C400.3,358.51,400.3,358.5,400.3,358.51c-0.06,0.1-0.12,0.21-0.19,0.32c0,0,0,0,0,0
						c-0.18-0.07-0.37-0.15-0.55-0.22c-0.04-0.2,0.01,0.28,0.01,0.37c0.02,0.36,0.03,0.72,0.05,1.07c0.05,1.15,0.1,2.31,0.14,3.46
						c0.1,2.55,0.21,5.09,0.31,7.64c0.02,0.59,0.05,1.19,0.07,1.78c0.02,0.48,0.77,0.48,0.75,0c-0.17-4.22-0.33-8.43-0.51-12.65
						c-0.03-0.61,0.01-1.27-0.1-1.88c-0.04-0.24-0.36-0.34-0.55-0.22c-0.12,0.07-0.18,0.19-0.19,0.33
						C399.51,358.99,400.26,358.99,400.3,358.51L400.3,358.51z"/>
				</g>
			</g>
			<g>
				<g>
					<path class="st17" d="M415.24,361.45C415.24,361.45,415.24,361.45,415.24,361.45c-0.06,0.1-0.12,0.21-0.19,0.32c0,0,0,0,0,0
						c-0.18-0.07-0.37-0.15-0.55-0.22c-0.04-0.2,0.01,0.28,0.01,0.37c0.02,0.36,0.03,0.72,0.05,1.07c0.05,1.15,0.1,2.31,0.14,3.46
						c0.1,2.55,0.21,5.09,0.31,7.64c0.02,0.59,0.05,1.19,0.07,1.78c0.02,0.48,0.77,0.48,0.75,0c-0.17-4.22-0.33-8.43-0.51-12.65
						c-0.03-0.61,0.01-1.27-0.1-1.88c-0.04-0.24-0.36-0.34-0.55-0.22c-0.12,0.07-0.18,0.19-0.19,0.33
						C414.45,361.94,415.2,361.93,415.24,361.45L415.24,361.45z"/>
				</g>
			</g>
			<g>
				<g>
					<path class="st17" d="M420.17,358.88C420.17,358.88,420.17,358.88,420.17,358.88c-0.06,0.1-0.12,0.21-0.19,0.32c0,0,0,0,0,0
						c-0.18-0.07-0.37-0.15-0.55-0.22c-0.04-0.2,0.01,0.28,0.01,0.37c0.02,0.36,0.03,0.72,0.05,1.07c0.05,1.15,0.1,2.31,0.14,3.46
						c0.1,2.55,0.21,5.09,0.31,7.64c0.02,0.59,0.05,1.19,0.07,1.78c0.02,0.48,0.77,0.48,0.75,0c-0.17-4.22-0.33-8.43-0.51-12.65
						c-0.03-0.61,0.01-1.27-0.1-1.88c-0.04-0.24-0.36-0.34-0.55-0.22c-0.12,0.07-0.17,0.19-0.19,0.33
						C419.38,359.36,420.13,359.36,420.17,358.88L420.17,358.88z"/>
				</g>
			</g>
			<g>
				<g>
					<path class="st17" d="M425.11,356.31C425.11,356.31,425.11,356.31,425.11,356.31c-0.06,0.1-0.12,0.21-0.19,0.32c0,0,0,0,0,0
						c-0.18-0.07-0.37-0.15-0.55-0.22c-0.04-0.2,0.01,0.28,0.01,0.37c0.02,0.36,0.03,0.72,0.05,1.07c0.05,1.15,0.1,2.31,0.14,3.46
						c0.1,2.55,0.21,5.09,0.31,7.64c0.02,0.59,0.05,1.19,0.07,1.78c0.02,0.48,0.77,0.48,0.75,0c-0.17-4.22-0.33-8.43-0.51-12.65
						c-0.03-0.61,0.01-1.27-0.1-1.88c-0.04-0.24-0.36-0.34-0.55-0.22c-0.12,0.07-0.17,0.19-0.19,0.33
						C424.32,356.79,425.07,356.79,425.11,356.31L425.11,356.31z"/>
				</g>
			</g>
			<g>
				<g>
					<path class="st17" d="M430.04,353.1C430.04,353.1,430.04,353.1,430.04,353.1c-0.06,0.1-0.12,0.21-0.19,0.32c0,0,0,0,0,0
						c-0.18-0.07-0.37-0.15-0.55-0.22c-0.04-0.2,0.01,0.28,0.01,0.37c0.02,0.36,0.03,0.72,0.05,1.07c0.05,1.15,0.1,2.31,0.14,3.46
						c0.1,2.55,0.21,5.09,0.31,7.64c0.02,0.59,0.05,1.19,0.07,1.78c0.02,0.48,0.77,0.48,0.75,0c-0.17-4.22-0.33-8.43-0.51-12.65
						c-0.03-0.61,0.01-1.27-0.1-1.88c-0.04-0.24-0.36-0.34-0.55-0.22c-0.12,0.07-0.18,0.19-0.19,0.33
						C429.25,353.58,430,353.58,430.04,353.1L430.04,353.1z"/>
				</g>
			</g>
			<g>
				<g>
					<path class="st17" d="M434.97,349.88C434.97,349.87,434.97,349.87,434.97,349.88c-0.06,0.1-0.12,0.21-0.19,0.32c0,0,0,0,0,0
						c-0.18-0.07-0.37-0.15-0.55-0.22c-0.04-0.2,0.01,0.28,0.01,0.37c0.02,0.36,0.03,0.72,0.05,1.07c0.05,1.15,0.1,2.31,0.14,3.46
						c0.1,2.55,0.21,5.09,0.31,7.64c0.02,0.59,0.05,1.19,0.07,1.78c0.02,0.48,0.77,0.48,0.75,0c-0.17-4.22-0.33-8.43-0.51-12.65
						c-0.03-0.61,0.01-1.27-0.1-1.88c-0.04-0.24-0.36-0.34-0.55-0.22c-0.12,0.07-0.18,0.19-0.19,0.33
						C434.18,350.36,434.93,350.35,434.97,349.88L434.97,349.88z"/>
				</g>
			</g>
			<g>
				<g>
					<path class="st17" d="M439.91,347.3C439.91,347.3,439.91,347.3,439.91,347.3c-0.06,0.1-0.12,0.21-0.19,0.32c0,0,0,0,0,0
						c-0.18-0.07-0.37-0.15-0.55-0.22c-0.04-0.2,0.01,0.28,0.01,0.37c0.02,0.36,0.03,0.72,0.05,1.07c0.05,1.15,0.1,2.31,0.14,3.46
						c0.1,2.55,0.21,5.09,0.31,7.64c0.02,0.59,0.05,1.19,0.07,1.78c0.02,0.48,0.77,0.48,0.75,0c-0.17-4.22-0.33-8.43-0.51-12.65
						c-0.03-0.61,0.01-1.27-0.1-1.88c-0.04-0.24-0.36-0.34-0.55-0.22c-0.12,0.07-0.18,0.19-0.19,0.33
						C439.12,347.78,439.87,347.78,439.91,347.3L439.91,347.3z"/>
				</g>
			</g>
			<g>
				<g>
					<path class="st18" d="M442.58,345.16c0.04-0.27,0.22-0.15,0-0.1c-0.13,0.03-0.28,0.17-0.39,0.24
						c-0.46,0.28-0.92,0.55-1.39,0.82c-1.51,0.88-3.02,1.74-4.53,2.6c-4.37,2.49-8.75,4.97-13.13,7.44
						c-3.68,2.08-7.37,4.16-11.05,6.23c-0.62,0.35-1.62,0.69-2.14,1.2c0.09-0.09,0.37,0.17,0.24-0.04c-0.07-0.12-0.45-0.24-0.57-0.3
						c-0.77-0.4-1.54-0.81-2.31-1.21c-3.89-2.05-7.79-4.1-11.68-6.16c-0.43-0.22-0.81,0.42-0.38,0.65c3.51,1.85,7.02,3.7,10.53,5.55
						c0.94,0.49,1.87,0.99,2.81,1.48c0.38,0.2,0.88,0.6,1.3,0.69c0.55,0.11,1.17-0.42,1.64-0.69c8.05-4.53,16.09-9.06,24.11-13.63
						c1.85-1.05,3.69-2.1,5.53-3.17c0.37-0.21,2.05-0.87,2.12-1.4C443.37,344.89,442.64,344.68,442.58,345.16L442.58,345.16z"/>
				</g>
			</g>
		</g>
	</g>
	<g>
		<g>
			<g>
				<path class="st3" d="M313.14,339.23c0,1.6,0.55,2.73,1.45,3.28c0.03,0.02,2.84,1.64,2.86,1.66c0.93,0.52,0.34-0.66,1.76-1.48
					c2.86-1.65,5.17-5.64,5.17-8.92c0-1.62,1.5-1.63,0.58-2.17c-0.03-0.02-3.01-1.67-3.04-1.68c-0.93-0.5-2.21-0.41-3.61,0.4
					C315.45,331.96,313.14,335.96,313.14,339.23z"/>
				<path class="st2" d="M316.13,340.93c0,3.28,2.31,4.6,5.17,2.95c2.86-1.65,5.17-5.64,5.17-8.92c0-3.28-2.31-4.6-5.17-2.95
					C318.45,333.66,316.13,337.66,316.13,340.93z"/>
				<g>
					<g>
						<path class="st10" d="M321.34,334.37c-1.84,1.06-3.34,3.65-3.34,5.76c0,2.11,1.5,2.97,3.34,1.91
							c1.84-1.06,3.34-3.65,3.34-5.76C324.68,334.16,323.19,333.31,321.34,334.37z"/>
					</g>
				</g>
			</g>
			<g>
				<path class="st3" d="M352.78,314.95c0,1.6,0.55,2.73,1.45,3.28c0.03,0.02,2.84,1.64,2.86,1.66c0.93,0.52,0.34-0.66,1.76-1.48
					c2.86-1.65,5.17-5.64,5.17-8.92c0-1.62,1.5-1.63,0.58-2.17c-0.03-0.02-3.02-1.67-3.04-1.68c-0.93-0.5-2.21-0.41-3.61,0.4
					C355.09,307.68,352.78,311.68,352.78,314.95z"/>
				<path class="st2" d="M355.77,316.65c0,3.28,2.31,4.6,5.17,2.95c2.86-1.65,5.17-5.64,5.17-8.92c0-3.28-2.31-4.6-5.17-2.95
					C358.09,309.38,355.77,313.38,355.77,316.65z"/>
				<g>
					<g>
						<path class="st10" d="M360.99,310.09c-1.84,1.06-3.34,3.65-3.34,5.76c0,2.11,1.5,2.97,3.34,1.91
							c1.84-1.06,3.34-3.65,3.34-5.76C364.33,309.88,362.83,309.03,360.99,310.09z"/>
					</g>
				</g>
			</g>
			<g>
				<polygon class="st3" points="297.24,342.64 297.24,347.97 275.95,332.92 275.95,330.47 				"/>
				<path class="st3" d="M353.57,285.41l-77.62,45.06l21.3,12.17l0,0v5.33l76.68-44.35c0.6-0.35,0.97-0.99,0.97-1.68v-2.94
					c0-0.88-0.47-1.7-1.24-2.14L353.57,285.41z"/>
			</g>
			<g>
				<path class="st2" d="M371.97,274.99c0-1.27-0.68-2.45-1.79-3.08l-0.58-0.33l-72.42,43.73l-18.81-11.61l0,0
					c-0.9,0.52-1.45,1.49-1.45,2.53v23.49l20.45,11.64v0l0,0l0,0v0l74.59-43.37V274.99z"/>
				<path class="st11" d="M278.19,305.26l17.47,9.98c1.07,0.61,2.39,0.61,3.46-0.01l71.56-41.55c0.58-0.33,0.57-1.17-0.01-1.5
					l-17.2-9.81c-1.22-0.69-2.71-0.69-3.92,0.02l-71.36,41.42C277.62,304.14,277.63,304.94,278.19,305.26z"/>
			</g>
			<g>
				<path class="st17" d="M295.93,325.84l-16.26-9.39c-1.72-0.99-3.82-1.07-5.61-0.2l-8.41,4.07c-1.72,0.98-6.3,3.62-7.73,9.27
					l-1.13,3.94c-0.59,2.32-1.07,6.16-1.07,8.55v9.06c0.01,0.02,0.02,0.03,0.03,0.05l19.86,11.24c0.04-0.02,0.04-0.03,0.08-0.05
					v-7.99c0-2.96,0.45-5.9,1.34-8.72l2.54-8.05c0.55-1.74,1.74-3.22,3.33-4.12l13.01-7.59
					C295.93,325.89,295.93,325.88,295.93,325.84z"/>
				<path class="st17" d="M275.69,354.36v8.12l10.69-6.14l0.82-4.72l8.81-5.24v-20.51l-13.14,7.66c-1.6,0.91-2.79,2.39-3.34,4.14
					l-2.52,8.05C276.14,348.53,275.69,351.44,275.69,354.36z"/>
				<path class="st3" d="M272.66,348.7L272.66,348.7c0,4.12-4.34,6.09-7.96,4.05l-0.27-0.15c-3.54-2-5.88-5.11-5.88-9.14v-1.3
					c0-0.98,1.08-1.6,1.94-1.11l11.52,6.54C272.42,347.82,272.66,348.24,272.66,348.7z"/>
				<path class="st2" d="M289.44,341.81l-1.16,0.68c-0.26,0.15-0.42,0.43-0.42,0.73v0.05c0,0.3,0.32,0.49,0.58,0.33l1.05-0.61
					c0.25-0.15,0.4-0.41,0.4-0.7v-0.22C289.89,341.84,289.64,341.69,289.44,341.81z"/>
			</g>
			<path class="st3" d="M281.09,362.42l0.43-1.61c0-2.44,0.64-4.84,1.87-6.95l0,0c1.22-2.1,2.96-3.84,5.06-5.05l2.05-1.18
				l-3.28-1.59l-1.96,0.97c-2.1,1.21-3.85,2.95-5.06,5.05l0,0c-1.22,2.11-1.87,4.51-1.87,6.95v2L281.09,362.42z"/>
			<g>
				<path class="st3" d="M254.24,349.26l19.98,11.85c0.97,0.56,2.17,0.56,3.14,0l3.74-2.09v3.4l-3.78,2.13
					c-0.98,0.55-2.17,0.54-3.14-0.01l-18.91-10.85c-0.64-0.37-1.03-1.04-1.03-1.78V349.26z"/>
				<path class="st3" d="M254.58,349.91l19.64,11.21c0.97,0.56,2.17,0.56,3.14,0l3.74-2.09l-1.02-0.58l-2.7,1.53
					c-0.98,0.56-2.19,0.56-3.17,0l-18.44-10.64l0.01-1.36l-1.2,0.74C254.11,348.98,254.12,349.64,254.58,349.91z"/>
			</g>
			<g>
				<g>
					<path class="st3" d="M297.04,316.22c0,8.5,0,17,0,25.5c0,0.48,0.75,0.48,0.75,0c0-8.5,0-17,0-25.5
						C297.79,315.74,297.04,315.74,297.04,316.22L297.04,316.22z"/>
				</g>
			</g>
			<g>
				<g>
					<path class="st3" d="M276.33,361.12c-0.22-4.62,0.11-9.25,1.03-13.78c0.42-2.03,0.93-4.04,1.56-6.01
						c0.55-1.72,1.13-3.77,2.12-5.29c1.39-2.14,4.19-3.61,6.31-4.91c2.79-1.71,5.68-3.26,8.64-4.66c0.44-0.21,0.06-0.85-0.38-0.65
						c-3.17,1.5-6.27,3.17-9.25,5.04c-2.03,1.27-4.65,2.73-5.97,4.8c-0.95,1.48-1.5,3.4-2.06,5.06c-0.7,2.1-1.25,4.26-1.7,6.42
						c-0.94,4.6-1.28,9.29-1.06,13.98C275.6,361.6,276.35,361.6,276.33,361.12L276.33,361.12z"/>
				</g>
			</g>
			<g>
				<path class="st6" d="M289.39,338.44c-0.08-1-0.08-2.77-0.1-4.14c-0.01-0.67-0.71-1.28-1.34-1.04c-0.84,0.32-1.67,0.8-2.31,1.16
					c-0.88,0.5-1.85,0.9-2.44,1.72c-0.45,0.63-0.66,1.4-0.86,2.14c-0.47,1.73-0.94,3.46-1.41,5.19c-0.05,0.2-0.11,0.42-0.02,0.6
					c0.1,0.22,0.37,0.31,0.61,0.28c0.24-0.03,0.45-0.15,0.66-0.28c2.08-1.23,4.16-2.46,6.24-3.69c0.31-0.19,0.64-0.39,0.82-0.7
					C289.45,339.31,289.42,338.86,289.39,338.44z"/>
			</g>
			<g>
				<path class="st6" d="M278.32,336.23c-0.27-0.87-1.13-1.4-1.93-1.84c-4.45-2.47-9.83-5.27-14.43-7.79
					c-0.69-0.38-1.54-0.05-1.81,0.7c-0.93,2.61-2.57,6.68-2.04,8.18c0.22,0.63,1.32,1.39,2.03,1.82c3.89,2.36,7.46,4.24,10.98,6.28
					c0.58,0.34,1.11,0.77,1.74,1.01c0.63,0.24,1.35,0.3,1.96,0.03c0.74-0.33,1.19-1.09,1.56-1.82c0.76-1.52,1.37-3.11,1.81-4.75
					C278.36,337.46,278.5,336.82,278.32,336.23z"/>
			</g>
			<g>
				<g>
					<path class="st17" d="M258.36,342.19c4.18,2.38,8.36,4.76,12.54,7.14c0.59,0.34,1.18,0.67,1.77,1.01
						c0.42,0.24,0.8-0.41,0.38-0.65c-4.18-2.38-8.36-4.76-12.54-7.14c-0.59-0.34-1.18-0.67-1.77-1.01
						C258.32,341.3,257.94,341.95,258.36,342.19L258.36,342.19z"/>
				</g>
			</g>
			<g>
				<g>
					<path class="st17" d="M258.36,344.55c4.18,2.38,8.36,4.76,12.54,7.14c0.59,0.34,1.18,0.67,1.77,1.01
						c0.42,0.24,0.8-0.41,0.38-0.65c-4.18-2.38-8.36-4.76-12.54-7.14c-0.59-0.34-1.18-0.67-1.77-1.01
						C258.32,343.66,257.94,344.31,258.36,344.55L258.36,344.55z"/>
				</g>
			</g>
			<g>
				<g>
					<path class="st17" d="M258.26,347.14c4.18,2.38,8.36,4.76,12.54,7.14c0.59,0.34,1.18,0.67,1.77,1.01
						c0.42,0.24,0.8-0.41,0.38-0.65c-4.18-2.38-8.36-4.76-12.54-7.14c-0.59-0.34-1.18-0.67-1.77-1.01
						C258.22,346.26,257.84,346.9,258.26,347.14L258.26,347.14z"/>
				</g>
			</g>
			<g>
				<path class="st1" d="M273.17,355.02c-0.21-0.21-0.54-0.18-0.74-0.09c-0.2,0.09-0.34,0.27-0.44,0.46
					c-0.12,0.22-0.19,0.48-0.15,0.73c0.07,0.4,0.45,0.72,0.85,0.73c0.41,0.01,0.8-0.28,0.92-0.67
					C273.74,355.8,273.49,355.27,273.17,355.02z"/>
			</g>
			<g>
				<path class="st1" d="M257.77,346.98c-0.21-0.21-0.54-0.18-0.74-0.09c-0.2,0.09-0.34,0.27-0.44,0.46
					c-0.12,0.22-0.19,0.48-0.15,0.73c0.07,0.4,0.45,0.72,0.85,0.73c0.41,0.01,0.8-0.28,0.92-0.67
					C258.34,347.76,258.09,347.23,257.77,346.98z"/>
			</g>
			<g>
				<path class="st3" d="M297.49,346.89c-0.28-0.68-0.66-1.36-0.59-2.09c-1.2,0.82-2.51,1.68-3.96,1.6
					c-0.79-0.04-1.53-0.37-2.3-0.54c-1.79-0.41-3.76,0.03-5.21,1.15l0.5,2.72c1.18-0.58,2.59-0.68,3.84-0.28
					c1.25,0.41,2.33,1.32,2.94,2.48c1.33-0.76,2.66-1.52,3.99-2.28c0.32-0.18,0.64-0.37,0.85-0.67
					C297.95,348.39,297.77,347.56,297.49,346.89z"/>
			</g>
			<g>
				<path class="st3" d="M280.43,357.99c0,1.6,0.55,2.73,1.45,3.28c0.03,0.02,2.84,1.64,2.86,1.66c0.93,0.52,0.34-0.66,1.76-1.48
					c2.86-1.65,5.17-5.64,5.17-8.92c0-1.62,1.5-1.63,0.58-2.17c-0.03-0.01-3.02-1.67-3.04-1.68c-0.93-0.5-2.21-0.41-3.61,0.4
					C282.74,350.72,280.43,354.72,280.43,357.99z"/>
				<path class="st2" d="M283.42,359.69c0,3.28,2.31,4.6,5.17,2.95c2.86-1.65,5.17-5.64,5.17-8.92s-2.31-4.6-5.17-2.95
					C285.74,352.42,283.42,356.41,283.42,359.69z"/>
				<g>
					<g>
						<path class="st10" d="M288.63,353.13c-1.84,1.06-3.34,3.65-3.34,5.76c0,2.11,1.5,2.97,3.34,1.91
							c1.84-1.06,3.34-3.65,3.34-5.76C291.97,352.92,290.47,352.07,288.63,353.13z"/>
					</g>
				</g>
			</g>
			<g>
				<g>
					<path class="st2" d="M298.31,347.54c2.5-1.43,5-2.87,7.5-4.3c6.01-3.45,12.02-6.89,18.03-10.34
						c7.27-4.17,14.55-8.34,21.82-12.52c6.29-3.61,12.59-7.22,18.88-10.83c2.08-1.19,4.16-2.39,6.24-3.58
						c0.94-0.54,2.14-1.01,2.98-1.71c0.04-0.03,0.09-0.05,0.14-0.08c0.42-0.24,0.04-0.89-0.38-0.65c-2.5,1.43-5,2.87-7.5,4.3
						c-6.01,3.45-12.02,6.89-18.03,10.34c-7.27,4.17-14.55,8.34-21.82,12.52c-6.29,3.61-12.59,7.22-18.88,10.83
						c-2.08,1.19-4.16,2.39-6.24,3.58c-0.94,0.54-2.14,1.01-2.98,1.71c-0.04,0.03-0.09,0.05-0.14,0.08
						C297.51,347.13,297.89,347.78,298.31,347.54L298.31,347.54z"/>
				</g>
			</g>
		</g>
		<g>
			<path class="st11" d="M360.1,305.16l-9.34,5.64c-0.59,0.36-0.96,1-0.96,1.7v10.22c0,0.71,0.38,1.37,0.99,1.72l9.32,5.37
				c0.61,0.35,1.36,0.35,1.97,0.01l9.56-5.44c0.62-0.35,1-1.01,1-1.72V312.4c0-0.71-0.38-1.36-0.99-1.72l-9.55-5.54
				C361.5,304.78,360.72,304.79,360.1,305.16z"/>
			<polygon class="st6" points="365.18,319.65 365.06,315.8 353.77,308.99 356.82,307.17 368.22,313.95 368.23,317.92 			"/>
			<g>
				<g>
					<path class="st3" d="M350.03,311.9c3.27,1.84,6.54,3.69,9.81,5.53c0.29,0.17,0.75,0.56,1.1,0.6c0.36,0.04,0.8-0.32,1.1-0.49
						c1.9-1.06,3.8-2.12,5.71-3.18c1.54-0.86,3.08-1.72,4.62-2.58c0.42-0.23,0.04-0.88-0.38-0.65c-3.18,1.77-6.36,3.54-9.54,5.31
						c-0.21,0.11-1.48,0.62-1.53,0.85c-0.02,0.08,0.33,0.18,0.2-0.02c-0.09-0.14-0.49-0.27-0.62-0.35
						c-1.84-1.04-3.69-2.08-5.53-3.12c-1.52-0.86-3.04-1.71-4.55-2.57C349.99,311.02,349.61,311.67,350.03,311.9L350.03,311.9z"/>
				</g>
			</g>
			<g>
				<g>
					<path class="st3" d="M361.41,330.08c0-4.13,0-8.27,0-12.4c0-0.48-0.75-0.48-0.75,0c0,4.13,0,8.27,0,12.4
						C360.66,330.56,361.41,330.56,361.41,330.08L361.41,330.08z"/>
				</g>
			</g>
			<path class="st6" d="M369.24,324.44l2.14-1.23c0.15-0.08,0.24-0.24,0.24-0.41v-0.93c0-0.22-0.24-0.36-0.44-0.25l-2.08,1.22
				c-0.19,0.11-0.3,0.31-0.3,0.52v0.81C368.81,324.41,369.05,324.55,369.24,324.44z"/>
			<path class="st6" d="M350.81,314.24c0,0.59,0.01,1.57,0.01,2.09c0,0.23,0.12,0.43,0.31,0.55l2.54,1.54
				c0.19,0.11,0.43-0.02,0.43-0.24l0.04-2.1c0-0.24-0.12-0.45-0.32-0.57l-2.58-1.52C351.05,313.89,350.82,314.02,350.81,314.24z"/>
		</g>
		<g>
			<path class="st1" d="M346.4,313.65l-9.34,5.64c-0.59,0.36-0.96,1-0.96,1.7v10.22c0,0.71,0.38,1.37,0.99,1.72l9.32,5.37
				c0.61,0.35,1.36,0.35,1.97,0.01l9.56-5.44c0.62-0.35,1-1.01,1-1.72V320.9c0-0.71-0.38-1.36-0.99-1.72l-9.55-5.54
				C347.79,313.27,347.02,313.28,346.4,313.65z"/>
			<polygon class="st6" points="351.48,328.15 351.35,324.29 340.07,317.48 343.11,315.66 354.52,322.44 354.53,326.41 			"/>
			<g>
				<g>
					<path class="st3" d="M336.33,320.39c3.27,1.84,6.54,3.69,9.81,5.53c0.29,0.17,0.75,0.56,1.1,0.6c0.36,0.04,0.8-0.32,1.1-0.49
						c1.9-1.06,3.8-2.12,5.71-3.18c1.54-0.86,3.08-1.72,4.62-2.58c0.42-0.23,0.04-0.88-0.38-0.65c-3.18,1.77-6.36,3.54-9.54,5.31
						c-0.21,0.11-1.48,0.62-1.53,0.85c-0.02,0.08,0.33,0.18,0.2-0.02c-0.09-0.14-0.49-0.27-0.62-0.35
						c-1.84-1.04-3.69-2.08-5.53-3.12c-1.52-0.86-3.04-1.71-4.55-2.57C336.28,319.51,335.91,320.16,336.33,320.39L336.33,320.39z"/>
				</g>
			</g>
			<g>
				<g>
					<path class="st3" d="M347.71,338.57c0-4.13,0-8.27,0-12.4c0-0.48-0.75-0.48-0.75,0c0,4.13,0,8.27,0,12.4
						C346.96,339.05,347.71,339.06,347.71,338.57L347.71,338.57z"/>
				</g>
			</g>
			<path class="st6" d="M355.54,332.93l2.14-1.23c0.15-0.08,0.24-0.24,0.24-0.41v-0.93c0-0.22-0.24-0.36-0.44-0.25l-2.08,1.22
				c-0.19,0.11-0.3,0.31-0.3,0.52v0.81C355.11,332.9,355.35,333.04,355.54,332.93z"/>
			<path class="st6" d="M337.11,322.73c0,0.59,0.01,1.57,0.01,2.09c0,0.23,0.12,0.43,0.31,0.55l2.54,1.54
				c0.19,0.11,0.43-0.02,0.43-0.24l0.04-2.1c0-0.24-0.12-0.45-0.32-0.57l-2.58-1.52C337.35,322.38,337.11,322.52,337.11,322.73z"/>
		</g>
		<g>
			<path class="st17" d="M352.21,296.43l-9.34,5.64c-0.59,0.36-0.96,1-0.96,1.7v10.22c0,0.71,0.38,1.37,0.99,1.72l9.32,5.37
				c0.61,0.35,1.36,0.35,1.97,0.01l9.56-5.44c0.62-0.35,1-1.01,1-1.72v-10.25c0-0.71-0.38-1.36-0.99-1.72l-9.55-5.54
				C353.61,296.05,352.83,296.06,352.21,296.43z"/>
			<polygon class="st6" points="357.29,310.92 357.17,307.07 345.88,300.26 348.93,298.44 360.33,305.22 360.34,309.19 			"/>
			<g>
				<g>
					<path class="st3" d="M342.14,303.17c3.27,1.84,6.54,3.69,9.81,5.53c0.29,0.17,0.75,0.56,1.1,0.6c0.36,0.04,0.8-0.32,1.1-0.49
						c1.9-1.06,3.8-2.12,5.71-3.18c1.54-0.86,3.08-1.72,4.62-2.58c0.42-0.23,0.04-0.88-0.38-0.65c-3.18,1.77-6.36,3.54-9.54,5.31
						c-0.21,0.11-1.48,0.62-1.53,0.85c-0.02,0.08,0.33,0.18,0.2-0.02c-0.09-0.14-0.49-0.27-0.62-0.35
						c-1.84-1.04-3.69-2.08-5.53-3.12c-1.52-0.86-3.04-1.71-4.55-2.57C342.1,302.29,341.72,302.94,342.14,303.17L342.14,303.17z"/>
				</g>
			</g>
			<g>
				<g>
					<path class="st3" d="M353.52,321.35c0-4.13,0-8.27,0-12.4c0-0.48-0.75-0.48-0.75,0c0,4.13,0,8.27,0,12.4
						C352.77,321.83,353.52,321.83,353.52,321.35L353.52,321.35z"/>
				</g>
			</g>
			<path class="st6" d="M361.35,315.71l2.14-1.23c0.15-0.08,0.24-0.24,0.24-0.41v-0.93c0-0.22-0.24-0.36-0.44-0.25l-2.08,1.22
				c-0.19,0.11-0.3,0.31-0.3,0.52v0.81C360.92,315.68,361.16,315.82,361.35,315.71z"/>
			<path class="st6" d="M342.92,305.51c0,0.59,0.01,1.57,0.01,2.09c0,0.23,0.12,0.43,0.31,0.55l2.54,1.54
				c0.19,0.11,0.43-0.02,0.43-0.24l0.04-2.1c0-0.24-0.12-0.45-0.32-0.57l-2.58-1.52C343.16,305.16,342.92,305.29,342.92,305.51z"/>
		</g>
	</g>
	<g>
		<path class="st2" d="M608.43,125.53c-0.89-0.5-1.98-0.48-2.86,0.04l-86.5,51.24c-13.58,7.33-15.72,18.51-8.12,23.93
			c0.01,0.01-0.02-0.01-0.01-0.01c6.67,4.6,13.58,6.18,13.58,6.18c5.87,1.39,14.9,1.03,22.49-1.1c5.44-1.53,10.66-3.78,15.52-6.66
			l69.85-41.42c0.71-0.42,1.2-1.15,1.31-1.97l2.61-12.35c0.26-1.23-0.31-2.48-1.41-3.1L608.43,125.53z"/>
		<path id="XMLID_15365_" class="st10" d="M607.17,133.37l-75.59,42.99c-12.16,6.14-22.21,11.66-21.29,18.56l1.12,2
			c0.36,0.44,0.44,0.63,1.03,0.96l0.66,0.71c6.62,3.73,23.14-0.75,32.2-5.26l51.46-28.94l31.1-19.47L607.17,133.37z"/>
		<path id="XMLID_15333_" class="st10" d="M593.55,140.81l-0.28-22.62l32.49,3.57l0.29,22.75c0.05,0.25-0.51,0.84-0.81,1.02
			l-10.63,6.28c-0.58,0.35-1.61,0.32-2.29-0.06l-18.19-10.17C593.72,141.37,593.53,141.08,593.55,140.81z"/>
		<path id="XMLID_15332_" class="st10" d="M614.29,127.07l11.07-6.63c0.58-0.35,0.5-0.94-0.19-1.32l-18.19-10.17
			c-0.68-0.38-1.71-0.4-2.29-0.06l-11.07,6.63c-0.58,0.35-0.5,0.94,0.19,1.32l18.19,10.17C612.68,127.39,613.7,127.42,614.29,127.07
			z"/>
		<path id="XMLID_15331_" class="st10" d="M593.24,115.92c0.04,0.23,0.23,0.47,0.56,0.65l18.19,10.17c0.68,0.38,1.71,0.4,2.29,0.06
			l11.07-6.63c0.22-0.13,0.35-0.3,0.38-0.48l0.03,2.67c0.05,0.25-0.07,0.49-0.38,0.67l-11.07,6.63c-0.58,0.35-1.61,0.32-2.29-0.06
			l-18.19-10.17c-0.4-0.22-0.59-0.51-0.57-0.79L593.24,115.92L593.24,115.92z"/>
		<g>
			<g>
				<path class="st3" d="M593.29,135.29c-3.37,1.95-6.73,3.9-10.09,5.86c-7.74,4.51-15.48,9.03-23.21,13.57
					c-8.57,5.04-17.13,10.09-25.65,15.21c-5.96,3.58-11.98,7.12-17.76,10.99c-2.95,1.98-5.58,4.44-6.96,7.81
					c-1.08,2.64-0.64,5.68,1.08,7.94c1.61,2.11,3.93,2.99,6.49,3.28c6.42,0.72,13.15-0.87,19.22-2.79c2.7-0.86,5.31-2.02,7.88-3.21
					c8.15-3.77,16.04-8.09,23.89-12.45c9.42-5.23,18.75-10.63,28.04-16.1c8.23-4.85,16.43-9.76,24.61-14.72
					c4.4-2.67,8.8-5.35,13.18-8.06c0.21-0.13,0.41-0.25,0.62-0.38c0.41-0.25,0.03-0.9-0.38-0.65c-2.96,1.83-5.93,3.65-8.91,5.46
					c-7.25,4.42-14.52,8.8-21.81,13.14c-9.07,5.4-18.17,10.73-27.35,15.94c-8.42,4.78-16.88,9.5-25.52,13.88
					c-7.37,3.73-14.64,7.01-22.81,8.55c-2.95,0.56-5.98,0.9-8.99,0.77c-2.7-0.12-5.4-0.6-7.27-2.75
					c-4.14-4.77-0.28-10.99,4.01-14.07c4.81-3.46,10.02-6.43,15.08-9.49c8.15-4.93,16.34-9.78,24.55-14.62
					c8.02-4.72,16.05-9.43,24.09-14.11c4.57-2.66,9.14-5.32,13.71-7.97c0.21-0.12,0.43-0.25,0.64-0.37
					C594.09,135.7,593.71,135.05,593.29,135.29L593.29,135.29z"/>
			</g>
		</g>
		<g>
			<g>
				<path class="st3" d="M593.05,116.25c4.4,2.43,8.81,4.86,13.21,7.29c1.48,0.82,2.94,1.69,4.45,2.46
					c3.05,1.55,5.45-0.17,7.99-1.69c2.41-1.43,4.81-2.87,7.22-4.3c0.41-0.25,0.04-0.9-0.38-0.65c-1.93,1.15-3.87,2.3-5.8,3.46
					c-2.42,1.44-5.38,3.99-8.33,2.67c-1.55-0.69-3.01-1.63-4.49-2.44c-2.75-1.52-5.51-3.04-8.26-4.56
					c-1.74-0.96-3.49-1.93-5.24-2.89C593,115.37,592.62,116.01,593.05,116.25L593.05,116.25z"/>
			</g>
		</g>
		<g>
			<g>
				<path class="st3" d="M613.34,126.25c0.12,9.05,0.23,18.09,0.35,27.14c0.01,0.48,0.76,0.48,0.75,0
					c-0.12-9.05-0.23-18.09-0.35-27.14C614.08,125.77,613.33,125.77,613.34,126.25L613.34,126.25z"/>
			</g>
		</g>
		<g>
			<path id="XMLID_14839_" class="st11" d="M592.58,132.22l-5.64,3.38c-0.47,0.28-0.75,0.79-0.74,1.33l0.11,8.69
				c0.01,0.54,0.3,1.04,0.78,1.31l17.69,10.03c0.48,0.27,1.07,0.26,1.54-0.02l5.62-3.37c0.47-0.28,0.75-0.79,0.74-1.33l-0.11-8.82
				c-0.01-0.55-0.31-1.05-0.78-1.32l-17.67-9.91C593.64,131.93,593.05,131.94,592.58,132.22z"/>
			<g>
				<g>
					<path class="st3" d="M586.39,136.74c-0.33,0.06-0.2-0.01,0.08,0.15c0.27,0.15,0.54,0.31,0.81,0.46
						c0.9,0.52,1.79,1.04,2.68,1.56c2.5,1.47,5,2.95,7.49,4.43c2.11,1.25,4.22,2.51,6.34,3.76c0.17,0.1,1.03,0.79,1.23,0.74
						c-0.17,0.04-0.18-0.58-0.15,0.12c0.02,0.49,0.04,0.98,0.05,1.47c0.09,2.58,0.19,5.15,0.28,7.73c0.02,0.48,0.77,0.48,0.75,0
						c-0.08-2.34-0.17-4.68-0.25-7.02c-0.03-0.77,0.13-1.86-0.09-2.62c-0.12-0.39-0.52-0.53-0.86-0.73
						c-4.65-2.77-9.3-5.53-13.96-8.27c-1.07-0.63-2.14-1.26-3.22-1.88c-0.34-0.2-0.95-0.72-1.38-0.64
						C585.72,136.1,585.92,136.82,586.39,136.74L586.39,136.74z"/>
				</g>
			</g>
			<g>
				<g>
					<path class="st3" d="M605.2,147.13c0.03-0.01,0.06-0.02,0.09-0.04c0.12,0.21,0.24,0.42,0.36,0.63
						c-0.14,0.14,0.07-0.04,0.13-0.08c0.18-0.11,0.35-0.22,0.53-0.34c0.57-0.36,1.14-0.72,1.71-1.08c1.26-0.79,2.52-1.59,3.78-2.38
						c0.29-0.18,0.58-0.37,0.88-0.55c0.41-0.26,0.03-0.91-0.38-0.65c-2.08,1.31-4.17,2.62-6.25,3.93c-0.29,0.18-0.69,0.36-0.93,0.61
						c-0.28,0.29,0.01,0.68,0.36,0.63c0.01,0,0.08-0.04,0.09-0.04C606.01,147.57,605.63,146.92,605.2,147.13L605.2,147.13z"/>
				</g>
			</g>
		</g>
		<g>
			<path id="XMLID_00000109019249937929546510000013833377772837000611_" class="st17" d="M583.73,137.74l-5.64,3.38
				c-0.47,0.28-0.75,0.79-0.74,1.33l0.11,8.69c0.01,0.54,0.3,1.04,0.78,1.31l17.69,10.03c0.48,0.27,1.07,0.26,1.54-0.02l5.62-3.37
				c0.47-0.28,0.75-0.79,0.74-1.33l-0.11-8.82c-0.01-0.55-0.31-1.05-0.78-1.32l-17.67-9.91
				C584.79,137.45,584.2,137.46,583.73,137.74z"/>
			<g>
				<g>
					<path class="st3" d="M577.54,142.26c-0.33,0.06-0.2-0.01,0.08,0.15c0.27,0.15,0.54,0.31,0.81,0.46
						c0.9,0.52,1.79,1.04,2.68,1.56c2.5,1.47,5,2.95,7.49,4.43c2.11,1.25,4.22,2.51,6.34,3.76c0.17,0.1,1.03,0.79,1.23,0.74
						c-0.17,0.04-0.18-0.58-0.15,0.12c0.02,0.49,0.04,0.98,0.05,1.47c0.09,2.58,0.19,5.15,0.28,7.73c0.02,0.48,0.77,0.48,0.75,0
						c-0.08-2.34-0.17-4.68-0.25-7.02c-0.03-0.77,0.13-1.86-0.09-2.62c-0.12-0.39-0.52-0.53-0.86-0.73
						c-4.65-2.77-9.3-5.53-13.96-8.27c-1.07-0.63-2.14-1.26-3.22-1.88c-0.34-0.2-0.95-0.72-1.38-0.64
						C576.87,141.62,577.07,142.34,577.54,142.26L577.54,142.26z"/>
				</g>
			</g>
			<g>
				<g>
					<path class="st3" d="M596.35,152.65c0.03-0.01,0.06-0.02,0.09-0.04c0.12,0.21,0.24,0.42,0.36,0.63
						c-0.14,0.14,0.07-0.04,0.13-0.08c0.18-0.11,0.35-0.22,0.53-0.34c0.57-0.36,1.14-0.72,1.71-1.08c1.26-0.79,2.52-1.59,3.78-2.38
						c0.29-0.18,0.58-0.37,0.88-0.55c0.41-0.26,0.03-0.91-0.38-0.65c-2.08,1.31-4.17,2.62-6.25,3.93c-0.29,0.18-0.69,0.36-0.93,0.61
						c-0.28,0.29,0.01,0.68,0.36,0.63c0.01,0,0.08-0.04,0.09-0.04C597.16,153.09,596.78,152.44,596.35,152.65L596.35,152.65z"/>
				</g>
			</g>
		</g>
		<g>
			<path id="XMLID_00000030450321330850012750000017815738073081137806_" class="st2" d="M574.48,142.89l-5.64,3.38
				c-0.47,0.28-0.75,0.79-0.74,1.33l0.11,8.69c0.01,0.54,0.3,1.04,0.78,1.31l17.69,10.03c0.48,0.27,1.07,0.26,1.54-0.02l5.62-3.37
				c0.47-0.28,0.75-0.79,0.74-1.33l-0.11-8.82c-0.01-0.55-0.31-1.05-0.78-1.32l-17.67-9.91
				C575.54,142.6,574.95,142.61,574.48,142.89z"/>
			<g>
				<g>
					<path class="st3" d="M568.3,147.41c-0.33,0.06-0.2-0.01,0.08,0.15c0.27,0.15,0.54,0.31,0.81,0.46c0.9,0.52,1.79,1.04,2.68,1.56
						c2.5,1.47,5,2.95,7.49,4.43c2.11,1.25,4.22,2.51,6.34,3.76c0.17,0.1,1.03,0.79,1.23,0.74c-0.17,0.04-0.18-0.58-0.15,0.12
						c0.02,0.49,0.04,0.98,0.05,1.47c0.09,2.58,0.19,5.15,0.28,7.73c0.02,0.48,0.77,0.48,0.75,0c-0.08-2.34-0.17-4.68-0.25-7.02
						c-0.03-0.77,0.13-1.86-0.1-2.62c-0.12-0.39-0.52-0.53-0.86-0.73c-4.65-2.77-9.3-5.53-13.96-8.27
						c-1.07-0.63-2.14-1.26-3.22-1.88c-0.34-0.2-0.95-0.72-1.38-0.64C567.62,146.77,567.82,147.49,568.3,147.41L568.3,147.41z"/>
				</g>
			</g>
			<g>
				<g>
					<path class="st3" d="M587.1,157.8c0.03-0.01,0.06-0.02,0.09-0.04c0.12,0.21,0.24,0.42,0.36,0.63
						c-0.14,0.14,0.07-0.04,0.13-0.08c0.18-0.11,0.35-0.22,0.53-0.34c0.57-0.36,1.14-0.72,1.71-1.08c1.26-0.79,2.52-1.59,3.78-2.38
						c0.29-0.18,0.58-0.37,0.88-0.55c0.41-0.26,0.03-0.91-0.38-0.65c-2.08,1.31-4.17,2.62-6.25,3.93c-0.29,0.18-0.69,0.36-0.93,0.61
						c-0.28,0.29,0.01,0.68,0.36,0.63c0.01,0,0.08-0.04,0.09-0.04C587.92,158.24,587.54,157.59,587.1,157.8L587.1,157.8z"/>
				</g>
			</g>
		</g>
		<g>
			<path id="XMLID_00000130644030856893502600000009978670603917434268_" class="st1" d="M566.23,147.92l-5.64,3.38
				c-0.47,0.28-0.75,0.79-0.74,1.33l0.11,8.69c0.01,0.54,0.3,1.04,0.78,1.31l17.69,10.03c0.48,0.27,1.07,0.26,1.54-0.02l5.62-3.37
				c0.47-0.28,0.75-0.79,0.74-1.33l-0.11-8.82c-0.01-0.55-0.31-1.05-0.78-1.32l-17.67-9.91
				C567.28,147.63,566.7,147.63,566.23,147.92z"/>
			<g>
				<g>
					<path class="st3" d="M560.04,152.43c-0.33,0.06-0.2-0.01,0.08,0.15c0.27,0.15,0.54,0.31,0.81,0.46
						c0.9,0.52,1.79,1.04,2.68,1.56c2.5,1.47,5,2.95,7.49,4.43c2.11,1.25,4.22,2.51,6.34,3.76c0.17,0.1,1.03,0.79,1.23,0.74
						c-0.17,0.04-0.18-0.58-0.15,0.12c0.02,0.49,0.04,0.98,0.05,1.47c0.09,2.58,0.19,5.15,0.28,7.73c0.02,0.48,0.77,0.48,0.75,0
						c-0.08-2.34-0.17-4.68-0.25-7.02c-0.03-0.77,0.13-1.86-0.09-2.62c-0.12-0.39-0.52-0.53-0.86-0.73
						c-4.65-2.77-9.3-5.53-13.96-8.27c-1.07-0.63-2.14-1.26-3.22-1.88c-0.34-0.2-0.95-0.72-1.38-0.64
						C559.37,151.79,559.57,152.52,560.04,152.43L560.04,152.43z"/>
				</g>
			</g>
			<g>
				<g>
					<path class="st3" d="M578.85,162.82c0.03-0.01,0.06-0.02,0.09-0.04c0.12,0.21,0.24,0.42,0.36,0.63
						c-0.14,0.14,0.07-0.04,0.13-0.08c0.18-0.11,0.35-0.22,0.53-0.34c0.57-0.36,1.14-0.72,1.71-1.08c1.26-0.79,2.52-1.59,3.78-2.38
						c0.29-0.18,0.58-0.37,0.88-0.55c0.41-0.26,0.03-0.91-0.38-0.65c-2.08,1.31-4.17,2.62-6.25,3.93c-0.29,0.18-0.69,0.36-0.93,0.61
						c-0.28,0.29,0.01,0.68,0.36,0.63c0.01,0,0.08-0.04,0.09-0.04C579.66,163.26,579.28,162.62,578.85,162.82L578.85,162.82z"/>
				</g>
			</g>
		</g>
		<g>
			<path id="XMLID_00000079466417031217144050000009805995074935477174_" class="st11" d="M583.03,127.27l-5.64,3.38
				c-0.47,0.28-0.75,0.79-0.74,1.33l0.11,8.69c0.01,0.54,0.3,1.04,0.78,1.31l17.69,10.03c0.48,0.27,1.07,0.26,1.54-0.02l5.62-3.37
				c0.47-0.28,0.75-0.79,0.74-1.33l-0.11-8.82c-0.01-0.55-0.31-1.05-0.78-1.32l-17.67-9.91
				C584.08,126.98,583.5,126.99,583.03,127.27z"/>
			<g>
				<g>
					<path class="st3" d="M576.84,131.79c-0.33,0.06-0.2-0.01,0.08,0.15c0.27,0.15,0.54,0.31,0.81,0.46
						c0.9,0.52,1.79,1.04,2.68,1.56c2.5,1.47,5,2.95,7.49,4.43c2.11,1.25,4.23,2.51,6.34,3.76c0.17,0.1,1.03,0.79,1.23,0.74
						c-0.17,0.04-0.18-0.58-0.15,0.12c0.02,0.49,0.04,0.98,0.05,1.47c0.09,2.58,0.19,5.15,0.28,7.73c0.02,0.48,0.77,0.48,0.75,0
						c-0.08-2.34-0.17-4.68-0.25-7.02c-0.03-0.77,0.13-1.86-0.1-2.62c-0.12-0.39-0.52-0.53-0.86-0.73
						c-4.65-2.77-9.3-5.53-13.96-8.27c-1.07-0.63-2.14-1.26-3.22-1.88c-0.34-0.2-0.95-0.72-1.38-0.64
						C576.17,131.15,576.37,131.88,576.84,131.79L576.84,131.79z"/>
				</g>
			</g>
			<g>
				<g>
					<path class="st3" d="M595.65,142.18c0.03-0.01,0.06-0.02,0.09-0.04c0.12,0.21,0.24,0.42,0.36,0.63
						c-0.14,0.14,0.07-0.04,0.13-0.08c0.18-0.11,0.35-0.22,0.53-0.34c0.57-0.36,1.14-0.72,1.71-1.08c1.26-0.79,2.52-1.59,3.78-2.38
						c0.29-0.18,0.58-0.37,0.88-0.55c0.41-0.26,0.03-0.91-0.38-0.65c-2.08,1.31-4.17,2.62-6.25,3.93c-0.29,0.18-0.69,0.36-0.93,0.61
						c-0.28,0.29,0.01,0.68,0.36,0.63c0.01,0,0.08-0.04,0.09-0.04C596.46,142.62,596.08,141.97,595.65,142.18L595.65,142.18z"/>
				</g>
			</g>
		</g>
		<g>
			<path id="XMLID_00000111910263646803646960000007930155039945594293_" class="st11" d="M551.2,155.85l-5.64,3.38
				c-0.47,0.28-0.75,0.79-0.74,1.33l0.11,8.69c0.01,0.54,0.3,1.04,0.78,1.31l17.69,10.03c0.48,0.27,1.07,0.26,1.54-0.02l5.62-3.37
				c0.47-0.28,0.75-0.79,0.74-1.33l-0.11-8.82c-0.01-0.55-0.31-1.05-0.78-1.32l-17.67-9.91
				C552.26,155.56,551.67,155.57,551.2,155.85z"/>
			<g>
				<g>
					<path class="st3" d="M545.02,160.36c-0.33,0.06-0.2-0.01,0.08,0.15c0.27,0.15,0.54,0.31,0.81,0.46
						c0.9,0.52,1.79,1.04,2.68,1.56c2.5,1.47,5,2.95,7.49,4.43c2.11,1.25,4.23,2.51,6.34,3.76c0.17,0.1,1.03,0.79,1.23,0.74
						c-0.17,0.04-0.18-0.58-0.15,0.12c0.02,0.49,0.04,0.98,0.05,1.47c0.09,2.58,0.19,5.15,0.28,7.73c0.02,0.48,0.77,0.48,0.75,0
						c-0.08-2.34-0.17-4.68-0.25-7.02c-0.03-0.77,0.13-1.86-0.09-2.62c-0.12-0.39-0.52-0.53-0.86-0.73
						c-4.65-2.77-9.3-5.53-13.96-8.27c-1.07-0.63-2.14-1.26-3.22-1.88c-0.34-0.2-0.95-0.72-1.38-0.64
						C544.34,159.73,544.54,160.45,545.02,160.36L545.02,160.36z"/>
				</g>
			</g>
			<g>
				<g>
					<path class="st3" d="M563.82,170.75c0.03-0.01,0.06-0.02,0.09-0.04c0.12,0.21,0.24,0.42,0.36,0.63
						c-0.14,0.14,0.07-0.04,0.13-0.08c0.18-0.11,0.35-0.22,0.53-0.34c0.57-0.36,1.14-0.72,1.71-1.08c1.26-0.79,2.52-1.59,3.78-2.38
						c0.29-0.18,0.58-0.37,0.88-0.55c0.41-0.26,0.03-0.91-0.38-0.65c-2.08,1.31-4.17,2.62-6.25,3.93c-0.29,0.18-0.69,0.36-0.93,0.61
						c-0.28,0.29,0.01,0.68,0.36,0.63c0.01,0,0.08-0.04,0.09-0.04C564.64,171.19,564.26,170.55,563.82,170.75L563.82,170.75z"/>
				</g>
			</g>
		</g>
		<g>
			<path id="XMLID_00000013180546013031713970000006165609174499833491_" class="st17" d="M541.78,161.64l-5.64,3.38
				c-0.47,0.28-0.75,0.79-0.74,1.33l0.11,8.69c0.01,0.54,0.3,1.04,0.78,1.31l17.69,10.03c0.48,0.27,1.07,0.26,1.54-0.02l5.62-3.37
				c0.47-0.28,0.75-0.79,0.74-1.33l-0.11-8.82c-0.01-0.55-0.31-1.05-0.78-1.32l-17.67-9.91
				C542.84,161.34,542.25,161.35,541.78,161.64z"/>
			<g>
				<g>
					<path class="st3" d="M535.6,166.15c-0.33,0.06-0.2-0.01,0.08,0.15c0.27,0.15,0.54,0.31,0.81,0.46c0.9,0.52,1.79,1.04,2.68,1.56
						c2.5,1.47,5,2.95,7.49,4.43c2.11,1.25,4.23,2.51,6.34,3.76c0.17,0.1,1.03,0.79,1.23,0.74c-0.17,0.04-0.18-0.58-0.15,0.13
						c0.02,0.49,0.04,0.98,0.05,1.47c0.09,2.58,0.19,5.15,0.28,7.73c0.02,0.48,0.77,0.48,0.75,0c-0.08-2.34-0.17-4.68-0.25-7.02
						c-0.03-0.77,0.13-1.86-0.09-2.62c-0.12-0.39-0.52-0.53-0.86-0.73c-4.65-2.77-9.3-5.53-13.96-8.27
						c-1.07-0.63-2.14-1.26-3.22-1.88c-0.34-0.2-0.95-0.72-1.38-0.64C534.92,165.51,535.12,166.24,535.6,166.15L535.6,166.15z"/>
				</g>
			</g>
			<g>
				<g>
					<path class="st3" d="M554.4,176.54c0.03-0.01,0.06-0.02,0.09-0.04c0.12,0.21,0.24,0.42,0.36,0.63
						c-0.14,0.14,0.07-0.04,0.13-0.08c0.18-0.11,0.35-0.22,0.53-0.34c0.57-0.36,1.14-0.72,1.71-1.08c1.26-0.79,2.52-1.59,3.78-2.38
						c0.29-0.18,0.58-0.37,0.88-0.55c0.41-0.26,0.03-0.91-0.38-0.65c-2.08,1.31-4.17,2.62-6.25,3.93c-0.29,0.18-0.69,0.36-0.93,0.61
						c-0.28,0.29,0.01,0.68,0.36,0.63c0.01,0,0.08-0.04,0.09-0.04C555.22,176.98,554.84,176.33,554.4,176.54L554.4,176.54z"/>
				</g>
			</g>
		</g>
		<g>
			<path id="XMLID_00000117641460283689085900000006300054952122319509_" class="st1" d="M527.06,170.3l-5.48,3.29
				c-0.45,0.27-0.73,0.77-0.72,1.29l0.11,8.45c0.01,0.53,0.29,1.01,0.75,1.28l17.19,9.75c0.47,0.26,1.04,0.26,1.5-0.02l5.47-3.28
				c0.45-0.27,0.73-0.77,0.72-1.29l-0.11-8.57c-0.01-0.53-0.3-1.02-0.76-1.28l-17.17-9.63C528.09,170.01,527.52,170.02,527.06,170.3
				z"/>
			<g>
				<g>
					<path class="st3" d="M521.05,174.69c-0.32,0.06-0.21-0.01,0.07,0.15c0.26,0.15,0.53,0.3,0.79,0.45c0.87,0.5,1.74,1.01,2.6,1.52
						c2.43,1.43,4.86,2.86,7.28,4.3c2.05,1.22,4.11,2.44,6.16,3.66c0.17,0.1,1,0.76,1.2,0.71c-0.17,0.04-0.18-0.58-0.15,0.11
						c0.02,0.48,0.03,0.95,0.05,1.43c0.09,2.5,0.18,5.01,0.27,7.51c0.02,0.48,0.77,0.48,0.75,0c-0.08-2.27-0.16-4.54-0.25-6.82
						c-0.03-0.76,0.12-1.81-0.09-2.54c-0.11-0.39-0.5-0.52-0.84-0.72c-4.52-2.69-9.04-5.38-13.57-8.04
						c-1.04-0.61-2.08-1.22-3.13-1.83c-0.33-0.19-0.93-0.7-1.35-0.62C520.38,174.06,520.58,174.78,521.05,174.69L521.05,174.69z"/>
				</g>
			</g>
			<g>
				<g>
					<path class="st3" d="M539.32,184.77c0.03-0.01,0.06-0.02,0.09-0.04c0.12,0.21,0.24,0.42,0.36,0.63
						c-0.14,0.14,0.07-0.03,0.13-0.07c0.17-0.11,0.34-0.22,0.51-0.33c0.55-0.35,1.1-0.7,1.66-1.05c1.22-0.77,2.45-1.54,3.68-2.31
						c0.28-0.18,0.57-0.36,0.85-0.54c0.41-0.26,0.03-0.91-0.38-0.65c-2.02,1.27-4.05,2.54-6.07,3.82c-0.28,0.18-0.67,0.35-0.91,0.59
						c-0.28,0.29,0.01,0.68,0.36,0.63c0.01,0,0.08-0.04,0.09-0.04C540.13,185.21,539.75,184.56,539.32,184.77L539.32,184.77z"/>
				</g>
			</g>
		</g>
		<g>
			<path id="XMLID_00000005963399173533378200000008700149943605447827_" class="st17" d="M572.03,133.97l-5.64,3.38
				c-0.47,0.28-0.75,0.79-0.74,1.33l0.11,8.69c0.01,0.54,0.3,1.04,0.78,1.31l17.69,10.03c0.48,0.27,1.07,0.26,1.54-0.02l5.62-3.37
				c0.47-0.28,0.75-0.79,0.74-1.33l-0.11-8.82c-0.01-0.55-0.31-1.05-0.78-1.32l-17.67-9.91
				C573.09,133.68,572.5,133.69,572.03,133.97z"/>
			<g>
				<g>
					<path class="st3" d="M565.84,138.49c-0.33,0.06-0.2-0.01,0.08,0.15c0.27,0.15,0.54,0.31,0.81,0.46
						c0.9,0.52,1.79,1.04,2.68,1.56c2.5,1.47,5,2.95,7.49,4.43c2.11,1.25,4.22,2.51,6.34,3.76c0.17,0.1,1.03,0.79,1.23,0.74
						c-0.17,0.04-0.18-0.58-0.15,0.12c0.02,0.49,0.04,0.98,0.05,1.47c0.09,2.58,0.19,5.15,0.28,7.73c0.02,0.48,0.77,0.48,0.75,0
						c-0.08-2.34-0.17-4.68-0.25-7.02c-0.03-0.77,0.13-1.86-0.1-2.62c-0.12-0.39-0.52-0.53-0.86-0.73
						c-4.65-2.77-9.3-5.53-13.96-8.27c-1.07-0.63-2.14-1.26-3.22-1.88c-0.34-0.2-0.95-0.72-1.38-0.64
						C565.17,137.85,565.37,138.57,565.84,138.49L565.84,138.49z"/>
				</g>
			</g>
			<g>
				<g>
					<path class="st3" d="M584.65,148.88c0.03-0.01,0.06-0.02,0.09-0.04c0.12,0.21,0.24,0.42,0.36,0.63
						c-0.14,0.14,0.07-0.04,0.13-0.08c0.18-0.11,0.35-0.22,0.53-0.34c0.57-0.36,1.14-0.72,1.71-1.08c1.26-0.79,2.52-1.59,3.78-2.38
						c0.29-0.18,0.58-0.37,0.88-0.55c0.41-0.26,0.03-0.91-0.38-0.65c-2.08,1.31-4.17,2.62-6.25,3.93c-0.29,0.18-0.69,0.36-0.93,0.61
						c-0.28,0.29,0.01,0.68,0.36,0.63c0.01,0,0.08-0.04,0.09-0.04C585.46,149.32,585.08,148.67,584.65,148.88L584.65,148.88z"/>
				</g>
			</g>
		</g>
		<polygon class="st4" points="594.44,125.61 611.39,134.83 611.34,130.96 594.39,121.7 		"/>
		<polygon class="st4" points="615.29,130.85 615.33,133.97 625.83,127.49 625.79,124.59 		"/>
		<g>
			<path id="XMLID_00000021835874325938887150000007804442825490532286_" class="st1" d="M545.92,148.42l-5.64,3.38
				c-0.47,0.28-0.75,0.79-0.74,1.33l0.11,8.69c0.01,0.54,0.3,1.04,0.78,1.31l17.69,10.03c0.48,0.27,1.07,0.26,1.54-0.02l5.62-3.37
				c0.47-0.28,0.75-0.79,0.74-1.33l-0.11-8.82c-0.01-0.55-0.31-1.05-0.78-1.32l-17.67-9.91
				C546.98,148.13,546.39,148.14,545.92,148.42z"/>
			<g>
				<g>
					<path class="st3" d="M539.73,152.93c-0.33,0.06-0.2-0.01,0.08,0.15c0.27,0.15,0.54,0.31,0.81,0.46
						c0.9,0.52,1.79,1.04,2.68,1.56c2.5,1.47,5,2.95,7.49,4.43c2.11,1.25,4.23,2.51,6.34,3.76c0.17,0.1,1.03,0.79,1.23,0.74
						c-0.17,0.04-0.18-0.58-0.15,0.13c0.02,0.49,0.04,0.98,0.05,1.47c0.09,2.58,0.19,5.15,0.28,7.73c0.02,0.48,0.77,0.48,0.75,0
						c-0.08-2.34-0.17-4.68-0.25-7.02c-0.03-0.77,0.13-1.86-0.09-2.62c-0.12-0.39-0.52-0.53-0.86-0.73
						c-4.65-2.77-9.3-5.53-13.96-8.27c-1.07-0.63-2.14-1.26-3.22-1.88c-0.34-0.2-0.95-0.72-1.38-0.64
						C539.06,152.3,539.26,153.02,539.73,152.93L539.73,152.93z"/>
				</g>
			</g>
			<g>
				<g>
					<path class="st3" d="M558.54,163.32c0.03-0.01,0.06-0.02,0.09-0.04c0.12,0.21,0.24,0.42,0.36,0.63
						c-0.14,0.14,0.07-0.04,0.13-0.08c0.18-0.11,0.35-0.22,0.53-0.34c0.57-0.36,1.14-0.72,1.71-1.08c1.26-0.79,2.52-1.59,3.78-2.38
						c0.29-0.18,0.58-0.37,0.88-0.55c0.41-0.26,0.03-0.91-0.38-0.65c-2.08,1.31-4.17,2.62-6.25,3.93c-0.29,0.18-0.69,0.36-0.93,0.61
						c-0.28,0.29,0.01,0.68,0.36,0.63c0.01,0,0.08-0.04,0.09-0.04C559.35,163.76,558.97,163.12,558.54,163.32L558.54,163.32z"/>
				</g>
			</g>
		</g>
		<g>
			<g>
				<path class="st3" d="M514.76,203.43c22.87,2.3,43.15-10.91,61.81-22.25c15.49-9.41,31.2-18.47,46.77-27.76
					c4.24-2.53,8.48-5.06,12.71-7.59c0.41-0.25,0.04-0.9-0.38-0.65c-10.9,6.52-21.8,13.02-32.72,19.5
					c-7.64,4.54-15.3,9.06-22.96,13.57c-9.19,5.41-18.09,11.3-27.68,16c-11.65,5.71-24.44,9.74-37.55,8.42
					C514.28,202.63,514.28,203.38,514.76,203.43L514.76,203.43z"/>
			</g>
		</g>
	</g>
	<g>
		<path class="st2" d="M566.77,285.05c0,0-7.78-10.85-8.92-10.94c-1.14-0.09-2.44,0.73-2.94,2.03c-0.49,1.29,0.99,14.23,0.99,14.23
			l10.87-4.91"/>
		<g>
			<g>
				<path class="st2" d="M537.66,331.7c-2.35,1.28-7.91,4.23-9.47,6.31c-1.57,2.08-2.02,5.13-0.57,7.29
					c1.44,2.14,4.35,2.89,6.88,2.41c2.53-0.48,4.74-1.96,6.78-3.53c2.04-1.57,8.21-7.13,8.21-7.13"/>
			</g>
			<g>
				<path class="st3" d="M529.29,340.26c-0.67,0.58-0.9,2.12-0.56,3.19c0.34,1.07,1.1,2.02,2.13,2.48c1.03,0.45,2.31,0.36,3.19-0.34
					c1.2-0.95,1.4-2.87,0.57-4.16C533.78,340.14,530.98,338.73,529.29,340.26"/>
			</g>
		</g>
		<g>
			<g>
				<path class="st2" d="M489.31,303.4c-2.35,1.28-7.91,4.23-9.47,6.31c-1.57,2.08-2.02,5.13-0.57,7.29
					c1.44,2.14,4.35,2.89,6.88,2.41c2.53-0.48,4.74-1.96,6.78-3.53s8.21-7.13,8.21-7.13"/>
			</g>
			<g>
				<path class="st3" d="M480,313.86c-0.19,0.68,0.25,2.02,0.88,2.81c0.63,0.79,1.48,1.35,2.3,1.43c0.82,0.07,1.59-0.38,1.88-1.22
					c0.39-1.14-0.23-2.79-1.25-3.61C482.79,312.45,480.48,312.09,480,313.86"/>
			</g>
		</g>
		<path class="st11" d="M536.62,319.15c0,0,51.25,13.35,53.11,17.33c0.61,1.29-0.56,7.11-39.53,3.36
			c-38.97-3.75-35.58-7.48-35.58-7.48L536.62,319.15z"/>
		<path class="st11" d="M576,283.14c4.2,3.85,0.25,8.02-3.04,11.51c-3.9,4.13-9.03,9.43-12.29,12.23
			c-5.84,5.03-58.27,33.83-64.28,35.68c-6.01,1.85-14.24-1.01-10.07-9.98c4.17-8.98,24.84-19,32.17-23.65
			c7.33-4.65,41.53-21.17,41.53-21.17l9.3-5.5C571.1,281.21,573.88,280.78,576,283.14L576,283.14L576,283.14z"/>
		<path class="st11" d="M593.72,294.87c0,0-1.52,3.74-5.27,3.91c-3.75,0.17-24.73-2.09-24.73-2.09l7.05-8.74L593.72,294.87z"/>
		<path class="st11" d="M517.64,311.74c0,0-30.09-21.12-31.81-22.23c-1.8-1.17-4.78,0.37-4.88,1.48
			c-1.11,12.13,12.55,34.43,14.91,31.61L517.64,311.74z"/>
		<path class="st11" d="M573.18,284.99c-1.21-0.06-13.97,8.59-14.64,7.78c-0.67-0.81,3.87-20.1,7.41-27.4
			c1.3-2.69,7.35-4.4,7.35-4.4L573.18,284.99z"/>
		<g>
			<g>
				<path class="st3" d="M584.18,339.79c-3.63,0.65-7.36,0.78-11.04,0.83c-4.74,0.06-9.49-0.11-14.22-0.4
					c-10.38-0.64-20.78-1.81-30.99-3.83c-4.46-0.88-8.93-1.91-13.2-3.48c-0.45-0.17-0.65,0.56-0.2,0.72
					c8.53,3.15,17.8,4.5,26.77,5.66c10.17,1.31,20.45,2.14,30.71,2.09c4.12-0.02,8.3-0.14,12.37-0.86
					C584.86,340.43,584.65,339.7,584.18,339.79L584.18,339.79z"/>
			</g>
		</g>
		<path class="st1" d="M572.94,274.11l-12.25,7.31l4.87-16.1c0,0,5.71-4.9,7.38-4.24V274.11z"/>
		<g>
			<g>
				<path class="st3" d="M488.55,328.73c6.91-7.16,16.31-11.8,24.93-16.54c8.33-4.57,16.76-8.95,25.2-13.31
					c4.26-2.2,8.52-4.38,12.79-6.56c1.91-0.98,3.83-1.96,5.74-2.94c0.78-0.4,2.05-0.71,2.37-1.56c0.63-1.66,0.9-3.54,1.35-5.25
					c0.78-2.94,1.59-5.88,2.46-8.8c0.8-2.67,1.54-5.51,2.8-8.01c1.26-2.5,4.64-3.76,7.2-4.43c-0.16-0.12-0.32-0.24-0.47-0.36
					c-0.03,7.01-0.07,14.02-0.1,21.03c0,1-0.01,2-0.01,2.99c0,0.48,0.75,0.48,0.75,0c0.03-7.01,0.07-14.02,0.1-21.03
					c0-1,0.01-2,0.01-2.99c0-0.25-0.24-0.42-0.47-0.36c-2.46,0.65-5.49,1.81-7.1,3.87c-1.16,1.48-1.69,3.63-2.27,5.39
					c-1.78,5.38-3.22,10.88-4.61,16.37c-0.1,0.37-0.14,1.24-0.39,1.54c-0.13,0.16-1.04,0.47-1.37,0.63
					c-1.01,0.52-2.01,1.03-3.02,1.55c-4.2,2.16-8.41,4.31-12.61,6.47c-8.73,4.49-17.45,9-26.08,13.68
					c-4.83,2.62-9.67,5.27-14.38,8.11c-4.75,2.86-9.47,5.98-13.34,9.99C487.69,328.55,488.22,329.08,488.55,328.73L488.55,328.73z"
					/>
			</g>
		</g>
		<g>
			<g>
				<path class="st3" d="M574.45,288.77c-3.8,0.55-5.44,4.49-6.51,7.68c-0.15,0.46,0.57,0.66,0.72,0.2
					c0.99-2.96,2.45-6.65,5.98-7.16C575.13,289.43,574.93,288.71,574.45,288.77L574.45,288.77z"/>
			</g>
		</g>
		<g>
			<g>
				<path class="st3" d="M541.39,318.3c-8.98,4.88-17.97,9.76-26.95,14.64c-0.42,0.23-0.05,0.88,0.38,0.65
					c8.98-4.88,17.97-9.76,26.95-14.64C542.19,318.72,541.81,318.07,541.39,318.3L541.39,318.3z"/>
			</g>
		</g>
		<g>
			<path class="st4" d="M540.8,314.11c-8.98,4.88-25.2,13.99-34.18,18.87l0.65-3.14l33.75-18.77L540.8,314.11z"/>
		</g>
		<path class="st4" d="M487.64,330.38c0,0-1.48,4.35,2.47,5.74c2.71,0.95,8.41-0.66,13.09-4.3l-0.55,3.13c0,0-6.08,4.24-11.41,3.89
			c-1.83-0.12-3.58-0.94-4.66-2.43c-0.5-0.7-0.88-1.57-0.78-2.57C486.17,332.5,486.91,331.29,487.64,330.38"/>
	</g>
</g>
</svg>
