<?xml version="1.0" encoding="utf-8"?>
<!-- Generator: Adobe Illustrator 23.0.5, SVG Export Plug-In . SVG Version: 6.00 Build 0)  -->
<svg version="1.1" id="Layer_1" xmlns="http://www.w3.org/2000/svg" xmlns:xlink="http://www.w3.org/1999/xlink" x="0px" y="0px"
	 viewBox="0 0 510.2 231.8" style="enable-background:new 0 0 510.2 231.8;" xml:space="preserve">
<style type="text/css">
	.st0{fill:#549EDE;}
	.st1{fill:#707070;}
	.st2{fill:#F1AC2D;}
	.st3{fill:#414141;}
	.st4{fill:#C6C6C6;}
	.st5{fill:#EBEBEB;}
	.st6{fill:#CADAE0;}
	.st7{fill:#E0E0E2;}
	.st8{fill:#C3C3C4;}
	.st9{fill:#3F5CA8;}
	.st10{fill:#FFFFFF;}
	.st11{fill:#868687;}
	.st12{opacity:0.8;}
	.st13{fill:#2E437A;}
	.st14{opacity:0.2;}
	.st15{fill:#FBFBFB;}
	.st16{fill:#F7F7F7;}
	.st17{fill:#F2F2F2;}
	.st18{fill:#EEEEEE;}
	.st19{fill:#EAEAEA;}
	.st20{fill:#E6E6E6;}
	.st21{fill:#E2E2E2;}
	.st22{fill:#DEDEDE;}
	.st23{fill:#D9D9D9;}
	.st24{fill:#D5D5D5;}
	.st25{fill:#D1D1D1;}
	.st26{fill:#CDCDCD;}
	.st27{fill:#C9C9C9;}
	.st28{fill:#C4C4C4;}
	.st29{fill:#C0C0C0;}
	.st30{fill:#BCBCBC;}
	.st31{fill:#B8B8B8;}
	.st32{fill:#B4B4B4;}
	.st33{fill:#B0B0B0;}
	.st34{fill:#ABABAB;}
	.st35{fill:#A7A7A7;}
	.st36{fill:#A3A3A3;}
	.st37{fill:#9F9F9F;}
	.st38{fill:#9B9B9B;}
	.st39{fill:#969696;}
	.st40{fill:#929292;}
	.st41{fill:#8E8E8E;}
	.st42{fill:#8A8A8A;}
	.st43{fill:#868686;}
	.st44{fill:#828282;}
	.st45{fill:#7D7D7D;}
	.st46{fill:#797979;}
	.st47{fill:#757575;}
	.st48{fill:#717171;}
	.st49{fill:#6D6D6D;}
	.st50{fill:#696969;}
	.st51{fill:#646464;}
	.st52{fill:#606060;}
	.st53{fill:#5C5C5C;}
	.st54{fill:#585858;}
	.st55{fill:#545454;}
	.st56{fill:#4F4F4F;}
	.st57{fill:#4B4B4B;}
	.st58{fill:#474747;}
	.st59{fill:#434343;}
	.st60{fill:#3F3F3F;}
	.st61{fill:#3B3B3B;}
	.st62{fill:#363636;}
	.st63{fill:#323232;}
	.st64{fill:#2E2E2E;}
	.st65{fill:#2A2A2A;}
	.st66{fill:#262626;}
	.st67{fill:#212121;}
	.st68{fill:#1D1D1D;}
	.st69{fill:#191919;}
	.st70{fill:#151515;}
	.st71{fill:#111111;}
	.st72{fill:#0D0D0D;}
	.st73{fill:#080808;}
	.st74{fill:#040404;}
	.st75{fill:#F0851D;}
	.st76{fill:#404040;}
	.st77{fill:#1A1A1A;}
	.st78{fill:#A8A8A8;}
	.st79{fill:#F5B400;}
	.st80{fill:#F7D46F;}
	.st81{fill:#1B4278;}
	.st82{fill:#3463A3;}
	.st83{fill:#11284A;}
	.st84{fill:#808080;}
	.st85{fill:#AB841C;}
	.st86{fill:#826415;}
	.st87{fill:#525252;}
	.st88{fill:#333333;}
	.st89{fill:#595959;}
	.st90{fill:#E6BA3A;}
	.st91{fill:#B3B3B3;}
	.st92{fill:#BFBFBF;}
	.st93{fill:#737373;}
	.st94{fill:#999999;}
	.st95{fill:#4D4D4D;}
	.st96{fill:#CCCCCC;}
	.st97{fill:#3D3D3D;}
	.st98{fill:#242424;}
	.st99{fill:#303030;}
	.st100{fill:#5E5E5E;}
	.st101{fill:#A37800;}
	.st102{fill:#7D5824;}
	.st103{fill:#AD8246;}
	.st104{fill:#D4A86B;}
	.st105{fill:#967442;}
	.st106{fill:#AD854C;}
	.st107{fill:#A39074;}
	.st108{fill:#877760;}
	.st109{fill:#573D18;}
	.st110{fill:#6CADE6;}
	.st111{fill:#448DCF;}
	.st112{fill:#88A335;}
	.st113{fill:#7D9626;}
	.st114{fill:#9CBA3C;}
	.st115{fill:#738F1A;}
	.st116{fill:#B4CF5E;}
	.st117{fill:#A5837B;}
	.st118{fill:#FFF5DC;}
	.st119{fill:#6C5044;}
	.st120{fill:#5076B5;}
	.st121{opacity:0.2;fill:#FFFFFF;enable-background:new    ;}
	.st122{opacity:0.15;enable-background:new    ;}
	.st123{opacity:0.2;enable-background:new    ;}
	.st124{fill:#5E5164;}
	.st125{fill:#E0C99A;}
	.st126{fill:#FFFEE3;}
	.st127{fill:#96766A;}
	.st128{fill:#7F7F7F;}
	.st129{fill:#8D7169;}
	.st130{fill:#4F4555;}
	.st131{fill:#ADCC49;}
	.st132{fill:#7F9C22;}
	.st133{fill:#654032;}
	.st134{fill:#C7E36D;}
	.st135{fill:#96B23F;}
	.st136{fill:#90AA3B;}
	.st137{fill:#8AA52F;}
	.st138{fill:#BAD75E;}
	.st139{fill:#829E28;}
	.st140{fill:#747474;}
	.st141{fill:#FFB729;}
	.st142{opacity:0.15;}
	.st143{fill:#F9F9F9;}
	.st144{fill:#F3F3F3;}
	.st145{fill:#ECECEC;}
	.st146{fill:#E0E0E0;}
	.st147{fill:#DADADA;}
	.st148{fill:#D3D3D3;}
	.st149{fill:#C7C7C7;}
	.st150{fill:#C1C1C1;}
	.st151{fill:#BBBBBB;}
	.st152{fill:#AEAEAE;}
	.st153{fill:#A2A2A2;}
	.st154{fill:#959595;}
	.st155{fill:#8F8F8F;}
	.st156{fill:#898989;}
	.st157{fill:#838383;}
	.st158{fill:#7C7C7C;}
	.st159{fill:#767676;}
	.st160{fill:#6A6A6A;}
	.st161{fill:#5D5D5D;}
	.st162{fill:#575757;}
	.st163{fill:#515151;}
	.st164{fill:#444444;}
	.st165{fill:#3E3E3E;}
	.st166{fill:#383838;}
	.st167{fill:#2C2C2C;}
	.st168{fill:#252525;}
	.st169{fill:#1F1F1F;}
	.st170{fill:#131313;}
	.st171{fill:#0C0C0C;}
	.st172{fill:#060606;}
	.st173{fill:#D14015;}
	.st174{fill:#FB4D1B;}
	.st175{fill:#C1955D;}
	.st176{fill:#F7D5A8;}
	.st177{fill:#A73110;}
	.st178{fill:#15417D;}
	.st179{fill:#9E9E9E;}
	.st180{fill:#6C6C6C;}
	.st181{clip-path:url(#SVGID_2_);fill:#3165AD;}
	.st182{clip-path:url(#SVGID_4_);fill:#3165AD;}
	.st183{clip-path:url(#SVGID_6_);fill:#3165AD;}
	.st184{fill:#B2B2B2;}
	.st185{fill:#F6F6F6;}
	.st186{fill:#E9AF64;}
	.st187{fill:#B07B42;}
	.st188{fill:#F3C991;}
	.st189{fill:#C39057;}
	.st190{fill:#FFE7C7;}
	.st191{fill:#4F4F4B;}
	.st192{fill:#EB3C14;}
	.st193{fill:#FFDDD1;}
	.st194{fill:#B52E0F;}
	.st195{fill:#99260B;}
	.st196{fill:#855E32;}
	.st197{fill:#FFF9D7;}
	.st198{clip-path:url(#SVGID_8_);fill:#3165AD;}
	.st199{clip-path:url(#SVGID_10_);fill:#3165AD;}
	.st200{clip-path:url(#SVGID_12_);fill:#3165AD;}
</style>
<rect y="0" class="st0" width="510.2" height="231.8"/>
<g>
	<rect y="193.2" class="st1" width="510.2" height="38.6"/>
	<g>
		<rect y="208.9" class="st2" width="510.2" height="2.4"/>
		<rect y="210.8" class="st2" width="510.2" height="2.4"/>
	</g>
</g>
<g>
	<g>
		<rect y="190.2" class="st3" width="26.9" height="3"/>
		<rect x="26.9" y="190.2" class="st4" width="26.9" height="3"/>
		<rect x="53.7" y="190.2" class="st3" width="26.8" height="3"/>
		<rect x="80.6" y="190.2" class="st4" width="26.8" height="3"/>
		<rect x="107.4" y="190.2" class="st3" width="26.9" height="3"/>
		<rect x="134.3" y="190.2" class="st4" width="26.9" height="3"/>
		<rect x="161.1" y="190.2" class="st3" width="26.9" height="3"/>
		<rect x="188" y="190.2" class="st4" width="26.9" height="3"/>
		<rect x="214.8" y="190.2" class="st3" width="26.9" height="3"/>
		<rect x="241.7" y="190.2" class="st4" width="26.9" height="3"/>
		<rect x="268.5" y="190.2" class="st3" width="26.9" height="3"/>
	</g>
	<g>
		<rect x="295.4" y="190.2" class="st4" width="26.9" height="3"/>
		<rect x="322.3" y="190.2" class="st3" width="26.9" height="3"/>
		<rect x="349.1" y="190.2" class="st4" width="26.9" height="3"/>
		<rect x="376" y="190.2" class="st3" width="26.9" height="3"/>
		<rect x="402.8" y="190.2" class="st4" width="26.9" height="3"/>
		<rect x="429.7" y="190.2" class="st3" width="26.9" height="3"/>
		<rect x="456.5" y="190.2" class="st4" width="26.9" height="3"/>
		<rect x="483.4" y="190.2" class="st3" width="26.9" height="3"/>
	</g>
</g>
<g>
	<g>
		<rect y="228.1" class="st3" width="26.9" height="3"/>
		<rect x="26.9" y="228.1" class="st4" width="26.9" height="3"/>
		<rect x="53.7" y="228.1" class="st3" width="26.8" height="3"/>
		<rect x="80.6" y="228.1" class="st4" width="26.8" height="3"/>
		<rect x="107.4" y="228.1" class="st3" width="26.9" height="3"/>
		<rect x="134.3" y="228.1" class="st4" width="26.9" height="3"/>
		<rect x="161.1" y="228.1" class="st3" width="26.9" height="3"/>
		<rect x="188" y="228.1" class="st4" width="26.9" height="3"/>
		<rect x="214.8" y="228.1" class="st3" width="26.9" height="3"/>
		<rect x="241.7" y="228.1" class="st4" width="26.9" height="3"/>
		<rect x="268.5" y="228.1" class="st3" width="26.9" height="3"/>
	</g>
	<g>
		<rect x="295.4" y="228.1" class="st4" width="26.9" height="3"/>
		<rect x="322.3" y="228.1" class="st3" width="26.9" height="3"/>
		<rect x="349.1" y="228.1" class="st4" width="26.9" height="3"/>
		<rect x="376" y="228.1" class="st3" width="26.9" height="3"/>
		<rect x="402.8" y="228.1" class="st4" width="26.9" height="3"/>
		<rect x="429.7" y="228.1" class="st3" width="26.9" height="3"/>
		<rect x="456.5" y="228.1" class="st4" width="26.9" height="3"/>
		<rect x="483.4" y="228.1" class="st3" width="26.9" height="3"/>
	</g>
</g>
<g>
	<g>
		<path class="st110" d="M291.6,46.1c-0.4-2.5-3-4.5-6-4.5c-3.1,0-5.7,2-6.1,4.6c-3.6,0.5-6.2,2.6-6.2,5c0,2.9,3.6,5.2,8,5.2
			c1.8,0,3.4-0.4,4.7-1c1,0.5,2.1,0.7,3.4,0.7c3.6,0,6.6-2.3,6.6-5.2C296,48.7,294.1,46.8,291.6,46.1z"/>
		<path class="st110" d="M303.8,61c-0.2-1.3-1.6-2.4-3.2-2.4c-1.7,0-3,1.1-3.2,2.4c-1.9,0.3-3.3,1.4-3.3,2.7c0,1.5,1.9,2.8,4.2,2.8
			c0.9,0,1.8-0.2,2.5-0.5c0.5,0.3,1.1,0.4,1.8,0.4c1.9,0,3.5-1.2,3.5-2.8C306.1,62.4,305.2,61.4,303.8,61z"/>
	</g>
	<g>
		<rect x="352.2" y="71.8" class="st110" width="5" height="60.8"/>
		<rect x="483.7" y="71.3" class="st110" width="19.6" height="77.8"/>
		<rect x="417.8" y="87.9" class="st110" width="17.9" height="42.3"/>
		<rect x="444.6" y="73" class="st110" width="25.7" height="57.3"/>
		<g>
			<rect x="325.4" y="69.4" class="st110" width="21.3" height="77.3"/>
			<rect x="338.2" y="66.7" class="st110" width="5" height="3.9"/>
			<rect x="327.3" y="60" class="st110" width="4.1" height="10.3"/>
		</g>
		<g>
			<g>
				<rect x="360.9" y="88.4" class="st110" width="27.7" height="64.7"/>
				<polygon class="st110" points="384.6,88.9 382.7,84.8 375.6,84.8 373.9,84.8 366.8,84.8 364.9,88.9 374.7,88.8 				"/>
			</g>
			<rect x="372.2" y="70.6" class="st110" width="5" height="15.9"/>
			<g>
				<rect x="361.5" y="85.8" class="st110" width="3.1" height="5.7"/>
				<rect x="384.8" y="85.8" class="st110" width="3.1" height="5.7"/>
			</g>
		</g>
		<rect x="456.6" y="69.6" class="st110" width="11" height="4.1"/>
		<rect x="486.8" y="67.3" class="st110" width="13.4" height="5.5"/>
		<rect x="489.1" y="60.4" class="st110" width="8.8" height="8.2"/>
		<g>
			<rect x="290.9" y="83.5" class="st110" width="31" height="73.1"/>
			<rect x="295.8" y="79.7" class="st110" width="21.1" height="5.2"/>
			<rect x="299.4" y="73.3" class="st110" width="13.9" height="7.7"/>
		</g>
		<rect x="420.1" y="77.5" class="st110" width="5.5" height="15.2"/>
		<rect x="421.5" y="66" class="st110" width="1.8" height="15.2"/>
		<g>
			<rect x="393.6" y="74" class="st110" width="17.2" height="65.2"/>
			<rect x="397.6" y="68.6" class="st110" width="9.5" height="6.2"/>
			<rect x="399.2" y="60.8" class="st110" width="6.2" height="9.3"/>
			<rect x="401.5" y="50.6" class="st110" width="2.3" height="14.4"/>
		</g>
		<g>
			<g>
				<rect x="264.8" y="77.2" class="st110" width="23.7" height="77.3"/>
				<polygon class="st110" points="285.1,77.7 283.4,74.2 277.4,74.2 275.9,74.2 269.9,74.2 268.2,77.7 276.6,77.6 				"/>
			</g>
			<rect x="277.1" y="71.8" class="st110" width="4.8" height="2.6"/>
		</g>
	</g>
	<g>
		<g>
			<g>
				<path class="st110" d="M441.4,39.3c0-0.7,0.2-1.3,0.5-1.9c-0.4-0.6-0.8-1.4-0.8-2c-1.4,1-1.9,3.8,0.3,5.8c0.1,0,0.2-0.1,0.3-0.1
					c0.1,0,0.1,0,0.2-0.1l0,0c0.1,0,0.1-0.1,0.2-0.1C441.7,40.5,441.4,39.9,441.4,39.3z"/>
				<path class="st110" d="M442.1,40.9c0.4-0.2,0.7-0.4,1-0.7c-0.2-0.3-0.2-0.7-0.2-1.1c0-0.4-0.4-1-0.6-1.3
					c-0.1-0.1-0.2-0.2-0.3-0.4C441.3,38.6,441.3,40,442.1,40.9z"/>
			</g>
			<g>
				<path class="st110" d="M443,42.2c0.2-0.1,0.5-0.3,0.7-0.4c0.2-0.1,0.4-0.4,0.4-0.6c0-0.1,0-0.3,0-0.4c0.1-0.3,0.4,0.1,0.4,0.1
					c0.1-0.1,0.1-0.3,0.1-0.5c0.1-0.2-0.1-0.6-0.3-0.6c-0.4-0.1-0.7,0.1-0.9,0.4c-0.3,0.4-0.9,0.7-1.4,0.9c-0.2,0.1-0.5,0.2-0.6,0.4
					c-0.1,0.1,0,0.4,0.1,0.5c0.1,0.1,0.3,0.2,0.5,0.2c0.4,0.1,0.7,0.1,1.1,0C442.9,42.2,443,42.2,443,42.2z M444.2,40.2
					c0-0.1,0-0.1,0-0.2c0.1,0,0.1,0,0.2,0c0,0,0,0.1,0,0.1c0,0,0,0,0,0c0,0-0.1,0-0.1,0C444.2,40.2,444.2,40.2,444.2,40.2
					c0.1,0,0.1,0.1,0.2,0.1C444.3,40.3,444.2,40.3,444.2,40.2z"/>
			</g>
			<path class="st110" d="M443.5,42c-0.1,0.1-0.2,0.1-0.4,0.2c0,0.1,0,0.1,0.1,0.2c-0.1-0.1,0-0.2,0.1-0.2c0.1,0,0,0.2-0.1,0.3
				C443.6,42.4,443.7,42.1,443.5,42z"/>
			<path class="st110" d="M443,42.3C443,42.3,442.9,42.3,443,42.3c-0.2,0.1-0.3,0.1-0.4,0.1c0,0.1,0,0.2,0.1,0.2c0,0,0-0.2,0.1-0.2
				c0.1,0.1,0,0.3-0.1,0.4C442.8,42.7,443,42.5,443,42.3C443,42.3,443,42.3,443,42.3z"/>
			<path class="st110" d="M441.8,42.3c-0.2,0-0.4-0.1-0.5-0.2c-0.2-0.1-0.2-0.4-0.1-0.6c0-0.1,0-0.1,0.1-0.1c-0.5-0.1-1-0.3-1.4-0.5
				c-0.6,0.9-0.2,1.6,0.4,2c0.6,0.4,1.4,0.4,1.8,0c0.1-0.2,0-0.4,0-0.5C441.9,42.4,441.9,42.3,441.8,42.3z"/>
			<path class="st110" d="M447.8,38.3c-0.3,0.1-1,0.2-1.5,0.4c-0.4,0.2-1.6,0.7-2.2,1c0,0,0.1,0,0.1,0c0.1,0,0.3,0.1,0.3,0.3
				c0.1,0.1,0.1,0.3,0,0.4c0,0,0,0.1,0,0.2C446.1,40.2,447.7,39.5,447.8,38.3z"/>
		</g>
		<g>
			<path class="st110" d="M463.2,42.4c0.4-0.3,0.5-0.5,0.7-0.7c0.1-0.2,0.4-0.1,0.5,0c0-0.2-0.1-0.3-0.1-0.4c0-0.2-0.3-0.4-0.5-0.4
				s-0.4,0.2-0.6,0.2c-0.2,0-0.3-0.1-0.4-0.2c-0.3-0.2-0.5-1-0.3-1.8s0.6-0.9,0.9-1.5c0.3-0.5,0-2.2,0.5-2.8
				c-1.6,0.2-3.9,4.5-2.7,6.6c-0.9,0.3-2.6,0-3.1,0.1c-0.2,0.6,0,1.7,0.8,1.9c0.5-0.5,1.2-1.1,1.6-1.2
				C461.5,43,462.6,42.8,463.2,42.4z M463.8,41.2c-0.1,0-0.1-0.1,0-0.2c0-0.1,0.1-0.1,0.2,0c0,0,0.1,0.1,0.1,0.1
				c-0.1-0.1-0.1,0-0.1,0C463.9,41.2,463.9,41.2,463.8,41.2c0.1,0,0.1,0,0.1,0C463.9,41.3,463.9,41.3,463.8,41.2z"/>
			<path class="st110" d="M460.8,41.3c-0.3-0.6-0.3-1.5-0.1-2.5c-0.6-0.8-1.5-2.1-1.7-3.4c-0.7,1.8,0,3.8,0.7,4.8
				C460.1,40.6,460.5,41.1,460.8,41.3z"/>
		</g>
		<g>
			<path class="st110" d="M454.3,49.1c-0.1,0-0.3,0.3-0.4,0.6c0.1-0.3,0.1-0.4,0-0.4c-0.1,0-0.2,0.3-0.3,0.4c-0.1,0-0.5,0.6-0.6,0.8
				c-0.1,0.1-0.8,0.7-1,0.7c-0.2,0.1-0.2,0.1-0.3,0.2c-0.1,0.1-0.7,0.4-0.9,0.5c-0.2,0.1-0.6,0.3-0.7,0.4c-0.1,0.1-0.3-0.1-0.4-0.4
				c-0.2-0.3-0.3-0.6-0.4-0.7c-0.1-0.2-0.4-0.3-0.5-0.4c0,0,0,0.1,0,0.1c-0.2-0.2-1.6-1.1-1.9-1.5c-0.3-0.4-0.4-0.5-0.5-0.5
				c-0.1,0,0.2,0.5,0.2,0.5c0.1,0.1,0.6,0.5,0.7,0.5c-0.4-0.2-1.3-0.8-1.4-0.8c-0.1,0,0,0.2,0.1,0.3c0.1,0.1,0.5,0.4,0.6,0.5
				c-0.3-0.1-0.8-0.4-0.8-0.4c-0.1,0.1,0,0.2,0.1,0.3s0.5,0.4,0.6,0.5c-0.4-0.2-0.7-0.3-0.7-0.1s0.4,0.4,0.6,0.5
				c-0.4-0.1-0.5,0.1-0.4,0.2c0.1,0.1,0.2,0.1,0.3,0.1c-0.2,0.1-0.1,0.3,0.1,0.3c-0.2,0.1,0,0.3,0.1,0.3c-0.1,0.2,0.1,0.3,0.2,0.2
				c0,0.1,0.2,0.1,0.2,0.1c0,0.1,0.1,0.1,0.1,0.1c-0.1,0.1,0,0.2,0.1,0.2c-0.1,0.1,0,0.2,0.1,0.2c0,0.1,0,0.2,0.1,0.2
				c0,0.1,0,0.2,0.1,0.2c0,0,0,0.2,0.1,0.2c-0.4-0.1-1.1-0.3-1.3-0.4c-0.2-0.1-0.3,0.1-0.2,0.2c-0.3,0-0.4,0.1-0.3,0.3
				c-0.3,0-0.3,0.3-0.2,0.4c-0.2,0.1-0.1,0.3,0,0.4c-0.2,0.2,0,0.3,0.1,0.3c0,0.2,0.2,0.2,0.3,0.2c0,0.1,0.2,0.2,0.4,0.1
				c0,0.2,0.2,0.3,0.3,0.2c0.1,0.2,0.4,0.1,0.5,0c0,0.2,0.2,0.1,0.3,0c0,0.1,0.2,0,0.4,0c0.1-0.1,0.6-0.1,0.6-0.2
				c0.1-0.1,0.5-0.1,0.6-0.2c0.1-0.1,0.2-0.2,0.5-0.2s0.8-0.3,1-0.3c0.1-0.1,0.5-0.1,0.7-0.2c0.2-0.1,0.5-0.4,0.5-0.4
				c0.1,0,0.1-0.1,0.2-0.1c0,0,0.1,0,0.2-0.1c0.1,0,0.2,0,0.1,0c0,0,0-0.1-0.1-0.2c-0.1-0.1-0.2-0.1-0.2-0.2s0-0.2-0.2-0.2
				c-0.1,0-0.2,0-0.4,0c0.1-0.2,0.5-0.4,0.6-0.5c0.1-0.1,0.5-0.1,0.7-0.3c0.2-0.2,0.2-0.3,0.3-0.3c0.3-0.1,0.9-0.6,1.2-1
				C454.3,49.8,454.5,49.1,454.3,49.1z M451.4,52.5C451.4,52.5,451.5,52.6,451.4,52.5c0.1,0.2,0.1,0.2,0,0.2s-0.1,0-0.1-0.1
				C451.3,52.6,451.3,52.5,451.4,52.5z"/>
			<path class="st110" d="M451.4,52.7C451.4,52.7,451.4,52.6,451.4,52.7c0.1-0.1,0-0.1,0-0.1S451.3,52.6,451.4,52.7
				C451.3,52.6,451.3,52.7,451.4,52.7z"/>
		</g>
		<g>
			<path class="st110" d="M427.2,45.1c0,0-0.1,0.2-0.2,0.3c0-0.1,0-0.2,0-0.2s-0.1,0.2-0.2,0.2c0,0-0.2,0.3-0.3,0.4
				c-0.1,0.1-0.4,0.3-0.5,0.4c-0.1,0-0.1,0.1-0.2,0.1c-0.1,0-0.3,0.2-0.5,0.2c-0.1,0.1-0.3,0.1-0.4,0.2c0,0-0.1,0-0.2-0.2
				c-0.1-0.2-0.1-0.3-0.2-0.4c-0.1-0.1-0.2-0.1-0.3-0.2c0,0,0,0,0,0.1c-0.1-0.1-0.8-0.6-1-0.8c-0.2-0.2-0.2-0.3-0.3-0.2
				c0,0,0.1,0.2,0.1,0.3c0,0,0.3,0.2,0.3,0.3c-0.2-0.1-0.7-0.4-0.7-0.4c0,0,0,0.1,0,0.1c0.1,0.1,0.3,0.2,0.3,0.3
				c-0.2-0.1-0.4-0.2-0.4-0.2c0,0,0,0.1,0.1,0.1c0.1,0.1,0.2,0.2,0.3,0.2c-0.2-0.1-0.4-0.1-0.4-0.1c0,0.1,0.2,0.2,0.3,0.2
				c-0.2,0-0.3,0-0.2,0.1c0.1,0.1,0.1,0.1,0.1,0.1c-0.1,0-0.1,0.2,0,0.2c-0.1,0,0,0.1,0,0.1c-0.1,0.1,0.1,0.1,0.1,0.1
				c0,0,0.1,0.1,0.1,0c0,0,0,0,0.1,0c0,0.1,0,0.1,0.1,0.1c0,0.1,0,0.1,0,0.1c0,0.1,0,0.1,0.1,0.1c0,0,0,0.1,0.1,0.1
				c0,0,0,0.1,0.1,0.1c-0.2-0.1-0.6-0.2-0.7-0.2c-0.1-0.1-0.2,0.1-0.1,0.1c-0.1,0-0.2,0.1-0.1,0.2c-0.2,0-0.2,0.2-0.1,0.2
				c-0.1,0.1-0.1,0.2,0,0.2c-0.1,0.1,0,0.2,0.1,0.2c0,0.1,0.1,0.1,0.1,0.1c0,0.1,0.1,0.1,0.2,0.1c0,0.1,0.1,0.1,0.2,0.1
				c0,0.1,0.2,0.1,0.3,0c0,0.1,0.1,0.1,0.2,0c0,0.1,0.1,0,0.2,0c0.1,0,0.3,0,0.3-0.1c0,0,0.3,0,0.3-0.1c0-0.1,0.1-0.1,0.3-0.1
				s0.4-0.1,0.5-0.2c0.1,0,0.2-0.1,0.3-0.1c0.1-0.1,0.2-0.2,0.3-0.2c0,0,0.1,0,0.1,0c0,0,0.1,0,0.1,0c0,0,0.1,0,0.1,0
				c0,0,0,0-0.1-0.1c-0.1,0-0.1-0.1-0.1-0.1c0,0,0-0.1-0.1-0.1c-0.1,0-0.1,0-0.2,0c0.1-0.1,0.3-0.2,0.3-0.3c0-0.1,0.2-0.1,0.3-0.2
				s0.1-0.1,0.1-0.2c0.1-0.1,0.5-0.3,0.6-0.5C427.1,45.4,427.2,45.1,427.2,45.1z M425.7,46.8C425.7,46.8,425.7,46.8,425.7,46.8
				c0.1,0.1,0,0.1,0,0.1C425.6,46.9,425.6,46.9,425.7,46.8C425.6,46.8,425.6,46.8,425.7,46.8z"/>
			<path class="st110" d="M425.6,46.9C425.7,46.9,425.7,46.8,425.6,46.9C425.7,46.8,425.7,46.8,425.6,46.9
				C425.6,46.8,425.6,46.8,425.6,46.9C425.6,46.8,425.6,46.9,425.6,46.9z"/>
		</g>
	</g>
</g>
<g>
	<g>
		<rect x="236.6" y="159.3" class="st111" width="268.5" height="30.3"/>
	</g>
	<g>
		<rect x="236.6" y="145.4" class="st111" width="268.5" height="15.4"/>
		<g>
			<rect x="470.8" y="83" class="st111" width="21.2" height="71.2"/>
			<rect x="472.7" y="78.4" class="st111" width="17.5" height="7.1"/>
			<rect x="474.3" y="74.9" class="st111" width="14.4" height="5.3"/>
			<rect x="475.8" y="72.5" class="st111" width="11.2" height="4.5"/>
			<rect x="469.1" y="134.1" class="st111" width="24.6" height="20.2"/>
			<rect x="466.2" y="139.5" class="st111" width="30.4" height="13.6"/>
			<rect x="479.4" y="56.4" class="st111" width="4.1" height="18"/>
			<g>
				<g>
					<polygon class="st111" points="480,67.9 480,64.6 478.6,65.6 478.6,67.9 					"/>
					<polygon class="st111" points="479.3,70.5 479.3,67.2 478,68.2 478,70.5 					"/>
					<polygon class="st111" points="478.3,72.8 478.3,69.5 476.9,70.5 476.6,73.1 					"/>
					<polygon class="st111" points="480.2,66.2 479,66.4 478.8,69.6 478.2,69.7 478.2,73.2 481.2,72.3 					"/>
				</g>
				<g>
					<polygon class="st111" points="482.9,67.9 482.9,64.6 484.2,65.6 484.2,67.9 					"/>
					<polygon class="st111" points="483.6,70.5 483.5,67.2 484.9,68.2 484.9,70.5 					"/>
					<polygon class="st111" points="484.6,72.8 484.5,69.5 485.9,70.5 486.3,73.1 					"/>
					<polygon class="st111" points="482.6,66.2 483.8,66.4 484,69.6 484.7,69.7 484.7,73.2 481.7,72.3 					"/>
				</g>
			</g>
			<rect x="480.8" y="41.7" class="st111" width="1.3" height="21.3"/>
			<path class="st111" d="M483.3,45.9c0,0.2-0.2,0.4-0.4,0.4h-3c-0.2,0-0.4-0.2-0.4-0.4v-0.1c0-0.2,0.2-0.4,0.4-0.4h3
				C483.1,45.5,483.3,45.7,483.3,45.9L483.3,45.9z"/>
			<path class="st111" d="M481.5,32.8c0,0-0.2,0.5-0.2,0.5v16h0.4v-16L481.5,32.8z"/>
			<path class="st111" d="M482,34h-1.2c0,0-0.1,0-0.1-0.1s0-0.1,0.1-0.1h1.2C482.1,33.9,482.1,33.9,482,34C482.1,34,482.1,34,482,34
				z"/>
			<path class="st111" d="M482,34.8h-1.2c0,0-0.1,0-0.1-0.1s0-0.1,0.1-0.1h1.2C482.1,34.7,482.1,34.7,482,34.8
				C482.1,34.8,482.1,34.8,482,34.8z"/>
			<path class="st111" d="M482,35.7h-1.2c0,0-0.1,0-0.1-0.1s0-0.1,0.1-0.1h1.2C482.1,35.5,482.1,35.5,482,35.7
				C482.1,35.6,482.1,35.7,482,35.7z"/>
			<path class="st111" d="M482,36.5h-1.2c0,0-0.1,0-0.1-0.1s0-0.1,0.1-0.1h1.2C482.1,36.3,482.1,36.3,482,36.5
				C482.1,36.4,482.1,36.5,482,36.5z"/>
			<path class="st111" d="M482,37.3h-1.2c0,0-0.1,0-0.1-0.1s0-0.1,0.1-0.1h1.2C482.1,37.1,482.1,37.2,482,37.3
				C482.1,37.3,482.1,37.3,482,37.3z"/>
			<path class="st111" d="M482,38.1h-1.2c0,0-0.1,0-0.1-0.1s0-0.1,0.1-0.1h1.2C482.1,38,482.1,38,482,38.1
				C482.1,38.1,482.1,38.1,482,38.1z"/>
			<path class="st111" d="M482,38.9h-1.2c0,0-0.1,0-0.1-0.1s0-0.1,0.1-0.1h1.2C482.1,38.8,482.1,38.8,482,38.9
				C482.1,38.9,482.1,38.9,482,38.9z"/>
		</g>
		<rect x="396.7" y="114.6" class="st111" width="28.5" height="34.7"/>
		<rect x="493.7" y="103.4" class="st111" width="9.2" height="44.5"/>
		<rect x="236.6" y="116.6" class="st111" width="11.9" height="34.6"/>
		<rect x="450.4" y="94.2" class="st111" width="18.9" height="55.7"/>
		<rect x="385.9" y="117.5" class="st111" width="15.3" height="34.3"/>
		<g>
			<path class="st111" d="M243,147.5V77c0-10.2,9.2-16.3,13.9-16.3v86L243,147.5z"/>
			<path class="st111" d="M275.4,148V88.8c0-10.2-9.2-16.3-13.9-16.3v74.6L275.4,148z"/>
			<g>
				<rect x="257.6" y="104.5" class="st111" width="3.2" height="42.4"/>
				<rect x="256.8" y="103.7" class="st111" width="4.7" height="1.1"/>
				<rect x="258.1" y="83.6" class="st111" width="2.2" height="21.4"/>
				<rect x="257.4" y="82.9" class="st111" width="3.6" height="0.9"/>
				<rect x="258.4" y="66" class="st111" width="1.6" height="18.4"/>
				<rect x="257.9" y="65.4" class="st111" width="2.5" height="0.9"/>
				<rect x="258.7" y="54.6" class="st111" width="1" height="12"/>
				<rect x="258.3" y="54.4" class="st111" width="1.8" height="0.6"/>
				<rect x="259.1" y="43.1" class="st111" width="0.2" height="12.9"/>
			</g>
		</g>
		<rect x="250.6" y="126.5" class="st111" width="9.9" height="23.5"/>
		<g>
			<g>
				<rect x="429" y="77.5" class="st111" width="20.8" height="74.2"/>
				<rect x="426.4" y="116.5" class="st111" width="26.1" height="36.2"/>
			</g>
			<rect x="442" y="74.4" class="st111" width="4.9" height="4.6"/>
			<rect x="431.3" y="66.5" class="st111" width="4" height="12.2"/>
		</g>
		<g>
			<g>
				<rect x="394.2" y="90.6" class="st111" width="27" height="44.4"/>
				<polygon class="st111" points="417.3,91.1 415.4,87.1 408.6,87.1 406.9,87.1 400,87.1 398.1,91.1 407.7,91 				"/>
			</g>
			<rect x="405.3" y="73.2" class="st111" width="4.9" height="15.5"/>
			<g>
				<rect x="394.8" y="88.1" class="st111" width="3" height="5.6"/>
				<rect x="417.6" y="88.1" class="st111" width="3" height="5.6"/>
			</g>
		</g>
		<g>
			<rect x="330.5" y="116" class="st111" width="4.9" height="31.9"/>
			<rect x="365.3" y="107" class="st111" width="18.4" height="39.2"/>
			<rect x="337.8" y="108.6" class="st111" width="16.2" height="41.3"/>
			<rect x="352.2" y="119.7" class="st111" width="10.4" height="29.9"/>
			<rect x="319.5" y="131.6" class="st111" width="9.5" height="18"/>
			<rect x="304.3" y="117.3" class="st111" width="14.2" height="31.8"/>
			<rect x="348.1" y="103.5" class="st111" width="3.4" height="6.4"/>
			<rect x="310.9" y="115.4" class="st111" width="6.1" height="2.3"/>
			<rect x="368.2" y="104.3" class="st111" width="12.5" height="3.7"/>
			<rect x="370.3" y="99.7" class="st111" width="8.2" height="5.5"/>
		</g>
		<rect x="251.9" y="120.7" class="st111" width="3" height="8.4"/>
		<rect x="252.7" y="114.3" class="st111" width="1" height="8.4"/>
		<g>
			<rect x="278.7" y="111.4" class="st111" width="22.7" height="38.3"/>
			<rect x="283.8" y="108.3" class="st111" width="12.5" height="3.7"/>
			<rect x="286" y="103.7" class="st111" width="8.2" height="5.5"/>
			<rect x="289" y="97.7" class="st111" width="3" height="8.4"/>
		</g>
		<rect x="238.5" y="113.5" class="st111" width="6.7" height="3.8"/>
	</g>
</g>
<g>
	<g>
		<g>
			<path class="st112" d="M478.1,187.5c-1-0.8-1.7-1.9-1.9-3.1c-0.3-1.2-0.2-2.5,0.3-3.6c0.3-0.7,0.8-1.3,1.5-1.7
				c0.7-0.3,1.6-0.3,2.1,0.3c0.7-0.6,1.7-0.8,2.5-0.3c0.8,0.4,1.3,1.4,1.2,2.3c0.8,0.3,1.4,1,1.6,1.9c0.2,0.8,0,1.7-0.5,2.5
				c-0.4,0.7-1.1,1.3-1.8,1.8L478.1,187.5L478.1,187.5z"/>
			<path class="st113" d="M485.5,183.2c-0.2-0.8-0.8-1.6-1.6-1.9c0.1-0.9-0.4-1.9-1.2-2.3c-0.3-0.2-0.6-0.2-1-0.2
				c0,0,0.1,0.1,0.1,0.1c0.8,0.5,1.2,1.6,0.9,2.5c0.8,0.4,1.3,1.2,1.4,2.1c0.1,0.9-0.2,1.8-0.7,2.5c-0.4,0.6-0.9,1-1.4,1.4h1.2
				c0.7-0.5,1.3-1.1,1.8-1.8C485.4,184.9,485.6,184,485.5,183.2z"/>
		</g>
		<g>
			<path class="st114" d="M468.2,187.5c-1.8-0.7-2.7-3-1.7-4.7c0.7-1.3,2.4-1.9,3.8-1.4c0.4-1.6,2-2.7,3.6-2.7
				c1.6,0,3.2,1.2,3.6,2.8c1.5-0.4,3.2,0.4,3.8,1.8c0.6,1.4,0.1,3.5-1.2,4.3H468.2z"/>
			<path class="st115" d="M481.3,183.2c-0.5-1-1.5-1.7-2.6-1.8c0.6,0.3,1.1,0.8,1.4,1.5c0.7,1.5-0.1,3.5-1.5,4.7h1.5
				C481.4,186.6,482,184.6,481.3,183.2z"/>
			<path class="st116" d="M467.5,187c-0.5-1-0.6-2.2,0-3.1c0.7-1.3,2.4-1.9,3.8-1.4c0.4-1.6,2-2.7,3.6-2.7c0.9,0,1.7,0.3,2.4,0.9
				c-0.6-1.2-1.9-2-3.3-2c-1.6,0-3.2,1.2-3.6,2.7c-1.4-0.5-3,0.1-3.8,1.4C465.7,184.2,466.3,186.1,467.5,187z"/>
		</g>
	</g>
	<g>
		<rect x="350.3" y="180.4" class="st117" width="81.8" height="6.9"/>
		<g>
			<rect x="350.9" y="158.2" class="st118" width="28.6" height="22.1"/>
			<g>
				<rect x="356.1" y="177.2" class="st117" width="18.2" height="1"/>
				<path class="st119" d="M357,162.6v14.6h16.5v-14.6H357z M364.4,175.8h-6v-11.9h6V175.8z M372.1,175.8h-6v-11.9h6V175.8z"/>
				<g>
					<g>
						<rect x="358.4" y="163.9" class="st120" width="6" height="11.9"/>
						<path class="st121" d="M358.4,175.5l6-6.3v-1l-6,6.3V175.5z M358.4,170.6v2.6l6-6.3v-2.6L358.4,170.6z"/>
					</g>
					<g>
						<polygon class="st121" points="364.4,163.9 364.4,175.8 358.4,175.8 358.1,176.1 364.7,176.1 364.7,163.7 						"/>
						<polygon class="st122" points="358.4,175.8 358.4,163.9 364.4,163.9 364.7,163.7 358.1,163.7 358.1,176.1 						"/>
					</g>
				</g>
				<g>
					<g>
						<rect x="366.1" y="163.9" class="st120" width="6" height="11.9"/>
						<path class="st121" d="M366.1,175.5l6-6.3v-1l-6,6.3V175.5z M366.1,170.6v2.6l6-6.3v-2.6L366.1,170.6z"/>
					</g>
					<g>
						<polygon class="st121" points="372.1,163.9 372.1,175.8 366.1,175.8 365.8,176.1 372.4,176.1 372.4,163.7 						"/>
						<polygon class="st122" points="366.1,175.8 366.1,163.9 372.1,163.9 372.4,163.7 365.8,163.7 365.8,176.1 						"/>
					</g>
				</g>
				<polygon class="st123" points="373.5,162.6 357,162.6 357,164.5 357,164.6 357,177.2 357.4,177.2 357.4,164.6 373.5,164.6 				
					"/>
			</g>
		</g>
		<g>
			<rect x="403.4" y="158.2" class="st118" width="28.6" height="22.1"/>
			<g>
				<rect x="408.6" y="177.2" class="st117" width="18.2" height="1"/>
				<path class="st119" d="M409.5,162.6v14.6h16.5v-14.6H409.5z M416.9,175.8h-6v-11.9h6V175.8z M424.5,175.8h-6v-11.9h6V175.8z"/>
				<g>
					<g>
						<rect x="410.8" y="163.9" class="st120" width="6" height="11.9"/>
						<path class="st121" d="M410.8,175.5l6-6.3v-1l-6,6.3V175.5z M410.8,170.6v2.6l6-6.3v-2.6L410.8,170.6z"/>
					</g>
					<g>
						<polygon class="st121" points="416.9,163.9 416.9,175.8 410.8,175.8 410.6,176.1 417.1,176.1 417.1,163.7 						"/>
						<polygon class="st122" points="410.8,175.8 410.8,163.9 416.9,163.9 417.1,163.7 410.6,163.7 410.6,176.1 						"/>
					</g>
				</g>
				<g>
					<g>
						<rect x="418.5" y="163.9" class="st120" width="6" height="11.9"/>
						<path class="st121" d="M418.5,175.5l6-6.3v-1l-6,6.3V175.5z M418.5,170.6v2.6l6-6.3v-2.6L418.5,170.6z"/>
					</g>
					<g>
						<polygon class="st121" points="424.5,163.9 424.5,175.8 418.5,175.8 418.2,176.1 424.8,176.1 424.8,163.7 						"/>
						<polygon class="st122" points="418.5,175.8 418.5,163.9 424.5,163.9 424.8,163.7 418.2,163.7 418.2,176.1 						"/>
					</g>
				</g>
				<polygon class="st123" points="425.9,162.6 409.5,162.6 409.5,164.5 409.5,164.6 409.5,177.2 409.9,177.2 409.9,164.6 
					425.9,164.6 				"/>
			</g>
		</g>
		<rect x="379.5" y="180.4" class="st118" width="23.8" height="2.3"/>
		<rect x="379.5" y="182.1" class="st123" width="23.8" height="0.6"/>
		<rect x="377.2" y="182.7" class="st118" width="28.6" height="2.3"/>
		<rect x="377.2" y="184.4" class="st123" width="28.6" height="0.6"/>
		<rect x="374.3" y="185" class="st118" width="34.3" height="2.3"/>
		<rect x="379" y="159.4" class="st123" width="0.6" height="21"/>
		<rect x="403.4" y="159.4" class="st123" width="1.3" height="21"/>
		<g>
			<rect x="350.9" y="160.6" class="st123" width="28.1" height="1.1"/>
			<rect x="404.6" y="160.6" class="st123" width="27.4" height="1.1"/>
		</g>
		<g>
			<rect x="347.5" y="131.3" class="st124" width="84.5" height="28.1"/>
			<g>
				<rect x="350.8" y="131.3" class="st123" width="0.5" height="28.1"/>
				<rect x="354.5" y="131.3" class="st123" width="0.5" height="28.1"/>
				<rect x="358.2" y="131.3" class="st123" width="0.5" height="28.1"/>
				<rect x="361.9" y="131.3" class="st123" width="0.5" height="28.1"/>
				<rect x="365.5" y="131.3" class="st123" width="0.5" height="28.1"/>
				<rect x="369.2" y="131.3" class="st123" width="0.5" height="28.1"/>
				<rect x="372.9" y="131.3" class="st123" width="0.5" height="28.1"/>
				<rect x="376.6" y="131.3" class="st123" width="0.5" height="28.1"/>
				<rect x="380.3" y="131.3" class="st123" width="0.5" height="28.1"/>
				<rect x="384" y="131.3" class="st123" width="0.5" height="28.1"/>
				<rect x="387.7" y="131.3" class="st123" width="0.5" height="28.1"/>
				<rect x="391.3" y="131.3" class="st123" width="0.5" height="28.1"/>
				<rect x="395" y="131.3" class="st123" width="0.5" height="28.1"/>
				<rect x="398.7" y="131.3" class="st123" width="0.5" height="28.1"/>
				<rect x="402.4" y="131.3" class="st123" width="0.5" height="28.1"/>
				<rect x="406.1" y="131.3" class="st123" width="0.5" height="28.1"/>
				<rect x="409.8" y="131.3" class="st123" width="0.5" height="28.1"/>
				<rect x="413.5" y="131.3" class="st123" width="0.5" height="28.1"/>
				<rect x="417.1" y="131.3" class="st123" width="0.5" height="28.1"/>
				<rect x="420.8" y="131.3" class="st123" width="0.5" height="28.1"/>
				<rect x="424.5" y="131.3" class="st123" width="0.5" height="28.1"/>
				<rect x="428.2" y="131.3" class="st123" width="0.5" height="28.1"/>
			</g>
		</g>
		<g>
			<rect x="383.2" y="158.2" class="st125" width="16.5" height="22.1"/>
			<g>
				<g>
					<rect x="399.7" y="158.2" class="st10" width="3.6" height="22.1"/>
				</g>
				<g>
					<rect x="379.5" y="158.2" class="st10" width="3.6" height="22.1"/>
				</g>
			</g>
			<g>
				<rect x="389.7" y="159.1" class="st126" width="3.5" height="1.4"/>
				<g>
					<rect x="388.6" y="159.1" class="st119" width="1.2" height="1.4"/>
					<rect x="393.2" y="159.1" class="st119" width="1.2" height="1.4"/>
				</g>
				<path class="st10" d="M392.6,160.1h-2.3c-0.1,0-0.2-0.1-0.2-0.2s0.1-0.2,0.2-0.2h2.3c0.1,0,0.2,0.1,0.2,0.2
					C392.9,160,392.7,160.1,392.6,160.1z"/>
			</g>
			<g>
				<g>
					<rect x="385.9" y="161.6" class="st119" width="11.2" height="18.8"/>
					<polygon class="st121" points="395.3,180.4 395.7,180.4 395.7,163 395.3,163.4 					"/>
					<polygon class="st122" points="387.2,180.4 387.7,180.4 387.7,163.4 395.3,163.4 395.7,163 387.2,163 					"/>
				</g>
				<g>
					<rect x="387.7" y="163.3" class="st127" width="7.6" height="17"/>
					<rect x="390.1" y="165.3" class="st120" width="2.6" height="13.2"/>
					<g>
						<polygon class="st122" points="390.1,165.3 392.8,165.3 393,165 389.9,165 389.9,178.7 390.1,178.4 						"/>
						<polygon class="st121" points="392.8,165.3 392.8,178.4 390.1,178.4 389.9,178.7 393,178.7 393,165 						"/>
					</g>
					<path class="st121" d="M390.1,170.9v2.4l2.6-3.4v-2.4L390.1,170.9z M390.1,175.7l2.6-3.4v-0.8l-2.6,3.4V175.7z"/>
				</g>
				<path class="st119" d="M394.7,173.1c0,0.3-0.2,0.5-0.5,0.5c-0.3,0-0.5-0.2-0.5-0.5c0-0.3,0.2-0.5,0.5-0.5
					C394.5,172.6,394.7,172.8,394.7,173.1z"/>
			</g>
			<polygon class="st123" points="383.2,158.2 383.2,180.4 384.5,180.4 384.5,159.8 399.1,159.8 399.1,180.4 399.7,180.4 
				399.7,158.2 			"/>
			<rect x="379.5" y="158.2" class="st123" width="3.6" height="1.2"/>
			<rect x="399.7" y="158.2" class="st123" width="3.6" height="1.2"/>
		</g>
		<polygon class="st123" points="375.6,149.3 377.1,151.2 379.8,149.1 379.8,158.2 377.9,158.2 377.9,159.4 407.2,159.4 
			407.2,158.2 405.6,158.2 405.6,149.3 407.9,151.2 409.4,149.3 392.5,135.6 		"/>
		<g>
			<polygon class="st125" points="404.6,146.4 391.5,135.9 378.5,146.3 378.5,156.9 404.6,156.9 			"/>
			<g>
				<path class="st119" d="M391.6,141.6c-3.1,0-5.6,2.5-5.6,5.6v7.6h11.2v-7.6C397.2,144.2,394.7,141.6,391.6,141.6z M390.9,147.1
					h-3.5c0-2,1.5-3.7,3.5-4.1V147.1z M390.9,153.5h-3.5v-5h3.5V153.5z M392.3,147.1v-4.1c2,0.3,3.5,2,3.5,4.1H392.3z M395.8,153.5
					h-3.5v-5h3.5V153.5z"/>
				<path class="st123" d="M386.5,147.5c0-3,2.4-5.5,5.5-5.5c1.5,0,2.9,0.6,3.9,1.7c-1-1.3-2.6-2.1-4.4-2.1c-3.1,0-5.6,2.5-5.6,5.6
					v7.6h0.6L386.5,147.5L386.5,147.5z"/>
				<path class="st120" d="M387.4,147.1h3.5v-4.1C388.9,143.4,387.4,145.1,387.4,147.1z M387.4,153.5h3.5v-5h-3.5V153.5z
					 M392.3,148.5v5h3.5v-5H392.3z M392.3,143.1v4.1h3.5C395.8,145.1,394.3,143.4,392.3,143.1z"/>
				<g>
					<polygon class="st122" points="392.3,148.5 395.8,148.5 396.1,148.3 392,148.3 392,153.8 392.3,153.5 					"/>
					<polygon class="st121" points="395.8,148.5 395.8,153.5 392.3,153.5 392,153.8 396.1,153.8 396.1,148.3 					"/>
				</g>
				<g>
					<polygon class="st122" points="387.4,148.5 390.9,148.5 391.2,148.3 387.1,148.3 387.1,153.8 387.4,153.5 					"/>
					<polygon class="st121" points="390.9,148.5 390.9,153.5 387.4,153.5 387.1,153.8 391.2,153.8 391.2,148.3 					"/>
				</g>
				<g>
					<polygon class="st121" points="391.2,142.8 390.9,143.1 390.9,147.1 387.4,147.1 387.1,147.4 391.2,147.4 					"/>
					<path class="st122" d="M390.9,143.1l0.3-0.3c-2.3,0.2-4.1,2.1-4.1,4.5v0.2l0.3-0.3C387.4,145.1,388.9,143.4,390.9,143.1z"/>
				</g>
				<g>
					<path class="st121" d="M392,142.8l0.3,0.3c2,0.3,3.5,2,3.5,4.1h-3.5l-0.3,0.3h4.1v-0.2C396.1,144.9,394.3,143,392,142.8z"/>
					<polygon class="st122" points="392.3,143.1 392,142.8 392,147.4 392.3,147.1 					"/>
				</g>
				<path class="st121" d="M388.6,148.5l-1.2,1.2v2.1l3.3-3.3H388.6z M390.9,147.1v-0.9l-0.9,0.9H390.9z M393.6,143.5l-1.3,1.3v2.1
					l2.5-2.5C394.4,144.1,394.1,143.8,393.6,143.5z M389.3,153.5l1.6-1.6v-1l-2.7,2.7L389.3,153.5L389.3,153.5z M395.6,146.1
					l-1.1,1.1h1l0.2-0.2C395.8,146.7,395.7,146.4,395.6,146.1z M392.3,149.4v1l1.9-1.9h-1L392.3,149.4z"/>
			</g>
			<g>
				<rect x="376.7" y="156.9" class="st10" width="29.6" height="1.3"/>
				<g>
					<g>
						<rect x="379.4" y="151.6" class="st119" width="1.4" height="5.3"/>
						<path class="st123" d="M379.4,156.9h1.4v-0.2h-1.4V156.9z M379.4,153.4h1.4v-0.5h-1.4V153.4z M379.4,154.7h1.4v-0.5h-1.4
							V154.7z M379.4,151.7v0.5h1.4v-0.5H379.4z M379.4,156h1.4v-0.5h-1.4V156z"/>
					</g>
					<g>
						<rect x="402.1" y="151.6" class="st119" width="1.4" height="5.3"/>
						<path class="st123" d="M402.1,153.4h1.4v-0.5h-1.4V153.4z M402.1,154.7h1.4v-0.5h-1.4V154.7z M402.1,156.9h1.4v-0.2h-1.4
							V156.9z M402.1,151.7v0.5h1.4v-0.5H402.1z M402.1,156h1.4v-0.5h-1.4V156z"/>
					</g>
				</g>
				<g>
					<path class="st128" d="M406.2,151.8h-29.6c-0.1,0-0.2-0.1-0.2-0.2s0.1-0.2,0.2-0.2h29.6c0.1,0,0.2,0.1,0.2,0.2
						S406.4,151.8,406.2,151.8z"/>
					<path class="st128" d="M406.2,153.1h-29.6c-0.1,0-0.2-0.1-0.2-0.2c0-0.1,0.1-0.2,0.2-0.2h29.6c0.1,0,0.2,0.1,0.2,0.2
						C406.5,153,406.4,153.1,406.2,153.1z"/>
					<path class="st128" d="M406.2,154.4h-29.6c-0.1,0-0.2-0.1-0.2-0.2s0.1-0.2,0.2-0.2h29.6c0.1,0,0.2,0.1,0.2,0.2
						S406.4,154.4,406.2,154.4z"/>
					<path class="st128" d="M406.2,155.7h-29.6c-0.1,0-0.2-0.1-0.2-0.2s0.1-0.2,0.2-0.2h29.6c0.1,0,0.2,0.1,0.2,0.2
						S406.4,155.7,406.2,155.7z"/>
					<path class="st128" d="M406.2,156.9h-29.6c-0.1,0-0.2-0.1-0.2-0.2s0.1-0.2,0.2-0.2h29.6c0.1,0,0.2,0.1,0.2,0.2
						S406.4,156.9,406.2,156.9z"/>
				</g>
			</g>
			<polygon class="st123" points="391.5,137.4 378.5,147.8 378.5,149.7 392.1,138.8 404.6,149 404.6,148.1 			"/>
			<polygon class="st10" points="407,150 391.5,137.4 375.9,150 374.4,148.1 391.5,134.3 408.5,148.1 			"/>
		</g>
		<rect x="347.5" y="159.4" class="st127" width="32.1" height="1.2"/>
		<rect x="403.4" y="159.4" class="st127" width="28.6" height="1.2"/>
		<rect x="432" y="160.5" class="st125" width="38.8" height="26.7"/>
		<rect x="432" y="180.4" class="st129" width="5.2" height="6.9"/>
		<rect x="465.6" y="180.4" class="st129" width="5.2" height="6.9"/>
		<polygon class="st119" points="437.2,187.3 438.5,187.3 438.5,165.7 464.3,165.7 464.3,187.3 465.6,187.3 465.6,164.4 
			437.2,164.4 		"/>
		<rect x="438.5" y="165.7" class="st127" width="25.8" height="21.6"/>
		<g>
			<g>
				<rect x="438.5" y="170.9" class="st122" width="25.8" height="0.4"/>
				<rect x="438.5" y="171.3" class="st121" width="25.8" height="0.4"/>
			</g>
			<g>
				<rect x="438.5" y="176.1" class="st122" width="25.8" height="0.4"/>
				<rect x="438.5" y="176.5" class="st121" width="25.8" height="0.4"/>
			</g>
			<g>
				<rect x="438.5" y="181.3" class="st122" width="25.8" height="0.4"/>
				<rect x="438.5" y="181.7" class="st121" width="25.8" height="0.4"/>
			</g>
		</g>
		<polygon class="st122" points="464.3,165.7 438.5,165.7 438.5,187.3 438.9,187.3 438.9,166.1 463.9,166.1 		"/>
		<polygon class="st121" points="463.9,166.1 463.9,187.3 464.3,187.3 464.3,165.7 		"/>
		<rect x="432" y="160.5" class="st123" width="1.4" height="26.7"/>
		<rect x="432" y="143.8" class="st130" width="40.2" height="17.4"/>
		<g>
			<rect x="435.3" y="143.8" class="st123" width="0.5" height="17.4"/>
			<rect x="439" y="143.8" class="st123" width="0.5" height="17.4"/>
			<rect x="442.7" y="143.8" class="st123" width="0.5" height="17.4"/>
			<rect x="446.4" y="143.8" class="st123" width="0.5" height="17.4"/>
			<rect x="450.1" y="143.8" class="st123" width="0.5" height="17.4"/>
			<rect x="453.8" y="143.8" class="st123" width="0.5" height="17.4"/>
			<rect x="457.4" y="143.8" class="st123" width="0.5" height="17.4"/>
			<rect x="461.1" y="143.8" class="st123" width="0.5" height="17.4"/>
			<rect x="464.8" y="143.8" class="st123" width="0.5" height="17.4"/>
			<rect x="468.5" y="143.8" class="st123" width="0.5" height="17.4"/>
		</g>
		<g>
			<g>
				<rect x="467.5" y="165.6" class="st126" width="1.4" height="3.5"/>
				<g>
					<rect x="467.5" y="164.4" class="st119" width="1.4" height="1.2"/>
					<rect x="467.5" y="169.1" class="st119" width="1.4" height="1.2"/>
				</g>
				<path class="st10" d="M467.9,168.5v-2.3c0-0.1,0.1-0.2,0.2-0.2c0.1,0,0.2,0.1,0.2,0.2v2.3c0,0.1-0.1,0.2-0.2,0.2
					C468.1,168.7,467.9,168.6,467.9,168.5z"/>
			</g>
			<g>
				<rect x="433.9" y="165.6" class="st126" width="1.4" height="3.5"/>
				<g>
					<rect x="433.9" y="164.4" class="st119" width="1.4" height="1.2"/>
					<rect x="433.9" y="169.1" class="st119" width="1.4" height="1.2"/>
				</g>
				<path class="st10" d="M434.4,168.5v-2.3c0-0.1,0.1-0.2,0.2-0.2c0.1,0,0.2,0.1,0.2,0.2v2.3c0,0.1-0.1,0.2-0.2,0.2
					C434.5,168.7,434.4,168.6,434.4,168.5z"/>
			</g>
		</g>
		<rect x="433.4" y="162.4" class="st123" width="37.4" height="1.3"/>
		<rect x="432" y="161.2" class="st127" width="40.2" height="1.2"/>
		<rect x="432" y="143.8" class="st123" width="1.4" height="18.6"/>
		<g>
			<g>
				<rect x="411.5" y="129.9" class="st118" width="8.1" height="6"/>
				<rect x="411.5" y="126.4" class="st118" width="8.1" height="2.2"/>
				<rect x="412.4" y="128.6" class="st125" width="6.3" height="1.3"/>
				<rect x="412.4" y="128.6" class="st123" width="6.3" height="0.5"/>
				<g>
					<rect x="412.3" y="125.3" class="st130" width="1.1" height="1.1"/>
					<rect x="417.7" y="125.3" class="st130" width="1.1" height="1.1"/>
				</g>
				<path class="st123" d="M412.3,125.7h1.1v-0.4h-1.1V125.7z M417.7,125.3v0.4h1.1v-0.4H417.7z"/>
				<polygon class="st130" points="412.9,121.4 410.1,125.3 421,125.3 418.2,121.4 				"/>
			</g>
			<g>
				<rect x="359.9" y="129.9" class="st118" width="8.1" height="6"/>
				<rect x="359.9" y="126.4" class="st118" width="8.1" height="2.2"/>
				<rect x="360.8" y="128.6" class="st125" width="6.3" height="1.3"/>
				<rect x="360.8" y="128.6" class="st123" width="6.3" height="0.5"/>
				<g>
					<rect x="360.7" y="125.3" class="st130" width="1.1" height="1.1"/>
					<rect x="366.1" y="125.3" class="st130" width="1.1" height="1.1"/>
				</g>
				<path class="st123" d="M360.7,125.7h1.1v-0.4h-1.1V125.7z M366.1,125.3v0.4h1.1v-0.4H366.1z"/>
				<polygon class="st130" points="361.3,121.4 358.5,125.3 369.4,125.3 366.6,121.4 				"/>
			</g>
		</g>
	</g>
	<g>
		<path class="st131" d="M487.9,174.6c-4.8,0.1-10.7-2.9-11-8.1c-2.8-1.5-4.4-4.9-3.8-8c0.6-3.1,3.2-5.7,6.3-6.2
			c-0.8-9.3,12.7-11.3,14.9-1c3.5,0.3,6.6,3.2,7.1,6.7c0.5,3.5-1.5,7.4-5,8.4c1.4,5.1-2.1,9.3-7.6,10.9L487.9,174.6z"/>
		<path class="st132" d="M477.1,167.5c0.8,4.6,6.3,7.2,10.8,7.1l0.4,1l0.1-2.7C484.4,173,479,171.1,477.1,167.5z M496.8,168.1
			c-0.8,3.6-4.8,7.2-8.5,7.7l0.5,1.6C493.8,175.9,497.2,172.5,496.8,168.1z"/>
		<g>
			<path class="st133" d="M490.1,187.8c-0.8-4.2-1.2-9-1.1-13.6c0-3.8-0.5-8.1-1.2-10.7l-0.5,0.1c0.6,4,0.8,8.7,0.3,12.7
				c-0.3,2.2-0.3,6.7-0.9,11.5L490.1,187.8z"/>
			<path class="st133" d="M488.1,173.4c1.3-1.8,2.5-3,3-4.7c0.3-1,0.5-2,0.6-3.1c0.1,0,0.3,0.1,0.3,0.1c0,1.1-0.2,2.2-0.4,3.2
				c-0.4,1.9-1.3,3.8-2.9,5.2L488.1,173.4z"/>
		</g>
		<g>
			<path class="st132" d="M494.4,151.3c-1.3-5.9-6.1-7.7-10-6.6c7.5,1.6,9.8,8.6,8.6,13.7c-1.2,4.9-6.4,5.6-10.5,3.2
				c3.3,3.3,8,2.1,10.1,0C495.5,158.6,495.2,154.3,494.4,151.3z"/>
			<path class="st132" d="M501.5,158.1c-0.4-2.7-2.3-5-4.7-6.1c3.8,4.1,3.8,7.8,2.7,10.2c-1.4,3-4.5,5.1-8.8,2.7
				c1.2,1.4,3.5,2.3,5.8,1.6C500,165.5,502,161.6,501.5,158.1z"/>
			<path class="st132" d="M484,167.6c-3.9,0.2-7.6-2.4-8.9-4.4c-2.1-3.3-0.5-7.5,2.3-10.2c-2.1,1.1-3.8,3.1-4.2,5.5
				c-0.6,3.1,1.1,6.5,3.8,8C479.7,167.6,481.5,168.2,484,167.6z"/>
		</g>
		<path class="st134" d="M493.9,149.6c-3.2-8.3-15.1-6.1-14.4,2.7c-3.1,0.5-5.8,3.1-6.3,6.2c-0.4,2.5,0.5,5.1,2.2,6.8
			c-0.4-1.2-0.6-2.6-0.4-3.8c0.6-3.1,3.2-5.7,6.3-6.2C480.8,147.8,489.4,145,493.9,149.6z"/>
	</g>
	<path class="st123" d="M356.2,185.7c0.4-0.8,0.6-1.8,0.5-2.7c-0.2-0.9-0.8-1.7-1.6-2c0.1-1-0.4-2-1.2-2.5c-0.8-0.5-1.9-0.3-2.6,0.4
		c-0.1-0.1-0.3-0.2-0.4-0.3v1.8h-0.6v6.9h4.7C355.4,186.8,355.9,186.3,356.2,185.7z"/>
	<g>
		<path class="st135" d="M338.5,187.4c-0.1-1.3-0.3-3.4,0.2-4.6c0.6-1.5,2.2-2.6,3.8-2.7c1.7-0.1,3.3,0.8,4.1,2.2
			c0.8,1.4,0.9,3.8-0.1,5.1H338.5z"/>
		<path class="st136" d="M339.2,182c-0.2,0.2-0.3,0.5-0.4,0.8c-0.5,1.2-0.4,3.3-0.2,4.6h0.8c1.1-0.9,1.6-2.8,1-4.1
			C340,182.7,339.6,182.3,339.2,182z M346.7,182.3c-0.5-0.8-1.2-1.4-2-1.8c-0.3,0.2-0.6,0.5-0.8,0.8c-0.4,0.7-0.5,1.6-0.4,2.5
			c0.1,1.3,0.4,2.6,1.2,3.6h1.9C347.6,186,347.5,183.7,346.7,182.3z"/>
		<g>
			<path class="st131" d="M326.6,187.4c-1.8-0.7-2.7-3-1.7-4.7c0.7-1.3,2.4-1.9,3.8-1.4c0.4-1.6,2-2.7,3.6-2.7
				c1.6,0,3.2,1.2,3.6,2.8c1.5-0.4,3.2,0.4,3.8,1.8c0.6,1.4,0.1,3.5-1.2,4.3H326.6z"/>
			<path class="st132" d="M339.7,183.1c-0.5-1-1.5-1.7-2.6-1.8c0.6,0.3,1.1,0.8,1.4,1.5c0.7,1.5-0.1,3.5-1.5,4.7h1.5
				C339.8,186.6,340.3,184.5,339.7,183.1z"/>
			<path class="st134" d="M325.8,186.9c-0.5-1-0.6-2.2,0-3.1c0.7-1.3,2.4-1.9,3.8-1.4c0.4-1.6,2-2.7,3.6-2.7c0.9,0,1.7,0.3,2.4,0.9
				c-0.6-1.2-1.9-2-3.3-2c-1.6,0-3.2,1.2-3.6,2.7c-1.4-0.5-3,0.1-3.8,1.4C324.1,184.2,324.6,186,325.8,186.9z"/>
		</g>
		<g>
			<path class="st135" d="M349,187.4c-1-0.8-1.7-1.9-1.9-3.1s-0.2-2.5,0.3-3.6c0.3-0.7,0.8-1.3,1.5-1.7s1.6-0.3,2.1,0.3
				c0.7-0.6,1.7-0.8,2.5-0.3c0.8,0.4,1.3,1.4,1.2,2.3c0.8,0.3,1.4,1,1.6,1.9c0.2,0.8,0,1.7-0.5,2.5c-0.4,0.7-1.1,1.3-1.8,1.8
				L349,187.4L349,187.4z"/>
			<path class="st137" d="M356.4,183.1c-0.2-0.8-0.8-1.6-1.6-1.9c0.1-0.9-0.4-1.9-1.2-2.3c-0.3-0.2-0.6-0.2-1-0.2
				c0,0,0.1,0.1,0.1,0.1c0.8,0.5,1.2,1.6,0.9,2.5c0.8,0.4,1.3,1.2,1.4,2.1c0.1,0.9-0.2,1.8-0.7,2.5c-0.4,0.6-0.9,1-1.4,1.4h1.2
				c0.7-0.5,1.3-1.1,1.8-1.8C356.3,184.8,356.5,183.9,356.4,183.1z"/>
		</g>
		<g>
			<path class="st131" d="M345.6,187.4c-1.1-1-1.5-2.4-1.6-3.9c-0.1-0.8,0-1.7,0.4-2.4c0.4-0.7,1.3-1.2,2.1-1.2
				c0.8,0,1.6,0.5,2.1,1.2c0.6-1,1.6-0.9,2.2,0c0.5,0.7,0.5,2,0.2,3.2c-0.3,1.1-1,2.1-1.7,3L345.6,187.4L345.6,187.4z"/>
			<path class="st132" d="M350.7,181.2c-0.1-0.2-0.2-0.3-0.3-0.4c0.3,0.7,0.4,1.9,0,3c-0.3,1-1.3,2.7-2.2,3.6h1
				c0.7-0.9,1.4-1.9,1.7-3C351.2,183.2,351.2,181.9,350.7,181.2z"/>
			<path class="st138" d="M344.5,184c-0.1-0.8,0-1.7,0.4-2.4c0.4-0.7,1.3-1.2,2.1-1.2c0.9,0,1.3,0.5,1.6,1.3
				c0.1-0.4,0.7-0.8,1.3-0.7c0.4,0,0.7,0.3,1,0.6c0,0,0,0.1,0.1,0.1c-0.1-0.2-0.1-0.3-0.2-0.4c-0.6-0.9-1.6-1-2.2,0
				c-0.4-0.7-1.2-1.2-2.1-1.2c-0.8,0-1.7,0.5-2.1,1.2c-0.4,0.7-0.5,1.6-0.4,2.4c0.1,1.5,0.5,2.9,1.6,3.9h0.1
				C344.9,186.4,344.6,185.2,344.5,184z"/>
		</g>
	</g>
	<rect x="236.6" y="187.3" class="st139" width="268.5" height="2.8"/>
</g>
<g>
	<g class="st142">
		<path class="st10" d="M335.6,202.6h-85.3c-0.9,0-1.6-0.8-1.6-1.6v-0.4c0-0.8,0.7-1.7,1.6-1.7h85.3c1,0,1.6,0.8,1.6,1.6v0.5
			C337.1,201.7,336.7,202.6,335.6,202.6z"/>
		<path class="st143" d="M250.3,198.9h85.3c1,0,1.4,0.8,1.5,1.6v0.4c0,0.8-0.5,1.6-1.5,1.6h-85.3c-0.9,0-1.5-0.8-1.6-1.6
			c0,0,0-0.4,0-0.4C248.6,199.8,249.3,198.9,250.3,198.9z"/>
		<path class="st144" d="M250.3,198.9h85.3c0.9,0,1.4,0.8,1.5,1.6v0.4c0,0.8-0.5,1.6-1.5,1.6h-85.3c-0.9,0-1.5-0.8-1.6-1.6v-0.4
			C248.7,199.8,249.4,198.9,250.3,198.9z"/>
		<path class="st145" d="M250.3,199h85.2c0.9,0,1.4,0.8,1.5,1.5v0.4c0,0.7-0.4,1.6-1.5,1.6h-85.2c-0.9,0-1.5-0.8-1.6-1.6v-0.4
			C248.7,199.9,249.4,199,250.3,199z"/>
		<path class="st20" d="M250.3,199h85.2c0.9,0,1.4,0.8,1.5,1.5v0.4c0,0.7-0.4,1.6-1.5,1.6h-85.2c-0.8,0-1.4-0.8-1.5-1.5v-0.4
			C248.8,199.9,249.4,199,250.3,199z"/>
		<path class="st146" d="M250.3,199.1h85.2c0.9,0,1.3,0.8,1.5,1.5c0,0,0,0.4,0,0.4c0,0.7-0.4,1.5-1.5,1.5h-85.2
			c-0.8,0-1.4-0.8-1.5-1.5c0,0,0-0.3,0-0.4C248.8,199.9,249.4,199.1,250.3,199.1z"/>
		<path class="st147" d="M250.3,199.1h85.2c0.9,0,1.3,0.7,1.4,1.4c0,0,0,0.4,0,0.4c0,0.7-0.4,1.5-1.4,1.5h-85.2
			c-0.8,0-1.4-0.8-1.5-1.5c0,0,0-0.3,0-0.3C248.8,199.9,249.5,199.1,250.3,199.1z"/>
		<path class="st148" d="M250.3,199.1h85.1c0.9,0,1.3,0.7,1.4,1.4c0,0,0,0.4,0,0.4c0,0.7-0.4,1.5-1.4,1.5h-85.1
			c-0.8,0-1.4-0.7-1.5-1.4c0,0,0-0.3,0-0.3C248.9,199.9,249.5,199.1,250.3,199.1z"/>
		<path class="st26" d="M250.4,199.2h85.1c0.8,0,1.3,0.7,1.4,1.4c0,0,0,0.4,0,0.4c0,0.7-0.4,1.4-1.4,1.4h-85.1
			c-0.8,0-1.3-0.7-1.4-1.4c0,0,0-0.3,0-0.3C248.9,200,249.5,199.2,250.4,199.2z"/>
		<path class="st149" d="M250.4,199.2h85.1c0.8,0,1.2,0.7,1.4,1.4c0,0,0,0.4,0,0.4c0,0.7-0.4,1.4-1.4,1.4h-85.1
			c-0.8,0-1.3-0.7-1.4-1.4c0,0,0-0.3,0-0.3C248.9,200,249.5,199.2,250.4,199.2z"/>
		<path class="st150" d="M250.4,199.2h85c0.8,0,1.2,0.7,1.3,1.3c0,0,0,0.4,0,0.4c0,0.7-0.4,1.4-1.3,1.4h-85c-0.8,0-1.3-0.7-1.4-1.3
			c0,0,0-0.3,0-0.3C249,200,249.6,199.2,250.4,199.2z"/>
		<path class="st151" d="M250.4,199.3h85c0.8,0,1.2,0.7,1.3,1.3c0,0,0,0.4,0,0.4c0,0.6-0.4,1.4-1.3,1.4h-85c-0.7,0-1.3-0.7-1.4-1.3
			c0,0,0-0.3,0-0.3C249,200,249.6,199.3,250.4,199.3z"/>
		<path class="st32" d="M250.4,199.3h85c0.8,0,1.2,0.6,1.3,1.3c0,0,0,0.3,0,0.4c0,0.6-0.4,1.3-1.3,1.3h-85c-0.7,0-1.3-0.7-1.3-1.3
			c0,0,0-0.3,0-0.3C249.1,200,249.6,199.3,250.4,199.3z"/>
		<path class="st152" d="M250.4,199.3h85c0.8,0,1.2,0.6,1.3,1.2c0,0,0,0.3,0,0.3c0,0.6-0.4,1.3-1.3,1.3h-85c-0.7,0-1.2-0.6-1.3-1.2
			c0,0,0-0.3,0-0.3C249.1,200.1,249.6,199.3,250.4,199.3z"/>
		<path class="st78" d="M250.4,199.4h84.9c0.7,0,1.1,0.6,1.2,1.2c0,0,0,0.3,0,0.3c0,0.6-0.4,1.3-1.3,1.3h-84.9
			c-0.7,0-1.2-0.6-1.3-1.2c0,0,0-0.3,0-0.3C249.1,200.1,249.7,199.4,250.4,199.4z"/>
		<path class="st153" d="M250.4,199.4h84.9c0.7,0,1.1,0.6,1.2,1.2c0,0,0,0.3,0,0.3c0,0.6-0.4,1.2-1.2,1.2h-84.9
			c-0.7,0-1.2-0.6-1.3-1.2c0,0,0-0.3,0-0.3C249.2,200.1,249.7,199.4,250.4,199.4z"/>
		<path class="st38" d="M250.5,199.5h84.9c0.7,0,1.1,0.6,1.2,1.1c0,0,0,0.3,0,0.3c0,0.6-0.4,1.2-1.2,1.2h-84.9
			c-0.7,0-1.2-0.6-1.2-1.2c0,0,0-0.3,0-0.3C249.2,200.1,249.7,199.5,250.5,199.5z"/>
		<path class="st154" d="M250.5,199.5h84.8c0.7,0,1.1,0.6,1.2,1.1c0,0,0,0.3,0,0.3c0,0.6-0.4,1.2-1.2,1.2h-84.8
			c-0.7,0-1.1-0.6-1.2-1.1c0,0,0-0.3,0-0.3C249.2,200.1,249.8,199.5,250.5,199.5z"/>
		<path class="st155" d="M250.5,199.5h84.8c0.7,0,1.1,0.6,1.2,1.1c0,0,0,0.3,0,0.3c0,0.6-0.4,1.2-1.2,1.2h-84.8
			c-0.6,0-1.1-0.6-1.2-1.1c0,0,0-0.2,0-0.3C249.3,200.2,249.8,199.5,250.5,199.5z"/>
		<path class="st156" d="M250.5,199.6h84.8c0.7,0,1,0.5,1.1,1c0,0,0,0.3,0,0.3c0,0.6-0.4,1.1-1.1,1.1h-84.8c-0.6,0-1.1-0.5-1.2-1.1
			c0,0,0-0.2,0-0.3C249.3,200.2,249.8,199.6,250.5,199.6z"/>
		<path class="st157" d="M250.5,199.6h84.8c0.6,0,1,0.5,1.1,1c0,0,0,0.3,0,0.3c0,0.5-0.4,1.1-1.1,1.1h-84.8c-0.6,0-1.1-0.5-1.2-1
			c0,0,0-0.2,0-0.2C249.3,200.2,249.8,199.6,250.5,199.6z"/>
		<path class="st158" d="M250.5,199.6h84.7c0.6,0,1,0.5,1.1,1c0,0,0,0.3,0,0.3c0,0.5-0.4,1.1-1.1,1.1h-84.7c-0.6,0-1-0.5-1.1-1
			c0,0,0-0.2,0-0.2C249.4,200.2,249.9,199.6,250.5,199.6z"/>
		<path class="st159" d="M250.5,199.7h84.7c0.6,0,1,0.5,1.1,1c0,0,0,0.3,0,0.3c0,0.5-0.4,1-1.1,1h-84.7c-0.6,0-1-0.5-1.1-1
			c0,0,0-0.2,0-0.2C249.4,200.2,249.9,199.7,250.5,199.7z"/>
		<path class="st1" d="M250.5,199.7h84.7c0.6,0,0.9,0.5,1,0.9c0,0,0,0.2,0,0.3c0,0.5-0.4,1-1.1,1h-84.7c-0.6,0-1-0.5-1.1-0.9
			c0,0,0-0.2,0-0.2C249.5,200.3,249.9,199.7,250.5,199.7z"/>
		<path class="st160" d="M250.6,199.8h84.7c0.6,0,0.9,0.5,1,0.9c0,0,0,0.2,0,0.3c0,0.5-0.4,1-1,1h-84.7c-0.6,0-1-0.5-1.1-0.9
			c0,0,0-0.2,0-0.2C249.5,200.3,249.9,199.8,250.6,199.8z"/>
		<path class="st51" d="M250.6,199.8h84.6c0.6,0,0.9,0.4,1,0.9c0,0,0,0.2,0,0.3c0,0.5-0.4,0.9-1,0.9h-84.6c-0.5,0-0.9-0.4-1-0.9
			c0,0,0-0.2,0-0.2C249.5,200.3,250,199.8,250.6,199.8z"/>
		<path class="st161" d="M250.6,199.8h84.6c0.6,0,0.9,0.4,1,0.8c0,0,0,0.2,0,0.2c0,0.5-0.4,0.9-1,0.9h-84.6c-0.5,0-0.9-0.4-1-0.8
			c0,0,0-0.2,0-0.2C249.6,200.3,250,199.8,250.6,199.8z"/>
		<path class="st162" d="M250.6,199.9h84.6c0.5,0,0.9,0.4,1,0.8c0,0,0,0.2,0,0.2c0,0.5-0.4,0.9-1,0.9h-84.6c-0.5,0-0.9-0.4-1-0.8
			c0,0,0-0.2,0-0.2C249.6,200.3,250,199.9,250.6,199.9z"/>
		<path class="st163" d="M250.6,199.9h84.5c0.5,0,0.8,0.4,0.9,0.8c0,0,0,0.2,0,0.2c0,0.4-0.3,0.9-0.9,0.9h-84.5
			c-0.5,0-0.9-0.4-1-0.8c0,0,0-0.2,0-0.2C249.6,200.4,250.1,199.9,250.6,199.9z"/>
		<path class="st57" d="M250.6,199.9h84.5c0.5,0,0.8,0.4,0.9,0.7c0,0,0,0.2,0,0.2c0,0.4-0.3,0.8-0.9,0.8h-84.5
			c-0.5,0-0.9-0.4-0.9-0.8c0,0,0-0.2,0-0.2C249.7,200.4,250.1,199.9,250.6,199.9z"/>
		<path class="st164" d="M250.6,200h84.5c0.5,0,0.8,0.4,0.9,0.7c0,0,0,0.2,0,0.2c0,0.4-0.3,0.8-0.9,0.8h-84.5
			c-0.5,0-0.8-0.4-0.9-0.7c0,0,0-0.2,0-0.2C249.7,200.4,250.1,200,250.6,200z"/>
		<path class="st165" d="M250.7,200h84.5c0.5,0,0.8,0.3,0.9,0.7c0,0,0,0.2,0,0.2c0,0.4-0.3,0.8-0.9,0.8h-84.5
			c-0.5,0-0.8-0.3-0.9-0.7c0,0,0-0.1,0-0.2C249.7,200.4,250.1,200,250.7,200z"/>
		<path class="st166" d="M250.7,200.1h84.4c0.5,0,0.8,0.3,0.8,0.6c0,0,0,0.2,0,0.2c0,0.4-0.3,0.7-0.9,0.7h-84.4
			c-0.4,0-0.8-0.3-0.9-0.7c0,0,0-0.1,0-0.2C249.8,200.4,250.2,200.1,250.7,200.1z"/>
		<path class="st63" d="M250.7,200.1h84.4c0.4,0,0.7,0.3,0.8,0.6c0,0,0,0.2,0,0.2c0,0.4-0.3,0.7-0.8,0.7h-84.4
			c-0.4,0-0.8-0.3-0.8-0.6c0,0,0-0.1,0-0.2C249.8,200.5,250.2,200.1,250.7,200.1z"/>
		<path class="st167" d="M250.7,200.1h84.4c0.4,0,0.7,0.3,0.8,0.6c0,0,0,0.1,0,0.2c0,0.4-0.3,0.7-0.8,0.7h-84.4
			c-0.4,0-0.7-0.3-0.8-0.6c0,0,0-0.1,0-0.2C249.9,200.5,250.2,200.1,250.7,200.1z"/>
		<path class="st168" d="M250.7,200.2H335c0.4,0,0.7,0.3,0.8,0.6c0,0,0,0.1,0,0.2c0,0.4-0.3,0.7-0.8,0.7h-84.3
			c-0.4,0-0.7-0.3-0.8-0.6c0,0,0-0.1,0-0.1C249.9,200.5,250.3,200.2,250.7,200.2z"/>
		<path class="st169" d="M250.7,200.2H335c0.4,0,0.7,0.2,0.7,0.5c0,0,0,0.1,0,0.2c0,0.3-0.3,0.6-0.8,0.6h-84.3
			c-0.4,0-0.7-0.3-0.8-0.5c0,0,0-0.1,0-0.1C249.9,200.5,250.3,200.2,250.7,200.2z"/>
		<path class="st69" d="M250.7,200.3H335c0.4,0,0.6,0.2,0.7,0.5c0,0,0,0.1,0,0.2c0,0.3-0.3,0.6-0.7,0.6h-84.3
			c-0.4,0-0.7-0.2-0.7-0.5c0,0,0-0.1,0-0.1C250,200.5,250.3,200.3,250.7,200.3z"/>
		<path class="st170" d="M250.7,200.3H335c0.4,0,0.6,0.2,0.7,0.5c0,0,0,0.1,0,0.1c0,0.3-0.3,0.6-0.7,0.6h-84.3
			c-0.4,0-0.6-0.2-0.7-0.5c0,0,0-0.1,0-0.1C250,200.6,250.3,200.3,250.7,200.3z"/>
		<path class="st171" d="M250.7,200.3H335c0.3,0,0.6,0.2,0.7,0.4c0,0,0,0.1,0,0.1c0,0.3-0.3,0.6-0.7,0.6h-84.2
			c-0.3,0-0.6-0.2-0.7-0.5c0,0,0-0.1,0-0.1C250,200.6,250.4,200.3,250.7,200.3z"/>
		<path class="st172" d="M250.8,200.4H335c0.3,0,0.6,0.2,0.7,0.4c0,0,0,0.1,0,0.1c0,0.3-0.3,0.5-0.7,0.5h-84.2
			c-0.3,0-0.6-0.2-0.7-0.4c0,0,0-0.1,0-0.1C250.1,200.6,250.4,200.4,250.8,200.4z"/>
		<path d="M335,201.4h-84.2c-0.4,0-0.7-0.2-0.7-0.5c0-0.3,0.3-0.5,0.7-0.5H335c0.4,0,0.7,0.2,0.7,0.5S335.3,201.4,335,201.4z"/>
	</g>
	<g>
		<path class="st173" d="M273,162.3h-9.6c-2.1,0-3.7,0.4-5,1c0.1-0.7,0.9-1.2,1.8-1.9c1.4-1,5.1-3.7,9.9-5.8c3.1-1.4,5.8-1.8,6,1
			c0,0,0.2,4.6,0.1,7.2C275.4,162.9,274.3,162.3,273,162.3z"/>
		<path class="st174" d="M327.6,188.7h1.8c0.7,0,0.8,0.3,0.8,0.7v3.1c0,0.4-0.3,0.7-0.7,0.7h-2.7c0.5-0.4,0.7-1,0.7-1.7V188.7z"/>
		<path class="st175" d="M280.2,150.4h54.1c1.7,0,3.1,1.4,3.1,3.1v26.3c0,1.7-1.4,3.1-3.1,3.1h-57.2v-29.4
			C277.1,151.8,278.5,150.4,280.2,150.4z"/>
		<path class="st176" d="M334.3,181.3c0.8,0,1.5-0.7,1.5-1.5v-26.3c0-0.8-0.7-1.5-1.5-1.5h-54.1c-0.8,0-1.5,0.7-1.5,1.5v27.8H334.3z
			"/>
		<path class="st174" d="M258.6,187.9h-8v-5.8c0-3.6,1.6-8,3.6-11.8c2.3-4.4,3.4-7,9.2-7h9.6c1.7,0,3.2,1.4,3.2,3.2V183h-7.5
			C264.6,183,260.9,184.9,258.6,187.9z"/>
		<rect x="305.2" y="183.9" width="20.4" height="7.6"/>
		<polygon points="265,183.9 279,183.9 279,191.5 258.6,191.5 258.6,189.4 		"/>
		<path class="st95" d="M250.6,187.9h8c2.3-3,6-4.9,10.1-4.9h7.5h50.7c0.9,0,1.7,0.8,1.7,1.7v6.8c0,0.9-0.8,1.7-1.7,1.7h-2.4
			c-0.3-4.7-4.2-8.5-9.1-8.5c-4.8,0-8.7,3.7-9.1,8.5h-28.7c-0.3-4.7-4.2-8.5-9.1-8.5c-4.8,0-8.7,3.7-9.1,8.5h-8.9
			c-0.7,0-1.3-0.6-1.3-1.3v-2.8C249.5,188.5,250,187.9,250.6,187.9z"/>
		<path class="st177" d="M267.4,179.8h3.2c0.1,0,0.2-0.1,0.2-0.2l0.1-1.4c0-0.1-0.1-0.2-0.2-0.2h-1.9c-0.9,0-1.6,0.7-1.6,1.6
			C267.2,179.7,267.3,179.8,267.4,179.8z"/>
		<path class="st177" d="M262.1,164.3c1.8,0,6.3-0.1,7.3-0.1c1.6,0,3,0.3,3,2.8c0,1,0,2-0.1,2.8c0,0.6,0,1.1,0,1.5l-0.5,11.8h-0.5
			l0.5-11.8c0-0.4,0-0.9,0-1.5c0-0.7,0.1-1.8,0.1-2.7c0-1.9-0.9-2.3-2.6-2.3c-1,0-5.5,0.1-7.3,0.1c-1.7,0-3.1,0.7-4.3,2.1
			c-2.4,2.9-3.7,7.2-3.7,9v11.9h-0.5V176c0-1.9,1.4-6.4,3.9-9.3C258.7,165.1,260.2,164.4,262.1,164.3z"/>
		<path class="st177" d="M255.7,178.6c0.2,0,0.5,0,0.8-0.1c1.4-0.3,11.7-3.5,13.4-4.1c2.4-0.8,2.4-2.2,2.4-3.1v-0.2
			c0-0.4,0-0.9,0-1.4c0-0.7,0.1-1.8,0.1-2.8c0-2.4-1.4-2.8-3-2.8c-1,0-5.5,0.1-7.3,0.1c-1.9,0-3.4,0.8-4.6,2.3
			c-2.5,3-3.9,7.4-3.9,9.3C253.6,176.6,253.6,178.6,255.7,178.6z M269.4,164.6c1.6,0,2.6,0.4,2.6,2.3c0,1,0,2-0.1,2.7
			c0,0.6,0,1.1,0,1.5v0.2c0,0.8,0,2-2.1,2.7c-1.8,0.6-12,3.9-13.4,4.1c-0.3,0.1-0.5,0.1-0.7,0.1c-1.4,0-1.6-1.2-1.6-2.2
			c0-1.9,1.3-6.2,3.8-9.1c1.2-1.4,2.6-2.1,4.3-2.2C263.9,164.7,268.4,164.6,269.4,164.6z"/>
		<path class="st178" d="M256.3,177.8c1.4-0.2,11.3-3.4,13.3-4.1c2-0.7,1.9-1.6,1.9-2.5s0.1-2.6,0.1-4.2c0-1.6-0.7-2-2.2-2
			c-1,0-5.5,0.1-7.3,0.1c-1.8,0-3,0.8-4.1,2c-2.4,2.9-3.7,7.1-3.7,8.8C254.4,177.7,255,178,256.3,177.8z"/>
		<path class="st99" d="M281.4,191.9h21.1c1.1,0,2-0.9,2-2v-3.5c0-1.1-0.9-2-2-2h-21.1c-1.1,0-2,0.9-2,2v3.5
			C279.4,191,280.3,191.9,281.4,191.9z M302.5,184.8c0.8,0,1.5,0.7,1.5,1.5v3.5c0,0.8-0.7,1.5-1.5,1.5h-21.1c-0.8,0-1.5-0.7-1.5-1.5
			v-3.5c0-0.8,0.7-1.5,1.5-1.5H302.5z"/>
		<path class="st99" d="M281.4,191.9h21.1c1.1,0,2-0.9,2-2v-3.5c0-1.1-0.9-2-2-2h-21.1c-1.1,0-2,0.9-2,2v3.5
			C279.4,191,280.3,191.9,281.4,191.9z M302.5,184.8c0.8,0,1.5,0.7,1.5,1.5v3.5c0,0.8-0.7,1.5-1.5,1.5h-21.1c-0.8,0-1.5-0.7-1.5-1.5
			v-3.5c0-0.8,0.7-1.5,1.5-1.5H302.5z"/>
		<path class="st99" d="M284.2,190h15.5c0.9,0,1.6-0.7,1.6-1.6v-0.6c0-0.9-0.7-1.6-1.6-1.6h-15.5c-0.9,0-1.6,0.7-1.6,1.6v0.6
			C282.6,189.3,283.3,190,284.2,190z"/>
		<path class="st77" d="M283.3,188.2c0,0.3,0.2,0.5,0.5,0.5h16.3c0.3,0,0.5-0.2,0.5-0.5v0.3c0,0.3-0.2,0.5-0.5,0.5h-16.3
			c-0.3,0-0.5-0.2-0.5-0.5v-0.9V188.2z"/>
		<path class="st54" d="M300.6,187.9c0-0.3-0.2-0.5-0.5-0.5h-16.3c-0.3,0-0.5,0.2-0.5,0.5v-0.3c0-0.3,0.2-0.5,0.5-0.5h16.3
			c0.3,0,0.5,0.2,0.5,0.5v0.9V187.9z"/>
		<g>
			<path class="st175" d="M327.3,170.4V163l-4.2,7.4H327.3z M320,170.4l4.2-7.4H321l-4.2,7.4H320z M313.6,170.4l4.2-7.4h-2.7
				l-4.1,7.4H313.6z M287,166.7l16.2,9.1v-5.4h4.7l4.1-7.4h-8.8v-5.4L287,166.7z"/>
		</g>
		<g>
			<ellipse class="st60" cx="268.7" cy="193.8" rx="7.2" ry="7.2"/>
			<path class="st179" d="M268.7,197.7c2.2,0,3.9-1.8,3.9-3.9c0-2.2-1.8-3.9-3.9-3.9s-3.9,1.8-3.9,3.9
				C264.7,196,266.5,197.7,268.7,197.7z"/>
			<path class="st180" d="M268.7,197.4c2,0,3.6-1.6,3.6-3.6c0-2-1.6-3.6-3.6-3.6s-3.6,1.6-3.6,3.6
				C265,195.8,266.6,197.4,268.7,197.4z"/>
			<path class="st179" d="M268.7,196.5c1.5,0,2.7-1.2,2.7-2.7c0-1.5-1.2-2.7-2.7-2.7s-2.7,1.2-2.7,2.7
				C265.9,195.3,267.1,196.5,268.7,196.5z"/>
			<g>
				<path class="st60" d="M267.6,193.8c0,0.6,0.5,1.1,1.1,1.1c0.6,0,1.1-0.5,1.1-1.1s-0.5-1.1-1.1-1.1
					C268.1,192.7,267.6,193.2,267.6,193.8z"/>
				<g>
					<path class="st60" d="M269.3,191.2C269.3,191.2,269.3,191.2,269.3,191.2c0,0.5-0.3,0.8-0.7,0.8c-0.4,0-0.7-0.3-0.7-0.7
						c0,0,0-0.1,0-0.1c0.2-0.1,0.4-0.1,0.7-0.1C268.9,191.1,269.1,191.1,269.3,191.2z"/>
					<path class="st60" d="M271.3,193C271.2,193.1,271.2,193.1,271.3,193c-0.4,0.2-0.8,0.1-1-0.2c-0.2-0.3-0.1-0.7,0.2-0.9
						c0,0,0.1,0,0.1,0c0.2,0.2,0.3,0.3,0.4,0.5C271.1,192.6,271.2,192.8,271.3,193z"/>
					<path class="st60" d="M270.6,195.7C270.6,195.7,270.5,195.7,270.6,195.7c-0.4-0.2-0.5-0.6-0.3-0.9c0.2-0.3,0.6-0.4,0.9-0.2
						c0,0,0,0,0.1,0.1c-0.1,0.2-0.1,0.4-0.3,0.6C270.9,195.3,270.8,195.5,270.6,195.7z"/>
					<path class="st60" d="M268,196.4C268,196.4,268,196.4,268,196.4c0-0.5,0.3-0.8,0.7-0.8c0.4,0,0.7,0.3,0.7,0.7c0,0,0,0.1,0,0.1
						c-0.2,0.1-0.4,0.1-0.7,0.1S268.2,196.5,268,196.4z"/>
					<path class="st60" d="M266.1,194.5C266.1,194.5,266.1,194.5,266.1,194.5c0.4-0.2,0.8-0.1,1,0.2c0.2,0.3,0.1,0.7-0.2,0.9
						c0,0-0.1,0-0.1,0c-0.2-0.2-0.3-0.3-0.4-0.5C266.2,194.9,266.1,194.7,266.1,194.5z"/>
					<path class="st60" d="M266.7,191.9C266.7,191.9,266.8,191.9,266.7,191.9c0.4,0.2,0.5,0.6,0.3,0.9c-0.2,0.3-0.6,0.4-0.9,0.2
						c0,0,0,0-0.1-0.1c0.1-0.2,0.1-0.4,0.3-0.6C266.4,192.2,266.6,192.1,266.7,191.9z"/>
				</g>
			</g>
			<path d="M268.7,186.6c0.1,0,0.3,0,0.4,0v0.7c0,0.1-0.1,0.3-0.3,0.3h-0.3c-0.1,0-0.3-0.1-0.3-0.3v-0.7
				C268.4,186.6,268.5,186.6,268.7,186.6z"/>
			<path d="M272.2,187.6c0.1,0.1,0.2,0.2,0.4,0.2l-0.3,0.6c-0.1,0.1-0.2,0.2-0.4,0.1l-0.3-0.2c-0.1-0.1-0.2-0.2-0.1-0.4l0.3-0.6
				C272,187.4,272.1,187.5,272.2,187.6z"/>
			<path d="M274.9,190.2c0.1,0.1,0.1,0.2,0.2,0.4l-0.6,0.3c-0.1,0.1-0.3,0-0.4-0.1l-0.2-0.3c-0.1-0.1,0-0.3,0.1-0.4l0.6-0.3
				C274.7,190,274.8,190.1,274.9,190.2z"/>
			<path d="M275.8,193.8c0,0.1,0,0.3,0,0.4h-0.7c-0.1,0-0.3-0.1-0.3-0.3v-0.3c0-0.1,0.1-0.3,0.3-0.3h0.7
				C275.8,193.5,275.8,193.6,275.8,193.8z"/>
			<path d="M274.9,197.4c-0.1,0.1-0.2,0.2-0.2,0.4l-0.6-0.3c-0.1-0.1-0.2-0.2-0.1-0.4l0.2-0.3c0.1-0.1,0.2-0.2,0.4-0.1l0.6,0.3
				C275,197.1,274.9,197.2,274.9,197.4z"/>
			<path d="M272.2,200c-0.1,0.1-0.2,0.1-0.4,0.2l-0.3-0.6c-0.1-0.1,0-0.3,0.1-0.4l0.3-0.2c0.1-0.1,0.3,0,0.4,0.1l0.3,0.6
				C272.5,199.8,272.4,199.9,272.2,200z"/>
			<path d="M268.7,201c-0.1,0-0.3,0-0.4,0v-0.7c0-0.1,0.1-0.3,0.3-0.3h0.3c0.1,0,0.3,0.1,0.3,0.3v0.7
				C268.9,200.9,268.8,201,268.7,201z"/>
			<path d="M265.1,200c-0.1-0.1-0.2-0.2-0.4-0.2l0.3-0.6c0.1-0.1,0.2-0.2,0.4-0.1l0.3,0.2c0.1,0.1,0.2,0.2,0.1,0.4l-0.3,0.6
				C265.3,200.1,265.2,200.1,265.1,200z"/>
			<path d="M262.5,197.4c-0.1-0.1-0.1-0.2-0.2-0.4l0.6-0.3c0.1-0.1,0.3,0,0.4,0.1l0.2,0.3c0.1,0.1,0,0.3-0.1,0.4l-0.6,0.3
				C262.6,197.6,262.5,197.5,262.5,197.4z"/>
			<path d="M261.5,193.8c0-0.1,0-0.3,0-0.4h0.7c0.1,0,0.3,0.1,0.3,0.3v0.3c0,0.1-0.1,0.3-0.3,0.3h-0.7
				C261.5,194.1,261.5,193.9,261.5,193.8z"/>
			<path d="M262.5,190.2c0.1-0.1,0.2-0.2,0.2-0.4l0.6,0.3c0.1,0.1,0.2,0.2,0.1,0.4l-0.2,0.3c-0.1,0.1-0.2,0.2-0.4,0.1l-0.6-0.3
				C262.3,190.5,262.4,190.3,262.5,190.2z"/>
			<path d="M265.1,187.6c0.1-0.1,0.2-0.1,0.4-0.2l0.3,0.6c0.1,0.1,0,0.3-0.1,0.4l-0.3,0.2c-0.1,0.1-0.3,0-0.4-0.1l-0.3-0.6
				C264.8,187.7,265,187.6,265.1,187.6z"/>
		</g>
		<g>
			<ellipse class="st60" cx="315.5" cy="193.8" rx="7.2" ry="7.2"/>
			<path class="st179" d="M315.4,197.7c2.2,0,3.9-1.8,3.9-3.9c0-2.2-1.8-3.9-3.9-3.9s-3.9,1.8-3.9,3.9
				C311.5,196,313.3,197.7,315.4,197.7z"/>
			<path class="st180" d="M315.4,197.4c2,0,3.6-1.6,3.6-3.6c0-2-1.6-3.6-3.6-3.6s-3.6,1.6-3.6,3.6
				C311.8,195.8,313.4,197.4,315.4,197.4z"/>
			<path class="st179" d="M315.4,196.5c1.5,0,2.7-1.2,2.7-2.7c0-1.5-1.2-2.7-2.7-2.7s-2.7,1.2-2.7,2.7
				C312.7,195.3,313.9,196.5,315.4,196.5z"/>
			<g>
				<path class="st60" d="M314.3,193.8c0,0.6,0.5,1.1,1.1,1.1c0.6,0,1.1-0.5,1.1-1.1s-0.5-1.1-1.1-1.1
					C314.8,192.7,314.3,193.2,314.3,193.8z"/>
				<g>
					<path class="st60" d="M316.1,191.2C316.1,191.2,316.1,191.2,316.1,191.2c0,0.5-0.3,0.8-0.7,0.8c-0.4,0-0.7-0.3-0.7-0.7
						c0,0,0-0.1,0-0.1c0.2-0.1,0.4-0.1,0.7-0.1C315.7,191.1,315.9,191.1,316.1,191.2z"/>
					<path class="st60" d="M318,193C318,193.1,318,193.1,318,193c-0.4,0.2-0.8,0.1-1-0.2c-0.2-0.3-0.1-0.7,0.2-0.9c0,0,0.1,0,0.1,0
						c0.2,0.2,0.3,0.3,0.4,0.5C317.9,192.6,318,192.8,318,193z"/>
					<path class="st60" d="M317.4,195.7C317.3,195.7,317.3,195.7,317.4,195.7c-0.4-0.2-0.5-0.6-0.3-0.9c0.2-0.3,0.6-0.4,0.9-0.2
						c0,0,0,0,0.1,0.1c-0.1,0.2-0.1,0.4-0.3,0.6C317.7,195.3,317.5,195.5,317.4,195.7z"/>
					<path class="st60" d="M314.8,196.4C314.8,196.4,314.8,196.4,314.8,196.4c0-0.5,0.3-0.8,0.7-0.8c0.4,0,0.7,0.3,0.7,0.7
						c0,0,0,0.1,0,0.1c-0.2,0.1-0.4,0.1-0.7,0.1C315.2,196.5,315,196.5,314.8,196.4z"/>
					<path class="st60" d="M312.8,194.5C312.8,194.5,312.9,194.5,312.8,194.5c0.4-0.2,0.8-0.1,1,0.2c0.2,0.3,0.1,0.7-0.2,0.9
						c0,0-0.1,0-0.1,0c-0.2-0.2-0.3-0.3-0.4-0.5C313,194.9,312.9,194.7,312.8,194.5z"/>
					<path class="st60" d="M313.5,191.9C313.5,191.9,313.5,191.9,313.5,191.9c0.4,0.2,0.5,0.6,0.3,0.9s-0.6,0.4-0.9,0.2
						c0,0,0,0-0.1-0.1c0.1-0.2,0.1-0.4,0.3-0.6C313.2,192.2,313.3,192.1,313.5,191.9z"/>
				</g>
			</g>
			<path d="M315.4,186.6c0.1,0,0.3,0,0.4,0v0.7c0,0.1-0.1,0.3-0.3,0.3h-0.3c-0.1,0-0.3-0.1-0.3-0.3v-0.7
				C315.2,186.6,315.3,186.6,315.4,186.6z"/>
			<path d="M319,187.6c0.1,0.1,0.2,0.2,0.4,0.2l-0.3,0.6c-0.1,0.1-0.2,0.2-0.4,0.1l-0.3-0.2c-0.1-0.1-0.2-0.2-0.1-0.4l0.3-0.6
				C318.8,187.4,318.9,187.5,319,187.6z"/>
			<path d="M321.6,190.2c0.1,0.1,0.1,0.2,0.2,0.4l-0.6,0.3c-0.1,0.1-0.3,0-0.4-0.1l-0.2-0.3c-0.1-0.1,0-0.3,0.1-0.4l0.6-0.3
				C321.5,190,321.6,190.1,321.6,190.2z"/>
			<path d="M322.6,193.8c0,0.1,0,0.3,0,0.4h-0.7c-0.1,0-0.3-0.1-0.3-0.3v-0.3c0-0.1,0.1-0.3,0.3-0.3h0.7
				C322.6,193.5,322.6,193.6,322.6,193.8z"/>
			<path d="M321.6,197.4c-0.1,0.1-0.2,0.2-0.2,0.4l-0.6-0.3c-0.1-0.1-0.2-0.2-0.1-0.4l0.2-0.3c0.1-0.1,0.2-0.2,0.4-0.1l0.6,0.3
				C321.8,197.1,321.7,197.2,321.6,197.4z"/>
			<path d="M319,200c-0.1,0.1-0.2,0.1-0.4,0.2l-0.3-0.6c-0.1-0.1,0-0.3,0.1-0.4l0.3-0.2c0.1-0.1,0.3,0,0.4,0.1l0.3,0.6
				C319.3,199.8,319.1,199.9,319,200z"/>
			<path d="M315.4,201c-0.1,0-0.3,0-0.4,0v-0.7c0-0.1,0.1-0.3,0.3-0.3h0.3c0.1,0,0.3,0.1,0.3,0.3v0.7
				C315.7,200.9,315.6,201,315.4,201z"/>
			<path d="M311.8,200c-0.1-0.1-0.2-0.2-0.4-0.2l0.3-0.6c0.1-0.1,0.2-0.2,0.4-0.1l0.3,0.2c0.1,0.1,0.2,0.2,0.1,0.4l-0.3,0.6
				C312.1,200.1,312,200.1,311.8,200z"/>
			<path d="M309.2,197.4c-0.1-0.1-0.1-0.2-0.2-0.4l0.6-0.3c0.1-0.1,0.3,0,0.4,0.1l0.2,0.3c0.1,0.1,0,0.3-0.1,0.4l-0.6,0.3
				C309.4,197.6,309.3,197.5,309.2,197.4z"/>
			<path d="M308.3,193.8c0-0.1,0-0.3,0-0.4h0.7c0.1,0,0.3,0.1,0.3,0.3v0.3c0,0.1-0.1,0.3-0.3,0.3h-0.7
				C308.3,194.1,308.3,193.9,308.3,193.8z"/>
			<path d="M309.2,190.2c0.1-0.1,0.2-0.2,0.2-0.4l0.6,0.3c0.1,0.1,0.2,0.2,0.1,0.4l-0.2,0.3c-0.1,0.1-0.2,0.2-0.4,0.1l-0.6-0.3
				C309.1,190.5,309.2,190.3,309.2,190.2z"/>
			<path d="M311.8,187.6c0.1-0.1,0.2-0.1,0.4-0.2l0.3,0.6c0.1,0.1,0,0.3-0.1,0.4l-0.3,0.2c-0.1,0.1-0.3,0-0.4-0.1l-0.3-0.6
				C311.6,187.7,311.7,187.6,311.8,187.6z"/>
		</g>
		<g>
			<g>
				<defs>
					<path id="SVGID_7_" d="M256.3,177.8c1.4-0.2,11.3-3.4,13.3-4.1c2-0.7,1.9-1.6,1.9-2.5s0.1-2.6,0.1-4.2c0-1.6-0.7-2-2.2-2
						c-1,0-5.5,0.1-7.3,0.1c-1.8,0-3,0.8-4.1,2c-2.4,2.9-3.7,7.1-3.7,8.8C254.4,177.7,255,178,256.3,177.8z"/>
				</defs>
				<clipPath id="SVGID_2_">
					<use xlink:href="#SVGID_7_"  style="overflow:visible;"/>
				</clipPath>
				<path class="st181" d="M265.3,174.6c0.3,0,0.6-0.1,0.7-0.4l3.9-6.1c0.3-0.4,0.1-0.9-0.3-1.2c-0.4-0.3-0.9-0.1-1.2,0.3l-3.9,6.1
					c-0.3,0.4-0.1,0.9,0.3,1.2C265,174.6,265.1,174.6,265.3,174.6z"/>
			</g>
			<g>
				<defs>
					<path id="SVGID_9_" d="M256.3,177.8c1.4-0.2,11.3-3.4,13.3-4.1c2-0.7,1.9-1.6,1.9-2.5s0.1-2.6,0.1-4.2c0-1.6-0.7-2-2.2-2
						c-1,0-5.5,0.1-7.3,0.1c-1.8,0-3,0.8-4.1,2c-2.4,2.9-3.7,7.1-3.7,8.8C254.4,177.7,255,178,256.3,177.8z"/>
				</defs>
				<clipPath id="SVGID_4_">
					<use xlink:href="#SVGID_9_"  style="overflow:visible;"/>
				</clipPath>
				<path class="st182" d="M260.7,175.3c0.3,0,0.6-0.1,0.7-0.4l3.8-6c0.3-0.4,0.1-0.9-0.3-1.2s-0.9-0.1-1.2,0.3l-3.8,6
					c-0.3,0.4-0.1,0.9,0.3,1.2C260.4,175.3,260.5,175.3,260.7,175.3z"/>
			</g>
			<g>
				<defs>
					<path id="SVGID_11_" d="M256.3,177.8c1.4-0.2,11.3-3.4,13.3-4.1c2-0.7,1.9-1.6,1.9-2.5s0.1-2.6,0.1-4.2c0-1.6-0.7-2-2.2-2
						c-1,0-5.5,0.1-7.3,0.1c-1.8,0-3,0.8-4.1,2c-2.4,2.9-3.7,7.1-3.7,8.8C254.4,177.7,255,178,256.3,177.8z"/>
				</defs>
				<clipPath id="SVGID_6_">
					<use xlink:href="#SVGID_11_"  style="overflow:visible;"/>
				</clipPath>
				<path class="st183" d="M259.3,171c0.3,0,0.6-0.1,0.7-0.4l4.4-6.9c0.3-0.4,0.1-0.9-0.3-1.2s-0.9-0.1-1.2,0.3l-4.4,6.9
					c-0.3,0.4-0.1,0.9,0.3,1.2C259,171,259.1,171,259.3,171z"/>
			</g>
		</g>
		<path class="st177" d="M250.9,187.4h2.4c0.1,0,0.3-0.1,0.3-0.3v-2.4c0-0.2-0.1-0.3-0.3-0.3l-2,0.3c-0.4,0.1-0.7,0.4-0.7,0.8v1.4
			C250.6,187.2,250.7,187.4,250.9,187.4z"/>
		<path class="st184" d="M253.3,187.2c0.1,0,0.1,0,0.1-0.1v-2.4c0-0.1,0-0.1-0.1-0.1l-2,0.3c-0.3,0.1-0.6,0.3-0.6,0.7v1.4
			c0,0.1,0.1,0.2,0.2,0.2H253.3z"/>
		<path class="st185" d="M251.9,186.1c0,0.4-0.2,0.8-0.5,1.1h-0.4c-0.1,0-0.1-0.1-0.1-0.1v-1.4c0-0.3,0.2-0.6,0.5-0.6
			C251.6,185.2,251.9,185.6,251.9,186.1z"/>
		<g>
			<path class="st180" d="M253.7,170.8h0.2v6.3h-0.2c-0.5,0-0.8-0.4-0.8-0.8v-4.6C252.8,171.2,253.2,170.8,253.7,170.8z"/>
			<path class="st180" d="M252.2,178h0.3v-3c0-0.2,0.2-0.4,0.4-0.4h0.5v-0.3h-0.5c-0.4,0-0.7,0.3-0.7,0.7V178z"/>
			<path class="st180" d="M252,178c0,0.2,0.2,0.4,0.4,0.4s0.4-0.2,0.4-0.4c0-0.2-0.2-0.4-0.4-0.4C252.2,177.6,252,177.8,252,178z"/>
		</g>
	</g>
</g>
<g>
	<g class="st142">
		<path class="st10" d="M385.3,204.5h-21.2c-0.9,0-1.7-0.8-1.7-1.8c0-1,0.7-1.8,1.7-1.8h21.2c0.9,0,1.7,0.8,1.7,1.8
			S386.2,204.5,385.3,204.5z"/>
		<path class="st143" d="M385.2,204.4h-21.1c-0.9,0-1.6-0.8-1.6-1.8s0.7-1.8,1.6-1.8h21.1c0.9,0,1.6,0.8,1.6,1.8
			C386.9,203.6,386.1,204.4,385.2,204.4z"/>
		<path class="st144" d="M385.2,204.4h-21.1c-0.9,0-1.6-0.8-1.6-1.7s0.7-1.7,1.6-1.7h21.1c0.9,0,1.6,0.8,1.6,1.7
			S386.1,204.4,385.2,204.4z"/>
		<path class="st145" d="M385.2,204.4h-21.1c-0.9,0-1.6-0.8-1.6-1.7c0-0.9,0.7-1.7,1.6-1.7h21.1c0.9,0,1.6,0.8,1.6,1.7
			C386.8,203.6,386.1,204.4,385.2,204.4z"/>
		<path class="st20" d="M385.2,204.3h-21c-0.9,0-1.5-0.7-1.5-1.7c0-0.9,0.7-1.7,1.5-1.7h21c0.9,0,1.5,0.7,1.5,1.7
			C386.7,203.6,386,204.3,385.2,204.3z"/>
		<path class="st146" d="M385.2,204.3h-21c-0.8,0-1.5-0.7-1.5-1.7c0-0.9,0.7-1.7,1.5-1.7h21c0.8,0,1.5,0.7,1.5,1.7
			C386.7,203.6,386,204.3,385.2,204.3z"/>
		<path class="st147" d="M385.1,204.3h-20.9c-0.8,0-1.5-0.7-1.5-1.6c0-0.9,0.7-1.6,1.5-1.6h20.9c0.8,0,1.5,0.7,1.5,1.6
			C386.6,203.6,386,204.3,385.1,204.3z"/>
		<path class="st148" d="M385.1,204.2h-20.9c-0.8,0-1.5-0.7-1.5-1.6c0-0.9,0.7-1.6,1.5-1.6h20.9c0.8,0,1.5,0.7,1.5,1.6
			C386.6,203.5,385.9,204.2,385.1,204.2z"/>
		<path class="st26" d="M385.1,204.2h-20.9c-0.8,0-1.4-0.7-1.4-1.6c0-0.9,0.6-1.6,1.4-1.6h20.9c0.8,0,1.4,0.7,1.4,1.6
			C386.5,203.5,385.9,204.2,385.1,204.2z"/>
		<path class="st149" d="M385.1,204.2h-20.8c-0.8,0-1.4-0.7-1.4-1.5c0-0.8,0.6-1.5,1.4-1.5h20.8c0.8,0,1.4,0.7,1.4,1.5
			C386.5,203.5,385.8,204.2,385.1,204.2z"/>
		<path class="st150" d="M385.1,204.1h-20.8c-0.8,0-1.4-0.7-1.4-1.5c0-0.8,0.6-1.5,1.4-1.5h20.8c0.8,0,1.4,0.7,1.4,1.5
			C386.4,203.5,385.8,204.1,385.1,204.1z"/>
		<path class="st151" d="M385,204.1h-20.7c-0.7,0-1.4-0.7-1.4-1.5c0-0.8,0.6-1.5,1.4-1.5H385c0.7,0,1.4,0.7,1.4,1.5
			C386.4,203.5,385.8,204.1,385,204.1z"/>
		<path class="st32" d="M385,204.1h-20.7c-0.7,0-1.3-0.6-1.3-1.4c0-0.8,0.6-1.4,1.3-1.4H385c0.7,0,1.3,0.6,1.3,1.4
			C386.3,203.4,385.7,204.1,385,204.1z"/>
		<path class="st152" d="M385,204.1h-20.6c-0.7,0-1.3-0.6-1.3-1.4c0-0.8,0.6-1.4,1.3-1.4H385c0.7,0,1.3,0.6,1.3,1.4
			C386.3,203.4,385.7,204.1,385,204.1z"/>
		<path class="st78" d="M385,204h-20.6c-0.7,0-1.3-0.6-1.3-1.4c0-0.8,0.6-1.4,1.3-1.4H385c0.7,0,1.3,0.6,1.3,1.4
			C386.2,203.4,385.7,204,385,204z"/>
		<path class="st153" d="M384.9,204h-20.6c-0.7,0-1.2-0.6-1.2-1.3c0-0.7,0.6-1.4,1.2-1.4h20.6c0.7,0,1.2,0.6,1.2,1.4
			C386.2,203.4,385.6,204,384.9,204z"/>
		<path class="st38" d="M384.9,204h-20.5c-0.7,0-1.2-0.6-1.2-1.3s0.5-1.3,1.2-1.3h20.5c0.7,0,1.2,0.6,1.2,1.3
			C386.1,203.4,385.6,204,384.9,204z"/>
		<path class="st154" d="M384.9,203.9h-20.5c-0.7,0-1.2-0.6-1.2-1.3c0-0.7,0.5-1.3,1.2-1.3h20.5c0.7,0,1.2,0.6,1.2,1.3
			C386.1,203.4,385.6,203.9,384.9,203.9z"/>
		<path class="st155" d="M384.9,203.9h-20.4c-0.6,0-1.2-0.6-1.2-1.3c0-0.7,0.5-1.3,1.2-1.3h20.4c0.6,0,1.2,0.6,1.2,1.3
			C386,203.3,385.5,203.9,384.9,203.9z"/>
		<path class="st156" d="M384.9,203.9h-20.4c-0.6,0-1.1-0.6-1.1-1.2c0-0.7,0.5-1.2,1.1-1.2h20.4c0.6,0,1.1,0.6,1.1,1.2
			C386,203.3,385.5,203.9,384.9,203.9z"/>
		<path class="st157" d="M384.8,203.8h-20.3c-0.6,0-1.1-0.5-1.1-1.2c0-0.7,0.5-1.2,1.1-1.2h20.3c0.6,0,1.1,0.5,1.1,1.2
			C385.9,203.3,385.5,203.8,384.8,203.8z"/>
		<path class="st158" d="M384.8,203.8h-20.3c-0.6,0-1.1-0.5-1.1-1.2c0-0.6,0.5-1.2,1.1-1.2h20.3c0.6,0,1.1,0.5,1.1,1.2
			C385.9,203.3,385.4,203.8,384.8,203.8z"/>
		<path class="st159" d="M384.8,203.8h-20.3c-0.6,0-1-0.5-1-1.1s0.5-1.1,1-1.1h20.3c0.6,0,1,0.5,1,1.1S385.4,203.8,384.8,203.8z"/>
		<path class="st1" d="M384.8,203.7h-20.2c-0.6,0-1-0.5-1-1.1c0-0.6,0.5-1.1,1-1.1h20.2c0.6,0,1,0.5,1,1.1
			C385.8,203.2,385.3,203.7,384.8,203.7z"/>
		<path class="st160" d="M384.8,203.7h-20.2c-0.6,0-1-0.5-1-1.1c0-0.6,0.4-1.1,1-1.1h20.2c0.6,0,1,0.5,1,1.1
			C385.8,203.2,385.3,203.7,384.8,203.7z"/>
		<path class="st51" d="M384.7,203.7h-20.1c-0.5,0-1-0.5-1-1c0-0.6,0.4-1,1-1h20.1c0.5,0,1,0.5,1,1
			C385.7,203.2,385.3,203.7,384.7,203.7z"/>
		<path class="st161" d="M384.7,203.7h-20.1c-0.5,0-0.9-0.5-0.9-1c0-0.6,0.4-1,0.9-1h20.1c0.5,0,0.9,0.5,0.9,1
			C385.7,203.2,385.2,203.7,384.7,203.7z"/>
		<path class="st162" d="M384.7,203.6h-20.1c-0.5,0-0.9-0.4-0.9-1c0-0.6,0.4-1,0.9-1h20.1c0.5,0,0.9,0.4,0.9,1
			C385.6,203.2,385.2,203.6,384.7,203.6z"/>
		<path class="st163" d="M384.7,203.6h-20c-0.5,0-0.9-0.4-0.9-1c0-0.5,0.4-1,0.9-1h20c0.5,0,0.9,0.4,0.9,1
			C385.6,203.2,385.2,203.6,384.7,203.6z"/>
		<path class="st57" d="M384.7,203.6h-20c-0.5,0-0.9-0.4-0.9-0.9c0-0.5,0.4-0.9,0.9-0.9h20c0.5,0,0.9,0.4,0.9,0.9
			C385.5,203.1,385.1,203.6,384.7,203.6z"/>
		<path class="st164" d="M384.6,203.5h-19.9c-0.5,0-0.8-0.4-0.8-0.9s0.4-0.9,0.8-0.9h19.9c0.5,0,0.8,0.4,0.8,0.9
			C385.5,203.1,385.1,203.5,384.6,203.5z"/>
		<path class="st165" d="M384.6,203.5h-19.9c-0.4,0-0.8-0.4-0.8-0.9c0-0.5,0.4-0.9,0.8-0.9h19.9c0.4,0,0.8,0.4,0.8,0.9
			C385.4,203.1,385.1,203.5,384.6,203.5z"/>
		<path class="st166" d="M384.6,203.5h-19.8c-0.4,0-0.8-0.4-0.8-0.8c0-0.5,0.3-0.8,0.8-0.8h19.8c0.4,0,0.8,0.4,0.8,0.8
			C385.4,203.1,385,203.5,384.6,203.5z"/>
		<path class="st63" d="M384.6,203.4h-19.8c-0.4,0-0.7-0.4-0.7-0.8c0-0.4,0.3-0.8,0.7-0.8h19.8c0.4,0,0.7,0.4,0.7,0.8
			C385.3,203.1,385,203.4,384.6,203.4z"/>
		<path class="st167" d="M384.6,203.4h-19.8c-0.4,0-0.7-0.4-0.7-0.8c0-0.4,0.3-0.8,0.7-0.8h19.8c0.4,0,0.7,0.4,0.7,0.8
			C385.3,203.1,384.9,203.4,384.6,203.4z"/>
		<path class="st168" d="M384.5,203.4h-19.7c-0.4,0-0.7-0.3-0.7-0.7c0-0.4,0.3-0.7,0.7-0.7h19.7c0.4,0,0.7,0.3,0.7,0.7
			C385.2,203,384.9,203.4,384.5,203.4z"/>
		<path class="st169" d="M384.5,203.3h-19.7c-0.4,0-0.7-0.3-0.7-0.7c0-0.4,0.3-0.7,0.7-0.7h19.7c0.4,0,0.7,0.3,0.7,0.7
			C385.2,203,384.9,203.3,384.5,203.3z"/>
		<path class="st69" d="M384.5,203.3h-19.6c-0.4,0-0.6-0.3-0.6-0.7s0.3-0.7,0.6-0.7h19.6c0.4,0,0.6,0.3,0.6,0.7
			S384.8,203.3,384.5,203.3z"/>
		<path class="st170" d="M384.5,203.3h-19.6c-0.3,0-0.6-0.3-0.6-0.7s0.3-0.7,0.6-0.7h19.6c0.3,0,0.6,0.3,0.6,0.7
			S384.8,203.3,384.5,203.3z"/>
		<path class="st171" d="M384.5,203.2h-19.6c-0.3,0-0.6-0.3-0.6-0.6c0-0.3,0.3-0.6,0.6-0.6h19.6c0.3,0,0.6,0.3,0.6,0.6
			S384.8,203.2,384.5,203.2z"/>
		<path class="st172" d="M384.4,203.2h-19.5c-0.3,0-0.6-0.3-0.6-0.6c0-0.3,0.2-0.6,0.6-0.6h19.5c0.3,0,0.6,0.3,0.6,0.6
			C385,202.9,384.7,203.2,384.4,203.2z"/>
		<path d="M384.4,203.2h-19.5c-0.3,0-0.5-0.3-0.5-0.6c0-0.3,0.2-0.6,0.5-0.6h19.5c0.3,0,0.5,0.3,0.5,0.6
			C384.9,202.9,384.7,203.2,384.4,203.2z"/>
	</g>
	<g>
		<g>
			<g>
				
					<rect x="361.2" y="178.4" transform="matrix(0.8825 -0.4703 0.4703 0.8825 -42.3186 192.6098)" class="st186" width="6.3" height="5.2"/>
				
					<rect x="360.5" y="179.5" transform="matrix(0.8825 -0.4703 0.4703 0.8825 -41.7634 192.1094)" class="st187" width="6.3" height="0.3"/>
				
					<rect x="363.8" y="178.4" transform="matrix(0.8825 -0.4703 0.4703 0.8825 -42.3179 192.6113)" class="st187" width="1.1" height="5.2"/>
				<g>
					<g>
						<path class="st187" d="M366.6,181.1C366.5,181.1,366.5,181.2,366.6,181.1l0.4,0.8c0,0,0,0.1,0,0.1c0,0-0.1,0-0.1,0
							c0,0,0,0-0.1,0s0,0,0,0.1c0.1,0.1,0.2,0.1,0.2,0.1c0.1,0,0.1-0.1,0.1-0.2L366.6,181.1C366.6,181.1,366.6,181.1,366.6,181.1z"
							/>
						<path class="st187" d="M366.6,181.2c0.1-0.1,0.4-0.1,0.6,0.1c-0.1,0-0.1,0-0.1,0.1c-0.1,0-0.1,0-0.1,0.1c-0.1,0-0.1,0-0.1,0
							c-0.1,0-0.1,0-0.1,0.1c-0.1,0-0.1,0-0.1,0.1c-0.1,0-0.1,0-0.1,0.1C366.3,181.4,366.5,181.3,366.6,181.2z"/>
					</g>
					<path class="st187" d="M367,180.8C367,180.8,367,180.9,367,180.8c-0.1,0.1-0.1,0-0.1,0s0.1-0.1,0.1-0.1S367,180.8,367,180.8z"
						/>
					<path class="st187" d="M366.9,181C366.9,181,366.8,181.1,366.9,181c-0.1,0.1-0.1,0-0.1,0s0.1-0.1,0.1-0.1
						S366.9,180.9,366.9,181z"/>
					<path class="st187" d="M367.1,181C367.1,181.1,367.1,181.1,367.1,181c-0.1,0.1-0.1,0-0.1,0s0.1-0.1,0.1-0.1
						S367.1,181,367.1,181z"/>
					<path class="st187" d="M367.9,181.8l-1.6,0.8l-0.7-1.3l1.6-0.8L367.9,181.8z M366.4,182.5l1.4-0.7l-0.6-1.2l-1.4,0.7
						L366.4,182.5z"/>
				</g>
			</g>
			<g>
				
					<rect x="363.7" y="182.3" transform="matrix(0.8825 -0.4703 0.4703 0.8825 -43.8558 194.9276)" class="st188" width="9.1" height="5.9"/>
				
					<rect x="362.8" y="183.5" transform="matrix(0.8825 -0.4703 0.4703 0.8825 -43.2358 194.3663)" class="st189" width="9.1" height="0.4"/>
				
					<rect x="367.6" y="182.2" transform="matrix(0.8825 -0.4703 0.4703 0.8825 -43.846 194.9306)" class="st189" width="1.1" height="5.9"/>
				<g>
					<path class="st189" d="M373.1,185.4l-1.7,0.9l-0.8-1.5l1.7-0.9L373.1,185.4z M371.4,186.1l1.5-0.8l-0.7-1.3l-1.5,0.8
						L371.4,186.1z"/>
					<g>
						
							<rect x="371.9" y="185.1" transform="matrix(0.882 -0.4712 0.4712 0.882 -43.4557 197.1492)" class="st189" width="0.1" height="0.6"/>
						<path class="st189" d="M372.4,185.5l-0.5,0.3C371.8,185.7,372.3,185.4,372.4,185.5L372.4,185.5z"/>
						<path class="st189" d="M371.7,184.5l0,0.2L371.7,184.5c0.1,0.1,0.1,0.5,0.1,0.5l0-0.3l-0.1,0.1l0,0v-0.1L371.7,184.5l-0.5,0.3
							l0.2,0.5c0,0,0.1,0.1,0.1,0.1c0.3,0,0.4,0,0.6-0.3c0,0,0-0.1,0-0.1l-0.2-0.5L371.7,184.5z"/>
					</g>
				</g>
			</g>
			<g>
				<g>
					
						<rect x="366.5" y="185.9" transform="matrix(0.8831 -0.4693 0.4693 0.8831 -45.6839 197.7466)" class="st186" width="14.9" height="9.3"/>
					
						<rect x="365.2" y="187.9" transform="matrix(0.8831 -0.4693 0.4693 0.8831 -44.691 196.8539)" class="st187" width="14.9" height="0.4"/>
					
						<rect x="372.4" y="185.9" transform="matrix(0.883 -0.4693 0.4693 0.883 -45.6697 197.7483)" class="st187" width="3" height="9.3"/>
					
						<rect x="378.8" y="190.1" transform="matrix(0.8831 -0.4693 0.4693 0.8831 -45.145 200.8376)" class="st190" width="3.2" height="1.8"/>
					<g>
						<path class="st187" d="M379.6,192.2c-0.1,0-0.1,0-0.2-0.1l-0.5-1c0-0.1,0-0.1,0.1-0.2c0.1,0,0.1,0,0.2,0.1l0.5,1
							C379.7,192.1,379.7,192.2,379.6,192.2z"/>
						<path class="st187" d="M380,192c-0.1,0-0.1,0-0.2-0.1l-0.3-0.6c0-0.1,0-0.1,0.1-0.2c0.1,0,0.1,0,0.2,0.1l0.3,0.6
							C380.1,191.9,380.1,191.9,380,192z"/>
						<path class="st187" d="M380.5,191.7c-0.1,0-0.1,0-0.2-0.1l-0.2-0.4c0-0.1,0-0.1,0.1-0.2c0.1,0,0.1,0,0.2,0.1l0.2,0.4
							C380.6,191.6,380.5,191.7,380.5,191.7z"/>
						<path class="st187" d="M380.9,191.5c-0.1,0-0.1,0-0.2-0.1l-0.5-0.9c0-0.1,0-0.1,0.1-0.2c0.1,0,0.1,0,0.2,0.1l0.5,0.9
							C381,191.4,381,191.5,380.9,191.5z"/>
						<path class="st187" d="M381.3,191.3c-0.1,0-0.1,0-0.2-0.1l-0.6-1.1c0-0.1,0-0.1,0.1-0.2c0.1,0,0.1,0,0.2,0.1l0.6,1.1
							C381.4,191.2,381.4,191.2,381.3,191.3z"/>
						<path class="st187" d="M381.8,191c-0.1,0-0.1,0-0.2-0.1l-0.4-0.8c0-0.1,0-0.1,0.1-0.2c0.1,0,0.1,0,0.2,0.1l0.4,0.8
							C381.8,190.9,381.8,191,381.8,191z"/>
					</g>
				</g>
				<g>
					<path class="st187" d="M378.2,187.6l-1.7,0.9l-0.8-1.4l1.7-0.9L378.2,187.6z M376.5,188.4l1.5-0.8l-0.7-1.3l-1.5,0.8
						L376.5,188.4z"/>
					<path class="st187" d="M376.6,187.8C376.6,187.8,376.6,187.8,376.6,187.8l0-0.1l0.1,0l-0.1-0.3l-0.2,0.3l0.1,0l0,0.1
						c0,0.1,0,0.1,0.1,0.2c0.1,0,0.1,0,0.2,0l0.4-0.2l-0.1-0.1L376.6,187.8C376.6,187.9,376.6,187.9,376.6,187.8z M377.6,187.2
						l-0.3-0.2l-0.1,0.1l0.3,0.2c0,0,0,0,0,0s0,0,0,0l-0.2,0.1l0-0.1l-0.2,0.3l0.4,0l0-0.1l0.2-0.1c0.1,0,0.1-0.1,0.1-0.2
						C377.7,187.3,377.6,187.2,377.6,187.2z M376.7,187.1C376.7,187,376.7,187,376.7,187.1c0.1-0.1,0.1-0.1,0.2-0.1l0.1,0l0,0.1
						l0.3,0l-0.2-0.3l0,0.1l-0.1,0c-0.1,0-0.2,0-0.3,0c-0.1,0-0.1,0.1-0.1,0.2l0,0.3l0.1,0L376.7,187.1z"/>
				</g>
				<g>
					<path class="st187" d="M380,186.6l-1.7,0.9l-0.8-1.4l1.7-0.9L380,186.6z M378.3,187.4l1.5-0.8l-0.7-1.3l-1.5,0.8L378.3,187.4z"
						/>
					<g>
						
							<rect x="378.5" y="186.7" transform="matrix(0.8785 -0.4777 0.4777 0.8785 -43.1898 203.7433)" class="st187" width="1" height="0.1"/>
						<g>
							<g>
								
									<rect x="378.5" y="186.1" transform="matrix(0.8785 -0.4778 0.4778 0.8785 -43.092 203.548)" class="st187" width="0.1" height="0.7"/>
								<g>
									<polygon class="st187" points="378.6,186.1 378.3,185.9 378.3,186.3 									"/>
								</g>
							</g>
							<g>
								
									<rect x="379" y="185.9" transform="matrix(0.8785 -0.4778 0.4778 0.8785 -42.9266 203.7257)" class="st187" width="0.1" height="0.7"/>
								<g>
									<polygon class="st187" points="379,185.9 378.7,185.7 378.7,186.1 									"/>
								</g>
							</g>
						</g>
					</g>
				</g>
			</g>
		</g>
		<path class="st191" d="M382.6,196.4c-0.3,0.2-0.7,0.1-0.9-0.3l-1.4-2.7c-0.2-0.3-0.1-0.7,0.3-0.9c0.3-0.2,0.7-0.1,0.9,0.3l1.4,2.7
			C383.1,195.8,383,196.2,382.6,196.4z"/>
		<path class="st191" d="M383.2,192.3l-10.7,5.7c-0.3,0.1-0.6,0.1-0.8-0.1c-0.8-0.8-2-1.1-3.1-0.8c-0.3,0.1-0.6-0.1-0.7-0.3
			l-10.2-19.2l-6.7,0.9c-0.4,0.1-0.7-0.2-0.8-0.6c-0.1-0.4,0.2-0.7,0.6-0.8l7-1c0.3-0.1,0.6,0.1,0.8,0.3l10.3,19.3
			c1.2-0.1,2.5,0.2,3.5,0.9l10.3-5.5c0.3-0.2,0.7-0.1,0.9,0.3C383.7,191.7,383.5,192.2,383.2,192.3z"/>
		<g>
			<path class="st88" d="M373.5,197.4c0.1-0.1,0.2-0.2,0.1-0.3l-0.2-0.5c-0.1-0.1-0.2-0.2-0.3-0.1c0.1-0.1,0.1-0.2,0-0.4l-0.4-0.4
				c-0.1-0.1-0.2-0.1-0.4-0.1c0.1-0.1,0.1-0.3-0.1-0.4l-0.5-0.3c-0.1-0.1-0.3-0.1-0.4,0c0-0.1,0-0.3-0.1-0.3l-0.5-0.2
				c-0.1-0.1-0.3,0-0.3,0.1c0-0.1-0.1-0.3-0.2-0.3l-0.6-0.1c-0.1,0-0.3,0.1-0.3,0.2c0-0.1-0.2-0.2-0.3-0.2l-0.6,0.1
				c-0.1,0-0.2,0.1-0.2,0.3c-0.1-0.1-0.2-0.2-0.3-0.1l-0.5,0.2c-0.1,0.1-0.2,0.2-0.1,0.3c-0.1-0.1-0.2-0.1-0.4,0l-0.4,0.4
				c-0.1,0.1-0.1,0.2-0.1,0.4c-0.1-0.1-0.3-0.1-0.4,0.1l-0.3,0.5c-0.1,0.1-0.1,0.3,0,0.4c-0.1,0-0.3,0-0.3,0.1l-0.2,0.5
				c-0.1,0.1,0,0.3,0.1,0.3c-0.1,0-0.3,0.1-0.3,0.2l-0.1,0.6c0,0.1,0.1,0.3,0.2,0.3c-0.1,0-0.2,0.2-0.2,0.3l0.1,0.6
				c0,0.1,0.1,0.2,0.3,0.2c-0.1,0.1-0.2,0.2-0.1,0.3l0.2,0.5c0.1,0.1,0.2,0.2,0.3,0.1c-0.1,0.1-0.1,0.2,0,0.4l0.4,0.4
				c0.1,0.1,0.2,0.1,0.4,0.1c-0.1,0.1-0.1,0.3,0.1,0.4l0.5,0.3c0.1,0.1,0.3,0.1,0.4,0c0,0.1,0,0.3,0.1,0.3l0.5,0.2
				c0.1,0.1,0.3,0,0.3-0.1c0,0.1,0.1,0.3,0.2,0.3l0.6,0.1c0.1,0,0.3-0.1,0.3-0.2c0,0.1,0.2,0.2,0.3,0.2l0.6-0.1
				c0.1,0,0.2-0.1,0.2-0.3c0.1,0.1,0.2,0.2,0.3,0.1l0.5-0.2c0.1-0.1,0.2-0.2,0.1-0.3c0.1,0.1,0.2,0.1,0.4,0l0.4-0.4
				c0.1-0.1,0.1-0.2,0.1-0.4c0.1,0.1,0.3,0.1,0.4-0.1l0.3-0.5c0.1-0.1,0.1-0.3,0-0.4c0.1,0,0.3,0,0.3-0.1l0.2-0.5
				c0.1-0.1,0-0.3-0.1-0.3c0.1,0,0.3-0.1,0.3-0.2l0.1-0.6c0-0.1-0.1-0.3-0.2-0.3c0.1,0,0.2-0.2,0.2-0.3l-0.1-0.6
				C373.8,197.5,373.7,197.4,373.5,197.4z"/>
			<path class="st192" d="M370.7,200.7c-1.2,0.6-2.7,0.2-3.4-1c-0.6-1.2-0.2-2.7,1-3.4c1.2-0.6,2.7-0.2,3.4,1
				C372.4,198.5,371.9,200.1,370.7,200.7z"/>
			<path class="st193" d="M370.6,197.9c0.3,0.6,0.1,1.4-0.5,1.7c-0.6,0.3-1.4,0.1-1.7-0.5c-0.3-0.6-0.1-1.4,0.5-1.7
				C369.5,197,370.3,197.3,370.6,197.9z"/>
			<path class="st194" d="M370,198.2c0.1,0.3,0,0.6-0.2,0.8c-0.3,0.1-0.6,0-0.8-0.2c-0.1-0.3,0-0.6,0.2-0.8
				C369.5,197.9,369.9,198,370,198.2z"/>
			<g>
				<path class="st95" d="M372.7,196.8c-0.9-1.8-3.1-2.4-4.9-1.5c-1.8,0.9-2.4,3.1-1.5,4.9c0.9,1.8,3.1,2.4,4.9,1.5
					C373,200.8,373.7,198.6,372.7,196.8z M370.7,200.7c-1.2,0.6-2.7,0.2-3.4-1c-0.6-1.2-0.2-2.7,1-3.4c1.2-0.6,2.7-0.2,3.4,1
					C372.4,198.5,371.9,200.1,370.7,200.7z"/>
			</g>
		</g>
		<g>
			<path class="st192" d="M355.6,178.2c-0.1,0-0.2,0-0.2,0.1l-4.3,0.6c-0.6,0.1-1.2-0.4-1.3-1c-0.1-0.6,0.4-1.2,1-1.3l4.3-0.6
				c0.6-0.1,1.2,0.4,1.3,1C356.4,177.6,356.1,178.1,355.6,178.2z"/>
			<g>
				<path class="st195" d="M351.8,178.9l-0.4,0.1c-0.1,0-0.2,0-0.2-0.1l-0.3-2.2c0-0.1,0-0.2,0.1-0.2l0.4-0.1c0.1,0,0.2,0,0.2,0.1
					l0.3,2.2C352,178.8,351.9,178.9,351.8,178.9z"/>
				<path class="st195" d="M352.9,178.8l-0.4,0.1c-0.1,0-0.2,0-0.2-0.1l-0.3-2.2c0-0.1,0-0.2,0.1-0.2l0.4-0.1c0.1,0,0.2,0,0.2,0.1
					l0.3,2.2C353,178.7,352.9,178.8,352.9,178.8z"/>
				<path class="st195" d="M353.9,178.6l-0.4,0.1c-0.1,0-0.2,0-0.2-0.1l-0.3-2.2c0-0.1,0-0.2,0.1-0.2l0.4-0.1c0.1,0,0.2,0,0.2,0.1
					l0.3,2.2C354,178.5,354,178.6,353.9,178.6z"/>
				<path class="st195" d="M355,178.5l-0.4,0.1c-0.1,0-0.2,0-0.2-0.1l-0.3-2.2c0-0.1,0-0.2,0.1-0.2l0.4-0.1c0.1,0,0.2,0,0.2,0.1
					l0.3,2.2C355.1,178.4,355,178.5,355,178.5z"/>
			</g>
		</g>
	</g>
</g>
<g>
	<g class="st142">
		<path class="st10" d="M424.5,187h-14.7c-0.6,0-1.1-0.6-1.1-1.2c0-0.7,0.5-1.2,1.1-1.2h14.7c0.6,0,1.1,0.6,1.1,1.2
			C425.7,186.4,425.2,187,424.5,187z"/>
		<path class="st143" d="M424.5,186.9h-14.7c-0.6,0-1.1-0.6-1.1-1.2c0-0.7,0.5-1.2,1.1-1.2h14.7c0.6,0,1.1,0.6,1.1,1.2
			C425.6,186.4,425.1,186.9,424.5,186.9z"/>
		<path class="st144" d="M424.5,186.9h-14.7c-0.6,0-1.1-0.5-1.1-1.2c0-0.7,0.5-1.2,1.1-1.2h14.7c0.6,0,1.1,0.5,1.1,1.2
			C425.6,186.4,425.1,186.9,424.5,186.9z"/>
		<path class="st145" d="M424.5,186.9h-14.7c-0.6,0-1.1-0.5-1.1-1.2c0-0.6,0.5-1.2,1.1-1.2h14.7c0.6,0,1.1,0.5,1.1,1.2
			C425.6,186.4,425.1,186.9,424.5,186.9z"/>
		<path class="st20" d="M424.5,186.9h-14.7c-0.6,0-1.1-0.5-1.1-1.2c0-0.6,0.5-1.2,1.1-1.2h14.7c0.6,0,1.1,0.5,1.1,1.2
			C425.6,186.3,425.1,186.9,424.5,186.9z"/>
		<path class="st146" d="M424.5,186.9h-14.7c-0.6,0-1.1-0.5-1.1-1.1c0-0.6,0.5-1.1,1.1-1.1h14.7c0.6,0,1.1,0.5,1.1,1.1
			S425.1,186.9,424.5,186.9z"/>
		<path class="st147" d="M424.5,186.8h-14.7c-0.6,0-1-0.5-1-1.1c0-0.6,0.5-1.1,1-1.1h14.7c0.6,0,1,0.5,1,1.1
			C425.5,186.3,425.1,186.8,424.5,186.8z"/>
		<path class="st148" d="M424.5,186.8h-14.6c-0.6,0-1-0.5-1-1.1c0-0.6,0.5-1.1,1-1.1h14.6c0.6,0,1,0.5,1,1.1
			S425.1,186.8,424.5,186.8z"/>
		<path class="st26" d="M424.5,186.8h-14.6c-0.6,0-1-0.5-1-1.1c0-0.6,0.5-1.1,1-1.1h14.6c0.6,0,1,0.5,1,1.1
			C425.5,186.3,425.1,186.8,424.5,186.8z"/>
		<path class="st149" d="M424.5,186.8h-14.6c-0.5,0-1-0.5-1-1.1c0-0.6,0.4-1.1,1-1.1h14.6c0.5,0,1,0.5,1,1.1
			C425.5,186.3,425.1,186.8,424.5,186.8z"/>
		<path class="st150" d="M424.5,186.7h-14.6c-0.5,0-1-0.5-1-1s0.4-1,1-1h14.6c0.5,0,1,0.5,1,1S425,186.7,424.5,186.7z"/>
		<path class="st151" d="M424.5,186.7h-14.6c-0.5,0-0.9-0.5-0.9-1c0-0.6,0.4-1,0.9-1h14.6c0.5,0,0.9,0.5,0.9,1
			C425.4,186.3,425,186.7,424.5,186.7z"/>
		<path class="st32" d="M424.5,186.7h-14.6c-0.5,0-0.9-0.5-0.9-1c0-0.6,0.4-1,0.9-1h14.6c0.5,0,0.9,0.5,0.9,1
			C425.4,186.3,425,186.7,424.5,186.7z"/>
		<path class="st152" d="M424.5,186.7h-14.6c-0.5,0-0.9-0.4-0.9-1c0-0.5,0.4-1,0.9-1h14.6c0.5,0,0.9,0.4,0.9,1
			C425.4,186.2,425,186.7,424.5,186.7z"/>
		<path class="st78" d="M424.5,186.7h-14.6c-0.5,0-0.9-0.4-0.9-1c0-0.5,0.4-1,0.9-1h14.6c0.5,0,0.9,0.4,0.9,1
			C425.4,186.2,425,186.7,424.5,186.7z"/>
		<path class="st153" d="M424.5,186.6h-14.6c-0.5,0-0.9-0.4-0.9-0.9c0-0.5,0.4-0.9,0.9-0.9h14.6c0.5,0,0.9,0.4,0.9,0.9
			C425.4,186.2,425,186.6,424.5,186.6z"/>
		<path class="st38" d="M424.5,186.6h-14.6c-0.5,0-0.8-0.4-0.8-0.9c0-0.5,0.4-0.9,0.8-0.9h14.6c0.5,0,0.8,0.4,0.8,0.9
			C425.4,186.2,425,186.6,424.5,186.6z"/>
		<path class="st154" d="M424.5,186.6h-14.6c-0.5,0-0.8-0.4-0.8-0.9s0.4-0.9,0.8-0.9h14.6c0.5,0,0.8,0.4,0.8,0.9
			S425,186.6,424.5,186.6z"/>
		<path class="st155" d="M424.5,186.6h-14.6c-0.5,0-0.8-0.4-0.8-0.9s0.4-0.9,0.8-0.9h14.6c0.5,0,0.8,0.4,0.8,0.9
			S425,186.6,424.5,186.6z"/>
		<path class="st156" d="M424.5,186.6h-14.6c-0.4,0-0.8-0.4-0.8-0.9c0-0.5,0.4-0.9,0.8-0.9h14.6c0.4,0,0.8,0.4,0.8,0.9
			C425.3,186.2,424.9,186.6,424.5,186.6z"/>
		<path class="st157" d="M424.5,186.5h-14.6c-0.4,0-0.8-0.4-0.8-0.8c0-0.5,0.4-0.8,0.8-0.8h14.6c0.4,0,0.8,0.4,0.8,0.8
			C425.3,186.2,424.9,186.5,424.5,186.5z"/>
		<path class="st158" d="M424.5,186.5h-14.6c-0.4,0-0.8-0.4-0.8-0.8s0.3-0.8,0.8-0.8h14.6c0.4,0,0.8,0.4,0.8,0.8
			C425.3,186.2,424.9,186.5,424.5,186.5z"/>
		<path class="st159" d="M424.5,186.5h-14.6c-0.4,0-0.7-0.4-0.7-0.8c0-0.4,0.3-0.8,0.7-0.8h14.6c0.4,0,0.7,0.4,0.7,0.8
			C425.2,186.1,424.9,186.5,424.5,186.5z"/>
		<path class="st1" d="M424.5,186.5h-14.6c-0.4,0-0.7-0.4-0.7-0.8c0-0.4,0.3-0.8,0.7-0.8h14.6c0.4,0,0.7,0.4,0.7,0.8
			C425.2,186.1,424.9,186.5,424.5,186.5z"/>
		<path class="st160" d="M424.5,186.5h-14.6c-0.4,0-0.7-0.3-0.7-0.8c0-0.4,0.3-0.8,0.7-0.8h14.6c0.4,0,0.7,0.3,0.7,0.8
			C425.2,186.1,424.9,186.5,424.5,186.5z"/>
		<path class="st51" d="M424.5,186.4h-14.6c-0.4,0-0.7-0.3-0.7-0.7c0-0.4,0.3-0.7,0.7-0.7h14.6c0.4,0,0.7,0.3,0.7,0.7
			C425.2,186.1,424.9,186.4,424.5,186.4z"/>
		<path class="st161" d="M424.5,186.4h-14.6c-0.4,0-0.7-0.3-0.7-0.7c0-0.4,0.3-0.7,0.7-0.7h14.6c0.4,0,0.7,0.3,0.7,0.7
			C425.2,186.1,424.9,186.4,424.5,186.4z"/>
		<path class="st162" d="M424.5,186.4h-14.6c-0.4,0-0.6-0.3-0.6-0.7c0-0.4,0.3-0.7,0.6-0.7h14.6c0.4,0,0.6,0.3,0.6,0.7
			C425.1,186.1,424.9,186.4,424.5,186.4z"/>
		<path class="st163" d="M424.5,186.4h-14.6c-0.4,0-0.6-0.3-0.6-0.7c0-0.4,0.3-0.7,0.6-0.7h14.6c0.4,0,0.6,0.3,0.6,0.7
			C425.1,186.1,424.8,186.4,424.5,186.4z"/>
		<path class="st57" d="M424.5,186.4h-14.6c-0.3,0-0.6-0.3-0.6-0.7s0.3-0.7,0.6-0.7h14.6c0.3,0,0.6,0.3,0.6,0.7
			S424.8,186.4,424.5,186.4z"/>
		<path class="st164" d="M424.5,186.3h-14.6c-0.3,0-0.6-0.3-0.6-0.6s0.3-0.6,0.6-0.6h14.6c0.3,0,0.6,0.3,0.6,0.6
			S424.8,186.3,424.5,186.3z"/>
		<path class="st165" d="M424.5,186.3h-14.6c-0.3,0-0.6-0.3-0.6-0.6c0-0.3,0.3-0.6,0.6-0.6h14.6c0.3,0,0.6,0.3,0.6,0.6
			C425.1,186,424.8,186.3,424.5,186.3z"/>
		<path class="st166" d="M424.5,186.3h-14.6c-0.3,0-0.6-0.3-0.6-0.6s0.3-0.6,0.6-0.6h14.6c0.3,0,0.6,0.3,0.6,0.6
			S424.8,186.3,424.5,186.3z"/>
		<path class="st63" d="M424.5,186.3h-14.6c-0.3,0-0.5-0.3-0.5-0.6c0-0.3,0.2-0.6,0.5-0.6h14.6c0.3,0,0.5,0.3,0.5,0.6
			C425,186,424.8,186.3,424.5,186.3z"/>
		<path class="st167" d="M424.5,186.2h-14.6c-0.3,0-0.5-0.3-0.5-0.6c0-0.3,0.2-0.6,0.5-0.6h14.6c0.3,0,0.5,0.3,0.5,0.6
			C425,186,424.8,186.2,424.5,186.2z"/>
		<path class="st168" d="M424.5,186.2h-14.6c-0.3,0-0.5-0.2-0.5-0.5c0-0.3,0.2-0.5,0.5-0.5h14.6c0.3,0,0.5,0.2,0.5,0.5
			C425,186,424.8,186.2,424.5,186.2z"/>
		<path class="st169" d="M424.5,186.2h-14.6c-0.3,0-0.5-0.2-0.5-0.5c0-0.3,0.2-0.5,0.5-0.5h14.6c0.3,0,0.5,0.2,0.5,0.5
			C425,186,424.8,186.2,424.5,186.2z"/>
		<path class="st69" d="M424.5,186.2h-14.6c-0.3,0-0.5-0.2-0.5-0.5c0-0.3,0.2-0.5,0.5-0.5h14.6c0.3,0,0.5,0.2,0.5,0.5
			C425,186,424.7,186.2,424.5,186.2z"/>
		<path class="st170" d="M424.5,186.2h-14.6c-0.2,0-0.5-0.2-0.5-0.5c0-0.3,0.2-0.5,0.5-0.5h14.6c0.2,0,0.5,0.2,0.5,0.5
			C424.9,186,424.7,186.2,424.5,186.2z"/>
		<path class="st171" d="M424.5,186.2h-14.6c-0.2,0-0.4-0.2-0.4-0.5s0.2-0.5,0.4-0.5h14.6c0.2,0,0.4,0.2,0.4,0.5
			S424.7,186.2,424.5,186.2z"/>
		<path class="st172" d="M424.5,186.1h-14.6c-0.2,0-0.4-0.2-0.4-0.4c0-0.2,0.2-0.4,0.4-0.4h14.6c0.2,0,0.4,0.2,0.4,0.4
			C424.9,185.9,424.7,186.1,424.5,186.1z"/>
		<path d="M424.5,186.1h-14.6c-0.2,0-0.4-0.2-0.4-0.4s0.2-0.4,0.4-0.4h14.6c0.2,0,0.4,0.2,0.4,0.4
			C424.9,185.9,424.7,186.1,424.5,186.1z"/>
	</g>
	<g>
		<rect x="409.8" y="176.6" class="st186" width="14.8" height="9.2"/>
		<rect x="409.8" y="178.2" class="st196" width="14.8" height="1"/>
		<rect x="409.5" y="176.6" class="st186" width="15.3" height="2.2"/>
		<rect x="415.7" y="176.6" class="st187" width="3" height="9.2"/>
		<g>
			<rect x="410.3" y="183.2" class="st197" width="4.1" height="2.3"/>
			<g>
				<rect x="410.5" y="183.4" class="st196" width="0.2" height="1.9"/>
				<rect x="410.9" y="183.4" class="st196" width="0.1" height="1.1"/>
				<rect x="411.1" y="183.4" class="st196" width="0.2" height="1.1"/>
				<rect x="411.4" y="183.4" class="st196" width="0.2" height="1.1"/>
				<rect x="411.7" y="183.4" class="st196" width="0.1" height="1.1"/>
				<rect x="412.3" y="183.4" class="st196" width="0.1" height="1.1"/>
				<rect x="412.9" y="183.4" class="st196" width="0.1" height="1.1"/>
				<rect x="413.1" y="183.4" class="st196" width="0.2" height="1.1"/>
				<rect x="413.4" y="183.4" class="st196" width="0.1" height="1.1"/>
				<rect x="413.6" y="183.4" class="st196" width="0.2" height="1.1"/>
				<rect x="412.5" y="183.4" class="st196" width="0.3" height="1.1"/>
				<rect x="411.9" y="183.4" class="st196" width="0.2" height="1.9"/>
				<rect x="414" y="183.4" class="st196" width="0.2" height="1.9"/>
			</g>
		</g>
		<g>
			<path class="st196" d="M422.5,184.8C422.5,184.8,422.5,184.8,422.5,184.8l0.1-0.2l0.1,0.1l0-0.5l-0.4,0.2l0.1,0.1l-0.1,0.1
				c-0.1,0.1-0.1,0.2,0,0.3s0.1,0.2,0.2,0.2h0.5v-0.2L422.5,184.8C422.6,184.9,422.5,184.8,422.5,184.8z M423.9,184.6l-0.2-0.4
				l-0.1,0.1l0.2,0.4c0,0,0,0.1,0,0.1c0,0,0,0-0.1,0h-0.3v-0.1l-0.4,0.3l0.4,0.3v-0.1h0.3c0.1,0,0.2-0.1,0.2-0.2
				C424,184.8,424,184.7,423.9,184.6z M423,183.9c0,0,0.1-0.1,0.1-0.1c0,0,0.1,0,0.1,0.1l0.1,0.1l-0.1,0.1l0.4,0.2l0-0.5l-0.1,0.1
				l-0.1-0.1c-0.1-0.1-0.2-0.2-0.3-0.2c-0.1,0-0.2,0.1-0.3,0.2l-0.2,0.4l0.1,0.1L423,183.9z"/>
			<g>
				<rect x="420.4" y="183" class="st196" width="1.3" height="0.1"/>
				<g>
					<g>
						<rect x="420.7" y="181.9" class="st196" width="0.2" height="1"/>
						<g>
							<polygon class="st196" points="421,182 420.7,181.5 420.5,182 							"/>
						</g>
					</g>
					<g>
						<rect x="421.3" y="181.9" class="st196" width="0.2" height="1"/>
						<g>
							<polygon class="st196" points="421.7,182 421.4,181.5 421.1,182 							"/>
						</g>
					</g>
				</g>
			</g>
			<g>
				<g>
					<path class="st196" d="M423.2,181.7C423.1,181.7,423.1,181.7,423.2,181.7l-0.1,1.2c0,0,0,0.1-0.1,0.1c-0.1,0-0.1,0-0.1-0.1
						c0,0,0-0.1-0.1-0.1s-0.1,0-0.1,0.1c0,0.2,0.1,0.2,0.2,0.2c0.1,0,0.2-0.1,0.2-0.2L423.2,181.7
						C423.2,181.7,423.2,181.7,423.2,181.7z"/>
					<path class="st196" d="M423.2,181.8c0.2,0,0.6,0.1,0.7,0.5c-0.1-0.1-0.2-0.1-0.2,0c-0.1-0.1-0.2-0.1-0.2,0
						c-0.1-0.1-0.1-0.1-0.2,0c-0.1,0-0.2,0-0.2,0c-0.1-0.1-0.2-0.1-0.2,0c-0.1-0.1-0.2-0.1-0.2,0C422.6,181.9,423,181.8,423.2,181.8
						z"/>
				</g>
				<path class="st196" d="M424,181.6c0,0.1-0.1,0.1-0.1,0.1c0,0,0-0.1,0-0.1c0-0.1,0.2-0.1,0.2-0.1S424,181.5,424,181.6z"/>
				<path class="st196" d="M423.7,181.7c0,0.1-0.1,0.1-0.1,0.1c0,0,0-0.1,0-0.1c0-0.1,0.2-0.1,0.2-0.1S423.7,181.7,423.7,181.7z"/>
				<path class="st196" d="M423.9,181.9c0,0.1-0.1,0.1-0.1,0.1c0,0,0-0.1,0-0.1c0-0.1,0.2-0.1,0.2-0.1S424,181.9,423.9,181.9z"/>
			</g>
			<g>
				
					<rect x="421" y="184.4" transform="matrix(1 -1.860459e-03 1.860459e-03 1 -0.3431 0.7837)" class="st196" width="0.2" height="0.7"/>
				<path class="st196" d="M421.5,185.2h-0.8v-0.1C420.7,185,421.5,185,421.5,185.2L421.5,185.2z"/>
				<path class="st196" d="M421.3,183.6l-0.1,0.2h0.1h0.1l0,0l-0.3,0.4l0.2-0.4l-0.2,0l-0.1,0l0-0.1l0.1-0.2h-0.6v0.7
					c0,0.1,0,0.1,0.1,0.1c0.3,0.2,0.5,0.2,0.8,0c0,0,0.1-0.1,0.1-0.1v-0.7H421.3z"/>
			</g>
			<path class="st196" d="M424.3,185.5H420v-4.3h4.3V185.5z M420.1,185.3h4v-4h-4V185.3z"/>
			<rect x="420.1" y="183.3" class="st196" width="4.2" height="0.2"/>
			<rect x="422.1" y="181.2" class="st196" width="0.2" height="4.2"/>
		</g>
	</g>
</g>
<g>
	<rect x="395.2" y="173.7" class="st186" width="7.2" height="6"/>
	<rect x="395.2" y="174.8" class="st187" width="7.2" height="0.3"/>
	<rect x="398.1" y="173.7" class="st187" width="1.2" height="6"/>
	<g>
		<g>
			<path class="st187" d="M400.9,178C400.9,178,400.9,178,400.9,178l-0.1,1c0,0,0,0.1-0.1,0.1c0,0-0.1,0-0.1-0.1c0,0,0,0,0,0
				s0,0,0,0c0,0.1,0.1,0.2,0.2,0.2c0.1,0,0.2-0.1,0.2-0.2L400.9,178C401,178,400.9,178,400.9,178z"/>
			<path class="st187" d="M400.9,178.1c0.1,0,0.4,0,0.5,0.4c0,0-0.1-0.1-0.2,0c-0.1-0.1-0.1-0.1-0.2,0c-0.1-0.1-0.1-0.1-0.2,0
				c-0.1,0-0.1,0-0.2,0c-0.1-0.1-0.1-0.1-0.2,0c-0.1-0.1-0.1-0.1-0.2,0C400.5,178.1,400.8,178.1,400.9,178.1z"/>
		</g>
		<path class="st187" d="M401.6,177.9C401.5,178,401.5,178,401.6,177.9c-0.1,0-0.1,0-0.1-0.1c0,0,0.1-0.1,0.1-0.1
			S401.6,177.9,401.6,177.9z"/>
		<path class="st187" d="M401.3,178C401.3,178.1,401.3,178.1,401.3,178c-0.1,0-0.1,0-0.1-0.1c0,0,0.1-0.1,0.1-0.1
			S401.3,178,401.3,178z"/>
		<path class="st187" d="M401.5,178.2C401.5,178.3,401.5,178.3,401.5,178.2c-0.1,0-0.1,0-0.1-0.1c0,0,0.1-0.1,0.1-0.1
			S401.6,178.2,401.5,178.2z"/>
		<path class="st187" d="M401.9,179.4l-2,0l0-1.7l2,0L401.9,179.4z M400,179.2l1.8,0l0-1.5l-1.8,0L400,179.2z"/>
	</g>
</g>
</svg>
