<?xml version="1.0" encoding="utf-8"?>
<!-- Generator: Adobe Illustrator 23.0.5, SVG Export Plug-In . SVG Version: 6.00 Build 0)  -->
<svg version="1.1" id="Layer_2" xmlns="http://www.w3.org/2000/svg" xmlns:xlink="http://www.w3.org/1999/xlink" x="0px" y="0px"
	 viewBox="0 0 5850.71 4027.46" style="enable-background:new 0 0 5850.71 4027.46;" xml:space="preserve">
<style type="text/css">
	.st0{fill:url(#SVGID_1_);}
	.st1{fill:#7E3107;}
	.st2{fill:#F7BA8B;}
	.st3{opacity:0.1;fill:#186DD7;}
	.st4{fill:#FF9F31;}
	.st5{fill:url(#SVGID_2_);}
	.st6{opacity:0.25;fill:#1D1D1B;}
	.st7{opacity:0.2;fill:#FFFFFF;}
	.st8{fill:#FFFFFF;}
	.st9{fill:#3C3C3B;}
	.st10{fill:#061E38;}
	.st11{fill:url(#SVGID_3_);}
	.st12{fill:url(#SVGID_4_);}
	.st13{fill:#C6C6C5;}
	.st14{fill:#186DD7;}
	.st15{fill:#2382DE;}
	.st16{fill:#F09C98;}
	.st17{fill:#FF8800;}
	.st18{fill:url(#SVGID_5_);}
	.st19{fill:url(#SVGID_6_);}
	.st20{fill:url(#SVGID_7_);}
	.st21{fill:url(#SVGID_8_);}
	.st22{fill:#401700;}
	.st23{fill:#5CAFF6;}
	.st24{fill:#CAA173;}
	.st25{fill:#DAB78D;}
	.st26{fill:#F7D0A0;}
	.st27{fill:#EBDECE;}
	.st28{fill:#DBCFC1;}
	.st29{opacity:0.2;fill:#1D1D1B;}
	.st30{fill:#868686;}
	.st31{fill:url(#SVGID_9_);}
	.st32{fill:url(#SVGID_10_);}
	.st33{fill:#642500;}
	.st34{fill:url(#SVGID_11_);}
	.st35{fill:url(#SVGID_12_);}
	.st36{fill:#9C9B9B;}
	.st37{fill:#E00AC3;}
	.st38{fill:#D9D9D9;}
	.st39{fill:#094AA8;}
	.st40{fill:#B1B1B1;}
	.st41{fill:#D4C8BA;}
	.st42{fill:#EBE4DB;}
	.st43{opacity:0.1;fill:#FFFFFF;}
	.st44{fill:url(#SVGID_13_);}
	.st45{fill:url(#SVGID_14_);}
	.st46{fill:url(#SVGID_15_);}
</style>
<linearGradient id="SVGID_1_" gradientUnits="userSpaceOnUse" x1="4935.6558" y1="3155.3323" x2="3613.7229" y2="4620.332">
	<stop  offset="0" style="stop-color:#509CF1"/>
	<stop  offset="1" style="stop-color:#99CAFF"/>
</linearGradient>
<path class="st0" d="M5915.62,4050.92H2925.35v-649.33c442.62-130.95,810.43-343.89,1247.7-372.16
	C4965.08,2978.24,5915.62,4050.92,5915.62,4050.92z"/>
<g>
	<path class="st1" d="M4141.55,3004.72l55.25-15.94l-79.94-162.35C4116.86,2826.43,4075.64,2921.18,4141.55,3004.72z"/>
	<g>
		<g>
			<g>
				<path class="st2" d="M4082.26,2962.72c-12.7,3.84-57.55,86.66-59.6,134.05c6.94,46.18,15.18,58.4,29.8,78.72
					c9.22-1.82-3.56-76.11-3.56-76.11L4082.26,2962.72z"/>
				<path class="st2" d="M4053.12,3059.44c14.49-7.61,30.11-11.1,46.85-10.47c11.9,0.04,23.36,1.7,34.39,4.95
					c0.09-0.33,0.18-0.65,0.27-0.98c14.45-51.81-1.02-82.83-27.1-91.56c-26.09-8.73-34.6,11.28-34.6,11.28
					c-12.62,19.55-19.24,53.1-23.72,88.17C4050.49,3060.34,4051.8,3059.87,4053.12,3059.44z"/>
				<path class="st2" d="M4022.66,3096.77c10.44,46.42,15.18,58.4,29.8,78.72L4022.66,3096.77z"/>
			</g>
			<g>
				
					<ellipse transform="matrix(0.121 -0.9927 0.9927 0.121 -61.7052 7520.4219)" class="st3" cx="4215.48" cy="3795.05" rx="100.62" ry="177.85"/>
				<g>
					<path class="st4" d="M4252.21,3267.25c-19.33-58.82-5.66-117.68-1.45-149.78c6.7-51.07,22.91-61.12,13.19-106.56
						c-66.95-20.33-154.38-63.21-164.8-47.58c-31.26,74.42-47.63,78.88-48.37,117.58c-0.74,38.7,12.65,46.88,12.65,46.88
						s28.15,26.43,20.09,100.32C4075.45,3302.01,4149.16,3508.15,4252.21,3267.25z"/>
					<linearGradient id="SVGID_2_" gradientUnits="userSpaceOnUse" x1="4165.4238" y1="3822.7437" x2="4147.833" y2="2957.8696">
						<stop  offset="0" style="stop-color:#248AE6"/>
						<stop  offset="1" style="stop-color:#53AAFE"/>
					</linearGradient>
					<path class="st5" d="M4213.82,3081.62c7.36-30.99,21.47-65.35,27.01-78.27c-6.5-2.25-13.08-4.62-19.66-7.03l-29.98,69.18
						c0,0-75.1-7.82-86.34-28.34c7.74-20.05,20.76-56.79,26.48-73.03c-6.41-1.8-12.11-3.09-16.9-3.72
						c-4.24,9.52-31.43,70.56-35.48,78.22c-2.41,4.56-13.71,10.29-23.93,15.67c-2.62,7.72-4.04,15.84-4.25,26.62
						c-0.74,38.7,12.65,46.88,12.65,46.88s27.66,38.23,20.09,100.32c-7.57,62.09,5.12,21.84,14.75,48.08
						c7.63,5.86,13.6,10.34,14.41,10.66c2.44,0.98,78.52,15.15,78.52,15.15l51.4-13.53c3.17-6.58,6.38-13.64,9.62-21.23
						c-17.01-67.21-6.49-114.32-1.45-149.78C4239.1,3117.58,4205.72,3115.71,4213.82,3081.62z"/>
					<path class="st6" d="M4248.02,3058.28c-18.25,42.62-18.89,125.16-18.89,125.16l13.27,4.03c1.2-28.22,6.12-52.91,8.36-70
						c5.04-38.39,15.45-53.6,16.18-78.08C4260.43,3039.94,4253.74,3044.93,4248.02,3058.28z"/>
					<path class="st7" d="M4210.53,3103.4c18.81-5.55,47.68-64.81,53.53-91.94c-0.04-0.18-0.07-0.36-0.11-0.55
						c-59.06-17.94-134.04-53.41-158.05-50.8c-13.52,23.25-45.9,82.61-35.32,100.7C4083.82,3083.48,4188.05,3110.03,4210.53,3103.4z
						"/>
				</g>
				<g>
					<polygon class="st8" points="4168.87,3077.88 4178.75,3224.38 4091.04,3214.82 4080.58,3067.15 					"/>
					<path class="st9" d="M4178.75,3227.37c-0.11,0-0.22-0.01-0.32-0.02l-87.7-9.55c-1.44-0.16-2.56-1.32-2.66-2.76l-10.46-147.68
						c-0.06-0.89,0.28-1.76,0.92-2.38c0.65-0.62,1.53-0.91,2.42-0.8l88.29,10.73c1.43,0.17,2.53,1.33,2.62,2.77l9.88,146.5
						c0.06,0.88-0.27,1.75-0.91,2.36C4180.26,3227.07,4179.52,3227.37,4178.75,3227.37z M4093.85,3212.12l81.67,8.9l-9.47-140.47
						l-82.24-9.99L4093.85,3212.12z"/>
				</g>
			</g>
		</g>
		<g>
			<path class="st10" d="M4149.73,3814.52c0,0-58.22,47.93-47.32,62.59c10.9,14.65,52.6,19.16,69.5-17.66
				c3.91-6.76,34.94-6.01,30.81-29.3c-4.13-23.29-4.79-33.35-12.16-31.14S4149.73,3814.52,4149.73,3814.52z"/>
			<path class="st10" d="M4220.53,3710.85c0,0-33.37,67.62-17.42,76.5c15.95,8.88,55.82-4.15,56.11-44.66
				c0.79-7.77,29.38-19.84,16.04-39.38s-18.07-28.43-23.88-23.39C4245.56,3684.97,4220.53,3710.85,4220.53,3710.85z"/>
			<linearGradient id="SVGID_3_" gradientUnits="userSpaceOnUse" x1="4162.6851" y1="3822.7981" x2="4145.0942" y2="2957.9236">
				<stop  offset="0" style="stop-color:#248AE6"/>
				<stop  offset="1" style="stop-color:#53AAFE"/>
			</linearGradient>
			<path class="st11" d="M4084.06,3228.68c0,0-35.29,251.2-23.87,286.49c11.42,35.29,160.89,209.68,160.89,209.68
				s42.56-13.49,36.33-40.48c-20.76-35.29-132.86-202.41-132.86-202.41l46.71-85.12l31.46-97.86
				C4202.71,3298.97,4095.47,3271.24,4084.06,3228.68z"/>
			<path class="st7" d="M4080.58,3509.68c-3.75-9.77,0-79,46.81-172.26c4.22-14.24,77.93-73.75,77.93-73.75
				s-3.81-87.75-22.12-102.89c-15.7-12.99-95.91-27.19-118.44-30.97c5.43,8.62,25.32,44.51,18.76,98.3
				c-0.93,7.6-1.55,13.65-1.91,18.5c-7.8,58.08-30.98,239-21.42,268.55c7.98,24.65,83.31,117.17,128.01,170.72
				C4158.49,3629.34,4083.4,3517.05,4080.58,3509.68z"/>
			<path class="st6" d="M4158.86,3384.43c0,0-49.21,83.4-43.87,100.34c4.86,15.42,110.38,188.99,137.47,220.03
				c4.35-5.63,6.78-12.44,4.94-20.44c-20.76-35.29-132.86-202.41-132.86-202.41l44.16-80.47L4158.86,3384.43z"/>
			<linearGradient id="SVGID_4_" gradientUnits="userSpaceOnUse" x1="4210.4146" y1="3821.8269" x2="4192.8237" y2="2956.9519">
				<stop  offset="0" style="stop-color:#248AE6"/>
				<stop  offset="1" style="stop-color:#53AAFE"/>
			</linearGradient>
			<path class="st12" d="M4249.99,3257.92c0,0-19.58,22.66-38.26,27.85c-6.01,0.08-11.71,0.01-17.14-0.18
				c-1.06,2.55-2.24,5.08-3.55,7.56c-4.9,15.07-13.28,28.12-25.14,39.13c-2.65,2.85-5.42,5.5-8.31,7.95c0.77,1.03,1.2,1.59,1.2,1.59
				l-15.57,268.84c0,0-3.11,149.47-3.11,201.37c28.03,45.67,62.28-3.11,62.28-3.11l9.34-280.26c0,0,12.2-64.71,48.79-148.13
				C4288.1,3317.64,4249.99,3257.92,4249.99,3257.92z"/>
			<path class="st6" d="M4250.02,3257.95c-5.64-25.39-7.35-47.81-7.08-67.75l-13.81-6.77c0,0-0.24,62.21,6.07,80.45
				c6.31,18.24,30.42,48.21,10.87,109.46c-19.55,61.24-54.08,121.19-56.68,162.23c-2.23,35.11-2.9,232.73-3.05,289.19
				c9.59-6.67,16.05-15.86,16.05-15.86l9.34-280.26c0,0,12.2-64.71,48.79-148.13C4287.71,3318.52,4251.04,3259.58,4250.02,3257.95z"
				/>
		</g>
		<g>
			<path class="st2" d="M4286.18,3024.5c0,0-7.6-19.97-33.78-11.5c-26.17,8.48-5.96,68.73-0.47,88.65
				c14.29,51.85,29.97,101.59,21.45,108.71c4.52,3.4,44.51,44.5,42.51-7.25S4299.95,3068.83,4286.18,3024.5z"/>
			<g>
				<path class="st2" d="M4188.41,3153.22c0,0-7.47,8.31-23.1,2.85c-15.63-5.46-46.38-14.03-47.57-24.32s-8.71-14,7.68-25.28
					c16.4-11.28,48.78,12.13,48.78,12.13s-0.43-4.3-0.64-9.5C4188.9,3123.67,4195.34,3126.36,4188.41,3153.22z"/>
			</g>
			<path class="st2" d="M4306.84,3185.44l-119.92-48.09c0,0-11.86-4.67-21.86,12.17c-5.31,8.95,4.42,3.38,15.29,11.88
				c33.83,26.44,117.88,66.47,117.88,66.47S4305.69,3215.33,4306.84,3185.44z"/>
		</g>
		<path class="st4" d="M4253.52,3007.63c0,0,50.53-8.59,52.94,84.6c-13.36,15.29-45.61,22.13-57.66,12.36
			C4236.75,3094.82,4226.12,3017.85,4253.52,3007.63z"/>
	</g>
	<path class="st2" d="M4136.61,2929c0,0,13.52,30.16-1.37,35.92c-11.01,19.79-13.61,35.75,13.42,43.9s53.09,9.26,63.68-16.22
		c-3.41-3.98-17.77-22.87-11.41-61.97C4207.31,2891.54,4136.61,2929,4136.61,2929z"/>
	<path class="st6" d="M4199.82,2959.22c-0.82-7.98-0.69-17.47,1.12-28.6c6.37-39.09-64.33-1.63-64.33-1.63s2.2,4.9,3.84,11.13
		c6.08,6.64,14.54,13.64,25.91,18.67C4176.23,2963.16,4188.65,2962.89,4199.82,2959.22z"/>
	<path class="st2" d="M4120.55,2844.26c7.36-82.17,147.41-43.01,125.06,39.79c-9.39,34.8-57.82,72.5-95.11,57.27
		C4113.09,2926.03,4117.61,2877.1,4120.55,2844.26z"/>
	<polygon class="st13" points="4150.17,3089.59 4095.28,3082.84 4094.69,3071.27 4149.59,3078.02 	"/>
	<path class="st1" d="M4192.19,2851.08c0,0-57.51,1.11-73.54,4.23s-1.69-70.53,59.57-73.39s84.5,67.43,84.32,98.94
		c-0.18,31.5,4.04,121.34-85.88,143.74C4204.53,2962.57,4206.82,2916.17,4192.19,2851.08z"/>
	<path class="st4" d="M4108.43,2959.98c0,0-29.32-7.36-39.91,10.23c-10.59,17.59-26.88,47.72-28.12,54.39
		c4.3,7.45,11.87,16.57,24.11,16.74S4108.43,2959.98,4108.43,2959.98z"/>
	<path class="st7" d="M4158.86,3544.61c5.31-54.82,25.96-77.44,43.46-149.7c15.69-64.82-33.23-31.15-46.13-8.17l-12.97,223.92
		c0,0-3.11,149.47-3.11,201.37c2.32,3.77,4.67,6.89,7.05,9.45C4148.29,3783.54,4154.09,3593.88,4158.86,3544.61z"/>
	<g>
		<g>
			<path class="st2" d="M4057.98,3165.4c0,0-11.12,4.67-1.97,16.37c7.27,9.3,24.25,23.47,35.43,21.27
				c11.18-2.2,16.63,1.2,25.31-11.69c8.68-12.89-14.97-21.83-14.97-21.83s19.02-3.68,0.15-7.26
				C4085.58,3159.17,4077.49,3158.27,4057.98,3165.4z"/>
		</g>
		<path class="st2" d="M4075.42,3159.12c-25.39-26.02-24.72-70.84-24.72-70.84l-3-3.37l-14.6,32.71l11.3,17.4
			c-25.72-8.67-4.78,14.86-4.78,14.86s3.1,12.51,18.29,33.55c3.5-5.78,7.38-10.86,9.32-15.95l0.48-0.31
			C4076.44,3171.57,4096.22,3180.43,4075.42,3159.12z"/>
		<path class="st6" d="M4065.36,3145.84c-12.15-20.55-14.24-45.19-14.59-54.12l12.32-50.47c0.47,0.03,0.94,0.08,1.42,0.08
			c12.24,0.16,43.92-81.36,43.92-81.36s-3.11-0.78-7.66-1.22l-42.87,78.4c0,0-20.98,58.15-3.39,91.87
			C4058.3,3136.26,4061.95,3141.72,4065.36,3145.84z"/>
	</g>
	<path class="st6" d="M4315.89,3203.12c-1.16-29.92-6.31-70.12-13.1-107.29c1.34-1.14,2.58-2.34,3.68-3.6
		c-1.56-60.22-23.21-77.94-38.33-82.93c12.35,25.78,26.4,80.3,26.4,80.3s16.04,111.75,8.28,125.71
		c-7.77,13.96-100.71-47.67-109.51-55.35c-8.8-7.68-48.87-15.29-62.99-23.19c-7.83-4.38-12.55-12.39-15.2-18.66
		c-0.72,4.15,1.96,7.85,2.63,13.66c1.19,10.3,31.94,18.86,47.57,24.32c3.43,1.2,6.47,1.73,9.12,1.84c1.87,0.79,3.87,1.89,5.91,3.49
		c28.21,22.05,91.36,53.55,111.54,63.4C4303.93,3231.9,4317.06,3233.32,4315.89,3203.12z"/>
	<path class="st6" d="M4114.37,3194.59c-5.22,0.07-13.73,0-27.59-0.41c-21.11-0.63-40.3-27.47-51.2-46.28
		c4.58,10.31,10.03,18.06,16.89,27.59c0.13,0.2,0.26,0.4,0.4,0.61c0.51,1.67,1.5,3.56,3.15,5.68c7.27,9.3,24.25,23.47,35.43,21.27
		C4101.56,3201.04,4106.98,3203.64,4114.37,3194.59z"/>
	<path class="st14" d="M4250.02,3257.95c-0.74-3.32-1.39-6.58-2-9.81c-0.67,0.3-1.32,0.58-1.99,0.88
		c-50.55,22.61-96.48,27.43-132.82,13.92c-14.5-5.39-24.88-12.74-31.43-18.45c-0.06,0.73-0.12,1.43-0.17,2.11
		c-0.76,5.7-1.68,12.59-2.7,20.4c6.94,4.8,15.6,9.71,26.13,13.76c16.09,6.18,33.71,9.3,52.49,9.3c2.93,0,5.89-0.08,8.88-0.23
		c27.15-1.38,56.62-9.11,87.59-22.96c0.24-0.11,0.46-0.21,0.7-0.31C4252.14,3261.36,4250.24,3258.31,4250.02,3257.95z"/>
	<path class="st15" d="M4070.9,3331.76c10.81-10.75,22.65-37.99,18.16-38.22c-3.25-0.17-8.38-4.2-12.52-7.99
		C4074.76,3299.51,4072.83,3315.24,4070.9,3331.76z"/>
	<path class="st15" d="M4201.12,3298.1c0,0,30.52-2.8,39.69-10.2c0,26.48-1.03,45.4-7.17,48.81
		C4227.5,3340.12,4206,3331.98,4201.12,3298.1z"/>
</g>
<g>
	<g>
		
			<ellipse transform="matrix(0.121 -0.9927 0.9927 0.121 825.0889 7419.4648)" class="st3" cx="4601.86" cy="3243.85" rx="108.3" ry="191.43"/>
		<g>
			<g>
				<path class="st16" d="M4601.86,2383.97c0,0-4.66-23.01-34.54-18.51c-29.88,4.5-42.93,35.4-37.12,94.19
					c5.81,58.79,3.09,111.01,7.38,115.51c4.29,4.49,13.66,60.31,45.14,11.15C4588.41,2532.47,4603.82,2445.34,4601.86,2383.97z"/>
				<g>
					<g>
						<polygon class="st2" points="4418.23,2581.27 4386.36,2582.1 4385,2604.07 4425.28,2604.57 						"/>
						<path class="st2" d="M4396.47,2601.22c0,0-3.42,11.78-21.49,13.84c-18.07,2.06-52.57,8.24-58.66-1.37
							c-6.09-9.62-15.3-9.69-4.46-28.67c10.84-18.98,42.69-12.65,42.69-12.65s-12.13-14.66,9.99-7.57
							C4386.66,2571.89,4390.51,2571.35,4396.47,2601.22z"/>
					</g>
					<path class="st2" d="M4553.78,2562.79l-151.19,18.89c0,0-23.65,19.46,7.68,22.7c45.5,4.71,159.1,4,159.1,4
						S4607.6,2568.02,4553.78,2562.79z"/>
				</g>
				<path class="st17" d="M4522.2,2473.93c-0.55-4.82-1.08-9.67-1.56-14.55c-5.81-58.79,16.81-89.41,46.68-93.91
					c29.88-4.5,34.54,18.51,34.54,18.51c8.67,20.51,11.38,54.16,10.2,85.22C4583.78,2494.92,4522.2,2473.93,4522.2,2473.93z"/>
			</g>
			<g>
				<g>
					<path class="st10" d="M4717.4,3229.54c0,0-28.06-14.27-41.59,13.29c-13.53,27.56-54.38,75.3-34.69,86.13
						c19.69,10.83,98.44-41.34,95.48-75.79C4733.64,3218.71,4717.4,3229.54,4717.4,3229.54z"/>
					<path class="st10" d="M4626.84,3192.13c0,0,12.03,43.31-10.47,44.3c-22.5,0.98-109.62,13.29-119.95,3.94
						c-10.34-9.35,37.9-49.71,83.18-58.57C4624.87,3172.94,4626.84,3192.13,4626.84,3192.13z"/>
					<path class="st16" d="M4723.3,3201.49c0,0,8.37,52.17-16.73,58.08c-25.1,5.91-28.55-21.66-24.61-58.08
						C4685.9,3165.07,4723.3,3201.49,4723.3,3201.49z"/>
					<linearGradient id="SVGID_5_" gradientUnits="userSpaceOnUse" x1="4623.7964" y1="3244.6992" x2="4623.7964" y2="2417.5081">
						<stop  offset="0" style="stop-color:#248AE6"/>
						<stop  offset="1" style="stop-color:#53AAFE"/>
					</linearGradient>
					<path class="st18" d="M4749.69,2698.82l-17.55,552.79c0,0-26.58,39.37-59.06,0c-7.87-77.76-28.04-440.42-28.04-440.42
						l-21.25-1.88l-43.12,163.22l35.81,230.97c0,0-34.89,22.4-58.52,4.68c-12.14-58.08-60.07-248.38-60.07-248.38l28.72-284.97
						L4749.69,2698.82z"/>
					<linearGradient id="SVGID_6_" gradientUnits="userSpaceOnUse" x1="4535.8677" y1="3214.5027" x2="4535.8677" y2="2912.1074">
						<stop  offset="0" style="stop-color:#248AE6"/>
						<stop  offset="1" style="stop-color:#53AAFE"/>
					</linearGradient>
					<path class="st19" d="M4521.22,2959.33c2.12-28.02,16.13-42.35-7.33-46.91c-3.88-0.75-7.7-0.08-11.38,1.57l-4.62,45.82
						c0,0,47.93,190.31,60.07,248.38c4.72,3.54,9.89,5.48,15.14,6.31c0.47-0.86,0.73-1.8,0.73-2.84
						C4573.84,3198.17,4519.11,2987.34,4521.22,2959.33z"/>
					<linearGradient id="SVGID_7_" gradientUnits="userSpaceOnUse" x1="4667.3198" y1="3259.749" x2="4667.3198" y2="2947.1453">
						<stop  offset="0" style="stop-color:#248AE6"/>
						<stop  offset="1" style="stop-color:#53AAFE"/>
					</linearGradient>
					<path class="st20" d="M4668.31,2948.9c-6.64-4.18-11.51-0.38-15.01,5.97c6.5,110.47,15.22,251.6,19.79,296.74
						c2.66,3.22,5.27,5.91,7.84,8.14C4681.75,3181.63,4682.82,2958.03,4668.31,2948.9z"/>
					<path class="st4" d="M4522.78,2425.65c3.61-38.39,25.8-65.67,66.99-62.68c21.09,1.53,42.1,5.5,62.27,11.52
						c19.6,5.85,45.9,16.38,60.02,31.85c4.47,4.9,18.56,10.22,22.08,15.95c3.13,2.28-11.13,8.02-9.08,12.23
						c12.44,25.47,17.37,50.66,19,77.54c0.84,2.94,1.42,6.11,1.37,9.75c-0.88,59.12,4.47,118.05,4.26,177.01
						c-0.15,44.27-34.42,65.1-75.44,71.46c-41.42,6.42-123.09-32.58-137.18-50.96c-12.42-16.21-11.72-71.96-13.59-119.27
						C4521.17,2541.58,4517.3,2483.91,4522.78,2425.65z"/>
					<linearGradient id="SVGID_8_" gradientUnits="userSpaceOnUse" x1="4635.4644" y1="3244.699" x2="4635.4644" y2="2417.5046">
						<stop  offset="0" style="stop-color:#248AE6"/>
						<stop  offset="1" style="stop-color:#53AAFE"/>
					</linearGradient>
					<path class="st21" d="M4537.07,2728.94c-12.42-16.21-11.72-81.57-13.59-128.88c-0.72-18.18-1.57-36.27-2.26-54.33
						c1.9-9.76,5.79-32.52,10.15-74.43c6.58-78.58,37.72-101.74,53.3-108.46c1.68,0.02,3.35,0.02,5.1,0.14
						c9.7,0.71,19.38,1.98,28.97,3.68c-4.67,1.07-9.88,2.27-15.78,3.62c-56.4,12.95-49.75,105.45-49.75,105.45l85.68,40.61
						c0,0-11.51-71.7,19.03-101.18c9.46-9.14,32.8-14.95,44.96-17.05c3.41,3.01,8.02,5.9,11.01,9.17c0.4,0.43,0.73,0.92,1.12,1.36
						c-14.06,1.75-40.56,7.04-44.97,14.37c-8.67,14.43-20.63,36.27,0.71,131c6.32,28.06,76.34,50.54,76.34,50.54l1.12,16.05
						c1.09,26.72,1.59,51.52,1.5,78.23c-0.16,44.27-34.42,74.71-75.44,81.07C4632.83,2786.32,4551.16,2747.31,4537.07,2728.94z"/>
					<path class="st2" d="M4593.65,2383.75c0.97-17.7,6.43-36.16,9.58-53.6c1.04-5.76,8.76-10.14,14.22-8.07
						c12.23,4.64,23.97,6.97,37.09,7.06c5.82,0.04,12.47,5.38,11.75,11.74c-0.95,8.41-2.56,17.86-0.46,26.2
						c2.07,8.19,6.6,11.98,11.92,17.55c17.25,18.06-4.55,22.26-14.82,28.2c-22.77,13.15-54.79,15.36-68.48-11.44
						C4593.04,2398.64,4593.46,2387.3,4593.65,2383.75z"/>
					<path class="st6" d="M4722.39,2520.19c0,0-102.29-37.14-134.22-52.95c-31.93-15.81-40.16,39.27-40.16,39.27l-21.45,167.89
						c0.02,0.2,0.03,0.41,0.05,0.61L4505.74,2882l68.45,17.26l-15.6,62.02l48.5,247.15c5.74-2.57,9.4-4.92,9.4-4.92l-35.81-230.97
						l43.13-163.22l21.25,1.88c0,0,2.62,47.17,6.34,111.13l59.27,22.67l0.63,322.75c12.74-4.12,20.85-16.13,20.85-16.13
						l17.41-548.37c0.08-1.45,0.14-2.92,0.14-4.43c0.2-58.37-5.02-116.71-4.28-175.23L4722.39,2520.19z"/>
					<path class="st6" d="M4655.62,2329.2l-61.38,47.67c-0.24,2.11-0.42,4.22-0.55,6.31c12.56,6,48.88,19.8,79.52-3.26
						c-3.29-3.54-5.94-7.12-7.39-12.85c-2.11-8.34-0.49-17.79,0.46-26.2C4666.96,2334.9,4661.15,2329.83,4655.62,2329.2z"/>
					<g>
						<path class="st2" d="M4571.92,2262.69c8.21-48.9,64.08-55.06,100.31-30.35c13.4,9.14,22.09,22.33,25.93,36.45
							c1.17,3.52,2.02,7.1,2.41,10.63c0.53,4.8,0.08,10.64-1.2,16.79c0.2,3.08-0.05,6.18-0.55,9.26c1,3.65,0.81,7.66-1.34,11.54
							c-3.29,5.95-6.59,11.9-9.88,17.85c-1.97,3.56-4.91,5.66-8.17,6.7c-13.03,22.32-44.39,36.73-69.28,33.16
							C4555.94,2366.93,4565.2,2302.74,4571.92,2262.69z"/>
						<path class="st22" d="M4553.58,2234.4c10.64-27.85,39.94-43.79,68.93-43.24c0.32,0.01,0.65,0.05,0.97,0.06
							c25.43-6.12,58.57,7.92,74.38,25.3c16.99,18.7,22.24,44.06,17.46,67.68c-0.95,11.33-5.32,22.55-13.95,32.94
							c-1.36,4.26-3.13,8.37-5.39,12.2c-15.15,25.66-50.88,53.88-81.27,56.18c-31.37,2.38-54.31-27-46.91-57.55
							c12.67-52.34,72.39-5,74.8,24.69c0.82,0.09,1.66,0.16,2.5,0.28c14.48-8.66,26.86-21.68,32.77-36.76
							c0.08-0.2,0.13-0.38,0.2-0.58c-0.89-2.73-0.61-5.79,1.61-8.7c0.55-0.72,1.04-1.48,1.56-2.22
							c9.39-51.04-76.25-43.47-109.21-33.84c-3.54,1.03-6.4,0.36-8.51-1.22C4549.11,2268.41,4548.84,2246.8,4553.58,2234.4z"/>
						<path class="st2" d="M4608.71,2352.8c0,0-17.97,5.9-26.28,0.56c-3.13-2.01-3.18-1.94-3.18-1.94
							C4582.32,2338.92,4597.49,2321.53,4608.71,2352.8z"/>
						<path class="st2" d="M4656.64,2306.32c2.78-7.52,6.51-15.02,11.99-20.97c6.42-6.97,17.48-9.82,24.87-2.45
							c6.69,6.66,6.05,17.47,0.01,24.27c-4.69,5.29-11.59,7.01-17.2,11c-1.96,1.39-4.49,1.69-6.91,1.26
							C4662.18,2320.89,4653.72,2314.24,4656.64,2306.32z"/>
					</g>
				</g>
				<path class="st15" d="M4668.18,2738.47c0,0,42.76-3.92,55.62-14.29c0,37.11-1.44,63.62-10.04,68.4
					C4705.16,2797.36,4675.03,2785.95,4668.18,2738.47z"/>
				<path class="st15" d="M4517.4,2759.46c11.18-4.83,23.91-15.24,34.72-34.72c0,0-15.9-7.78-29.49-17.12L4517.4,2759.46z"/>
				<path class="st14" d="M4749.69,2694.58c-23.16,11.04-60.95,25.1-106.2,27.04c-58.51,2.5-102.46-23.4-118.77-34.75l-2.44,24.18
					c21.81,13.4,61.63,32.25,113.09,32.25c2.97,0,5.99-0.06,9.04-0.19c43.01-1.84,79.34-13.51,104.52-24.43L4749.69,2694.58z"/>
			</g>
			<g>
				<g>
					<polygon class="st23" points="4469.07,2866.03 4649.22,2760.57 4464.56,2653.67 4284.42,2759.13 					"/>
					<polygon class="st24" points="4649.22,2760.57 4649.22,2558.35 4466.82,2562.03 4469.07,2866.03 					"/>
					<polygon class="st25" points="4284.42,2556.9 4284.42,2759.2 4469.07,2866.09 4469.07,2621.15 					"/>
					<polygon class="st26" points="4469.07,2663.81 4649.22,2558.35 4464.56,2451.46 4284.42,2556.92 					"/>
				</g>
				<polygon class="st27" points="4386.36,2616.18 4567.77,2511.02 4542.7,2496.55 4361.28,2601.7 				"/>
				<polygon class="st28" points="4361.28,2601.65 4386.36,2616.12 4386.36,2818.39 4361.28,2803.92 				"/>
				<path class="st29" d="M4469.07,2866.03l180.14-105.46v-202.22l-79.72,46.67c-10.81,29.5-77.81,173.98-101.54,155.07
					L4469.07,2866.03z"/>
				<path class="st29" d="M4469.07,2757.94c-50.71,97.74-129.03,28.91-184.65-48.23c0,21.93,0.03,36.46,0,49.42
					c9.04,5.51,28.04,16.3,59.98,34.78c41.56,24.06,83.12,48.12,124.68,72.17C4469.07,2815.18,4469.07,2808.85,4469.07,2757.94z"/>
			</g>
			<g>
				<g>
					<polygon class="st23" points="4468.12,2619.36 4571.77,2558.68 4465.52,2497.17 4361.87,2557.85 					"/>
					<polygon class="st24" points="4571.77,2558.68 4571.77,2442.32 4466.82,2444.44 4468.12,2619.36 					"/>
					<polygon class="st25" points="4361.87,2441.49 4361.87,2557.89 4468.12,2619.39 4468.12,2478.46 					"/>
					<polygon class="st26" points="4468.12,2503 4571.77,2442.32 4465.52,2380.82 4361.87,2441.5 					"/>
				</g>
				<polygon class="st27" points="4420.52,2475.6 4524.9,2415.09 4510.48,2406.76 4406.1,2467.27 				"/>
				<polygon class="st28" points="4406.1,2467.24 4420.52,2475.57 4420.52,2591.95 4406.1,2583.62 				"/>
				<path class="st29" d="M4468.12,2619.36l103.65-60.68v-116.35l-45.87,26.85c-6.22,16.97-44.77,100.1-58.42,89.23L4468.12,2619.36
					z"/>
				<path class="st29" d="M4468.12,2557.16c-29.18,56.24-74.24,16.63-106.25-27.75c0,12.62,0.02,20.98,0,28.44
					c5.2,3.17,16.13,9.38,34.51,20.01c23.91,13.84,47.82,27.69,71.74,41.53C4468.12,2590.1,4468.12,2586.46,4468.12,2557.16z"/>
			</g>
			<g>
				<path class="st2" d="M4745.5,2431.97c0,0-4.66-23.01-34.54-18.51c-29.88,4.5-42.93,35.4-37.12,94.19
					c5.81,58.79,3.09,111.01,7.38,115.51c4.29,4.49,13.66,60.31,45.14,11.15C4732.05,2580.48,4747.46,2493.34,4745.5,2431.97z"/>
				<g>
					<g>
						<polygon class="st2" points="4576.44,2685.8 4548.01,2700.23 4556.21,2720.66 4592.8,2703.82 						"/>
						<path class="st2" d="M4565.35,2713.16c0,0,1.97,12.11-13.47,21.72c-15.44,9.61-43.95,30-53.57,23.93
							c-9.63-6.07-17.98-2.19-16.33-23.98c1.65-21.8,33.13-29.75,33.13-29.75s-17.25-8.03,5.77-11.12
							C4543.9,2690.88,4547.15,2688.73,4565.35,2713.16z"/>
					</g>
					<path class="st2" d="M4690.95,2610.94l-128.46,81.94c0,0-13.01,27.73,16.68,17.21c43.12-15.27,145.43-64.66,145.43-64.66
						S4741.8,2592.57,4690.95,2610.94z"/>
				</g>
				<path class="st4" d="M4665.83,2521.93c-0.55-4.82-1.08-9.67-1.56-14.55c-5.81-58.79,16.81-89.41,46.68-93.91
					c29.88-4.5,34.54,18.51,34.54,18.51c8.67,20.51,11.38,54.16,10.2,85.22C4727.42,2542.92,4665.83,2521.93,4665.83,2521.93z"/>
			</g>
		</g>
	</g>
	<path class="st6" d="M4710.26,2652.29c8.89-4.22,14.34-6.85,14.34-6.85s3.28-10.08,2.74-19.91c3.27-28.14,8.53-63.57,12.59-99.3
		c5.85-2,11.24-4.92,15.77-9.04c1.17-31.06-1.54-64.71-10.2-85.22c0,0-0.11-0.56-0.42-1.49c-0.24-0.74-0.61-1.72-1.14-2.84
		c-0.13-0.28-0.28-0.57-0.43-0.86c-2.08-3.99-6.14-9.27-13.73-12.03c10.61,28.28-2.8,70.35-2.37,81.8
		c0.45,12.19-12.83,128.54-17.74,144.83c-4.91,16.29-126.05,58.64-143.64,65.15c-17.59,6.52-20.2,16.29-37.17,31.27
		c-16.97,14.99-40.56,14.58-40.56,14.58l-0.76,1.43c2.94,1.67,6.74,2.47,10.77,5.01c9.63,6.07,38.14-14.32,53.57-23.93
		c10.45-6.5,12.92-14.15,13.43-18.41l13.86-6.38c32.08-11.36,96.92-41.61,128.02-56.35
		C4708.17,2653.4,4709.2,2652.92,4710.26,2652.29z"/>
	<path class="st7" d="M4694.05,2426.2c0,0-20.65,12.68-20.83,41.03s2.26,46.44,8.61,20.54s16.79-48.38,16.46-53.26
		C4697.96,2429.62,4706.19,2423.16,4694.05,2426.2z"/>
</g>
<g>
	<g>
		
			<ellipse transform="matrix(0.121 -0.9927 0.9927 0.121 1163.5852 8434.498)" class="st3" cx="5344.24" cy="3560.24" rx="107.9" ry="190.72"/>
		<g>
			<g>
				<g>
					<polygon class="st2" points="5249.58,2957.7 5231.98,2984.14 5249.1,2997.84 5272.6,2965.31 					"/>
					<path class="st2" d="M5255.46,2977.77c0,0,11.32,1.72,11.64,11.85c0.32,10.14,3.17,29.45-6.91,33.06
						c-10.08,3.6-11.02,8.79-28.75,3.02c-17.73-5.76-8.46-23.81-8.46-23.81s-15.63,7.09-6.53-5.49
						C5225.55,2983.82,5225.38,2981.66,5255.46,2977.77z"/>
					<g>
						<path class="st30" d="M5166.15,3454.78c-5.4,0-9.77-4.38-9.77-9.77v-395.14c0-3.56,1.94-6.84,5.06-8.56l108.38-59.67
							c4.73-2.6,10.67-0.88,13.28,3.85c2.6,4.73,0.88,10.67-3.85,13.28l-103.32,56.88v389.36
							C5175.92,3450.41,5171.55,3454.78,5166.15,3454.78z"/>
					</g>
					<path class="st2" d="M5231.44,3025.7c0,0-4.35,0.15-3.7-3.11c0.65-3.26,15.31-12.54,18.41-13.85s22.5-15.29,21.56-2.93
						C5266.78,3018.17,5231.44,3025.7,5231.44,3025.7z"/>
				</g>
				<path class="st2" d="M5312.26,2836.66l-71.32,134.01c0,0,2.29,30.43,22.9,6.76c29.93-34.37,94.5-127.33,94.5-127.33
					S5347.38,2795.82,5312.26,2836.66z"/>
			</g>
			<g>
				<g>
					<path class="st10" d="M5459.35,3545.98c0,0-27.96-14.22-41.44,13.24c-13.48,27.46-54.18,75.02-34.56,85.81
						c19.61,10.79,98.07-41.19,95.13-75.51C5475.53,3535.19,5459.35,3545.98,5459.35,3545.98z"/>
					<path class="st10" d="M5369.12,3508.71c0,0,11.98,43.15-10.43,44.13c-22.42,0.98-109.21,13.24-119.51,3.92
						s37.76-49.52,82.87-58.35C5367.16,3489.59,5369.12,3508.71,5369.12,3508.71z"/>
					<path class="st16" d="M5465.23,3518.03c0,0,8.34,51.98-16.67,57.86c-25.01,5.88-28.44-21.58-24.52-57.86
						C5427.96,3481.75,5465.23,3518.03,5465.23,3518.03z"/>
					<linearGradient id="SVGID_9_" gradientUnits="userSpaceOnUse" x1="5380.1836" y1="3489.1755" x2="5350.8638" y2="2777.6914">
						<stop  offset="0" style="stop-color:#248AE6"/>
						<stop  offset="1" style="stop-color:#53AAFE"/>
					</linearGradient>
					<path class="st31" d="M5491.52,3017.23l-17.48,550.74c0,0-26.48,39.23-58.84,0c-7.85-77.47-27.93-438.78-27.93-438.78
						l-21.17-1.87l-42.96,162.61l35.68,230.12c0,0-34.76,22.32-58.3,4.66c-12.1-57.86-59.85-247.46-59.85-247.46l28.62-283.91
						L5491.52,3017.23z"/>
					<path class="st4" d="M5265.45,2745.07c3.6-38.25,25.71-65.43,66.74-62.44c21.01,1.53,41.94,5.48,62.04,11.48
						c19.53,5.83,38.91,18.9,52.98,34.31c4.46,4.88,8.35,10.27,11.86,15.98c3.11,2.27,5.87,5.33,7.91,9.52
						c12.39,25.38,17.3,50.47,18.93,77.25c0.84,2.93,1.42,6.09,1.36,9.72c-0.88,58.9,4.45,117.61,4.24,176.35
						c-0.15,44.1-34.29,64.85-75.16,71.19c-41.26,6.4-122.63-32.46-136.67-50.77c-12.38-16.15-11.68-71.69-13.54-118.83
						C5263.85,2860.58,5259.99,2803.12,5265.45,2745.07z"/>
					<linearGradient id="SVGID_10_" gradientUnits="userSpaceOnUse" x1="5400.6538" y1="3488.332" x2="5371.334" y2="2776.8521">
						<stop  offset="0" style="stop-color:#248AE6"/>
						<stop  offset="1" style="stop-color:#53AAFE"/>
					</linearGradient>
					<path class="st32" d="M5279.69,3047.23c-12.38-16.15-11.68-81.27-13.54-128.41c-0.72-18.11-1.56-36.14-2.25-54.13
						c1.9-9.72,5.77-32.4,10.12-74.15c6.56-78.28,37.58-101.36,53.1-108.06c1.68,0.02,3.34,0.02,5.08,0.14
						c9.67,0.7,19.3,1.97,28.86,3.67c-4.65,1.07-9.84,2.26-15.72,3.61c-56.19,12.9-49.57,105.06-49.57,105.06l85.36,40.46
						c0,0-11.47-71.43,18.96-100.8c9.43-9.1,25.39-13.49,37.5-15.58c3.4,3,6.65,6.12,9.63,9.38c0.39,0.43,0.73,0.92,1.11,1.36
						c-14.01,1.75-31.78,5.36-36.17,12.67c-8.64,14.38-20.55,36.13,0.7,130.51c6.3,27.96,76.02,49.3,76.02,49.3l0.61,15.13
						c1.09,26.62,2.13,53.23,2.04,79.85c-0.15,44.1-34.29,74.43-75.16,80.77C5375.1,3104.4,5293.73,3065.54,5279.69,3047.23z"/>
					<path class="st7" d="M5441.58,2722.64c-13.38-12.85-30.31-23.45-47.34-28.53c-20.1-6-41.03-9.95-62.04-11.48
						c-2.05-0.15-4.04-0.2-6-0.2c-14.79,8.12-36.53,29.64-44.84,64.49c-11.71,49.13,15.16,55.97,24.45,60.37
						c9.28,4.4,68.41,35.39,75.25,33.82C5387.45,2839.64,5374.9,2739.87,5441.58,2722.64z"/>
					<path class="st6" d="M5455.98,3583.02c11.12-4.77,18.06-15.05,18.06-15.05l17.34-546.27c0.08-1.39,0.13-2.79,0.13-4.21
						c0-0.09,0.01-0.17,0.01-0.26c0-0.04,0-0.08,0-0.12c0.01-3.47,0-6.94-0.02-10.41c-0.01-1.28-0.03-2.56-0.04-3.84
						c-0.02-2.21-0.05-4.43-0.08-6.64c-0.03-1.62-0.06-3.23-0.09-4.85c-0.04-1.85-0.07-3.7-0.12-5.55
						c-0.04-1.85-0.09-3.71-0.14-5.56c-0.04-1.57-0.08-3.14-0.13-4.71c-0.06-2.12-0.13-4.24-0.2-6.36
						c-0.04-1.21-0.08-2.41-0.12-3.62c-0.09-2.53-0.18-5.06-0.27-7.58c-0.02-0.53-0.04-1.07-0.06-1.6
						c-1.35-35.77-3.24-71.55-3.04-107.4l-65.78-27.55c0,0,13.12,213.71,11.43,233.06
						C5431.35,3071.63,5451.37,3487.92,5455.98,3583.02z"/>
					<path class="st2" d="M5336.06,2703.32c0.97-17.64,6.41-36.02,9.55-53.4c1.04-5.74,8.72-10.11,14.17-8.04
						c12.19,4.62,23.88,6.95,36.95,7.03c5.8,0.04,12.42,5.36,11.7,11.7c-0.95,8.38-2.56,17.79-0.45,26.1
						c2.06,8.16,6.57,11.93,11.88,17.49c17.19,17.99-4.53,22.18-14.77,28.09c-22.69,13.1-54.59,15.31-68.23-11.4
						C5335.45,2718.17,5335.86,2706.86,5336.06,2703.32z"/>
					<path class="st6" d="M5337.27,2691.7c8.88,7.15,27.98,16.6,58.61,2.87c4.49-2.01,8.7-3.98,12.67-5.9
						c-0.21-0.63-0.4-1.27-0.58-1.96c-2.1-8.31-0.49-17.72,0.45-26.1c0.72-6.35-5.91-11.66-11.7-11.7
						c-6.21-0.04-12.11-0.61-17.9-1.66c-14.31,11.6-30.07,24.4-39.35,31.94C5338.63,2683.37,5337.87,2687.54,5337.27,2691.7z"/>
					<path class="st2" d="M5298.06,2583.69c7.81-47.72,62.28-53.94,97.7-29.99c13.1,8.86,21.63,21.69,25.43,35.44
						c1.15,3.43,1.99,6.92,2.39,10.36c0.53,4.68,0.12,10.37-1.1,16.38c0.21,3.01-0.02,6.03-0.5,9.03c0.99,3.56,0.82,7.47-1.27,11.26
						c-3.19,5.81-6.38,11.63-9.57,17.44c-1.91,3.48-4.77,5.54-7.94,6.56c-12.62,21.82-43.15,36-67.43,32.61
						C5282.87,2685.41,5291.66,2622.78,5298.06,2583.69z"/>
					<path class="st33" d="M5280.06,2556.17c10.27-27.2,38.78-42.86,67.05-42.44c0.32,0,0.63,0.04,0.95,0.05
						c24.78-6.07,57.15,7.49,72.63,24.38c16.64,18.17,21.86,42.88,17.29,65.93c-0.88,11.05-5.1,22.01-13.47,32.18
						c-1.31,4.16-3.02,8.18-5.21,11.92c-3.21,5.49-7.43,11.09-12.3,16.54c-1.27-9.62-3.66-19.09-4-28.84
						c-0.08-2.21-0.66-4.06-1.45-5.73c0.28-1.26,0.8-2.54,1.75-3.79c0.53-0.7,1.01-1.45,1.51-2.17
						c8.96-49.81-74.54-42.1-106.64-32.58c-3.44,1.02-6.24,0.37-8.31-1.16C5275.83,2589.36,5275.49,2568.29,5280.06,2556.17z"/>
					<path class="st2" d="M5380.85,2625.91c2.68-7.34,6.29-14.67,11.62-20.5c6.24-6.82,17.01-9.64,24.24-2.49
						c6.55,6.47,5.96,17.01,0.11,23.67c-4.55,5.18-11.28,6.88-16.73,10.79c-1.9,1.36-4.37,1.67-6.74,1.26
						C5386.31,2640.1,5378.03,2633.65,5380.85,2625.91z"/>
				</g>
				<path class="st15" d="M5409.59,3074.53c0,0,42.76-3.92,55.62-14.29c0,37.11-1.44,63.62-10.04,68.4
					C5446.57,3133.42,5416.44,3122.01,5409.59,3074.53z"/>
				<path class="st15" d="M5258.82,3095.52c11.18-4.83,23.91-15.24,34.72-34.72c0,0-15.9-7.78-29.49-17.12L5258.82,3095.52z"/>
				<path class="st14" d="M5491.11,3030.64c-23.16,11.04-60.95,25.1-106.2,27.04c-58.51,2.5-102.46-23.4-118.77-34.75l-2.44,24.18
					c21.81,13.4,61.63,32.25,113.09,32.25c2.97,0,5.99-0.06,9.04-0.19c43.01-1.84,79.34-13.51,104.52-24.43L5491.11,3030.64z"/>
			</g>
			<g>
				<path class="st30" d="M5379.05,3554.22c-5.4,0-9.77-4.38-9.77-9.77v-395.14c0-3.56,1.94-6.84,5.06-8.56l108.38-59.67
					c4.73-2.6,10.67-0.88,13.27,3.85c2.6,4.73,0.88,10.67-3.85,13.28l-103.32,56.88v389.36
					C5388.82,3549.85,5384.44,3554.22,5379.05,3554.22z"/>
			</g>
			<g>
				<path class="st2" d="M5462.69,2745.14c0,0-16.25-16.81-38.93,2.99c-22.67,19.8-17.06,52.75,19.35,98.99
					c36.41,46.24,62.13,91.55,68.15,93.02c6.01,1.47,19.6,12.98,43.88-14.84C5531.05,2877.04,5497.25,2795.62,5462.69,2745.14z"/>
				<g>
					<polygon class="st2" points="5463.53,3049.87 5450.04,3078.63 5469.01,3089.64 5487.42,3053.99 					"/>
					<path class="st2" d="M5475.11,3070.15c0,0,11.32,1.69,11.67,11.83c0.35,10.14,3.24,29.45-6.83,33.07
						c-10.07,3.63-11,8.81-28.74,3.09c-17.74-5.72-8.51-23.79-8.51-23.79s-15.61,7.13-6.54-5.47
						C5445.21,3076.27,5445.03,3074.11,5475.11,3070.15z"/>
				</g>
				<path class="st2" d="M5507.57,2920.88l-50.66,143.1c0,0,6.78,29.75,23.65,3.29c24.51-38.43,74.58-139.93,74.58-139.93
					S5536.25,2875.28,5507.57,2920.88z"/>
			</g>
			<path class="st4" d="M5424.19,2856.41c-2.31-4.25-4.61-8.53-6.88-12.86c-27.32-52.13-17.86-88.86,8.06-104.18
				c25.92-15.31,38.82,4.2,38.82,4.2c15.66,15.71,30.73,45.78,41.24,74.9C5488.91,2852.8,5424.19,2856.41,5424.19,2856.41z"/>
		</g>
		<path class="st6" d="M5326.48,3116.67c0,0-27.62,155.46-26.84,177.14c0.66,18.38,32.26,184.2,41.86,234.25
			c10.09-3.37,17.31-8.01,17.31-8.01l-35.68-230.12l42.96-162.61L5326.48,3116.67z"/>
	</g>
	<g>
		
			<linearGradient id="SVGID_11_" gradientUnits="userSpaceOnUse" x1="3438.377" y1="4265.7314" x2="3439.2925" y2="4146.1309" gradientTransform="matrix(0.9362 -0.3516 0.3516 0.9362 625.0449 -100.6117)">
			<stop  offset="0" style="stop-color:#248AE6"/>
			<stop  offset="1" style="stop-color:#53AAFE"/>
		</linearGradient>
		<path class="st34" d="M5384.9,2589.78c0,0-21.34,26.49-63.6,34.7s-79.85-15.35-79.85-15.35s-14.32-10.54,43.03-28.91
			C5341.84,2561.85,5384.9,2589.78,5384.9,2589.78z"/>
		
			<linearGradient id="SVGID_12_" gradientUnits="userSpaceOnUse" x1="3488.7888" y1="4311.1235" x2="3490.4504" y2="4094.0117" gradientTransform="matrix(0.9362 -0.3516 0.3516 0.9362 625.0449 -100.6117)">
			<stop  offset="0" style="stop-color:#248AE6"/>
			<stop  offset="1" style="stop-color:#53AAFE"/>
		</linearGradient>
		<path class="st35" d="M5275.37,2585.53c0,0,57.15,21.23,113.1,6.97c55.95-14.26,53.37-16.05,49.09-32.54
			c-4.28-16.49-13.19-62.32-71.83-56.91S5273.73,2526.75,5275.37,2585.53z"/>
	</g>
	<g>
		<path class="st36" d="M4909.91,3640.41l-0.78,0.03l-0.04,91.39c0.08,2.39,1.64,4.76,4.72,6.58c6.45,3.8,17.16,3.82,23.82,0.06
			c3.27-1.85,4.96-4.29,5.09-6.73c0.01-0.16,0-0.26,0-0.36l0.05-91.65l-0.97-0.07c-0.78-1.23-2.01-2.39-3.69-3.39
			c-6.45-3.8-17.16-3.82-23.82-0.06C4912.16,3637.41,4910.71,3638.86,4909.91,3640.41z"/>
		<g>
			
				<ellipse transform="matrix(0.9999 -0.0101 0.0101 0.9999 -36.3382 49.695)" class="st37" cx="4925.95" cy="3640.11" rx="16.84" ry="9.72"/>
		</g>
	</g>
	<g>
		<polygon class="st36" points="5044.5,3741.15 5410.29,3530.66 5410.29,3564.36 5044.5,3774.85 		"/>
		<polygon class="st13" points="4739.58,3565.23 5044.5,3741.15 5044.5,3774.85 4739.58,3598.93 		"/>
		<polygon class="st38" points="5044.5,3741.13 4739.58,3565.23 5105.38,3354.76 5410.3,3530.66 		"/>
	</g>
	<g>
		<g>
			<path class="st10" d="M5358.33,3592.7l1.03-1.99l-11.88-6.95c-6.12-3.19-14.26-2.66-23.2,2.51
				c-18.66,10.78-33.93,37.61-33.93,59.63c0,10.82,3.7,18.52,9.67,22.3c0,0.02,0.14,0.1,0.14,0.1c0.25,0.15,0.51,0.28,0.76,0.42
				l12.51,7.33l1.55-2.33c4.2-0.21,8.84-1.63,13.72-4.45c18.66-10.78,33.93-37.61,33.93-59.63
				C5362.63,3602.59,5361.06,3596.88,5358.33,3592.7z"/>
			<g>
				
					<ellipse transform="matrix(0.4838 -0.8752 0.8752 0.4838 -425.0947 6545.9585)" class="st39" cx="5336.3" cy="3633.32" rx="48.52" ry="28"/>
			</g>
		</g>
		<g>
			
				<ellipse transform="matrix(0.4578 -0.8891 0.8891 0.4578 -336.7593 6714.4771)" class="st40" cx="5336.3" cy="3633.32" rx="33.56" ry="18.98"/>
		</g>
	</g>
	<g>
		<g>
			<polygon class="st23" points="5189.13,3639.54 5369.27,3534.08 5184.62,3515.14 5004.48,3532.64 			"/>
			<polygon class="st24" points="5369.27,3534.08 5369.27,3419.82 5186.88,3423.5 5189.13,3639.54 			"/>
			<polygon class="st25" points="5004.48,3418.37 5004.48,3532.7 5189.13,3639.6 5189.13,3482.62 			"/>
			<polygon class="st26" points="5189.13,3525.28 5369.27,3419.82 5184.62,3312.92 5004.48,3418.38 			"/>
		</g>
		<polygon class="st27" points="5106.41,3477.65 5287.83,3372.49 5262.75,3358.01 5081.34,3463.17 		"/>
		<polygon class="st28" points="5081.34,3463.11 5106.41,3477.59 5106.41,3591.9 5081.34,3577.42 		"/>
		<path class="st29" d="M5189.13,3639.54l180.14-105.46l0-114.26l-79.72,46.67c-10.81,29.5-77.81,86.02-101.54,67.12
			L5189.13,3639.54z"/>
		<path class="st29" d="M5189.13,3531.45c-50.71,97.74-129.03,28.91-184.65-48.23c0,21.93,0.03,36.46,0,49.42
			c9.04,5.51,28.04,16.3,59.98,34.78c41.56,24.06,83.12,48.12,124.68,72.17C5189.13,3588.69,5189.13,3582.36,5189.13,3531.45z"/>
	</g>
	<g>
		<g>
			<polygon class="st23" points="5141.8,3506.16 5321.95,3400.7 5137.29,3293.81 4957.15,3399.27 			"/>
			<polygon class="st24" points="5321.95,3400.7 5321.95,3198.48 5139.55,3202.16 5141.8,3506.16 			"/>
			<polygon class="st25" points="4957.15,3197.04 4957.15,3399.33 5141.8,3506.22 5141.8,3261.29 			"/>
			<polygon class="st26" points="5141.8,3303.94 5321.95,3198.48 5137.29,3091.59 4957.15,3197.05 			"/>
		</g>
		<polygon class="st27" points="5059.09,3256.31 5240.5,3151.16 5215.43,3136.68 5034.01,3241.84 		"/>
		<polygon class="st28" points="5034.01,3241.78 5059.09,3256.26 5059.09,3458.53 5034.01,3444.05 		"/>
		<path class="st29" d="M5141.8,3506.16l180.14-105.46v-202.22l-79.72,46.67c-10.81,29.5-77.81,173.98-101.54,155.07L5141.8,3506.16
			z"/>
		<path class="st29" d="M5141.8,3398.07c-50.71,97.74-129.03,28.91-184.65-48.23c0,21.93,0.03,36.46,0,49.42
			c9.04,5.51,28.04,16.3,59.98,34.78c41.56,24.06,83.12,48.12,124.68,72.17C5141.8,3455.32,5141.8,3448.98,5141.8,3398.07z"/>
	</g>
	<g>
		<g>
			<polygon class="st23" points="5142.25,3279.84 5267.34,3206.61 5139.12,3132.39 5014.04,3205.61 			"/>
			<polygon class="st24" points="5267.34,3206.61 5267.34,3066.2 5140.69,3068.76 5142.25,3279.84 			"/>
			<polygon class="st25" points="5014.04,3065.2 5014.04,3205.66 5142.25,3279.88 5142.25,3109.81 			"/>
			<polygon class="st26" points="5142.25,3139.43 5267.34,3066.2 5139.12,2991.98 5014.04,3065.2 			"/>
		</g>
		<polygon class="st27" points="5084.82,3106.36 5210.78,3033.34 5193.37,3023.29 5067.41,3096.3 		"/>
		<polygon class="st28" points="5067.41,3096.26 5084.82,3106.32 5084.82,3246.76 5067.41,3236.71 		"/>
		<path class="st29" d="M5142.25,3279.84l125.08-73.23V3066.2l-55.35,32.4c-7.51,20.48-54.03,120.8-70.5,107.68L5142.25,3279.84z"/>
		<path class="st29" d="M5142.25,3204.79c-35.21,67.87-89.59,20.07-128.21-33.49c0,15.23,0.02,25.31,0,34.32
			c6.27,3.83,19.47,11.31,41.64,24.15c28.86,16.7,57.71,33.41,86.57,50.11C5142.25,3244.53,5142.25,3240.13,5142.25,3204.79z"/>
	</g>
	<g>
		<g>
			<polygon class="st23" points="4795,3364.75 4797.89,3573.47 5056.86,3507.68 4907.87,3298.91 			"/>
			<polygon class="st25" points="4797.89,3573.47 5048.71,3715.33 5045.82,3506.61 4795,3364.75 			"/>
			<polygon class="st26" points="5158.7,3440.77 4907.82,3298.88 4794.94,3364.71 5045.82,3506.61 			"/>
			<polygon class="st24" points="5045.82,3506.61 5048.71,3715.33 5161.58,3649.49 5158.69,3440.77 			"/>
		</g>
		<polygon class="st41" points="5095.22,3477.74 5097.22,3687.41 5122.18,3672.74 5120.18,3463.07 		"/>
		<polygon class="st27" points="4932.12,3442.38 4930.12,3648.48 4905.16,3634.13 4907.16,3427.71 		"/>
		<polygon class="st42" points="5120.23,3463.09 5095.27,3477.77 4844.4,3335.88 4869.36,3321.21 		"/>
		<path class="st43" d="M4889.02,3418.05c-60.02-92.32-32.7-84.43,61.84-94.77c-19.08-10.82-31.73-17.95-42.99-24.37
			c-9.25,5.14-28.01,16.36-59.84,35.02c-41.43,24.29-11.66,6.5-53.09,30.79C4839.23,3389.82,4844.74,3392.95,4889.02,3418.05z"/>
		<polygon class="st27" points="4906.87,3427.67 4931.83,3442.34 5046.48,3377.27 5021.52,3362.6 		"/>
	</g>
	<g>
		<g>
			<polygon class="st23" points="4795,3364.75 4797.89,3573.47 5056.86,3507.68 4907.87,3298.91 			"/>
			<polygon class="st25" points="4797.89,3573.47 5048.71,3715.33 5045.82,3506.61 4795,3364.75 			"/>
			<polygon class="st26" points="5158.7,3440.77 4907.82,3298.88 4794.94,3364.71 5045.82,3506.61 			"/>
			<polygon class="st24" points="5045.82,3506.61 5048.71,3715.33 5161.58,3649.49 5158.69,3440.77 			"/>
		</g>
		<polygon class="st41" points="5095.22,3477.74 5097.22,3687.41 5122.18,3672.74 5120.18,3463.07 		"/>
		<polygon class="st27" points="4932.12,3442.38 4930.12,3648.48 4905.16,3634.13 4907.16,3427.71 		"/>
		<polygon class="st42" points="5120.23,3463.09 5095.27,3477.77 4844.4,3335.88 4869.36,3321.21 		"/>
		<path class="st43" d="M4889.02,3418.05c-60.02-92.32-32.7-84.43,61.84-94.77c-19.08-10.82-31.73-17.95-42.99-24.37
			c-9.25,5.14-28.01,16.36-59.84,35.02c-41.43,24.29-11.66,6.5-53.09,30.79C4839.23,3389.82,4844.74,3392.95,4889.02,3418.05z"/>
		<polygon class="st27" points="4906.87,3427.67 4931.83,3442.34 5046.48,3377.27 5021.52,3362.6 		"/>
	</g>
	<g>
		<g>
			<polygon class="st23" points="4875.79,3295.28 4877.47,3377.51 5028,3378.36 4941.4,3257.01 			"/>
			<polygon class="st25" points="4877.47,3377.51 5023.26,3459.96 5021.58,3377.74 4875.79,3295.28 			"/>
			<polygon class="st26" points="5087.19,3339.47 4941.37,3256.99 4875.76,3295.26 5021.58,3377.74 			"/>
			<polygon class="st24" points="5021.58,3377.74 5023.26,3459.96 5088.87,3421.7 5087.19,3339.47 			"/>
		</g>
		<polygon class="st41" points="5050.3,3360.96 5051.46,3443.74 5065.97,3435.21 5064.8,3352.43 		"/>
		<polygon class="st27" points="4955.5,3340.41 4954.33,3421.11 4939.82,3412.77 4940.99,3331.88 		"/>
		<polygon class="st42" points="5064.83,3352.45 5050.33,3360.97 4904.51,3278.5 4919.02,3269.97 		"/>
		<path class="st43" d="M4930.44,3326.27c-34.88-53.66-19.01-49.07,35.94-55.09c-11.09-6.29-18.44-10.44-24.99-14.17
			c-5.38,2.99-16.28,9.51-34.78,20.35c-24.08,14.12-6.78,3.78-30.86,17.9C4901.5,3309.86,4904.71,3311.67,4930.44,3326.27z"/>
		<polygon class="st27" points="4940.82,3331.85 4955.33,3340.38 5021.97,3302.56 5007.46,3294.03 		"/>
	</g>
	<path class="st6" d="M5555.14,2927.34c0,0-0.19-0.53-0.56-1.42c0.19-0.21,0.37-0.42,0.56-0.63
		c-14.06-28.16-31.43-67.61-50.32-105.62c0.21-0.4,0.42-0.79,0.61-1.19c-10.51-29.13-25.58-59.2-41.24-74.9
		c0,0-10.4-15.7-31.26-7.85c-0.48,3.55,1.37,8.91,6.65,16.84c22.11,33.23,94.43,144.15,96.87,170.05s-62.74,153.01-62.74,153.01
		s15.42,13.15,2.39,41.06c1.15-0.55,2.4-1.1,3.85-1.62c10.07-3.63,7.18-22.94,6.83-33.07c-0.22-6.44-4.86-9.46-8.22-10.82l2.01-3.88
		C5505.06,3028.84,5555.14,2927.34,5555.14,2927.34z"/>
	<path class="st7" d="M5417.08,2753.42c0,0-15.4,18.7-6.35,45.58c9.05,26.87,17.24,43.18,14.83,16.62
		c-2.42-26.56,0.14-51.21-1.76-55.72C5421.89,2755.38,5427.58,2746.59,5417.08,2753.42z"/>
	<path class="st15" d="M5378.34,2966.28c0,13.16-9.32,18.54-20.72,11.96l-49.52-28.59c-11.39-6.58-20.72-22.73-20.72-35.88v-53.31
		c0-13.16,9.32-18.54,20.72-11.96l49.52,28.59c11.39,6.58,20.72,22.73,20.72,35.88V2966.28z"/>
</g>
<g>
	<g>
		
			<ellipse transform="matrix(0.121 -0.9927 0.9927 0.121 -502.325 6565.3579)" class="st3" cx="3455.89" cy="3566.31" rx="108.3" ry="191.43"/>
		<g>
			<g>
				<g>
					<path class="st2" d="M3409.94,2708.12c0,0,11.28-3.84,18.05,9.56c13.62,26.97-18,50.26-75.99,61.48
						c-58,11.22-135.79,26.19-141.32,23.36c-5.53-2.83-28.67-33.72-1.42-50.03C3261.31,2729.57,3361.31,2702.74,3409.94,2708.12z"/>
					<g>
						<path class="st2" d="M3235.23,2774.86l-14.43-137.63c0,0-20.28-16.19-24.16,15.07c-5.64,45.4-7.32,137.22-7.32,137.22
							S3228.9,2828.55,3235.23,2774.86z"/>
						<g>
							<polygon class="st16" points="3220.31,2646.61 3221.32,2614.74 3199.47,2612.12 3196.65,2652.3 							"/>
						</g>
					</g>
				</g>
				<path class="st2" d="M3226.86,2616.64c5.98,4.14,10.54,11.81,10.58,20.37c0.1,21.86-7.95,17.39-17.99,22.77
					c-7.31,3.92-28.26,3.37-37.64-17.19C3172.45,2622.03,3216.32,2604.83,3226.86,2616.64z"/>
				<path class="st4" d="M3336.48,2791.91c0,0-20.81-62.38,2.14-94.25c11.18-6.83,45-9.65,61.77-7.79c0,0,23.38-2.1,27.6,27.82
					c4.22,29.92-18.67,60.34-76.67,71.56C3346.49,2790.18,3341.52,2791.06,3336.48,2791.91z"/>
				<path class="st6" d="M3389.95,2689.32c-17.73-0.16-42.15,2.74-51.33,8.34c-3.76,5.22-6.34,11.25-8.03,17.7
					c-33.87,6.87-69.91,17.36-98.66,28.02l-11.13-106.15c0,0-5.96-4.76-12.04-4.13c-1.79,40.84-4.8,131.29,3.52,136.58
					c10.76,6.84,101.16,12.71,136.83-12.22c35.67-24.92,59.84-51.9,55.56-59.74C3403.99,2696.46,3398.57,2693.47,3389.95,2689.32z"
					/>
			</g>
			<g>
				<g>
					<polygon class="st23" points="3304.25,2766.23 3462.25,2673.74 3300.3,2579.99 3142.3,2672.48 					"/>
					<polygon class="st24" points="3462.25,2673.74 3462.25,2496.38 3302.28,2499.61 3304.25,2766.23 					"/>
					<polygon class="st25" points="3142.3,2495.11 3142.3,2672.53 3304.25,2766.29 3304.25,2551.46 					"/>
					<polygon class="st26" points="3304.25,2588.87 3462.25,2496.38 3300.3,2402.63 3142.3,2495.12 					"/>
				</g>
				<polygon class="st27" points="3231.71,2547.1 3390.82,2454.87 3368.83,2442.18 3209.72,2534.4 				"/>
				<polygon class="st28" points="3209.72,2534.35 3231.71,2547.05 3231.71,2724.45 3209.72,2711.76 				"/>
				<path class="st29" d="M3304.25,2766.23l158-92.49v-177.36l-69.92,40.93c-9.48,25.87-68.25,152.59-89.06,136.01L3304.25,2766.23z
					"/>
				<path class="st29" d="M3304.25,2671.43c-44.48,85.73-113.16,25.35-161.95-42.3c0,19.24,0.03,31.97,0,43.35
					c7.93,4.84,24.59,14.29,52.6,30.51c36.45,21.1,72.9,42.2,109.35,63.3C3304.25,2721.64,3304.25,2716.08,3304.25,2671.43z"/>
			</g>
			<g>
				<g>
					<path class="st10" d="M3571.43,3552c0,0-28.06-14.27-41.59,13.29c-13.53,27.56-54.38,75.3-34.69,86.13
						c19.69,10.83,98.43-41.34,95.48-75.79C3587.67,3541.17,3571.43,3552,3571.43,3552z"/>
					<path class="st10" d="M3406.11,3528.78c0,0,12.03,43.31-10.47,44.3c-22.5,0.98-109.62,13.29-119.95,3.94
						c-10.34-9.35,37.9-49.71,83.18-58.57C3404.14,3509.58,3406.11,3528.78,3406.11,3528.78z"/>
					<path class="st16" d="M3577.33,3523.94c0,0,8.37,52.17-16.73,58.08c-25.1,5.91-28.55-21.66-24.61-58.08
						C3539.93,3487.52,3577.33,3523.94,3577.33,3523.94z"/>
					
						<linearGradient id="SVGID_13_" gradientUnits="userSpaceOnUse" x1="-7574.6851" y1="3566.3813" x2="-7567.8599" y2="2674.5935" gradientTransform="matrix(-1 0 0 1 -4099.4771 0)">
						<stop  offset="0" style="stop-color:#248AE6"/>
						<stop  offset="1" style="stop-color:#53AAFE"/>
					</linearGradient>
					<path class="st44" d="M3603.72,3021.28l-17.55,552.79c0,0-26.58,39.37-59.06,0c-7.87-77.76-28.04-440.42-28.04-440.42
						l-21.25-1.88l-43.12,163.22l-30.19,233.37c0,0-34.89,22.4-58.52,4.68c-12.14-58.08,5.93-250.78,5.93-250.78l28.72-284.97
						L3603.72,3021.28z"/>
					<path class="st4" d="M3376.81,2748.11c3.61-38.39,25.8-65.67,66.99-62.68c21.09,1.53,42.1,5.5,62.27,11.52
						c19.6,5.85,39.06,18.97,53.18,34.44c4.47,4.9,8.39,10.31,11.91,16.04c3.13,2.28,5.89,5.35,7.94,9.56
						c12.44,25.47,17.37,50.66,19,77.54c0.84,2.94,1.42,6.11,1.37,9.75c-0.88,59.12,4.47,118.05,4.26,177.01
						c-0.15,44.27-34.42,65.1-75.44,71.46c-41.42,6.42-123.09-32.58-137.18-50.96c-12.42-16.21-11.72-71.96-13.59-119.27
						C3375.2,2864.04,3371.33,2806.37,3376.81,2748.11z"/>
					
						<linearGradient id="SVGID_14_" gradientUnits="userSpaceOnUse" x1="-7593.7529" y1="3566.2354" x2="-7586.9277" y2="2674.4478" gradientTransform="matrix(-1 0 0 1 -4099.4771 0)">
						<stop  offset="0" style="stop-color:#248AE6"/>
						<stop  offset="1" style="stop-color:#53AAFE"/>
					</linearGradient>
					<path class="st45" d="M3391.1,3051.39c-12.42-16.21-11.72-81.57-13.59-128.88c-0.72-18.18-1.57-36.27-2.26-54.33
						c1.9-9.76,5.79-32.52,10.15-74.43c6.58-78.58,37.72-101.74,53.3-108.46c1.68,0.02,3.35,0.02,5.1,0.14
						c9.7,0.71,19.38,1.98,28.97,3.68c-4.67,1.07-9.88,2.27-15.78,3.62c-56.4,12.95-49.75,105.45-49.75,105.45l69.87,33.12
						c0,0,5.06-62.11,35.6-91.6c9.46-9.14,24.71-15.63,36.87-17.73c3.41,3.01,8.64,8.42,11.63,11.69c0.4,0.43,0.73,0.92,1.12,1.36
						c-14.06,1.75-28.5,6.79-35.66,12.72c-12.97,10.74-32.25,30.79-10.92,125.52c6.32,28.06,75.36,51.94,75.36,51.94l10.57,15.92
						c1.09,26.72,2.14,53.43,2.05,80.14c-0.16,44.27-34.42,74.71-75.44,81.07C3486.86,3108.77,3405.19,3069.77,3391.1,3051.39z"/>
					<path class="st6" d="M3554.83,2997.66c13.68,95.5,5.86,186.39,5.86,186.39l2.17,406.82c14.14-3.24,23.31-16.81,23.31-16.81
						l17.41-548.36c0.08-1.45,0.14-2.92,0.14-4.43c0.21-58.96-5.14-117.89-4.26-177.01c0.05-3.64-0.52-6.81-1.37-9.75
						c-0.23-3.73-0.52-7.42-0.89-11.09h-61.45C3535.76,2823.42,3541.15,2902.16,3554.83,2997.66z"/>
					<g>
						<path class="st2" d="M3576.29,2746.6c0,0-12.95-19.58-38.96-4.21c-26.01,15.37-26.53,48.91,0.88,101.23
							c27.42,52.32,44.47,101.76,50.13,104.32c5.66,2.56,35.26,50.8,46.03-6.58C3614.27,2852.92,3621.11,2825.38,3576.29,2746.6z"/>
						<path class="st4" d="M3536.14,2859.86c-2.32-4.27-4.63-8.56-6.9-12.91c-27.42-52.32-17.93-89.2,8.09-104.56
							c26.01-15.37,38.96,4.21,38.96,4.21c15.72,15.76,30.84,45.95,41.4,75.18C3601.1,2856.24,3536.14,2859.86,3536.14,2859.86z"/>
						<g>
							<polygon class="st2" points="3590.5,3088.52 3587.76,3120.29 3609.44,3124.09 3614.44,3084.13 							"/>
							<path class="st2" d="M3607.89,3112.38c0,0,11.33,4.72,11.35,22.9c0.02,18.19,2.31,53.16-7.93,58.14
								c-10.24,4.98-11.34,14.12-28.99,1.22c-17.65-12.9-7.79-43.84-7.79-43.84s-15.92,10.41-6.4-10.77
								C3577.65,3118.84,3577.54,3114.95,3607.89,3112.38z"/>
						</g>
						<path class="st15" d="M3522.09,3068.98c0,0,42.76-3.92,55.62-14.29c0,37.11-1.44,63.62-10.04,68.4
							C3559.07,3127.87,3528.94,3116.45,3522.09,3068.98z"/>
						<path class="st15" d="M3371.31,3089.97c11.18-4.83,23.91-15.24,34.72-34.72c0,0-15.9-7.78-29.49-17.12L3371.31,3089.97z"/>
						<path class="st14" d="M3603.6,3025.09c-23.16,11.04-60.95,25.1-106.2,27.04c-58.51,2.5-102.46-23.4-118.77-34.75l-2.44,24.18
							c21.81,13.4,61.63,32.25,113.09,32.25c2.97,0,5.99-0.06,9.04-0.19c43.01-1.84,79.34-13.51,104.52-24.43L3603.6,3025.09z"/>
						<path class="st2" d="M3587.31,2944.98l1.84,159.13c0,0,16.69,25.68,23.42-5.09c9.77-44.69,21.79-157.66,21.79-157.66
							S3598.54,2892.09,3587.31,2944.98z"/>
					</g>
					<path class="st7" d="M3580.31,2750.97c-1.34-1.55-2.68-3.02-4.03-4.37c0,0-3.86-5.82-11.59-8.62
						c-1.73-2.28-3.53-4.49-5.44-6.59c-14.12-15.47-33.58-28.58-53.18-34.44c-20.17-6.02-41.18-9.99-62.27-11.52
						c-6.17-0.45-11.91-0.2-17.23,0.64c-23.96,22.74-50.06,58.01-21.9,86.48c45.48,45.97,108.04,41.44,108.04,41.44
						S3556.41,2782.86,3580.31,2750.97z"/>
					<path class="st2" d="M3447.68,2706.2c0.97-17.7,6.43-36.16,9.58-53.6c1.04-5.76,8.75-10.14,14.22-8.07
						c12.23,4.64,23.97,6.97,37.09,7.06c5.82,0.04,12.47,5.38,11.75,11.74c-0.95,8.41-2.56,17.86-0.46,26.2
						c2.07,8.19,6.59,11.98,11.92,17.55c17.25,18.06-4.55,22.26-14.82,28.2c-22.77,13.15-54.79,15.36-68.48-11.44
						C3447.07,2721.1,3447.49,2709.76,3447.68,2706.2z"/>
					<path class="st6" d="M3448.69,2695.96c12.03,6.36,32.37,13.64,50.99,3.84c8.95-4.71,15.15-9.62,19.47-14.14
						c-0.91-7.31,0.36-15.19,1.17-22.32c0.72-6.37-5.93-11.71-11.74-11.75c-4.92-0.03-9.65-0.38-14.29-1.05l-22.03,4.79
						l-19.64,19.51C3451.09,2681.87,3449.64,2688.95,3448.69,2695.96z"/>
					<path class="st6" d="M3437.48,2685.22c-32.01,0.11-51.36,19.72-58.29,48.44C3379.46,2733.5,3423.98,2706.19,3437.48,2685.22z"
						/>
					<path class="st2" d="M3409.54,2586.12c7.84-47.9,62.51-54.15,98.07-30.1c13.15,8.89,21.71,21.77,25.52,35.58
						c1.16,3.44,2,6.94,2.4,10.4c0.54,4.69,0.12,10.41-1.1,16.44c0.21,3.02-0.02,6.05-0.5,9.06c1,3.57,0.82,7.49-1.27,11.3
						c-3.2,5.84-6.4,11.67-9.6,17.51c-1.92,3.49-4.79,5.56-7.97,6.59c-12.67,21.9-43.31,36.13-67.69,32.73
						C3394.3,2688.23,3403.12,2625.36,3409.54,2586.12z"/>
					<path class="st33" d="M3391.48,2558.5c10.31-27.3,38.93-43.02,67.3-42.6c0.32,0,0.64,0.04,0.95,0.05
						c24.87-6.09,57.37,7.52,72.9,24.47c16.71,18.24,21.94,43.04,17.35,66.18c-0.88,11.09-5.12,22.09-13.52,32.3
						c-1.32,4.17-3.03,8.21-5.22,11.96c-3.22,5.51-7.45,11.14-12.34,16.6c-1.28-9.65-3.67-19.16-4.01-28.95
						c-0.08-2.22-0.66-4.07-1.45-5.75c0.28-1.27,0.81-2.55,1.75-3.8c0.53-0.71,1.01-1.45,1.52-2.18c8.99-50-74.81-42.25-107.04-32.7
						c-3.46,1.02-6.27,0.37-8.34-1.16C3387.23,2591.82,3386.89,2570.66,3391.48,2558.5z"/>
					<path class="st2" d="M3492.64,2628.5c2.69-7.37,6.31-14.73,11.66-20.58c6.26-6.85,17.07-9.68,24.33-2.49
						c6.57,6.49,5.99,17.08,0.11,23.76c-4.57,5.2-11.32,6.91-16.79,10.83c-1.91,1.37-4.39,1.68-6.76,1.26
						C3498.11,2642.74,3489.81,2636.27,3492.64,2628.5z"/>
				</g>
			</g>
		</g>
	</g>
	<path class="st6" d="M3403.35,3294.43l-20.61,243.3c12.36-3.33,21.77-9.37,21.77-9.37l30.19-233.37l43.12-163.22l-36.36-3.44
		L3403.35,3294.43z"/>
	<path class="st7" d="M3389.02,3110.08c-7.35-3.68-14.1-2.82-19.71-0.24l-17.38,172.43c0,0-18.07,192.7-5.93,250.78
		c2.78,2.08,5.72,3.61,8.73,4.68c0,0-0.89-109.35,2.36-152.35c3.26-43,21.5-157.67,25.65-170.05
		C3386.9,3202.94,3409.21,3120.2,3389.02,3110.08z"/>
	<path class="st7" d="M3534.62,3401.66c0,0-3.56-205.89-7.47-248.24s-17.59-43-25.41-29.34c-1.6,2.79-2.86,6.04-3.87,9.45l1.22,0.11
		c0,0,20.16,362.65,28.04,440.42c2.9,3.51,5.75,6.39,8.54,8.73L3534.62,3401.66z"/>
	<path class="st15" d="M3488.87,2967.47c0,13.16-9.32,18.54-20.72,11.96l-49.52-28.59c-11.39-6.58-20.72-22.73-20.72-35.88v-53.31
		c0-13.16,9.32-18.54,20.72-11.96l49.52,28.59c11.39,6.58,20.72,22.73,20.72,35.88V2967.47z"/>
	<path class="st6" d="M3605.74,3196.93c1.61-1.19,3.38-2.44,5.57-3.51c10.24-4.98,7.95-39.95,7.93-58.14
		c-0.01-12.31-5.2-18.44-8.56-21.12l1.89-15.14c9.77-44.69,21.79-157.66,21.79-157.66c-11.26-49.56-14.07-79.99-22.24-111.04
		c2.18-2.61,4.07-5.45,5.55-8.54c-6.79-18.81-15.47-38-24.98-53.5c0.88,14.46,3.28,46.22,8.4,69.44
		c6.83,30.98,14.92,90.27,18.37,105.91c3.45,15.64-15.74,179.46-15.74,179.46s9.37,8.84,7.11,27.08
		C3609.46,3161.36,3608.53,3182.37,3605.74,3196.93z"/>
</g>
<linearGradient id="SVGID_15_" gradientUnits="userSpaceOnUse" x1="-838.0137" y1="4054.9871" x2="4226.0337" y2="3440.6313">
	<stop  offset="0" style="stop-color:#509CF1"/>
	<stop  offset="0.8304" style="stop-color:#99CAFF"/>
</linearGradient>
<path class="st46" d="M2925.35,3401.59v649.33H-64.91c0,0,702.51-956.57,1895.98-634.89
	C2265.4,3533.1,2616.4,3467.4,2925.35,3401.59z"/>
</svg>
