<svg width="60" height="38" viewBox="0 0 60 38" fill="none" xmlns="http://www.w3.org/2000/svg">
<path d="M0.492188 4C0.492188 1.79086 2.28305 0 4.49219 0H55.5163C57.7254 0 59.5163 1.79086 59.5163 4V12.6667H0.492188V4Z" fill="#FF9933"/>
<path d="M0.492188 12.667H59.5163V25.3337H0.492188V12.667Z" fill="white"/>
<path d="M0.492188 25.333H59.5163V33.9997C59.5163 36.2088 57.7254 37.9997 55.5163 37.9997H4.49219C2.28305 37.9997 0.492188 36.2088 0.492188 33.9997V25.333Z" fill="#128807"/>
<path d="M29.4234 23.5923C32.2207 23.5923 34.4884 21.5012 34.4884 18.9216C34.4884 16.3421 32.2207 14.251 29.4234 14.251C26.6261 14.251 24.3584 16.3421 24.3584 18.9216C24.3584 21.5012 26.6261 23.5923 29.4234 23.5923Z" fill="#000088"/>
<path d="M29.4231 23.0086C31.8707 23.0086 33.8549 21.1789 33.8549 18.9218C33.8549 16.6647 31.8707 14.835 29.4231 14.835C26.9754 14.835 24.9912 16.6647 24.9912 18.9218C24.9912 21.1789 26.9754 23.0086 29.4231 23.0086Z" fill="white"/>
<path d="M29.4235 19.7392C29.913 19.7392 30.3099 19.3733 30.3099 18.9219C30.3099 18.4704 29.913 18.1045 29.4235 18.1045C28.934 18.1045 28.5371 18.4704 28.5371 18.9219C28.5371 19.3733 28.934 19.7392 29.4235 19.7392Z" fill="#000088"/>
<path d="M33.7908 19.6698C33.9157 19.685 34.0303 19.604 34.0467 19.4889C34.0632 19.3738 33.9752 19.2682 33.8503 19.2531C33.7253 19.2379 33.6107 19.3189 33.5943 19.434C33.5778 19.5491 33.6658 19.6547 33.7908 19.6698Z" fill="#000088"/>
<path d="M29.4275 23.0133L29.5796 20.5612L29.4275 19.3936L29.2754 20.5612L29.4275 23.0133Z" fill="#000088"/>
<path d="M33.4328 20.6868C33.5492 20.7312 33.6826 20.6803 33.7308 20.573C33.779 20.4658 33.7237 20.3428 33.6073 20.2983C33.4909 20.2538 33.3574 20.3047 33.3093 20.412C33.2611 20.5193 33.3164 20.6423 33.4328 20.6868Z" fill="#000088"/>
<path d="M28.2793 22.875L29.1144 20.5424L29.2953 19.3781L28.8207 20.4698L28.2793 22.875Z" fill="#000088"/>
<path d="M32.8037 21.5818C32.9037 21.6526 33.0468 21.6352 33.1235 21.5431C33.2002 21.4509 33.1813 21.3189 33.0814 21.2482C32.9814 21.1774 32.8382 21.1948 32.7616 21.2869C32.6849 21.3791 32.7038 21.5111 32.8037 21.5818Z" fill="#000088"/>
<path d="M27.211 22.4646L28.6722 20.4111L29.1736 19.3298L28.4089 20.271L27.211 22.4646Z" fill="#000088"/>
<path d="M31.943 22.296C32.0197 22.3881 32.1629 22.4055 32.2628 22.3348C32.3627 22.2641 32.3816 22.1321 32.3049 22.0399C32.2282 21.9478 32.085 21.9304 31.9851 22.0011C31.8852 22.0718 31.8663 22.2038 31.943 22.296Z" fill="#000088"/>
<path d="M26.2938 21.8149L28.2815 20.1801L29.0694 19.2554L28.0666 19.9819L26.2938 21.8149Z" fill="#000088"/>
<path d="M30.9051 22.7801C30.9532 22.8874 31.0867 22.9383 31.203 22.8939C31.3194 22.8494 31.3747 22.7264 31.3265 22.6191C31.2783 22.5118 31.1449 22.4608 31.0285 22.5053C30.9121 22.5498 30.8569 22.6728 30.9051 22.7801Z" fill="#000088"/>
<path d="M25.5846 20.9674L27.9635 19.8626L28.9842 19.1574L27.8116 19.62L25.5846 20.9674Z" fill="#000088"/>
<path d="M29.7738 23.0047C29.7902 23.1198 29.9048 23.2009 30.0297 23.1857C30.1545 23.1705 30.2425 23.0649 30.226 22.9497C30.2096 22.8346 30.095 22.7535 29.9702 22.7687C29.8453 22.7839 29.7574 22.8895 29.7738 23.0047Z" fill="#000088"/>
<path d="M25.1422 19.9834L27.75 19.484L28.9338 19.0464L27.6714 19.2134L25.1422 19.9834Z" fill="#000088"/>
<path d="M28.6146 22.9485C28.5981 23.0637 28.686 23.1693 28.8109 23.1844C28.9359 23.1996 29.0504 23.1185 29.0669 23.0034C29.0833 22.8883 28.9954 22.7826 28.8705 22.7675C28.7456 22.7523 28.631 22.8334 28.6146 22.9485Z" fill="#000088"/>
<path d="M24.9897 18.9235L27.6488 19.0631L28.915 18.9231L27.6488 18.7833L24.9897 18.9235Z" fill="#000088"/>
<path d="M27.5147 22.6183C27.4665 22.7256 27.5218 22.8486 27.6382 22.8931C27.7545 22.9375 27.888 22.8866 27.9362 22.7793C27.9844 22.672 27.9291 22.5489 27.8127 22.5045C27.6963 22.46 27.5629 22.511 27.5147 22.6183Z" fill="#000088"/>
<path d="M25.1427 17.8656L27.6719 18.6355L28.9343 18.8024L27.7505 18.3648L25.1427 17.8656Z" fill="#000088"/>
<path d="M26.5403 22.0367C26.4636 22.1288 26.4825 22.2609 26.5824 22.3316C26.6824 22.4023 26.8255 22.3849 26.9022 22.2928C26.9789 22.2007 26.96 22.0686 26.86 21.9979C26.7601 21.9272 26.6169 21.9446 26.5403 22.0367Z" fill="#000088"/>
<path d="M25.5812 16.8807L27.8081 18.2281L28.9807 18.6906L27.96 17.9855L25.5812 16.8807Z" fill="#000088"/>
<path d="M25.7621 21.2425C25.6621 21.3132 25.6433 21.4452 25.72 21.5374C25.7967 21.6296 25.9399 21.647 26.0398 21.5763C26.1397 21.5056 26.1585 21.3735 26.0818 21.2814C26.0051 21.1892 25.862 21.1718 25.7621 21.2425Z" fill="#000088"/>
<path d="M26.2839 16.0326L28.0568 17.8656L29.0596 18.5922L28.2716 17.6675L26.2839 16.0326Z" fill="#000088"/>
<path d="M25.2426 20.2924C25.1263 20.3369 25.071 20.4599 25.1192 20.5672C25.1674 20.6745 25.3009 20.7255 25.4172 20.6811C25.5336 20.6366 25.5888 20.5136 25.5406 20.4063C25.4924 20.2989 25.359 20.248 25.2426 20.2924Z" fill="#000088"/>
<path d="M27.2094 15.3854L28.4074 17.579L29.1721 18.5202L28.6706 17.439L27.2094 15.3854Z" fill="#000088"/>
<path d="M25.0014 19.2471C24.8765 19.2623 24.7886 19.3679 24.8051 19.4831C24.8215 19.5982 24.9361 19.6793 25.061 19.6642C25.1859 19.649 25.2738 19.5434 25.2573 19.4282C25.2409 19.313 25.1263 19.232 25.0014 19.2471Z" fill="#000088"/>
<path d="M28.2786 14.9763L28.8202 17.3811L29.2947 18.4728L29.1137 17.3086L28.2786 14.9763Z" fill="#000088"/>
<path d="M25.0609 18.1737C24.936 18.1585 24.8214 18.2396 24.805 18.3547C24.7886 18.4699 24.8765 18.5755 25.0014 18.5907C25.1263 18.6059 25.2409 18.5248 25.2573 18.4097C25.2737 18.2945 25.1858 18.1889 25.0609 18.1737Z" fill="#000088"/>
<path d="M29.424 14.8304L29.2726 17.2825L29.4245 18.4502L29.576 17.2825L29.424 14.8304Z" fill="#000088"/>
<path d="M25.4179 17.1647C25.3015 17.1203 25.1681 17.1712 25.1199 17.2785C25.0717 17.3858 25.127 17.5088 25.2434 17.5533C25.3598 17.5977 25.4932 17.5468 25.5414 17.4395C25.5895 17.3322 25.5343 17.2092 25.4179 17.1647Z" fill="#000088"/>
<path d="M30.5712 14.9771L29.7362 17.3093L29.5553 18.4735L30.0298 17.3819L30.5712 14.9771Z" fill="#000088"/>
<path d="M26.0488 16.2678C25.9489 16.1971 25.8057 16.2144 25.729 16.3066C25.6524 16.3987 25.6712 16.5307 25.7712 16.6014C25.8711 16.6722 26.0143 16.6548 26.091 16.5627C26.1676 16.4705 26.1488 16.3385 26.0488 16.2678Z" fill="#000088"/>
<path d="M31.6415 15.385L30.1804 17.4385L29.6789 18.5198L30.4436 17.5786L31.6415 15.385Z" fill="#000088"/>
<path d="M26.9095 15.5517C26.8328 15.4595 26.6896 15.4421 26.5897 15.5128C26.4898 15.5835 26.471 15.7156 26.5477 15.8077C26.6244 15.8999 26.7675 15.9173 26.8674 15.8466C26.9674 15.7759 26.9862 15.6439 26.9095 15.5517Z" fill="#000088"/>
<path d="M32.5597 16.0338L30.572 17.6685L29.7841 18.5933L30.787 17.8667L32.5597 16.0338Z" fill="#000088"/>
<path d="M27.9416 15.0676C27.8934 14.9602 27.76 14.9093 27.6436 14.9538C27.5273 14.9982 27.472 15.1213 27.5202 15.2286C27.5684 15.3359 27.7018 15.3868 27.8182 15.3423C27.9345 15.2979 27.9898 15.1749 27.9416 15.0676Z" fill="#000088"/>
<path d="M33.262 16.8803L30.8832 17.985L29.8625 18.6902L31.0351 18.2277L33.262 16.8803Z" fill="#000088"/>
<path d="M29.0729 14.843C29.0565 14.7278 28.9419 14.6468 28.817 14.6619C28.6921 14.6771 28.6042 14.7828 28.6206 14.8979C28.6371 15.0131 28.7516 15.0941 28.8765 15.079C29.0014 15.0638 29.0893 14.9581 29.0729 14.843Z" fill="#000088"/>
<path d="M33.7045 17.8643L31.0966 18.3637L29.9128 18.8012L31.1753 18.6343L33.7045 17.8643Z" fill="#000088"/>
<path d="M30.2321 14.8952C30.2486 14.7801 30.1606 14.6744 30.0357 14.6593C29.9108 14.6441 29.7962 14.7252 29.7798 14.8403C29.7633 14.9555 29.8513 15.0611 29.9762 15.0763C30.1011 15.0914 30.2157 15.0104 30.2321 14.8952Z" fill="#000088"/>
<path d="M33.857 18.9202L31.1979 18.7806L29.9317 18.9207L31.1979 19.0604L33.857 18.9202Z" fill="#000088"/>
<path d="M31.3329 15.2284C31.3811 15.121 31.3259 14.998 31.2095 14.9536C31.0931 14.9091 30.9597 14.9601 30.9115 15.0674C30.8633 15.1747 30.9186 15.2977 31.0349 15.3422C31.1513 15.3866 31.2847 15.3357 31.3329 15.2284Z" fill="#000088"/>
<path d="M33.704 19.9801L31.1748 19.2101L29.9124 19.0433L31.0961 19.4809L33.704 19.9801Z" fill="#000088"/>
<path d="M32.3054 15.8118C32.3821 15.7197 32.3633 15.5876 32.2633 15.5169C32.1634 15.4462 32.0202 15.4636 31.9435 15.5558C31.8669 15.6479 31.8857 15.78 31.9856 15.8507C32.0855 15.9214 32.2287 15.904 32.3054 15.8118Z" fill="#000088"/>
<path d="M33.2625 20.9678L31.0357 19.6204L29.8631 19.1579L30.8837 19.8631L33.2625 20.9678Z" fill="#000088"/>
<path d="M33.0807 16.6041C33.1806 16.5334 33.1995 16.4013 33.1228 16.3092C33.0461 16.217 32.903 16.1997 32.803 16.2704C32.7031 16.3411 32.6842 16.4731 32.7609 16.5653C32.8376 16.6574 32.9807 16.6748 33.0807 16.6041Z" fill="#000088"/>
<path d="M32.5589 21.814L30.7861 19.981L29.7832 19.2544L30.5711 20.1792L32.5589 21.814Z" fill="#000088"/>
<path d="M33.604 17.5562C33.7204 17.5117 33.7757 17.3887 33.7275 17.2814C33.6793 17.174 33.5458 17.1231 33.4295 17.1676C33.3131 17.212 33.2578 17.335 33.306 17.4423C33.3542 17.5497 33.4876 17.6006 33.604 17.5562Z" fill="#000088"/>
<path d="M31.6372 22.4632L30.4393 20.2695L29.6746 19.3284L30.1761 20.4097L31.6372 22.4632Z" fill="#000088"/>
<path d="M33.8452 18.6005C33.9701 18.5853 34.058 18.4797 34.0416 18.3645C34.0251 18.2494 33.9106 18.1683 33.7857 18.1835C33.6608 18.1986 33.5729 18.3043 33.5893 18.4195C33.6058 18.5346 33.7203 18.6157 33.8452 18.6005Z" fill="#000088"/>
<path d="M30.569 22.8713L30.0276 20.4665L29.553 19.3749L29.734 20.539L30.569 22.8713Z" fill="#000088"/>
</svg>
