<svg width="60" height="38" viewBox="0 0 60 38" fill="none" xmlns="http://www.w3.org/2000/svg">
<g id="&#240;&#159;&#166;&#134; icon &#34;India&#34;">
<path id="Vector" d="M0.492188 4C0.492188 1.79086 2.28305 0 4.49219 0H55.5163C57.7254 0 59.5163 1.79086 59.5163 4V12.6667H0.492188V4Z" fill="#FF9933"/>
<path id="Vector_2" d="M0.492188 12.667H59.5163V25.3337H0.492188V12.667Z" fill="white"/>
<path id="Vector_3" d="M0.492188 25.333H59.5163V33.9997C59.5163 36.2088 57.7254 37.9997 55.5163 37.9997H4.49219C2.28305 37.9997 0.492188 36.2088 0.492188 33.9997V25.333Z" fill="#128807"/>
<g id="Group">
<path id="Vector_4" d="M30.004 24.066C33.2638 24.066 35.9064 21.7975 35.9064 18.9993C35.9064 16.201 33.2638 13.9326 30.004 13.9326C26.7442 13.9326 24.1016 16.201 24.1016 18.9993C24.1016 21.7975 26.7442 24.066 30.004 24.066Z" fill="#000088"/>
<path id="Vector_5" d="M30.0045 23.4331C32.8568 23.4331 35.1691 21.4482 35.1691 18.9997C35.1691 16.5513 32.8568 14.5664 30.0045 14.5664C27.1521 14.5664 24.8398 16.5513 24.8398 18.9997C24.8398 21.4482 27.1521 23.4331 30.0045 23.4331Z" fill="white"/>
<path id="Vector_6" d="M30.0046 19.8866C30.5751 19.8866 31.0375 19.4896 31.0375 18.9999C31.0375 18.5103 30.5751 18.1133 30.0046 18.1133C29.4341 18.1133 28.9717 18.5103 28.9717 18.9999C28.9717 19.4896 29.4341 19.8866 30.0046 19.8866Z" fill="#000088"/>
<g id="d">
<g id="c">
<g id="b">
<g id="a">
<path id="Vector_7" d="M35.0918 19.81C35.2374 19.8265 35.3709 19.7386 35.3901 19.6138C35.4092 19.4889 35.3067 19.3744 35.1611 19.3579C35.0155 19.3415 34.8819 19.4293 34.8628 19.5542C34.8436 19.679 34.9462 19.7936 35.0918 19.81Z" fill="#000088"/>
<path id="Vector_8" d="M30.0064 23.4374L30.1837 20.7774L30.0064 19.5107L29.8291 20.7774L30.0064 23.4374Z" fill="#000088"/>
</g>
<g id="a_2">
<path id="Vector_9" d="M34.6741 20.913C34.8098 20.9613 34.9653 20.9061 35.0214 20.7897C35.0776 20.6733 35.0131 20.5399 34.8775 20.4916C34.7418 20.4434 34.5863 20.4986 34.5302 20.615C34.474 20.7314 34.5385 20.8648 34.6741 20.913Z" fill="#000088"/>
<path id="Vector_10" d="M28.6688 23.2868L29.642 20.7565L29.8528 19.4935L29.2997 20.6778L28.6688 23.2868Z" fill="#000088"/>
</g>
</g>
<g id="b_2">
<g id="a_3">
<path id="Vector_11" d="M33.9401 21.8847C34.0566 21.9614 34.2234 21.9425 34.3127 21.8426C34.4021 21.7426 34.3801 21.5994 34.2636 21.5227C34.1472 21.446 33.9803 21.4648 33.891 21.5648C33.8016 21.6647 33.8236 21.8079 33.9401 21.8847Z" fill="#000088"/>
<path id="Vector_12" d="M27.4229 22.8428L29.1257 20.6152L29.71 19.4422L28.8189 20.4632L27.4229 22.8428Z" fill="#000088"/>
</g>
<g id="a_4">
<path id="Vector_13" d="M32.9384 22.6599C33.0278 22.7599 33.1946 22.7788 33.311 22.7021C33.4275 22.6254 33.4494 22.4822 33.3601 22.3822C33.2707 22.2822 33.1038 22.2633 32.9874 22.34C32.871 22.4167 32.849 22.56 32.9384 22.6599Z" fill="#000088"/>
<path id="Vector_14" d="M26.3546 22.1379L28.671 20.3646L29.5891 19.3614L28.4205 20.1496L26.3546 22.1379Z" fill="#000088"/>
</g>
</g>
</g>
<g id="c_2">
<g id="b_3">
<g id="a_5">
<path id="Vector_15" d="M31.7307 23.1843C31.7868 23.3007 31.9423 23.3559 32.0779 23.3077C32.2135 23.2595 32.278 23.126 32.2218 23.0096C32.1656 22.8932 32.0102 22.8379 31.8745 22.8862C31.7389 22.9344 31.6745 23.0679 31.7307 23.1843Z" fill="#000088"/>
<path id="Vector_16" d="M25.5303 21.2181L28.3024 20.0196L29.4918 19.2546L28.1254 19.7564L25.5303 21.2181Z" fill="#000088"/>
</g>
<g id="a_6">
<path id="Vector_17" d="M30.4119 23.4293C30.4311 23.5543 30.5646 23.6422 30.7101 23.6257C30.8556 23.6093 30.9581 23.4947 30.939 23.3697C30.9198 23.2448 30.7863 23.1569 30.6408 23.1734C30.4952 23.1898 30.3928 23.3044 30.4119 23.4293Z" fill="#000088"/>
<path id="Vector_18" d="M25.015 20.1515L28.054 19.6097L29.4335 19.135L27.9624 19.3162L25.015 20.1515Z" fill="#000088"/>
</g>
</g>
<g id="b_4">
<g id="a_7">
<path id="Vector_19" d="M29.0622 23.3678C29.043 23.4927 29.1455 23.6073 29.291 23.6237C29.4366 23.6401 29.5701 23.5522 29.5893 23.4273C29.6085 23.3024 29.506 23.1878 29.3605 23.1714C29.2149 23.155 29.0814 23.2429 29.0622 23.3678Z" fill="#000088"/>
<path id="Vector_20" d="M24.8378 19.0018L27.9365 19.1533L29.4121 19.0014L27.9365 18.8498L24.8378 19.0018Z" fill="#000088"/>
</g>
<g id="a_8">
<path id="Vector_21" d="M27.7783 23.0088C27.7221 23.1252 27.7865 23.2587 27.9221 23.3069C28.0577 23.3551 28.2132 23.2998 28.2694 23.1834C28.3256 23.067 28.2612 22.9336 28.1255 22.8854C27.9899 22.8371 27.8344 22.8924 27.7783 23.0088Z" fill="#000088"/>
<path id="Vector_22" d="M25.0142 17.8533L27.9615 18.6885L29.4327 18.8695L28.0532 18.3948L25.0142 17.8533Z" fill="#000088"/>
</g>
</g>
</g>
</g>
<g id="d_2">
<g id="c_3">
<g id="b_5">
<g id="a_9">
<path id="Vector_23" d="M26.646 22.3778C26.5566 22.4777 26.5786 22.6209 26.6951 22.6977C26.8115 22.7744 26.9784 22.7555 27.0677 22.6556C27.1571 22.5556 27.1351 22.4124 27.0186 22.3357C26.9021 22.259 26.7353 22.2778 26.646 22.3778Z" fill="#000088"/>
<path id="Vector_24" d="M25.529 16.7844L28.1242 18.246L29.4906 18.7478L28.3012 17.9829L25.529 16.7844Z" fill="#000088"/>
</g>
<g id="a_10">
<path id="Vector_25" d="M25.738 21.5171C25.6215 21.5937 25.5996 21.737 25.689 21.8369C25.7783 21.9369 25.9452 21.9558 26.0616 21.8791C26.1781 21.8024 26.2 21.6592 26.1106 21.5592C26.0213 21.4592 25.8544 21.4404 25.738 21.5171Z" fill="#000088"/>
<path id="Vector_26" d="M26.3462 15.866L28.4123 17.8544L29.5809 18.6426L28.6626 17.6395L26.3462 15.866Z" fill="#000088"/>
</g>
</g>
<g id="b_6">
<g id="a_11">
<path id="Vector_27" d="M25.133 20.486C24.9974 20.5342 24.933 20.6677 24.9892 20.7841C25.0454 20.9005 25.2009 20.9558 25.3365 20.9076C25.4721 20.8594 25.5365 20.7259 25.4803 20.6095C25.4241 20.4931 25.2686 20.4378 25.133 20.486Z" fill="#000088"/>
<path id="Vector_28" d="M27.4237 15.1627L28.8198 17.5423L29.7109 18.5633L29.1264 17.3903L27.4237 15.1627Z" fill="#000088"/>
</g>
<g id="a_12">
<path id="Vector_29" d="M24.8516 19.3518C24.7061 19.3682 24.6037 19.4828 24.6228 19.6077C24.642 19.7327 24.7755 19.8206 24.9211 19.8042C25.0666 19.7877 25.169 19.6731 25.1499 19.5482C25.1307 19.4233 24.9972 19.3353 24.8516 19.3518Z" fill="#000088"/>
<path id="Vector_30" d="M28.6704 14.7191L29.3015 17.3278L29.8544 18.512L29.6434 17.2491L28.6704 14.7191Z" fill="#000088"/>
</g>
</g>
</g>
<g id="c_4">
<g id="b_7">
<g id="a_13">
<path id="Vector_31" d="M24.9201 18.1897C24.7745 18.1733 24.641 18.2612 24.6219 18.3861C24.6027 18.511 24.7052 18.6256 24.8507 18.6421C24.9963 18.6585 25.1298 18.5706 25.1489 18.4457C25.1681 18.3208 25.0656 18.2062 24.9201 18.1897Z" fill="#000088"/>
<path id="Vector_32" d="M30.0053 14.5626L29.8288 17.2226L30.0058 18.4892L30.1824 17.2226L30.0053 14.5626Z" fill="#000088"/>
</g>
<g id="a_14">
<path id="Vector_33" d="M25.3377 17.0927C25.202 17.0445 25.0466 17.0998 24.9904 17.2161C24.9342 17.3325 24.9987 17.466 25.1343 17.5142C25.2699 17.5625 25.4254 17.5072 25.4816 17.3908C25.5377 17.2744 25.4733 17.141 25.3377 17.0927Z" fill="#000088"/>
<path id="Vector_34" d="M31.3428 14.7196L30.3697 17.2495L30.159 18.5124L30.712 17.3283L31.3428 14.7196Z" fill="#000088"/>
</g>
</g>
<g id="b_8">
<g id="a_15">
<path id="Vector_35" d="M26.0736 16.1212C25.9571 16.0445 25.7903 16.0633 25.7009 16.1633C25.6116 16.2632 25.6336 16.4064 25.7501 16.4832C25.8665 16.5599 26.0334 16.541 26.1227 16.4411C26.212 16.3411 26.1901 16.1979 26.0736 16.1212Z" fill="#000088"/>
<path id="Vector_36" d="M32.5907 15.1631L30.888 17.3907L30.3036 18.5636L31.1948 17.5427L32.5907 15.1631Z" fill="#000088"/>
</g>
<g id="a_16">
<path id="Vector_37" d="M27.0753 15.344C26.9859 15.244 26.8191 15.2251 26.7026 15.3018C26.5862 15.3785 26.5642 15.5217 26.6536 15.6217C26.743 15.7217 26.9098 15.7406 27.0263 15.6639C27.1427 15.5872 27.1646 15.444 27.0753 15.344Z" fill="#000088"/>
<path id="Vector_38" d="M33.66 15.867L31.3437 17.6403L30.4255 18.6435L31.5942 17.8553L33.66 15.867Z" fill="#000088"/>
</g>
</g>
</g>
</g>
<g id="d_3">
<g id="c_5">
<g id="b_9">
<g id="a_17">
<path id="Vector_39" d="M28.2772 14.8177C28.221 14.7013 28.0655 14.646 27.9299 14.6943C27.7943 14.7425 27.7299 14.876 27.786 14.9924C27.8422 15.1088 27.9976 15.164 28.1333 15.1158C28.2689 15.0676 28.3333 14.9341 28.2772 14.8177Z" fill="#000088"/>
<path id="Vector_40" d="M34.4776 16.7839L31.7054 17.9824L30.516 18.7473L31.8824 18.2455L34.4776 16.7839Z" fill="#000088"/>
</g>
<g id="a_18">
<path id="Vector_41" d="M29.5949 14.5726C29.5758 14.4477 29.4423 14.3598 29.2967 14.3762C29.1512 14.3927 29.0487 14.5073 29.0679 14.6322C29.087 14.7571 29.2205 14.8451 29.3661 14.8286C29.5116 14.8121 29.614 14.6975 29.5949 14.5726Z" fill="#000088"/>
<path id="Vector_42" d="M34.9919 17.8505L31.9529 18.3923L30.5733 18.8669L32.0445 18.6858L34.9919 17.8505Z" fill="#000088"/>
</g>
</g>
<g id="b_10">
<g id="a_19">
<path id="Vector_43" d="M30.9456 14.6312C30.9648 14.5063 30.8623 14.3917 30.7168 14.3753C30.5712 14.3589 30.4377 14.4468 30.4185 14.5717C30.3993 14.6966 30.5018 14.8112 30.6473 14.8276C30.7929 14.844 30.9264 14.7561 30.9456 14.6312Z" fill="#000088"/>
<path id="Vector_44" d="M35.17 18.9971L32.0713 18.8458L30.5957 18.9977L32.0713 19.1492L35.17 18.9971Z" fill="#000088"/>
</g>
<g id="a_20">
<path id="Vector_45" d="M32.2295 14.9912C32.2857 14.8747 32.2213 14.7413 32.0857 14.6931C31.9501 14.6449 31.7946 14.7002 31.7384 14.8166C31.6823 14.933 31.7467 15.0664 31.8823 15.1146C32.0179 15.1629 32.1734 15.1076 32.2295 14.9912Z" fill="#000088"/>
<path id="Vector_46" d="M34.9936 20.1467L32.0463 19.3114L30.5751 19.1305L31.9546 19.6052L34.9936 20.1467Z" fill="#000088"/>
</g>
</g>
</g>
<g id="c_6">
<g id="b_11">
<g id="a_21">
<path id="Vector_47" d="M33.3628 15.6241C33.4522 15.5241 33.4302 15.3809 33.3138 15.3042C33.1973 15.2275 33.0305 15.2464 32.9411 15.3463C32.8517 15.4463 32.8737 15.5895 32.9901 15.6662C33.1066 15.7429 33.2734 15.7241 33.3628 15.6241Z" fill="#000088"/>
<path id="Vector_48" d="M34.4788 21.2174L31.8837 19.7558L30.5173 19.2541L31.7066 20.0191L34.4788 21.2174Z" fill="#000088"/>
</g>
<g id="a_22">
<path id="Vector_49" d="M34.2678 16.4848C34.3843 16.4081 34.4063 16.2649 34.3169 16.1649C34.2276 16.065 34.0607 16.0461 33.9443 16.1228C33.8278 16.1995 33.8058 16.3428 33.8952 16.4427C33.9845 16.5427 34.1514 16.5615 34.2678 16.4848Z" fill="#000088"/>
<path id="Vector_50" d="M33.6596 22.1358L31.5937 20.1475L30.425 19.3593L31.3432 20.3625L33.6596 22.1358Z" fill="#000088"/>
</g>
</g>
<g id="b_12">
<g id="a_23">
<path id="Vector_51" d="M34.8757 17.5159C35.0113 17.4676 35.0757 17.3342 35.0196 17.2178C34.9634 17.1014 34.8079 17.0461 34.6723 17.0943C34.5367 17.1425 34.4723 17.276 34.5285 17.3924C34.5846 17.5088 34.7401 17.5641 34.8757 17.5159Z" fill="#000088"/>
<path id="Vector_52" d="M32.585 22.8392L31.1891 20.4596L30.2979 19.4386L30.8823 20.6116L32.585 22.8392Z" fill="#000088"/>
</g>
<g id="a_24">
<path id="Vector_53" d="M35.1571 18.6492C35.3026 18.6327 35.4051 18.5181 35.3859 18.3932C35.3668 18.2683 35.2333 18.1803 35.0877 18.1968C34.9422 18.2132 34.8397 18.3278 34.8589 18.4528C34.8781 18.5777 35.0116 18.6656 35.1571 18.6492Z" fill="#000088"/>
<path id="Vector_54" d="M31.3393 23.2818L30.7084 20.6731L30.1554 19.489L30.3663 20.7518L31.3393 23.2818Z" fill="#000088"/>
</g>
</g>
</g>
</g>
</g>
</g>
</svg>
