<svg width="1728" height="949" viewBox="0 0 1728 949" fill="none" xmlns="http://www.w3.org/2000/svg">
<g clip-path="url(#clip0_717_7739)">
<rect width="1728" height="949" fill="white"/>
<rect opacity="0.1" x="-1" width="1729" height="1117" fill="#D3F4FD"/>
<path d="M504.258 784.1L440 763.947L442.759 687.816L506.805 717.505L504.258 784.1Z" fill="url(#paint0_linear_717_7739)"/>
<path d="M371.775 785.202L440 763.947L442.759 687.816L373.934 723.995L371.775 785.202Z" fill="url(#paint1_linear_717_7739)"/>
<path d="M371.775 785.202L439.999 763.947L504.258 784.1L421.032 794.806L371.775 785.202Z" fill="url(#paint2_linear_717_7739)"/>
<path d="M440 763.947C442.697 764.741 445.382 765.56 448.077 766.365L456.135 768.828C458.823 769.644 461.499 770.487 464.18 771.317L472.22 773.818L480.244 776.354C482.917 777.203 485.599 778.039 488.265 778.901L496.274 781.479C498.938 782.353 501.607 783.213 504.265 784.1C501.567 783.306 498.882 782.487 496.188 781.682L488.13 779.22C485.442 778.407 482.766 777.56 480.084 776.731L472.045 774.23L464.02 771.691C461.348 770.842 458.669 770.006 455.999 769.144L447.99 766.566C445.327 765.692 442.657 764.832 440 763.947Z" fill="#66340E"/>
<g style="mix-blend-mode:multiply">
<path d="M471.973 774.21L408.028 787.54L396.685 790.06L395.961 789.917L407.308 787.4L471.412 774.032L471.973 774.21Z" fill="#CA9151"/>
</g>
<g style="mix-blend-mode:multiply">
<path d="M413.301 788.802L413.141 788.838L402.515 791.196L390.343 788.821L400.852 786.488L400.941 786.469C401.135 786.549 401.338 786.623 401.696 786.695C402.096 786.774 402.284 786.766 402.484 786.761C402.693 786.755 402.915 786.747 403.371 786.835C403.823 786.925 404.063 787.022 404.291 787.115C404.51 787.206 404.716 787.288 405.116 787.368C405.517 787.447 405.705 787.439 405.905 787.434C406.114 787.428 406.336 787.42 406.788 787.508C407.244 787.599 407.481 787.695 407.712 787.788C407.931 787.879 408.134 787.961 408.534 788.041C408.935 788.121 409.122 788.112 409.323 788.107C409.535 788.101 409.754 788.093 410.209 788.181C410.662 788.269 410.902 788.368 411.13 788.461C411.349 788.552 411.552 788.635 411.952 788.714C412.352 788.794 412.543 788.786 412.74 788.78C412.894 788.775 413.051 788.769 413.298 788.802H413.301Z" fill="#927B59"/>
<path d="M479.306 776.275L470.348 778.261L470.201 778.294C469.954 778.264 469.693 778.231 469.265 778.096C468.827 777.956 468.652 777.849 468.479 777.742C468.316 777.643 468.162 777.55 467.777 777.426C467.392 777.302 467.168 777.275 466.928 777.247C466.675 777.217 466.413 777.187 465.979 777.047C465.542 776.907 465.363 776.797 465.191 776.692C465.028 776.593 464.874 776.497 464.489 776.376C464.104 776.253 463.879 776.228 463.642 776.198C463.39 776.167 463.128 776.137 462.691 775.997C462.253 775.857 462.075 775.747 461.902 775.642C461.739 775.544 461.588 775.45 461.203 775.326C460.819 775.203 460.594 775.178 460.354 775.148C460.101 775.118 459.839 775.087 459.402 774.947C458.965 774.807 458.786 774.697 458.614 774.593C458.451 774.494 458.297 774.398 457.912 774.277C457.527 774.156 457.302 774.128 457.065 774.098C456.813 774.068 456.551 774.038 456.114 773.898C456.003 773.862 455.91 773.829 455.827 773.799L455.917 773.779L464.948 771.773L479.303 776.275H479.306Z" fill="#927B59"/>
</g>
<g style="mix-blend-mode:multiply">
<path d="M479.305 776.274L464.95 771.773L465.501 763.189C465.858 763.123 466.151 762.961 466.677 763.136C467.502 763.414 467.253 763.961 468.078 764.236C468.903 764.51 469.15 763.964 469.975 764.236C470.8 764.51 470.554 765.057 471.376 765.335C472.201 765.61 472.447 765.063 473.273 765.335C474.098 765.61 473.852 766.156 474.677 766.431C475.502 766.709 475.748 766.159 476.574 766.434C477.399 766.709 477.152 767.256 477.975 767.53C478.8 767.808 479.046 767.261 479.874 767.536C479.93 767.555 479.982 767.574 480.028 767.596L479.305 776.269V776.274Z" fill="#C1A477"/>
</g>
<g style="mix-blend-mode:multiply">
<path d="M484.41 714.435C484.173 714.152 484.136 713.831 483.582 713.611C482.775 713.295 482.495 713.828 481.688 713.512C480.885 713.196 481.168 712.663 480.361 712.347C479.558 712.031 479.274 712.564 478.468 712.248C477.664 711.932 477.947 711.399 477.141 711.083C476.337 710.767 476.054 711.303 475.247 710.987C474.443 710.671 474.727 710.138 473.92 709.822C473.116 709.506 472.833 710.039 472.026 709.723C471.223 709.407 471.506 708.874 470.699 708.558C469.963 708.269 469.664 708.69 469.009 708.525L469.495 700.935L485.008 707.824L484.407 714.433L484.41 714.435Z" fill="#C1A477"/>
</g>
<g style="mix-blend-mode:multiply" opacity="0.4">
<path d="M426.119 763.257L434.725 760.364L435.212 746.407L426.584 749.589L426.122 763.257H426.119ZM434.279 759.77L426.603 762.364L427.018 750.161L434.713 747.336L434.282 759.77H434.279Z" fill="black"/>
</g>
<g style="mix-blend-mode:multiply" opacity="0.4">
<path d="M416.765 766.401L424.983 763.639L425.445 750.01L417.206 753.049L416.765 766.401ZM424.555 763.054L417.224 765.533L417.618 753.61L424.965 750.914L424.555 763.057V763.054Z" fill="black"/>
</g>
<g style="mix-blend-mode:multiply" opacity="0.4">
<path d="M432.546 752.576C432.493 754.107 431.733 755.616 430.806 756.124L430.723 758.575L431.188 758.416L431.163 759.163L431.865 758.924L431.841 759.672L429.048 760.622L429.072 759.88L429.768 759.644L429.793 758.899L430.258 758.74L430.341 756.292C429.433 756.429 428.768 755.426 428.82 753.912L428.922 750.939L432.65 749.584L432.546 752.585V752.576Z" fill="black"/>
</g>
<g style="mix-blend-mode:multiply" opacity="0.4">
<path d="M423.819 761.671L423.795 762.405L418.018 764.37L418.043 763.647L423.819 761.671Z" fill="black"/>
</g>
<g style="mix-blend-mode:multiply" opacity="0.4">
<path d="M422.713 761.507L422.267 761.661L421.82 761.815L422.008 756.151L422.458 755.992L422.904 755.833L422.713 761.507Z" fill="black"/>
</g>
<g style="mix-blend-mode:multiply" opacity="0.4">
<path d="M420.041 762.425L419.6 762.576L419.16 762.727L419.345 757.102L419.788 756.945L420.229 756.789L420.041 762.425Z" fill="black"/>
</g>
<g style="mix-blend-mode:multiply" opacity="0.4">
<path d="M422.559 752.881L423.597 755.041L421.358 755.844L422.559 752.881Z" fill="black"/>
</g>
<g style="mix-blend-mode:multiply" opacity="0.4">
<path d="M419.89 753.854L420.912 756.003L418.704 756.794L419.89 753.854Z" fill="black"/>
</g>
<path d="M97.921 665.382L146.747 649.472L147.135 590.216L96.3013 613.56L97.921 665.382Z" fill="url(#paint3_linear_717_7739)"/>
<path d="M213.052 669.719L146.746 649.472L147.134 590.216L213.825 622.078L213.052 669.719Z" fill="url(#paint4_linear_717_7739)"/>
<path d="M208.326 635.543L189.433 627.585C188.626 627.244 188.112 626.518 188.115 625.724L188.149 615.527C188.149 614.845 188.958 614.408 189.636 614.719L208.865 623.537C209.653 623.9 210.14 624.636 210.112 625.428L209.78 634.751C209.755 635.408 208.988 635.826 208.323 635.545L208.326 635.543Z" fill="url(#paint5_linear_717_7739)"/>
<path d="M213.053 669.718L146.747 649.472L97.9208 665.382L175.654 677.368L213.053 669.718Z" fill="url(#paint6_linear_717_7739)"/>
<path d="M146.746 649.472C144.698 650.098 142.657 650.747 140.612 651.381L134.491 653.327C132.45 653.97 130.417 654.638 128.379 655.292L122.27 657.267L116.173 659.271C114.141 659.941 112.106 660.601 110.08 661.282L103.995 663.316C101.972 664.005 99.9433 664.684 97.9234 665.382C99.9741 664.756 102.012 664.107 104.057 663.472L110.178 661.529C112.22 660.886 114.252 660.219 116.29 659.562L122.399 657.586L128.496 655.583C130.528 654.913 132.564 654.253 134.59 653.572L140.674 651.538C142.697 650.848 144.726 650.17 146.746 649.472Z" fill="#66340E"/>
<g style="mix-blend-mode:multiply">
<path d="M122.453 657.572L185.548 671.666L194.138 673.587L194.689 673.474L186.096 671.556L122.878 657.432L122.453 657.572Z" fill="#CA9151"/>
</g>
<g style="mix-blend-mode:multiply">
<path d="M181.548 672.667L181.671 672.694L189.717 674.492L198.957 672.601L190.997 670.823L190.93 670.807C190.782 670.87 190.628 670.928 190.357 670.985C190.052 671.048 189.911 671.043 189.76 671.04C189.6 671.035 189.433 671.029 189.088 671.101C188.744 671.172 188.562 671.249 188.389 671.323C188.223 671.395 188.066 671.461 187.764 671.521C187.46 671.584 187.318 671.579 187.167 671.576C187.007 671.571 186.841 671.565 186.496 671.637C186.151 671.708 185.969 671.785 185.794 671.859C185.627 671.931 185.474 671.996 185.169 672.057C184.864 672.12 184.722 672.115 184.571 672.112C184.411 672.106 184.245 672.101 183.9 672.172C183.555 672.244 183.374 672.321 183.201 672.395C183.035 672.466 182.881 672.532 182.576 672.593C182.271 672.656 182.13 672.65 181.976 672.648C181.859 672.645 181.742 672.642 181.551 672.667H181.548Z" fill="#957E5A"/>
<path d="M116.883 659.205L123.666 660.719L123.78 660.744C123.968 660.719 124.165 660.694 124.491 660.584C124.824 660.474 124.959 660.389 125.089 660.307C125.212 660.23 125.329 660.156 125.621 660.057C125.914 659.961 126.083 659.939 126.265 659.917C126.456 659.892 126.653 659.867 126.985 659.757C127.318 659.647 127.453 659.562 127.586 659.48C127.709 659.403 127.826 659.326 128.119 659.23C128.411 659.131 128.58 659.111 128.762 659.087C128.953 659.062 129.153 659.037 129.483 658.927C129.815 658.817 129.951 658.732 130.08 658.647C130.203 658.57 130.32 658.496 130.613 658.397C130.905 658.301 131.078 658.279 131.256 658.257C131.447 658.232 131.644 658.207 131.977 658.097C132.309 657.988 132.445 657.902 132.574 657.817C132.697 657.74 132.814 657.663 133.107 657.567C133.399 657.471 133.569 657.449 133.75 657.424C133.941 657.399 134.141 657.375 134.474 657.265C134.557 657.237 134.628 657.21 134.689 657.185L134.622 657.171L127.783 655.644L116.877 659.199L116.883 659.205Z" fill="#957E5A"/>
</g>
<g style="mix-blend-mode:multiply">
<path d="M116.881 659.205L127.787 655.652L127.408 648.972C127.137 648.922 126.919 648.796 126.518 648.936C125.893 649.153 126.078 649.579 125.45 649.796C124.825 650.013 124.64 649.587 124.012 649.804C123.387 650.022 123.569 650.447 122.944 650.665C122.319 650.882 122.134 650.456 121.506 650.673C120.877 650.89 121.062 651.316 120.437 651.533C119.812 651.75 119.627 651.327 118.999 651.544C118.374 651.761 118.556 652.187 117.931 652.404C117.303 652.621 117.118 652.198 116.49 652.415C116.447 652.429 116.41 652.445 116.373 652.462L116.881 659.208V659.205Z" fill="#927B59"/>
</g>
<g style="mix-blend-mode:multiply">
<path d="M113.297 611.092C113.476 610.872 113.506 610.622 113.928 610.449C114.541 610.199 114.753 610.614 115.366 610.366C115.979 610.116 115.766 609.701 116.379 609.454C116.992 609.204 117.204 609.619 117.814 609.372C118.427 609.122 118.214 608.707 118.824 608.459C119.437 608.212 119.649 608.627 120.259 608.377C120.872 608.127 120.659 607.715 121.272 607.465C121.885 607.215 122.097 607.63 122.707 607.382C123.317 607.135 123.107 606.72 123.72 606.47C124.277 606.242 124.502 606.569 125.004 606.437L124.668 600.532L112.872 605.948L113.297 611.089V611.092Z" fill="#927B59"/>
</g>
<g style="mix-blend-mode:multiply" opacity="0.4">
<path d="M168.096 651.956L174.134 653.847L174.171 647.595L168.2 645.449L168.096 651.956ZM173.823 653.407L168.441 651.709L168.533 645.919L173.86 647.821L173.823 653.407Z" fill="black"/>
</g>
<g style="mix-blend-mode:multiply" opacity="0.4">
<path d="M160.552 649.593L167.237 651.686L167.354 645.144L160.752 642.77L160.552 649.593ZM166.898 651.219L160.94 649.337L161.112 643.264L167.006 645.369L166.898 651.217V651.219Z" fill="black"/>
</g>
<g style="mix-blend-mode:multiply" opacity="0.4">
<path d="M152.155 646.963L159.6 649.296L159.812 642.432L152.469 639.791L152.155 646.963ZM159.227 648.799L152.592 646.705L152.866 640.321L159.418 642.663L159.224 648.799H159.227Z" fill="black"/>
</g>
<g style="mix-blend-mode:multiply" opacity="0.4">
<path d="M165.488 646.979C165.473 647.708 164.921 648.131 164.213 647.985L164.185 649.175L164.543 649.29L164.533 649.653L165.069 649.826L165.06 650.189L162.895 649.499L162.905 649.134L163.453 649.31L163.462 648.944L163.825 649.062L163.853 647.87C163.142 647.543 162.6 646.746 162.618 646.001L162.655 644.55L165.516 645.559L165.485 646.982L165.488 646.979Z" fill="black"/>
</g>
<g style="mix-blend-mode:multiply" opacity="0.4">
<path d="M158.578 647.735L158.566 648.112L153.344 646.447L153.359 646.059L158.578 647.735Z" fill="black"/>
</g>
<g style="mix-blend-mode:multiply" opacity="0.4">
<path d="M157.611 647.138L157.217 647.012L156.823 646.883L156.925 643.954L157.319 644.088L157.71 644.223L157.611 647.138Z" fill="black"/>
</g>
<g style="mix-blend-mode:multiply" opacity="0.4">
<path d="M155.219 646.364L154.813 646.235L154.403 646.1L154.52 643.13L154.927 643.267L155.333 643.407L155.219 646.364Z" fill="black"/>
</g>
<g style="mix-blend-mode:multiply" opacity="0.4">
<path d="M157.374 642.498L158.304 644.144L156.342 643.468L157.374 642.498Z" fill="black"/>
</g>
<g style="mix-blend-mode:multiply" opacity="0.4">
<path d="M154.991 641.654L155.942 643.33L153.919 642.632L154.991 641.654Z" fill="black"/>
</g>
<g style="mix-blend-mode:multiply" opacity="0.4">
<path d="M171.239 647.485C172.609 647.969 173.379 649.074 173.373 650.104L171.221 649.373L171.199 651.445C171.199 651.637 171.341 651.838 171.519 651.896C171.698 651.953 171.843 651.843 171.846 651.654V651.481L172.169 651.585V651.758C172.163 652.138 171.873 652.355 171.516 652.242C171.159 652.127 170.87 651.723 170.873 651.338L170.897 649.26L168.998 648.617C169.013 647.557 169.844 646.991 171.242 647.483L171.239 647.485Z" fill="black"/>
</g>
<path d="M597.14 992.201L441.018 1004.67V818.858L597.14 825.458V992.201Z" fill="url(#paint7_linear_717_7739)"/>
<path d="M314.77 989.706L441.018 1004.67V818.858L314.77 828.836V989.706Z" fill="url(#paint8_linear_717_7739)"/>
<g style="mix-blend-mode:multiply">
<path d="M361.534 825.139L362.023 836.414C362.457 836.186 362.907 835.955 363.815 835.887C365.672 835.746 365.755 836.554 367.618 836.411C369.472 836.271 369.388 835.466 371.242 835.326C373.102 835.186 373.188 835.991 375.048 835.848C376.902 835.708 376.818 834.903 378.675 834.763C380.535 834.622 380.618 835.43 382.475 835.287C384.335 835.147 384.245 834.342 386.105 834.199C387.534 834.092 387.909 834.54 388.858 834.694L388.929 822.974L361.531 825.139H361.534Z" fill="#C1A477"/>
</g>
<g style="mix-blend-mode:multiply" opacity="0.4">
<path d="M465.728 828.165L452.168 827.729L451.983 839.992L465.528 840.262L465.731 828.165H465.728ZM452.901 828.415L464.996 828.797L464.817 839.594L452.738 839.344L452.904 828.415H452.901Z" fill="black"/>
</g>
<g style="mix-blend-mode:multiply" opacity="0.4">
<path d="M480.684 828.646L467.533 828.223L467.329 840.297L480.465 840.558L480.684 828.646ZM468.241 828.899L479.969 829.27L479.775 839.901L468.059 839.659L468.241 828.899Z" fill="black"/>
</g>
<g style="mix-blend-mode:multiply" opacity="0.4">
<path d="M455.98 832.479C455.958 833.826 457.067 834.963 458.511 835.161L458.477 837.324L457.744 837.307L457.735 837.967L456.633 837.942L456.624 838.601L461.017 838.695L461.027 838.038L459.93 838.013L459.94 837.357L459.21 837.34L459.244 835.18C460.688 835.054 461.821 833.979 461.843 832.641L461.886 830.014L456.023 829.838L455.983 832.482L455.98 832.479Z" fill="black"/>
</g>
<g style="mix-blend-mode:multiply" opacity="0.4">
<path d="M469.339 838.223L469.327 838.874L478.558 839.072L478.57 838.426L469.339 838.223Z" fill="black"/>
</g>
<g style="mix-blend-mode:multiply" opacity="0.4">
<path d="M471.134 837.774L471.849 837.791L472.563 837.807L472.649 832.776L471.938 832.757L471.224 832.737L471.134 837.774Z" fill="black"/>
</g>
<g style="mix-blend-mode:multiply" opacity="0.4">
<path d="M475.403 837.871L476.111 837.887L476.816 837.904L476.908 832.894L476.2 832.875L475.492 832.856L475.403 837.871Z" fill="black"/>
</g>
<g style="mix-blend-mode:multiply" opacity="0.4">
<path d="M471.985 829.993L470.159 832.218L473.728 832.32L471.985 829.993Z" fill="black"/>
</g>
<g style="mix-blend-mode:multiply" opacity="0.4">
<path d="M476.25 830.124L474.44 832.339L477.975 832.438L476.25 830.124Z" fill="black"/>
</g>
<path d="M184.162 787.628L275.751 780.245V823.282L183.494 824.904L184.162 787.628Z" fill="url(#paint9_linear_717_7739)"/>
<path d="M316.557 786.645L275.752 780.245V823.282L316.557 824.964V786.645Z" fill="url(#paint10_linear_717_7739)"/>
<path d="M183.495 824.903L275.752 823.282L316.557 824.964L232.007 826.283L183.495 824.903Z" fill="#FAE7CA"/>
<g style="mix-blend-mode:multiply" opacity="0.4">
<path d="M308.935 821.166L313.655 821.54L313.526 814.733L308.886 814.337L308.935 821.166ZM313.394 821.144L309.187 820.811L309.138 814.722L313.283 815.074L313.394 821.144Z" fill="black"/>
</g>
<g style="mix-blend-mode:multiply" opacity="0.4">
<path d="M303.527 820.741L308.294 821.117L308.254 814.286L303.567 813.888L303.527 820.741ZM308.035 820.722L303.789 820.384L303.823 814.272L308.004 814.627L308.035 820.722Z" fill="black"/>
</g>
<g style="mix-blend-mode:multiply" opacity="0.4">
<path d="M298.069 820.309L302.881 820.688L302.934 813.832L298.204 813.431L298.072 820.309H298.069ZM302.626 820.293L298.336 819.952L298.45 813.819L302.675 814.176L302.626 820.293Z" fill="black"/>
</g>
<g style="mix-blend-mode:multiply" opacity="0.4">
<path d="M306.937 816.734C306.937 817.487 306.549 818.075 306.047 818.127V819.35L306.302 819.372V819.745L306.687 819.776V820.149L305.144 820.026V819.652L305.529 819.682V819.308L305.788 819.33V818.108C305.283 817.976 304.895 817.322 304.895 816.569V815.099L306.93 815.269V816.736L306.937 816.734Z" fill="black"/>
</g>
<g style="mix-blend-mode:multiply" opacity="0.4">
<path d="M302.18 819.41L302.177 819.787L298.802 819.518L298.808 819.141L302.18 819.41Z" fill="black"/>
</g>
<g style="mix-blend-mode:multiply" opacity="0.4">
<path d="M301.536 819.078L301.277 819.058L301.018 819.036L301.052 816.154L301.311 816.176L301.566 816.195L301.536 819.078Z" fill="black"/>
</g>
<g style="mix-blend-mode:multiply" opacity="0.4">
<path d="M299.981 818.954L299.723 818.932L299.464 818.913L299.51 816.025L299.766 816.047L300.024 816.069L299.981 818.954Z" fill="black"/>
</g>
<g style="mix-blend-mode:multiply" opacity="0.4">
<path d="M301.33 814.612L301.955 815.951L300.671 815.843L301.33 814.612Z" fill="black"/>
</g>
<g style="mix-blend-mode:multiply" opacity="0.4">
<path d="M299.79 814.48L300.415 815.824L299.128 815.717L299.79 814.48Z" fill="black"/>
</g>
<g style="mix-blend-mode:multiply" opacity="0.4">
<path d="M311.223 815.536C312.297 815.627 312.935 816.578 312.953 817.691L311.25 817.55L311.278 819.768C311.278 819.974 311.398 820.15 311.537 820.161C311.678 820.172 311.789 820.015 311.786 819.809V819.622L312.039 819.642V819.828C312.048 820.238 311.823 820.554 311.543 820.532C311.263 820.51 311.029 820.155 311.026 819.746L310.998 817.526L309.541 817.405C309.532 816.289 310.145 815.443 311.223 815.534V815.536Z" fill="black"/>
</g>
<path d="M297.284 824.169L296.394 824.133L212.004 825.548L211.866 825.551H211.789L208.362 825.609L208.925 825.625L209.467 825.639L212.1 825.595H212.285H212.288L297.284 824.169Z" fill="#CA9151"/>
<path d="M275.752 823.282L280.851 823.535L285.95 823.769L296.151 824.208L306.352 824.609L311.454 824.796L316.557 824.964L311.458 824.711L306.359 824.478L296.16 824.038L285.956 823.637L280.854 823.45L275.752 823.282Z" fill="#CA9151"/>
<g style="mix-blend-mode:multiply">
<path d="M294.005 783.105V787.76C294.066 787.76 294.131 787.76 294.202 787.777C294.821 787.873 294.738 788.296 295.36 788.395C295.982 788.494 296.065 788.073 296.687 788.172C297.309 788.271 297.223 788.692 297.845 788.791C297.971 788.813 298.075 788.81 298.165 788.796C298.522 788.741 298.676 788.491 299.172 788.568C299.794 788.664 299.707 789.087 300.329 789.186C300.951 789.285 301.035 788.865 301.656 788.964C301.866 788.997 301.992 789.068 302.094 789.145V784.372L294.008 783.103L294.005 783.105Z" fill="#C1A477"/>
</g>
<g style="mix-blend-mode:multiply">
<path d="M212.568 825.643C212.553 825.626 212.538 825.61 212.501 825.604C212.433 825.593 212.421 825.643 212.356 825.634C212.297 825.626 212.297 825.588 212.251 825.571H212.174C212.147 825.582 212.125 825.601 212.082 825.596C212.057 825.596 212.042 825.582 212.03 825.574C212.008 825.557 211.999 825.535 211.956 825.527C211.885 825.519 211.879 825.566 211.808 825.557C211.74 825.546 211.749 825.497 211.682 825.489C211.614 825.478 211.601 825.527 211.537 825.516C211.5 825.513 211.484 825.494 211.472 825.48L206.826 825.563L208.923 825.623L210.656 825.673L212.562 825.64L212.568 825.643Z" fill="#C1A477"/>
</g>
<g style="mix-blend-mode:multiply">
<path d="M302.115 824.368V820.147C302.057 820.13 301.986 820.119 301.906 820.114C301.278 820.073 301.244 820.499 300.616 820.457C299.988 820.419 300.021 819.99 299.39 819.949C298.793 819.911 298.731 820.295 298.186 820.298C298.159 820.298 298.128 820.298 298.097 820.298C297.469 820.257 297.5 819.831 296.871 819.79C296.243 819.748 296.209 820.174 295.581 820.133C294.95 820.095 294.984 819.666 294.356 819.625C294.22 819.617 294.116 819.627 294.023 819.655V824.032L302.112 824.365L302.115 824.368Z" fill="#C1A477"/>
</g>
<g style="mix-blend-mode:multiply">
<path d="M302.115 824.368L294.029 824.036L286.661 824.209C286.821 824.242 286.799 824.352 286.966 824.379C287.135 824.409 287.16 824.294 287.332 824.324C287.501 824.354 287.477 824.47 287.649 824.497C287.668 824.5 287.686 824.503 287.705 824.503C287.828 824.503 287.862 824.415 288.016 824.442C288.074 824.453 288.108 824.473 288.136 824.497L302.118 824.365L302.115 824.368Z" fill="#C1A477"/>
</g>
<path d="M38.2989 753.738L184.148 741.98V810.515L37.2367 813.093L38.2989 753.738Z" fill="url(#paint11_linear_717_7739)"/>
<path d="M249.124 752.169L184.148 741.98V810.515L249.124 813.192V752.169Z" fill="url(#paint12_linear_717_7739)"/>
<path d="M37.2363 813.093L184.148 810.515L249.124 813.192L114.486 815.291L37.2363 813.093Z" fill="#FAE7CA"/>
<g style="mix-blend-mode:multiply" opacity="0.4">
<path d="M236.99 807.145L244.506 807.739L244.303 796.901L236.913 796.272L236.993 807.145H236.99ZM244.09 807.112L237.393 806.582L237.316 796.887L243.915 797.448L244.09 807.115V807.112Z" fill="black"/>
</g>
<g style="mix-blend-mode:multiply" opacity="0.4">
<path d="M228.381 806.467L235.971 807.066L235.909 796.187L228.448 795.553L228.384 806.467H228.381ZM235.558 806.437L228.796 805.901L228.849 796.168L235.509 796.732L235.558 806.434V806.437Z" fill="black"/>
</g>
<g style="mix-blend-mode:multiply" opacity="0.4">
<path d="M219.685 805.78L227.349 806.385L227.432 795.467L219.897 794.827L219.685 805.78ZM226.939 805.753L220.109 805.211L220.294 795.443L227.019 796.011L226.939 805.75V805.753Z" fill="black"/>
</g>
<g style="mix-blend-mode:multiply" opacity="0.4">
<path d="M233.806 800.084C233.806 801.282 233.19 802.219 232.386 802.302V804.247L232.796 804.28V804.874L233.408 804.923V805.519L230.954 805.324V804.728L231.57 804.777V804.181L231.98 804.214V802.269C231.176 802.057 230.557 801.016 230.56 799.817L230.566 797.479L233.802 797.751L233.809 800.087L233.806 800.084Z" fill="black"/>
</g>
<g style="mix-blend-mode:multiply" opacity="0.4">
<path d="M226.231 804.349L226.225 804.945L220.852 804.519L220.864 803.92L226.231 804.349Z" fill="black"/>
</g>
<g style="mix-blend-mode:multiply" opacity="0.4">
<path d="M225.205 803.818L224.796 803.785L224.383 803.752L224.439 799.161L224.848 799.196L225.258 799.229L225.205 803.818Z" fill="black"/>
</g>
<g style="mix-blend-mode:multiply" opacity="0.4">
<path d="M222.733 803.62L222.317 803.587L221.905 803.554L221.979 798.957L222.388 798.993L222.801 799.026L222.733 803.62Z" fill="black"/>
</g>
<g style="mix-blend-mode:multiply" opacity="0.4">
<path d="M224.875 796.707L225.873 798.839L223.828 798.669L224.875 796.707Z" fill="black"/>
</g>
<g style="mix-blend-mode:multiply" opacity="0.4">
<path d="M222.428 796.5L223.42 798.635L221.372 798.465L222.428 796.5Z" fill="black"/>
</g>
<g style="mix-blend-mode:multiply" opacity="0.4">
<path d="M240.635 798.18C242.347 798.322 243.36 799.836 243.391 801.609L240.678 801.386L240.724 804.92C240.727 805.247 240.915 805.527 241.137 805.544C241.361 805.563 241.537 805.31 241.534 804.983V804.687L241.934 804.72V805.016C241.95 805.67 241.592 806.173 241.146 806.137C240.699 806.102 240.33 805.541 240.321 804.887L240.278 801.353L237.959 801.164C237.944 799.389 238.923 798.039 240.638 798.182L240.635 798.18Z" fill="black"/>
</g>
<path d="M218.438 811.928L217.019 811.87L82.6393 814.123L82.4145 814.129H82.2945L76.8383 814.22L77.7343 814.247L78.5964 814.269L82.7871 814.2L83.0827 814.198H83.0889L218.438 811.928Z" fill="#CA9151"/>
<path d="M184.149 810.515L192.266 810.916L200.388 811.29L216.631 811.991L232.876 812.628L240.999 812.922L249.125 813.192L241.005 812.79L232.886 812.417L216.643 811.716L200.398 811.078L192.275 810.782L184.149 810.515Z" fill="#CA9151"/>
<g style="mix-blend-mode:multiply">
<path d="M213.21 746.536V753.949C213.309 753.947 213.413 753.952 213.524 753.974C214.509 754.128 214.377 754.799 215.365 754.958C216.357 755.117 216.489 754.447 217.478 754.603C218.466 754.763 218.331 755.431 219.322 755.587C219.525 755.623 219.692 755.62 219.833 755.595C220.4 755.508 220.649 755.109 221.434 755.233C222.423 755.387 222.287 756.06 223.276 756.219C224.264 756.379 224.4 755.708 225.388 755.865C225.721 755.914 225.924 756.03 226.087 756.156V748.555L213.21 746.536Z" fill="#C1A477"/>
</g>
<g style="mix-blend-mode:multiply">
<path d="M83.5321 814.272C83.5074 814.244 83.4828 814.219 83.4243 814.208C83.3165 814.192 83.298 814.272 83.1933 814.258C83.0979 814.244 83.0979 814.184 83.0271 814.156H82.907C82.8639 814.175 82.83 814.206 82.7592 814.195C82.7192 814.192 82.6976 814.175 82.6791 814.159C82.6453 814.131 82.6268 814.096 82.5621 814.087C82.4513 814.074 82.4359 814.151 82.3281 814.137C82.2203 814.12 82.2357 814.041 82.128 814.03C82.0202 814.013 82.0017 814.093 81.897 814.076C81.8385 814.071 81.817 814.043 81.7954 814.021L74.3962 814.153L77.7371 814.25L80.4991 814.329L83.5352 814.277L83.5321 814.272Z" fill="#C1A477"/>
</g>
<g style="mix-blend-mode:multiply">
<path d="M226.131 812.243V805.522C226.035 805.494 225.924 805.478 225.798 805.47C224.797 805.404 224.742 806.082 223.741 806.019C222.741 805.956 222.796 805.277 221.792 805.211C220.841 805.151 220.745 805.764 219.877 805.766C219.834 805.766 219.785 805.766 219.738 805.764C218.738 805.698 218.79 805.019 217.789 804.956C216.789 804.89 216.733 805.569 215.732 805.503C214.729 805.439 214.784 804.761 213.783 804.695C213.571 804.681 213.402 804.7 213.254 804.744V811.713L226.134 812.241L226.131 812.243Z" fill="#C1A477"/>
</g>
<g style="mix-blend-mode:multiply">
<path d="M226.13 812.243L213.256 811.715L201.521 811.993C201.777 812.045 201.743 812.221 202.005 812.265C202.276 812.314 202.316 812.128 202.587 812.177C202.858 812.226 202.818 812.411 203.089 812.455C203.12 812.46 203.147 812.463 203.178 812.463C203.375 812.463 203.431 812.323 203.671 812.367C203.763 812.383 203.818 812.416 203.862 812.455L226.13 812.243Z" fill="#C1A477"/>
</g>
<path d="M601 694.783L725.397 681.044L762.347 542L628.712 572.227L601 694.783Z" fill="url(#paint13_linear_717_7739)"/>
<path d="M868.885 760.733L725.398 681.044L762.347 542L899.677 649.168L868.885 760.733Z" fill="url(#paint14_linear_717_7739)"/>
<path d="M878.563 678.145L839.012 650.292C837.324 649.102 836.558 647.151 837.047 645.28L843.332 621.335C843.75 619.735 845.915 619.098 847.319 620.156L887.145 650.193C888.78 651.427 889.473 653.392 888.924 655.238L882.471 676.982C882.018 678.513 879.955 679.126 878.563 678.145Z" fill="url(#paint15_linear_717_7739)"/>
<path d="M868.886 760.733L725.398 681.044L601.001 694.783L776.358 760.596L868.886 760.733Z" fill="url(#paint16_linear_717_7739)"/>
<path d="M725.397 681.044C720.203 681.525 715.012 682.058 709.82 682.561L694.255 684.166C689.064 684.688 683.885 685.27 678.696 685.825L663.14 687.507L647.597 689.26C642.418 689.851 637.233 690.414 632.057 691.035L616.522 692.868C611.349 693.508 606.17 694.121 601 694.786C606.198 694.305 611.386 693.775 616.578 693.269L632.143 691.667C637.334 691.145 642.513 690.56 647.702 690.008L663.257 688.326L678.801 686.573C683.98 685.982 689.165 685.419 694.341 684.798L709.876 682.967C715.048 682.327 720.228 681.714 725.397 681.049V681.044Z" fill="#66340E"/>
<g style="mix-blend-mode:multiply">
<path d="M663.386 688.309L803.071 751.992L822.091 760.664H823.449L804.429 751.995L664.473 688.186L663.386 688.309Z" fill="#CA9151"/>
</g>
<g style="mix-blend-mode:multiply">
<path d="M793.061 752.401L793.332 752.525L811.145 760.648L834.008 760.681L816.389 752.646L816.238 752.577C815.853 752.654 815.456 752.718 814.782 752.718C814.03 752.718 813.698 752.638 813.344 752.555C812.971 752.467 812.583 752.374 811.727 752.374C810.874 752.377 810.403 752.467 809.947 752.555C809.516 752.641 809.107 752.72 808.356 752.72C807.604 752.72 807.272 752.641 806.918 752.558C806.545 752.47 806.157 752.377 805.304 752.377C804.451 752.377 803.977 752.47 803.521 752.558C803.09 752.643 802.684 752.723 801.932 752.723C801.181 752.723 800.849 752.643 800.494 752.561C800.119 752.473 799.734 752.38 798.878 752.38C798.022 752.38 797.554 752.473 797.098 752.561C796.667 752.646 796.261 752.726 795.509 752.726C794.758 752.726 794.422 752.646 794.068 752.564C793.797 752.5 793.52 752.434 793.061 752.401Z" fill="#957E5A"/>
<path d="M649.306 689.447L664.323 696.292L664.572 696.407C665.028 696.443 665.508 696.476 666.339 696.38C667.186 696.281 667.556 696.146 667.913 696.014C668.252 695.891 668.572 695.775 669.317 695.687C670.065 695.602 670.478 695.632 670.918 695.668C671.383 695.704 671.863 695.74 672.71 695.641C673.56 695.544 673.93 695.407 674.287 695.278C674.625 695.154 674.946 695.036 675.691 694.951C676.436 694.863 676.849 694.896 677.289 694.929C677.754 694.965 678.234 695.003 679.081 694.904C679.928 694.805 680.3 694.671 680.657 694.539C680.996 694.415 681.313 694.3 682.058 694.212C682.807 694.127 683.219 694.159 683.66 694.192C684.125 694.228 684.605 694.264 685.452 694.168C686.302 694.069 686.671 693.934 687.028 693.802C687.367 693.679 687.687 693.56 688.432 693.475C689.177 693.39 689.59 693.42 690.03 693.453C690.495 693.489 690.976 693.527 691.825 693.429C692.038 693.404 692.223 693.376 692.383 693.349L692.235 693.283L677.095 686.377H677.092L649.306 689.447Z" fill="#957E5A"/>
</g>
<g style="mix-blend-mode:multiply">
<path d="M649.306 689.447L677.092 686.378L680.267 670.5C679.663 670.25 679.22 669.852 678.194 669.984C676.59 670.192 676.766 671.281 675.161 671.487C673.557 671.693 673.382 670.605 671.777 670.811C670.173 671.017 670.349 672.105 668.744 672.314C667.14 672.52 666.965 671.432 665.361 671.638C663.753 671.844 663.932 672.932 662.324 673.138C660.72 673.347 660.545 672.259 658.94 672.465C657.336 672.671 657.512 673.759 655.908 673.965C654.3 674.174 654.125 673.086 652.517 673.292C652.41 673.306 652.308 673.322 652.216 673.347L649.306 689.447Z" fill="#927B59"/>
</g>
<g style="mix-blend-mode:multiply">
<path d="M670.148 574.661C670.706 574.23 670.927 573.655 672.024 573.455C673.616 573.166 673.859 574.243 675.451 573.955C677.04 573.666 676.793 572.589 678.382 572.303C679.971 572.015 680.217 573.092 681.806 572.804C683.395 572.515 683.149 571.438 684.737 571.149C686.326 570.864 686.573 571.941 688.161 571.652C689.75 571.364 689.504 570.286 691.093 570.001C692.682 569.712 692.928 570.789 694.517 570.501C696.106 570.212 695.859 569.135 697.448 568.849C698.898 568.586 699.228 569.459 700.481 569.396L703.286 555.36L672.276 562.373L670.148 574.661Z" fill="#927B59"/>
</g>
<g style="mix-blend-mode:multiply" opacity="0.4">
<path d="M774.057 697.22L787.094 704.587L790.983 689.916L778.263 681.98L774.057 697.218V697.22ZM786.633 703.403L775.021 696.805L778.756 683.242L790.115 690.293L786.629 703.403H786.633Z" fill="black"/>
</g>
<g style="mix-blend-mode:multiply" opacity="0.4">
<path d="M757.769 688.015L772.207 696.173L776.459 680.854L762.387 672.074L757.769 688.012V688.015ZM771.692 694.912L758.837 687.605L762.939 673.421L775.504 681.219L771.696 694.909L771.692 694.912Z" fill="black"/>
</g>
<g style="mix-blend-mode:multiply" opacity="0.4">
<path d="M739.636 677.768L755.712 686.853L760.383 670.827L744.735 661.064L739.636 677.766V677.768ZM755.139 685.507L740.824 677.37L745.35 662.507L759.327 671.182L755.142 685.507H755.139Z" fill="black"/>
</g>
<g style="mix-blend-mode:multiply" opacity="0.4">
<path d="M770.957 684.264C770.476 685.968 768.921 686.693 767.354 686.009L766.566 688.79L767.339 689.235L767.098 690.081L768.25 690.744L768.013 691.59L763.348 688.919L763.591 688.062L764.767 688.74L765.011 687.889L765.79 688.339L766.581 685.55C765.106 684.437 764.318 682.299 764.817 680.565L765.787 677.177L771.893 680.928L770.957 684.259V684.264Z" fill="black"/>
</g>
<g style="mix-blend-mode:multiply" opacity="0.4">
<path d="M754.259 682.698L754 683.577L742.746 677.133L743.02 676.229L754.259 682.698Z" fill="black"/>
</g>
<g style="mix-blend-mode:multiply" opacity="0.4">
<path d="M752.353 680.827L751.503 680.335L750.653 679.843L752.679 673.009L753.523 673.517L754.36 674.023L752.353 680.827Z" fill="black"/>
</g>
<g style="mix-blend-mode:multiply" opacity="0.4">
<path d="M747.199 677.848L746.324 677.342L745.443 676.834L747.531 669.906L748.399 670.431L749.265 670.953L747.199 677.848Z" fill="black"/>
</g>
<g style="mix-blend-mode:multiply" opacity="0.4">
<path d="M754.621 669.808L755.801 674.122L751.604 671.583L754.621 669.808Z" fill="black"/>
</g>
<g style="mix-blend-mode:multiply" opacity="0.4">
<path d="M749.529 666.672L750.751 671.069L746.419 668.448L749.529 666.672Z" fill="black"/>
</g>
<g style="mix-blend-mode:multiply" opacity="0.4">
<path d="M784.167 688.237C787.089 690.035 788.231 693.008 787.588 695.42L782.972 692.662L781.657 697.52C781.537 697.968 781.753 698.515 782.138 698.734C782.523 698.957 782.932 698.773 783.052 698.325L783.16 697.921L783.853 698.322L783.745 698.726C783.505 699.616 782.689 699.987 781.919 699.548C781.146 699.105 780.712 698.012 780.955 697.113L782.276 692.244L778.206 689.812C778.886 687.331 781.186 686.402 784.167 688.235V688.237Z" fill="black"/>
</g>
<path d="M-23.8688 1021.61L261.573 1037.09V806.492L-23.8688 814.681V1021.61Z" fill="url(#paint17_linear_717_7739)"/>
<path d="M387.821 1018.51L261.574 1037.09V806.492L387.821 818.874V1018.51Z" fill="url(#paint18_linear_717_7739)"/>
<g style="mix-blend-mode:multiply">
<path d="M374.501 910.924C374.612 912.471 375.68 912.463 375.739 914.087C375.8 915.749 374.676 915.804 374.735 917.469C374.797 919.137 375.917 919.085 375.985 920.753C376.044 922.416 374.92 922.47 374.981 924.133C375.04 925.804 376.164 925.749 376.222 927.419C376.284 929.082 375.163 929.137 375.225 930.802C375.258 931.742 375.631 932.132 375.96 932.599L387.821 932.418V911.061L374.498 910.924H374.501Z" fill="#C1A477"/>
</g>
<g style="mix-blend-mode:multiply">
<path d="M261.573 909.781V934.342L284.71 933.99C284.356 933.185 283.678 932.937 283.611 931.657C283.521 929.989 284.642 929.915 284.55 928.249C284.461 926.587 283.337 926.664 283.244 924.999C283.155 923.336 284.276 923.256 284.183 921.594C284.094 919.926 282.973 920.006 282.884 918.338C282.792 916.675 283.909 916.596 283.82 914.933C283.731 913.265 282.61 913.345 282.521 911.682C282.475 910.863 282.721 910.427 282.97 910.001L261.57 909.786L261.573 909.781Z" fill="#C1A477"/>
</g>
<g style="mix-blend-mode:multiply">
<path d="M232.177 910.13C232.352 911.495 233.341 910.932 233.396 912.493C233.458 914.161 232.334 914.21 232.392 915.878C232.454 917.541 233.575 917.491 233.643 919.157C233.701 920.825 232.577 920.874 232.639 922.542C232.697 924.21 233.821 924.155 233.88 925.826C233.941 927.494 232.82 927.543 232.882 929.211C232.944 930.879 234.064 930.824 234.126 932.489C234.148 933.069 234.027 933.143 233.861 933.468L261.57 934.342V909.781L232.174 910.13H232.177Z" fill="#957E5A"/>
</g>
<g style="mix-blend-mode:multiply">
<path d="M261.574 921.481H387.821V922.1H261.574V921.481Z" fill="#C4AD8F"/>
</g>
<g style="mix-blend-mode:multiply" opacity="0.4">
<path d="M232.726 834.375L247.792 834.384L247.866 819.125L232.852 819.333L232.726 834.375ZM246.97 833.556L233.536 833.562L233.647 820.136L247.041 819.96L246.973 833.559L246.97 833.556Z" fill="black"/>
</g>
<g style="mix-blend-mode:multiply" opacity="0.4">
<path d="M216.139 834.367L230.725 834.375L230.857 819.36L216.321 819.564L216.139 834.367ZM229.934 833.559H216.927L217.087 820.35L230.054 820.179L229.934 833.559Z" fill="black"/>
</g>
<g style="mix-blend-mode:multiply" opacity="0.4">
<path d="M200.072 834.359L214.199 834.364L214.387 819.589L200.306 819.787L200.072 834.359ZM213.435 833.565H200.839L201.045 820.562L213.608 820.397L213.438 833.565H213.435Z" fill="black"/>
</g>
<g style="mix-blend-mode:multiply" opacity="0.4">
<path d="M226.632 825.063C226.617 826.712 225.395 828.074 223.837 828.283L223.809 830.935H224.597L224.588 831.74H225.773L225.764 832.548L221.035 832.554L221.044 831.748H222.22L222.229 830.941H223.014L223.042 828.289C221.493 828.099 220.314 826.755 220.333 825.118L220.369 821.908L226.66 821.834L226.629 825.063H226.632Z" fill="black"/>
</g>
<g style="mix-blend-mode:multiply" opacity="0.4">
<path d="M212.108 831.767L212.096 832.564L202.175 832.578L202.187 831.786L212.108 831.767Z" fill="black"/>
</g>
<g style="mix-blend-mode:multiply" opacity="0.4">
<path d="M210.193 831.174H209.427L208.66 831.177L208.746 825.019L209.51 825.01L210.276 825.005L210.193 831.174Z" fill="black"/>
</g>
<g style="mix-blend-mode:multiply" opacity="0.4">
<path d="M205.608 831.185L204.847 831.188H204.087L204.179 825.057L204.937 825.052L205.697 825.043L205.608 831.185Z" fill="black"/>
</g>
<g style="mix-blend-mode:multiply" opacity="0.4">
<path d="M209.555 821.639L211.434 824.398L207.609 824.433L209.555 821.639Z" fill="black"/>
</g>
<g style="mix-blend-mode:multiply" opacity="0.4">
<path d="M204.989 821.694L206.846 824.442L203.055 824.475L204.989 821.694Z" fill="black"/>
</g>
<g style="mix-blend-mode:multiply" opacity="0.4">
<path d="M240.288 821.471C243.774 821.43 245.788 823.428 245.772 825.928L240.258 825.97L240.224 830.888C240.224 831.342 240.584 831.707 241.034 831.707C241.483 831.707 241.853 831.336 241.856 830.883V830.471H242.675V830.883C242.666 831.79 241.93 832.529 241.03 832.532C240.131 832.532 239.408 831.798 239.414 830.894L239.448 825.981L234.801 826.016C234.82 823.543 236.824 821.518 240.288 821.477V821.471Z" fill="black"/>
</g>
<g style="mix-blend-mode:multiply">
<path opacity="0.02" d="M584.232 944.641C604.619 945.564 660.598 961.219 633.098 962.178C607.523 963.071 575.084 965.258 545.512 963.178C512.842 960.878 461.993 960.76 480.385 955.907C513.384 947.182 529.605 942.178 584.232 944.641Z" fill="#FEFEFE"/>
<path opacity="0.03" d="M584.216 944.709C604.622 945.641 659.911 961.106 632.993 962.103C607.966 963.04 575.244 965.192 546.035 963.142C513.83 960.878 462.492 960.729 480.548 955.929C512.922 947.273 530.239 942.272 584.216 944.709Z" fill="#FEFDFD"/>
<path opacity="0.05" d="M584.205 944.775C604.632 945.712 659.231 960.991 632.889 962.027C608.407 963.005 575.402 965.121 546.563 963.104C514.823 960.875 462.995 960.699 480.715 955.945C512.464 947.361 530.874 942.36 584.208 944.773L584.205 944.775Z" fill="#FDFDFC"/>
<path opacity="0.06" d="M584.19 944.844C604.635 945.789 658.545 960.875 632.781 961.955C608.847 962.974 575.556 965.057 547.083 963.071C515.808 960.878 463.49 960.674 480.872 955.97C511.996 947.457 531.502 942.456 584.186 944.844H584.19Z" fill="#FDFCFB"/>
<path opacity="0.08" d="M584.177 944.909C604.641 945.86 657.861 960.759 632.68 961.878C609.294 962.938 575.719 964.988 547.613 963.032C516.803 960.875 463.996 960.644 481.042 955.989C511.541 947.547 532.14 942.546 584.177 944.909Z" fill="#FCFBFA"/>
<path opacity="0.1" d="M584.164 944.978C604.649 945.937 657.179 960.647 632.574 961.806C609.736 962.908 575.875 964.925 548.135 962.999C517.79 960.878 464.506 960.652 481.204 956.014C511.099 947.704 532.773 942.643 584.164 944.981V944.978Z" fill="#FCFAF9"/>
<path opacity="0.11" d="M584.149 945.044C604.653 946.011 656.493 960.528 632.467 961.729C610.177 962.872 576.029 964.856 548.659 962.96C518.779 960.875 465.008 960.627 481.364 956.03C510.638 947.803 533.402 942.73 584.146 945.044H584.149Z" fill="#FBF9F8"/>
<path opacity="0.13" d="M584.137 945.113C604.66 946.085 655.81 960.416 632.366 961.655C610.621 962.839 576.193 964.788 549.186 962.924C519.771 960.875 465.513 960.605 481.531 956.052C510.182 947.904 534.04 942.824 584.137 945.113Z" fill="#FAF9F7"/>
<path opacity="0.15" d="M584.121 945.179C604.665 946.16 655.123 960.301 632.257 961.581C611.06 962.807 576.346 964.722 549.709 962.889C520.759 960.875 466.015 960.584 481.693 956.075C509.726 948.01 534.67 942.918 584.121 945.182V945.179Z" fill="#FAF8F6"/>
<path opacity="0.16" d="M584.109 945.248C604.671 946.234 654.442 960.188 632.153 961.507C611.504 962.774 576.503 964.656 550.232 962.851C521.747 960.872 466.517 960.559 481.857 956.091C509.267 948.105 535.305 943.005 584.109 945.245V945.248Z" fill="#F9F7F5"/>
<path opacity="0.18" d="M584.093 945.314C604.677 946.309 653.755 960.07 632.047 961.43C611.947 962.738 576.663 964.588 550.758 962.812C522.738 960.87 467.021 960.534 482.02 956.11C508.808 948.207 535.938 943.096 584.093 945.311V945.314Z" fill="#F9F6F4"/>
<path opacity="0.19" d="M584.082 945.382C604.684 946.385 653.073 959.957 631.944 961.359C612.391 962.708 576.821 964.524 551.286 962.779C523.731 960.872 467.527 960.515 482.187 956.135C508.357 948.314 536.574 943.192 584.085 945.382H584.082Z" fill="#F8F6F3"/>
<path opacity="0.21" d="M584.069 945.449C604.689 946.457 652.388 959.842 631.838 961.282C612.834 962.672 576.98 964.453 551.808 962.741C524.721 960.87 468.028 960.491 482.349 956.152C507.897 948.411 537.207 943.28 584.069 945.446V945.449Z" fill="#F8F5F2"/>
<path opacity="0.23" d="M584.054 945.517C604.696 946.533 651.706 959.726 631.734 961.21C613.275 962.642 577.138 964.389 552.336 962.707C525.714 960.872 468.534 960.471 482.513 956.176C507.442 948.517 537.839 943.376 584.054 945.517Z" fill="#F7F4F1"/>
<path opacity="0.24" d="M584.041 945.583C604.702 946.605 651.019 959.575 631.629 961.133C613.715 962.573 577.295 964.321 552.859 962.669C526.702 960.869 469.036 960.446 482.676 956.195C506.983 948.616 538.473 943.467 584.041 945.583Z" fill="#F7F3F0"/>
<path opacity="0.26" d="M584.026 945.651C604.706 946.682 650.332 959.457 631.522 961.059C614.156 962.537 577.452 964.254 553.383 962.633C527.69 960.869 469.538 960.424 482.84 956.214C506.527 948.718 539.105 943.557 584.026 945.648V945.651Z" fill="#F6F2EF"/>
<path opacity="0.27" d="M584.014 945.718C604.715 946.757 649.648 959.339 631.42 960.985C614.599 962.502 577.612 964.189 553.909 962.598C528.681 960.867 470.046 960.403 483.003 956.237C506.068 948.823 539.739 943.652 584.014 945.718Z" fill="#F5F2EE"/>
<path opacity="0.29" d="M584.001 945.786C604.724 946.795 648.965 959.224 631.315 960.911C615.042 962.466 577.769 964.123 554.435 962.562C529.673 960.867 470.551 960.381 483.169 956.259C505.616 948.925 540.379 943.665 584.001 945.786Z" fill="#F5F1ED"/>
<path opacity="0.31" d="M583.986 945.852C604.727 946.866 648.278 959.103 631.207 960.834C615.482 962.431 577.926 964.052 554.956 962.524C530.658 960.864 471.049 960.356 483.329 956.278C505.157 949.026 541.007 943.753 583.986 945.852Z" fill="#F4F0EC"/>
<path opacity="0.32" d="M583.973 945.921C604.736 946.94 647.594 958.987 631.106 960.762C615.926 962.397 578.086 963.988 555.485 962.491C531.653 960.867 471.557 960.336 483.495 956.3C504.704 949.128 541.644 943.846 583.973 945.921Z" fill="#F4EFEB"/>
<path opacity="0.34" d="M583.958 945.987C604.739 947.012 646.908 958.866 630.998 960.685C616.366 962.359 578.243 963.919 556.006 962.452C532.638 960.864 472.056 960.311 483.655 956.319C504.246 949.229 542.276 943.934 583.955 945.987H583.958Z" fill="#F3EEEA"/>
<path opacity="0.35" d="M583.945 946.056C604.745 947.086 646.224 958.751 630.893 960.611C616.806 962.323 578.4 963.854 556.532 962.417C533.629 960.864 472.564 960.29 483.821 956.341C503.792 949.334 542.91 944.025 583.945 946.056Z" fill="#F3EEE9"/>
<path opacity="0.37" d="M583.933 946.121C604.754 947.157 645.541 958.63 630.792 960.537C617.253 962.287 578.56 963.788 557.062 962.381C534.624 960.864 473.072 960.268 483.988 956.36C503.34 949.433 543.547 944.115 583.933 946.121Z" fill="#F2EDE8"/>
<path opacity="0.39" d="M583.918 946.19C604.758 947.231 644.854 958.514 630.684 960.462C617.69 962.251 578.718 963.719 557.582 962.345C535.61 960.864 473.574 960.245 484.148 956.382C502.881 949.537 544.176 944.206 583.918 946.19Z" fill="#F1ECE7"/>
<path opacity="0.4" d="M583.906 946.256C604.767 947.303 644.171 958.394 630.579 960.389C618.133 962.213 578.874 963.653 558.109 962.31C536.601 960.864 474.079 960.224 484.314 956.404C502.432 949.639 544.813 944.3 583.906 946.259V946.256Z" fill="#F1EBE6"/>
<path opacity="0.42" d="M583.891 946.322C604.771 947.375 643.485 958.273 630.475 960.312C618.574 962.175 579.032 963.585 558.633 962.271C537.59 960.861 474.585 960.199 484.475 956.421C501.974 949.738 545.445 944.385 583.891 946.322Z" fill="#F0EAE5"/>
<path opacity="0.44" d="M583.879 946.391C604.777 947.449 642.798 958.157 630.37 960.237C619.015 962.139 579.192 963.518 559.159 962.235C538.584 960.861 475.09 960.177 484.641 956.442C501.524 949.839 546.079 944.478 583.879 946.391Z" fill="#F0EAE4"/>
<path opacity="0.45" d="M583.863 946.457C604.783 947.52 642.111 958.036 630.263 960.163C619.455 962.103 579.346 963.453 559.68 962.199C539.57 960.861 475.592 960.155 484.801 956.465C501.068 949.944 546.71 944.572 583.86 946.459L583.863 946.457Z" fill="#EFE9E3"/>
<path opacity="0.47" d="M583.851 946.525C604.789 947.594 641.425 957.918 630.161 960.089C619.899 962.068 579.51 963.384 560.21 962.161C540.565 960.859 476.103 960.13 484.971 956.484C500.622 950.043 547.348 944.66 583.854 946.525H583.851Z" fill="#EFE8E2"/>
<path opacity="0.48" d="M583.839 946.592C604.798 947.666 640.741 957.797 630.057 960.012C620.339 962.026 579.667 963.315 560.733 962.123C541.553 960.856 476.608 960.106 485.131 956.5C500.166 950.139 547.979 944.748 583.836 946.589L583.839 946.592Z" fill="#EEE7E1"/>
<path opacity="0.5" d="M583.823 946.66C604.801 947.742 640.051 957.679 629.949 959.94C620.776 961.993 579.82 963.252 561.256 962.089C542.541 960.858 477.113 960.086 485.294 956.525C499.713 950.246 548.61 944.843 583.823 946.66Z" fill="#EDE6E0"/>
<path opacity="0.52" d="M583.811 946.726C604.807 947.814 639.364 957.558 629.847 959.864C621.216 961.955 579.983 963.183 561.782 962.051C543.532 960.856 477.62 960.062 485.46 956.544C499.267 950.345 549.247 944.935 583.811 946.726Z" fill="#EDE6E0"/>
<path opacity="0.53" d="M583.795 946.795C604.813 947.888 638.675 957.44 629.739 959.792C621.653 961.919 580.137 963.12 562.306 962.018C544.521 960.859 478.125 960.042 485.62 956.566C498.814 950.447 549.875 945.031 583.795 946.795Z" fill="#ECE5DF"/>
<path opacity="0.55" d="M583.782 946.86C604.819 947.959 637.988 957.319 629.634 959.715C622.09 961.88 580.294 963.081 562.832 961.979C545.509 960.886 478.636 960.017 485.786 956.585C498.367 950.545 550.512 945.121 583.782 946.86Z" fill="#ECE4DE"/>
<path opacity="0.56" d="M583.77 946.929C604.829 948.037 637.298 957.201 629.533 959.641C622.534 961.842 580.454 963.016 563.359 961.944C546.501 960.886 479.144 959.996 485.952 956.608C497.921 950.647 551.147 945.215 583.77 946.929Z" fill="#EBE3DD"/>
<path opacity="0.58" d="M583.755 946.995C604.832 948.108 636.608 957.077 629.425 959.567C622.965 961.804 580.608 962.949 563.882 961.908C547.489 960.889 479.652 959.973 486.112 956.627C497.471 950.746 551.778 945.305 583.755 946.995Z" fill="#EBE3DC"/>
<path opacity="0.6" d="M583.742 947.064C604.837 948.183 635.915 956.959 629.322 959.493C623.404 961.768 580.771 962.884 564.408 961.873C548.48 960.889 480.163 959.949 486.278 956.649C497.027 950.845 552.415 945.402 583.742 947.064Z" fill="#EAE2DB"/>
<path opacity="0.61" d="M583.727 947.13C604.844 948.257 635.22 956.836 629.215 959.416C623.836 961.727 580.925 962.815 564.932 961.834C549.469 960.886 480.672 959.924 486.442 956.668C496.584 950.944 553.047 945.492 583.73 947.13H583.727Z" fill="#EAE1DA"/>
<path opacity="0.63" d="M583.715 947.199C604.851 948.331 634.527 956.717 629.111 959.344C624.268 961.694 581.083 962.752 565.456 961.801C550.461 960.889 481.18 959.902 486.603 956.69C496.139 951.04 553.678 945.588 583.712 947.199H583.715Z" fill="#E9E0D9"/>
<path opacity="0.65" d="M583.703 947.264C604.857 948.405 633.832 956.596 629.01 959.267C624.699 961.655 581.246 962.683 565.986 961.762C551.456 960.886 481.698 959.874 486.772 956.709C495.705 951.136 554.316 945.679 583.706 947.264H583.703Z" fill="#E8DFD8"/>
<path opacity="0.66" d="M583.688 947.333C604.863 948.482 633.126 956.481 628.902 959.196C625.124 961.622 581.4 962.62 566.506 961.729C552.44 960.889 482.205 959.853 486.932 956.734C495.261 951.235 554.947 945.778 583.688 947.336V947.333Z" fill="#E8DFD7"/>
<path opacity="0.68" d="M583.675 947.399C604.869 948.554 632.424 956.363 628.797 959.119C625.548 961.587 581.56 962.551 567.032 961.691C553.432 960.886 482.72 959.825 487.095 956.753C494.824 951.326 555.578 945.872 583.672 947.402L583.675 947.399Z" fill="#E7DED6"/>
<path opacity="0.69" d="M583.66 947.468C604.875 948.631 631.716 956.253 628.692 959.045C625.967 961.559 581.717 962.485 567.556 961.656C554.42 960.886 483.234 959.798 487.258 956.773C494.387 951.417 556.213 945.965 583.66 947.468Z" fill="#E7DDD5"/>
<path opacity="0.71" d="M583.648 947.534C604.881 948.704 631.008 956.148 628.588 958.971C626.386 961.537 581.874 962.419 568.083 961.62C555.412 960.886 483.748 959.767 487.425 956.794C493.958 951.507 556.847 946.058 583.648 947.537V947.534Z" fill="#E6DCD4"/>
<path opacity="0.73" d="M583.634 947.603C604.886 948.779 630.302 956.052 628.482 958.897C626.804 961.521 582.033 962.353 568.608 961.584C556.402 960.883 484.264 959.737 487.587 956.816C493.526 951.593 557.48 946.155 583.634 947.605V947.603Z" fill="#E6DBD3"/>
<path opacity="0.74" d="M583.619 947.669C604.893 948.853 629.597 955.965 628.377 958.82C627.229 961.513 582.19 962.282 569.132 961.546C557.391 960.881 484.782 959.702 487.75 956.833C493.096 951.67 558.112 946.245 583.619 947.669Z" fill="#E5DBD2"/>
<path opacity="0.76" d="M583.608 947.737C604.9 948.93 628.908 955.885 628.274 958.748C627.661 961.515 582.349 962.219 569.659 961.513C558.384 960.883 485.3 959.669 487.918 956.858C492.675 951.749 558.75 946.347 583.611 947.74L583.608 947.737Z" fill="#E4DAD1"/>
<path opacity="0.77" d="M583.591 947.803C604.902 949.004 628.227 955.805 628.165 958.671C628.103 961.515 582.504 962.15 570.179 961.471C559.368 960.877 485.81 959.624 488.077 956.874C492.243 951.812 559.377 946.437 583.591 947.803Z" fill="#E4D9D0"/>
<path opacity="0.79" d="M583.579 947.869C604.911 949.078 627.564 955.723 628.063 958.594C628.568 961.51 582.664 962.081 570.708 961.433C560.362 960.875 486.331 959.578 488.243 956.891C491.818 951.87 560.014 946.528 583.579 947.866V947.869Z" fill="#E3D8CF"/>
<path opacity="0.81" d="M583.564 947.938C604.915 949.158 626.909 955.632 627.956 958.523C629.037 961.502 582.822 962.016 571.229 961.4C561.348 960.875 486.839 959.532 488.403 956.916C491.387 951.925 560.643 946.627 583.564 947.938Z" fill="#E3D7CE"/>
<path opacity="0.82" d="M583.552 948.004C604.921 949.232 626.256 955.531 627.851 958.446C629.508 961.477 582.979 961.947 571.756 961.362C562.343 960.873 487.35 959.474 488.57 956.935C490.953 951.967 561.277 946.724 583.552 948.004Z" fill="#E2D7CD"/>
<path opacity="0.84" d="M583.54 948.072C604.93 949.311 625.604 955.42 627.75 958.374C629.985 961.449 583.139 961.88 572.282 961.328C563.334 960.872 487.855 959.418 488.733 956.959C490.506 952.004 561.912 946.822 583.54 948.075V948.072Z" fill="#E2D6CC"/>
<path opacity="0.85" d="M583.524 948.138C604.934 949.386 624.942 955.302 627.642 958.297C630.45 961.41 583.297 961.812 572.806 961.289C564.323 960.869 488.345 959.352 488.896 956.975C490.042 952.026 562.543 946.915 583.524 948.138Z" fill="#E1D5CB"/>
<path opacity="0.87" d="M583.512 948.207C604.94 949.466 624.28 955.184 627.538 958.223C630.912 961.372 583.454 961.743 573.329 961.254C565.311 960.867 488.829 959.289 489.06 956.998C489.555 952.052 563.177 947.012 583.512 948.207Z" fill="#E1D4CA"/>
<path opacity="0.89" d="M583.497 948.273C604.943 949.542 623.609 955.06 627.433 958.149C631.371 961.331 583.614 961.674 573.856 961.218C566.303 960.864 489.303 959.226 489.223 957.019C489.044 952.081 563.809 947.111 583.497 948.276V948.273Z" fill="#E0D4C9"/>
<path opacity="0.9" d="M583.484 948.341C604.948 949.658 622.94 954.939 627.328 958.075C631.826 961.29 583.77 961.606 574.382 961.182C567.294 960.864 489.767 959.171 489.388 957.039C488.514 952.12 564.442 947.237 583.484 948.341Z" fill="#DFD3C8"/>
<path opacity="0.92" d="M583.471 948.408C604.955 949.73 622.265 954.816 627.223 957.998C632.282 961.246 583.93 961.535 574.905 961.145C568.282 960.859 490.226 959.125 489.552 957.059C487.96 952.181 565.074 947.328 583.471 948.408Z" fill="#DFD2C7"/>
<path opacity="0.94" d="M583.457 948.476C604.961 949.806 621.589 954.695 627.119 957.926C632.732 961.207 584.088 961.468 575.432 961.111C569.274 960.858 490.682 959.089 489.715 957.083C487.4 952.268 565.709 947.424 583.457 948.479V948.476Z" fill="#DED1C6"/>
<path opacity="0.95" d="M583.444 948.542C604.967 949.88 620.914 954.571 627.014 957.849C633.181 961.163 584.245 961.394 575.956 961.073C570.265 960.85 491.138 959.061 489.878 957.099C486.839 952.367 566.343 947.512 583.444 948.539V948.542Z" fill="#DED0C5"/>
<path opacity="0.97" d="M583.428 948.611C604.97 949.955 620.233 954.451 626.906 957.778C633.627 961.128 584.401 961.315 576.479 961.04C571.253 960.842 491.599 959.048 490.041 957.124C486.288 952.494 566.973 947.608 583.428 948.611Z" fill="#DDD0C4"/>
<path opacity="0.98" d="M583.416 948.677C604.979 950.029 619.559 954.321 626.804 957.701C634.08 961.078 584.561 961.243 577.005 961.001C572.245 960.839 492.07 959.033 490.204 957.143C485.749 952.628 567.607 947.698 583.416 948.677Z" fill="#DDCFC3"/>
<path d="M583.404 948.746C604.986 950.103 618.876 954.209 626.7 957.627C634.524 961.045 584.722 961.177 577.532 960.966C573.237 960.839 492.548 959.026 490.371 957.163C485.229 952.766 568.243 947.79 583.404 948.743V948.746Z" fill="#DCCEC2"/>
</g>
<path d="M630.299 960.101L577.575 961.53L577.772 906.635L630.635 906.956L630.299 960.101Z" fill="url(#paint19_linear_717_7739)"/>
<path d="M542.177 904.255L489.05 904.947L577.772 906.635L630.635 906.956L542.177 904.255Z" fill="url(#paint20_linear_717_7739)"/>
<path d="M626.13 923.103L606.531 922.836C605.863 922.817 605.334 922.328 605.337 921.732L605.392 910.82C605.395 910.191 605.986 909.693 606.688 909.726L626.327 910.386C626.986 910.416 627.497 910.905 627.494 911.493L627.399 922.015C627.393 922.63 626.82 923.122 626.13 923.106V923.103Z" fill="url(#paint21_linear_717_7739)"/>
<path d="M489.908 958.276L577.574 961.529L577.771 906.634L489.049 904.947L489.908 958.276Z" fill="url(#paint22_linear_717_7739)"/>
<g style="mix-blend-mode:multiply">
<path d="M520.017 912.947C520.143 912.982 520.294 913.004 520.46 913.018C521.809 913.106 521.883 912.191 523.229 912.282C524.574 912.364 524.5 913.279 525.852 913.367C527.133 913.447 527.262 912.625 528.429 912.62C528.491 912.62 528.555 912.62 528.62 912.625C529.966 912.713 529.895 913.628 531.244 913.711C532.589 913.801 532.663 912.886 534.009 912.974C535.36 913.059 535.286 913.972 536.632 914.06C536.918 914.079 537.146 914.051 537.346 913.994L537.353 905.865L520.029 905.536L520.017 912.947Z" fill="#C1A477"/>
</g>
<path d="M555.328 624.777L472.669 606.896L465.451 512L549.176 541.752L555.328 624.777Z" fill="url(#paint23_linear_717_7739)"/>
<path d="M390.878 640.901L472.669 606.896L465.451 512L385 564.617L390.878 640.901Z" fill="url(#paint24_linear_717_7739)"/>
<path d="M390.878 640.901L472.669 606.896L555.328 624.777L453.421 647.351L390.878 640.901Z" fill="url(#paint25_linear_717_7739)"/>
<path d="M472.669 606.896C476.13 607.581 479.582 608.3 483.039 609.001L493.395 611.161C496.849 611.873 500.292 612.626 503.737 613.357L514.077 615.569L524.401 617.827C527.841 618.586 531.289 619.322 534.723 620.1L545.032 622.408C548.462 623.197 551.898 623.969 555.325 624.774C551.864 624.09 548.413 623.37 544.955 622.669L534.6 620.509C531.145 619.798 527.705 619.045 524.257 618.311L513.917 616.099L503.593 613.84C500.153 613.085 496.708 612.345 493.271 611.568L482.962 609.259C479.532 608.471 476.096 607.699 472.669 606.894V606.896Z" fill="#66340E"/>
<g style="mix-blend-mode:multiply">
<path d="M513.83 616.085L436.251 639.772L422.506 644.163L421.588 644.067L435.334 639.676L513.11 615.926L513.83 616.085Z" fill="#CA9151"/>
</g>
<g style="mix-blend-mode:multiply">
<path d="M442.973 640.75L442.776 640.814L429.905 644.927L414.451 643.333L427.183 639.264L427.291 639.228C427.543 639.305 427.805 639.376 428.261 639.423C428.769 639.475 429.003 639.448 429.249 639.418C429.511 639.385 429.782 639.352 430.361 639.412C430.936 639.475 431.244 639.569 431.546 639.657C431.829 639.745 432.097 639.824 432.605 639.879C433.113 639.931 433.347 639.904 433.594 639.874C433.855 639.841 434.126 639.808 434.702 639.868C435.281 639.929 435.589 640.025 435.888 640.116C436.171 640.204 436.436 640.283 436.944 640.338C437.452 640.39 437.686 640.363 437.932 640.333C438.194 640.3 438.465 640.267 439.044 640.327C439.619 640.388 439.927 640.484 440.229 640.572C440.512 640.66 440.777 640.739 441.285 640.794C441.793 640.849 442.027 640.819 442.277 640.789C442.468 640.767 442.662 640.742 442.973 640.753V640.75Z" fill="#927B59"/>
<path d="M523.23 617.833L512.38 621.298L512.198 621.356C511.887 621.348 511.557 621.334 511.006 621.213C510.443 621.086 510.209 620.971 509.981 620.861C509.765 620.757 509.559 620.658 509.066 620.545C508.571 620.435 508.287 620.427 507.986 620.419C507.669 620.411 507.339 620.4 506.779 620.273C506.215 620.149 505.978 620.031 505.75 619.921C505.535 619.817 505.328 619.715 504.836 619.605C504.34 619.495 504.06 619.487 503.758 619.479C503.441 619.471 503.111 619.462 502.551 619.336C501.988 619.21 501.75 619.094 501.523 618.982C501.307 618.877 501.104 618.778 500.608 618.666C500.112 618.556 499.829 618.55 499.527 618.539C499.21 618.531 498.881 618.52 498.32 618.396C497.757 618.27 497.52 618.154 497.292 618.042C497.076 617.937 496.87 617.836 496.377 617.726C495.882 617.616 495.601 617.608 495.3 617.599C494.982 617.591 494.653 617.583 494.09 617.457C493.948 617.426 493.828 617.393 493.72 617.363L493.828 617.33L504.768 613.832L523.23 617.827V617.833Z" fill="#927B59"/>
</g>
<g style="mix-blend-mode:multiply">
<path d="M523.23 617.833L504.768 613.84L504.251 603.112C504.685 602.988 505.024 602.758 505.704 602.917C506.766 603.17 506.535 603.876 507.601 604.126C508.663 604.376 508.894 603.667 509.956 603.917C511.019 604.167 510.788 604.873 511.853 605.126C512.915 605.376 513.146 604.667 514.209 604.917C515.274 605.168 515.04 605.874 516.105 606.124C517.168 606.377 517.399 605.668 518.461 605.918C519.523 606.168 519.292 606.874 520.358 607.124C521.423 607.377 521.654 606.668 522.719 606.918C522.79 606.934 522.858 606.954 522.916 606.976L523.23 617.83V617.833Z" fill="#C1A477"/>
</g>
<g style="mix-blend-mode:multiply">
<path d="M520.924 540.432C520.591 540.108 520.502 539.712 519.781 539.501C518.734 539.198 518.46 539.894 517.413 539.589C516.37 539.286 516.647 538.591 515.603 538.289C514.559 537.987 514.282 538.682 513.238 538.377C512.194 538.075 512.471 537.379 511.428 537.074C510.384 536.772 510.107 537.467 509.063 537.165C508.019 536.863 508.296 536.168 507.252 535.865C506.209 535.563 505.931 536.258 504.888 535.953C503.844 535.651 504.121 534.956 503.077 534.653C502.122 534.376 501.811 534.931 500.971 534.802L500.515 525.319L520.751 532.15L520.927 540.43L520.924 540.432Z" fill="#C1A477"/>
</g>
<g style="mix-blend-mode:multiply" opacity="0.4">
<path d="M455.401 607.699L466.188 602.923L464.823 585.1L454.05 590.255L455.401 607.699ZM465.519 602.228L455.9 606.504L454.696 590.928L464.306 586.35L465.522 602.228H465.519Z" fill="black"/>
</g>
<g style="mix-blend-mode:multiply" opacity="0.4">
<path d="M443.689 612.882L453.979 608.328L452.631 590.934L442.356 595.85L443.692 612.882H443.689ZM453.339 607.641L444.163 611.719L442.972 596.512L452.138 592.146L453.342 607.641H453.339Z" fill="black"/>
</g>
<g style="mix-blend-mode:multiply" opacity="0.4">
<path d="M432.505 617.83L442.33 613.483L440.997 596.499L431.187 601.192L432.508 617.83H432.505ZM441.714 612.807L432.954 616.701L431.775 601.843L440.526 597.675L441.714 612.805V612.807Z" fill="black"/>
</g>
<g style="mix-blend-mode:multiply" opacity="0.4">
<path d="M450.176 598.897C450.324 600.804 449.591 602.764 448.51 603.497L448.747 606.553L449.305 606.303L449.379 607.235L450.216 606.858L450.29 607.79L446.955 609.282L446.881 608.356L447.71 607.982L447.636 607.053L448.19 606.803L447.953 603.75C446.841 604.022 445.878 602.852 445.73 600.961L445.44 597.254L449.884 595.155L450.176 598.895V598.897Z" fill="black"/>
</g>
<g style="mix-blend-mode:multiply" opacity="0.4">
<path d="M440.61 611.169L440.684 612.082L433.78 615.168L433.709 614.266L440.61 611.169Z" fill="black"/>
</g>
<g style="mix-blend-mode:multiply" opacity="0.4">
<path d="M439.214 611.087L438.678 611.329L438.145 611.568L437.588 604.511L438.121 604.264L438.657 604.017L439.214 611.087Z" fill="black"/>
</g>
<g style="mix-blend-mode:multiply" opacity="0.4">
<path d="M436.021 612.525L435.495 612.764L434.968 613L434.411 605.99L434.938 605.746L435.467 605.501L436.021 612.525Z" fill="black"/>
</g>
<g style="mix-blend-mode:multiply" opacity="0.4">
<path d="M437.816 600.387L439.405 602.956L436.736 604.201L437.816 600.387Z" fill="black"/>
</g>
<g style="mix-blend-mode:multiply" opacity="0.4">
<path d="M434.636 601.892L436.206 604.448L433.57 605.679L434.636 601.892Z" fill="black"/>
</g>
<g style="mix-blend-mode:multiply" opacity="0.4">
<path d="M459.582 590.329C462.088 589.145 463.727 590.821 463.948 593.742L459.985 595.575L460.426 601.291C460.466 601.816 460.761 602.126 461.082 601.98C461.405 601.835 461.633 601.291 461.593 600.763L461.556 600.285L462.141 600.021L462.178 600.499C462.258 601.552 461.799 602.645 461.152 602.934C460.509 603.222 459.921 602.601 459.841 601.552L459.4 595.842L456.078 597.378C455.856 594.503 457.097 591.503 459.576 590.329H459.582Z" fill="black"/>
</g>
</g>
<defs>
<linearGradient id="paint0_linear_717_7739" x1="432.534" y1="727.447" x2="513.56" y2="748.459" gradientUnits="userSpaceOnUse">
<stop stop-color="#F4E7D1"/>
<stop offset="1" stop-color="#E5CDA7"/>
</linearGradient>
<linearGradient id="paint1_linear_717_7739" x1="366.919" y1="749.714" x2="441.915" y2="719.558" gradientUnits="userSpaceOnUse">
<stop stop-color="#AF8E61"/>
<stop offset="1" stop-color="#CEBA95"/>
</linearGradient>
<linearGradient id="paint2_linear_717_7739" x1="371.835" y1="779.347" x2="504.328" y2="779.345" gradientUnits="userSpaceOnUse">
<stop stop-color="#926D33"/>
<stop offset="1" stop-color="#7B5628"/>
</linearGradient>
<linearGradient id="paint3_linear_717_7739" x1="155.097" y1="621.087" x2="90.7388" y2="637.749" gradientUnits="userSpaceOnUse">
<stop stop-color="#CEBA95"/>
<stop offset="1" stop-color="#AF8E61"/>
</linearGradient>
<linearGradient id="paint4_linear_717_7739" x1="215.896" y1="641.968" x2="149.241" y2="615.136" gradientUnits="userSpaceOnUse">
<stop stop-color="#DBBB89"/>
<stop offset="1" stop-color="#F2E3C8"/>
</linearGradient>
<linearGradient id="paint5_linear_717_7739" x1="209.527" y1="622.946" x2="188.703" y2="628.338" gradientUnits="userSpaceOnUse">
<stop stop-color="#FDF8EE"/>
<stop offset="1" stop-color="white"/>
</linearGradient>
<linearGradient id="paint6_linear_717_7739" x1="150.112" y1="681.428" x2="158.82" y2="653.076" gradientUnits="userSpaceOnUse">
<stop stop-color="#926D33"/>
<stop offset="1" stop-color="#7B5628"/>
</linearGradient>
<linearGradient id="paint7_linear_717_7739" x1="441.018" y1="911.764" x2="597.137" y2="911.764" gradientUnits="userSpaceOnUse">
<stop stop-color="#F2E4CD"/>
<stop offset="1" stop-color="#E8D2AF"/>
</linearGradient>
<linearGradient id="paint8_linear_717_7739" x1="314.77" y1="911.764" x2="441.018" y2="911.764" gradientUnits="userSpaceOnUse">
<stop stop-color="#B5966B"/>
<stop offset="1" stop-color="#C6AE88"/>
</linearGradient>
<linearGradient id="paint9_linear_717_7739" x1="183.494" y1="802.574" x2="275.751" y2="802.574" gradientUnits="userSpaceOnUse">
<stop stop-color="#A9895B"/>
<stop offset="1" stop-color="#BDA478"/>
</linearGradient>
<linearGradient id="paint10_linear_717_7739" x1="275.752" y1="802.604" x2="316.557" y2="802.604" gradientUnits="userSpaceOnUse">
<stop stop-color="#FBF3E5"/>
<stop offset="1" stop-color="#E3C9A0"/>
</linearGradient>
<linearGradient id="paint11_linear_717_7739" x1="37.2367" y1="777.538" x2="184.148" y2="777.538" gradientUnits="userSpaceOnUse">
<stop stop-color="#A9895B"/>
<stop offset="1" stop-color="#BDA478"/>
</linearGradient>
<linearGradient id="paint12_linear_717_7739" x1="184.148" y1="777.585" x2="249.124" y2="777.585" gradientUnits="userSpaceOnUse">
<stop stop-color="#FBF3E5"/>
<stop offset="1" stop-color="#E3C9A0"/>
</linearGradient>
<linearGradient id="paint13_linear_717_7739" x1="762.347" y1="618.392" x2="601" y2="618.392" gradientUnits="userSpaceOnUse">
<stop stop-color="#CEBA95"/>
<stop offset="1" stop-color="#AF8E61"/>
</linearGradient>
<linearGradient id="paint14_linear_717_7739" x1="892.505" y1="696.91" x2="754.99" y2="597.715" gradientUnits="userSpaceOnUse">
<stop stop-color="#E3C9A0"/>
<stop offset="1" stop-color="#FDF5E8"/>
</linearGradient>
<linearGradient id="paint15_linear_717_7739" x1="889.109" y1="649.127" x2="836.906" y2="649.127" gradientUnits="userSpaceOnUse">
<stop stop-color="#FDF8EE"/>
<stop offset="1" stop-color="white"/>
</linearGradient>
<linearGradient id="paint16_linear_717_7739" x1="713.934" y1="757.763" x2="749.427" y2="694.115" gradientUnits="userSpaceOnUse">
<stop stop-color="#926D33"/>
<stop offset="1" stop-color="#7B5628"/>
</linearGradient>
<linearGradient id="paint17_linear_717_7739" x1="261.573" y1="921.789" x2="-23.8688" y2="921.789" gradientUnits="userSpaceOnUse">
<stop stop-color="#CEBA95"/>
<stop offset="1" stop-color="#AF8E61"/>
</linearGradient>
<linearGradient id="paint18_linear_717_7739" x1="387.821" y1="921.789" x2="261.574" y2="921.789" gradientUnits="userSpaceOnUse">
<stop stop-color="#E8D1AE"/>
<stop offset="1" stop-color="#F8EDD9"/>
</linearGradient>
<linearGradient id="paint19_linear_717_7739" x1="631.119" y1="933.261" x2="577.013" y2="934.319" gradientUnits="userSpaceOnUse">
<stop stop-color="#E7D1AD"/>
<stop offset="1" stop-color="#F4E6D0"/>
</linearGradient>
<linearGradient id="paint20_linear_717_7739" x1="630.564" y1="904.86" x2="489.07" y2="907.627" gradientUnits="userSpaceOnUse">
<stop stop-color="#F4E6D0"/>
<stop offset="1" stop-color="#E7D1AD"/>
</linearGradient>
<linearGradient id="paint21_linear_717_7739" x1="627.559" y1="916.255" x2="605.21" y2="916.692" gradientUnits="userSpaceOnUse">
<stop stop-color="#FDF8EE"/>
<stop offset="1" stop-color="white"/>
</linearGradient>
<linearGradient id="paint22_linear_717_7739" x1="578.246" y1="932.548" x2="489.4" y2="934.286" gradientUnits="userSpaceOnUse">
<stop stop-color="#CEBA95"/>
<stop offset="1" stop-color="#B89B70"/>
</linearGradient>
<linearGradient id="paint23_linear_717_7739" x1="458.211" y1="562.457" x2="562.129" y2="577.373" gradientUnits="userSpaceOnUse">
<stop stop-color="#F4E7D1"/>
<stop offset="1" stop-color="#E5CDA7"/>
</linearGradient>
<linearGradient id="paint24_linear_717_7739" x1="379.807" y1="597.423" x2="468.071" y2="550.306" gradientUnits="userSpaceOnUse">
<stop stop-color="#AF8E61"/>
<stop offset="1" stop-color="#CEBA95"/>
</linearGradient>
<linearGradient id="paint25_linear_717_7739" x1="390.054" y1="633.689" x2="554.243" y2="615.226" gradientUnits="userSpaceOnUse">
<stop stop-color="#926D33"/>
<stop offset="1" stop-color="#7B5628"/>
</linearGradient>
<clipPath id="clip0_717_7739">
<rect width="1728" height="949" fill="white"/>
</clipPath>
</defs>
</svg>
