<svg width="1728" height="949" viewBox="0 0 1728 949" fill="none" xmlns="http://www.w3.org/2000/svg">
<g clip-path="url(#clip0_717_7739)">
<rect width="1728" height="949" fill="white"/>
<rect opacity="0.1" x="14" y="214" width="1729" height="1117" fill="#D3F4FD"/>
<path d="M408.212 825.415L358.077 809.701L360.229 750.336L410.199 773.486L408.212 825.415Z" fill="url(#paint0_linear_717_7739)"/>
<path d="M304.847 826.275L358.077 809.701L360.229 750.336L306.531 778.548L304.847 826.275Z" fill="url(#paint1_linear_717_7739)"/>
<path d="M304.846 826.275L358.076 809.701L408.212 825.415L343.277 833.763L304.846 826.275Z" fill="url(#paint2_linear_717_7739)"/>
<path d="M358.077 809.701C360.182 810.32 362.277 810.958 364.379 811.586L370.666 813.506C372.763 814.143 374.851 814.8 376.943 815.447L383.216 817.397L389.477 819.375C391.562 820.037 393.654 820.689 395.735 821.361L401.984 823.371C404.062 824.053 406.144 824.723 408.218 825.415C406.113 824.796 404.018 824.158 401.916 823.53L395.629 821.61C393.532 820.976 391.444 820.316 389.352 819.669L383.079 817.719L376.818 815.739C374.733 815.077 372.643 814.425 370.56 813.753L364.311 811.743C362.233 811.061 360.151 810.391 358.077 809.701Z" fill="#66340E"/>
<g style="mix-blend-mode:multiply">
<path d="M383.022 817.704L333.132 828.098L324.281 830.063L323.717 829.952L332.57 827.989L382.585 817.564L383.022 817.704Z" fill="#CA9151"/>
</g>
<g style="mix-blend-mode:multiply">
<path d="M337.246 829.082L337.121 829.11L328.83 830.948L319.334 829.097L327.533 827.278L327.603 827.263C327.754 827.325 327.913 827.383 328.191 827.438C328.504 827.501 328.65 827.494 328.806 827.49C328.97 827.486 329.143 827.479 329.498 827.548C329.851 827.618 330.039 827.693 330.217 827.766C330.387 827.837 330.548 827.901 330.861 827.963C331.173 828.026 331.319 828.019 331.476 828.015C331.639 828.011 331.812 828.004 332.165 828.073C332.521 828.143 332.706 828.218 332.886 828.291C333.056 828.362 333.215 828.426 333.527 828.488C333.839 828.55 333.986 828.544 334.142 828.54C334.308 828.535 334.479 828.529 334.834 828.598C335.187 828.666 335.375 828.743 335.552 828.816C335.723 828.887 335.882 828.951 336.194 829.013C336.506 829.075 336.655 829.069 336.809 829.065C336.929 829.06 337.051 829.056 337.244 829.082H337.246Z" fill="#927B59"/>
<path d="M388.744 819.313L381.756 820.862L381.64 820.888C381.448 820.864 381.244 820.839 380.91 820.734C380.569 820.624 380.432 820.541 380.297 820.457C380.17 820.38 380.05 820.307 379.75 820.211C379.449 820.114 379.274 820.093 379.086 820.072C378.889 820.048 378.685 820.024 378.347 819.915C378.005 819.806 377.866 819.72 377.732 819.639C377.604 819.562 377.484 819.487 377.184 819.392C376.883 819.296 376.708 819.277 376.523 819.253C376.326 819.229 376.122 819.206 375.781 819.097C375.44 818.987 375.3 818.902 375.166 818.82C375.038 818.743 374.921 818.67 374.62 818.574C374.32 818.477 374.145 818.458 373.957 818.434C373.76 818.411 373.556 818.387 373.215 818.278C372.874 818.169 372.735 818.083 372.6 818.002C372.473 817.925 372.353 817.85 372.052 817.755C371.752 817.661 371.577 817.64 371.392 817.616C371.195 817.592 370.99 817.569 370.649 817.46C370.563 817.432 370.491 817.406 370.426 817.382L370.495 817.367L377.542 815.803L388.742 819.313H388.744Z" fill="#927B59"/>
</g>
<g style="mix-blend-mode:multiply">
<path d="M388.744 819.313L377.544 815.803L377.974 809.109C378.253 809.058 378.481 808.932 378.892 809.069C379.536 809.285 379.341 809.711 379.985 809.926C380.629 810.14 380.821 809.714 381.465 809.926C382.109 810.14 381.916 810.566 382.558 810.783C383.202 810.997 383.394 810.571 384.038 810.783C384.682 810.997 384.489 811.424 385.133 811.638C385.777 811.854 385.969 811.426 386.613 811.64C387.257 811.854 387.065 812.281 387.706 812.495C388.35 812.711 388.542 812.285 389.188 812.499C389.232 812.514 389.273 812.529 389.309 812.546L388.744 819.309V819.313Z" fill="#C1A477"/>
</g>
<g style="mix-blend-mode:multiply">
<path d="M392.727 771.093C392.542 770.872 392.513 770.622 392.081 770.45C391.452 770.204 391.233 770.62 390.604 770.373C389.977 770.127 390.198 769.711 389.568 769.465C388.941 769.218 388.72 769.634 388.091 769.388C387.464 769.141 387.685 768.725 387.055 768.479C386.428 768.233 386.207 768.65 385.578 768.404C384.951 768.158 385.172 767.742 384.542 767.495C383.915 767.249 383.694 767.665 383.065 767.418C382.438 767.172 382.659 766.756 382.029 766.51C381.455 766.285 381.222 766.613 380.71 766.484L381.09 760.566L393.193 765.938L392.725 771.091L392.727 771.093Z" fill="#C1A477"/>
</g>
<g style="mix-blend-mode:multiply" opacity="0.4">
<path d="M347.247 809.163L353.961 806.906L354.341 796.023L347.609 798.505L347.249 809.163H347.247ZM353.613 806.443L347.624 808.466L347.948 798.95L353.952 796.748L353.615 806.443H353.613Z" fill="black"/>
</g>
<g style="mix-blend-mode:multiply" opacity="0.4">
<path d="M339.948 811.614L346.36 809.46L346.721 798.833L340.292 801.202L339.948 811.614ZM346.026 809.004L340.306 810.937L340.614 801.639L346.346 799.537L346.026 809.006V809.004Z" fill="black"/>
</g>
<g style="mix-blend-mode:multiply" opacity="0.4">
<path d="M352.26 800.834C352.219 802.027 351.626 803.204 350.903 803.6L350.838 805.511L351.201 805.387L351.181 805.97L351.729 805.784L351.71 806.366L349.531 807.108L349.55 806.529L350.093 806.345L350.112 805.764L350.475 805.64L350.54 803.731C349.831 803.838 349.312 803.056 349.353 801.875L349.432 799.557L352.342 798.5L352.26 800.84V800.834Z" fill="black"/>
</g>
<g style="mix-blend-mode:multiply" opacity="0.4">
<path d="M345.452 807.926L345.433 808.498L340.926 810.03L340.945 809.467L345.452 807.926Z" fill="black"/>
</g>
<g style="mix-blend-mode:multiply" opacity="0.4">
<path d="M344.589 807.798L344.241 807.918L343.893 808.038L344.039 803.622L344.39 803.497L344.738 803.373L344.589 807.798Z" fill="black"/>
</g>
<g style="mix-blend-mode:multiply" opacity="0.4">
<path d="M342.504 808.513L342.16 808.631L341.817 808.749L341.961 804.363L342.307 804.241L342.65 804.119L342.504 808.513Z" fill="black"/>
</g>
<g style="mix-blend-mode:multiply" opacity="0.4">
<path d="M344.469 801.072L345.278 802.756L343.532 803.382L344.469 801.072Z" fill="black"/>
</g>
<g style="mix-blend-mode:multiply" opacity="0.4">
<path d="M342.386 801.83L343.184 803.506L341.461 804.123L342.386 801.83Z" fill="black"/>
</g>
<path d="M91.1796 732.844L129.274 720.437L129.577 674.231L89.9159 692.434L91.1796 732.844Z" fill="url(#paint3_linear_717_7739)"/>
<path d="M181.007 736.225L129.274 720.437L129.577 674.231L181.61 699.076L181.007 736.225Z" fill="url(#paint4_linear_717_7739)"/>
<path d="M177.32 709.575L162.578 703.37C161.949 703.104 161.548 702.539 161.55 701.919L161.577 693.968C161.577 693.436 162.208 693.096 162.737 693.338L177.74 700.214C178.355 700.497 178.735 701.071 178.713 701.688L178.454 708.958C178.434 709.47 177.836 709.796 177.317 709.577L177.32 709.575Z" fill="url(#paint5_linear_717_7739)"/>
<path d="M181.008 736.225L129.274 720.437L91.1796 732.843L151.828 742.19L181.008 736.225Z" fill="url(#paint6_linear_717_7739)"/>
<path d="M129.273 720.437C127.676 720.926 126.083 721.431 124.488 721.926L119.712 723.443C118.119 723.945 116.534 724.465 114.943 724.975L110.177 726.516L105.42 728.078C103.834 728.601 102.246 729.115 100.666 729.646L95.9185 731.232C94.3401 731.77 92.7569 732.299 91.181 732.843C92.781 732.355 94.3713 731.849 95.9665 731.354L100.742 729.839C102.335 729.338 103.921 728.817 105.511 728.305L110.278 726.764L115.034 725.202C116.62 724.68 118.208 724.165 119.789 723.634L124.536 722.048C126.114 721.511 127.697 720.981 129.273 720.437Z" fill="#66340E"/>
<g style="mix-blend-mode:multiply">
<path d="M110.32 726.753L159.548 737.743L166.251 739.241L166.681 739.153L159.976 737.658L110.652 726.644L110.32 726.753Z" fill="#CA9151"/>
</g>
<g style="mix-blend-mode:multiply">
<path d="M156.427 738.524L156.523 738.545L162.8 739.947L170.01 738.472L163.8 737.086L163.747 737.073C163.631 737.123 163.511 737.168 163.3 737.213C163.062 737.262 162.952 737.258 162.834 737.255C162.709 737.251 162.579 737.247 162.31 737.303C162.041 737.358 161.899 737.418 161.765 737.476C161.635 737.532 161.512 737.583 161.277 737.63C161.039 737.68 160.929 737.675 160.811 737.673C160.686 737.669 160.556 737.665 160.287 737.72C160.018 737.776 159.876 737.836 159.739 737.894C159.61 737.95 159.49 738.001 159.252 738.048C159.014 738.097 158.903 738.093 158.786 738.091C158.661 738.087 158.531 738.082 158.262 738.138C157.993 738.194 157.851 738.254 157.717 738.312C157.587 738.367 157.467 738.419 157.229 738.466C156.991 738.515 156.881 738.511 156.761 738.509C156.669 738.507 156.578 738.505 156.429 738.524H156.427Z" fill="#957E5A"/>
<path d="M105.974 728.026L111.267 729.207L111.355 729.226C111.502 729.207 111.656 729.188 111.91 729.102C112.17 729.016 112.276 728.95 112.377 728.886C112.473 728.826 112.564 728.768 112.792 728.691C113.02 728.616 113.152 728.599 113.294 728.581C113.443 728.562 113.597 728.543 113.856 728.457C114.116 728.371 114.222 728.305 114.325 728.241C114.421 728.181 114.512 728.121 114.74 728.046C114.969 727.969 115.101 727.954 115.243 727.934C115.392 727.915 115.548 727.896 115.805 727.81C116.064 727.724 116.17 727.658 116.271 727.592C116.367 727.532 116.458 727.474 116.686 727.397C116.915 727.322 117.049 727.304 117.189 727.287C117.337 727.268 117.491 727.249 117.751 727.163C118.01 727.077 118.116 727.011 118.217 726.944C118.313 726.884 118.404 726.824 118.632 726.749C118.861 726.674 118.993 726.657 119.134 726.638C119.283 726.619 119.44 726.599 119.699 726.514C119.764 726.492 119.819 726.471 119.867 726.452L119.814 726.441L114.479 725.25L105.969 728.022L105.974 728.026Z" fill="#957E5A"/>
</g>
<g style="mix-blend-mode:multiply">
<path d="M105.972 728.027L114.481 725.256L114.186 720.047C113.975 720.008 113.804 719.91 113.492 720.019C113.004 720.188 113.148 720.521 112.658 720.69C112.17 720.859 112.026 720.527 111.536 720.696C111.048 720.866 111.19 721.198 110.702 721.367C110.215 721.536 110.071 721.204 109.581 721.373C109.09 721.543 109.235 721.875 108.747 722.044C108.259 722.213 108.115 721.883 107.625 722.053C107.137 722.222 107.279 722.554 106.791 722.723C106.301 722.893 106.157 722.563 105.667 722.732C105.633 722.743 105.605 722.755 105.576 722.768L105.972 728.029V728.027Z" fill="#927B59"/>
</g>
<g style="mix-blend-mode:multiply">
<path d="M103.176 690.509C103.315 690.338 103.339 690.143 103.668 690.008C104.146 689.813 104.312 690.137 104.79 689.944C105.268 689.749 105.102 689.425 105.58 689.232C106.059 689.037 106.224 689.361 106.7 689.168C107.178 688.973 107.012 688.65 107.488 688.457C107.966 688.264 108.132 688.587 108.607 688.392C109.086 688.197 108.92 687.876 109.398 687.681C109.876 687.486 110.042 687.81 110.517 687.617C110.993 687.424 110.83 687.1 111.308 686.905C111.743 686.727 111.918 686.982 112.31 686.88L112.048 682.275L102.844 686.498L103.176 690.507V690.509Z" fill="#927B59"/>
</g>
<g style="mix-blend-mode:multiply" opacity="0.4">
<path d="M145.931 722.374L150.642 723.848L150.671 718.974L146.013 717.3L145.931 722.374ZM150.399 723.506L146.2 722.181L146.272 717.667L150.428 719.149L150.399 723.506Z" fill="black"/>
</g>
<g style="mix-blend-mode:multiply" opacity="0.4">
<path d="M140.045 720.531L145.26 722.164L145.352 717.062L140.201 715.211L140.045 720.531ZM144.996 721.8L140.347 720.332L140.482 715.597L145.08 717.238L144.996 721.798V721.8Z" fill="black"/>
</g>
<g style="mix-blend-mode:multiply" opacity="0.4">
<path d="M133.494 718.481L139.303 720.3L139.469 714.947L133.739 712.888L133.494 718.481ZM139.012 719.912L133.835 718.279L134.049 713.302L139.161 715.127L139.01 719.912H139.012Z" fill="black"/>
</g>
<g style="mix-blend-mode:multiply" opacity="0.4">
<path d="M143.896 718.493C143.884 719.061 143.454 719.391 142.902 719.278L142.88 720.205L143.159 720.295L143.152 720.578L143.57 720.713L143.562 720.996L141.874 720.458L141.881 720.173L142.308 720.31L142.316 720.025L142.599 720.117L142.621 719.188C142.066 718.933 141.643 718.311 141.657 717.73L141.686 716.599L143.918 717.385L143.894 718.495L143.896 718.493Z" fill="black"/>
</g>
<g style="mix-blend-mode:multiply" opacity="0.4">
<path d="M138.505 719.083L138.495 719.376L134.421 718.078L134.433 717.776L138.505 719.083Z" fill="black"/>
</g>
<g style="mix-blend-mode:multiply" opacity="0.4">
<path d="M137.751 718.618L137.444 718.519L137.136 718.418L137.216 716.134L137.523 716.239L137.828 716.344L137.751 718.618Z" fill="black"/>
</g>
<g style="mix-blend-mode:multiply" opacity="0.4">
<path d="M135.885 718.014L135.568 717.913L135.248 717.808L135.339 715.492L135.656 715.599L135.974 715.708L135.885 718.014Z" fill="black"/>
</g>
<g style="mix-blend-mode:multiply" opacity="0.4">
<path d="M137.566 714.999L138.291 716.282L136.761 715.755L137.566 714.999Z" fill="black"/>
</g>
<g style="mix-blend-mode:multiply" opacity="0.4">
<path d="M135.706 714.341L136.448 715.648L134.87 715.104L135.706 714.341Z" fill="black"/>
</g>
<g style="mix-blend-mode:multiply" opacity="0.4">
<path d="M148.384 718.888C149.453 719.265 150.054 720.126 150.049 720.93L148.37 720.36L148.353 721.975C148.353 722.125 148.463 722.282 148.603 722.327C148.742 722.372 148.855 722.286 148.857 722.138V722.003L149.109 722.085V722.22C149.105 722.515 148.879 722.685 148.6 722.597C148.321 722.507 148.096 722.192 148.098 721.892L148.117 720.272L146.635 719.77C146.647 718.943 147.296 718.502 148.386 718.885L148.384 718.888Z" fill="black"/>
</g>
<path d="M480.68 987.686L358.871 997.409V852.519L480.68 857.665V987.686Z" fill="url(#paint7_linear_717_7739)"/>
<path d="M260.369 985.74L358.87 997.409V852.519L260.369 860.299V985.74Z" fill="url(#paint8_linear_717_7739)"/>
<g style="mix-blend-mode:multiply">
<path d="M296.855 857.416L297.237 866.208C297.576 866.03 297.927 865.85 298.635 865.797C300.084 865.687 300.149 866.317 301.602 866.206C303.049 866.097 302.984 865.469 304.43 865.36C305.881 865.25 305.948 865.878 307.399 865.767C308.846 865.657 308.781 865.03 310.229 864.92C311.681 864.811 311.745 865.441 313.194 865.33C314.645 865.22 314.575 864.592 316.026 864.481C317.141 864.397 317.434 864.747 318.174 864.867L318.229 855.728L296.853 857.416H296.855Z" fill="#C1A477"/>
</g>
<g style="mix-blend-mode:multiply" opacity="0.4">
<path d="M378.15 859.776L367.57 859.436L367.426 868.999L377.994 869.209L378.152 859.776H378.15ZM368.142 859.971L377.578 860.269L377.439 868.688L368.014 868.493L368.144 859.971H368.142Z" fill="black"/>
</g>
<g style="mix-blend-mode:multiply" opacity="0.4">
<path d="M389.818 860.151L379.558 859.821L379.399 869.236L389.648 869.439L389.818 860.151ZM380.11 860.348L389.261 860.637L389.11 868.927L379.969 868.739L380.11 860.348Z" fill="black"/>
</g>
<g style="mix-blend-mode:multiply" opacity="0.4">
<path d="M370.545 863.14C370.528 864.19 371.393 865.077 372.519 865.231L372.493 866.917L371.921 866.904L371.914 867.419L371.054 867.399L371.047 867.914L374.475 867.987L374.482 867.474L373.627 867.455L373.634 866.943L373.065 866.93L373.091 865.246C374.218 865.147 375.102 864.31 375.119 863.266L375.152 861.218L370.578 861.081L370.547 863.142L370.545 863.14Z" fill="black"/>
</g>
<g style="mix-blend-mode:multiply" opacity="0.4">
<path d="M380.968 867.619L380.958 868.126L388.16 868.281L388.17 867.777L380.968 867.619Z" fill="black"/>
</g>
<g style="mix-blend-mode:multiply" opacity="0.4">
<path d="M382.368 867.269L382.925 867.282L383.483 867.295L383.55 863.371L382.995 863.356L382.437 863.341L382.368 867.269Z" fill="black"/>
</g>
<g style="mix-blend-mode:multiply" opacity="0.4">
<path d="M385.698 867.344L386.251 867.357L386.801 867.37L386.873 863.464L386.32 863.449L385.768 863.434L385.698 867.344Z" fill="black"/>
</g>
<g style="mix-blend-mode:multiply" opacity="0.4">
<path d="M383.032 861.201L381.607 862.937L384.392 863.016L383.032 861.201Z" fill="black"/>
</g>
<g style="mix-blend-mode:multiply" opacity="0.4">
<path d="M386.36 861.304L384.947 863.031L387.705 863.108L386.36 861.304Z" fill="black"/>
</g>
<path d="M158.466 828.167L229.926 822.409V855.969L157.945 857.233L158.466 828.167Z" fill="url(#paint9_linear_717_7739)"/>
<path d="M261.764 827.4L229.927 822.409V855.969L261.764 857.28V827.4Z" fill="url(#paint10_linear_717_7739)"/>
<path d="M157.946 857.232L229.927 855.968L261.764 857.28L195.796 858.308L157.946 857.232Z" fill="#FAE7CA"/>
<g style="mix-blend-mode:multiply" opacity="0.4">
<path d="M255.817 854.318L259.5 854.61L259.399 849.302L255.779 848.994L255.817 854.318ZM259.296 854.301L256.014 854.042L255.976 849.294L259.209 849.568L259.296 854.301Z" fill="black"/>
</g>
<g style="mix-blend-mode:multiply" opacity="0.4">
<path d="M251.598 853.987L255.317 854.281L255.286 848.954L251.63 848.643L251.598 853.987ZM255.116 853.972L251.803 853.708L251.829 848.943L255.092 849.219L255.116 853.972Z" fill="black"/>
</g>
<g style="mix-blend-mode:multiply" opacity="0.4">
<path d="M247.339 853.65L251.094 853.946L251.135 848.6L247.445 848.287L247.341 853.65H247.339ZM250.895 853.637L247.548 853.372L247.637 848.589L250.933 848.868L250.895 853.637Z" fill="black"/>
</g>
<g style="mix-blend-mode:multiply" opacity="0.4">
<path d="M254.258 850.862C254.258 851.449 253.955 851.908 253.564 851.949V852.902L253.763 852.919V853.211L254.063 853.234V853.526L252.86 853.429V853.138L253.16 853.161V852.87L253.362 852.887V851.934C252.968 851.831 252.665 851.321 252.665 850.734V849.587L254.253 849.72V850.864L254.258 850.862Z" fill="black"/>
</g>
<g style="mix-blend-mode:multiply" opacity="0.4">
<path d="M250.547 852.95L250.544 853.243L247.911 853.033L247.916 852.74L250.547 852.95Z" fill="black"/>
</g>
<g style="mix-blend-mode:multiply" opacity="0.4">
<path d="M250.043 852.69L249.842 852.675L249.64 852.658L249.666 850.41L249.868 850.427L250.067 850.442L250.043 852.69Z" fill="black"/>
</g>
<g style="mix-blend-mode:multiply" opacity="0.4">
<path d="M248.832 852.594L248.63 852.577L248.428 852.562L248.464 850.31L248.663 850.327L248.865 850.344L248.832 852.594Z" fill="black"/>
</g>
<g style="mix-blend-mode:multiply" opacity="0.4">
<path d="M249.883 849.208L250.371 850.252L249.369 850.168L249.883 849.208Z" fill="black"/>
</g>
<g style="mix-blend-mode:multiply" opacity="0.4">
<path d="M248.682 849.105L249.17 850.153L248.166 850.07L248.682 849.105Z" fill="black"/>
</g>
<g style="mix-blend-mode:multiply" opacity="0.4">
<path d="M257.602 849.929C258.44 849.999 258.938 850.741 258.952 851.609L257.624 851.499L257.645 853.229C257.645 853.389 257.739 853.526 257.847 853.535C257.958 853.543 258.044 853.421 258.042 853.261V853.115L258.239 853.13V853.276C258.246 853.595 258.07 853.841 257.852 853.824C257.633 853.807 257.451 853.531 257.448 853.211L257.427 851.48L256.29 851.386C256.283 850.516 256.761 849.856 257.602 849.927V849.929Z" fill="black"/>
</g>
<path d="M246.727 856.66L246.032 856.632L180.19 857.736L180.081 857.738H180.021L177.348 857.783L177.787 857.796L178.21 857.807L180.264 857.772H180.408H180.411L246.727 856.66Z" fill="#CA9151"/>
<path d="M229.927 855.968L233.905 856.165L237.884 856.348L245.843 856.69L253.802 857.003L257.783 857.149L261.764 857.28L257.785 857.082L253.807 856.9L245.85 856.558L237.889 856.245L233.908 856.099L229.927 855.968Z" fill="#CA9151"/>
<g style="mix-blend-mode:multiply">
<path d="M244.168 824.64V828.27C244.216 828.27 244.267 828.27 244.322 828.282C244.805 828.357 244.74 828.687 245.225 828.765C245.711 828.842 245.776 828.514 246.261 828.591C246.746 828.668 246.679 828.996 247.164 829.073C247.263 829.09 247.344 829.088 247.414 829.077C247.693 829.035 247.813 828.84 248.2 828.9C248.685 828.975 248.618 829.305 249.103 829.382C249.588 829.459 249.653 829.131 250.138 829.208C250.302 829.234 250.4 829.29 250.479 829.35V825.628L244.171 824.638L244.168 824.64Z" fill="#C1A477"/>
</g>
<g style="mix-blend-mode:multiply">
<path d="M180.63 857.809C180.618 857.796 180.606 857.783 180.577 857.779C180.524 857.77 180.515 857.809 180.464 857.803C180.418 857.796 180.418 857.766 180.382 857.753H180.322C180.301 857.762 180.284 857.777 180.25 857.773C180.231 857.773 180.219 857.762 180.209 857.755C180.193 857.743 180.185 857.725 180.152 857.719C180.097 857.713 180.092 857.749 180.036 857.743C179.984 857.734 179.991 857.695 179.938 857.689C179.885 857.68 179.876 857.719 179.825 857.71C179.796 857.708 179.784 857.693 179.775 857.683L176.149 857.747L177.785 857.794L179.138 857.833L180.625 857.807L180.63 857.809Z" fill="#C1A477"/>
</g>
<g style="mix-blend-mode:multiply">
<path d="M250.496 856.815V853.523C250.45 853.511 250.395 853.502 250.333 853.498C249.843 853.466 249.816 853.798 249.326 853.766C248.836 853.736 248.862 853.401 248.37 853.369C247.904 853.339 247.856 853.639 247.431 853.641C247.409 853.641 247.385 853.641 247.361 853.641C246.871 853.609 246.895 853.277 246.405 853.245C245.915 853.213 245.888 853.545 245.398 853.513C244.906 853.483 244.932 853.148 244.442 853.116C244.336 853.11 244.255 853.118 244.183 853.14V856.553L250.494 856.813L250.496 856.815Z" fill="#C1A477"/>
</g>
<g style="mix-blend-mode:multiply">
<path d="M250.496 856.815L244.187 856.556L238.438 856.691C238.563 856.717 238.546 856.803 238.676 856.824C238.808 856.848 238.827 856.758 238.962 856.781C239.094 856.805 239.075 856.895 239.209 856.916C239.224 856.918 239.238 856.92 239.252 856.92C239.348 856.92 239.375 856.852 239.495 856.873C239.541 856.882 239.567 856.897 239.589 856.916L250.498 856.813L250.496 856.815Z" fill="#C1A477"/>
</g>
<path d="M44.6614 801.74L158.456 792.572V846.013L43.8326 848.023L44.6614 801.74Z" fill="url(#paint11_linear_717_7739)"/>
<path d="M209.151 800.517L158.456 792.572V846.013L209.151 848.1V800.517Z" fill="url(#paint12_linear_717_7739)"/>
<path d="M43.8324 848.023L158.456 846.013L209.151 848.1L104.104 849.737L43.8324 848.023Z" fill="#FAE7CA"/>
<g style="mix-blend-mode:multiply" opacity="0.4">
<path d="M199.685 843.385L205.549 843.848L205.39 835.397L199.624 834.907L199.687 843.385H199.685ZM205.225 843.36L199.999 842.946L199.939 835.387L205.088 835.824L205.225 843.362V843.36Z" fill="black"/>
</g>
<g style="mix-blend-mode:multiply" opacity="0.4">
<path d="M192.968 842.857L198.89 843.324L198.842 834.841L193.021 834.346L192.97 842.857H192.968ZM198.568 842.834L193.292 842.416L193.333 834.826L198.529 835.265L198.568 842.831V842.834Z" fill="black"/>
</g>
<g style="mix-blend-mode:multiply" opacity="0.4">
<path d="M186.183 842.321L192.163 842.793L192.228 834.28L186.349 833.78L186.183 842.321ZM191.843 842.3L186.515 841.878L186.659 834.26L191.906 834.704L191.843 842.298V842.3Z" fill="black"/>
</g>
<g style="mix-blend-mode:multiply" opacity="0.4">
<path d="M197.201 837.879C197.201 838.814 196.72 839.544 196.093 839.609V841.126L196.413 841.151V841.614L196.891 841.653V842.118L194.976 841.966V841.501L195.457 841.539V841.074L195.776 841.1V839.583C195.149 839.418 194.666 838.606 194.669 837.672L194.673 835.848L197.198 836.06L197.203 837.882L197.201 837.879Z" fill="black"/>
</g>
<g style="mix-blend-mode:multiply" opacity="0.4">
<path d="M191.291 841.205L191.286 841.67L187.094 841.338L187.104 840.871L191.291 841.205Z" fill="black"/>
</g>
<g style="mix-blend-mode:multiply" opacity="0.4">
<path d="M190.49 840.791L190.171 840.765L189.849 840.74L189.892 837.159L190.212 837.187L190.531 837.213L190.49 840.791Z" fill="black"/>
</g>
<g style="mix-blend-mode:multiply" opacity="0.4">
<path d="M188.561 840.637L188.237 840.611L187.915 840.585L187.973 837L188.292 837.028L188.614 837.054L188.561 840.637Z" fill="black"/>
</g>
<g style="mix-blend-mode:multiply" opacity="0.4">
<path d="M190.233 835.246L191.012 836.908L189.417 836.776L190.233 835.246Z" fill="black"/>
</g>
<g style="mix-blend-mode:multiply" opacity="0.4">
<path d="M188.324 835.085L189.098 836.75L187.5 836.617L188.324 835.085Z" fill="black"/>
</g>
<g style="mix-blend-mode:multiply" opacity="0.4">
<path d="M202.529 836.394C203.864 836.506 204.655 837.686 204.679 839.068L202.562 838.895L202.598 841.65C202.601 841.905 202.747 842.124 202.92 842.137C203.096 842.152 203.232 841.955 203.23 841.7V841.468L203.542 841.494V841.725C203.554 842.235 203.276 842.627 202.927 842.599C202.579 842.572 202.291 842.134 202.284 841.625L202.25 838.869L200.441 838.721C200.429 837.337 201.193 836.285 202.531 836.396L202.529 836.394Z" fill="black"/>
</g>
<path d="M185.21 847.115L184.102 847.07L79.2568 848.827L79.0814 848.831H78.9877L74.7307 848.902L75.4298 848.923L76.1024 848.94L79.3721 848.887L79.6027 848.885H79.6075L185.21 847.115Z" fill="#CA9151"/>
<path d="M158.457 846.013L164.79 846.326L171.127 846.617L183.8 847.164L196.475 847.661L202.812 847.89L209.152 848.1L202.817 847.787L196.482 847.496L183.809 846.95L171.134 846.452L164.797 846.221L158.457 846.013Z" fill="#CA9151"/>
<g style="mix-blend-mode:multiply">
<path d="M181.131 796.124V801.905C181.208 801.903 181.289 801.907 181.376 801.924C182.145 802.044 182.041 802.567 182.813 802.691C183.586 802.816 183.689 802.293 184.461 802.415C185.232 802.539 185.126 803.06 185.9 803.182C186.058 803.21 186.188 803.208 186.298 803.189C186.741 803.12 186.935 802.809 187.548 802.906C188.319 803.026 188.213 803.551 188.984 803.675C189.756 803.799 189.861 803.276 190.632 803.399C190.892 803.437 191.05 803.527 191.178 803.626V797.699L181.131 796.124Z" fill="#C1A477"/>
</g>
<g style="mix-blend-mode:multiply">
<path d="M79.9536 848.942C79.9344 848.921 79.9152 848.901 79.8695 848.893C79.7855 848.88 79.771 848.942 79.6894 848.931C79.6149 848.921 79.6149 848.873 79.5596 848.852H79.466C79.4323 848.867 79.4059 848.891 79.3506 848.882C79.3194 848.88 79.3026 848.867 79.2882 848.854C79.2618 848.833 79.2473 848.805 79.1969 848.798C79.1104 848.788 79.0984 848.848 79.0143 848.837C78.9302 848.824 78.9422 848.762 78.8581 848.753C78.7741 848.741 78.7596 848.803 78.678 848.79C78.6323 848.786 78.6155 848.764 78.5987 848.747L72.8257 848.85L75.4323 848.925L77.5873 848.987L79.9561 848.946L79.9536 848.942Z" fill="#C1A477"/>
</g>
<g style="mix-blend-mode:multiply">
<path d="M191.211 847.361V842.12C191.137 842.098 191.051 842.085 190.952 842.079C190.171 842.027 190.128 842.557 189.347 842.507C188.566 842.458 188.61 841.929 187.826 841.877C187.084 841.83 187.01 842.308 186.332 842.31C186.299 842.31 186.26 842.31 186.224 842.308C185.443 842.257 185.484 841.727 184.703 841.678C183.923 841.627 183.879 842.156 183.099 842.105C182.315 842.055 182.359 841.526 181.578 841.475C181.412 841.464 181.28 841.479 181.165 841.513V846.947L191.214 847.359L191.211 847.361Z" fill="#C1A477"/>
</g>
<g style="mix-blend-mode:multiply">
<path d="M191.211 847.361L181.167 846.949L172.011 847.166C172.21 847.206 172.184 847.343 172.388 847.378C172.6 847.416 172.631 847.271 172.842 847.309C173.054 847.348 173.022 847.491 173.234 847.526C173.258 847.53 173.279 847.532 173.303 847.532C173.457 847.532 173.5 847.423 173.688 847.457C173.76 847.47 173.803 847.496 173.837 847.526L191.211 847.361Z" fill="#C1A477"/>
</g>
<path d="M483.692 755.769L580.749 745.056L609.578 636.634L505.314 660.204L483.692 755.769Z" fill="url(#paint13_linear_717_7739)"/>
<path d="M692.702 807.195L580.75 745.056L609.578 636.634L716.726 720.2L692.702 807.195Z" fill="url(#paint14_linear_717_7739)"/>
<path d="M700.252 742.795L669.393 721.076C668.077 720.148 667.479 718.627 667.861 717.168L672.764 698.496C673.091 697.249 674.779 696.752 675.875 697.577L706.948 720.999C708.223 721.961 708.764 723.493 708.336 724.933L703.301 741.888C702.948 743.082 701.338 743.56 700.252 742.795Z" fill="url(#paint15_linear_717_7739)"/>
<path d="M692.702 807.195L580.75 745.056L483.693 755.769L620.51 807.088L692.702 807.195Z" fill="url(#paint16_linear_717_7739)"/>
<path d="M580.75 745.056C576.697 745.431 572.647 745.846 568.596 746.238L556.452 747.49C552.402 747.897 548.361 748.351 544.313 748.784L532.176 750.095L520.048 751.462C516.008 751.923 511.962 752.362 507.924 752.847L495.803 754.276C491.767 754.775 487.727 755.253 483.693 755.771C487.748 755.396 491.796 754.983 495.847 754.589L507.991 753.339C512.041 752.932 516.082 752.476 520.13 752.045L532.267 750.734L544.394 749.367C548.435 748.906 552.481 748.467 556.519 747.983L568.639 746.556C572.676 746.056 576.716 745.578 580.75 745.06V745.056Z" fill="#66340E"/>
<g style="mix-blend-mode:multiply">
<path d="M532.367 750.721L641.352 800.379L656.192 807.141H657.251L642.411 800.381L533.215 750.625L532.367 750.721Z" fill="#CA9151"/>
</g>
<g style="mix-blend-mode:multiply">
<path d="M633.542 800.698L633.754 800.795L647.651 807.128L665.489 807.154L651.743 800.889L651.625 800.835C651.325 800.895 651.015 800.945 650.489 800.945C649.902 800.945 649.643 800.882 649.367 800.818C649.076 800.75 648.773 800.677 648.105 800.677C647.44 800.679 647.072 800.75 646.717 800.818C646.381 800.885 646.061 800.947 645.475 800.947C644.889 800.947 644.629 800.885 644.353 800.82C644.062 800.752 643.76 800.679 643.094 800.679C642.429 800.679 642.059 800.752 641.703 800.82C641.367 800.887 641.05 800.949 640.463 800.949C639.877 800.949 639.618 800.887 639.342 800.822C639.048 800.754 638.748 800.681 638.08 800.681C637.412 800.681 637.047 800.754 636.692 800.822C636.355 800.889 636.038 800.951 635.452 800.951C634.866 800.951 634.604 800.889 634.328 800.825C634.116 800.775 633.9 800.724 633.542 800.698Z" fill="#957E5A"/>
<path d="M521.381 751.608L533.097 756.946L533.292 757.036C533.647 757.064 534.022 757.089 534.671 757.014C535.331 756.937 535.62 756.832 535.898 756.729C536.163 756.633 536.412 756.543 536.994 756.474C537.578 756.408 537.9 756.432 538.243 756.459C538.606 756.487 538.981 756.515 539.641 756.438C540.304 756.363 540.593 756.256 540.871 756.155C541.136 756.059 541.385 755.967 541.967 755.9C542.548 755.832 542.87 755.857 543.214 755.883C543.576 755.911 543.951 755.941 544.612 755.864C545.273 755.787 545.563 755.682 545.842 755.579C546.106 755.482 546.354 755.392 546.935 755.324C547.519 755.257 547.841 755.283 548.184 755.309C548.547 755.337 548.922 755.364 549.582 755.289C550.245 755.212 550.534 755.107 550.812 755.004C551.077 754.908 551.327 754.816 551.908 754.75C552.489 754.683 552.811 754.707 553.155 754.732C553.518 754.76 553.892 754.79 554.555 754.713C554.721 754.694 554.865 754.672 554.99 754.651L554.875 754.6L543.062 749.215H543.06L521.381 751.608Z" fill="#957E5A"/>
</g>
<g style="mix-blend-mode:multiply">
<path d="M521.382 751.608L543.061 749.214L545.538 736.834C545.067 736.639 544.721 736.328 543.921 736.431C542.67 736.594 542.807 737.442 541.555 737.603C540.303 737.764 540.166 736.915 538.915 737.076C537.663 737.237 537.8 738.085 536.548 738.248C535.297 738.409 535.16 737.56 533.908 737.721C532.654 737.882 532.793 738.73 531.539 738.891C530.288 739.054 530.151 738.205 528.899 738.366C527.647 738.527 527.784 739.375 526.533 739.536C525.279 739.699 525.142 738.85 523.888 739.011C523.804 739.022 523.724 739.034 523.652 739.054L521.382 751.608Z" fill="#927B59"/>
</g>
<g style="mix-blend-mode:multiply">
<path d="M537.643 662.102C538.078 661.765 538.251 661.318 539.106 661.161C540.348 660.936 540.538 661.776 541.78 661.551C543.02 661.326 542.828 660.486 544.067 660.263C545.307 660.038 545.499 660.878 546.739 660.653C547.979 660.428 547.786 659.588 549.026 659.363C550.266 659.141 550.458 659.98 551.697 659.755C552.937 659.53 552.745 658.691 553.985 658.468C555.224 658.243 555.416 659.083 556.656 658.858C557.896 658.633 557.703 657.793 558.943 657.57C560.075 657.364 560.332 658.046 561.309 657.996L563.498 647.051L539.303 652.519L537.643 662.102Z" fill="#927B59"/>
</g>
<g style="mix-blend-mode:multiply" opacity="0.4">
<path d="M618.715 757.67L628.887 763.414L631.921 751.974L621.997 745.786L618.715 757.668V757.67ZM628.526 762.491L619.467 757.346L622.381 746.77L631.243 752.268L628.524 762.491H628.526Z" fill="black"/>
</g>
<g style="mix-blend-mode:multiply" opacity="0.4">
<path d="M606.006 750.491L617.271 756.853L620.589 744.908L609.61 738.062L606.006 750.489V750.491ZM616.87 755.87L606.84 750.172L610.04 739.111L619.844 745.193L616.872 755.868L616.87 755.87Z" fill="black"/>
</g>
<g style="mix-blend-mode:multiply" opacity="0.4">
<path d="M591.859 742.502L604.401 749.586L608.046 737.089L595.837 729.476L591.859 742.5V742.502ZM603.955 748.536L592.786 742.191L596.317 730.601L607.222 737.366L603.957 748.536H603.955Z" fill="black"/>
</g>
<g style="mix-blend-mode:multiply" opacity="0.4">
<path d="M616.295 747.567C615.92 748.896 614.707 749.461 613.484 748.928L612.869 751.096L613.472 751.443L613.285 752.103L614.183 752.62L613.998 753.28L610.359 751.197L610.549 750.528L611.466 751.058L611.656 750.393L612.264 750.745L612.881 748.57C611.73 747.702 611.115 746.035 611.505 744.683L612.261 742.041L617.025 744.966L616.295 747.563V747.567Z" fill="black"/>
</g>
<g style="mix-blend-mode:multiply" opacity="0.4">
<path d="M603.268 746.345L603.066 747.031L594.285 742.006L594.499 741.301L603.268 746.345Z" fill="black"/>
</g>
<g style="mix-blend-mode:multiply" opacity="0.4">
<path d="M601.78 744.886L601.117 744.503L600.454 744.119L602.035 738.79L602.693 739.186L603.347 739.581L601.78 744.886Z" fill="black"/>
</g>
<g style="mix-blend-mode:multiply" opacity="0.4">
<path d="M597.759 742.564L597.077 742.169L596.39 741.773L598.019 736.371L598.696 736.78L599.371 737.187L597.759 742.564Z" fill="black"/>
</g>
<g style="mix-blend-mode:multiply" opacity="0.4">
<path d="M603.551 736.294L604.471 739.658L601.196 737.678L603.551 736.294Z" fill="black"/>
</g>
<g style="mix-blend-mode:multiply" opacity="0.4">
<path d="M599.577 733.849L600.531 737.277L597.151 735.233L599.577 733.849Z" fill="black"/>
</g>
<g style="mix-blend-mode:multiply" opacity="0.4">
<path d="M626.602 750.665C628.882 752.066 629.774 754.385 629.272 756.266L625.67 754.115L624.644 757.903C624.551 758.252 624.719 758.679 625.019 758.85C625.32 759.024 625.639 758.88 625.733 758.531L625.817 758.216L626.357 758.529L626.273 758.844C626.086 759.538 625.449 759.827 624.849 759.484C624.246 759.139 623.907 758.287 624.097 757.586L625.127 753.789L621.951 751.893C622.482 749.958 624.277 749.234 626.602 750.663V750.665Z" fill="black"/>
</g>
<path d="M-3.84231 1010.62L218.865 1022.68V842.876L-3.84231 849.261V1010.62Z" fill="url(#paint17_linear_717_7739)"/>
<path d="M317.366 1008.2L218.865 1022.68V842.876L317.366 852.531V1008.2Z" fill="url(#paint18_linear_717_7739)"/>
<g style="mix-blend-mode:multiply">
<path d="M306.973 924.308C307.06 925.514 307.894 925.508 307.939 926.774C307.987 928.071 307.11 928.114 307.156 929.412C307.204 930.713 308.079 930.672 308.131 931.973C308.177 933.269 307.3 933.312 307.348 934.608C307.394 935.911 308.271 935.868 308.316 937.171C308.364 938.467 307.49 938.51 307.538 939.809C307.564 940.541 307.855 940.846 308.112 941.21L317.366 941.068V924.415L306.971 924.308H306.973Z" fill="#C1A477"/>
</g>
<g style="mix-blend-mode:multiply">
<path d="M218.865 923.417V942.569L236.917 942.294C236.641 941.667 236.112 941.474 236.059 940.475C235.99 939.175 236.864 939.117 236.792 937.818C236.722 936.522 235.846 936.582 235.773 935.283C235.704 933.987 236.578 933.925 236.506 932.629C236.437 931.328 235.562 931.39 235.492 930.089C235.42 928.793 236.292 928.731 236.223 927.435C236.153 926.134 235.279 926.196 235.209 924.9C235.173 924.261 235.365 923.921 235.56 923.588L218.863 923.421L218.865 923.417Z" fill="#C1A477"/>
</g>
<g style="mix-blend-mode:multiply">
<path d="M195.929 923.689C196.066 924.754 196.837 924.315 196.88 925.532C196.928 926.832 196.051 926.871 196.097 928.172C196.145 929.468 197.02 929.429 197.072 930.728C197.118 932.029 196.241 932.067 196.289 933.368C196.335 934.668 197.212 934.626 197.257 935.928C197.306 937.229 196.431 937.268 196.479 938.568C196.527 939.869 197.402 939.826 197.45 941.124C197.466 941.577 197.373 941.634 197.243 941.887L218.862 942.569V923.417L195.927 923.689H195.929Z" fill="#957E5A"/>
</g>
<g style="mix-blend-mode:multiply">
<path d="M-3.84277 921.371V938.035L7.01127 938.255C7.01367 938.212 7.01367 938.167 7.01367 938.118C6.98725 937.01 6.31457 937.053 6.29055 935.945C6.26652 934.84 6.93441 934.799 6.91038 933.691C6.88636 932.583 6.21609 932.626 6.18726 931.519C6.16324 930.413 6.83347 930.368 6.80704 929.264C6.78302 928.154 6.11274 928.199 6.08632 927.092C6.05989 925.984 6.73018 925.941 6.70616 924.833C6.67973 923.725 6.01186 923.768 5.98303 922.661C5.96862 922.063 6.15839 921.776 6.32896 921.465L-3.84518 921.373L-3.84277 921.371Z" fill="#957E5A"/>
</g>
<g style="mix-blend-mode:multiply">
<path d="M218.865 932.541H317.366V933.023H218.865V932.541Z" fill="#C4AD8F"/>
</g>
<g style="mix-blend-mode:multiply" opacity="0.4">
<path d="M196.358 864.618L208.113 864.625L208.171 852.726L196.457 852.889L196.358 864.618ZM207.472 863.98L196.99 863.984L197.077 853.515L207.527 853.377L207.474 863.982L207.472 863.98Z" fill="black"/>
</g>
<g style="mix-blend-mode:multiply" opacity="0.4">
<path d="M183.417 864.612L194.797 864.618L194.9 852.91L183.559 853.069L183.417 864.612ZM194.18 863.982H184.032L184.157 853.682L194.273 853.549L194.18 863.982Z" fill="black"/>
</g>
<g style="mix-blend-mode:multiply" opacity="0.4">
<path d="M170.881 864.605L181.903 864.609L182.05 853.088L171.064 853.242L170.881 864.605ZM181.307 863.986H171.479L171.64 853.846L181.442 853.718L181.31 863.986H181.307Z" fill="black"/>
</g>
<g style="mix-blend-mode:multiply" opacity="0.4">
<path d="M191.603 857.357C191.591 858.642 190.638 859.705 189.422 859.868L189.4 861.936H190.015L190.008 862.563H190.933L190.926 863.193L187.236 863.198L187.243 862.57H188.161L188.168 861.94H188.781L188.802 859.872C187.594 859.724 186.674 858.677 186.688 857.399L186.717 854.897L191.625 854.839L191.601 857.357H191.603Z" fill="black"/>
</g>
<g style="mix-blend-mode:multiply" opacity="0.4">
<path d="M180.271 862.584L180.262 863.206L172.521 863.217L172.531 862.599L180.271 862.584Z" fill="black"/>
</g>
<g style="mix-blend-mode:multiply" opacity="0.4">
<path d="M178.778 862.122H178.18L177.582 862.124L177.649 857.322L178.245 857.316L178.843 857.312L178.778 862.122Z" fill="black"/>
</g>
<g style="mix-blend-mode:multiply" opacity="0.4">
<path d="M175.2 862.13L174.606 862.132H174.013L174.085 857.352L174.676 857.348L175.27 857.341L175.2 862.13Z" fill="black"/>
</g>
<g style="mix-blend-mode:multiply" opacity="0.4">
<path d="M178.28 854.687L179.745 856.838L176.761 856.866L178.28 854.687Z" fill="black"/>
</g>
<g style="mix-blend-mode:multiply" opacity="0.4">
<path d="M174.717 854.73L176.166 856.873L173.209 856.898L174.717 854.73Z" fill="black"/>
</g>
<g style="mix-blend-mode:multiply" opacity="0.4">
<path d="M202.258 854.556C204.978 854.524 206.549 856.082 206.537 858.032L202.234 858.064L202.208 861.899C202.208 862.253 202.489 862.538 202.84 862.538C203.19 862.538 203.479 862.249 203.481 861.895V861.574H204.12V861.895C204.113 862.602 203.539 863.178 202.837 863.181C202.136 863.181 201.571 862.609 201.576 861.904L201.602 858.072L197.977 858.1C197.992 856.172 199.556 854.593 202.258 854.56V854.556Z" fill="black"/>
</g>
<g style="mix-blend-mode:multiply">
<path opacity="0.02" d="M470.609 950.6C486.516 951.32 530.191 963.527 508.735 964.275C488.781 964.971 463.472 966.677 440.399 965.055C414.91 963.261 375.236 963.169 389.586 959.385C415.332 952.582 427.988 948.68 470.609 950.6Z" fill="#FEFEFE"/>
<path opacity="0.03" d="M470.597 950.653C486.517 951.38 529.655 963.439 508.653 964.217C489.127 964.947 463.596 966.625 440.807 965.027C415.68 963.261 375.625 963.145 389.713 959.402C414.972 952.652 428.483 948.753 470.597 950.653Z" fill="#FEFDFD"/>
<path opacity="0.05" d="M470.589 950.705C486.526 951.436 529.126 963.349 508.573 964.157C489.472 964.92 463.72 966.57 441.219 964.997C416.455 963.259 376.018 963.122 389.844 959.415C414.615 952.721 428.979 948.822 470.591 950.703L470.589 950.705Z" fill="#FDFDFC"/>
<path opacity="0.06" d="M470.576 950.758C486.528 951.496 528.59 963.259 508.489 964.101C489.815 964.896 463.84 966.52 441.625 964.971C417.224 963.261 376.405 963.103 389.966 959.434C414.25 952.796 429.469 948.896 470.574 950.758H470.576Z" fill="#FDFCFB"/>
<path opacity="0.08" d="M470.567 950.81C486.533 951.551 528.056 963.169 508.41 964.041C490.163 964.868 463.967 966.466 442.038 964.941C418 963.259 376.799 963.079 390.098 959.449C413.894 952.867 429.966 948.967 470.567 950.81Z" fill="#FCFBFA"/>
</g>
<path d="M506.552 962.655L465.415 963.769L465.569 920.964L506.813 921.215L506.552 962.655Z" fill="url(#paint19_linear_717_7739)"/>
<path d="M437.797 919.108L396.346 919.648L465.569 920.964L506.813 921.215L437.797 919.108Z" fill="url(#paint20_linear_717_7739)"/>
<path d="M503.299 933.806L488.008 933.598C487.486 933.583 487.073 933.201 487.076 932.736L487.119 924.228C487.121 923.737 487.582 923.349 488.13 923.375L503.453 923.889C503.967 923.913 504.366 924.294 504.363 924.753L504.289 932.957C504.284 933.437 503.837 933.821 503.299 933.808V933.806Z" fill="url(#paint21_linear_717_7739)"/>
<path d="M397.016 961.232L465.415 963.769L465.568 920.964L396.346 919.648L397.016 961.232Z" fill="url(#paint22_linear_717_7739)"/>
<g style="mix-blend-mode:multiply">
<path d="M420.507 925.886C420.605 925.914 420.723 925.931 420.853 925.942C421.905 926.01 421.963 925.297 423.012 925.367C424.062 925.432 424.005 926.145 425.059 926.214C426.059 926.276 426.16 925.635 427.07 925.631C427.118 925.631 427.169 925.631 427.219 925.635C428.269 925.704 428.214 926.417 429.266 926.482C430.316 926.552 430.373 925.839 431.423 925.907C432.478 925.974 432.42 926.685 433.47 926.754C433.693 926.769 433.871 926.747 434.027 926.702L434.032 920.364L420.516 920.107L420.507 925.886Z" fill="#C1A477"/>
</g>
<path d="M448.058 701.18L383.565 687.238L377.934 613.241L443.258 636.44L448.058 701.18Z" fill="url(#paint23_linear_717_7739)"/>
<path d="M319.75 713.754L383.565 687.238L377.934 613.241L315.164 654.27L319.75 713.754Z" fill="url(#paint24_linear_717_7739)"/>
<path d="M319.75 713.754L383.565 687.237L448.058 701.18L368.548 718.782L319.75 713.754Z" fill="url(#paint25_linear_717_7739)"/>
<path d="M383.565 687.237C386.265 687.771 388.958 688.332 391.656 688.879L399.735 690.563C402.431 691.118 405.117 691.705 407.805 692.275L415.872 694L423.927 695.761C426.611 696.353 429.302 696.927 431.98 697.533L440.023 699.333C442.7 699.948 445.381 700.55 448.055 701.178C445.354 700.645 442.661 700.083 439.963 699.537L431.884 697.853C429.189 697.298 426.505 696.71 423.814 696.138L415.747 694.413L407.692 692.652C405.008 692.063 402.32 691.487 399.639 690.88L391.596 689.08C388.92 688.465 386.238 687.863 383.565 687.235V687.237Z" fill="#66340E"/>
<g style="mix-blend-mode:multiply">
<path d="M415.68 694.403L355.151 712.873L344.427 716.297L343.711 716.222L354.435 712.798L415.118 694.279L415.68 694.403Z" fill="#CA9151"/>
</g>
<g style="mix-blend-mode:multiply">
<path d="M360.396 713.636L360.242 713.685L350.2 716.893L338.142 715.65L348.076 712.477L348.16 712.449C348.357 712.509 348.561 712.564 348.917 712.601C349.313 712.642 349.496 712.62 349.688 712.597C349.892 712.571 350.104 712.545 350.555 712.592C351.005 712.642 351.245 712.714 351.48 712.783C351.701 712.852 351.91 712.914 352.307 712.957C352.703 712.997 352.886 712.976 353.078 712.952C353.282 712.927 353.493 712.901 353.943 712.948C354.394 712.995 354.635 713.07 354.868 713.141C355.089 713.209 355.295 713.272 355.692 713.314C356.088 713.355 356.271 713.334 356.463 713.31C356.667 713.284 356.878 713.259 357.33 713.306C357.779 713.353 358.019 713.428 358.255 713.497C358.476 713.565 358.683 713.627 359.079 713.67C359.475 713.713 359.658 713.689 359.853 713.666C360.002 713.649 360.153 713.629 360.396 713.638V713.636Z" fill="#927B59"/>
<path d="M423.015 695.766L414.549 698.468L414.407 698.513C414.164 698.506 413.907 698.496 413.477 698.401C413.037 698.303 412.855 698.213 412.677 698.127C412.509 698.046 412.348 697.969 411.964 697.881C411.577 697.795 411.356 697.789 411.12 697.782C410.873 697.776 410.616 697.767 410.179 697.669C409.739 697.572 409.554 697.48 409.376 697.394C409.208 697.313 409.047 697.234 408.663 697.148C408.276 697.062 408.057 697.056 407.822 697.049C407.574 697.043 407.317 697.036 406.88 696.938C406.44 696.839 406.255 696.749 406.078 696.661C405.91 696.58 405.751 696.503 405.364 696.415C404.977 696.329 404.756 696.325 404.521 696.316C404.274 696.31 404.016 696.301 403.579 696.205C403.14 696.106 402.955 696.017 402.777 695.929C402.609 695.847 402.448 695.768 402.063 695.682C401.677 695.597 401.458 695.59 401.222 695.584C400.975 695.577 400.718 695.571 400.278 695.472C400.168 695.449 400.074 695.423 399.99 695.399L400.074 695.374L408.61 692.646L423.015 695.762V695.766Z" fill="#927B59"/>
</g>
<g style="mix-blend-mode:multiply">
<path d="M423.015 695.766L408.61 692.652L408.206 684.287C408.545 684.191 408.809 684.011 409.34 684.135C410.169 684.332 409.989 684.883 410.82 685.078C411.649 685.273 411.829 684.72 412.658 684.915C413.487 685.11 413.307 685.661 414.138 685.858C414.967 686.053 415.147 685.5 415.976 685.695C416.807 685.89 416.624 686.441 417.456 686.636C418.284 686.833 418.464 686.28 419.293 686.475C420.122 686.67 419.942 687.221 420.773 687.416C421.604 687.613 421.785 687.06 422.616 687.255C422.671 687.268 422.724 687.283 422.77 687.3L423.015 695.764V695.766Z" fill="#C1A477"/>
</g>
<g style="mix-blend-mode:multiply">
<path d="M421.214 635.411C420.955 635.159 420.885 634.85 420.323 634.685C419.506 634.449 419.292 634.991 418.476 634.754C417.661 634.518 417.877 633.976 417.063 633.74C416.249 633.504 416.032 634.047 415.218 633.809C414.404 633.573 414.62 633.031 413.805 632.793C412.991 632.557 412.775 633.099 411.96 632.864C411.146 632.628 411.362 632.086 410.548 631.85C409.733 631.615 409.517 632.157 408.703 631.919C407.888 631.683 408.104 631.141 407.29 630.905C406.545 630.689 406.303 631.122 405.647 631.021L405.291 623.626L421.08 628.953L421.217 635.409L421.214 635.411Z" fill="#C1A477"/>
</g>
<g style="mix-blend-mode:multiply" opacity="0.4">
<path d="M370.093 687.863L378.509 684.139L377.445 670.242L369.039 674.261L370.093 687.863ZM377.987 683.597L370.482 686.931L369.543 674.786L377.041 671.217L377.99 683.597H377.987Z" fill="black"/>
</g>
<g style="mix-blend-mode:multiply" opacity="0.4">
<path d="M360.955 691.904L368.983 688.354L367.931 674.791L359.914 678.624L360.957 691.904H360.955ZM368.484 687.818L361.325 690.998L360.395 679.14L367.547 675.735L368.486 687.818H368.484Z" fill="black"/>
</g>
<g style="mix-blend-mode:multiply" opacity="0.4">
<path d="M352.228 695.764L359.895 692.374L358.854 679.13L351.2 682.79L352.231 695.764H352.228ZM359.414 691.847L352.579 694.883L351.659 683.297L358.487 680.047L359.414 691.845V691.847Z" fill="black"/>
</g>
<g style="mix-blend-mode:multiply" opacity="0.4">
<path d="M366.017 681C366.132 682.487 365.56 684.015 364.717 684.587L364.902 686.97L365.337 686.775L365.394 687.501L366.048 687.208L366.105 687.934L363.504 689.098L363.446 688.376L364.092 688.084L364.035 687.36L364.467 687.165L364.282 684.784C363.415 684.997 362.663 684.084 362.547 682.61L362.322 679.719L365.788 678.082L366.017 680.998V681Z" fill="black"/>
</g>
<g style="mix-blend-mode:multiply" opacity="0.4">
<path d="M358.553 690.57L358.61 691.281L353.224 693.687L353.169 692.985L358.553 690.57Z" fill="black"/>
</g>
<g style="mix-blend-mode:multiply" opacity="0.4">
<path d="M357.464 690.505L357.046 690.694L356.63 690.88L356.195 685.378L356.611 685.185L357.029 684.992L357.464 690.505Z" fill="black"/>
</g>
<g style="mix-blend-mode:multiply" opacity="0.4">
<path d="M354.973 691.626L354.562 691.813L354.151 691.997L353.716 686.531L354.127 686.34L354.54 686.149L354.973 691.626Z" fill="black"/>
</g>
<g style="mix-blend-mode:multiply" opacity="0.4">
<path d="M356.374 682.162L357.613 684.165L355.53 685.136L356.374 682.162Z" fill="black"/>
</g>
<g style="mix-blend-mode:multiply" opacity="0.4">
<path d="M353.891 683.335L355.116 685.328L353.06 686.288L353.891 683.335Z" fill="black"/>
</g>
<g style="mix-blend-mode:multiply" opacity="0.4">
<path d="M373.355 674.32C375.311 673.396 376.589 674.703 376.762 676.981L373.67 678.41L374.013 682.867C374.045 683.276 374.275 683.518 374.525 683.405C374.777 683.291 374.955 682.867 374.924 682.455L374.895 682.083L375.352 681.877L375.38 682.25C375.443 683.07 375.085 683.923 374.58 684.148C374.078 684.373 373.619 683.889 373.557 683.07L373.213 678.618L370.621 679.816C370.448 677.574 371.416 675.235 373.35 674.32H373.355Z" fill="black"/>
</g>
</g>
<defs>
<linearGradient id="paint0_linear_717_7739" x1="352.252" y1="781.239" x2="415.466" y2="797.641" gradientUnits="userSpaceOnUse">
<stop stop-color="#F4E7D1"/>
<stop offset="1" stop-color="#E5CDA7"/>
</linearGradient>
<linearGradient id="paint1_linear_717_7739" x1="301.058" y1="798.602" x2="359.562" y2="775.064" gradientUnits="userSpaceOnUse">
<stop stop-color="#AF8E61"/>
<stop offset="1" stop-color="#CEBA95"/>
</linearGradient>
<linearGradient id="paint2_linear_717_7739" x1="304.893" y1="821.709" x2="408.266" y2="821.707" gradientUnits="userSpaceOnUse">
<stop stop-color="#926D33"/>
<stop offset="1" stop-color="#7B5628"/>
</linearGradient>
<linearGradient id="paint3_linear_717_7739" x1="135.79" y1="698.303" x2="85.5796" y2="711.31" gradientUnits="userSpaceOnUse">
<stop stop-color="#CEBA95"/>
<stop offset="1" stop-color="#AF8E61"/>
</linearGradient>
<linearGradient id="paint4_linear_717_7739" x1="183.226" y1="714.586" x2="131.229" y2="693.642" gradientUnits="userSpaceOnUse">
<stop stop-color="#DBBB89"/>
<stop offset="1" stop-color="#F2E3C8"/>
</linearGradient>
<linearGradient id="paint5_linear_717_7739" x1="178.257" y1="699.753" x2="162.011" y2="703.962" gradientUnits="userSpaceOnUse">
<stop stop-color="#FDF8EE"/>
<stop offset="1" stop-color="white"/>
</linearGradient>
<linearGradient id="paint6_linear_717_7739" x1="131.9" y1="745.355" x2="138.687" y2="723.245" gradientUnits="userSpaceOnUse">
<stop stop-color="#926D33"/>
<stop offset="1" stop-color="#7B5628"/>
</linearGradient>
<linearGradient id="paint7_linear_717_7739" x1="358.871" y1="924.964" x2="480.677" y2="924.964" gradientUnits="userSpaceOnUse">
<stop stop-color="#F2E4CD"/>
<stop offset="1" stop-color="#E8D2AF"/>
</linearGradient>
<linearGradient id="paint8_linear_717_7739" x1="260.369" y1="924.964" x2="358.87" y2="924.964" gradientUnits="userSpaceOnUse">
<stop stop-color="#B5966B"/>
<stop offset="1" stop-color="#C6AE88"/>
</linearGradient>
<linearGradient id="paint9_linear_717_7739" x1="157.945" y1="839.821" x2="229.926" y2="839.821" gradientUnits="userSpaceOnUse">
<stop stop-color="#A9895B"/>
<stop offset="1" stop-color="#BDA478"/>
</linearGradient>
<linearGradient id="paint10_linear_717_7739" x1="229.927" y1="839.845" x2="261.764" y2="839.845" gradientUnits="userSpaceOnUse">
<stop stop-color="#FBF3E5"/>
<stop offset="1" stop-color="#E3C9A0"/>
</linearGradient>
<linearGradient id="paint11_linear_717_7739" x1="43.8326" y1="820.299" x2="158.456" y2="820.299" gradientUnits="userSpaceOnUse">
<stop stop-color="#A9895B"/>
<stop offset="1" stop-color="#BDA478"/>
</linearGradient>
<linearGradient id="paint12_linear_717_7739" x1="158.456" y1="820.335" x2="209.151" y2="820.335" gradientUnits="userSpaceOnUse">
<stop stop-color="#FBF3E5"/>
<stop offset="1" stop-color="#E3C9A0"/>
</linearGradient>
<linearGradient id="paint13_linear_717_7739" x1="609.578" y1="696.202" x2="483.692" y2="696.202" gradientUnits="userSpaceOnUse">
<stop stop-color="#CEBA95"/>
<stop offset="1" stop-color="#AF8E61"/>
</linearGradient>
<linearGradient id="paint14_linear_717_7739" x1="711.13" y1="757.428" x2="603.881" y2="680.019" gradientUnits="userSpaceOnUse">
<stop stop-color="#E3C9A0"/>
<stop offset="1" stop-color="#FDF5E8"/>
</linearGradient>
<linearGradient id="paint15_linear_717_7739" x1="708.48" y1="720.168" x2="667.75" y2="720.168" gradientUnits="userSpaceOnUse">
<stop stop-color="#FDF8EE"/>
<stop offset="1" stop-color="white"/>
</linearGradient>
<linearGradient id="paint16_linear_717_7739" x1="571.806" y1="804.878" x2="599.474" y2="755.235" gradientUnits="userSpaceOnUse">
<stop stop-color="#926D33"/>
<stop offset="1" stop-color="#7B5628"/>
</linearGradient>
<linearGradient id="paint17_linear_717_7739" x1="218.865" y1="932.78" x2="-3.84232" y2="932.78" gradientUnits="userSpaceOnUse">
<stop stop-color="#CEBA95"/>
<stop offset="1" stop-color="#AF8E61"/>
</linearGradient>
<linearGradient id="paint18_linear_717_7739" x1="317.366" y1="932.78" x2="218.865" y2="932.78" gradientUnits="userSpaceOnUse">
<stop stop-color="#E8D1AE"/>
<stop offset="1" stop-color="#F8EDD9"/>
</linearGradient>
<linearGradient id="paint19_linear_717_7739" x1="507.191" y1="941.726" x2="464.977" y2="942.552" gradientUnits="userSpaceOnUse">
<stop stop-color="#E7D1AD"/>
<stop offset="1" stop-color="#F4E6D0"/>
</linearGradient>
<linearGradient id="paint20_linear_717_7739" x1="506.758" y1="919.58" x2="396.362" y2="921.741" gradientUnits="userSpaceOnUse">
<stop stop-color="#F4E6D0"/>
<stop offset="1" stop-color="#E7D1AD"/>
</linearGradient>
<linearGradient id="paint21_linear_717_7739" x1="504.414" y1="928.466" x2="486.977" y2="928.807" gradientUnits="userSpaceOnUse">
<stop stop-color="#FDF8EE"/>
<stop offset="1" stop-color="white"/>
</linearGradient>
<linearGradient id="paint22_linear_717_7739" x1="465.939" y1="941.171" x2="396.619" y2="942.527" gradientUnits="userSpaceOnUse">
<stop stop-color="#CEBA95"/>
<stop offset="1" stop-color="#B89B70"/>
</linearGradient>
<linearGradient id="paint23_linear_717_7739" x1="372.285" y1="652.585" x2="453.362" y2="664.23" gradientUnits="userSpaceOnUse">
<stop stop-color="#F4E7D1"/>
<stop offset="1" stop-color="#E5CDA7"/>
</linearGradient>
<linearGradient id="paint24_linear_717_7739" x1="311.113" y1="679.851" x2="379.96" y2="643.078" gradientUnits="userSpaceOnUse">
<stop stop-color="#AF8E61"/>
<stop offset="1" stop-color="#CEBA95"/>
</linearGradient>
<linearGradient id="paint25_linear_717_7739" x1="319.108" y1="708.13" x2="447.209" y2="693.716" gradientUnits="userSpaceOnUse">
<stop stop-color="#926D33"/>
<stop offset="1" stop-color="#7B5628"/>
</linearGradient>
<clipPath id="clip0_717_7739">
<rect width="1728" height="949" fill="white"/>
</clipPath>
</defs>
</svg>
