<svg width="601" height="122" viewBox="0 0 601 122" fill="none" xmlns="http://www.w3.org/2000/svg">
<path fill-rule="evenodd" clip-rule="evenodd" d="M1.69961 11.8C4.49961 5.09998 11.4996 0.299977 18.7996 0.299977C73.8996 0.299977 129 0.299977 184.2 0.299977C189 0.199977 193.8 2 197.3 5.2C201.3 8.8 203.6 14.2 203.5 19.6C203.5 40.7 203.5 61.8 203.5 83C203.4 92.5 195.1 101.1 185.6 101.3C165.5 101.4 145.4 101.3 125.3 101.3C128 108 130.7 114.6 133.4 121.3C121.4 114.7 109.6 107.9 97.4996 101.4C71.0996 101.2 44.5996 101.4 18.0996 101.3C8.59961 101 0.29961 92.5 0.19961 83C0.0996098 62.3 0.199609 41.6 0.0996094 21C0.0996094 17.9 0.39961 14.7 1.69961 11.8Z" fill="#945C87"/>
<path fill-rule="evenodd" clip-rule="evenodd" d="M82.4999 13.3C85.4999 10.1 91.2999 11.1 93.5999 14.8C94.7999 16.7 94.8999 19.3 93.8999 21.3C89.6999 29.7 87.8999 39 86.2999 48.1C84.3999 60 82.7999 72.1 83.3999 84.2C83.5999 87.3 82.0999 91 78.7999 91.8C75.6999 92.5 72.7999 90.4 70.7999 88.2C61.7999 78.5 56.6999 66 52.9999 53.5C49.2999 60.8 45.5999 68.2 41.9999 75.5C39.4999 80.5 36.7999 85.6 32.7999 89.6C31.0999 91.3 28.1999 92.8 25.9999 91.1C22.6999 88.2 21.8999 83.6 20.4999 79.7C15.1999 61.4 12.1999 42.5 9.09988 23.7C8.39988 20.6 9.69987 16.8 12.7999 15.6C15.2999 14.7 18.5999 14.5 20.6999 16.4C22.1999 17.7 22.5999 19.8 22.8999 21.7C25.0999 36.3 27.5999 50.8 31.1999 65.1C37.1999 53.7 43.1999 42.3 49.1999 30.8C50.0999 29.1 51.1999 27.4 52.7999 26.4C54.9999 25 58.1999 25.1 60.0999 27.1C61.5999 28.7 62.1999 31 62.5999 33.1C64.3999 42.5 66.7999 51.9 70.2999 60.8C71.7999 47.3 73.6999 33.6 78.5999 20.9C79.6999 18.2 80.6999 15.5 82.4999 13.3ZM116.4 20.6C122.9 19.8 129.9 22 134.3 26.9C137.9 31 139.9 36.3 140.6 41.6C141.7 50.7 140 60.3 135.6 68.4C133.1 73 129.9 77.5 125.3 80.2C118.6 84.3 109.6 83.8 103.1 79.5C97.8999 75.9 94.9999 69.9 93.7999 63.9C91.3999 50.2 95.4999 35 105.8 25.5C108.8 22.8 112.5 21.1 116.4 20.6ZM117.7 34.6C114.6 35.6 112.6 38.5 110.9 41.1C106.7 47.9 105.5 56.8 108.9 64.1C109.8 66 111.2 68.1 113.5 68.5C115.9 68.9 118.1 67.5 119.8 66C123.6 62.7 125.5 57.8 126.5 52.9C127.5 47.4 127 41.3 123.8 36.5C122.5 34.7 119.9 33.9 117.7 34.6ZM168.3 20.6C174.6 19.8 181.5 21.8 185.9 26.5C189.9 30.8 192 36.5 192.6 42.3C193.5 51.1 191.9 60.3 187.7 68.1C185.2 72.8 181.9 77.4 177.1 80.2C170.7 84.1 162.1 83.7 155.7 79.9C151.4 77.3 148.5 72.9 146.8 68.2C142.3 53.9 146.1 37.1 156.5 26.3C159.9 23.3 164 21.1 168.3 20.6ZM169.7 34.6C166.3 35.8 164.3 39.1 162.5 42C158.7 48.7 157.7 57.4 161.2 64.5C162.1 66.5 163.8 68.4 166.1 68.5C168.6 68.6 170.8 67 172.6 65.3C176.5 61.5 178.2 56.1 178.8 50.8C179.4 45.9 178.6 40.6 175.7 36.4C174.5 34.7 171.9 33.9 169.7 34.6Z" fill="white"/>
<path fill-rule="evenodd" clip-rule="evenodd" d="M237.699 22.5C243.199 21.3 248.999 21.4 254.499 22.7C254.499 27.2 254.499 31.7 254.499 36.2C249.999 35.1 244.899 34.1 240.599 36.2C235.399 38.8 232.499 44.7 232.499 50.3C232.199 55.9 234.099 62.2 239.099 65.4C243.699 68.4 249.599 67.8 254.599 66.4C254.599 70.9 254.599 75.4 254.599 79.9C247.899 81.8 240.599 81.6 234.099 79.2C226.299 76.3 220.099 69.5 217.699 61.5C215.899 55.4 215.699 48.9 217.099 42.7C219.399 32.8 227.799 24.7 237.699 22.5ZM278.299 21.8C285.099 21 292.499 22.1 297.999 26.4C303.299 30.5 305.899 37.2 306.899 43.6C307.799 50.7 307.599 58.1 305.399 64.9C303.499 70.7 299.599 76.1 293.999 78.8C288.299 81.5 281.599 81.7 275.499 80.3C269.899 79 264.899 75.3 262.099 70.2C258.199 63.4 257.499 55.3 257.799 47.6C258.099 41 259.799 34.1 264.199 29C267.799 24.9 272.999 22.4 278.299 21.8ZM280.399 34.7C277.499 35.4 275.799 38.3 275.099 41C273.699 46.4 273.899 52 274.299 57.5C274.699 60.5 274.999 63.7 277.099 66.1C279.899 69.3 285.599 68.9 288.099 65.6C289.799 63.5 290.299 60.8 290.599 58.2C291.199 53.6 291.299 48.9 290.599 44.3C290.099 41.5 289.299 38.6 287.299 36.5C285.499 34.7 282.799 34.1 280.399 34.7ZM547.099 22.7C552.899 21.2 558.999 21.4 564.799 22.6C564.899 27.1 564.799 31.6 564.899 36.2C560.499 35.1 555.599 34.1 551.299 36C546.299 38.3 543.299 43.6 542.899 48.9C542.299 54.9 543.899 61.7 549.199 65.2C553.799 68.4 559.799 67.8 564.899 66.3C564.799 70.8 564.999 75.4 564.799 79.9C557.699 81.7 549.899 81.5 543.199 78.6C535.799 75.4 529.999 68.6 527.899 60.8C526.299 54.8 526.099 48.4 527.599 42.3C529.799 32.9 537.699 25.2 547.099 22.7ZM315.799 23.1C322.199 23.1 328.699 23.1 335.099 23.1C337.399 33.5 339.599 44 341.599 54.5C343.399 43.9 345.899 33.5 348.399 23.1C354.999 23.1 361.599 23.1 368.199 23.1C370.799 42 373.299 60.9 375.799 79.7C370.799 79.7 365.699 79.7 360.699 79.7C359.299 66.8 358.099 53.8 356.599 40.9C353.499 53.8 350.299 66.8 347.199 79.7C343.799 79.7 340.299 79.7 336.899 79.7C333.599 66.8 330.399 53.8 326.999 40.8C325.699 53.7 324.399 66.7 323.099 79.7C318.299 79.7 313.499 79.7 308.599 79.7C310.999 60.9 313.399 42 315.799 23.1ZM384.999 23.1C391.399 23.1 397.899 23.1 404.299 23.1C406.599 33.5 408.799 44 410.799 54.5C412.699 44 415.099 33.5 417.599 23.1H437.299C439.899 42 442.399 60.9 444.899 79.7C439.899 79.7 434.799 79.7 429.799 79.7C428.399 66.8 427.099 53.8 425.699 40.9C422.599 53.8 419.499 66.8 416.299 79.7C412.899 79.7 409.399 79.7 405.999 79.7C402.699 66.7 399.399 53.8 396.099 40.8C394.799 53.8 393.499 66.7 392.199 79.7C387.399 79.7 382.599 79.7 377.699 79.7C380.199 60.9 382.599 42 384.999 23.1ZM449.299 23.3C459.599 23.1 469.999 23.3 480.299 23.2C480.299 27.2 480.299 31.2 480.299 35.3C475.099 35.4 469.899 35.3 464.699 35.3C464.699 38.8 464.699 42.2 464.699 45.7C469.199 45.7 473.699 45.7 478.199 45.7C478.199 49.6 478.199 53.5 478.199 57.4C473.699 57.4 469.199 57.4 464.699 57.4C464.699 60.8 464.699 64.3 464.699 67.8C469.899 67.8 475.199 67.8 480.399 67.8C480.399 71.8 480.399 75.8 480.399 79.9C470.099 79.9 459.699 79.9 449.399 79.9C449.299 61 449.499 42.2 449.299 23.3ZM484.699 23.1C491.199 23.1 497.599 23 504.099 23.1C510.199 23.3 516.699 24.8 521.199 29.1C525.299 32.9 526.699 39.2 525.099 44.5C523.799 48.8 520.599 52.3 516.599 54.2C520.599 62.7 524.699 71.2 528.799 79.7C523.399 79.7 517.999 79.7 512.699 79.7C508.499 71 504.399 62.3 500.099 53.7C499.999 62.4 500.099 71.1 500.099 79.7C494.999 79.7 489.899 79.7 484.799 79.7C484.699 60.9 484.699 42 484.699 23.1ZM499.999 34C499.999 38.5 499.999 43 499.999 47.5C502.799 47.3 505.799 47.2 508.099 45.5C510.799 43.5 510.499 39.4 508.799 36.8C506.699 34.3 502.999 34.3 499.999 34ZM569.199 23.2C579.499 23.2 589.799 23.2 600.099 23.2C600.099 27.2 600.099 31.3 600.099 35.3C594.899 35.3 589.599 35.3 584.399 35.3C584.399 38.8 584.399 42.2 584.399 45.7C588.899 45.7 593.399 45.7 597.899 45.7C597.899 49.6 597.899 53.5 597.899 57.4H584.399C584.399 60.9 584.399 64.3 584.399 67.8C589.699 67.8 594.899 67.8 600.199 67.8C600.199 71.8 600.199 75.8 600.199 79.9C589.899 79.9 579.499 79.9 569.199 79.9C569.099 60.9 569.199 42 569.199 23.2Z" fill="black"/>
</svg>
