<svg width="50" height="58" viewBox="0 0 50 58" fill="none" xmlns="http://www.w3.org/2000/svg">
<path opacity="0.4" d="M36.6917 4.73804H12.665C5.66667 4.73804 0 10.5168 0 17.5893V44.643C0 51.7155 5.695 57.4943 12.665 57.4943H36.6633C43.6617 57.4943 49.3283 51.7155 49.3283 44.643V17.5893C49.3567 10.488 43.6617 4.73804 36.6917 4.73804Z" fill="white"/>
<path d="M31.3367 0H18.02C15.0734 0 12.665 2.415 12.665 5.405V8.1075C12.665 11.0975 15.045 13.5125 17.9917 13.5125H31.3367C34.2834 13.5125 36.6634 11.0975 36.6634 8.1075V5.405C36.6917 2.415 34.2834 0 31.3367 0ZM21.3067 42.9813C20.7684 42.9813 20.23 42.78 19.805 42.3488L15.555 38.0363C15.1598 37.6305 14.9382 37.083 14.9382 36.5125C14.9382 35.942 15.1598 35.3945 15.555 34.9888C16.3767 34.155 17.7367 34.155 18.5584 34.9888L21.3067 37.7775L31.1384 27.8013C31.96 26.9675 33.32 26.9675 34.1417 27.8013C34.9634 28.635 34.9634 30.015 34.1417 30.8488L22.8084 42.3488C22.4117 42.78 21.845 42.9813 21.3067 42.9813Z" fill="white"/>
</svg>
