<svg width="68" height="68" viewBox="0 0 68 68" fill="none" xmlns="http://www.w3.org/2000/svg">
<path opacity="0.4" d="M56.1918 11.84L35.8542 0.873443C33.7202 -0.291148 31.1336 -0.291148 28.9673 0.873443L8.62972 11.84C7.14239 12.6488 6.23707 14.2339 6.23707 15.9808C6.23707 17.7277 7.14239 19.3128 8.62972 20.1215L28.9673 31.0881C30.0343 31.6704 31.2306 31.9616 32.3946 31.9616C33.5586 31.9616 34.7549 31.6704 35.8219 31.0881L56.1595 20.1215C57.6468 19.3128 58.5521 17.7277 58.5521 15.9808C58.6168 14.2339 57.6791 12.6488 56.1918 11.84ZM25.6402 34.8989L6.7253 25.4204C5.2703 24.6764 3.58898 24.7734 2.19865 25.6145C0.808329 26.4556 0 27.9437 0 29.5612V47.4506C0 50.5562 1.71366 53.3383 4.49431 54.7293L23.4092 64.1754C24.0559 64.4989 24.7672 64.6607 25.4785 64.6607C26.3192 64.6607 27.1599 64.4342 27.9035 63.949C29.2938 63.1079 30.1022 61.6198 30.1022 60.0023V42.1129C30.1345 39.072 28.4208 36.29 25.6402 34.8989ZM64.8636 29.6V44.4486C64.8312 44.4162 64.7989 44.3515 64.7665 44.3192C64.7665 44.2868 64.7375 44.2545 64.7051 44.2221C64.5758 44.028 64.4141 43.8339 64.2525 43.6722C64.2201 43.6398 64.1878 43.5751 64.1555 43.5428C61.5365 40.6313 57.6888 38.8197 53.4532 38.8197C49.3792 38.8197 45.6609 40.5019 43.0096 43.2193C40.3875 45.9288 38.9188 49.5506 38.9128 53.322C38.9068 57.0934 40.3639 60.72 42.9772 63.4379L41.4576 64.2143C40.7468 64.5675 39.9573 64.7323 39.1647 64.6926C38.3721 64.6529 37.6029 64.4103 36.9309 63.9878C35.5729 63.1467 34.7323 61.6586 34.7323 60.0411V42.1841C34.7323 39.0785 36.4459 36.2964 39.2266 34.9054L58.1415 25.4593C59.5965 24.7152 61.2778 24.7799 62.6681 25.6534C64.0261 26.4944 64.8636 27.9825 64.8636 29.6Z" fill="white"/>
<path d="M64.7014 44.2228C63.3437 42.5485 61.6282 41.1999 59.681 40.2762C57.7338 39.3525 55.6044 38.8771 53.4495 38.8851C50.0222 38.8851 46.8535 40.082 44.3639 42.0877C42.6517 43.4416 41.2699 45.1675 40.3232 47.1348C39.3765 49.102 38.8896 51.2591 38.8996 53.4425C38.9047 55.5996 39.3888 57.7287 40.3171 59.6756C41.2453 61.6226 42.5945 63.3388 44.2669 64.7002H44.2992C46.7889 66.7706 49.9898 67.9999 53.4495 67.9999C57.1355 67.9999 60.4658 66.6412 63.0201 64.3767C64.5801 63.0137 65.8312 61.3332 66.6899 59.4476C67.5486 57.5619 67.9951 55.5146 67.9994 53.4425C67.9994 49.9487 66.7707 46.7137 64.7014 44.2228ZM60.7568 51.6309L52.9968 58.8126C52.5442 59.2331 51.9298 59.4595 51.3478 59.4595C50.7335 59.4595 50.1192 59.2331 49.6342 58.7479L46.0452 55.157C45.5942 54.7005 45.3413 54.0844 45.3413 53.4425C45.3413 52.8006 45.5942 52.1845 46.0452 51.728C46.9829 50.7898 48.5348 50.7898 49.4725 51.728L51.4125 53.6689L57.4588 48.0724C58.4288 47.1666 59.9808 47.2313 60.8861 48.2018C61.8238 49.2047 61.7591 50.7251 60.7568 51.6309Z" fill="white"/>
</svg>
