<svg width="57" height="57" viewBox="0 0 57 57" fill="none" xmlns="http://www.w3.org/2000/svg">
<path d="M37.0003 3.00008V28.5001C37.0003 31.6167 34.4503 34.1667 31.3337 34.1667H0.166992V11.5001C0.166992 5.23841 5.23866 0.166748 11.5003 0.166748H34.167C35.7253 0.166748 37.0003 1.44175 37.0003 3.00008Z" fill="white"/>
<path opacity="0.4" d="M56.8337 34.1667V42.6667C56.8337 47.3701 53.037 51.1667 48.3337 51.1667H45.5003C45.5003 48.0501 42.9503 45.5001 39.8337 45.5001C36.717 45.5001 34.167 48.0501 34.167 51.1667H22.8337C22.8337 48.0501 20.2837 45.5001 17.167 45.5001C14.0503 45.5001 11.5003 48.0501 11.5003 51.1667H8.66699C3.96366 51.1667 0.166992 47.3701 0.166992 42.6667V34.1667H31.3337C34.4503 34.1667 37.0003 31.6167 37.0003 28.5001V8.66675H42.2137C44.2537 8.66675 46.1237 9.77175 47.1437 11.5284L51.9887 20.0001H48.3337C46.7753 20.0001 45.5003 21.2751 45.5003 22.8334V31.3334C45.5003 32.8917 46.7753 34.1667 48.3337 34.1667H56.8337Z" fill="white"/>
<path d="M17.1667 56.8333C18.6696 56.8333 20.1109 56.2363 21.1736 55.1736C22.2363 54.1109 22.8333 52.6696 22.8333 51.1667C22.8333 49.6638 22.2363 48.2224 21.1736 47.1597C20.1109 46.097 18.6696 45.5 17.1667 45.5C15.6638 45.5 14.2224 46.097 13.1597 47.1597C12.097 48.2224 11.5 49.6638 11.5 51.1667C11.5 52.6696 12.097 54.1109 13.1597 55.1736C14.2224 56.2363 15.6638 56.8333 17.1667 56.8333ZM39.8333 56.8333C41.3362 56.8333 42.7776 56.2363 43.8403 55.1736C44.903 54.1109 45.5 52.6696 45.5 51.1667C45.5 49.6638 44.903 48.2224 43.8403 47.1597C42.7776 46.097 41.3362 45.5 39.8333 45.5C38.3304 45.5 36.8891 46.097 35.8264 47.1597C34.7637 48.2224 34.1667 49.6638 34.1667 51.1667C34.1667 52.6696 34.7637 54.1109 35.8264 55.1736C36.8891 56.2363 38.3304 56.8333 39.8333 56.8333ZM56.8333 30.0017V34.1667H48.3333C46.775 34.1667 45.5 32.8917 45.5 31.3333V22.8333C45.5 21.275 46.775 20 48.3333 20H51.9883L56.0967 27.1967C56.5783 28.0467 56.8333 29.01 56.8333 30.0017Z" fill="white"/>
</svg>
