<svg width="60" height="60" viewBox="0 0 60 60" fill="none" xmlns="http://www.w3.org/2000/svg">
<path opacity="0.4" d="M39.6673 5.66976V31.1698C39.6673 34.2864 37.1173 36.8364 34.0007 36.8364H2.83398V18.7598C4.90232 21.2248 8.07565 22.7548 11.589 22.6698C14.4507 22.6131 17.029 21.5081 18.9557 19.6664C19.834 18.9298 20.5707 17.9948 21.1373 16.9748C22.1573 15.2464 22.724 13.2064 22.6673 11.0814C22.5823 7.76643 21.109 4.84809 18.814 2.83643H36.834C38.3923 2.83643 39.6673 4.11143 39.6673 5.66976Z" fill="white"/>
<path d="M59.5006 36.8364V45.3364C59.5006 50.0398 55.704 53.8364 51.0006 53.8364H48.1673C48.1673 50.7198 45.6173 48.1698 42.5006 48.1698C39.384 48.1698 36.834 50.7198 36.834 53.8364H25.5007C25.5007 50.7198 22.9507 48.1698 19.834 48.1698C16.7173 48.1698 14.1673 50.7198 14.1673 53.8364H11.334C6.63065 53.8364 2.83398 50.0398 2.83398 45.3364V36.8364H34.0007C37.1173 36.8364 39.6673 34.2864 39.6673 31.1698V11.3364H44.8807C46.9207 11.3364 48.7906 12.4414 49.8106 14.1981L54.6557 22.6698H51.0006C49.4423 22.6698 48.1673 23.9448 48.1673 25.5031V34.0031C48.1673 35.5614 49.4423 36.8364 51.0006 36.8364H59.5006Z" fill="white"/>
<path opacity="0.4" d="M19.8337 59.503C21.3366 59.503 22.7779 58.906 23.8406 57.8433C24.9033 56.7806 25.5003 55.3392 25.5003 53.8363C25.5003 52.3335 24.9033 50.8921 23.8406 49.8294C22.7779 48.7667 21.3366 48.1697 19.8337 48.1697C18.3308 48.1697 16.8894 48.7667 15.8267 49.8294C14.764 50.8921 14.167 52.3335 14.167 53.8363C14.167 55.3392 14.764 56.7806 15.8267 57.8433C16.8894 58.906 18.3308 59.503 19.8337 59.503ZM42.5003 59.503C44.0032 59.503 45.4446 58.906 46.5073 57.8433C47.57 56.7806 48.167 55.3392 48.167 53.8363C48.167 52.3335 47.57 50.8921 46.5073 49.8294C45.4446 48.7667 44.0032 48.1697 42.5003 48.1697C40.9974 48.1697 39.5561 48.7667 38.4934 49.8294C37.4307 50.8921 36.8337 52.3335 36.8337 53.8363C36.8337 55.3392 37.4307 56.7806 38.4934 57.8433C39.5561 58.906 40.9974 59.503 42.5003 59.503ZM59.5003 32.6713V36.8363H51.0003C49.442 36.8363 48.167 35.5613 48.167 34.003V25.503C48.167 23.9447 49.442 22.6697 51.0003 22.6697H54.6553L58.7637 29.8663C59.2453 30.7163 59.5003 31.6797 59.5003 32.6713Z" fill="white"/>
<path d="M18.8166 2.83629C16.688 0.949958 13.925 -0.0621093 11.0816 0.00295311C8.41825 0.0596198 5.98159 1.05129 4.05492 2.63795C1.50492 4.76295 -0.0817467 8.02129 0.00325326 11.5913C0.0599199 13.7163 0.683253 15.6996 1.78825 17.3713C2.09992 17.853 2.43992 18.3346 2.83659 18.7596C4.90492 21.2246 8.07825 22.7546 11.5916 22.6696C14.4533 22.613 17.0316 21.508 18.9583 19.6663C19.8366 18.9296 20.5733 17.9946 21.1399 16.9746C22.1599 15.2463 22.7266 13.2063 22.6699 11.0813C22.5849 7.76629 21.1116 4.84795 18.8166 2.83629ZM17.1733 9.97629L11.2516 15.6996C10.8557 16.0805 10.3276 16.2933 9.77825 16.2933C9.22886 16.2933 8.70082 16.0805 8.30492 15.6996L5.44325 12.9796C5.2411 12.7869 5.07916 12.5559 4.96678 12.3002C4.85441 12.0445 4.79384 11.769 4.78857 11.4898C4.7833 11.2105 4.83344 10.9329 4.93608 10.6732C5.03873 10.4134 5.19185 10.1765 5.38659 9.97629C6.20825 9.12629 7.53992 9.09795 8.38992 9.91962L9.77825 11.2513L14.2266 6.94462C15.0766 6.12295 16.4083 6.15129 17.2299 7.00129C18.0516 7.82295 18.0233 9.15462 17.1733 9.97629Z" fill="white"/>
</svg>
