<svg width="51" height="59" viewBox="0 0 51 59" fill="none" xmlns="http://www.w3.org/2000/svg">
<path opacity="0.4" d="M49.824 18.9833C46.8774 5.865 35.4307 0 25.4007 0H25.3724C15.3707 0 3.95236 5.865 0.977358 18.955C-2.36598 33.575 3.30096 38.7264 11.4043 46.5464C14.2765 49.3264 21.4034 58.1112 25.4007 58.1117C29.254 58.1117 33.1074 52.7233 36.0824 49.8333C44.1857 42.0133 53.139 33.6033 49.824 18.9833Z" fill="white"/>
<path d="M22.2728 35.4095C21.7345 35.4095 21.1961 35.2112 20.7711 34.7862L16.5211 30.5362C16.1259 30.1363 15.9043 29.5967 15.9043 29.0345C15.9043 28.4723 16.1259 27.9327 16.5211 27.5328C17.3428 26.7112 18.7028 26.7112 19.5245 27.5328L22.2728 30.2812L32.1045 20.4495C32.9261 19.6278 34.2861 19.6278 35.1078 20.4495C35.9295 21.2712 35.9295 22.6312 35.1078 23.4528L23.7745 34.7862C23.3495 35.2112 22.8111 35.4095 22.2728 35.4095Z" fill="white"/>
</svg>
